<svg xmlns="http://www.w3.org/2000/svg" width="1280" height="460" viewBox="0 0 1280 460"><rect x="0" y="0" width="100%" height="100%" fill="#ffffff"/><text x="640.0" y="28" font-size="20" text-anchor="middle" font-family="sans-serif" fill="#111827">이벤트 / 최근 반영 시점 / 일별</text><line x1="80.0" y1="52.0" x2="1198.0" y2="52.0" stroke="#e5e7eb" stroke-width="1"/><text x="72.0" y="56.0" font-size="11" text-anchor="end" font-family="sans-serif" fill="#374151">215,819</text><text x="1206.0" y="56.0" font-size="11" text-anchor="start" font-family="sans-serif" fill="#374151">423,833</text><line x1="80.0" y1="114.4" x2="1198.0" y2="114.4" stroke="#e5e7eb" stroke-width="1"/><text x="72.0" y="118.4" font-size="11" text-anchor="end" font-family="sans-serif" fill="#374151">172,655</text><text x="1206.0" y="118.4" font-size="11" text-anchor="start" font-family="sans-serif" fill="#374151">339,066</text><line x1="80.0" y1="176.8" x2="1198.0" y2="176.8" stroke="#e5e7eb" stroke-width="1"/><text x="72.0" y="180.8" font-size="11" text-anchor="end" font-family="sans-serif" fill="#374151">129,491</text><text x="1206.0" y="180.8" font-size="11" text-anchor="start" font-family="sans-serif" fill="#374151">254,300</text><line x1="80.0" y1="239.2" x2="1198.0" y2="239.2" stroke="#e5e7eb" stroke-width="1"/><text x="72.0" y="243.2" font-size="11" text-anchor="end" font-family="sans-serif" fill="#374151">86,328</text><text x="1206.0" y="243.2" font-size="11" text-anchor="start" font-family="sans-serif" fill="#374151">169,533</text><line x1="80.0" y1="301.6" x2="1198.0" y2="301.6" stroke="#e5e7eb" stroke-width="1"/><text x="72.0" y="305.6" font-size="11" text-anchor="end" font-family="sans-serif" fill="#374151">43,164</text><text x="1206.0" y="305.6" font-size="11" text-anchor="start" font-family="sans-serif" fill="#374151">84,767</text><line x1="80.0" y1="364.0" x2="1198.0" y2="364.0" stroke="#e5e7eb" stroke-width="1"/><text x="72.0" y="368.0" font-size="11" text-anchor="end" font-family="sans-serif" fill="#374151">0</text><text x="1206.0" y="368.0" font-size="11" text-anchor="start" font-family="sans-serif" fill="#374151">0</text><line x1="80.0" y1="364.0" x2="1198.0" y2="364.0" stroke="#111827" stroke-width="1.2"/><line x1="80.0" y1="52.0" x2="80.0" y2="364.0" stroke="#111827" stroke-width="1.2"/><line x1="1198.0" y1="52.0" x2="1198.0" y2="364.0" stroke="#111827" stroke-width="1.2"/><rect x="81.0" y="364.0" width="16.3" height="0.0" fill="#93c5fd" stroke="#60a5fa" stroke-width="0.5"/><rect x="99.3" y="52.0" width="16.3" height="312.0" fill="#93c5fd" stroke="#60a5fa" stroke-width="0.5"/><rect x="117.7" y="360.8" width="16.3" height="3.2" fill="#93c5fd" stroke="#60a5fa" stroke-width="0.5"/><rect x="136.0" y="360.6" width="16.3" height="3.4" fill="#93c5fd" stroke="#60a5fa" stroke-width="0.5"/><rect x="154.3" y="360.6" width="16.3" height="3.4" fill="#93c5fd" stroke="#60a5fa" stroke-width="0.5"/><rect x="172.6" y="361.8" width="16.3" height="2.2" fill="#93c5fd" stroke="#60a5fa" stroke-width="0.5"/><rect x="191.0" y="360.7" width="16.3" height="3.3" fill="#93c5fd" stroke="#60a5fa" stroke-width="0.5"/><rect x="209.3" y="360.6" width="16.3" height="3.4" fill="#93c5fd" stroke="#60a5fa" stroke-width="0.5"/><rect x="227.6" y="362.5" width="16.3" height="1.5" fill="#93c5fd" stroke="#60a5fa" stroke-width="0.5"/><rect x="246.0" y="360.9" width="16.3" height="3.1" fill="#93c5fd" stroke="#60a5fa" stroke-width="0.5"/><rect x="264.3" y="360.6" width="16.3" height="3.4" fill="#93c5fd" stroke="#60a5fa" stroke-width="0.5"/><rect x="282.6" y="360.7" width="16.3" height="3.3" fill="#93c5fd" stroke="#60a5fa" stroke-width="0.5"/><rect x="300.9" y="361.1" width="16.3" height="2.9" fill="#93c5fd" stroke="#60a5fa" stroke-width="0.5"/><rect x="319.3" y="360.9" width="16.3" height="3.1" fill="#93c5fd" stroke="#60a5fa" stroke-width="0.5"/><rect x="337.6" y="361.0" width="16.3" height="3.0" fill="#93c5fd" stroke="#60a5fa" stroke-width="0.5"/><rect x="355.9" y="360.5" width="16.3" height="3.5" fill="#93c5fd" stroke="#60a5fa" stroke-width="0.5"/><rect x="374.2" y="359.2" width="16.3" height="4.8" fill="#93c5fd" stroke="#60a5fa" stroke-width="0.5"/><rect x="392.6" y="359.8" width="16.3" height="4.2" fill="#93c5fd" stroke="#60a5fa" stroke-width="0.5"/><rect x="410.9" y="359.6" width="16.3" height="4.4" fill="#93c5fd" stroke="#60a5fa" stroke-width="0.5"/><rect x="429.2" y="359.6" width="16.3" height="4.4" fill="#93c5fd" stroke="#60a5fa" stroke-width="0.5"/><rect x="447.6" y="359.4" width="16.3" height="4.6" fill="#93c5fd" stroke="#60a5fa" stroke-width="0.5"/><rect x="465.9" y="359.6" width="16.3" height="4.4" fill="#93c5fd" stroke="#60a5fa" stroke-width="0.5"/><rect x="484.2" y="359.8" width="16.3" height="4.2" fill="#93c5fd" stroke="#60a5fa" stroke-width="0.5"/><rect x="502.5" y="359.6" width="16.3" height="4.4" fill="#93c5fd" stroke="#60a5fa" stroke-width="0.5"/><rect x="520.9" y="359.9" width="16.3" height="4.1" fill="#93c5fd" stroke="#60a5fa" stroke-width="0.5"/><rect x="539.2" y="359.2" width="16.3" height="4.8" fill="#93c5fd" stroke="#60a5fa" stroke-width="0.5"/><rect x="557.5" y="358.9" width="16.3" height="5.1" fill="#93c5fd" stroke="#60a5fa" stroke-width="0.5"/><rect x="575.9" y="359.7" width="16.3" height="4.3" fill="#93c5fd" stroke="#60a5fa" stroke-width="0.5"/><rect x="594.2" y="360.2" width="16.3" height="3.8" fill="#93c5fd" stroke="#60a5fa" stroke-width="0.5"/><rect x="612.5" y="359.7" width="16.3" height="4.3" fill="#93c5fd" stroke="#60a5fa" stroke-width="0.5"/><rect x="630.8" y="359.6" width="16.3" height="4.4" fill="#93c5fd" stroke="#60a5fa" stroke-width="0.5"/><rect x="649.2" y="359.4" width="16.3" height="4.6" fill="#93c5fd" stroke="#60a5fa" stroke-width="0.5"/><rect x="667.5" y="359.4" width="16.3" height="4.6" fill="#93c5fd" stroke="#60a5fa" stroke-width="0.5"/><rect x="685.8" y="359.8" width="16.3" height="4.2" fill="#93c5fd" stroke="#60a5fa" stroke-width="0.5"/><rect x="704.1" y="358.8" width="16.3" height="5.2" fill="#93c5fd" stroke="#60a5fa" stroke-width="0.5"/><rect x="722.5" y="360.0" width="16.3" height="4.0" fill="#93c5fd" stroke="#60a5fa" stroke-width="0.5"/><rect x="740.8" y="358.7" width="16.3" height="5.3" fill="#93c5fd" stroke="#60a5fa" stroke-width="0.5"/><rect x="759.1" y="360.1" width="16.3" height="3.9" fill="#93c5fd" stroke="#60a5fa" stroke-width="0.5"/><rect x="777.5" y="359.5" width="16.3" height="4.5" fill="#93c5fd" stroke="#60a5fa" stroke-width="0.5"/><rect x="795.8" y="359.6" width="16.3" height="4.4" fill="#93c5fd" stroke="#60a5fa" stroke-width="0.5"/><rect x="814.1" y="359.5" width="16.3" height="4.5" fill="#93c5fd" stroke="#60a5fa" stroke-width="0.5"/><rect x="832.4" y="359.7" width="16.3" height="4.3" fill="#93c5fd" stroke="#60a5fa" stroke-width="0.5"/><rect x="850.8" y="359.1" width="16.3" height="4.9" fill="#93c5fd" stroke="#60a5fa" stroke-width="0.5"/><rect x="869.1" y="359.8" width="16.3" height="4.2" fill="#93c5fd" stroke="#60a5fa" stroke-width="0.5"/><rect x="887.4" y="359.8" width="16.3" height="4.2" fill="#93c5fd" stroke="#60a5fa" stroke-width="0.5"/><rect x="905.8" y="359.4" width="16.3" height="4.6" fill="#93c5fd" stroke="#60a5fa" stroke-width="0.5"/><rect x="924.1" y="359.0" width="16.3" height="5.0" fill="#93c5fd" stroke="#60a5fa" stroke-width="0.5"/><rect x="942.4" y="359.2" width="16.3" height="4.8" fill="#93c5fd" stroke="#60a5fa" stroke-width="0.5"/><rect x="960.7" y="359.9" width="16.3" height="4.1" fill="#93c5fd" stroke="#60a5fa" stroke-width="0.5"/><rect x="979.1" y="359.1" width="16.3" height="4.9" fill="#93c5fd" stroke="#60a5fa" stroke-width="0.5"/><rect x="997.4" y="359.7" width="16.3" height="4.3" fill="#93c5fd" stroke="#60a5fa" stroke-width="0.5"/><rect x="1015.7" y="359.6" width="16.3" height="4.4" fill="#93c5fd" stroke="#60a5fa" stroke-width="0.5"/><rect x="1034.0" y="359.1" width="16.3" height="4.9" fill="#93c5fd" stroke="#60a5fa" stroke-width="0.5"/><rect x="1052.4" y="359.2" width="16.3" height="4.8" fill="#93c5fd" stroke="#60a5fa" stroke-width="0.5"/><rect x="1070.7" y="359.4" width="16.3" height="4.6" fill="#93c5fd" stroke="#60a5fa" stroke-width="0.5"/><rect x="1089.0" y="359.4" width="16.3" height="4.6" fill="#93c5fd" stroke="#60a5fa" stroke-width="0.5"/><rect x="1107.4" y="359.4" width="16.3" height="4.6" fill="#93c5fd" stroke="#60a5fa" stroke-width="0.5"/><rect x="1125.7" y="359.4" width="16.3" height="4.6" fill="#93c5fd" stroke="#60a5fa" stroke-width="0.5"/><rect x="1144.0" y="358.6" width="16.3" height="5.4" fill="#93c5fd" stroke="#60a5fa" stroke-width="0.5"/><rect x="1162.3" y="359.7" width="16.3" height="4.3" fill="#93c5fd" stroke="#60a5fa" stroke-width="0.5"/><rect x="1180.7" y="305.1" width="16.3" height="58.9" fill="#93c5fd" stroke="#60a5fa" stroke-width="0.5"/><polyline fill="none" stroke="#ef4444" stroke-width="2" points="89.2,364.0 107.5,205.1 125.8,203.5 144.1,201.7 162.5,200.0 180.8,198.9 199.1,197.2 217.5,195.5 235.8,194.7 254.1,193.1 272.4,191.4 290.8,189.7 309.1,188.2 327.4,186.7 345.8,185.1 364.1,183.4 382.4,180.9 400.7,178.8 419.1,176.6 437.4,174.3 455.7,172.0 474.0,169.8 492.4,167.6 510.7,165.4 529.0,163.3 547.4,160.9 565.7,158.3 584.0,156.1 602.3,154.1 620.7,151.9 639.0,149.7 657.3,147.4 675.7,145.0 694.0,142.9 712.3,140.2 730.6,138.1 749.0,135.4 767.3,133.5 785.6,131.2 804.0,128.9 822.3,126.7 840.6,124.4 858.9,121.9 877.3,119.8 895.6,117.6 913.9,115.3 932.2,112.7 950.6,110.3 968.9,108.1 987.2,105.7 1005.6,103.5 1023.9,101.2 1042.2,98.8 1060.5,96.3 1078.9,94.0 1097.2,91.6 1115.5,89.3 1133.9,86.9 1152.2,84.2 1170.5,82.0 1188.8,52.0"/><line x1="89.2" y1="364.0" x2="89.2" y2="370.0" stroke="#111827" stroke-width="1"/><text x="91.2" y="386.0" font-size="11" text-anchor="end" transform="rotate(-35 91.2 386.0)" font-family="sans-serif" fill="#374151">2026-02-17</text><line x1="254.1" y1="364.0" x2="254.1" y2="370.0" stroke="#111827" stroke-width="1"/><text x="256.1" y="386.0" font-size="11" text-anchor="end" transform="rotate(-35 256.1 386.0)" font-family="sans-serif" fill="#374151">2026-03-10</text><line x1="400.7" y1="364.0" x2="400.7" y2="370.0" stroke="#111827" stroke-width="1"/><text x="402.7" y="386.0" font-size="11" text-anchor="end" transform="rotate(-35 402.7 386.0)" font-family="sans-serif" fill="#374151">2026-03-18</text><line x1="565.7" y1="364.0" x2="565.7" y2="370.0" stroke="#111827" stroke-width="1"/><text x="567.7" y="386.0" font-size="11" text-anchor="end" transform="rotate(-35 567.7 386.0)" font-family="sans-serif" fill="#374151">2026-03-27</text><line x1="712.3" y1="364.0" x2="712.3" y2="370.0" stroke="#111827" stroke-width="1"/><text x="714.3" y="386.0" font-size="11" text-anchor="end" transform="rotate(-35 714.3 386.0)" font-family="sans-serif" fill="#374151">2026-04-04</text><line x1="877.3" y1="364.0" x2="877.3" y2="370.0" stroke="#111827" stroke-width="1"/><text x="879.3" y="386.0" font-size="11" text-anchor="end" transform="rotate(-35 879.3 386.0)" font-family="sans-serif" fill="#374151">2026-04-13</text><line x1="1023.9" y1="364.0" x2="1023.9" y2="370.0" stroke="#111827" stroke-width="1"/><text x="1025.9" y="386.0" font-size="11" text-anchor="end" transform="rotate(-35 1025.9 386.0)" font-family="sans-serif" fill="#374151">2026-04-21</text><line x1="1188.8" y1="364.0" x2="1188.8" y2="370.0" stroke="#111827" stroke-width="1"/><text x="1190.8" y="386.0" font-size="11" text-anchor="end" transform="rotate(-35 1190.8 386.0)" font-family="sans-serif" fill="#374151">2026-04-30</text><text x="26" y="208.0" font-size="12" transform="rotate(-90 26 208.0)" text-anchor="middle" font-family="sans-serif" fill="#1f2937">구간별 수</text><text x="1256.0" y="208.0" font-size="12" transform="rotate(90 1256.0 208.0)" text-anchor="middle" font-family="sans-serif" fill="#1f2937">누적</text><text x="639.0" y="442.0" font-size="13" text-anchor="middle" font-family="sans-serif" fill="#111827">일</text></svg>