<svg xmlns="http://www.w3.org/2000/svg" width="1280" height="460" viewBox="0 0 1280 460"><rect x="0" y="0" width="100%" height="100%" fill="#ffffff"/><text x="640.0" y="28" font-size="20" text-anchor="middle" font-family="sans-serif" fill="#111827">이벤트 / 최근 반영 시점 / 일별</text><line x1="80.0" y1="52.0" x2="1198.0" y2="52.0" stroke="#e5e7eb" stroke-width="1"/><text x="72.0" y="56.0" font-size="11" text-anchor="end" font-family="sans-serif" fill="#374151">215,902</text><text x="1206.0" y="56.0" font-size="11" text-anchor="start" font-family="sans-serif" fill="#374151">358,820</text><line x1="80.0" y1="114.4" x2="1198.0" y2="114.4" stroke="#e5e7eb" stroke-width="1"/><text x="72.0" y="118.4" font-size="11" text-anchor="end" font-family="sans-serif" fill="#374151">172,722</text><text x="1206.0" y="118.4" font-size="11" text-anchor="start" font-family="sans-serif" fill="#374151">287,056</text><line x1="80.0" y1="176.8" x2="1198.0" y2="176.8" stroke="#e5e7eb" stroke-width="1"/><text x="72.0" y="180.8" font-size="11" text-anchor="end" font-family="sans-serif" fill="#374151">129,541</text><text x="1206.0" y="180.8" font-size="11" text-anchor="start" font-family="sans-serif" fill="#374151">215,292</text><line x1="80.0" y1="239.2" x2="1198.0" y2="239.2" stroke="#e5e7eb" stroke-width="1"/><text x="72.0" y="243.2" font-size="11" text-anchor="end" font-family="sans-serif" fill="#374151">86,361</text><text x="1206.0" y="243.2" font-size="11" text-anchor="start" font-family="sans-serif" fill="#374151">143,528</text><line x1="80.0" y1="301.6" x2="1198.0" y2="301.6" stroke="#e5e7eb" stroke-width="1"/><text x="72.0" y="305.6" font-size="11" text-anchor="end" font-family="sans-serif" fill="#374151">43,180</text><text x="1206.0" y="305.6" font-size="11" text-anchor="start" font-family="sans-serif" fill="#374151">71,764</text><line x1="80.0" y1="364.0" x2="1198.0" y2="364.0" stroke="#e5e7eb" stroke-width="1"/><text x="72.0" y="368.0" font-size="11" text-anchor="end" font-family="sans-serif" fill="#374151">0</text><text x="1206.0" y="368.0" font-size="11" text-anchor="start" font-family="sans-serif" fill="#374151">0</text><line x1="80.0" y1="364.0" x2="1198.0" y2="364.0" stroke="#111827" stroke-width="1.2"/><line x1="80.0" y1="52.0" x2="80.0" y2="364.0" stroke="#111827" stroke-width="1.2"/><line x1="1198.0" y1="52.0" x2="1198.0" y2="364.0" stroke="#111827" stroke-width="1.2"/><rect x="81.0" y="364.0" width="24.0" height="0.0" fill="#93c5fd" stroke="#60a5fa" stroke-width="0.5"/><rect x="107.0" y="52.0" width="24.0" height="312.0" fill="#93c5fd" stroke="#60a5fa" stroke-width="0.5"/><rect x="133.0" y="360.8" width="24.0" height="3.2" fill="#93c5fd" stroke="#60a5fa" stroke-width="0.5"/><rect x="159.0" y="360.6" width="24.0" height="3.4" fill="#93c5fd" stroke="#60a5fa" stroke-width="0.5"/><rect x="185.0" y="360.6" width="24.0" height="3.4" fill="#93c5fd" stroke="#60a5fa" stroke-width="0.5"/><rect x="211.0" y="361.8" width="24.0" height="2.2" fill="#93c5fd" stroke="#60a5fa" stroke-width="0.5"/><rect x="237.0" y="360.7" width="24.0" height="3.3" fill="#93c5fd" stroke="#60a5fa" stroke-width="0.5"/><rect x="263.0" y="360.6" width="24.0" height="3.4" fill="#93c5fd" stroke="#60a5fa" stroke-width="0.5"/><rect x="289.0" y="362.5" width="24.0" height="1.5" fill="#93c5fd" stroke="#60a5fa" stroke-width="0.5"/><rect x="315.0" y="360.9" width="24.0" height="3.1" fill="#93c5fd" stroke="#60a5fa" stroke-width="0.5"/><rect x="341.0" y="360.6" width="24.0" height="3.4" fill="#93c5fd" stroke="#60a5fa" stroke-width="0.5"/><rect x="367.0" y="360.7" width="24.0" height="3.3" fill="#93c5fd" stroke="#60a5fa" stroke-width="0.5"/><rect x="393.0" y="361.1" width="24.0" height="2.9" fill="#93c5fd" stroke="#60a5fa" stroke-width="0.5"/><rect x="419.0" y="360.9" width="24.0" height="3.1" fill="#93c5fd" stroke="#60a5fa" stroke-width="0.5"/><rect x="445.0" y="361.0" width="24.0" height="3.0" fill="#93c5fd" stroke="#60a5fa" stroke-width="0.5"/><rect x="471.0" y="360.5" width="24.0" height="3.5" fill="#93c5fd" stroke="#60a5fa" stroke-width="0.5"/><rect x="497.0" y="359.2" width="24.0" height="4.8" fill="#93c5fd" stroke="#60a5fa" stroke-width="0.5"/><rect x="523.0" y="359.8" width="24.0" height="4.2" fill="#93c5fd" stroke="#60a5fa" stroke-width="0.5"/><rect x="549.0" y="359.7" width="24.0" height="4.3" fill="#93c5fd" stroke="#60a5fa" stroke-width="0.5"/><rect x="575.0" y="359.6" width="24.0" height="4.4" fill="#93c5fd" stroke="#60a5fa" stroke-width="0.5"/><rect x="601.0" y="359.4" width="24.0" height="4.6" fill="#93c5fd" stroke="#60a5fa" stroke-width="0.5"/><rect x="627.0" y="359.6" width="24.0" height="4.4" fill="#93c5fd" stroke="#60a5fa" stroke-width="0.5"/><rect x="653.0" y="359.8" width="24.0" height="4.2" fill="#93c5fd" stroke="#60a5fa" stroke-width="0.5"/><rect x="679.0" y="359.6" width="24.0" height="4.4" fill="#93c5fd" stroke="#60a5fa" stroke-width="0.5"/><rect x="705.0" y="359.9" width="24.0" height="4.1" fill="#93c5fd" stroke="#60a5fa" stroke-width="0.5"/><rect x="731.0" y="359.2" width="24.0" height="4.8" fill="#93c5fd" stroke="#60a5fa" stroke-width="0.5"/><rect x="757.0" y="358.9" width="24.0" height="5.1" fill="#93c5fd" stroke="#60a5fa" stroke-width="0.5"/><rect x="783.0" y="359.7" width="24.0" height="4.3" fill="#93c5fd" stroke="#60a5fa" stroke-width="0.5"/><rect x="809.0" y="360.2" width="24.0" height="3.8" fill="#93c5fd" stroke="#60a5fa" stroke-width="0.5"/><rect x="835.0" y="359.7" width="24.0" height="4.3" fill="#93c5fd" stroke="#60a5fa" stroke-width="0.5"/><rect x="861.0" y="359.6" width="24.0" height="4.4" fill="#93c5fd" stroke="#60a5fa" stroke-width="0.5"/><rect x="887.0" y="359.4" width="24.0" height="4.6" fill="#93c5fd" stroke="#60a5fa" stroke-width="0.5"/><rect x="913.0" y="359.3" width="24.0" height="4.7" fill="#93c5fd" stroke="#60a5fa" stroke-width="0.5"/><rect x="939.0" y="359.8" width="24.0" height="4.2" fill="#93c5fd" stroke="#60a5fa" stroke-width="0.5"/><rect x="965.0" y="358.8" width="24.0" height="5.2" fill="#93c5fd" stroke="#60a5fa" stroke-width="0.5"/><rect x="991.0" y="360.0" width="24.0" height="4.0" fill="#93c5fd" stroke="#60a5fa" stroke-width="0.5"/><rect x="1017.0" y="358.7" width="24.0" height="5.3" fill="#93c5fd" stroke="#60a5fa" stroke-width="0.5"/><rect x="1043.0" y="360.1" width="24.0" height="3.9" fill="#93c5fd" stroke="#60a5fa" stroke-width="0.5"/><rect x="1069.0" y="359.5" width="24.0" height="4.5" fill="#93c5fd" stroke="#60a5fa" stroke-width="0.5"/><rect x="1095.0" y="359.6" width="24.0" height="4.4" fill="#93c5fd" stroke="#60a5fa" stroke-width="0.5"/><rect x="1121.0" y="359.5" width="24.0" height="4.5" fill="#93c5fd" stroke="#60a5fa" stroke-width="0.5"/><rect x="1147.0" y="358.3" width="24.0" height="5.7" fill="#93c5fd" stroke="#60a5fa" stroke-width="0.5"/><rect x="1173.0" y="317.4" width="24.0" height="46.6" fill="#93c5fd" stroke="#60a5fa" stroke-width="0.5"/><polyline fill="none" stroke="#ef4444" stroke-width="2" points="93.0,364.0 119.0,176.3 145.0,174.3 171.0,172.3 197.0,170.2 223.0,168.9 249.0,166.9 275.0,164.9 301.0,163.9 327.0,162.1 353.0,160.1 379.0,158.1 405.0,156.3 431.0,154.5 457.0,152.7 483.0,150.6 509.0,147.7 535.0,145.2 561.0,142.6 587.0,139.9 613.0,137.1 639.0,134.5 665.0,131.9 691.0,129.3 717.0,126.9 743.0,124.0 769.0,120.9 795.0,118.3 821.0,116.0 847.0,113.4 873.0,110.8 899.0,108.0 925.0,105.2 951.0,102.7 977.0,99.5 1003.0,97.1 1029.0,93.9 1055.0,91.6 1081.0,88.9 1107.0,86.2 1133.0,83.5 1159.0,80.0 1185.0,52.0"/><line x1="93.0" y1="364.0" x2="93.0" y2="370.0" stroke="#111827" stroke-width="1"/><text x="95.0" y="386.0" font-size="11" text-anchor="end" transform="rotate(-35 95.0 386.0)" font-family="sans-serif" fill="#374151">2026-02-17</text><line x1="249.0" y1="364.0" x2="249.0" y2="370.0" stroke="#111827" stroke-width="1"/><text x="251.0" y="386.0" font-size="11" text-anchor="end" transform="rotate(-35 251.0 386.0)" font-family="sans-serif" fill="#374151">2026-03-07</text><line x1="405.0" y1="364.0" x2="405.0" y2="370.0" stroke="#111827" stroke-width="1"/><text x="407.0" y="386.0" font-size="11" text-anchor="end" transform="rotate(-35 407.0 386.0)" font-family="sans-serif" fill="#374151">2026-03-13</text><line x1="561.0" y1="364.0" x2="561.0" y2="370.0" stroke="#111827" stroke-width="1"/><text x="563.0" y="386.0" font-size="11" text-anchor="end" transform="rotate(-35 563.0 386.0)" font-family="sans-serif" fill="#374151">2026-03-19</text><line x1="717.0" y1="364.0" x2="717.0" y2="370.0" stroke="#111827" stroke-width="1"/><text x="719.0" y="386.0" font-size="11" text-anchor="end" transform="rotate(-35 719.0 386.0)" font-family="sans-serif" fill="#374151">2026-03-25</text><line x1="873.0" y1="364.0" x2="873.0" y2="370.0" stroke="#111827" stroke-width="1"/><text x="875.0" y="386.0" font-size="11" text-anchor="end" transform="rotate(-35 875.0 386.0)" font-family="sans-serif" fill="#374151">2026-03-31</text><line x1="1029.0" y1="364.0" x2="1029.0" y2="370.0" stroke="#111827" stroke-width="1"/><text x="1031.0" y="386.0" font-size="11" text-anchor="end" transform="rotate(-35 1031.0 386.0)" font-family="sans-serif" fill="#374151">2026-04-06</text><line x1="1185.0" y1="364.0" x2="1185.0" y2="370.0" stroke="#111827" stroke-width="1"/><text x="1187.0" y="386.0" font-size="11" text-anchor="end" transform="rotate(-35 1187.0 386.0)" font-family="sans-serif" fill="#374151">2026-04-12</text><text x="26" y="208.0" font-size="12" transform="rotate(-90 26 208.0)" text-anchor="middle" font-family="sans-serif" fill="#1f2937">구간별 수</text><text x="1256.0" y="208.0" font-size="12" transform="rotate(90 1256.0 208.0)" text-anchor="middle" font-family="sans-serif" fill="#1f2937">누적</text><text x="639.0" y="442.0" font-size="13" text-anchor="middle" font-family="sans-serif" fill="#111827">일</text></svg>