<svg xmlns="http://www.w3.org/2000/svg" width="1280" height="460" viewBox="0 0 1280 460"><rect x="0" y="0" width="100%" height="100%" fill="#ffffff"/><text x="640.0" y="28" font-size="20" text-anchor="middle" font-family="sans-serif" fill="#111827">이벤트 / 최근 반영 시점 / 일별</text><line x1="80.0" y1="52.0" x2="1198.0" y2="52.0" stroke="#e5e7eb" stroke-width="1"/><text x="72.0" y="56.0" font-size="11" text-anchor="end" font-family="sans-serif" fill="#374151">215,905</text><text x="1206.0" y="56.0" font-size="11" text-anchor="start" font-family="sans-serif" fill="#374151">355,722</text><line x1="80.0" y1="114.4" x2="1198.0" y2="114.4" stroke="#e5e7eb" stroke-width="1"/><text x="72.0" y="118.4" font-size="11" text-anchor="end" font-family="sans-serif" fill="#374151">172,724</text><text x="1206.0" y="118.4" font-size="11" text-anchor="start" font-family="sans-serif" fill="#374151">284,578</text><line x1="80.0" y1="176.8" x2="1198.0" y2="176.8" stroke="#e5e7eb" stroke-width="1"/><text x="72.0" y="180.8" font-size="11" text-anchor="end" font-family="sans-serif" fill="#374151">129,543</text><text x="1206.0" y="180.8" font-size="11" text-anchor="start" font-family="sans-serif" fill="#374151">213,433</text><line x1="80.0" y1="239.2" x2="1198.0" y2="239.2" stroke="#e5e7eb" stroke-width="1"/><text x="72.0" y="243.2" font-size="11" text-anchor="end" font-family="sans-serif" fill="#374151">86,362</text><text x="1206.0" y="243.2" font-size="11" text-anchor="start" font-family="sans-serif" fill="#374151">142,289</text><line x1="80.0" y1="301.6" x2="1198.0" y2="301.6" stroke="#e5e7eb" stroke-width="1"/><text x="72.0" y="305.6" font-size="11" text-anchor="end" font-family="sans-serif" fill="#374151">43,181</text><text x="1206.0" y="305.6" font-size="11" text-anchor="start" font-family="sans-serif" fill="#374151">71,144</text><line x1="80.0" y1="364.0" x2="1198.0" y2="364.0" stroke="#e5e7eb" stroke-width="1"/><text x="72.0" y="368.0" font-size="11" text-anchor="end" font-family="sans-serif" fill="#374151">0</text><text x="1206.0" y="368.0" font-size="11" text-anchor="start" font-family="sans-serif" fill="#374151">0</text><line x1="80.0" y1="364.0" x2="1198.0" y2="364.0" stroke="#111827" stroke-width="1.2"/><line x1="80.0" y1="52.0" x2="80.0" y2="364.0" stroke="#111827" stroke-width="1.2"/><line x1="1198.0" y1="52.0" x2="1198.0" y2="364.0" stroke="#111827" stroke-width="1.2"/><rect x="81.0" y="364.0" width="24.6" height="0.0" fill="#93c5fd" stroke="#60a5fa" stroke-width="0.5"/><rect x="107.6" y="52.0" width="24.6" height="312.0" fill="#93c5fd" stroke="#60a5fa" stroke-width="0.5"/><rect x="134.2" y="360.8" width="24.6" height="3.2" fill="#93c5fd" stroke="#60a5fa" stroke-width="0.5"/><rect x="160.9" y="360.6" width="24.6" height="3.4" fill="#93c5fd" stroke="#60a5fa" stroke-width="0.5"/><rect x="187.5" y="360.6" width="24.6" height="3.4" fill="#93c5fd" stroke="#60a5fa" stroke-width="0.5"/><rect x="214.1" y="361.8" width="24.6" height="2.2" fill="#93c5fd" stroke="#60a5fa" stroke-width="0.5"/><rect x="240.7" y="360.7" width="24.6" height="3.3" fill="#93c5fd" stroke="#60a5fa" stroke-width="0.5"/><rect x="267.3" y="360.6" width="24.6" height="3.4" fill="#93c5fd" stroke="#60a5fa" stroke-width="0.5"/><rect x="294.0" y="362.5" width="24.6" height="1.5" fill="#93c5fd" stroke="#60a5fa" stroke-width="0.5"/><rect x="320.6" y="360.9" width="24.6" height="3.1" fill="#93c5fd" stroke="#60a5fa" stroke-width="0.5"/><rect x="347.2" y="360.6" width="24.6" height="3.4" fill="#93c5fd" stroke="#60a5fa" stroke-width="0.5"/><rect x="373.8" y="360.7" width="24.6" height="3.3" fill="#93c5fd" stroke="#60a5fa" stroke-width="0.5"/><rect x="400.4" y="361.1" width="24.6" height="2.9" fill="#93c5fd" stroke="#60a5fa" stroke-width="0.5"/><rect x="427.0" y="360.9" width="24.6" height="3.1" fill="#93c5fd" stroke="#60a5fa" stroke-width="0.5"/><rect x="453.7" y="361.0" width="24.6" height="3.0" fill="#93c5fd" stroke="#60a5fa" stroke-width="0.5"/><rect x="480.3" y="360.5" width="24.6" height="3.5" fill="#93c5fd" stroke="#60a5fa" stroke-width="0.5"/><rect x="506.9" y="359.2" width="24.6" height="4.8" fill="#93c5fd" stroke="#60a5fa" stroke-width="0.5"/><rect x="533.5" y="359.8" width="24.6" height="4.2" fill="#93c5fd" stroke="#60a5fa" stroke-width="0.5"/><rect x="560.1" y="359.7" width="24.6" height="4.3" fill="#93c5fd" stroke="#60a5fa" stroke-width="0.5"/><rect x="586.8" y="359.6" width="24.6" height="4.4" fill="#93c5fd" stroke="#60a5fa" stroke-width="0.5"/><rect x="613.4" y="359.4" width="24.6" height="4.6" fill="#93c5fd" stroke="#60a5fa" stroke-width="0.5"/><rect x="640.0" y="359.6" width="24.6" height="4.4" fill="#93c5fd" stroke="#60a5fa" stroke-width="0.5"/><rect x="666.6" y="359.8" width="24.6" height="4.2" fill="#93c5fd" stroke="#60a5fa" stroke-width="0.5"/><rect x="693.2" y="359.6" width="24.6" height="4.4" fill="#93c5fd" stroke="#60a5fa" stroke-width="0.5"/><rect x="719.9" y="359.9" width="24.6" height="4.1" fill="#93c5fd" stroke="#60a5fa" stroke-width="0.5"/><rect x="746.5" y="359.2" width="24.6" height="4.8" fill="#93c5fd" stroke="#60a5fa" stroke-width="0.5"/><rect x="773.1" y="358.9" width="24.6" height="5.1" fill="#93c5fd" stroke="#60a5fa" stroke-width="0.5"/><rect x="799.7" y="359.7" width="24.6" height="4.3" fill="#93c5fd" stroke="#60a5fa" stroke-width="0.5"/><rect x="826.3" y="360.2" width="24.6" height="3.8" fill="#93c5fd" stroke="#60a5fa" stroke-width="0.5"/><rect x="853.0" y="359.7" width="24.6" height="4.3" fill="#93c5fd" stroke="#60a5fa" stroke-width="0.5"/><rect x="879.6" y="359.6" width="24.6" height="4.4" fill="#93c5fd" stroke="#60a5fa" stroke-width="0.5"/><rect x="906.2" y="359.4" width="24.6" height="4.6" fill="#93c5fd" stroke="#60a5fa" stroke-width="0.5"/><rect x="932.8" y="359.3" width="24.6" height="4.7" fill="#93c5fd" stroke="#60a5fa" stroke-width="0.5"/><rect x="959.4" y="359.8" width="24.6" height="4.2" fill="#93c5fd" stroke="#60a5fa" stroke-width="0.5"/><rect x="986.0" y="358.8" width="24.6" height="5.2" fill="#93c5fd" stroke="#60a5fa" stroke-width="0.5"/><rect x="1012.7" y="360.0" width="24.6" height="4.0" fill="#93c5fd" stroke="#60a5fa" stroke-width="0.5"/><rect x="1039.3" y="358.7" width="24.6" height="5.3" fill="#93c5fd" stroke="#60a5fa" stroke-width="0.5"/><rect x="1065.9" y="360.1" width="24.6" height="3.9" fill="#93c5fd" stroke="#60a5fa" stroke-width="0.5"/><rect x="1092.5" y="359.5" width="24.6" height="4.5" fill="#93c5fd" stroke="#60a5fa" stroke-width="0.5"/><rect x="1119.1" y="359.5" width="24.6" height="4.5" fill="#93c5fd" stroke="#60a5fa" stroke-width="0.5"/><rect x="1145.8" y="359.2" width="24.6" height="4.8" fill="#93c5fd" stroke="#60a5fa" stroke-width="0.5"/><rect x="1172.4" y="316.5" width="24.6" height="47.5" fill="#93c5fd" stroke="#60a5fa" stroke-width="0.5"/><polyline fill="none" stroke="#ef4444" stroke-width="2" points="93.3,364.0 119.9,174.6 146.5,172.7 173.2,170.6 199.8,168.5 226.4,167.2 253.0,165.2 279.6,163.1 306.3,162.2 332.9,160.3 359.5,158.3 386.1,156.3 412.7,154.5 439.4,152.6 466.0,150.8 492.6,148.7 519.2,145.8 545.8,143.3 572.5,140.6 599.1,137.9 625.7,135.2 652.3,132.5 678.9,129.9 705.5,127.3 732.2,124.8 758.8,121.9 785.4,118.8 812.0,116.2 838.6,113.9 865.3,111.2 891.9,108.6 918.5,105.8 945.1,102.9 971.7,100.4 998.4,97.2 1025.0,94.8 1051.6,91.5 1078.2,89.2 1104.8,86.4 1131.5,83.7 1158.1,80.8 1184.7,52.0"/><line x1="93.3" y1="364.0" x2="93.3" y2="370.0" stroke="#111827" stroke-width="1"/><text x="95.3" y="386.0" font-size="11" text-anchor="end" transform="rotate(-35 95.3 386.0)" font-family="sans-serif" fill="#374151">2026-02-17</text><line x1="253.0" y1="364.0" x2="253.0" y2="370.0" stroke="#111827" stroke-width="1"/><text x="255.0" y="386.0" font-size="11" text-anchor="end" transform="rotate(-35 255.0 386.0)" font-family="sans-serif" fill="#374151">2026-03-07</text><line x1="412.7" y1="364.0" x2="412.7" y2="370.0" stroke="#111827" stroke-width="1"/><text x="414.7" y="386.0" font-size="11" text-anchor="end" transform="rotate(-35 414.7 386.0)" font-family="sans-serif" fill="#374151">2026-03-13</text><line x1="572.5" y1="364.0" x2="572.5" y2="370.0" stroke="#111827" stroke-width="1"/><text x="574.5" y="386.0" font-size="11" text-anchor="end" transform="rotate(-35 574.5 386.0)" font-family="sans-serif" fill="#374151">2026-03-19</text><line x1="705.5" y1="364.0" x2="705.5" y2="370.0" stroke="#111827" stroke-width="1"/><text x="707.5" y="386.0" font-size="11" text-anchor="end" transform="rotate(-35 707.5 386.0)" font-family="sans-serif" fill="#374151">2026-03-24</text><line x1="865.3" y1="364.0" x2="865.3" y2="370.0" stroke="#111827" stroke-width="1"/><text x="867.3" y="386.0" font-size="11" text-anchor="end" transform="rotate(-35 867.3 386.0)" font-family="sans-serif" fill="#374151">2026-03-30</text><line x1="1025.0" y1="364.0" x2="1025.0" y2="370.0" stroke="#111827" stroke-width="1"/><text x="1027.0" y="386.0" font-size="11" text-anchor="end" transform="rotate(-35 1027.0 386.0)" font-family="sans-serif" fill="#374151">2026-04-05</text><line x1="1184.7" y1="364.0" x2="1184.7" y2="370.0" stroke="#111827" stroke-width="1"/><text x="1186.7" y="386.0" font-size="11" text-anchor="end" transform="rotate(-35 1186.7 386.0)" font-family="sans-serif" fill="#374151">2026-04-11</text><text x="26" y="208.0" font-size="12" transform="rotate(-90 26 208.0)" text-anchor="middle" font-family="sans-serif" fill="#1f2937">구간별 수</text><text x="1256.0" y="208.0" font-size="12" transform="rotate(90 1256.0 208.0)" text-anchor="middle" font-family="sans-serif" fill="#1f2937">누적</text><text x="639.0" y="442.0" font-size="13" text-anchor="middle" font-family="sans-serif" fill="#111827">일</text></svg>