<svg xmlns="http://www.w3.org/2000/svg" width="1280" height="460" viewBox="0 0 1280 460"><rect x="0" y="0" width="100%" height="100%" fill="#ffffff"/><text x="640.0" y="28" font-size="20" text-anchor="middle" font-family="sans-serif" fill="#111827">이벤트 / 최근 반영 시점 / 일별</text><line x1="80.0" y1="52.0" x2="1198.0" y2="52.0" stroke="#e5e7eb" stroke-width="1"/><text x="72.0" y="56.0" font-size="11" text-anchor="end" font-family="sans-serif" fill="#374151">215,853</text><text x="1206.0" y="56.0" font-size="11" text-anchor="start" font-family="sans-serif" fill="#374151">400,167</text><line x1="80.0" y1="114.4" x2="1198.0" y2="114.4" stroke="#e5e7eb" stroke-width="1"/><text x="72.0" y="118.4" font-size="11" text-anchor="end" font-family="sans-serif" fill="#374151">172,682</text><text x="1206.0" y="118.4" font-size="11" text-anchor="start" font-family="sans-serif" fill="#374151">320,134</text><line x1="80.0" y1="176.8" x2="1198.0" y2="176.8" stroke="#e5e7eb" stroke-width="1"/><text x="72.0" y="180.8" font-size="11" text-anchor="end" font-family="sans-serif" fill="#374151">129,512</text><text x="1206.0" y="180.8" font-size="11" text-anchor="start" font-family="sans-serif" fill="#374151">240,100</text><line x1="80.0" y1="239.2" x2="1198.0" y2="239.2" stroke="#e5e7eb" stroke-width="1"/><text x="72.0" y="243.2" font-size="11" text-anchor="end" font-family="sans-serif" fill="#374151">86,341</text><text x="1206.0" y="243.2" font-size="11" text-anchor="start" font-family="sans-serif" fill="#374151">160,067</text><line x1="80.0" y1="301.6" x2="1198.0" y2="301.6" stroke="#e5e7eb" stroke-width="1"/><text x="72.0" y="305.6" font-size="11" text-anchor="end" font-family="sans-serif" fill="#374151">43,171</text><text x="1206.0" y="305.6" font-size="11" text-anchor="start" font-family="sans-serif" fill="#374151">80,033</text><line x1="80.0" y1="364.0" x2="1198.0" y2="364.0" stroke="#e5e7eb" stroke-width="1"/><text x="72.0" y="368.0" font-size="11" text-anchor="end" font-family="sans-serif" fill="#374151">0</text><text x="1206.0" y="368.0" font-size="11" text-anchor="start" font-family="sans-serif" fill="#374151">0</text><line x1="80.0" y1="364.0" x2="1198.0" y2="364.0" stroke="#111827" stroke-width="1.2"/><line x1="80.0" y1="52.0" x2="80.0" y2="364.0" stroke="#111827" stroke-width="1.2"/><line x1="1198.0" y1="52.0" x2="1198.0" y2="364.0" stroke="#111827" stroke-width="1.2"/><rect x="81.0" y="364.0" width="18.7" height="0.0" fill="#93c5fd" stroke="#60a5fa" stroke-width="0.5"/><rect x="101.7" y="52.0" width="18.7" height="312.0" fill="#93c5fd" stroke="#60a5fa" stroke-width="0.5"/><rect x="122.4" y="360.8" width="18.7" height="3.2" fill="#93c5fd" stroke="#60a5fa" stroke-width="0.5"/><rect x="143.1" y="360.6" width="18.7" height="3.4" fill="#93c5fd" stroke="#60a5fa" stroke-width="0.5"/><rect x="163.8" y="360.6" width="18.7" height="3.4" fill="#93c5fd" stroke="#60a5fa" stroke-width="0.5"/><rect x="184.5" y="361.8" width="18.7" height="2.2" fill="#93c5fd" stroke="#60a5fa" stroke-width="0.5"/><rect x="205.2" y="360.7" width="18.7" height="3.3" fill="#93c5fd" stroke="#60a5fa" stroke-width="0.5"/><rect x="225.9" y="360.6" width="18.7" height="3.4" fill="#93c5fd" stroke="#60a5fa" stroke-width="0.5"/><rect x="246.6" y="362.5" width="18.7" height="1.5" fill="#93c5fd" stroke="#60a5fa" stroke-width="0.5"/><rect x="267.3" y="360.9" width="18.7" height="3.1" fill="#93c5fd" stroke="#60a5fa" stroke-width="0.5"/><rect x="288.0" y="360.6" width="18.7" height="3.4" fill="#93c5fd" stroke="#60a5fa" stroke-width="0.5"/><rect x="308.7" y="360.7" width="18.7" height="3.3" fill="#93c5fd" stroke="#60a5fa" stroke-width="0.5"/><rect x="329.4" y="361.1" width="18.7" height="2.9" fill="#93c5fd" stroke="#60a5fa" stroke-width="0.5"/><rect x="350.1" y="360.9" width="18.7" height="3.1" fill="#93c5fd" stroke="#60a5fa" stroke-width="0.5"/><rect x="370.9" y="361.0" width="18.7" height="3.0" fill="#93c5fd" stroke="#60a5fa" stroke-width="0.5"/><rect x="391.6" y="360.5" width="18.7" height="3.5" fill="#93c5fd" stroke="#60a5fa" stroke-width="0.5"/><rect x="412.3" y="359.2" width="18.7" height="4.8" fill="#93c5fd" stroke="#60a5fa" stroke-width="0.5"/><rect x="433.0" y="359.8" width="18.7" height="4.2" fill="#93c5fd" stroke="#60a5fa" stroke-width="0.5"/><rect x="453.7" y="359.6" width="18.7" height="4.4" fill="#93c5fd" stroke="#60a5fa" stroke-width="0.5"/><rect x="474.4" y="359.6" width="18.7" height="4.4" fill="#93c5fd" stroke="#60a5fa" stroke-width="0.5"/><rect x="495.1" y="359.4" width="18.7" height="4.6" fill="#93c5fd" stroke="#60a5fa" stroke-width="0.5"/><rect x="515.8" y="359.6" width="18.7" height="4.4" fill="#93c5fd" stroke="#60a5fa" stroke-width="0.5"/><rect x="536.5" y="359.8" width="18.7" height="4.2" fill="#93c5fd" stroke="#60a5fa" stroke-width="0.5"/><rect x="557.2" y="359.6" width="18.7" height="4.4" fill="#93c5fd" stroke="#60a5fa" stroke-width="0.5"/><rect x="577.9" y="359.9" width="18.7" height="4.1" fill="#93c5fd" stroke="#60a5fa" stroke-width="0.5"/><rect x="598.6" y="359.2" width="18.7" height="4.8" fill="#93c5fd" stroke="#60a5fa" stroke-width="0.5"/><rect x="619.3" y="358.9" width="18.7" height="5.1" fill="#93c5fd" stroke="#60a5fa" stroke-width="0.5"/><rect x="640.0" y="359.7" width="18.7" height="4.3" fill="#93c5fd" stroke="#60a5fa" stroke-width="0.5"/><rect x="660.7" y="360.2" width="18.7" height="3.8" fill="#93c5fd" stroke="#60a5fa" stroke-width="0.5"/><rect x="681.4" y="359.7" width="18.7" height="4.3" fill="#93c5fd" stroke="#60a5fa" stroke-width="0.5"/><rect x="702.1" y="359.6" width="18.7" height="4.4" fill="#93c5fd" stroke="#60a5fa" stroke-width="0.5"/><rect x="722.8" y="359.4" width="18.7" height="4.6" fill="#93c5fd" stroke="#60a5fa" stroke-width="0.5"/><rect x="743.5" y="359.4" width="18.7" height="4.6" fill="#93c5fd" stroke="#60a5fa" stroke-width="0.5"/><rect x="764.2" y="359.8" width="18.7" height="4.2" fill="#93c5fd" stroke="#60a5fa" stroke-width="0.5"/><rect x="784.9" y="358.8" width="18.7" height="5.2" fill="#93c5fd" stroke="#60a5fa" stroke-width="0.5"/><rect x="805.6" y="360.0" width="18.7" height="4.0" fill="#93c5fd" stroke="#60a5fa" stroke-width="0.5"/><rect x="826.3" y="358.7" width="18.7" height="5.3" fill="#93c5fd" stroke="#60a5fa" stroke-width="0.5"/><rect x="847.0" y="360.1" width="18.7" height="3.9" fill="#93c5fd" stroke="#60a5fa" stroke-width="0.5"/><rect x="867.7" y="359.5" width="18.7" height="4.5" fill="#93c5fd" stroke="#60a5fa" stroke-width="0.5"/><rect x="888.4" y="359.6" width="18.7" height="4.4" fill="#93c5fd" stroke="#60a5fa" stroke-width="0.5"/><rect x="909.1" y="359.5" width="18.7" height="4.5" fill="#93c5fd" stroke="#60a5fa" stroke-width="0.5"/><rect x="929.9" y="359.7" width="18.7" height="4.3" fill="#93c5fd" stroke="#60a5fa" stroke-width="0.5"/><rect x="950.6" y="359.1" width="18.7" height="4.9" fill="#93c5fd" stroke="#60a5fa" stroke-width="0.5"/><rect x="971.3" y="359.8" width="18.7" height="4.2" fill="#93c5fd" stroke="#60a5fa" stroke-width="0.5"/><rect x="992.0" y="359.8" width="18.7" height="4.2" fill="#93c5fd" stroke="#60a5fa" stroke-width="0.5"/><rect x="1012.7" y="359.4" width="18.7" height="4.6" fill="#93c5fd" stroke="#60a5fa" stroke-width="0.5"/><rect x="1033.4" y="359.0" width="18.7" height="5.0" fill="#93c5fd" stroke="#60a5fa" stroke-width="0.5"/><rect x="1054.1" y="359.2" width="18.7" height="4.8" fill="#93c5fd" stroke="#60a5fa" stroke-width="0.5"/><rect x="1074.8" y="359.8" width="18.7" height="4.2" fill="#93c5fd" stroke="#60a5fa" stroke-width="0.5"/><rect x="1095.5" y="359.1" width="18.7" height="4.9" fill="#93c5fd" stroke="#60a5fa" stroke-width="0.5"/><rect x="1116.2" y="359.7" width="18.7" height="4.3" fill="#93c5fd" stroke="#60a5fa" stroke-width="0.5"/><rect x="1136.9" y="359.6" width="18.7" height="4.4" fill="#93c5fd" stroke="#60a5fa" stroke-width="0.5"/><rect x="1157.6" y="359.1" width="18.7" height="4.9" fill="#93c5fd" stroke="#60a5fa" stroke-width="0.5"/><rect x="1178.3" y="306.6" width="18.7" height="57.4" fill="#93c5fd" stroke="#60a5fa" stroke-width="0.5"/><polyline fill="none" stroke="#ef4444" stroke-width="2" points="90.4,364.0 111.1,195.7 131.8,194.0 152.5,192.1 173.2,190.3 193.9,189.1 214.6,187.3 235.3,185.5 256.0,184.7 276.7,183.0 297.4,181.2 318.1,179.4 338.8,177.8 359.5,176.2 380.2,174.5 400.9,172.7 421.6,170.1 442.3,167.8 463.0,165.5 483.7,163.1 504.4,160.6 525.1,158.2 545.8,156.0 566.5,153.6 587.2,151.4 607.9,148.8 628.6,146.1 649.4,143.8 670.1,141.7 690.8,139.4 711.5,137.0 732.2,134.5 752.9,132.0 773.6,129.7 794.3,126.9 815.0,124.7 835.7,121.9 856.4,119.8 877.1,117.4 897.8,115.0 918.5,112.6 939.2,110.2 959.9,107.6 980.6,105.3 1001.3,103.0 1022.0,100.5 1042.7,97.8 1063.4,95.2 1084.1,93.0 1104.8,90.3 1125.5,88.0 1146.2,85.6 1166.9,83.0 1187.6,52.0"/><line x1="90.4" y1="364.0" x2="90.4" y2="370.0" stroke="#111827" stroke-width="1"/><text x="92.4" y="386.0" font-size="11" text-anchor="end" transform="rotate(-35 92.4 386.0)" font-family="sans-serif" fill="#374151">2026-02-17</text><line x1="256.0" y1="364.0" x2="256.0" y2="370.0" stroke="#111827" stroke-width="1"/><text x="258.0" y="386.0" font-size="11" text-anchor="end" transform="rotate(-35 258.0 386.0)" font-family="sans-serif" fill="#374151">2026-03-09</text><line x1="400.9" y1="364.0" x2="400.9" y2="370.0" stroke="#111827" stroke-width="1"/><text x="402.9" y="386.0" font-size="11" text-anchor="end" transform="rotate(-35 402.9 386.0)" font-family="sans-serif" fill="#374151">2026-03-16</text><line x1="566.5" y1="364.0" x2="566.5" y2="370.0" stroke="#111827" stroke-width="1"/><text x="568.5" y="386.0" font-size="11" text-anchor="end" transform="rotate(-35 568.5 386.0)" font-family="sans-serif" fill="#374151">2026-03-24</text><line x1="711.5" y1="364.0" x2="711.5" y2="370.0" stroke="#111827" stroke-width="1"/><text x="713.5" y="386.0" font-size="11" text-anchor="end" transform="rotate(-35 713.5 386.0)" font-family="sans-serif" fill="#374151">2026-03-31</text><line x1="877.1" y1="364.0" x2="877.1" y2="370.0" stroke="#111827" stroke-width="1"/><text x="879.1" y="386.0" font-size="11" text-anchor="end" transform="rotate(-35 879.1 386.0)" font-family="sans-serif" fill="#374151">2026-04-08</text><line x1="1022.0" y1="364.0" x2="1022.0" y2="370.0" stroke="#111827" stroke-width="1"/><text x="1024.0" y="386.0" font-size="11" text-anchor="end" transform="rotate(-35 1024.0 386.0)" font-family="sans-serif" fill="#374151">2026-04-15</text><line x1="1187.6" y1="364.0" x2="1187.6" y2="370.0" stroke="#111827" stroke-width="1"/><text x="1189.6" y="386.0" font-size="11" text-anchor="end" transform="rotate(-35 1189.6 386.0)" font-family="sans-serif" fill="#374151">2026-04-23</text><text x="26" y="208.0" font-size="12" transform="rotate(-90 26 208.0)" text-anchor="middle" font-family="sans-serif" fill="#1f2937">구간별 수</text><text x="1256.0" y="208.0" font-size="12" transform="rotate(90 1256.0 208.0)" text-anchor="middle" font-family="sans-serif" fill="#1f2937">누적</text><text x="639.0" y="442.0" font-size="13" text-anchor="middle" font-family="sans-serif" fill="#111827">일</text></svg>