<svg xmlns="http://www.w3.org/2000/svg" width="1280" height="460" viewBox="0 0 1280 460"><rect x="0" y="0" width="100%" height="100%" fill="#ffffff"/><text x="640.0" y="28" font-size="20" text-anchor="middle" font-family="sans-serif" fill="#111827">이벤트 / 최근 반영 시점 / 일별</text><line x1="80.0" y1="52.0" x2="1198.0" y2="52.0" stroke="#e5e7eb" stroke-width="1"/><text x="72.0" y="56.0" font-size="11" text-anchor="end" font-family="sans-serif" fill="#374151">215,942</text><text x="1206.0" y="56.0" font-size="11" text-anchor="start" font-family="sans-serif" fill="#374151">340,225</text><line x1="80.0" y1="114.4" x2="1198.0" y2="114.4" stroke="#e5e7eb" stroke-width="1"/><text x="72.0" y="118.4" font-size="11" text-anchor="end" font-family="sans-serif" fill="#374151">172,754</text><text x="1206.0" y="118.4" font-size="11" text-anchor="start" font-family="sans-serif" fill="#374151">272,180</text><line x1="80.0" y1="176.8" x2="1198.0" y2="176.8" stroke="#e5e7eb" stroke-width="1"/><text x="72.0" y="180.8" font-size="11" text-anchor="end" font-family="sans-serif" fill="#374151">129,565</text><text x="1206.0" y="180.8" font-size="11" text-anchor="start" font-family="sans-serif" fill="#374151">204,135</text><line x1="80.0" y1="239.2" x2="1198.0" y2="239.2" stroke="#e5e7eb" stroke-width="1"/><text x="72.0" y="243.2" font-size="11" text-anchor="end" font-family="sans-serif" fill="#374151">86,377</text><text x="1206.0" y="243.2" font-size="11" text-anchor="start" font-family="sans-serif" fill="#374151">136,090</text><line x1="80.0" y1="301.6" x2="1198.0" y2="301.6" stroke="#e5e7eb" stroke-width="1"/><text x="72.0" y="305.6" font-size="11" text-anchor="end" font-family="sans-serif" fill="#374151">43,188</text><text x="1206.0" y="305.6" font-size="11" text-anchor="start" font-family="sans-serif" fill="#374151">68,045</text><line x1="80.0" y1="364.0" x2="1198.0" y2="364.0" stroke="#e5e7eb" stroke-width="1"/><text x="72.0" y="368.0" font-size="11" text-anchor="end" font-family="sans-serif" fill="#374151">0</text><text x="1206.0" y="368.0" font-size="11" text-anchor="start" font-family="sans-serif" fill="#374151">0</text><line x1="80.0" y1="364.0" x2="1198.0" y2="364.0" stroke="#111827" stroke-width="1.2"/><line x1="80.0" y1="52.0" x2="80.0" y2="364.0" stroke="#111827" stroke-width="1.2"/><line x1="1198.0" y1="52.0" x2="1198.0" y2="364.0" stroke="#111827" stroke-width="1.2"/><rect x="81.0" y="364.0" width="28.2" height="0.0" fill="#93c5fd" stroke="#60a5fa" stroke-width="0.5"/><rect x="111.2" y="52.0" width="28.2" height="312.0" fill="#93c5fd" stroke="#60a5fa" stroke-width="0.5"/><rect x="141.4" y="360.8" width="28.2" height="3.2" fill="#93c5fd" stroke="#60a5fa" stroke-width="0.5"/><rect x="171.6" y="360.6" width="28.2" height="3.4" fill="#93c5fd" stroke="#60a5fa" stroke-width="0.5"/><rect x="201.9" y="360.6" width="28.2" height="3.4" fill="#93c5fd" stroke="#60a5fa" stroke-width="0.5"/><rect x="232.1" y="361.8" width="28.2" height="2.2" fill="#93c5fd" stroke="#60a5fa" stroke-width="0.5"/><rect x="262.3" y="360.7" width="28.2" height="3.3" fill="#93c5fd" stroke="#60a5fa" stroke-width="0.5"/><rect x="292.5" y="360.6" width="28.2" height="3.4" fill="#93c5fd" stroke="#60a5fa" stroke-width="0.5"/><rect x="322.7" y="362.5" width="28.2" height="1.5" fill="#93c5fd" stroke="#60a5fa" stroke-width="0.5"/><rect x="352.9" y="360.9" width="28.2" height="3.1" fill="#93c5fd" stroke="#60a5fa" stroke-width="0.5"/><rect x="383.2" y="360.6" width="28.2" height="3.4" fill="#93c5fd" stroke="#60a5fa" stroke-width="0.5"/><rect x="413.4" y="360.7" width="28.2" height="3.3" fill="#93c5fd" stroke="#60a5fa" stroke-width="0.5"/><rect x="443.6" y="361.1" width="28.2" height="2.9" fill="#93c5fd" stroke="#60a5fa" stroke-width="0.5"/><rect x="473.8" y="360.9" width="28.2" height="3.1" fill="#93c5fd" stroke="#60a5fa" stroke-width="0.5"/><rect x="504.0" y="361.0" width="28.2" height="3.0" fill="#93c5fd" stroke="#60a5fa" stroke-width="0.5"/><rect x="534.2" y="360.5" width="28.2" height="3.5" fill="#93c5fd" stroke="#60a5fa" stroke-width="0.5"/><rect x="564.5" y="359.2" width="28.2" height="4.8" fill="#93c5fd" stroke="#60a5fa" stroke-width="0.5"/><rect x="594.7" y="359.8" width="28.2" height="4.2" fill="#93c5fd" stroke="#60a5fa" stroke-width="0.5"/><rect x="624.9" y="359.7" width="28.2" height="4.3" fill="#93c5fd" stroke="#60a5fa" stroke-width="0.5"/><rect x="655.1" y="359.5" width="28.2" height="4.5" fill="#93c5fd" stroke="#60a5fa" stroke-width="0.5"/><rect x="685.3" y="359.4" width="28.2" height="4.6" fill="#93c5fd" stroke="#60a5fa" stroke-width="0.5"/><rect x="715.5" y="359.6" width="28.2" height="4.4" fill="#93c5fd" stroke="#60a5fa" stroke-width="0.5"/><rect x="745.8" y="359.8" width="28.2" height="4.2" fill="#93c5fd" stroke="#60a5fa" stroke-width="0.5"/><rect x="776.0" y="359.6" width="28.2" height="4.4" fill="#93c5fd" stroke="#60a5fa" stroke-width="0.5"/><rect x="806.2" y="359.9" width="28.2" height="4.1" fill="#93c5fd" stroke="#60a5fa" stroke-width="0.5"/><rect x="836.4" y="359.2" width="28.2" height="4.8" fill="#93c5fd" stroke="#60a5fa" stroke-width="0.5"/><rect x="866.6" y="358.9" width="28.2" height="5.1" fill="#93c5fd" stroke="#60a5fa" stroke-width="0.5"/><rect x="896.8" y="359.7" width="28.2" height="4.3" fill="#93c5fd" stroke="#60a5fa" stroke-width="0.5"/><rect x="927.1" y="360.2" width="28.2" height="3.8" fill="#93c5fd" stroke="#60a5fa" stroke-width="0.5"/><rect x="957.3" y="359.7" width="28.2" height="4.3" fill="#93c5fd" stroke="#60a5fa" stroke-width="0.5"/><rect x="987.5" y="359.6" width="28.2" height="4.4" fill="#93c5fd" stroke="#60a5fa" stroke-width="0.5"/><rect x="1017.7" y="359.4" width="28.2" height="4.6" fill="#93c5fd" stroke="#60a5fa" stroke-width="0.5"/><rect x="1047.9" y="359.3" width="28.2" height="4.7" fill="#93c5fd" stroke="#60a5fa" stroke-width="0.5"/><rect x="1078.1" y="359.8" width="28.2" height="4.2" fill="#93c5fd" stroke="#60a5fa" stroke-width="0.5"/><rect x="1108.4" y="358.7" width="28.2" height="5.3" fill="#93c5fd" stroke="#60a5fa" stroke-width="0.5"/><rect x="1138.6" y="359.9" width="28.2" height="4.1" fill="#93c5fd" stroke="#60a5fa" stroke-width="0.5"/><rect x="1168.8" y="316.2" width="28.2" height="47.8" fill="#93c5fd" stroke="#60a5fa" stroke-width="0.5"/><polyline fill="none" stroke="#ef4444" stroke-width="2" points="95.1,364.0 125.3,166.0 155.5,163.9 185.8,161.7 216.0,159.6 246.2,158.2 276.4,156.1 306.6,153.9 336.8,153.0 367.1,151.0 397.3,148.9 427.5,146.8 457.7,144.9 487.9,143.0 518.1,141.1 548.4,138.9 578.6,135.8 608.8,133.2 639.0,130.4 669.2,127.6 699.4,124.7 729.6,121.9 759.9,119.2 790.1,116.4 820.3,113.9 850.5,110.8 880.7,107.6 910.9,104.9 941.2,102.4 971.4,99.7 1001.6,96.9 1031.8,94.0 1062.0,91.0 1092.2,88.3 1122.5,85.0 1152.7,82.4 1182.9,52.0"/><line x1="95.1" y1="364.0" x2="95.1" y2="370.0" stroke="#111827" stroke-width="1"/><text x="97.1" y="386.0" font-size="11" text-anchor="end" transform="rotate(-35 97.1 386.0)" font-family="sans-serif" fill="#374151">2026-02-17</text><line x1="246.2" y1="364.0" x2="246.2" y2="370.0" stroke="#111827" stroke-width="1"/><text x="248.2" y="386.0" font-size="11" text-anchor="end" transform="rotate(-35 248.2 386.0)" font-family="sans-serif" fill="#374151">2026-03-06</text><line x1="397.3" y1="364.0" x2="397.3" y2="370.0" stroke="#111827" stroke-width="1"/><text x="399.3" y="386.0" font-size="11" text-anchor="end" transform="rotate(-35 399.3 386.0)" font-family="sans-serif" fill="#374151">2026-03-11</text><line x1="548.4" y1="364.0" x2="548.4" y2="370.0" stroke="#111827" stroke-width="1"/><text x="550.4" y="386.0" font-size="11" text-anchor="end" transform="rotate(-35 550.4 386.0)" font-family="sans-serif" fill="#374151">2026-03-16</text><line x1="729.6" y1="364.0" x2="729.6" y2="370.0" stroke="#111827" stroke-width="1"/><text x="731.6" y="386.0" font-size="11" text-anchor="end" transform="rotate(-35 731.6 386.0)" font-family="sans-serif" fill="#374151">2026-03-22</text><line x1="880.7" y1="364.0" x2="880.7" y2="370.0" stroke="#111827" stroke-width="1"/><text x="882.7" y="386.0" font-size="11" text-anchor="end" transform="rotate(-35 882.7 386.0)" font-family="sans-serif" fill="#374151">2026-03-27</text><line x1="1031.8" y1="364.0" x2="1031.8" y2="370.0" stroke="#111827" stroke-width="1"/><text x="1033.8" y="386.0" font-size="11" text-anchor="end" transform="rotate(-35 1033.8 386.0)" font-family="sans-serif" fill="#374151">2026-04-01</text><line x1="1182.9" y1="364.0" x2="1182.9" y2="370.0" stroke="#111827" stroke-width="1"/><text x="1184.9" y="386.0" font-size="11" text-anchor="end" transform="rotate(-35 1184.9 386.0)" font-family="sans-serif" fill="#374151">2026-04-06</text><text x="26" y="208.0" font-size="12" transform="rotate(-90 26 208.0)" text-anchor="middle" font-family="sans-serif" fill="#1f2937">구간별 수</text><text x="1256.0" y="208.0" font-size="12" transform="rotate(90 1256.0 208.0)" text-anchor="middle" font-family="sans-serif" fill="#1f2937">누적</text><text x="639.0" y="442.0" font-size="13" text-anchor="middle" font-family="sans-serif" fill="#111827">일</text></svg>