<svg xmlns="http://www.w3.org/2000/svg" width="1280" height="460" viewBox="0 0 1280 460"><rect x="0" y="0" width="100%" height="100%" fill="#ffffff"/><text x="640.0" y="28" font-size="20" text-anchor="middle" font-family="sans-serif" fill="#111827">이벤트 / 최근 반영 시점 / 일별</text><line x1="80.0" y1="52.0" x2="1198.0" y2="52.0" stroke="#e5e7eb" stroke-width="1"/><text x="72.0" y="56.0" font-size="11" text-anchor="end" font-family="sans-serif" fill="#374151">215,861</text><text x="1206.0" y="56.0" font-size="11" text-anchor="start" font-family="sans-serif" fill="#374151">389,940</text><line x1="80.0" y1="114.4" x2="1198.0" y2="114.4" stroke="#e5e7eb" stroke-width="1"/><text x="72.0" y="118.4" font-size="11" text-anchor="end" font-family="sans-serif" fill="#374151">172,689</text><text x="1206.0" y="118.4" font-size="11" text-anchor="start" font-family="sans-serif" fill="#374151">311,952</text><line x1="80.0" y1="176.8" x2="1198.0" y2="176.8" stroke="#e5e7eb" stroke-width="1"/><text x="72.0" y="180.8" font-size="11" text-anchor="end" font-family="sans-serif" fill="#374151">129,517</text><text x="1206.0" y="180.8" font-size="11" text-anchor="start" font-family="sans-serif" fill="#374151">233,964</text><line x1="80.0" y1="239.2" x2="1198.0" y2="239.2" stroke="#e5e7eb" stroke-width="1"/><text x="72.0" y="243.2" font-size="11" text-anchor="end" font-family="sans-serif" fill="#374151">86,344</text><text x="1206.0" y="243.2" font-size="11" text-anchor="start" font-family="sans-serif" fill="#374151">155,976</text><line x1="80.0" y1="301.6" x2="1198.0" y2="301.6" stroke="#e5e7eb" stroke-width="1"/><text x="72.0" y="305.6" font-size="11" text-anchor="end" font-family="sans-serif" fill="#374151">43,172</text><text x="1206.0" y="305.6" font-size="11" text-anchor="start" font-family="sans-serif" fill="#374151">77,988</text><line x1="80.0" y1="364.0" x2="1198.0" y2="364.0" stroke="#e5e7eb" stroke-width="1"/><text x="72.0" y="368.0" font-size="11" text-anchor="end" font-family="sans-serif" fill="#374151">0</text><text x="1206.0" y="368.0" font-size="11" text-anchor="start" font-family="sans-serif" fill="#374151">0</text><line x1="80.0" y1="364.0" x2="1198.0" y2="364.0" stroke="#111827" stroke-width="1.2"/><line x1="80.0" y1="52.0" x2="80.0" y2="364.0" stroke="#111827" stroke-width="1.2"/><line x1="1198.0" y1="52.0" x2="1198.0" y2="364.0" stroke="#111827" stroke-width="1.2"/><rect x="81.0" y="364.0" width="19.9" height="0.0" fill="#93c5fd" stroke="#60a5fa" stroke-width="0.5"/><rect x="102.9" y="52.0" width="19.9" height="312.0" fill="#93c5fd" stroke="#60a5fa" stroke-width="0.5"/><rect x="124.8" y="360.8" width="19.9" height="3.2" fill="#93c5fd" stroke="#60a5fa" stroke-width="0.5"/><rect x="146.8" y="360.6" width="19.9" height="3.4" fill="#93c5fd" stroke="#60a5fa" stroke-width="0.5"/><rect x="168.7" y="360.6" width="19.9" height="3.4" fill="#93c5fd" stroke="#60a5fa" stroke-width="0.5"/><rect x="190.6" y="361.8" width="19.9" height="2.2" fill="#93c5fd" stroke="#60a5fa" stroke-width="0.5"/><rect x="212.5" y="360.7" width="19.9" height="3.3" fill="#93c5fd" stroke="#60a5fa" stroke-width="0.5"/><rect x="234.5" y="360.6" width="19.9" height="3.4" fill="#93c5fd" stroke="#60a5fa" stroke-width="0.5"/><rect x="256.4" y="362.5" width="19.9" height="1.5" fill="#93c5fd" stroke="#60a5fa" stroke-width="0.5"/><rect x="278.3" y="360.9" width="19.9" height="3.1" fill="#93c5fd" stroke="#60a5fa" stroke-width="0.5"/><rect x="300.2" y="360.6" width="19.9" height="3.4" fill="#93c5fd" stroke="#60a5fa" stroke-width="0.5"/><rect x="322.1" y="360.7" width="19.9" height="3.3" fill="#93c5fd" stroke="#60a5fa" stroke-width="0.5"/><rect x="344.1" y="361.1" width="19.9" height="2.9" fill="#93c5fd" stroke="#60a5fa" stroke-width="0.5"/><rect x="366.0" y="360.9" width="19.9" height="3.1" fill="#93c5fd" stroke="#60a5fa" stroke-width="0.5"/><rect x="387.9" y="361.0" width="19.9" height="3.0" fill="#93c5fd" stroke="#60a5fa" stroke-width="0.5"/><rect x="409.8" y="360.5" width="19.9" height="3.5" fill="#93c5fd" stroke="#60a5fa" stroke-width="0.5"/><rect x="431.7" y="359.2" width="19.9" height="4.8" fill="#93c5fd" stroke="#60a5fa" stroke-width="0.5"/><rect x="453.7" y="359.8" width="19.9" height="4.2" fill="#93c5fd" stroke="#60a5fa" stroke-width="0.5"/><rect x="475.6" y="359.6" width="19.9" height="4.4" fill="#93c5fd" stroke="#60a5fa" stroke-width="0.5"/><rect x="497.5" y="359.6" width="19.9" height="4.4" fill="#93c5fd" stroke="#60a5fa" stroke-width="0.5"/><rect x="519.4" y="359.4" width="19.9" height="4.6" fill="#93c5fd" stroke="#60a5fa" stroke-width="0.5"/><rect x="541.4" y="359.6" width="19.9" height="4.4" fill="#93c5fd" stroke="#60a5fa" stroke-width="0.5"/><rect x="563.3" y="359.8" width="19.9" height="4.2" fill="#93c5fd" stroke="#60a5fa" stroke-width="0.5"/><rect x="585.2" y="359.6" width="19.9" height="4.4" fill="#93c5fd" stroke="#60a5fa" stroke-width="0.5"/><rect x="607.1" y="359.9" width="19.9" height="4.1" fill="#93c5fd" stroke="#60a5fa" stroke-width="0.5"/><rect x="629.0" y="359.2" width="19.9" height="4.8" fill="#93c5fd" stroke="#60a5fa" stroke-width="0.5"/><rect x="651.0" y="358.9" width="19.9" height="5.1" fill="#93c5fd" stroke="#60a5fa" stroke-width="0.5"/><rect x="672.9" y="359.7" width="19.9" height="4.3" fill="#93c5fd" stroke="#60a5fa" stroke-width="0.5"/><rect x="694.8" y="360.2" width="19.9" height="3.8" fill="#93c5fd" stroke="#60a5fa" stroke-width="0.5"/><rect x="716.7" y="359.7" width="19.9" height="4.3" fill="#93c5fd" stroke="#60a5fa" stroke-width="0.5"/><rect x="738.6" y="359.6" width="19.9" height="4.4" fill="#93c5fd" stroke="#60a5fa" stroke-width="0.5"/><rect x="760.6" y="359.4" width="19.9" height="4.6" fill="#93c5fd" stroke="#60a5fa" stroke-width="0.5"/><rect x="782.5" y="359.4" width="19.9" height="4.6" fill="#93c5fd" stroke="#60a5fa" stroke-width="0.5"/><rect x="804.4" y="359.8" width="19.9" height="4.2" fill="#93c5fd" stroke="#60a5fa" stroke-width="0.5"/><rect x="826.3" y="358.8" width="19.9" height="5.2" fill="#93c5fd" stroke="#60a5fa" stroke-width="0.5"/><rect x="848.3" y="360.0" width="19.9" height="4.0" fill="#93c5fd" stroke="#60a5fa" stroke-width="0.5"/><rect x="870.2" y="358.7" width="19.9" height="5.3" fill="#93c5fd" stroke="#60a5fa" stroke-width="0.5"/><rect x="892.1" y="360.1" width="19.9" height="3.9" fill="#93c5fd" stroke="#60a5fa" stroke-width="0.5"/><rect x="914.0" y="359.5" width="19.9" height="4.5" fill="#93c5fd" stroke="#60a5fa" stroke-width="0.5"/><rect x="935.9" y="359.6" width="19.9" height="4.4" fill="#93c5fd" stroke="#60a5fa" stroke-width="0.5"/><rect x="957.9" y="359.5" width="19.9" height="4.5" fill="#93c5fd" stroke="#60a5fa" stroke-width="0.5"/><rect x="979.8" y="359.7" width="19.9" height="4.3" fill="#93c5fd" stroke="#60a5fa" stroke-width="0.5"/><rect x="1001.7" y="359.1" width="19.9" height="4.9" fill="#93c5fd" stroke="#60a5fa" stroke-width="0.5"/><rect x="1023.6" y="359.8" width="19.9" height="4.2" fill="#93c5fd" stroke="#60a5fa" stroke-width="0.5"/><rect x="1045.5" y="359.8" width="19.9" height="4.2" fill="#93c5fd" stroke="#60a5fa" stroke-width="0.5"/><rect x="1067.5" y="359.4" width="19.9" height="4.6" fill="#93c5fd" stroke="#60a5fa" stroke-width="0.5"/><rect x="1089.4" y="359.0" width="19.9" height="5.0" fill="#93c5fd" stroke="#60a5fa" stroke-width="0.5"/><rect x="1111.3" y="359.2" width="19.9" height="4.8" fill="#93c5fd" stroke="#60a5fa" stroke-width="0.5"/><rect x="1133.2" y="359.8" width="19.9" height="4.2" fill="#93c5fd" stroke="#60a5fa" stroke-width="0.5"/><rect x="1155.2" y="359.1" width="19.9" height="4.9" fill="#93c5fd" stroke="#60a5fa" stroke-width="0.5"/><rect x="1177.1" y="307.8" width="19.9" height="56.2" fill="#93c5fd" stroke="#60a5fa" stroke-width="0.5"/><polyline fill="none" stroke="#ef4444" stroke-width="2" points="91.0,364.0 112.9,191.3 134.8,189.5 156.7,187.6 178.6,185.7 200.6,184.5 222.5,182.7 244.4,180.8 266.3,179.9 288.3,178.2 310.2,176.4 332.1,174.5 354.0,172.9 375.9,171.2 397.9,169.6 419.8,167.6 441.7,165.0 463.6,162.7 485.5,160.3 507.5,157.8 529.4,155.3 551.3,152.8 573.2,150.5 595.2,148.1 617.1,145.8 639.0,143.2 660.9,140.4 682.8,138.0 704.8,135.9 726.7,133.5 748.6,131.0 770.5,128.5 792.5,125.9 814.4,123.6 836.3,120.7 858.2,118.5 880.1,115.5 902.1,113.4 924.0,110.9 945.9,108.5 967.8,106.0 989.7,103.6 1011.7,100.8 1033.6,98.5 1055.5,96.1 1077.4,93.6 1099.4,90.8 1121.3,88.1 1143.2,85.8 1165.1,83.1 1187.0,52.0"/><line x1="91.0" y1="364.0" x2="91.0" y2="370.0" stroke="#111827" stroke-width="1"/><text x="93.0" y="386.0" font-size="11" text-anchor="end" transform="rotate(-35 93.0 386.0)" font-family="sans-serif" fill="#374151">2026-02-17</text><line x1="244.4" y1="364.0" x2="244.4" y2="370.0" stroke="#111827" stroke-width="1"/><text x="246.4" y="386.0" font-size="11" text-anchor="end" transform="rotate(-35 246.4 386.0)" font-family="sans-serif" fill="#374151">2026-03-08</text><line x1="397.9" y1="364.0" x2="397.9" y2="370.0" stroke="#111827" stroke-width="1"/><text x="399.9" y="386.0" font-size="11" text-anchor="end" transform="rotate(-35 399.9 386.0)" font-family="sans-serif" fill="#374151">2026-03-15</text><line x1="551.3" y1="364.0" x2="551.3" y2="370.0" stroke="#111827" stroke-width="1"/><text x="553.3" y="386.0" font-size="11" text-anchor="end" transform="rotate(-35 553.3 386.0)" font-family="sans-serif" fill="#374151">2026-03-22</text><line x1="726.7" y1="364.0" x2="726.7" y2="370.0" stroke="#111827" stroke-width="1"/><text x="728.7" y="386.0" font-size="11" text-anchor="end" transform="rotate(-35 728.7 386.0)" font-family="sans-serif" fill="#374151">2026-03-30</text><line x1="880.1" y1="364.0" x2="880.1" y2="370.0" stroke="#111827" stroke-width="1"/><text x="882.1" y="386.0" font-size="11" text-anchor="end" transform="rotate(-35 882.1 386.0)" font-family="sans-serif" fill="#374151">2026-04-06</text><line x1="1033.6" y1="364.0" x2="1033.6" y2="370.0" stroke="#111827" stroke-width="1"/><text x="1035.6" y="386.0" font-size="11" text-anchor="end" transform="rotate(-35 1035.6 386.0)" font-family="sans-serif" fill="#374151">2026-04-13</text><line x1="1187.0" y1="364.0" x2="1187.0" y2="370.0" stroke="#111827" stroke-width="1"/><text x="1189.0" y="386.0" font-size="11" text-anchor="end" transform="rotate(-35 1189.0 386.0)" font-family="sans-serif" fill="#374151">2026-04-20</text><text x="26" y="208.0" font-size="12" transform="rotate(-90 26 208.0)" text-anchor="middle" font-family="sans-serif" fill="#1f2937">구간별 수</text><text x="1256.0" y="208.0" font-size="12" transform="rotate(90 1256.0 208.0)" text-anchor="middle" font-family="sans-serif" fill="#1f2937">누적</text><text x="639.0" y="442.0" font-size="13" text-anchor="middle" font-family="sans-serif" fill="#111827">일</text></svg>