<svg xmlns="http://www.w3.org/2000/svg" width="1280" height="460" viewBox="0 0 1280 460"><rect x="0" y="0" width="100%" height="100%" fill="#ffffff"/><text x="640.0" y="28" font-size="20" text-anchor="middle" font-family="sans-serif" fill="#111827">이벤트 / 최근 반영 시점 / 일별</text><line x1="80.0" y1="52.0" x2="1198.0" y2="52.0" stroke="#e5e7eb" stroke-width="1"/><text x="72.0" y="56.0" font-size="11" text-anchor="end" font-family="sans-serif" fill="#374151">215,916</text><text x="1206.0" y="56.0" font-size="11" text-anchor="start" font-family="sans-serif" fill="#374151">353,969</text><line x1="80.0" y1="114.4" x2="1198.0" y2="114.4" stroke="#e5e7eb" stroke-width="1"/><text x="72.0" y="118.4" font-size="11" text-anchor="end" font-family="sans-serif" fill="#374151">172,733</text><text x="1206.0" y="118.4" font-size="11" text-anchor="start" font-family="sans-serif" fill="#374151">283,175</text><line x1="80.0" y1="176.8" x2="1198.0" y2="176.8" stroke="#e5e7eb" stroke-width="1"/><text x="72.0" y="180.8" font-size="11" text-anchor="end" font-family="sans-serif" fill="#374151">129,550</text><text x="1206.0" y="180.8" font-size="11" text-anchor="start" font-family="sans-serif" fill="#374151">212,381</text><line x1="80.0" y1="239.2" x2="1198.0" y2="239.2" stroke="#e5e7eb" stroke-width="1"/><text x="72.0" y="243.2" font-size="11" text-anchor="end" font-family="sans-serif" fill="#374151">86,366</text><text x="1206.0" y="243.2" font-size="11" text-anchor="start" font-family="sans-serif" fill="#374151">141,588</text><line x1="80.0" y1="301.6" x2="1198.0" y2="301.6" stroke="#e5e7eb" stroke-width="1"/><text x="72.0" y="305.6" font-size="11" text-anchor="end" font-family="sans-serif" fill="#374151">43,183</text><text x="1206.0" y="305.6" font-size="11" text-anchor="start" font-family="sans-serif" fill="#374151">70,794</text><line x1="80.0" y1="364.0" x2="1198.0" y2="364.0" stroke="#e5e7eb" stroke-width="1"/><text x="72.0" y="368.0" font-size="11" text-anchor="end" font-family="sans-serif" fill="#374151">0</text><text x="1206.0" y="368.0" font-size="11" text-anchor="start" font-family="sans-serif" fill="#374151">0</text><line x1="80.0" y1="364.0" x2="1198.0" y2="364.0" stroke="#111827" stroke-width="1.2"/><line x1="80.0" y1="52.0" x2="80.0" y2="364.0" stroke="#111827" stroke-width="1.2"/><line x1="1198.0" y1="52.0" x2="1198.0" y2="364.0" stroke="#111827" stroke-width="1.2"/><rect x="81.0" y="364.0" width="25.3" height="0.0" fill="#93c5fd" stroke="#60a5fa" stroke-width="0.5"/><rect x="108.3" y="52.0" width="25.3" height="312.0" fill="#93c5fd" stroke="#60a5fa" stroke-width="0.5"/><rect x="135.5" y="360.8" width="25.3" height="3.2" fill="#93c5fd" stroke="#60a5fa" stroke-width="0.5"/><rect x="162.8" y="360.6" width="25.3" height="3.4" fill="#93c5fd" stroke="#60a5fa" stroke-width="0.5"/><rect x="190.1" y="360.6" width="25.3" height="3.4" fill="#93c5fd" stroke="#60a5fa" stroke-width="0.5"/><rect x="217.3" y="361.8" width="25.3" height="2.2" fill="#93c5fd" stroke="#60a5fa" stroke-width="0.5"/><rect x="244.6" y="360.7" width="25.3" height="3.3" fill="#93c5fd" stroke="#60a5fa" stroke-width="0.5"/><rect x="271.9" y="360.6" width="25.3" height="3.4" fill="#93c5fd" stroke="#60a5fa" stroke-width="0.5"/><rect x="299.1" y="362.5" width="25.3" height="1.5" fill="#93c5fd" stroke="#60a5fa" stroke-width="0.5"/><rect x="326.4" y="360.9" width="25.3" height="3.1" fill="#93c5fd" stroke="#60a5fa" stroke-width="0.5"/><rect x="353.7" y="360.6" width="25.3" height="3.4" fill="#93c5fd" stroke="#60a5fa" stroke-width="0.5"/><rect x="381.0" y="360.7" width="25.3" height="3.3" fill="#93c5fd" stroke="#60a5fa" stroke-width="0.5"/><rect x="408.2" y="361.1" width="25.3" height="2.9" fill="#93c5fd" stroke="#60a5fa" stroke-width="0.5"/><rect x="435.5" y="360.9" width="25.3" height="3.1" fill="#93c5fd" stroke="#60a5fa" stroke-width="0.5"/><rect x="462.8" y="361.0" width="25.3" height="3.0" fill="#93c5fd" stroke="#60a5fa" stroke-width="0.5"/><rect x="490.0" y="360.5" width="25.3" height="3.5" fill="#93c5fd" stroke="#60a5fa" stroke-width="0.5"/><rect x="517.3" y="359.2" width="25.3" height="4.8" fill="#93c5fd" stroke="#60a5fa" stroke-width="0.5"/><rect x="544.6" y="359.8" width="25.3" height="4.2" fill="#93c5fd" stroke="#60a5fa" stroke-width="0.5"/><rect x="571.8" y="359.7" width="25.3" height="4.3" fill="#93c5fd" stroke="#60a5fa" stroke-width="0.5"/><rect x="599.1" y="359.6" width="25.3" height="4.4" fill="#93c5fd" stroke="#60a5fa" stroke-width="0.5"/><rect x="626.4" y="359.4" width="25.3" height="4.6" fill="#93c5fd" stroke="#60a5fa" stroke-width="0.5"/><rect x="653.6" y="359.6" width="25.3" height="4.4" fill="#93c5fd" stroke="#60a5fa" stroke-width="0.5"/><rect x="680.9" y="359.8" width="25.3" height="4.2" fill="#93c5fd" stroke="#60a5fa" stroke-width="0.5"/><rect x="708.2" y="359.6" width="25.3" height="4.4" fill="#93c5fd" stroke="#60a5fa" stroke-width="0.5"/><rect x="735.4" y="359.9" width="25.3" height="4.1" fill="#93c5fd" stroke="#60a5fa" stroke-width="0.5"/><rect x="762.7" y="359.2" width="25.3" height="4.8" fill="#93c5fd" stroke="#60a5fa" stroke-width="0.5"/><rect x="790.0" y="358.9" width="25.3" height="5.1" fill="#93c5fd" stroke="#60a5fa" stroke-width="0.5"/><rect x="817.2" y="359.7" width="25.3" height="4.3" fill="#93c5fd" stroke="#60a5fa" stroke-width="0.5"/><rect x="844.5" y="360.2" width="25.3" height="3.8" fill="#93c5fd" stroke="#60a5fa" stroke-width="0.5"/><rect x="871.8" y="359.7" width="25.3" height="4.3" fill="#93c5fd" stroke="#60a5fa" stroke-width="0.5"/><rect x="899.0" y="359.6" width="25.3" height="4.4" fill="#93c5fd" stroke="#60a5fa" stroke-width="0.5"/><rect x="926.3" y="359.4" width="25.3" height="4.6" fill="#93c5fd" stroke="#60a5fa" stroke-width="0.5"/><rect x="953.6" y="359.3" width="25.3" height="4.7" fill="#93c5fd" stroke="#60a5fa" stroke-width="0.5"/><rect x="980.9" y="359.8" width="25.3" height="4.2" fill="#93c5fd" stroke="#60a5fa" stroke-width="0.5"/><rect x="1008.1" y="358.8" width="25.3" height="5.2" fill="#93c5fd" stroke="#60a5fa" stroke-width="0.5"/><rect x="1035.4" y="360.0" width="25.3" height="4.0" fill="#93c5fd" stroke="#60a5fa" stroke-width="0.5"/><rect x="1062.7" y="358.7" width="25.3" height="5.3" fill="#93c5fd" stroke="#60a5fa" stroke-width="0.5"/><rect x="1089.9" y="360.1" width="25.3" height="3.9" fill="#93c5fd" stroke="#60a5fa" stroke-width="0.5"/><rect x="1117.2" y="359.5" width="25.3" height="4.5" fill="#93c5fd" stroke="#60a5fa" stroke-width="0.5"/><rect x="1144.5" y="359.5" width="25.3" height="4.5" fill="#93c5fd" stroke="#60a5fa" stroke-width="0.5"/><rect x="1171.7" y="314.3" width="25.3" height="49.7" fill="#93c5fd" stroke="#60a5fa" stroke-width="0.5"/><polyline fill="none" stroke="#ef4444" stroke-width="2" points="93.6,364.0 120.9,173.7 148.2,171.7 175.4,169.6 202.7,167.5 230.0,166.2 257.2,164.2 284.5,162.1 311.8,161.2 339.0,159.3 366.3,157.2 393.6,155.2 420.9,153.5 448.1,151.6 475.4,149.8 502.7,147.6 529.9,144.7 557.2,142.2 584.5,139.5 611.7,136.8 639.0,134.0 666.3,131.3 693.5,128.8 720.8,126.1 748.1,123.6 775.3,120.7 802.6,117.6 829.9,115.0 857.1,112.6 884.4,110.0 911.7,107.3 939.0,104.5 966.2,101.6 993.5,99.1 1020.8,95.9 1048.0,93.4 1075.3,90.2 1102.6,87.8 1129.8,85.0 1157.1,82.3 1184.4,52.0"/><line x1="93.6" y1="364.0" x2="93.6" y2="370.0" stroke="#111827" stroke-width="1"/><text x="95.6" y="386.0" font-size="11" text-anchor="end" transform="rotate(-35 95.6 386.0)" font-family="sans-serif" fill="#374151">2026-02-17</text><line x1="257.2" y1="364.0" x2="257.2" y2="370.0" stroke="#111827" stroke-width="1"/><text x="259.2" y="386.0" font-size="11" text-anchor="end" transform="rotate(-35 259.2 386.0)" font-family="sans-serif" fill="#374151">2026-03-07</text><line x1="393.6" y1="364.0" x2="393.6" y2="370.0" stroke="#111827" stroke-width="1"/><text x="395.6" y="386.0" font-size="11" text-anchor="end" transform="rotate(-35 395.6 386.0)" font-family="sans-serif" fill="#374151">2026-03-12</text><line x1="557.2" y1="364.0" x2="557.2" y2="370.0" stroke="#111827" stroke-width="1"/><text x="559.2" y="386.0" font-size="11" text-anchor="end" transform="rotate(-35 559.2 386.0)" font-family="sans-serif" fill="#374151">2026-03-18</text><line x1="720.8" y1="364.0" x2="720.8" y2="370.0" stroke="#111827" stroke-width="1"/><text x="722.8" y="386.0" font-size="11" text-anchor="end" transform="rotate(-35 722.8 386.0)" font-family="sans-serif" fill="#374151">2026-03-24</text><line x1="884.4" y1="364.0" x2="884.4" y2="370.0" stroke="#111827" stroke-width="1"/><text x="886.4" y="386.0" font-size="11" text-anchor="end" transform="rotate(-35 886.4 386.0)" font-family="sans-serif" fill="#374151">2026-03-30</text><line x1="1020.8" y1="364.0" x2="1020.8" y2="370.0" stroke="#111827" stroke-width="1"/><text x="1022.8" y="386.0" font-size="11" text-anchor="end" transform="rotate(-35 1022.8 386.0)" font-family="sans-serif" fill="#374151">2026-04-04</text><line x1="1184.4" y1="364.0" x2="1184.4" y2="370.0" stroke="#111827" stroke-width="1"/><text x="1186.4" y="386.0" font-size="11" text-anchor="end" transform="rotate(-35 1186.4 386.0)" font-family="sans-serif" fill="#374151">2026-04-10</text><text x="26" y="208.0" font-size="12" transform="rotate(-90 26 208.0)" text-anchor="middle" font-family="sans-serif" fill="#1f2937">구간별 수</text><text x="1256.0" y="208.0" font-size="12" transform="rotate(90 1256.0 208.0)" text-anchor="middle" font-family="sans-serif" fill="#1f2937">누적</text><text x="639.0" y="442.0" font-size="13" text-anchor="middle" font-family="sans-serif" fill="#111827">일</text></svg>