<svg xmlns="http://www.w3.org/2000/svg" width="1280" height="460" viewBox="0 0 1280 460"><rect x="0" y="0" width="100%" height="100%" fill="#ffffff"/><text x="640.0" y="28" font-size="20" text-anchor="middle" font-family="sans-serif" fill="#111827">이벤트 / 최근 반영 시점 / 일별</text><line x1="80.0" y1="52.0" x2="1198.0" y2="52.0" stroke="#e5e7eb" stroke-width="1"/><text x="72.0" y="56.0" font-size="11" text-anchor="end" font-family="sans-serif" fill="#374151">215,933</text><text x="1206.0" y="56.0" font-size="11" text-anchor="start" font-family="sans-serif" fill="#374151">346,832</text><line x1="80.0" y1="114.4" x2="1198.0" y2="114.4" stroke="#e5e7eb" stroke-width="1"/><text x="72.0" y="118.4" font-size="11" text-anchor="end" font-family="sans-serif" fill="#374151">172,746</text><text x="1206.0" y="118.4" font-size="11" text-anchor="start" font-family="sans-serif" fill="#374151">277,466</text><line x1="80.0" y1="176.8" x2="1198.0" y2="176.8" stroke="#e5e7eb" stroke-width="1"/><text x="72.0" y="180.8" font-size="11" text-anchor="end" font-family="sans-serif" fill="#374151">129,560</text><text x="1206.0" y="180.8" font-size="11" text-anchor="start" font-family="sans-serif" fill="#374151">208,099</text><line x1="80.0" y1="239.2" x2="1198.0" y2="239.2" stroke="#e5e7eb" stroke-width="1"/><text x="72.0" y="243.2" font-size="11" text-anchor="end" font-family="sans-serif" fill="#374151">86,373</text><text x="1206.0" y="243.2" font-size="11" text-anchor="start" font-family="sans-serif" fill="#374151">138,733</text><line x1="80.0" y1="301.6" x2="1198.0" y2="301.6" stroke="#e5e7eb" stroke-width="1"/><text x="72.0" y="305.6" font-size="11" text-anchor="end" font-family="sans-serif" fill="#374151">43,187</text><text x="1206.0" y="305.6" font-size="11" text-anchor="start" font-family="sans-serif" fill="#374151">69,366</text><line x1="80.0" y1="364.0" x2="1198.0" y2="364.0" stroke="#e5e7eb" stroke-width="1"/><text x="72.0" y="368.0" font-size="11" text-anchor="end" font-family="sans-serif" fill="#374151">0</text><text x="1206.0" y="368.0" font-size="11" text-anchor="start" font-family="sans-serif" fill="#374151">0</text><line x1="80.0" y1="364.0" x2="1198.0" y2="364.0" stroke="#111827" stroke-width="1.2"/><line x1="80.0" y1="52.0" x2="80.0" y2="364.0" stroke="#111827" stroke-width="1.2"/><line x1="1198.0" y1="52.0" x2="1198.0" y2="364.0" stroke="#111827" stroke-width="1.2"/><rect x="81.0" y="364.0" width="26.7" height="0.0" fill="#93c5fd" stroke="#60a5fa" stroke-width="0.5"/><rect x="109.7" y="52.0" width="26.7" height="312.0" fill="#93c5fd" stroke="#60a5fa" stroke-width="0.5"/><rect x="138.3" y="360.8" width="26.7" height="3.2" fill="#93c5fd" stroke="#60a5fa" stroke-width="0.5"/><rect x="167.0" y="360.6" width="26.7" height="3.4" fill="#93c5fd" stroke="#60a5fa" stroke-width="0.5"/><rect x="195.7" y="360.6" width="26.7" height="3.4" fill="#93c5fd" stroke="#60a5fa" stroke-width="0.5"/><rect x="224.3" y="361.8" width="26.7" height="2.2" fill="#93c5fd" stroke="#60a5fa" stroke-width="0.5"/><rect x="253.0" y="360.7" width="26.7" height="3.3" fill="#93c5fd" stroke="#60a5fa" stroke-width="0.5"/><rect x="281.7" y="360.6" width="26.7" height="3.4" fill="#93c5fd" stroke="#60a5fa" stroke-width="0.5"/><rect x="310.3" y="362.5" width="26.7" height="1.5" fill="#93c5fd" stroke="#60a5fa" stroke-width="0.5"/><rect x="339.0" y="360.9" width="26.7" height="3.1" fill="#93c5fd" stroke="#60a5fa" stroke-width="0.5"/><rect x="367.7" y="360.6" width="26.7" height="3.4" fill="#93c5fd" stroke="#60a5fa" stroke-width="0.5"/><rect x="396.3" y="360.7" width="26.7" height="3.3" fill="#93c5fd" stroke="#60a5fa" stroke-width="0.5"/><rect x="425.0" y="361.1" width="26.7" height="2.9" fill="#93c5fd" stroke="#60a5fa" stroke-width="0.5"/><rect x="453.7" y="360.9" width="26.7" height="3.1" fill="#93c5fd" stroke="#60a5fa" stroke-width="0.5"/><rect x="482.3" y="361.0" width="26.7" height="3.0" fill="#93c5fd" stroke="#60a5fa" stroke-width="0.5"/><rect x="511.0" y="360.5" width="26.7" height="3.5" fill="#93c5fd" stroke="#60a5fa" stroke-width="0.5"/><rect x="539.7" y="359.2" width="26.7" height="4.8" fill="#93c5fd" stroke="#60a5fa" stroke-width="0.5"/><rect x="568.3" y="359.8" width="26.7" height="4.2" fill="#93c5fd" stroke="#60a5fa" stroke-width="0.5"/><rect x="597.0" y="359.7" width="26.7" height="4.3" fill="#93c5fd" stroke="#60a5fa" stroke-width="0.5"/><rect x="625.7" y="359.6" width="26.7" height="4.4" fill="#93c5fd" stroke="#60a5fa" stroke-width="0.5"/><rect x="654.3" y="359.4" width="26.7" height="4.6" fill="#93c5fd" stroke="#60a5fa" stroke-width="0.5"/><rect x="683.0" y="359.6" width="26.7" height="4.4" fill="#93c5fd" stroke="#60a5fa" stroke-width="0.5"/><rect x="711.7" y="359.8" width="26.7" height="4.2" fill="#93c5fd" stroke="#60a5fa" stroke-width="0.5"/><rect x="740.3" y="359.6" width="26.7" height="4.4" fill="#93c5fd" stroke="#60a5fa" stroke-width="0.5"/><rect x="769.0" y="359.9" width="26.7" height="4.1" fill="#93c5fd" stroke="#60a5fa" stroke-width="0.5"/><rect x="797.7" y="359.2" width="26.7" height="4.8" fill="#93c5fd" stroke="#60a5fa" stroke-width="0.5"/><rect x="826.3" y="358.9" width="26.7" height="5.1" fill="#93c5fd" stroke="#60a5fa" stroke-width="0.5"/><rect x="855.0" y="359.7" width="26.7" height="4.3" fill="#93c5fd" stroke="#60a5fa" stroke-width="0.5"/><rect x="883.7" y="360.2" width="26.7" height="3.8" fill="#93c5fd" stroke="#60a5fa" stroke-width="0.5"/><rect x="912.3" y="359.7" width="26.7" height="4.3" fill="#93c5fd" stroke="#60a5fa" stroke-width="0.5"/><rect x="941.0" y="359.6" width="26.7" height="4.4" fill="#93c5fd" stroke="#60a5fa" stroke-width="0.5"/><rect x="969.7" y="359.4" width="26.7" height="4.6" fill="#93c5fd" stroke="#60a5fa" stroke-width="0.5"/><rect x="998.3" y="359.3" width="26.7" height="4.7" fill="#93c5fd" stroke="#60a5fa" stroke-width="0.5"/><rect x="1027.0" y="359.8" width="26.7" height="4.2" fill="#93c5fd" stroke="#60a5fa" stroke-width="0.5"/><rect x="1055.7" y="358.7" width="26.7" height="5.3" fill="#93c5fd" stroke="#60a5fa" stroke-width="0.5"/><rect x="1084.3" y="359.9" width="26.7" height="4.1" fill="#93c5fd" stroke="#60a5fa" stroke-width="0.5"/><rect x="1113.0" y="358.6" width="26.7" height="5.4" fill="#93c5fd" stroke="#60a5fa" stroke-width="0.5"/><rect x="1141.7" y="360.0" width="26.7" height="4.0" fill="#93c5fd" stroke="#60a5fa" stroke-width="0.5"/><rect x="1170.3" y="315.8" width="26.7" height="48.2" fill="#93c5fd" stroke="#60a5fa" stroke-width="0.5"/><polyline fill="none" stroke="#ef4444" stroke-width="2" points="94.3,364.0 123.0,169.8 151.7,167.7 180.3,165.6 209.0,163.5 237.7,162.1 266.3,160.1 295.0,157.9 323.7,157.0 352.3,155.1 381.0,153.0 409.7,150.9 438.3,149.1 467.0,147.2 495.7,145.3 524.3,143.2 553.0,140.2 581.7,137.6 610.3,134.9 639.0,132.1 667.7,129.3 696.3,126.5 725.0,123.9 753.7,121.2 782.3,118.6 811.0,115.7 839.7,112.5 868.3,109.8 897.0,107.4 925.7,104.7 954.3,102.0 983.0,99.1 1011.7,96.2 1040.3,93.6 1069.0,90.3 1097.7,87.8 1126.3,84.5 1155.0,82.0 1183.7,52.0"/><line x1="94.3" y1="364.0" x2="94.3" y2="370.0" stroke="#111827" stroke-width="1"/><text x="96.3" y="386.0" font-size="11" text-anchor="end" transform="rotate(-35 96.3 386.0)" font-family="sans-serif" fill="#374151">2026-02-17</text><line x1="237.7" y1="364.0" x2="237.7" y2="370.0" stroke="#111827" stroke-width="1"/><text x="239.7" y="386.0" font-size="11" text-anchor="end" transform="rotate(-35 239.7 386.0)" font-family="sans-serif" fill="#374151">2026-03-06</text><line x1="409.7" y1="364.0" x2="409.7" y2="370.0" stroke="#111827" stroke-width="1"/><text x="411.7" y="386.0" font-size="11" text-anchor="end" transform="rotate(-35 411.7 386.0)" font-family="sans-serif" fill="#374151">2026-03-12</text><line x1="553.0" y1="364.0" x2="553.0" y2="370.0" stroke="#111827" stroke-width="1"/><text x="555.0" y="386.0" font-size="11" text-anchor="end" transform="rotate(-35 555.0 386.0)" font-family="sans-serif" fill="#374151">2026-03-17</text><line x1="725.0" y1="364.0" x2="725.0" y2="370.0" stroke="#111827" stroke-width="1"/><text x="727.0" y="386.0" font-size="11" text-anchor="end" transform="rotate(-35 727.0 386.0)" font-family="sans-serif" fill="#374151">2026-03-23</text><line x1="868.3" y1="364.0" x2="868.3" y2="370.0" stroke="#111827" stroke-width="1"/><text x="870.3" y="386.0" font-size="11" text-anchor="end" transform="rotate(-35 870.3 386.0)" font-family="sans-serif" fill="#374151">2026-03-28</text><line x1="1040.3" y1="364.0" x2="1040.3" y2="370.0" stroke="#111827" stroke-width="1"/><text x="1042.3" y="386.0" font-size="11" text-anchor="end" transform="rotate(-35 1042.3 386.0)" font-family="sans-serif" fill="#374151">2026-04-03</text><line x1="1183.7" y1="364.0" x2="1183.7" y2="370.0" stroke="#111827" stroke-width="1"/><text x="1185.7" y="386.0" font-size="11" text-anchor="end" transform="rotate(-35 1185.7 386.0)" font-family="sans-serif" fill="#374151">2026-04-08</text><text x="26" y="208.0" font-size="12" transform="rotate(-90 26 208.0)" text-anchor="middle" font-family="sans-serif" fill="#1f2937">구간별 수</text><text x="1256.0" y="208.0" font-size="12" transform="rotate(90 1256.0 208.0)" text-anchor="middle" font-family="sans-serif" fill="#1f2937">누적</text><text x="639.0" y="442.0" font-size="13" text-anchor="middle" font-family="sans-serif" fill="#111827">일</text></svg>