<svg xmlns="http://www.w3.org/2000/svg" width="1280" height="460" viewBox="0 0 1280 460"><rect x="0" y="0" width="100%" height="100%" fill="#ffffff"/><text x="640.0" y="28" font-size="20" text-anchor="middle" font-family="sans-serif" fill="#111827">이벤트 / 최근 반영 시점 / 일별</text><line x1="80.0" y1="52.0" x2="1198.0" y2="52.0" stroke="#e5e7eb" stroke-width="1"/><text x="72.0" y="56.0" font-size="11" text-anchor="end" font-family="sans-serif" fill="#374151">215,956</text><text x="1206.0" y="56.0" font-size="11" text-anchor="start" font-family="sans-serif" fill="#374151">335,138</text><line x1="80.0" y1="114.4" x2="1198.0" y2="114.4" stroke="#e5e7eb" stroke-width="1"/><text x="72.0" y="118.4" font-size="11" text-anchor="end" font-family="sans-serif" fill="#374151">172,765</text><text x="1206.0" y="118.4" font-size="11" text-anchor="start" font-family="sans-serif" fill="#374151">268,110</text><line x1="80.0" y1="176.8" x2="1198.0" y2="176.8" stroke="#e5e7eb" stroke-width="1"/><text x="72.0" y="180.8" font-size="11" text-anchor="end" font-family="sans-serif" fill="#374151">129,574</text><text x="1206.0" y="180.8" font-size="11" text-anchor="start" font-family="sans-serif" fill="#374151">201,083</text><line x1="80.0" y1="239.2" x2="1198.0" y2="239.2" stroke="#e5e7eb" stroke-width="1"/><text x="72.0" y="243.2" font-size="11" text-anchor="end" font-family="sans-serif" fill="#374151">86,382</text><text x="1206.0" y="243.2" font-size="11" text-anchor="start" font-family="sans-serif" fill="#374151">134,055</text><line x1="80.0" y1="301.6" x2="1198.0" y2="301.6" stroke="#e5e7eb" stroke-width="1"/><text x="72.0" y="305.6" font-size="11" text-anchor="end" font-family="sans-serif" fill="#374151">43,191</text><text x="1206.0" y="305.6" font-size="11" text-anchor="start" font-family="sans-serif" fill="#374151">67,028</text><line x1="80.0" y1="364.0" x2="1198.0" y2="364.0" stroke="#e5e7eb" stroke-width="1"/><text x="72.0" y="368.0" font-size="11" text-anchor="end" font-family="sans-serif" fill="#374151">0</text><text x="1206.0" y="368.0" font-size="11" text-anchor="start" font-family="sans-serif" fill="#374151">0</text><line x1="80.0" y1="364.0" x2="1198.0" y2="364.0" stroke="#111827" stroke-width="1.2"/><line x1="80.0" y1="52.0" x2="80.0" y2="364.0" stroke="#111827" stroke-width="1.2"/><line x1="1198.0" y1="52.0" x2="1198.0" y2="364.0" stroke="#111827" stroke-width="1.2"/><rect x="81.0" y="364.0" width="29.1" height="0.0" fill="#93c5fd" stroke="#60a5fa" stroke-width="0.5"/><rect x="112.1" y="52.0" width="29.1" height="312.0" fill="#93c5fd" stroke="#60a5fa" stroke-width="0.5"/><rect x="143.1" y="360.8" width="29.1" height="3.2" fill="#93c5fd" stroke="#60a5fa" stroke-width="0.5"/><rect x="174.2" y="360.6" width="29.1" height="3.4" fill="#93c5fd" stroke="#60a5fa" stroke-width="0.5"/><rect x="205.2" y="360.6" width="29.1" height="3.4" fill="#93c5fd" stroke="#60a5fa" stroke-width="0.5"/><rect x="236.3" y="361.8" width="29.1" height="2.2" fill="#93c5fd" stroke="#60a5fa" stroke-width="0.5"/><rect x="267.3" y="360.7" width="29.1" height="3.3" fill="#93c5fd" stroke="#60a5fa" stroke-width="0.5"/><rect x="298.4" y="360.6" width="29.1" height="3.4" fill="#93c5fd" stroke="#60a5fa" stroke-width="0.5"/><rect x="329.4" y="362.5" width="29.1" height="1.5" fill="#93c5fd" stroke="#60a5fa" stroke-width="0.5"/><rect x="360.5" y="360.9" width="29.1" height="3.1" fill="#93c5fd" stroke="#60a5fa" stroke-width="0.5"/><rect x="391.6" y="360.6" width="29.1" height="3.4" fill="#93c5fd" stroke="#60a5fa" stroke-width="0.5"/><rect x="422.6" y="360.7" width="29.1" height="3.3" fill="#93c5fd" stroke="#60a5fa" stroke-width="0.5"/><rect x="453.7" y="361.1" width="29.1" height="2.9" fill="#93c5fd" stroke="#60a5fa" stroke-width="0.5"/><rect x="484.7" y="360.9" width="29.1" height="3.1" fill="#93c5fd" stroke="#60a5fa" stroke-width="0.5"/><rect x="515.8" y="361.0" width="29.1" height="3.0" fill="#93c5fd" stroke="#60a5fa" stroke-width="0.5"/><rect x="546.8" y="360.5" width="29.1" height="3.5" fill="#93c5fd" stroke="#60a5fa" stroke-width="0.5"/><rect x="577.9" y="359.2" width="29.1" height="4.8" fill="#93c5fd" stroke="#60a5fa" stroke-width="0.5"/><rect x="608.9" y="359.8" width="29.1" height="4.2" fill="#93c5fd" stroke="#60a5fa" stroke-width="0.5"/><rect x="640.0" y="359.7" width="29.1" height="4.3" fill="#93c5fd" stroke="#60a5fa" stroke-width="0.5"/><rect x="671.1" y="359.6" width="29.1" height="4.4" fill="#93c5fd" stroke="#60a5fa" stroke-width="0.5"/><rect x="702.1" y="359.4" width="29.1" height="4.6" fill="#93c5fd" stroke="#60a5fa" stroke-width="0.5"/><rect x="733.2" y="359.6" width="29.1" height="4.4" fill="#93c5fd" stroke="#60a5fa" stroke-width="0.5"/><rect x="764.2" y="359.8" width="29.1" height="4.2" fill="#93c5fd" stroke="#60a5fa" stroke-width="0.5"/><rect x="795.3" y="359.6" width="29.1" height="4.4" fill="#93c5fd" stroke="#60a5fa" stroke-width="0.5"/><rect x="826.3" y="359.9" width="29.1" height="4.1" fill="#93c5fd" stroke="#60a5fa" stroke-width="0.5"/><rect x="857.4" y="359.2" width="29.1" height="4.8" fill="#93c5fd" stroke="#60a5fa" stroke-width="0.5"/><rect x="888.4" y="358.9" width="29.1" height="5.1" fill="#93c5fd" stroke="#60a5fa" stroke-width="0.5"/><rect x="919.5" y="359.7" width="29.1" height="4.3" fill="#93c5fd" stroke="#60a5fa" stroke-width="0.5"/><rect x="950.6" y="360.2" width="29.1" height="3.8" fill="#93c5fd" stroke="#60a5fa" stroke-width="0.5"/><rect x="981.6" y="359.7" width="29.1" height="4.3" fill="#93c5fd" stroke="#60a5fa" stroke-width="0.5"/><rect x="1012.7" y="359.6" width="29.1" height="4.4" fill="#93c5fd" stroke="#60a5fa" stroke-width="0.5"/><rect x="1043.7" y="359.4" width="29.1" height="4.6" fill="#93c5fd" stroke="#60a5fa" stroke-width="0.5"/><rect x="1074.8" y="359.3" width="29.1" height="4.7" fill="#93c5fd" stroke="#60a5fa" stroke-width="0.5"/><rect x="1105.8" y="359.8" width="29.1" height="4.2" fill="#93c5fd" stroke="#60a5fa" stroke-width="0.5"/><rect x="1136.9" y="358.7" width="29.1" height="5.3" fill="#93c5fd" stroke="#60a5fa" stroke-width="0.5"/><rect x="1167.9" y="319.4" width="29.1" height="44.6" fill="#93c5fd" stroke="#60a5fa" stroke-width="0.5"/><polyline fill="none" stroke="#ef4444" stroke-width="2" points="95.5,364.0 126.6,163.0 157.6,160.9 188.7,158.7 219.8,156.5 250.8,155.1 281.9,152.9 312.9,150.7 344.0,149.8 375.0,147.8 406.1,145.6 437.1,143.5 468.2,141.6 499.2,139.6 530.3,137.7 561.4,135.4 592.4,132.3 623.5,129.7 654.5,126.8 685.6,124.0 716.6,121.0 747.7,118.2 778.8,115.5 809.8,112.7 840.9,110.0 871.9,107.0 903.0,103.7 934.0,100.9 965.1,98.4 996.1,95.6 1027.2,92.8 1058.2,89.8 1089.3,86.8 1120.4,84.1 1151.4,80.7 1182.5,52.0"/><line x1="95.5" y1="364.0" x2="95.5" y2="370.0" stroke="#111827" stroke-width="1"/><text x="97.5" y="386.0" font-size="11" text-anchor="end" transform="rotate(-35 97.5 386.0)" font-family="sans-serif" fill="#374151">2026-02-17</text><line x1="250.8" y1="364.0" x2="250.8" y2="370.0" stroke="#111827" stroke-width="1"/><text x="252.8" y="386.0" font-size="11" text-anchor="end" transform="rotate(-35 252.8 386.0)" font-family="sans-serif" fill="#374151">2026-03-06</text><line x1="406.1" y1="364.0" x2="406.1" y2="370.0" stroke="#111827" stroke-width="1"/><text x="408.1" y="386.0" font-size="11" text-anchor="end" transform="rotate(-35 408.1 386.0)" font-family="sans-serif" fill="#374151">2026-03-11</text><line x1="561.4" y1="364.0" x2="561.4" y2="370.0" stroke="#111827" stroke-width="1"/><text x="563.4" y="386.0" font-size="11" text-anchor="end" transform="rotate(-35 563.4 386.0)" font-family="sans-serif" fill="#374151">2026-03-16</text><line x1="716.6" y1="364.0" x2="716.6" y2="370.0" stroke="#111827" stroke-width="1"/><text x="718.6" y="386.0" font-size="11" text-anchor="end" transform="rotate(-35 718.6 386.0)" font-family="sans-serif" fill="#374151">2026-03-21</text><line x1="871.9" y1="364.0" x2="871.9" y2="370.0" stroke="#111827" stroke-width="1"/><text x="873.9" y="386.0" font-size="11" text-anchor="end" transform="rotate(-35 873.9 386.0)" font-family="sans-serif" fill="#374151">2026-03-26</text><line x1="1027.2" y1="364.0" x2="1027.2" y2="370.0" stroke="#111827" stroke-width="1"/><text x="1029.2" y="386.0" font-size="11" text-anchor="end" transform="rotate(-35 1029.2 386.0)" font-family="sans-serif" fill="#374151">2026-03-31</text><line x1="1182.5" y1="364.0" x2="1182.5" y2="370.0" stroke="#111827" stroke-width="1"/><text x="1184.5" y="386.0" font-size="11" text-anchor="end" transform="rotate(-35 1184.5 386.0)" font-family="sans-serif" fill="#374151">2026-04-05</text><text x="26" y="208.0" font-size="12" transform="rotate(-90 26 208.0)" text-anchor="middle" font-family="sans-serif" fill="#1f2937">구간별 수</text><text x="1256.0" y="208.0" font-size="12" transform="rotate(90 1256.0 208.0)" text-anchor="middle" font-family="sans-serif" fill="#1f2937">누적</text><text x="639.0" y="442.0" font-size="13" text-anchor="middle" font-family="sans-serif" fill="#111827">일</text></svg>