<svg xmlns="http://www.w3.org/2000/svg" width="1280" height="460" viewBox="0 0 1280 460"><rect x="0" y="0" width="100%" height="100%" fill="#ffffff"/><text x="640.0" y="28" font-size="20" text-anchor="middle" font-family="sans-serif" fill="#111827">이벤트 / 최근 반영 시점 / 일별</text><line x1="80.0" y1="52.0" x2="1198.0" y2="52.0" stroke="#e5e7eb" stroke-width="1"/><text x="72.0" y="56.0" font-size="11" text-anchor="end" font-family="sans-serif" fill="#374151">215,901</text><text x="1206.0" y="56.0" font-size="11" text-anchor="start" font-family="sans-serif" fill="#374151">363,700</text><line x1="80.0" y1="114.4" x2="1198.0" y2="114.4" stroke="#e5e7eb" stroke-width="1"/><text x="72.0" y="118.4" font-size="11" text-anchor="end" font-family="sans-serif" fill="#374151">172,721</text><text x="1206.0" y="118.4" font-size="11" text-anchor="start" font-family="sans-serif" fill="#374151">290,960</text><line x1="80.0" y1="176.8" x2="1198.0" y2="176.8" stroke="#e5e7eb" stroke-width="1"/><text x="72.0" y="180.8" font-size="11" text-anchor="end" font-family="sans-serif" fill="#374151">129,541</text><text x="1206.0" y="180.8" font-size="11" text-anchor="start" font-family="sans-serif" fill="#374151">218,220</text><line x1="80.0" y1="239.2" x2="1198.0" y2="239.2" stroke="#e5e7eb" stroke-width="1"/><text x="72.0" y="243.2" font-size="11" text-anchor="end" font-family="sans-serif" fill="#374151">86,360</text><text x="1206.0" y="243.2" font-size="11" text-anchor="start" font-family="sans-serif" fill="#374151">145,480</text><line x1="80.0" y1="301.6" x2="1198.0" y2="301.6" stroke="#e5e7eb" stroke-width="1"/><text x="72.0" y="305.6" font-size="11" text-anchor="end" font-family="sans-serif" fill="#374151">43,180</text><text x="1206.0" y="305.6" font-size="11" text-anchor="start" font-family="sans-serif" fill="#374151">72,740</text><line x1="80.0" y1="364.0" x2="1198.0" y2="364.0" stroke="#e5e7eb" stroke-width="1"/><text x="72.0" y="368.0" font-size="11" text-anchor="end" font-family="sans-serif" fill="#374151">0</text><text x="1206.0" y="368.0" font-size="11" text-anchor="start" font-family="sans-serif" fill="#374151">0</text><line x1="80.0" y1="364.0" x2="1198.0" y2="364.0" stroke="#111827" stroke-width="1.2"/><line x1="80.0" y1="52.0" x2="80.0" y2="364.0" stroke="#111827" stroke-width="1.2"/><line x1="1198.0" y1="52.0" x2="1198.0" y2="364.0" stroke="#111827" stroke-width="1.2"/><rect x="81.0" y="364.0" width="23.4" height="0.0" fill="#93c5fd" stroke="#60a5fa" stroke-width="0.5"/><rect x="106.4" y="52.0" width="23.4" height="312.0" fill="#93c5fd" stroke="#60a5fa" stroke-width="0.5"/><rect x="131.8" y="360.8" width="23.4" height="3.2" fill="#93c5fd" stroke="#60a5fa" stroke-width="0.5"/><rect x="157.2" y="360.6" width="23.4" height="3.4" fill="#93c5fd" stroke="#60a5fa" stroke-width="0.5"/><rect x="182.6" y="360.6" width="23.4" height="3.4" fill="#93c5fd" stroke="#60a5fa" stroke-width="0.5"/><rect x="208.0" y="361.8" width="23.4" height="2.2" fill="#93c5fd" stroke="#60a5fa" stroke-width="0.5"/><rect x="233.5" y="360.7" width="23.4" height="3.3" fill="#93c5fd" stroke="#60a5fa" stroke-width="0.5"/><rect x="258.9" y="360.6" width="23.4" height="3.4" fill="#93c5fd" stroke="#60a5fa" stroke-width="0.5"/><rect x="284.3" y="362.5" width="23.4" height="1.5" fill="#93c5fd" stroke="#60a5fa" stroke-width="0.5"/><rect x="309.7" y="360.9" width="23.4" height="3.1" fill="#93c5fd" stroke="#60a5fa" stroke-width="0.5"/><rect x="335.1" y="360.6" width="23.4" height="3.4" fill="#93c5fd" stroke="#60a5fa" stroke-width="0.5"/><rect x="360.5" y="360.7" width="23.4" height="3.3" fill="#93c5fd" stroke="#60a5fa" stroke-width="0.5"/><rect x="385.9" y="361.1" width="23.4" height="2.9" fill="#93c5fd" stroke="#60a5fa" stroke-width="0.5"/><rect x="411.3" y="360.9" width="23.4" height="3.1" fill="#93c5fd" stroke="#60a5fa" stroke-width="0.5"/><rect x="436.7" y="361.0" width="23.4" height="3.0" fill="#93c5fd" stroke="#60a5fa" stroke-width="0.5"/><rect x="462.1" y="360.5" width="23.4" height="3.5" fill="#93c5fd" stroke="#60a5fa" stroke-width="0.5"/><rect x="487.5" y="359.2" width="23.4" height="4.8" fill="#93c5fd" stroke="#60a5fa" stroke-width="0.5"/><rect x="513.0" y="359.8" width="23.4" height="4.2" fill="#93c5fd" stroke="#60a5fa" stroke-width="0.5"/><rect x="538.4" y="359.7" width="23.4" height="4.3" fill="#93c5fd" stroke="#60a5fa" stroke-width="0.5"/><rect x="563.8" y="359.6" width="23.4" height="4.4" fill="#93c5fd" stroke="#60a5fa" stroke-width="0.5"/><rect x="589.2" y="359.4" width="23.4" height="4.6" fill="#93c5fd" stroke="#60a5fa" stroke-width="0.5"/><rect x="614.6" y="359.6" width="23.4" height="4.4" fill="#93c5fd" stroke="#60a5fa" stroke-width="0.5"/><rect x="640.0" y="359.8" width="23.4" height="4.2" fill="#93c5fd" stroke="#60a5fa" stroke-width="0.5"/><rect x="665.4" y="359.6" width="23.4" height="4.4" fill="#93c5fd" stroke="#60a5fa" stroke-width="0.5"/><rect x="690.8" y="359.9" width="23.4" height="4.1" fill="#93c5fd" stroke="#60a5fa" stroke-width="0.5"/><rect x="716.2" y="359.2" width="23.4" height="4.8" fill="#93c5fd" stroke="#60a5fa" stroke-width="0.5"/><rect x="741.6" y="358.9" width="23.4" height="5.1" fill="#93c5fd" stroke="#60a5fa" stroke-width="0.5"/><rect x="767.0" y="359.7" width="23.4" height="4.3" fill="#93c5fd" stroke="#60a5fa" stroke-width="0.5"/><rect x="792.5" y="360.2" width="23.4" height="3.8" fill="#93c5fd" stroke="#60a5fa" stroke-width="0.5"/><rect x="817.9" y="359.7" width="23.4" height="4.3" fill="#93c5fd" stroke="#60a5fa" stroke-width="0.5"/><rect x="843.3" y="359.6" width="23.4" height="4.4" fill="#93c5fd" stroke="#60a5fa" stroke-width="0.5"/><rect x="868.7" y="359.4" width="23.4" height="4.6" fill="#93c5fd" stroke="#60a5fa" stroke-width="0.5"/><rect x="894.1" y="359.3" width="23.4" height="4.7" fill="#93c5fd" stroke="#60a5fa" stroke-width="0.5"/><rect x="919.5" y="359.8" width="23.4" height="4.2" fill="#93c5fd" stroke="#60a5fa" stroke-width="0.5"/><rect x="944.9" y="358.8" width="23.4" height="5.2" fill="#93c5fd" stroke="#60a5fa" stroke-width="0.5"/><rect x="970.3" y="360.0" width="23.4" height="4.0" fill="#93c5fd" stroke="#60a5fa" stroke-width="0.5"/><rect x="995.7" y="358.7" width="23.4" height="5.3" fill="#93c5fd" stroke="#60a5fa" stroke-width="0.5"/><rect x="1021.1" y="360.1" width="23.4" height="3.9" fill="#93c5fd" stroke="#60a5fa" stroke-width="0.5"/><rect x="1046.5" y="359.5" width="23.4" height="4.5" fill="#93c5fd" stroke="#60a5fa" stroke-width="0.5"/><rect x="1072.0" y="359.6" width="23.4" height="4.4" fill="#93c5fd" stroke="#60a5fa" stroke-width="0.5"/><rect x="1097.4" y="359.5" width="23.4" height="4.5" fill="#93c5fd" stroke="#60a5fa" stroke-width="0.5"/><rect x="1122.8" y="359.6" width="23.4" height="4.4" fill="#93c5fd" stroke="#60a5fa" stroke-width="0.5"/><rect x="1148.2" y="359.0" width="23.4" height="5.0" fill="#93c5fd" stroke="#60a5fa" stroke-width="0.5"/><rect x="1173.6" y="314.0" width="23.4" height="50.0" fill="#93c5fd" stroke="#60a5fa" stroke-width="0.5"/><polyline fill="none" stroke="#ef4444" stroke-width="2" points="92.7,364.0 118.1,178.8 143.5,176.9 168.9,174.8 194.3,172.8 219.8,171.5 245.2,169.6 270.6,167.5 296.0,166.6 321.4,164.8 346.8,162.8 372.2,160.8 397.6,159.1 423.0,157.3 448.4,155.5 473.8,153.4 499.2,150.6 524.7,148.1 550.1,145.5 575.5,142.9 600.9,140.2 626.3,137.6 651.7,135.1 677.1,132.5 702.5,130.0 727.9,127.2 753.3,124.2 778.8,121.6 804.2,119.3 829.6,116.8 855.0,114.2 880.4,111.4 905.8,108.7 931.2,106.2 956.6,103.1 982.0,100.7 1007.4,97.5 1032.8,95.2 1058.2,92.6 1083.7,89.9 1109.1,87.3 1134.5,84.7 1159.9,81.7 1185.3,52.0"/><line x1="92.7" y1="364.0" x2="92.7" y2="370.0" stroke="#111827" stroke-width="1"/><text x="94.7" y="386.0" font-size="11" text-anchor="end" transform="rotate(-35 94.7 386.0)" font-family="sans-serif" fill="#374151">2026-02-17</text><line x1="245.2" y1="364.0" x2="245.2" y2="370.0" stroke="#111827" stroke-width="1"/><text x="247.2" y="386.0" font-size="11" text-anchor="end" transform="rotate(-35 247.2 386.0)" font-family="sans-serif" fill="#374151">2026-03-07</text><line x1="397.6" y1="364.0" x2="397.6" y2="370.0" stroke="#111827" stroke-width="1"/><text x="399.6" y="386.0" font-size="11" text-anchor="end" transform="rotate(-35 399.6 386.0)" font-family="sans-serif" fill="#374151">2026-03-13</text><line x1="550.1" y1="364.0" x2="550.1" y2="370.0" stroke="#111827" stroke-width="1"/><text x="552.1" y="386.0" font-size="11" text-anchor="end" transform="rotate(-35 552.1 386.0)" font-family="sans-serif" fill="#374151">2026-03-19</text><line x1="727.9" y1="364.0" x2="727.9" y2="370.0" stroke="#111827" stroke-width="1"/><text x="729.9" y="386.0" font-size="11" text-anchor="end" transform="rotate(-35 729.9 386.0)" font-family="sans-serif" fill="#374151">2026-03-26</text><line x1="880.4" y1="364.0" x2="880.4" y2="370.0" stroke="#111827" stroke-width="1"/><text x="882.4" y="386.0" font-size="11" text-anchor="end" transform="rotate(-35 882.4 386.0)" font-family="sans-serif" fill="#374151">2026-04-01</text><line x1="1032.8" y1="364.0" x2="1032.8" y2="370.0" stroke="#111827" stroke-width="1"/><text x="1034.8" y="386.0" font-size="11" text-anchor="end" transform="rotate(-35 1034.8 386.0)" font-family="sans-serif" fill="#374151">2026-04-07</text><line x1="1185.3" y1="364.0" x2="1185.3" y2="370.0" stroke="#111827" stroke-width="1"/><text x="1187.3" y="386.0" font-size="11" text-anchor="end" transform="rotate(-35 1187.3 386.0)" font-family="sans-serif" fill="#374151">2026-04-13</text><text x="26" y="208.0" font-size="12" transform="rotate(-90 26 208.0)" text-anchor="middle" font-family="sans-serif" fill="#1f2937">구간별 수</text><text x="1256.0" y="208.0" font-size="12" transform="rotate(90 1256.0 208.0)" text-anchor="middle" font-family="sans-serif" fill="#1f2937">누적</text><text x="639.0" y="442.0" font-size="13" text-anchor="middle" font-family="sans-serif" fill="#111827">일</text></svg>