<svg xmlns="http://www.w3.org/2000/svg" width="1280" height="460" viewBox="0 0 1280 460"><rect x="0" y="0" width="100%" height="100%" fill="#ffffff"/><text x="640.0" y="28" font-size="20" text-anchor="middle" font-family="sans-serif" fill="#111827">이벤트 / 최근 반영 시점 / 일별</text><line x1="80.0" y1="52.0" x2="1198.0" y2="52.0" stroke="#e5e7eb" stroke-width="1"/><text x="72.0" y="56.0" font-size="11" text-anchor="end" font-family="sans-serif" fill="#374151">215,815</text><text x="1206.0" y="56.0" font-size="11" text-anchor="start" font-family="sans-serif" fill="#374151">425,428</text><line x1="80.0" y1="114.4" x2="1198.0" y2="114.4" stroke="#e5e7eb" stroke-width="1"/><text x="72.0" y="118.4" font-size="11" text-anchor="end" font-family="sans-serif" fill="#374151">172,652</text><text x="1206.0" y="118.4" font-size="11" text-anchor="start" font-family="sans-serif" fill="#374151">340,342</text><line x1="80.0" y1="176.8" x2="1198.0" y2="176.8" stroke="#e5e7eb" stroke-width="1"/><text x="72.0" y="180.8" font-size="11" text-anchor="end" font-family="sans-serif" fill="#374151">129,489</text><text x="1206.0" y="180.8" font-size="11" text-anchor="start" font-family="sans-serif" fill="#374151">255,257</text><line x1="80.0" y1="239.2" x2="1198.0" y2="239.2" stroke="#e5e7eb" stroke-width="1"/><text x="72.0" y="243.2" font-size="11" text-anchor="end" font-family="sans-serif" fill="#374151">86,326</text><text x="1206.0" y="243.2" font-size="11" text-anchor="start" font-family="sans-serif" fill="#374151">170,171</text><line x1="80.0" y1="301.6" x2="1198.0" y2="301.6" stroke="#e5e7eb" stroke-width="1"/><text x="72.0" y="305.6" font-size="11" text-anchor="end" font-family="sans-serif" fill="#374151">43,163</text><text x="1206.0" y="305.6" font-size="11" text-anchor="start" font-family="sans-serif" fill="#374151">85,086</text><line x1="80.0" y1="364.0" x2="1198.0" y2="364.0" stroke="#e5e7eb" stroke-width="1"/><text x="72.0" y="368.0" font-size="11" text-anchor="end" font-family="sans-serif" fill="#374151">0</text><text x="1206.0" y="368.0" font-size="11" text-anchor="start" font-family="sans-serif" fill="#374151">0</text><line x1="80.0" y1="364.0" x2="1198.0" y2="364.0" stroke="#111827" stroke-width="1.2"/><line x1="80.0" y1="52.0" x2="80.0" y2="364.0" stroke="#111827" stroke-width="1.2"/><line x1="1198.0" y1="52.0" x2="1198.0" y2="364.0" stroke="#111827" stroke-width="1.2"/><rect x="81.0" y="364.0" width="16.0" height="0.0" fill="#93c5fd" stroke="#60a5fa" stroke-width="0.5"/><rect x="99.0" y="52.0" width="16.0" height="312.0" fill="#93c5fd" stroke="#60a5fa" stroke-width="0.5"/><rect x="117.1" y="360.8" width="16.0" height="3.2" fill="#93c5fd" stroke="#60a5fa" stroke-width="0.5"/><rect x="135.1" y="360.6" width="16.0" height="3.4" fill="#93c5fd" stroke="#60a5fa" stroke-width="0.5"/><rect x="153.1" y="360.6" width="16.0" height="3.4" fill="#93c5fd" stroke="#60a5fa" stroke-width="0.5"/><rect x="171.2" y="361.8" width="16.0" height="2.2" fill="#93c5fd" stroke="#60a5fa" stroke-width="0.5"/><rect x="189.2" y="360.7" width="16.0" height="3.3" fill="#93c5fd" stroke="#60a5fa" stroke-width="0.5"/><rect x="207.2" y="360.6" width="16.0" height="3.4" fill="#93c5fd" stroke="#60a5fa" stroke-width="0.5"/><rect x="225.3" y="362.5" width="16.0" height="1.5" fill="#93c5fd" stroke="#60a5fa" stroke-width="0.5"/><rect x="243.3" y="360.9" width="16.0" height="3.1" fill="#93c5fd" stroke="#60a5fa" stroke-width="0.5"/><rect x="261.3" y="360.6" width="16.0" height="3.4" fill="#93c5fd" stroke="#60a5fa" stroke-width="0.5"/><rect x="279.4" y="360.7" width="16.0" height="3.3" fill="#93c5fd" stroke="#60a5fa" stroke-width="0.5"/><rect x="297.4" y="361.1" width="16.0" height="2.9" fill="#93c5fd" stroke="#60a5fa" stroke-width="0.5"/><rect x="315.4" y="360.9" width="16.0" height="3.1" fill="#93c5fd" stroke="#60a5fa" stroke-width="0.5"/><rect x="333.5" y="361.0" width="16.0" height="3.0" fill="#93c5fd" stroke="#60a5fa" stroke-width="0.5"/><rect x="351.5" y="360.5" width="16.0" height="3.5" fill="#93c5fd" stroke="#60a5fa" stroke-width="0.5"/><rect x="369.5" y="359.2" width="16.0" height="4.8" fill="#93c5fd" stroke="#60a5fa" stroke-width="0.5"/><rect x="387.5" y="359.8" width="16.0" height="4.2" fill="#93c5fd" stroke="#60a5fa" stroke-width="0.5"/><rect x="405.6" y="359.6" width="16.0" height="4.4" fill="#93c5fd" stroke="#60a5fa" stroke-width="0.5"/><rect x="423.6" y="359.6" width="16.0" height="4.4" fill="#93c5fd" stroke="#60a5fa" stroke-width="0.5"/><rect x="441.6" y="359.4" width="16.0" height="4.6" fill="#93c5fd" stroke="#60a5fa" stroke-width="0.5"/><rect x="459.7" y="359.6" width="16.0" height="4.4" fill="#93c5fd" stroke="#60a5fa" stroke-width="0.5"/><rect x="477.7" y="359.8" width="16.0" height="4.2" fill="#93c5fd" stroke="#60a5fa" stroke-width="0.5"/><rect x="495.7" y="359.6" width="16.0" height="4.4" fill="#93c5fd" stroke="#60a5fa" stroke-width="0.5"/><rect x="513.8" y="359.9" width="16.0" height="4.1" fill="#93c5fd" stroke="#60a5fa" stroke-width="0.5"/><rect x="531.8" y="359.2" width="16.0" height="4.8" fill="#93c5fd" stroke="#60a5fa" stroke-width="0.5"/><rect x="549.8" y="358.9" width="16.0" height="5.1" fill="#93c5fd" stroke="#60a5fa" stroke-width="0.5"/><rect x="567.9" y="359.7" width="16.0" height="4.3" fill="#93c5fd" stroke="#60a5fa" stroke-width="0.5"/><rect x="585.9" y="360.2" width="16.0" height="3.8" fill="#93c5fd" stroke="#60a5fa" stroke-width="0.5"/><rect x="603.9" y="359.7" width="16.0" height="4.3" fill="#93c5fd" stroke="#60a5fa" stroke-width="0.5"/><rect x="622.0" y="359.6" width="16.0" height="4.4" fill="#93c5fd" stroke="#60a5fa" stroke-width="0.5"/><rect x="640.0" y="359.4" width="16.0" height="4.6" fill="#93c5fd" stroke="#60a5fa" stroke-width="0.5"/><rect x="658.0" y="359.4" width="16.0" height="4.6" fill="#93c5fd" stroke="#60a5fa" stroke-width="0.5"/><rect x="676.1" y="359.8" width="16.0" height="4.2" fill="#93c5fd" stroke="#60a5fa" stroke-width="0.5"/><rect x="694.1" y="358.8" width="16.0" height="5.2" fill="#93c5fd" stroke="#60a5fa" stroke-width="0.5"/><rect x="712.1" y="360.0" width="16.0" height="4.0" fill="#93c5fd" stroke="#60a5fa" stroke-width="0.5"/><rect x="730.2" y="358.7" width="16.0" height="5.3" fill="#93c5fd" stroke="#60a5fa" stroke-width="0.5"/><rect x="748.2" y="360.1" width="16.0" height="3.9" fill="#93c5fd" stroke="#60a5fa" stroke-width="0.5"/><rect x="766.2" y="359.5" width="16.0" height="4.5" fill="#93c5fd" stroke="#60a5fa" stroke-width="0.5"/><rect x="784.3" y="359.6" width="16.0" height="4.4" fill="#93c5fd" stroke="#60a5fa" stroke-width="0.5"/><rect x="802.3" y="359.5" width="16.0" height="4.5" fill="#93c5fd" stroke="#60a5fa" stroke-width="0.5"/><rect x="820.3" y="359.7" width="16.0" height="4.3" fill="#93c5fd" stroke="#60a5fa" stroke-width="0.5"/><rect x="838.4" y="359.1" width="16.0" height="4.9" fill="#93c5fd" stroke="#60a5fa" stroke-width="0.5"/><rect x="856.4" y="359.8" width="16.0" height="4.2" fill="#93c5fd" stroke="#60a5fa" stroke-width="0.5"/><rect x="874.4" y="359.8" width="16.0" height="4.2" fill="#93c5fd" stroke="#60a5fa" stroke-width="0.5"/><rect x="892.5" y="359.4" width="16.0" height="4.6" fill="#93c5fd" stroke="#60a5fa" stroke-width="0.5"/><rect x="910.5" y="359.0" width="16.0" height="5.0" fill="#93c5fd" stroke="#60a5fa" stroke-width="0.5"/><rect x="928.5" y="359.2" width="16.0" height="4.8" fill="#93c5fd" stroke="#60a5fa" stroke-width="0.5"/><rect x="946.5" y="359.9" width="16.0" height="4.1" fill="#93c5fd" stroke="#60a5fa" stroke-width="0.5"/><rect x="964.6" y="359.1" width="16.0" height="4.9" fill="#93c5fd" stroke="#60a5fa" stroke-width="0.5"/><rect x="982.6" y="359.7" width="16.0" height="4.3" fill="#93c5fd" stroke="#60a5fa" stroke-width="0.5"/><rect x="1000.6" y="359.6" width="16.0" height="4.4" fill="#93c5fd" stroke="#60a5fa" stroke-width="0.5"/><rect x="1018.7" y="359.1" width="16.0" height="4.9" fill="#93c5fd" stroke="#60a5fa" stroke-width="0.5"/><rect x="1036.7" y="359.2" width="16.0" height="4.8" fill="#93c5fd" stroke="#60a5fa" stroke-width="0.5"/><rect x="1054.7" y="359.4" width="16.0" height="4.6" fill="#93c5fd" stroke="#60a5fa" stroke-width="0.5"/><rect x="1072.8" y="359.4" width="16.0" height="4.6" fill="#93c5fd" stroke="#60a5fa" stroke-width="0.5"/><rect x="1090.8" y="359.4" width="16.0" height="4.6" fill="#93c5fd" stroke="#60a5fa" stroke-width="0.5"/><rect x="1108.8" y="359.4" width="16.0" height="4.6" fill="#93c5fd" stroke="#60a5fa" stroke-width="0.5"/><rect x="1126.9" y="358.7" width="16.0" height="5.3" fill="#93c5fd" stroke="#60a5fa" stroke-width="0.5"/><rect x="1144.9" y="359.7" width="16.0" height="4.3" fill="#93c5fd" stroke="#60a5fa" stroke-width="0.5"/><rect x="1162.9" y="359.5" width="16.0" height="4.5" fill="#93c5fd" stroke="#60a5fa" stroke-width="0.5"/><rect x="1181.0" y="307.2" width="16.0" height="56.8" fill="#93c5fd" stroke="#60a5fa" stroke-width="0.5"/><polyline fill="none" stroke="#ef4444" stroke-width="2" points="89.0,364.0 107.0,205.7 125.1,204.1 143.1,202.3 161.1,200.6 179.2,199.5 197.2,197.8 215.2,196.1 233.3,195.3 251.3,193.8 269.3,192.1 287.4,190.4 305.4,188.9 323.4,187.3 341.5,185.8 359.5,184.0 377.5,181.6 395.6,179.5 413.6,177.3 431.6,175.0 449.7,172.7 467.7,170.5 485.7,168.4 503.8,166.1 521.8,164.1 539.8,161.6 557.9,159.1 575.9,156.9 593.9,154.9 612.0,152.7 630.0,150.5 648.0,148.2 666.0,145.8 684.1,143.7 702.1,141.0 720.1,139.0 738.2,136.3 756.2,134.3 774.2,132.1 792.3,129.8 810.3,127.5 828.3,125.3 846.4,122.8 864.4,120.7 882.4,118.5 900.5,116.2 918.5,113.7 936.5,111.2 954.6,109.1 972.6,106.6 990.6,104.5 1008.7,102.2 1026.7,99.7 1044.7,97.3 1062.8,95.0 1080.8,92.6 1098.8,90.3 1116.9,88.0 1134.9,85.3 1152.9,83.1 1171.0,80.8 1189.0,52.0"/><line x1="89.0" y1="364.0" x2="89.0" y2="370.0" stroke="#111827" stroke-width="1"/><text x="91.0" y="386.0" font-size="11" text-anchor="end" transform="rotate(-35 91.0 386.0)" font-family="sans-serif" fill="#374151">2026-02-17</text><line x1="251.3" y1="364.0" x2="251.3" y2="370.0" stroke="#111827" stroke-width="1"/><text x="253.3" y="386.0" font-size="11" text-anchor="end" transform="rotate(-35 253.3 386.0)" font-family="sans-serif" fill="#374151">2026-03-10</text><line x1="395.6" y1="364.0" x2="395.6" y2="370.0" stroke="#111827" stroke-width="1"/><text x="397.6" y="386.0" font-size="11" text-anchor="end" transform="rotate(-35 397.6 386.0)" font-family="sans-serif" fill="#374151">2026-03-18</text><line x1="557.9" y1="364.0" x2="557.9" y2="370.0" stroke="#111827" stroke-width="1"/><text x="559.9" y="386.0" font-size="11" text-anchor="end" transform="rotate(-35 559.9 386.0)" font-family="sans-serif" fill="#374151">2026-03-27</text><line x1="720.1" y1="364.0" x2="720.1" y2="370.0" stroke="#111827" stroke-width="1"/><text x="722.1" y="386.0" font-size="11" text-anchor="end" transform="rotate(-35 722.1 386.0)" font-family="sans-serif" fill="#374151">2026-04-05</text><line x1="882.4" y1="364.0" x2="882.4" y2="370.0" stroke="#111827" stroke-width="1"/><text x="884.4" y="386.0" font-size="11" text-anchor="end" transform="rotate(-35 884.4 386.0)" font-family="sans-serif" fill="#374151">2026-04-14</text><line x1="1026.7" y1="364.0" x2="1026.7" y2="370.0" stroke="#111827" stroke-width="1"/><text x="1028.7" y="386.0" font-size="11" text-anchor="end" transform="rotate(-35 1028.7 386.0)" font-family="sans-serif" fill="#374151">2026-04-22</text><line x1="1189.0" y1="364.0" x2="1189.0" y2="370.0" stroke="#111827" stroke-width="1"/><text x="1191.0" y="386.0" font-size="11" text-anchor="end" transform="rotate(-35 1191.0 386.0)" font-family="sans-serif" fill="#374151">2026-05-01</text><text x="26" y="208.0" font-size="12" transform="rotate(-90 26 208.0)" text-anchor="middle" font-family="sans-serif" fill="#1f2937">구간별 수</text><text x="1256.0" y="208.0" font-size="12" transform="rotate(90 1256.0 208.0)" text-anchor="middle" font-family="sans-serif" fill="#1f2937">누적</text><text x="639.0" y="442.0" font-size="13" text-anchor="middle" font-family="sans-serif" fill="#111827">일</text></svg>