<svg xmlns="http://www.w3.org/2000/svg" width="1280" height="460" viewBox="0 0 1280 460"><rect x="0" y="0" width="100%" height="100%" fill="#ffffff"/><text x="640.0" y="28" font-size="20" text-anchor="middle" font-family="sans-serif" fill="#111827">이벤트 / 생성 시점 / 연도별</text><line x1="80.0" y1="52.0" x2="1198.0" y2="52.0" stroke="#e5e7eb" stroke-width="1"/><text x="72.0" y="56.0" font-size="11" text-anchor="end" font-family="sans-serif" fill="#374151">248,528</text><text x="1206.0" y="56.0" font-size="11" text-anchor="start" font-family="sans-serif" fill="#374151">375,216</text><line x1="80.0" y1="114.4" x2="1198.0" y2="114.4" stroke="#e5e7eb" stroke-width="1"/><text x="72.0" y="118.4" font-size="11" text-anchor="end" font-family="sans-serif" fill="#374151">198,822</text><text x="1206.0" y="118.4" font-size="11" text-anchor="start" font-family="sans-serif" fill="#374151">300,173</text><line x1="80.0" y1="176.8" x2="1198.0" y2="176.8" stroke="#e5e7eb" stroke-width="1"/><text x="72.0" y="180.8" font-size="11" text-anchor="end" font-family="sans-serif" fill="#374151">149,117</text><text x="1206.0" y="180.8" font-size="11" text-anchor="start" font-family="sans-serif" fill="#374151">225,130</text><line x1="80.0" y1="239.2" x2="1198.0" y2="239.2" stroke="#e5e7eb" stroke-width="1"/><text x="72.0" y="243.2" font-size="11" text-anchor="end" font-family="sans-serif" fill="#374151">99,411</text><text x="1206.0" y="243.2" font-size="11" text-anchor="start" font-family="sans-serif" fill="#374151">150,086</text><line x1="80.0" y1="301.6" x2="1198.0" y2="301.6" stroke="#e5e7eb" stroke-width="1"/><text x="72.0" y="305.6" font-size="11" text-anchor="end" font-family="sans-serif" fill="#374151">49,706</text><text x="1206.0" y="305.6" font-size="11" text-anchor="start" font-family="sans-serif" fill="#374151">75,043</text><line x1="80.0" y1="364.0" x2="1198.0" y2="364.0" stroke="#e5e7eb" stroke-width="1"/><text x="72.0" y="368.0" font-size="11" text-anchor="end" font-family="sans-serif" fill="#374151">0</text><text x="1206.0" y="368.0" font-size="11" text-anchor="start" font-family="sans-serif" fill="#374151">0</text><line x1="80.0" y1="364.0" x2="1198.0" y2="364.0" stroke="#111827" stroke-width="1.2"/><line x1="80.0" y1="52.0" x2="80.0" y2="364.0" stroke="#111827" stroke-width="1.2"/><line x1="1198.0" y1="52.0" x2="1198.0" y2="364.0" stroke="#111827" stroke-width="1.2"/><rect x="81.0" y="360.0" width="221.6" height="4.0" fill="#93c5fd" stroke="#60a5fa" stroke-width="0.5"/><rect x="304.6" y="362.2" width="221.6" height="1.8" fill="#93c5fd" stroke="#60a5fa" stroke-width="0.5"/><rect x="528.2" y="356.6" width="221.6" height="7.4" fill="#93c5fd" stroke="#60a5fa" stroke-width="0.5"/><rect x="751.8" y="218.2" width="221.6" height="145.8" fill="#93c5fd" stroke="#60a5fa" stroke-width="0.5"/><rect x="975.4" y="52.0" width="221.6" height="312.0" fill="#93c5fd" stroke="#60a5fa" stroke-width="0.5"/><polyline fill="none" stroke="#ef4444" stroke-width="2" points="191.8,361.4 415.4,360.2 639.0,355.3 862.6,258.7 1086.2,52.0"/><line x1="191.8" y1="364.0" x2="191.8" y2="370.0" stroke="#111827" stroke-width="1"/><text x="193.8" y="386.0" font-size="11" text-anchor="end" transform="rotate(-35 193.8 386.0)" font-family="sans-serif" fill="#374151">2022</text><line x1="415.4" y1="364.0" x2="415.4" y2="370.0" stroke="#111827" stroke-width="1"/><text x="417.4" y="386.0" font-size="11" text-anchor="end" transform="rotate(-35 417.4 386.0)" font-family="sans-serif" fill="#374151">2023</text><line x1="639.0" y1="364.0" x2="639.0" y2="370.0" stroke="#111827" stroke-width="1"/><text x="641.0" y="386.0" font-size="11" text-anchor="end" transform="rotate(-35 641.0 386.0)" font-family="sans-serif" fill="#374151">2024</text><line x1="862.6" y1="364.0" x2="862.6" y2="370.0" stroke="#111827" stroke-width="1"/><text x="864.6" y="386.0" font-size="11" text-anchor="end" transform="rotate(-35 864.6 386.0)" font-family="sans-serif" fill="#374151">2025</text><line x1="1086.2" y1="364.0" x2="1086.2" y2="370.0" stroke="#111827" stroke-width="1"/><text x="1088.2" y="386.0" font-size="11" text-anchor="end" transform="rotate(-35 1088.2 386.0)" font-family="sans-serif" fill="#374151">2026</text><text x="26" y="208.0" font-size="12" transform="rotate(-90 26 208.0)" text-anchor="middle" font-family="sans-serif" fill="#1f2937">구간별 수</text><text x="1256.0" y="208.0" font-size="12" transform="rotate(90 1256.0 208.0)" text-anchor="middle" font-family="sans-serif" fill="#1f2937">누적</text><text x="639.0" y="442.0" font-size="13" text-anchor="middle" font-family="sans-serif" fill="#111827">연도</text></svg>