<svg xmlns="http://www.w3.org/2000/svg" width="1280" height="460" viewBox="0 0 1280 460"><rect x="0" y="0" width="100%" height="100%" fill="#ffffff"/><text x="640.0" y="28" font-size="20" text-anchor="middle" font-family="sans-serif" fill="#111827">이벤트 / 최근 반영 시점 / 일별</text><line x1="80.0" y1="52.0" x2="1198.0" y2="52.0" stroke="#e5e7eb" stroke-width="1"/><text x="72.0" y="56.0" font-size="11" text-anchor="end" font-family="sans-serif" fill="#374151">215,824</text><text x="1206.0" y="56.0" font-size="11" text-anchor="start" font-family="sans-serif" fill="#374151">418,964</text><line x1="80.0" y1="114.4" x2="1198.0" y2="114.4" stroke="#e5e7eb" stroke-width="1"/><text x="72.0" y="118.4" font-size="11" text-anchor="end" font-family="sans-serif" fill="#374151">172,659</text><text x="1206.0" y="118.4" font-size="11" text-anchor="start" font-family="sans-serif" fill="#374151">335,171</text><line x1="80.0" y1="176.8" x2="1198.0" y2="176.8" stroke="#e5e7eb" stroke-width="1"/><text x="72.0" y="180.8" font-size="11" text-anchor="end" font-family="sans-serif" fill="#374151">129,494</text><text x="1206.0" y="180.8" font-size="11" text-anchor="start" font-family="sans-serif" fill="#374151">251,378</text><line x1="80.0" y1="239.2" x2="1198.0" y2="239.2" stroke="#e5e7eb" stroke-width="1"/><text x="72.0" y="243.2" font-size="11" text-anchor="end" font-family="sans-serif" fill="#374151">86,330</text><text x="1206.0" y="243.2" font-size="11" text-anchor="start" font-family="sans-serif" fill="#374151">167,586</text><line x1="80.0" y1="301.6" x2="1198.0" y2="301.6" stroke="#e5e7eb" stroke-width="1"/><text x="72.0" y="305.6" font-size="11" text-anchor="end" font-family="sans-serif" fill="#374151">43,165</text><text x="1206.0" y="305.6" font-size="11" text-anchor="start" font-family="sans-serif" fill="#374151">83,793</text><line x1="80.0" y1="364.0" x2="1198.0" y2="364.0" stroke="#e5e7eb" stroke-width="1"/><text x="72.0" y="368.0" font-size="11" text-anchor="end" font-family="sans-serif" fill="#374151">0</text><text x="1206.0" y="368.0" font-size="11" text-anchor="start" font-family="sans-serif" fill="#374151">0</text><line x1="80.0" y1="364.0" x2="1198.0" y2="364.0" stroke="#111827" stroke-width="1.2"/><line x1="80.0" y1="52.0" x2="80.0" y2="364.0" stroke="#111827" stroke-width="1.2"/><line x1="1198.0" y1="52.0" x2="1198.0" y2="364.0" stroke="#111827" stroke-width="1.2"/><rect x="81.0" y="364.0" width="16.6" height="0.0" fill="#93c5fd" stroke="#60a5fa" stroke-width="0.5"/><rect x="99.6" y="52.0" width="16.6" height="312.0" fill="#93c5fd" stroke="#60a5fa" stroke-width="0.5"/><rect x="118.3" y="360.8" width="16.6" height="3.2" fill="#93c5fd" stroke="#60a5fa" stroke-width="0.5"/><rect x="136.9" y="360.6" width="16.6" height="3.4" fill="#93c5fd" stroke="#60a5fa" stroke-width="0.5"/><rect x="155.5" y="360.6" width="16.6" height="3.4" fill="#93c5fd" stroke="#60a5fa" stroke-width="0.5"/><rect x="174.2" y="361.8" width="16.6" height="2.2" fill="#93c5fd" stroke="#60a5fa" stroke-width="0.5"/><rect x="192.8" y="360.7" width="16.6" height="3.3" fill="#93c5fd" stroke="#60a5fa" stroke-width="0.5"/><rect x="211.4" y="360.6" width="16.6" height="3.4" fill="#93c5fd" stroke="#60a5fa" stroke-width="0.5"/><rect x="230.1" y="362.5" width="16.6" height="1.5" fill="#93c5fd" stroke="#60a5fa" stroke-width="0.5"/><rect x="248.7" y="360.9" width="16.6" height="3.1" fill="#93c5fd" stroke="#60a5fa" stroke-width="0.5"/><rect x="267.3" y="360.6" width="16.6" height="3.4" fill="#93c5fd" stroke="#60a5fa" stroke-width="0.5"/><rect x="286.0" y="360.7" width="16.6" height="3.3" fill="#93c5fd" stroke="#60a5fa" stroke-width="0.5"/><rect x="304.6" y="361.1" width="16.6" height="2.9" fill="#93c5fd" stroke="#60a5fa" stroke-width="0.5"/><rect x="323.2" y="360.9" width="16.6" height="3.1" fill="#93c5fd" stroke="#60a5fa" stroke-width="0.5"/><rect x="341.9" y="361.0" width="16.6" height="3.0" fill="#93c5fd" stroke="#60a5fa" stroke-width="0.5"/><rect x="360.5" y="360.5" width="16.6" height="3.5" fill="#93c5fd" stroke="#60a5fa" stroke-width="0.5"/><rect x="379.1" y="359.2" width="16.6" height="4.8" fill="#93c5fd" stroke="#60a5fa" stroke-width="0.5"/><rect x="397.8" y="359.8" width="16.6" height="4.2" fill="#93c5fd" stroke="#60a5fa" stroke-width="0.5"/><rect x="416.4" y="359.6" width="16.6" height="4.4" fill="#93c5fd" stroke="#60a5fa" stroke-width="0.5"/><rect x="435.0" y="359.6" width="16.6" height="4.4" fill="#93c5fd" stroke="#60a5fa" stroke-width="0.5"/><rect x="453.7" y="359.4" width="16.6" height="4.6" fill="#93c5fd" stroke="#60a5fa" stroke-width="0.5"/><rect x="472.3" y="359.6" width="16.6" height="4.4" fill="#93c5fd" stroke="#60a5fa" stroke-width="0.5"/><rect x="490.9" y="359.8" width="16.6" height="4.2" fill="#93c5fd" stroke="#60a5fa" stroke-width="0.5"/><rect x="509.6" y="359.6" width="16.6" height="4.4" fill="#93c5fd" stroke="#60a5fa" stroke-width="0.5"/><rect x="528.2" y="359.9" width="16.6" height="4.1" fill="#93c5fd" stroke="#60a5fa" stroke-width="0.5"/><rect x="546.8" y="359.2" width="16.6" height="4.8" fill="#93c5fd" stroke="#60a5fa" stroke-width="0.5"/><rect x="565.5" y="358.9" width="16.6" height="5.1" fill="#93c5fd" stroke="#60a5fa" stroke-width="0.5"/><rect x="584.1" y="359.7" width="16.6" height="4.3" fill="#93c5fd" stroke="#60a5fa" stroke-width="0.5"/><rect x="602.7" y="360.2" width="16.6" height="3.8" fill="#93c5fd" stroke="#60a5fa" stroke-width="0.5"/><rect x="621.4" y="359.7" width="16.6" height="4.3" fill="#93c5fd" stroke="#60a5fa" stroke-width="0.5"/><rect x="640.0" y="359.6" width="16.6" height="4.4" fill="#93c5fd" stroke="#60a5fa" stroke-width="0.5"/><rect x="658.6" y="359.4" width="16.6" height="4.6" fill="#93c5fd" stroke="#60a5fa" stroke-width="0.5"/><rect x="677.3" y="359.4" width="16.6" height="4.6" fill="#93c5fd" stroke="#60a5fa" stroke-width="0.5"/><rect x="695.9" y="359.8" width="16.6" height="4.2" fill="#93c5fd" stroke="#60a5fa" stroke-width="0.5"/><rect x="714.5" y="358.8" width="16.6" height="5.2" fill="#93c5fd" stroke="#60a5fa" stroke-width="0.5"/><rect x="733.2" y="360.0" width="16.6" height="4.0" fill="#93c5fd" stroke="#60a5fa" stroke-width="0.5"/><rect x="751.8" y="358.7" width="16.6" height="5.3" fill="#93c5fd" stroke="#60a5fa" stroke-width="0.5"/><rect x="770.4" y="360.1" width="16.6" height="3.9" fill="#93c5fd" stroke="#60a5fa" stroke-width="0.5"/><rect x="789.1" y="359.5" width="16.6" height="4.5" fill="#93c5fd" stroke="#60a5fa" stroke-width="0.5"/><rect x="807.7" y="359.6" width="16.6" height="4.4" fill="#93c5fd" stroke="#60a5fa" stroke-width="0.5"/><rect x="826.3" y="359.5" width="16.6" height="4.5" fill="#93c5fd" stroke="#60a5fa" stroke-width="0.5"/><rect x="845.0" y="359.7" width="16.6" height="4.3" fill="#93c5fd" stroke="#60a5fa" stroke-width="0.5"/><rect x="863.6" y="359.1" width="16.6" height="4.9" fill="#93c5fd" stroke="#60a5fa" stroke-width="0.5"/><rect x="882.2" y="359.8" width="16.6" height="4.2" fill="#93c5fd" stroke="#60a5fa" stroke-width="0.5"/><rect x="900.9" y="359.8" width="16.6" height="4.2" fill="#93c5fd" stroke="#60a5fa" stroke-width="0.5"/><rect x="919.5" y="359.4" width="16.6" height="4.6" fill="#93c5fd" stroke="#60a5fa" stroke-width="0.5"/><rect x="938.1" y="359.0" width="16.6" height="5.0" fill="#93c5fd" stroke="#60a5fa" stroke-width="0.5"/><rect x="956.8" y="359.2" width="16.6" height="4.8" fill="#93c5fd" stroke="#60a5fa" stroke-width="0.5"/><rect x="975.4" y="359.8" width="16.6" height="4.2" fill="#93c5fd" stroke="#60a5fa" stroke-width="0.5"/><rect x="994.0" y="359.1" width="16.6" height="4.9" fill="#93c5fd" stroke="#60a5fa" stroke-width="0.5"/><rect x="1012.7" y="359.7" width="16.6" height="4.3" fill="#93c5fd" stroke="#60a5fa" stroke-width="0.5"/><rect x="1031.3" y="359.6" width="16.6" height="4.4" fill="#93c5fd" stroke="#60a5fa" stroke-width="0.5"/><rect x="1049.9" y="359.1" width="16.6" height="4.9" fill="#93c5fd" stroke="#60a5fa" stroke-width="0.5"/><rect x="1068.6" y="359.2" width="16.6" height="4.8" fill="#93c5fd" stroke="#60a5fa" stroke-width="0.5"/><rect x="1087.2" y="359.4" width="16.6" height="4.6" fill="#93c5fd" stroke="#60a5fa" stroke-width="0.5"/><rect x="1105.8" y="359.4" width="16.6" height="4.6" fill="#93c5fd" stroke="#60a5fa" stroke-width="0.5"/><rect x="1124.5" y="359.4" width="16.6" height="4.6" fill="#93c5fd" stroke="#60a5fa" stroke-width="0.5"/><rect x="1143.1" y="359.4" width="16.6" height="4.6" fill="#93c5fd" stroke="#60a5fa" stroke-width="0.5"/><rect x="1161.7" y="358.4" width="16.6" height="5.6" fill="#93c5fd" stroke="#60a5fa" stroke-width="0.5"/><rect x="1180.4" y="308.2" width="16.6" height="55.8" fill="#93c5fd" stroke="#60a5fa" stroke-width="0.5"/><polyline fill="none" stroke="#ef4444" stroke-width="2" points="89.3,364.0 107.9,203.3 126.6,201.6 145.2,199.8 163.8,198.1 182.5,197.0 201.1,195.3 219.8,193.5 238.4,192.7 257.0,191.1 275.6,189.4 294.3,187.7 312.9,186.2 331.6,184.6 350.2,183.1 368.8,181.3 387.4,178.8 406.1,176.6 424.7,174.4 443.3,172.1 462.0,169.8 480.6,167.5 499.2,165.3 517.9,163.1 536.5,161.0 555.1,158.5 573.8,155.9 592.4,153.7 611.1,151.7 629.7,149.5 648.3,147.2 667.0,144.8 685.6,142.4 704.2,140.3 722.9,137.6 741.5,135.5 760.1,132.8 778.8,130.8 797.4,128.5 816.0,126.2 834.6,123.9 853.3,121.7 871.9,119.1 890.6,116.9 909.2,114.7 927.8,112.4 946.5,109.8 965.1,107.3 983.7,105.2 1002.4,102.7 1021.0,100.5 1039.6,98.2 1058.2,95.7 1076.9,93.2 1095.5,90.8 1114.1,88.4 1132.8,86.0 1151.4,83.6 1170.0,80.7 1188.7,52.0"/><line x1="89.3" y1="364.0" x2="89.3" y2="370.0" stroke="#111827" stroke-width="1"/><text x="91.3" y="386.0" font-size="11" text-anchor="end" transform="rotate(-35 91.3 386.0)" font-family="sans-serif" fill="#374151">2026-02-17</text><line x1="238.4" y1="364.0" x2="238.4" y2="370.0" stroke="#111827" stroke-width="1"/><text x="240.4" y="386.0" font-size="11" text-anchor="end" transform="rotate(-35 240.4 386.0)" font-family="sans-serif" fill="#374151">2026-03-09</text><line x1="406.1" y1="364.0" x2="406.1" y2="370.0" stroke="#111827" stroke-width="1"/><text x="408.1" y="386.0" font-size="11" text-anchor="end" transform="rotate(-35 408.1 386.0)" font-family="sans-serif" fill="#374151">2026-03-18</text><line x1="555.1" y1="364.0" x2="555.1" y2="370.0" stroke="#111827" stroke-width="1"/><text x="557.1" y="386.0" font-size="11" text-anchor="end" transform="rotate(-35 557.1 386.0)" font-family="sans-serif" fill="#374151">2026-03-26</text><line x1="722.9" y1="364.0" x2="722.9" y2="370.0" stroke="#111827" stroke-width="1"/><text x="724.9" y="386.0" font-size="11" text-anchor="end" transform="rotate(-35 724.9 386.0)" font-family="sans-serif" fill="#374151">2026-04-04</text><line x1="871.9" y1="364.0" x2="871.9" y2="370.0" stroke="#111827" stroke-width="1"/><text x="873.9" y="386.0" font-size="11" text-anchor="end" transform="rotate(-35 873.9 386.0)" font-family="sans-serif" fill="#374151">2026-04-12</text><line x1="1039.6" y1="364.0" x2="1039.6" y2="370.0" stroke="#111827" stroke-width="1"/><text x="1041.6" y="386.0" font-size="11" text-anchor="end" transform="rotate(-35 1041.6 386.0)" font-family="sans-serif" fill="#374151">2026-04-21</text><line x1="1188.7" y1="364.0" x2="1188.7" y2="370.0" stroke="#111827" stroke-width="1"/><text x="1190.7" y="386.0" font-size="11" text-anchor="end" transform="rotate(-35 1190.7 386.0)" font-family="sans-serif" fill="#374151">2026-04-29</text><text x="26" y="208.0" font-size="12" transform="rotate(-90 26 208.0)" text-anchor="middle" font-family="sans-serif" fill="#1f2937">구간별 수</text><text x="1256.0" y="208.0" font-size="12" transform="rotate(90 1256.0 208.0)" text-anchor="middle" font-family="sans-serif" fill="#1f2937">누적</text><text x="639.0" y="442.0" font-size="13" text-anchor="middle" font-family="sans-serif" fill="#111827">일</text></svg>