<svg xmlns="http://www.w3.org/2000/svg" width="1280" height="460" viewBox="0 0 1280 460"><rect x="0" y="0" width="100%" height="100%" fill="#ffffff"/><text x="640.0" y="28" font-size="20" text-anchor="middle" font-family="sans-serif" fill="#111827">이벤트 / 최근 반영 시점 / 일별</text><line x1="80.0" y1="52.0" x2="1198.0" y2="52.0" stroke="#e5e7eb" stroke-width="1"/><text x="72.0" y="56.0" font-size="11" text-anchor="end" font-family="sans-serif" fill="#374151">215,958</text><text x="1206.0" y="56.0" font-size="11" text-anchor="start" font-family="sans-serif" fill="#374151">332,563</text><line x1="80.0" y1="114.4" x2="1198.0" y2="114.4" stroke="#e5e7eb" stroke-width="1"/><text x="72.0" y="118.4" font-size="11" text-anchor="end" font-family="sans-serif" fill="#374151">172,766</text><text x="1206.0" y="118.4" font-size="11" text-anchor="start" font-family="sans-serif" fill="#374151">266,050</text><line x1="80.0" y1="176.8" x2="1198.0" y2="176.8" stroke="#e5e7eb" stroke-width="1"/><text x="72.0" y="180.8" font-size="11" text-anchor="end" font-family="sans-serif" fill="#374151">129,575</text><text x="1206.0" y="180.8" font-size="11" text-anchor="start" font-family="sans-serif" fill="#374151">199,538</text><line x1="80.0" y1="239.2" x2="1198.0" y2="239.2" stroke="#e5e7eb" stroke-width="1"/><text x="72.0" y="243.2" font-size="11" text-anchor="end" font-family="sans-serif" fill="#374151">86,383</text><text x="1206.0" y="243.2" font-size="11" text-anchor="start" font-family="sans-serif" fill="#374151">133,025</text><line x1="80.0" y1="301.6" x2="1198.0" y2="301.6" stroke="#e5e7eb" stroke-width="1"/><text x="72.0" y="305.6" font-size="11" text-anchor="end" font-family="sans-serif" fill="#374151">43,192</text><text x="1206.0" y="305.6" font-size="11" text-anchor="start" font-family="sans-serif" fill="#374151">66,513</text><line x1="80.0" y1="364.0" x2="1198.0" y2="364.0" stroke="#e5e7eb" stroke-width="1"/><text x="72.0" y="368.0" font-size="11" text-anchor="end" font-family="sans-serif" fill="#374151">0</text><text x="1206.0" y="368.0" font-size="11" text-anchor="start" font-family="sans-serif" fill="#374151">0</text><line x1="80.0" y1="364.0" x2="1198.0" y2="364.0" stroke="#111827" stroke-width="1.2"/><line x1="80.0" y1="52.0" x2="80.0" y2="364.0" stroke="#111827" stroke-width="1.2"/><line x1="1198.0" y1="52.0" x2="1198.0" y2="364.0" stroke="#111827" stroke-width="1.2"/><rect x="81.0" y="364.0" width="29.9" height="0.0" fill="#93c5fd" stroke="#60a5fa" stroke-width="0.5"/><rect x="112.9" y="52.0" width="29.9" height="312.0" fill="#93c5fd" stroke="#60a5fa" stroke-width="0.5"/><rect x="144.9" y="360.8" width="29.9" height="3.2" fill="#93c5fd" stroke="#60a5fa" stroke-width="0.5"/><rect x="176.8" y="360.6" width="29.9" height="3.4" fill="#93c5fd" stroke="#60a5fa" stroke-width="0.5"/><rect x="208.8" y="360.6" width="29.9" height="3.4" fill="#93c5fd" stroke="#60a5fa" stroke-width="0.5"/><rect x="240.7" y="361.8" width="29.9" height="2.2" fill="#93c5fd" stroke="#60a5fa" stroke-width="0.5"/><rect x="272.7" y="360.7" width="29.9" height="3.3" fill="#93c5fd" stroke="#60a5fa" stroke-width="0.5"/><rect x="304.6" y="360.6" width="29.9" height="3.4" fill="#93c5fd" stroke="#60a5fa" stroke-width="0.5"/><rect x="336.5" y="362.5" width="29.9" height="1.5" fill="#93c5fd" stroke="#60a5fa" stroke-width="0.5"/><rect x="368.5" y="360.9" width="29.9" height="3.1" fill="#93c5fd" stroke="#60a5fa" stroke-width="0.5"/><rect x="400.4" y="360.6" width="29.9" height="3.4" fill="#93c5fd" stroke="#60a5fa" stroke-width="0.5"/><rect x="432.4" y="360.7" width="29.9" height="3.3" fill="#93c5fd" stroke="#60a5fa" stroke-width="0.5"/><rect x="464.3" y="361.1" width="29.9" height="2.9" fill="#93c5fd" stroke="#60a5fa" stroke-width="0.5"/><rect x="496.3" y="360.9" width="29.9" height="3.1" fill="#93c5fd" stroke="#60a5fa" stroke-width="0.5"/><rect x="528.2" y="361.0" width="29.9" height="3.0" fill="#93c5fd" stroke="#60a5fa" stroke-width="0.5"/><rect x="560.1" y="360.5" width="29.9" height="3.5" fill="#93c5fd" stroke="#60a5fa" stroke-width="0.5"/><rect x="592.1" y="359.2" width="29.9" height="4.8" fill="#93c5fd" stroke="#60a5fa" stroke-width="0.5"/><rect x="624.0" y="359.8" width="29.9" height="4.2" fill="#93c5fd" stroke="#60a5fa" stroke-width="0.5"/><rect x="656.0" y="359.7" width="29.9" height="4.3" fill="#93c5fd" stroke="#60a5fa" stroke-width="0.5"/><rect x="687.9" y="359.6" width="29.9" height="4.4" fill="#93c5fd" stroke="#60a5fa" stroke-width="0.5"/><rect x="719.9" y="359.4" width="29.9" height="4.6" fill="#93c5fd" stroke="#60a5fa" stroke-width="0.5"/><rect x="751.8" y="359.6" width="29.9" height="4.4" fill="#93c5fd" stroke="#60a5fa" stroke-width="0.5"/><rect x="783.7" y="359.8" width="29.9" height="4.2" fill="#93c5fd" stroke="#60a5fa" stroke-width="0.5"/><rect x="815.7" y="359.6" width="29.9" height="4.4" fill="#93c5fd" stroke="#60a5fa" stroke-width="0.5"/><rect x="847.6" y="359.9" width="29.9" height="4.1" fill="#93c5fd" stroke="#60a5fa" stroke-width="0.5"/><rect x="879.6" y="359.2" width="29.9" height="4.8" fill="#93c5fd" stroke="#60a5fa" stroke-width="0.5"/><rect x="911.5" y="358.9" width="29.9" height="5.1" fill="#93c5fd" stroke="#60a5fa" stroke-width="0.5"/><rect x="943.5" y="359.7" width="29.9" height="4.3" fill="#93c5fd" stroke="#60a5fa" stroke-width="0.5"/><rect x="975.4" y="360.2" width="29.9" height="3.8" fill="#93c5fd" stroke="#60a5fa" stroke-width="0.5"/><rect x="1007.3" y="359.7" width="29.9" height="4.3" fill="#93c5fd" stroke="#60a5fa" stroke-width="0.5"/><rect x="1039.3" y="359.6" width="29.9" height="4.4" fill="#93c5fd" stroke="#60a5fa" stroke-width="0.5"/><rect x="1071.2" y="359.4" width="29.9" height="4.6" fill="#93c5fd" stroke="#60a5fa" stroke-width="0.5"/><rect x="1103.2" y="359.3" width="29.9" height="4.7" fill="#93c5fd" stroke="#60a5fa" stroke-width="0.5"/><rect x="1135.1" y="359.8" width="29.9" height="4.2" fill="#93c5fd" stroke="#60a5fa" stroke-width="0.5"/><rect x="1167.1" y="317.9" width="29.9" height="46.1" fill="#93c5fd" stroke="#60a5fa" stroke-width="0.5"/><polyline fill="none" stroke="#ef4444" stroke-width="2" points="96.0,364.0 127.9,161.4 159.9,159.3 191.8,157.1 223.7,154.9 255.7,153.5 287.6,151.3 319.6,149.1 351.5,148.1 383.5,146.1 415.4,143.9 447.3,141.8 479.3,139.9 511.2,137.9 543.2,135.9 575.1,133.6 607.1,130.6 639.0,127.8 670.9,125.0 702.9,122.1 734.8,119.2 766.8,116.3 798.7,113.6 830.7,110.7 862.6,108.1 894.5,105.0 926.5,101.7 958.4,98.9 990.4,96.4 1022.3,93.6 1054.3,90.7 1086.2,87.7 1118.1,84.7 1150.1,82.0 1182.0,52.0"/><line x1="96.0" y1="364.0" x2="96.0" y2="370.0" stroke="#111827" stroke-width="1"/><text x="98.0" y="386.0" font-size="11" text-anchor="end" transform="rotate(-35 98.0 386.0)" font-family="sans-serif" fill="#374151">2026-02-17</text><line x1="255.7" y1="364.0" x2="255.7" y2="370.0" stroke="#111827" stroke-width="1"/><text x="257.7" y="386.0" font-size="11" text-anchor="end" transform="rotate(-35 257.7 386.0)" font-family="sans-serif" fill="#374151">2026-03-06</text><line x1="415.4" y1="364.0" x2="415.4" y2="370.0" stroke="#111827" stroke-width="1"/><text x="417.4" y="386.0" font-size="11" text-anchor="end" transform="rotate(-35 417.4 386.0)" font-family="sans-serif" fill="#374151">2026-03-11</text><line x1="575.1" y1="364.0" x2="575.1" y2="370.0" stroke="#111827" stroke-width="1"/><text x="577.1" y="386.0" font-size="11" text-anchor="end" transform="rotate(-35 577.1 386.0)" font-family="sans-serif" fill="#374151">2026-03-16</text><line x1="702.9" y1="364.0" x2="702.9" y2="370.0" stroke="#111827" stroke-width="1"/><text x="704.9" y="386.0" font-size="11" text-anchor="end" transform="rotate(-35 704.9 386.0)" font-family="sans-serif" fill="#374151">2026-03-20</text><line x1="862.6" y1="364.0" x2="862.6" y2="370.0" stroke="#111827" stroke-width="1"/><text x="864.6" y="386.0" font-size="11" text-anchor="end" transform="rotate(-35 864.6 386.0)" font-family="sans-serif" fill="#374151">2026-03-25</text><line x1="1022.3" y1="364.0" x2="1022.3" y2="370.0" stroke="#111827" stroke-width="1"/><text x="1024.3" y="386.0" font-size="11" text-anchor="end" transform="rotate(-35 1024.3 386.0)" font-family="sans-serif" fill="#374151">2026-03-30</text><line x1="1182.0" y1="364.0" x2="1182.0" y2="370.0" stroke="#111827" stroke-width="1"/><text x="1184.0" y="386.0" font-size="11" text-anchor="end" transform="rotate(-35 1184.0 386.0)" font-family="sans-serif" fill="#374151">2026-04-04</text><text x="26" y="208.0" font-size="12" transform="rotate(-90 26 208.0)" text-anchor="middle" font-family="sans-serif" fill="#1f2937">구간별 수</text><text x="1256.0" y="208.0" font-size="12" transform="rotate(90 1256.0 208.0)" text-anchor="middle" font-family="sans-serif" fill="#1f2937">누적</text><text x="639.0" y="442.0" font-size="13" text-anchor="middle" font-family="sans-serif" fill="#111827">일</text></svg>