<svg xmlns="http://www.w3.org/2000/svg" width="1280" height="460" viewBox="0 0 1280 460"><rect x="0" y="0" width="100%" height="100%" fill="#ffffff"/><text x="640.0" y="28" font-size="20" text-anchor="middle" font-family="sans-serif" fill="#111827">이벤트 / 최근 반영 시점 / 일별</text><line x1="80.0" y1="52.0" x2="1198.0" y2="52.0" stroke="#e5e7eb" stroke-width="1"/><text x="72.0" y="56.0" font-size="11" text-anchor="end" font-family="sans-serif" fill="#374151">215,960</text><text x="1206.0" y="56.0" font-size="11" text-anchor="start" font-family="sans-serif" fill="#374151">329,372</text><line x1="80.0" y1="114.4" x2="1198.0" y2="114.4" stroke="#e5e7eb" stroke-width="1"/><text x="72.0" y="118.4" font-size="11" text-anchor="end" font-family="sans-serif" fill="#374151">172,768</text><text x="1206.0" y="118.4" font-size="11" text-anchor="start" font-family="sans-serif" fill="#374151">263,498</text><line x1="80.0" y1="176.8" x2="1198.0" y2="176.8" stroke="#e5e7eb" stroke-width="1"/><text x="72.0" y="180.8" font-size="11" text-anchor="end" font-family="sans-serif" fill="#374151">129,576</text><text x="1206.0" y="180.8" font-size="11" text-anchor="start" font-family="sans-serif" fill="#374151">197,623</text><line x1="80.0" y1="239.2" x2="1198.0" y2="239.2" stroke="#e5e7eb" stroke-width="1"/><text x="72.0" y="243.2" font-size="11" text-anchor="end" font-family="sans-serif" fill="#374151">86,384</text><text x="1206.0" y="243.2" font-size="11" text-anchor="start" font-family="sans-serif" fill="#374151">131,749</text><line x1="80.0" y1="301.6" x2="1198.0" y2="301.6" stroke="#e5e7eb" stroke-width="1"/><text x="72.0" y="305.6" font-size="11" text-anchor="end" font-family="sans-serif" fill="#374151">43,192</text><text x="1206.0" y="305.6" font-size="11" text-anchor="start" font-family="sans-serif" fill="#374151">65,874</text><line x1="80.0" y1="364.0" x2="1198.0" y2="364.0" stroke="#e5e7eb" stroke-width="1"/><text x="72.0" y="368.0" font-size="11" text-anchor="end" font-family="sans-serif" fill="#374151">0</text><text x="1206.0" y="368.0" font-size="11" text-anchor="start" font-family="sans-serif" fill="#374151">0</text><line x1="80.0" y1="364.0" x2="1198.0" y2="364.0" stroke="#111827" stroke-width="1.2"/><line x1="80.0" y1="52.0" x2="80.0" y2="364.0" stroke="#111827" stroke-width="1.2"/><line x1="1198.0" y1="52.0" x2="1198.0" y2="364.0" stroke="#111827" stroke-width="1.2"/><rect x="81.0" y="364.0" width="30.9" height="0.0" fill="#93c5fd" stroke="#60a5fa" stroke-width="0.5"/><rect x="113.9" y="52.0" width="30.9" height="312.0" fill="#93c5fd" stroke="#60a5fa" stroke-width="0.5"/><rect x="146.8" y="360.8" width="30.9" height="3.2" fill="#93c5fd" stroke="#60a5fa" stroke-width="0.5"/><rect x="179.6" y="360.6" width="30.9" height="3.4" fill="#93c5fd" stroke="#60a5fa" stroke-width="0.5"/><rect x="212.5" y="360.6" width="30.9" height="3.4" fill="#93c5fd" stroke="#60a5fa" stroke-width="0.5"/><rect x="245.4" y="361.8" width="30.9" height="2.2" fill="#93c5fd" stroke="#60a5fa" stroke-width="0.5"/><rect x="278.3" y="360.7" width="30.9" height="3.3" fill="#93c5fd" stroke="#60a5fa" stroke-width="0.5"/><rect x="311.2" y="360.6" width="30.9" height="3.4" fill="#93c5fd" stroke="#60a5fa" stroke-width="0.5"/><rect x="344.1" y="362.5" width="30.9" height="1.5" fill="#93c5fd" stroke="#60a5fa" stroke-width="0.5"/><rect x="376.9" y="360.9" width="30.9" height="3.1" fill="#93c5fd" stroke="#60a5fa" stroke-width="0.5"/><rect x="409.8" y="360.6" width="30.9" height="3.4" fill="#93c5fd" stroke="#60a5fa" stroke-width="0.5"/><rect x="442.7" y="360.7" width="30.9" height="3.3" fill="#93c5fd" stroke="#60a5fa" stroke-width="0.5"/><rect x="475.6" y="361.1" width="30.9" height="2.9" fill="#93c5fd" stroke="#60a5fa" stroke-width="0.5"/><rect x="508.5" y="360.9" width="30.9" height="3.1" fill="#93c5fd" stroke="#60a5fa" stroke-width="0.5"/><rect x="541.4" y="361.0" width="30.9" height="3.0" fill="#93c5fd" stroke="#60a5fa" stroke-width="0.5"/><rect x="574.2" y="360.5" width="30.9" height="3.5" fill="#93c5fd" stroke="#60a5fa" stroke-width="0.5"/><rect x="607.1" y="359.2" width="30.9" height="4.8" fill="#93c5fd" stroke="#60a5fa" stroke-width="0.5"/><rect x="640.0" y="359.8" width="30.9" height="4.2" fill="#93c5fd" stroke="#60a5fa" stroke-width="0.5"/><rect x="672.9" y="359.7" width="30.9" height="4.3" fill="#93c5fd" stroke="#60a5fa" stroke-width="0.5"/><rect x="705.8" y="359.6" width="30.9" height="4.4" fill="#93c5fd" stroke="#60a5fa" stroke-width="0.5"/><rect x="738.6" y="359.4" width="30.9" height="4.6" fill="#93c5fd" stroke="#60a5fa" stroke-width="0.5"/><rect x="771.5" y="359.6" width="30.9" height="4.4" fill="#93c5fd" stroke="#60a5fa" stroke-width="0.5"/><rect x="804.4" y="359.8" width="30.9" height="4.2" fill="#93c5fd" stroke="#60a5fa" stroke-width="0.5"/><rect x="837.3" y="359.6" width="30.9" height="4.4" fill="#93c5fd" stroke="#60a5fa" stroke-width="0.5"/><rect x="870.2" y="359.9" width="30.9" height="4.1" fill="#93c5fd" stroke="#60a5fa" stroke-width="0.5"/><rect x="903.1" y="359.2" width="30.9" height="4.8" fill="#93c5fd" stroke="#60a5fa" stroke-width="0.5"/><rect x="935.9" y="358.9" width="30.9" height="5.1" fill="#93c5fd" stroke="#60a5fa" stroke-width="0.5"/><rect x="968.8" y="359.7" width="30.9" height="4.3" fill="#93c5fd" stroke="#60a5fa" stroke-width="0.5"/><rect x="1001.7" y="360.2" width="30.9" height="3.8" fill="#93c5fd" stroke="#60a5fa" stroke-width="0.5"/><rect x="1034.6" y="359.7" width="30.9" height="4.3" fill="#93c5fd" stroke="#60a5fa" stroke-width="0.5"/><rect x="1067.5" y="359.6" width="30.9" height="4.4" fill="#93c5fd" stroke="#60a5fa" stroke-width="0.5"/><rect x="1100.4" y="359.4" width="30.9" height="4.6" fill="#93c5fd" stroke="#60a5fa" stroke-width="0.5"/><rect x="1133.2" y="359.3" width="30.9" height="4.7" fill="#93c5fd" stroke="#60a5fa" stroke-width="0.5"/><rect x="1166.1" y="318.3" width="30.9" height="45.7" fill="#93c5fd" stroke="#60a5fa" stroke-width="0.5"/><polyline fill="none" stroke="#ef4444" stroke-width="2" points="96.4,364.0 129.3,159.4 162.2,157.3 195.1,155.1 228.0,152.8 260.9,151.4 293.7,149.2 326.6,147.0 359.5,146.0 392.4,144.0 425.3,141.8 458.1,139.6 491.0,137.7 523.9,135.7 556.8,133.7 589.7,131.4 622.6,128.3 655.4,125.5 688.3,122.7 721.2,119.8 754.1,116.8 787.0,113.9 819.9,111.1 852.7,108.3 885.6,105.6 918.5,102.5 951.4,99.1 984.3,96.3 1017.1,93.8 1050.0,90.9 1082.9,88.0 1115.8,85.0 1148.7,82.0 1181.6,52.0"/><line x1="96.4" y1="364.0" x2="96.4" y2="370.0" stroke="#111827" stroke-width="1"/><text x="98.4" y="386.0" font-size="11" text-anchor="end" transform="rotate(-35 98.4 386.0)" font-family="sans-serif" fill="#374151">2026-02-17</text><line x1="260.9" y1="364.0" x2="260.9" y2="370.0" stroke="#111827" stroke-width="1"/><text x="262.9" y="386.0" font-size="11" text-anchor="end" transform="rotate(-35 262.9 386.0)" font-family="sans-serif" fill="#374151">2026-03-06</text><line x1="392.4" y1="364.0" x2="392.4" y2="370.0" stroke="#111827" stroke-width="1"/><text x="394.4" y="386.0" font-size="11" text-anchor="end" transform="rotate(-35 394.4 386.0)" font-family="sans-serif" fill="#374151">2026-03-10</text><line x1="556.8" y1="364.0" x2="556.8" y2="370.0" stroke="#111827" stroke-width="1"/><text x="558.8" y="386.0" font-size="11" text-anchor="end" transform="rotate(-35 558.8 386.0)" font-family="sans-serif" fill="#374151">2026-03-15</text><line x1="721.2" y1="364.0" x2="721.2" y2="370.0" stroke="#111827" stroke-width="1"/><text x="723.2" y="386.0" font-size="11" text-anchor="end" transform="rotate(-35 723.2 386.0)" font-family="sans-serif" fill="#374151">2026-03-20</text><line x1="885.6" y1="364.0" x2="885.6" y2="370.0" stroke="#111827" stroke-width="1"/><text x="887.6" y="386.0" font-size="11" text-anchor="end" transform="rotate(-35 887.6 386.0)" font-family="sans-serif" fill="#374151">2026-03-25</text><line x1="1017.1" y1="364.0" x2="1017.1" y2="370.0" stroke="#111827" stroke-width="1"/><text x="1019.1" y="386.0" font-size="11" text-anchor="end" transform="rotate(-35 1019.1 386.0)" font-family="sans-serif" fill="#374151">2026-03-29</text><line x1="1181.6" y1="364.0" x2="1181.6" y2="370.0" stroke="#111827" stroke-width="1"/><text x="1183.6" y="386.0" font-size="11" text-anchor="end" transform="rotate(-35 1183.6 386.0)" font-family="sans-serif" fill="#374151">2026-04-03</text><text x="26" y="208.0" font-size="12" transform="rotate(-90 26 208.0)" text-anchor="middle" font-family="sans-serif" fill="#1f2937">구간별 수</text><text x="1256.0" y="208.0" font-size="12" transform="rotate(90 1256.0 208.0)" text-anchor="middle" font-family="sans-serif" fill="#1f2937">누적</text><text x="639.0" y="442.0" font-size="13" text-anchor="middle" font-family="sans-serif" fill="#111827">일</text></svg>