<svg xmlns="http://www.w3.org/2000/svg" width="1280" height="460" viewBox="0 0 1280 460"><rect x="0" y="0" width="100%" height="100%" fill="#ffffff"/><text x="640.0" y="28" font-size="20" text-anchor="middle" font-family="sans-serif" fill="#111827">이벤트 / 최근 반영 시점 / 일별</text><line x1="80.0" y1="52.0" x2="1198.0" y2="52.0" stroke="#e5e7eb" stroke-width="1"/><text x="72.0" y="56.0" font-size="11" text-anchor="end" font-family="sans-serif" fill="#374151">215,865</text><text x="1206.0" y="56.0" font-size="11" text-anchor="start" font-family="sans-serif" fill="#374151">383,921</text><line x1="80.0" y1="114.4" x2="1198.0" y2="114.4" stroke="#e5e7eb" stroke-width="1"/><text x="72.0" y="118.4" font-size="11" text-anchor="end" font-family="sans-serif" fill="#374151">172,692</text><text x="1206.0" y="118.4" font-size="11" text-anchor="start" font-family="sans-serif" fill="#374151">307,137</text><line x1="80.0" y1="176.8" x2="1198.0" y2="176.8" stroke="#e5e7eb" stroke-width="1"/><text x="72.0" y="180.8" font-size="11" text-anchor="end" font-family="sans-serif" fill="#374151">129,519</text><text x="1206.0" y="180.8" font-size="11" text-anchor="start" font-family="sans-serif" fill="#374151">230,353</text><line x1="80.0" y1="239.2" x2="1198.0" y2="239.2" stroke="#e5e7eb" stroke-width="1"/><text x="72.0" y="243.2" font-size="11" text-anchor="end" font-family="sans-serif" fill="#374151">86,346</text><text x="1206.0" y="243.2" font-size="11" text-anchor="start" font-family="sans-serif" fill="#374151">153,568</text><line x1="80.0" y1="301.6" x2="1198.0" y2="301.6" stroke="#e5e7eb" stroke-width="1"/><text x="72.0" y="305.6" font-size="11" text-anchor="end" font-family="sans-serif" fill="#374151">43,173</text><text x="1206.0" y="305.6" font-size="11" text-anchor="start" font-family="sans-serif" fill="#374151">76,784</text><line x1="80.0" y1="364.0" x2="1198.0" y2="364.0" stroke="#e5e7eb" stroke-width="1"/><text x="72.0" y="368.0" font-size="11" text-anchor="end" font-family="sans-serif" fill="#374151">0</text><text x="1206.0" y="368.0" font-size="11" text-anchor="start" font-family="sans-serif" fill="#374151">0</text><line x1="80.0" y1="364.0" x2="1198.0" y2="364.0" stroke="#111827" stroke-width="1.2"/><line x1="80.0" y1="52.0" x2="80.0" y2="364.0" stroke="#111827" stroke-width="1.2"/><line x1="1198.0" y1="52.0" x2="1198.0" y2="364.0" stroke="#111827" stroke-width="1.2"/><rect x="81.0" y="364.0" width="20.4" height="0.0" fill="#93c5fd" stroke="#60a5fa" stroke-width="0.5"/><rect x="103.4" y="52.0" width="20.4" height="312.0" fill="#93c5fd" stroke="#60a5fa" stroke-width="0.5"/><rect x="125.7" y="360.8" width="20.4" height="3.2" fill="#93c5fd" stroke="#60a5fa" stroke-width="0.5"/><rect x="148.1" y="360.6" width="20.4" height="3.4" fill="#93c5fd" stroke="#60a5fa" stroke-width="0.5"/><rect x="170.4" y="360.6" width="20.4" height="3.4" fill="#93c5fd" stroke="#60a5fa" stroke-width="0.5"/><rect x="192.8" y="361.8" width="20.4" height="2.2" fill="#93c5fd" stroke="#60a5fa" stroke-width="0.5"/><rect x="215.2" y="360.7" width="20.4" height="3.3" fill="#93c5fd" stroke="#60a5fa" stroke-width="0.5"/><rect x="237.5" y="360.6" width="20.4" height="3.4" fill="#93c5fd" stroke="#60a5fa" stroke-width="0.5"/><rect x="259.9" y="362.5" width="20.4" height="1.5" fill="#93c5fd" stroke="#60a5fa" stroke-width="0.5"/><rect x="282.2" y="360.9" width="20.4" height="3.1" fill="#93c5fd" stroke="#60a5fa" stroke-width="0.5"/><rect x="304.6" y="360.6" width="20.4" height="3.4" fill="#93c5fd" stroke="#60a5fa" stroke-width="0.5"/><rect x="327.0" y="360.7" width="20.4" height="3.3" fill="#93c5fd" stroke="#60a5fa" stroke-width="0.5"/><rect x="349.3" y="361.1" width="20.4" height="2.9" fill="#93c5fd" stroke="#60a5fa" stroke-width="0.5"/><rect x="371.7" y="360.9" width="20.4" height="3.1" fill="#93c5fd" stroke="#60a5fa" stroke-width="0.5"/><rect x="394.0" y="361.0" width="20.4" height="3.0" fill="#93c5fd" stroke="#60a5fa" stroke-width="0.5"/><rect x="416.4" y="360.5" width="20.4" height="3.5" fill="#93c5fd" stroke="#60a5fa" stroke-width="0.5"/><rect x="438.8" y="359.2" width="20.4" height="4.8" fill="#93c5fd" stroke="#60a5fa" stroke-width="0.5"/><rect x="461.1" y="359.8" width="20.4" height="4.2" fill="#93c5fd" stroke="#60a5fa" stroke-width="0.5"/><rect x="483.5" y="359.6" width="20.4" height="4.4" fill="#93c5fd" stroke="#60a5fa" stroke-width="0.5"/><rect x="505.8" y="359.6" width="20.4" height="4.4" fill="#93c5fd" stroke="#60a5fa" stroke-width="0.5"/><rect x="528.2" y="359.4" width="20.4" height="4.6" fill="#93c5fd" stroke="#60a5fa" stroke-width="0.5"/><rect x="550.6" y="359.6" width="20.4" height="4.4" fill="#93c5fd" stroke="#60a5fa" stroke-width="0.5"/><rect x="572.9" y="359.8" width="20.4" height="4.2" fill="#93c5fd" stroke="#60a5fa" stroke-width="0.5"/><rect x="595.3" y="359.6" width="20.4" height="4.4" fill="#93c5fd" stroke="#60a5fa" stroke-width="0.5"/><rect x="617.6" y="359.9" width="20.4" height="4.1" fill="#93c5fd" stroke="#60a5fa" stroke-width="0.5"/><rect x="640.0" y="359.2" width="20.4" height="4.8" fill="#93c5fd" stroke="#60a5fa" stroke-width="0.5"/><rect x="662.4" y="358.9" width="20.4" height="5.1" fill="#93c5fd" stroke="#60a5fa" stroke-width="0.5"/><rect x="684.7" y="359.7" width="20.4" height="4.3" fill="#93c5fd" stroke="#60a5fa" stroke-width="0.5"/><rect x="707.1" y="360.2" width="20.4" height="3.8" fill="#93c5fd" stroke="#60a5fa" stroke-width="0.5"/><rect x="729.4" y="359.7" width="20.4" height="4.3" fill="#93c5fd" stroke="#60a5fa" stroke-width="0.5"/><rect x="751.8" y="359.6" width="20.4" height="4.4" fill="#93c5fd" stroke="#60a5fa" stroke-width="0.5"/><rect x="774.2" y="359.4" width="20.4" height="4.6" fill="#93c5fd" stroke="#60a5fa" stroke-width="0.5"/><rect x="796.5" y="359.4" width="20.4" height="4.6" fill="#93c5fd" stroke="#60a5fa" stroke-width="0.5"/><rect x="818.9" y="359.8" width="20.4" height="4.2" fill="#93c5fd" stroke="#60a5fa" stroke-width="0.5"/><rect x="841.2" y="358.8" width="20.4" height="5.2" fill="#93c5fd" stroke="#60a5fa" stroke-width="0.5"/><rect x="863.6" y="360.0" width="20.4" height="4.0" fill="#93c5fd" stroke="#60a5fa" stroke-width="0.5"/><rect x="886.0" y="358.7" width="20.4" height="5.3" fill="#93c5fd" stroke="#60a5fa" stroke-width="0.5"/><rect x="908.3" y="360.1" width="20.4" height="3.9" fill="#93c5fd" stroke="#60a5fa" stroke-width="0.5"/><rect x="930.7" y="359.5" width="20.4" height="4.5" fill="#93c5fd" stroke="#60a5fa" stroke-width="0.5"/><rect x="953.0" y="359.6" width="20.4" height="4.4" fill="#93c5fd" stroke="#60a5fa" stroke-width="0.5"/><rect x="975.4" y="359.5" width="20.4" height="4.5" fill="#93c5fd" stroke="#60a5fa" stroke-width="0.5"/><rect x="997.8" y="359.7" width="20.4" height="4.3" fill="#93c5fd" stroke="#60a5fa" stroke-width="0.5"/><rect x="1020.1" y="359.1" width="20.4" height="4.9" fill="#93c5fd" stroke="#60a5fa" stroke-width="0.5"/><rect x="1042.5" y="359.8" width="20.4" height="4.2" fill="#93c5fd" stroke="#60a5fa" stroke-width="0.5"/><rect x="1064.8" y="359.8" width="20.4" height="4.2" fill="#93c5fd" stroke="#60a5fa" stroke-width="0.5"/><rect x="1087.2" y="359.4" width="20.4" height="4.6" fill="#93c5fd" stroke="#60a5fa" stroke-width="0.5"/><rect x="1109.6" y="359.0" width="20.4" height="5.0" fill="#93c5fd" stroke="#60a5fa" stroke-width="0.5"/><rect x="1131.9" y="359.1" width="20.4" height="4.9" fill="#93c5fd" stroke="#60a5fa" stroke-width="0.5"/><rect x="1154.3" y="359.8" width="20.4" height="4.2" fill="#93c5fd" stroke="#60a5fa" stroke-width="0.5"/><rect x="1176.6" y="311.7" width="20.4" height="52.3" fill="#93c5fd" stroke="#60a5fa" stroke-width="0.5"/><polyline fill="none" stroke="#ef4444" stroke-width="2" points="91.2,364.0 113.5,188.6 135.9,186.7 158.3,184.8 180.6,182.9 203.0,181.7 225.3,179.8 247.7,177.9 270.1,177.1 292.4,175.3 314.8,173.4 337.1,171.6 359.5,169.9 381.9,168.2 404.2,166.5 426.6,164.5 448.9,161.9 471.3,159.5 493.7,157.1 516.0,154.6 538.4,152.0 560.7,149.5 583.1,147.2 605.5,144.7 627.8,142.4 650.2,139.7 672.5,136.9 694.9,134.4 717.3,132.3 739.6,129.8 762.0,127.4 784.3,124.8 806.7,122.2 829.1,119.8 851.4,116.9 873.8,114.6 896.1,111.6 918.5,109.4 940.9,106.9 963.2,104.4 985.6,101.9 1007.9,99.5 1030.3,96.7 1052.7,94.3 1075.0,91.9 1097.4,89.3 1119.7,86.5 1142.1,83.8 1164.5,81.4 1186.8,52.0"/><line x1="91.2" y1="364.0" x2="91.2" y2="370.0" stroke="#111827" stroke-width="1"/><text x="93.2" y="386.0" font-size="11" text-anchor="end" transform="rotate(-35 93.2 386.0)" font-family="sans-serif" fill="#374151">2026-02-17</text><line x1="247.7" y1="364.0" x2="247.7" y2="370.0" stroke="#111827" stroke-width="1"/><text x="249.7" y="386.0" font-size="11" text-anchor="end" transform="rotate(-35 249.7 386.0)" font-family="sans-serif" fill="#374151">2026-03-08</text><line x1="404.2" y1="364.0" x2="404.2" y2="370.0" stroke="#111827" stroke-width="1"/><text x="406.2" y="386.0" font-size="11" text-anchor="end" transform="rotate(-35 406.2 386.0)" font-family="sans-serif" fill="#374151">2026-03-15</text><line x1="560.7" y1="364.0" x2="560.7" y2="370.0" stroke="#111827" stroke-width="1"/><text x="562.7" y="386.0" font-size="11" text-anchor="end" transform="rotate(-35 562.7 386.0)" font-family="sans-serif" fill="#374151">2026-03-22</text><line x1="717.3" y1="364.0" x2="717.3" y2="370.0" stroke="#111827" stroke-width="1"/><text x="719.3" y="386.0" font-size="11" text-anchor="end" transform="rotate(-35 719.3 386.0)" font-family="sans-serif" fill="#374151">2026-03-29</text><line x1="873.8" y1="364.0" x2="873.8" y2="370.0" stroke="#111827" stroke-width="1"/><text x="875.8" y="386.0" font-size="11" text-anchor="end" transform="rotate(-35 875.8 386.0)" font-family="sans-serif" fill="#374151">2026-04-05</text><line x1="1030.3" y1="364.0" x2="1030.3" y2="370.0" stroke="#111827" stroke-width="1"/><text x="1032.3" y="386.0" font-size="11" text-anchor="end" transform="rotate(-35 1032.3 386.0)" font-family="sans-serif" fill="#374151">2026-04-12</text><line x1="1186.8" y1="364.0" x2="1186.8" y2="370.0" stroke="#111827" stroke-width="1"/><text x="1188.8" y="386.0" font-size="11" text-anchor="end" transform="rotate(-35 1188.8 386.0)" font-family="sans-serif" fill="#374151">2026-04-19</text><text x="26" y="208.0" font-size="12" transform="rotate(-90 26 208.0)" text-anchor="middle" font-family="sans-serif" fill="#1f2937">구간별 수</text><text x="1256.0" y="208.0" font-size="12" transform="rotate(90 1256.0 208.0)" text-anchor="middle" font-family="sans-serif" fill="#1f2937">누적</text><text x="639.0" y="442.0" font-size="13" text-anchor="middle" font-family="sans-serif" fill="#111827">일</text></svg>