<svg xmlns="http://www.w3.org/2000/svg" width="1280" height="460" viewBox="0 0 1280 460"><rect x="0" y="0" width="100%" height="100%" fill="#ffffff"/><text x="640.0" y="28" font-size="20" text-anchor="middle" font-family="sans-serif" fill="#111827">이벤트 / 최근 반영 시점 / 일별</text><line x1="80.0" y1="52.0" x2="1198.0" y2="52.0" stroke="#e5e7eb" stroke-width="1"/><text x="72.0" y="56.0" font-size="11" text-anchor="end" font-family="sans-serif" fill="#374151">215,856</text><text x="1206.0" y="56.0" font-size="11" text-anchor="start" font-family="sans-serif" fill="#374151">394,321</text><line x1="80.0" y1="114.4" x2="1198.0" y2="114.4" stroke="#e5e7eb" stroke-width="1"/><text x="72.0" y="118.4" font-size="11" text-anchor="end" font-family="sans-serif" fill="#374151">172,685</text><text x="1206.0" y="118.4" font-size="11" text-anchor="start" font-family="sans-serif" fill="#374151">315,457</text><line x1="80.0" y1="176.8" x2="1198.0" y2="176.8" stroke="#e5e7eb" stroke-width="1"/><text x="72.0" y="180.8" font-size="11" text-anchor="end" font-family="sans-serif" fill="#374151">129,514</text><text x="1206.0" y="180.8" font-size="11" text-anchor="start" font-family="sans-serif" fill="#374151">236,593</text><line x1="80.0" y1="239.2" x2="1198.0" y2="239.2" stroke="#e5e7eb" stroke-width="1"/><text x="72.0" y="243.2" font-size="11" text-anchor="end" font-family="sans-serif" fill="#374151">86,342</text><text x="1206.0" y="243.2" font-size="11" text-anchor="start" font-family="sans-serif" fill="#374151">157,728</text><line x1="80.0" y1="301.6" x2="1198.0" y2="301.6" stroke="#e5e7eb" stroke-width="1"/><text x="72.0" y="305.6" font-size="11" text-anchor="end" font-family="sans-serif" fill="#374151">43,171</text><text x="1206.0" y="305.6" font-size="11" text-anchor="start" font-family="sans-serif" fill="#374151">78,864</text><line x1="80.0" y1="364.0" x2="1198.0" y2="364.0" stroke="#e5e7eb" stroke-width="1"/><text x="72.0" y="368.0" font-size="11" text-anchor="end" font-family="sans-serif" fill="#374151">0</text><text x="1206.0" y="368.0" font-size="11" text-anchor="start" font-family="sans-serif" fill="#374151">0</text><line x1="80.0" y1="364.0" x2="1198.0" y2="364.0" stroke="#111827" stroke-width="1.2"/><line x1="80.0" y1="52.0" x2="80.0" y2="364.0" stroke="#111827" stroke-width="1.2"/><line x1="1198.0" y1="52.0" x2="1198.0" y2="364.0" stroke="#111827" stroke-width="1.2"/><rect x="81.0" y="364.0" width="19.1" height="0.0" fill="#93c5fd" stroke="#60a5fa" stroke-width="0.5"/><rect x="102.1" y="52.0" width="19.1" height="312.0" fill="#93c5fd" stroke="#60a5fa" stroke-width="0.5"/><rect x="123.2" y="360.8" width="19.1" height="3.2" fill="#93c5fd" stroke="#60a5fa" stroke-width="0.5"/><rect x="144.3" y="360.6" width="19.1" height="3.4" fill="#93c5fd" stroke="#60a5fa" stroke-width="0.5"/><rect x="165.4" y="360.6" width="19.1" height="3.4" fill="#93c5fd" stroke="#60a5fa" stroke-width="0.5"/><rect x="186.5" y="361.8" width="19.1" height="2.2" fill="#93c5fd" stroke="#60a5fa" stroke-width="0.5"/><rect x="207.6" y="360.7" width="19.1" height="3.3" fill="#93c5fd" stroke="#60a5fa" stroke-width="0.5"/><rect x="228.7" y="360.6" width="19.1" height="3.4" fill="#93c5fd" stroke="#60a5fa" stroke-width="0.5"/><rect x="249.8" y="362.5" width="19.1" height="1.5" fill="#93c5fd" stroke="#60a5fa" stroke-width="0.5"/><rect x="270.8" y="360.9" width="19.1" height="3.1" fill="#93c5fd" stroke="#60a5fa" stroke-width="0.5"/><rect x="291.9" y="360.6" width="19.1" height="3.4" fill="#93c5fd" stroke="#60a5fa" stroke-width="0.5"/><rect x="313.0" y="360.7" width="19.1" height="3.3" fill="#93c5fd" stroke="#60a5fa" stroke-width="0.5"/><rect x="334.1" y="361.1" width="19.1" height="2.9" fill="#93c5fd" stroke="#60a5fa" stroke-width="0.5"/><rect x="355.2" y="360.9" width="19.1" height="3.1" fill="#93c5fd" stroke="#60a5fa" stroke-width="0.5"/><rect x="376.3" y="361.0" width="19.1" height="3.0" fill="#93c5fd" stroke="#60a5fa" stroke-width="0.5"/><rect x="397.4" y="360.5" width="19.1" height="3.5" fill="#93c5fd" stroke="#60a5fa" stroke-width="0.5"/><rect x="418.5" y="359.2" width="19.1" height="4.8" fill="#93c5fd" stroke="#60a5fa" stroke-width="0.5"/><rect x="439.6" y="359.8" width="19.1" height="4.2" fill="#93c5fd" stroke="#60a5fa" stroke-width="0.5"/><rect x="460.7" y="359.6" width="19.1" height="4.4" fill="#93c5fd" stroke="#60a5fa" stroke-width="0.5"/><rect x="481.8" y="359.6" width="19.1" height="4.4" fill="#93c5fd" stroke="#60a5fa" stroke-width="0.5"/><rect x="502.9" y="359.4" width="19.1" height="4.6" fill="#93c5fd" stroke="#60a5fa" stroke-width="0.5"/><rect x="524.0" y="359.6" width="19.1" height="4.4" fill="#93c5fd" stroke="#60a5fa" stroke-width="0.5"/><rect x="545.1" y="359.8" width="19.1" height="4.2" fill="#93c5fd" stroke="#60a5fa" stroke-width="0.5"/><rect x="566.2" y="359.6" width="19.1" height="4.4" fill="#93c5fd" stroke="#60a5fa" stroke-width="0.5"/><rect x="587.3" y="359.9" width="19.1" height="4.1" fill="#93c5fd" stroke="#60a5fa" stroke-width="0.5"/><rect x="608.4" y="359.2" width="19.1" height="4.8" fill="#93c5fd" stroke="#60a5fa" stroke-width="0.5"/><rect x="629.5" y="358.9" width="19.1" height="5.1" fill="#93c5fd" stroke="#60a5fa" stroke-width="0.5"/><rect x="650.5" y="359.7" width="19.1" height="4.3" fill="#93c5fd" stroke="#60a5fa" stroke-width="0.5"/><rect x="671.6" y="360.2" width="19.1" height="3.8" fill="#93c5fd" stroke="#60a5fa" stroke-width="0.5"/><rect x="692.7" y="359.7" width="19.1" height="4.3" fill="#93c5fd" stroke="#60a5fa" stroke-width="0.5"/><rect x="713.8" y="359.6" width="19.1" height="4.4" fill="#93c5fd" stroke="#60a5fa" stroke-width="0.5"/><rect x="734.9" y="359.4" width="19.1" height="4.6" fill="#93c5fd" stroke="#60a5fa" stroke-width="0.5"/><rect x="756.0" y="359.4" width="19.1" height="4.6" fill="#93c5fd" stroke="#60a5fa" stroke-width="0.5"/><rect x="777.1" y="359.8" width="19.1" height="4.2" fill="#93c5fd" stroke="#60a5fa" stroke-width="0.5"/><rect x="798.2" y="358.8" width="19.1" height="5.2" fill="#93c5fd" stroke="#60a5fa" stroke-width="0.5"/><rect x="819.3" y="360.0" width="19.1" height="4.0" fill="#93c5fd" stroke="#60a5fa" stroke-width="0.5"/><rect x="840.4" y="358.7" width="19.1" height="5.3" fill="#93c5fd" stroke="#60a5fa" stroke-width="0.5"/><rect x="861.5" y="360.1" width="19.1" height="3.9" fill="#93c5fd" stroke="#60a5fa" stroke-width="0.5"/><rect x="882.6" y="359.5" width="19.1" height="4.5" fill="#93c5fd" stroke="#60a5fa" stroke-width="0.5"/><rect x="903.7" y="359.6" width="19.1" height="4.4" fill="#93c5fd" stroke="#60a5fa" stroke-width="0.5"/><rect x="924.8" y="359.5" width="19.1" height="4.5" fill="#93c5fd" stroke="#60a5fa" stroke-width="0.5"/><rect x="945.9" y="359.7" width="19.1" height="4.3" fill="#93c5fd" stroke="#60a5fa" stroke-width="0.5"/><rect x="967.0" y="359.1" width="19.1" height="4.9" fill="#93c5fd" stroke="#60a5fa" stroke-width="0.5"/><rect x="988.1" y="359.8" width="19.1" height="4.2" fill="#93c5fd" stroke="#60a5fa" stroke-width="0.5"/><rect x="1009.2" y="359.8" width="19.1" height="4.2" fill="#93c5fd" stroke="#60a5fa" stroke-width="0.5"/><rect x="1030.2" y="359.4" width="19.1" height="4.6" fill="#93c5fd" stroke="#60a5fa" stroke-width="0.5"/><rect x="1051.3" y="359.0" width="19.1" height="5.0" fill="#93c5fd" stroke="#60a5fa" stroke-width="0.5"/><rect x="1072.4" y="359.2" width="19.1" height="4.8" fill="#93c5fd" stroke="#60a5fa" stroke-width="0.5"/><rect x="1093.5" y="359.8" width="19.1" height="4.2" fill="#93c5fd" stroke="#60a5fa" stroke-width="0.5"/><rect x="1114.6" y="359.1" width="19.1" height="4.9" fill="#93c5fd" stroke="#60a5fa" stroke-width="0.5"/><rect x="1135.7" y="359.7" width="19.1" height="4.3" fill="#93c5fd" stroke="#60a5fa" stroke-width="0.5"/><rect x="1156.8" y="359.5" width="19.1" height="4.5" fill="#93c5fd" stroke="#60a5fa" stroke-width="0.5"/><rect x="1177.9" y="310.2" width="19.1" height="53.8" fill="#93c5fd" stroke="#60a5fa" stroke-width="0.5"/><polyline fill="none" stroke="#ef4444" stroke-width="2" points="90.5,364.0 111.6,193.2 132.7,191.4 153.8,189.6 174.9,187.7 196.0,186.5 217.1,184.7 238.2,182.8 259.3,182.0 280.4,180.3 301.5,178.5 322.6,176.6 343.7,175.1 364.8,173.4 385.9,171.7 407.0,169.8 428.1,167.2 449.2,164.9 470.2,162.5 491.3,160.1 512.4,157.6 533.5,155.2 554.6,152.9 575.7,150.5 596.8,148.3 617.9,145.6 639.0,142.9 660.1,140.5 681.2,138.4 702.3,136.0 723.4,133.6 744.5,131.1 765.6,128.6 786.7,126.3 807.8,123.4 828.8,121.2 849.9,118.3 871.0,116.2 892.1,113.7 913.2,111.3 934.3,108.8 955.4,106.5 976.5,103.8 997.6,101.4 1018.7,99.1 1039.8,96.6 1060.9,93.8 1082.0,91.2 1103.1,88.9 1124.2,86.3 1145.3,83.9 1166.4,81.5 1187.5,52.0"/><line x1="90.5" y1="364.0" x2="90.5" y2="370.0" stroke="#111827" stroke-width="1"/><text x="92.5" y="386.0" font-size="11" text-anchor="end" transform="rotate(-35 92.5 386.0)" font-family="sans-serif" fill="#374151">2026-02-17</text><line x1="238.2" y1="364.0" x2="238.2" y2="370.0" stroke="#111827" stroke-width="1"/><text x="240.2" y="386.0" font-size="11" text-anchor="end" transform="rotate(-35 240.2 386.0)" font-family="sans-serif" fill="#374151">2026-03-08</text><line x1="407.0" y1="364.0" x2="407.0" y2="370.0" stroke="#111827" stroke-width="1"/><text x="409.0" y="386.0" font-size="11" text-anchor="end" transform="rotate(-35 409.0 386.0)" font-family="sans-serif" fill="#374151">2026-03-16</text><line x1="554.6" y1="364.0" x2="554.6" y2="370.0" stroke="#111827" stroke-width="1"/><text x="556.6" y="386.0" font-size="11" text-anchor="end" transform="rotate(-35 556.6 386.0)" font-family="sans-serif" fill="#374151">2026-03-23</text><line x1="723.4" y1="364.0" x2="723.4" y2="370.0" stroke="#111827" stroke-width="1"/><text x="725.4" y="386.0" font-size="11" text-anchor="end" transform="rotate(-35 725.4 386.0)" font-family="sans-serif" fill="#374151">2026-03-31</text><line x1="871.0" y1="364.0" x2="871.0" y2="370.0" stroke="#111827" stroke-width="1"/><text x="873.0" y="386.0" font-size="11" text-anchor="end" transform="rotate(-35 873.0 386.0)" font-family="sans-serif" fill="#374151">2026-04-07</text><line x1="1039.8" y1="364.0" x2="1039.8" y2="370.0" stroke="#111827" stroke-width="1"/><text x="1041.8" y="386.0" font-size="11" text-anchor="end" transform="rotate(-35 1041.8 386.0)" font-family="sans-serif" fill="#374151">2026-04-15</text><line x1="1187.5" y1="364.0" x2="1187.5" y2="370.0" stroke="#111827" stroke-width="1"/><text x="1189.5" y="386.0" font-size="11" text-anchor="end" transform="rotate(-35 1189.5 386.0)" font-family="sans-serif" fill="#374151">2026-04-22</text><text x="26" y="208.0" font-size="12" transform="rotate(-90 26 208.0)" text-anchor="middle" font-family="sans-serif" fill="#1f2937">구간별 수</text><text x="1256.0" y="208.0" font-size="12" transform="rotate(90 1256.0 208.0)" text-anchor="middle" font-family="sans-serif" fill="#1f2937">누적</text><text x="639.0" y="442.0" font-size="13" text-anchor="middle" font-family="sans-serif" fill="#111827">일</text></svg>