<svg xmlns="http://www.w3.org/2000/svg" width="1280" height="460" viewBox="0 0 1280 460"><rect x="0" y="0" width="100%" height="100%" fill="#ffffff"/><text x="640.0" y="28" font-size="20" text-anchor="middle" font-family="sans-serif" fill="#111827">이벤트 / 최근 반영 시점 / 일별</text><line x1="80.0" y1="52.0" x2="1198.0" y2="52.0" stroke="#e5e7eb" stroke-width="1"/><text x="72.0" y="56.0" font-size="11" text-anchor="end" font-family="sans-serif" fill="#374151">215,932</text><text x="1206.0" y="56.0" font-size="11" text-anchor="start" font-family="sans-serif" fill="#374151">347,849</text><line x1="80.0" y1="114.4" x2="1198.0" y2="114.4" stroke="#e5e7eb" stroke-width="1"/><text x="72.0" y="118.4" font-size="11" text-anchor="end" font-family="sans-serif" fill="#374151">172,746</text><text x="1206.0" y="118.4" font-size="11" text-anchor="start" font-family="sans-serif" fill="#374151">278,279</text><line x1="80.0" y1="176.8" x2="1198.0" y2="176.8" stroke="#e5e7eb" stroke-width="1"/><text x="72.0" y="180.8" font-size="11" text-anchor="end" font-family="sans-serif" fill="#374151">129,559</text><text x="1206.0" y="180.8" font-size="11" text-anchor="start" font-family="sans-serif" fill="#374151">208,709</text><line x1="80.0" y1="239.2" x2="1198.0" y2="239.2" stroke="#e5e7eb" stroke-width="1"/><text x="72.0" y="243.2" font-size="11" text-anchor="end" font-family="sans-serif" fill="#374151">86,373</text><text x="1206.0" y="243.2" font-size="11" text-anchor="start" font-family="sans-serif" fill="#374151">139,140</text><line x1="80.0" y1="301.6" x2="1198.0" y2="301.6" stroke="#e5e7eb" stroke-width="1"/><text x="72.0" y="305.6" font-size="11" text-anchor="end" font-family="sans-serif" fill="#374151">43,186</text><text x="1206.0" y="305.6" font-size="11" text-anchor="start" font-family="sans-serif" fill="#374151">69,570</text><line x1="80.0" y1="364.0" x2="1198.0" y2="364.0" stroke="#e5e7eb" stroke-width="1"/><text x="72.0" y="368.0" font-size="11" text-anchor="end" font-family="sans-serif" fill="#374151">0</text><text x="1206.0" y="368.0" font-size="11" text-anchor="start" font-family="sans-serif" fill="#374151">0</text><line x1="80.0" y1="364.0" x2="1198.0" y2="364.0" stroke="#111827" stroke-width="1.2"/><line x1="80.0" y1="52.0" x2="80.0" y2="364.0" stroke="#111827" stroke-width="1.2"/><line x1="1198.0" y1="52.0" x2="1198.0" y2="364.0" stroke="#111827" stroke-width="1.2"/><rect x="81.0" y="364.0" width="26.7" height="0.0" fill="#93c5fd" stroke="#60a5fa" stroke-width="0.5"/><rect x="109.7" y="52.0" width="26.7" height="312.0" fill="#93c5fd" stroke="#60a5fa" stroke-width="0.5"/><rect x="138.3" y="360.8" width="26.7" height="3.2" fill="#93c5fd" stroke="#60a5fa" stroke-width="0.5"/><rect x="167.0" y="360.6" width="26.7" height="3.4" fill="#93c5fd" stroke="#60a5fa" stroke-width="0.5"/><rect x="195.7" y="360.6" width="26.7" height="3.4" fill="#93c5fd" stroke="#60a5fa" stroke-width="0.5"/><rect x="224.3" y="361.8" width="26.7" height="2.2" fill="#93c5fd" stroke="#60a5fa" stroke-width="0.5"/><rect x="253.0" y="360.7" width="26.7" height="3.3" fill="#93c5fd" stroke="#60a5fa" stroke-width="0.5"/><rect x="281.7" y="360.6" width="26.7" height="3.4" fill="#93c5fd" stroke="#60a5fa" stroke-width="0.5"/><rect x="310.3" y="362.5" width="26.7" height="1.5" fill="#93c5fd" stroke="#60a5fa" stroke-width="0.5"/><rect x="339.0" y="360.9" width="26.7" height="3.1" fill="#93c5fd" stroke="#60a5fa" stroke-width="0.5"/><rect x="367.7" y="360.6" width="26.7" height="3.4" fill="#93c5fd" stroke="#60a5fa" stroke-width="0.5"/><rect x="396.3" y="360.7" width="26.7" height="3.3" fill="#93c5fd" stroke="#60a5fa" stroke-width="0.5"/><rect x="425.0" y="361.1" width="26.7" height="2.9" fill="#93c5fd" stroke="#60a5fa" stroke-width="0.5"/><rect x="453.7" y="360.9" width="26.7" height="3.1" fill="#93c5fd" stroke="#60a5fa" stroke-width="0.5"/><rect x="482.3" y="361.0" width="26.7" height="3.0" fill="#93c5fd" stroke="#60a5fa" stroke-width="0.5"/><rect x="511.0" y="360.5" width="26.7" height="3.5" fill="#93c5fd" stroke="#60a5fa" stroke-width="0.5"/><rect x="539.7" y="359.2" width="26.7" height="4.8" fill="#93c5fd" stroke="#60a5fa" stroke-width="0.5"/><rect x="568.3" y="359.8" width="26.7" height="4.2" fill="#93c5fd" stroke="#60a5fa" stroke-width="0.5"/><rect x="597.0" y="359.7" width="26.7" height="4.3" fill="#93c5fd" stroke="#60a5fa" stroke-width="0.5"/><rect x="625.7" y="359.6" width="26.7" height="4.4" fill="#93c5fd" stroke="#60a5fa" stroke-width="0.5"/><rect x="654.3" y="359.4" width="26.7" height="4.6" fill="#93c5fd" stroke="#60a5fa" stroke-width="0.5"/><rect x="683.0" y="359.6" width="26.7" height="4.4" fill="#93c5fd" stroke="#60a5fa" stroke-width="0.5"/><rect x="711.7" y="359.8" width="26.7" height="4.2" fill="#93c5fd" stroke="#60a5fa" stroke-width="0.5"/><rect x="740.3" y="359.6" width="26.7" height="4.4" fill="#93c5fd" stroke="#60a5fa" stroke-width="0.5"/><rect x="769.0" y="359.9" width="26.7" height="4.1" fill="#93c5fd" stroke="#60a5fa" stroke-width="0.5"/><rect x="797.7" y="359.2" width="26.7" height="4.8" fill="#93c5fd" stroke="#60a5fa" stroke-width="0.5"/><rect x="826.3" y="358.9" width="26.7" height="5.1" fill="#93c5fd" stroke="#60a5fa" stroke-width="0.5"/><rect x="855.0" y="359.7" width="26.7" height="4.3" fill="#93c5fd" stroke="#60a5fa" stroke-width="0.5"/><rect x="883.7" y="360.2" width="26.7" height="3.8" fill="#93c5fd" stroke="#60a5fa" stroke-width="0.5"/><rect x="912.3" y="359.7" width="26.7" height="4.3" fill="#93c5fd" stroke="#60a5fa" stroke-width="0.5"/><rect x="941.0" y="359.6" width="26.7" height="4.4" fill="#93c5fd" stroke="#60a5fa" stroke-width="0.5"/><rect x="969.7" y="359.4" width="26.7" height="4.6" fill="#93c5fd" stroke="#60a5fa" stroke-width="0.5"/><rect x="998.3" y="359.3" width="26.7" height="4.7" fill="#93c5fd" stroke="#60a5fa" stroke-width="0.5"/><rect x="1027.0" y="359.8" width="26.7" height="4.2" fill="#93c5fd" stroke="#60a5fa" stroke-width="0.5"/><rect x="1055.7" y="358.8" width="26.7" height="5.2" fill="#93c5fd" stroke="#60a5fa" stroke-width="0.5"/><rect x="1084.3" y="359.9" width="26.7" height="4.1" fill="#93c5fd" stroke="#60a5fa" stroke-width="0.5"/><rect x="1113.0" y="358.6" width="26.7" height="5.4" fill="#93c5fd" stroke="#60a5fa" stroke-width="0.5"/><rect x="1141.7" y="360.0" width="26.7" height="4.0" fill="#93c5fd" stroke="#60a5fa" stroke-width="0.5"/><rect x="1170.3" y="314.3" width="26.7" height="49.7" fill="#93c5fd" stroke="#60a5fa" stroke-width="0.5"/><polyline fill="none" stroke="#ef4444" stroke-width="2" points="94.3,364.0 123.0,170.3 151.7,168.3 180.3,166.2 209.0,164.1 237.7,162.7 266.3,160.7 295.0,158.5 323.7,157.6 352.3,155.7 381.0,153.6 409.7,151.5 438.3,149.7 467.0,147.8 495.7,146.0 524.3,143.8 553.0,140.8 581.7,138.2 610.3,135.5 639.0,132.8 667.7,129.9 696.3,127.2 725.0,124.6 753.7,121.9 782.3,119.4 811.0,116.4 839.7,113.2 868.3,110.6 897.0,108.2 925.7,105.5 954.3,102.7 983.0,99.9 1011.7,97.0 1040.3,94.4 1069.0,91.2 1097.7,88.6 1126.3,85.3 1155.0,82.9 1183.7,52.0"/><line x1="94.3" y1="364.0" x2="94.3" y2="370.0" stroke="#111827" stroke-width="1"/><text x="96.3" y="386.0" font-size="11" text-anchor="end" transform="rotate(-35 96.3 386.0)" font-family="sans-serif" fill="#374151">2026-02-17</text><line x1="237.7" y1="364.0" x2="237.7" y2="370.0" stroke="#111827" stroke-width="1"/><text x="239.7" y="386.0" font-size="11" text-anchor="end" transform="rotate(-35 239.7 386.0)" font-family="sans-serif" fill="#374151">2026-03-06</text><line x1="409.7" y1="364.0" x2="409.7" y2="370.0" stroke="#111827" stroke-width="1"/><text x="411.7" y="386.0" font-size="11" text-anchor="end" transform="rotate(-35 411.7 386.0)" font-family="sans-serif" fill="#374151">2026-03-12</text><line x1="553.0" y1="364.0" x2="553.0" y2="370.0" stroke="#111827" stroke-width="1"/><text x="555.0" y="386.0" font-size="11" text-anchor="end" transform="rotate(-35 555.0 386.0)" font-family="sans-serif" fill="#374151">2026-03-17</text><line x1="725.0" y1="364.0" x2="725.0" y2="370.0" stroke="#111827" stroke-width="1"/><text x="727.0" y="386.0" font-size="11" text-anchor="end" transform="rotate(-35 727.0 386.0)" font-family="sans-serif" fill="#374151">2026-03-23</text><line x1="868.3" y1="364.0" x2="868.3" y2="370.0" stroke="#111827" stroke-width="1"/><text x="870.3" y="386.0" font-size="11" text-anchor="end" transform="rotate(-35 870.3 386.0)" font-family="sans-serif" fill="#374151">2026-03-28</text><line x1="1040.3" y1="364.0" x2="1040.3" y2="370.0" stroke="#111827" stroke-width="1"/><text x="1042.3" y="386.0" font-size="11" text-anchor="end" transform="rotate(-35 1042.3 386.0)" font-family="sans-serif" fill="#374151">2026-04-03</text><line x1="1183.7" y1="364.0" x2="1183.7" y2="370.0" stroke="#111827" stroke-width="1"/><text x="1185.7" y="386.0" font-size="11" text-anchor="end" transform="rotate(-35 1185.7 386.0)" font-family="sans-serif" fill="#374151">2026-04-08</text><text x="26" y="208.0" font-size="12" transform="rotate(-90 26 208.0)" text-anchor="middle" font-family="sans-serif" fill="#1f2937">구간별 수</text><text x="1256.0" y="208.0" font-size="12" transform="rotate(90 1256.0 208.0)" text-anchor="middle" font-family="sans-serif" fill="#1f2937">누적</text><text x="639.0" y="442.0" font-size="13" text-anchor="middle" font-family="sans-serif" fill="#111827">일</text></svg>