<svg xmlns="http://www.w3.org/2000/svg" width="1280" height="460" viewBox="0 0 1280 460"><rect x="0" y="0" width="100%" height="100%" fill="#ffffff"/><text x="640.0" y="28" font-size="20" text-anchor="middle" font-family="sans-serif" fill="#111827">이벤트 / 최근 반영 시점 / 일별</text><line x1="80.0" y1="52.0" x2="1198.0" y2="52.0" stroke="#e5e7eb" stroke-width="1"/><text x="72.0" y="56.0" font-size="11" text-anchor="end" font-family="sans-serif" fill="#374151">215,860</text><text x="1206.0" y="56.0" font-size="11" text-anchor="start" font-family="sans-serif" fill="#374151">390,446</text><line x1="80.0" y1="114.4" x2="1198.0" y2="114.4" stroke="#e5e7eb" stroke-width="1"/><text x="72.0" y="118.4" font-size="11" text-anchor="end" font-family="sans-serif" fill="#374151">172,688</text><text x="1206.0" y="118.4" font-size="11" text-anchor="start" font-family="sans-serif" fill="#374151">312,357</text><line x1="80.0" y1="176.8" x2="1198.0" y2="176.8" stroke="#e5e7eb" stroke-width="1"/><text x="72.0" y="180.8" font-size="11" text-anchor="end" font-family="sans-serif" fill="#374151">129,516</text><text x="1206.0" y="180.8" font-size="11" text-anchor="start" font-family="sans-serif" fill="#374151">234,268</text><line x1="80.0" y1="239.2" x2="1198.0" y2="239.2" stroke="#e5e7eb" stroke-width="1"/><text x="72.0" y="243.2" font-size="11" text-anchor="end" font-family="sans-serif" fill="#374151">86,344</text><text x="1206.0" y="243.2" font-size="11" text-anchor="start" font-family="sans-serif" fill="#374151">156,178</text><line x1="80.0" y1="301.6" x2="1198.0" y2="301.6" stroke="#e5e7eb" stroke-width="1"/><text x="72.0" y="305.6" font-size="11" text-anchor="end" font-family="sans-serif" fill="#374151">43,172</text><text x="1206.0" y="305.6" font-size="11" text-anchor="start" font-family="sans-serif" fill="#374151">78,089</text><line x1="80.0" y1="364.0" x2="1198.0" y2="364.0" stroke="#e5e7eb" stroke-width="1"/><text x="72.0" y="368.0" font-size="11" text-anchor="end" font-family="sans-serif" fill="#374151">0</text><text x="1206.0" y="368.0" font-size="11" text-anchor="start" font-family="sans-serif" fill="#374151">0</text><line x1="80.0" y1="364.0" x2="1198.0" y2="364.0" stroke="#111827" stroke-width="1.2"/><line x1="80.0" y1="52.0" x2="80.0" y2="364.0" stroke="#111827" stroke-width="1.2"/><line x1="1198.0" y1="52.0" x2="1198.0" y2="364.0" stroke="#111827" stroke-width="1.2"/><rect x="81.0" y="364.0" width="19.5" height="0.0" fill="#93c5fd" stroke="#60a5fa" stroke-width="0.5"/><rect x="102.5" y="52.0" width="19.5" height="312.0" fill="#93c5fd" stroke="#60a5fa" stroke-width="0.5"/><rect x="124.0" y="360.8" width="19.5" height="3.2" fill="#93c5fd" stroke="#60a5fa" stroke-width="0.5"/><rect x="145.5" y="360.6" width="19.5" height="3.4" fill="#93c5fd" stroke="#60a5fa" stroke-width="0.5"/><rect x="167.0" y="360.6" width="19.5" height="3.4" fill="#93c5fd" stroke="#60a5fa" stroke-width="0.5"/><rect x="188.5" y="361.8" width="19.5" height="2.2" fill="#93c5fd" stroke="#60a5fa" stroke-width="0.5"/><rect x="210.0" y="360.7" width="19.5" height="3.3" fill="#93c5fd" stroke="#60a5fa" stroke-width="0.5"/><rect x="231.5" y="360.6" width="19.5" height="3.4" fill="#93c5fd" stroke="#60a5fa" stroke-width="0.5"/><rect x="253.0" y="362.5" width="19.5" height="1.5" fill="#93c5fd" stroke="#60a5fa" stroke-width="0.5"/><rect x="274.5" y="360.9" width="19.5" height="3.1" fill="#93c5fd" stroke="#60a5fa" stroke-width="0.5"/><rect x="296.0" y="360.6" width="19.5" height="3.4" fill="#93c5fd" stroke="#60a5fa" stroke-width="0.5"/><rect x="317.5" y="360.7" width="19.5" height="3.3" fill="#93c5fd" stroke="#60a5fa" stroke-width="0.5"/><rect x="339.0" y="361.1" width="19.5" height="2.9" fill="#93c5fd" stroke="#60a5fa" stroke-width="0.5"/><rect x="360.5" y="360.9" width="19.5" height="3.1" fill="#93c5fd" stroke="#60a5fa" stroke-width="0.5"/><rect x="382.0" y="361.0" width="19.5" height="3.0" fill="#93c5fd" stroke="#60a5fa" stroke-width="0.5"/><rect x="403.5" y="360.5" width="19.5" height="3.5" fill="#93c5fd" stroke="#60a5fa" stroke-width="0.5"/><rect x="425.0" y="359.2" width="19.5" height="4.8" fill="#93c5fd" stroke="#60a5fa" stroke-width="0.5"/><rect x="446.5" y="359.8" width="19.5" height="4.2" fill="#93c5fd" stroke="#60a5fa" stroke-width="0.5"/><rect x="468.0" y="359.6" width="19.5" height="4.4" fill="#93c5fd" stroke="#60a5fa" stroke-width="0.5"/><rect x="489.5" y="359.6" width="19.5" height="4.4" fill="#93c5fd" stroke="#60a5fa" stroke-width="0.5"/><rect x="511.0" y="359.4" width="19.5" height="4.6" fill="#93c5fd" stroke="#60a5fa" stroke-width="0.5"/><rect x="532.5" y="359.6" width="19.5" height="4.4" fill="#93c5fd" stroke="#60a5fa" stroke-width="0.5"/><rect x="554.0" y="359.8" width="19.5" height="4.2" fill="#93c5fd" stroke="#60a5fa" stroke-width="0.5"/><rect x="575.5" y="359.6" width="19.5" height="4.4" fill="#93c5fd" stroke="#60a5fa" stroke-width="0.5"/><rect x="597.0" y="359.9" width="19.5" height="4.1" fill="#93c5fd" stroke="#60a5fa" stroke-width="0.5"/><rect x="618.5" y="359.2" width="19.5" height="4.8" fill="#93c5fd" stroke="#60a5fa" stroke-width="0.5"/><rect x="640.0" y="358.9" width="19.5" height="5.1" fill="#93c5fd" stroke="#60a5fa" stroke-width="0.5"/><rect x="661.5" y="359.7" width="19.5" height="4.3" fill="#93c5fd" stroke="#60a5fa" stroke-width="0.5"/><rect x="683.0" y="360.2" width="19.5" height="3.8" fill="#93c5fd" stroke="#60a5fa" stroke-width="0.5"/><rect x="704.5" y="359.7" width="19.5" height="4.3" fill="#93c5fd" stroke="#60a5fa" stroke-width="0.5"/><rect x="726.0" y="359.6" width="19.5" height="4.4" fill="#93c5fd" stroke="#60a5fa" stroke-width="0.5"/><rect x="747.5" y="359.4" width="19.5" height="4.6" fill="#93c5fd" stroke="#60a5fa" stroke-width="0.5"/><rect x="769.0" y="359.4" width="19.5" height="4.6" fill="#93c5fd" stroke="#60a5fa" stroke-width="0.5"/><rect x="790.5" y="359.8" width="19.5" height="4.2" fill="#93c5fd" stroke="#60a5fa" stroke-width="0.5"/><rect x="812.0" y="358.8" width="19.5" height="5.2" fill="#93c5fd" stroke="#60a5fa" stroke-width="0.5"/><rect x="833.5" y="360.0" width="19.5" height="4.0" fill="#93c5fd" stroke="#60a5fa" stroke-width="0.5"/><rect x="855.0" y="358.7" width="19.5" height="5.3" fill="#93c5fd" stroke="#60a5fa" stroke-width="0.5"/><rect x="876.5" y="360.1" width="19.5" height="3.9" fill="#93c5fd" stroke="#60a5fa" stroke-width="0.5"/><rect x="898.0" y="359.5" width="19.5" height="4.5" fill="#93c5fd" stroke="#60a5fa" stroke-width="0.5"/><rect x="919.5" y="359.6" width="19.5" height="4.4" fill="#93c5fd" stroke="#60a5fa" stroke-width="0.5"/><rect x="941.0" y="359.5" width="19.5" height="4.5" fill="#93c5fd" stroke="#60a5fa" stroke-width="0.5"/><rect x="962.5" y="359.7" width="19.5" height="4.3" fill="#93c5fd" stroke="#60a5fa" stroke-width="0.5"/><rect x="984.0" y="359.1" width="19.5" height="4.9" fill="#93c5fd" stroke="#60a5fa" stroke-width="0.5"/><rect x="1005.5" y="359.8" width="19.5" height="4.2" fill="#93c5fd" stroke="#60a5fa" stroke-width="0.5"/><rect x="1027.0" y="359.8" width="19.5" height="4.2" fill="#93c5fd" stroke="#60a5fa" stroke-width="0.5"/><rect x="1048.5" y="359.4" width="19.5" height="4.6" fill="#93c5fd" stroke="#60a5fa" stroke-width="0.5"/><rect x="1070.0" y="359.0" width="19.5" height="5.0" fill="#93c5fd" stroke="#60a5fa" stroke-width="0.5"/><rect x="1091.5" y="359.2" width="19.5" height="4.8" fill="#93c5fd" stroke="#60a5fa" stroke-width="0.5"/><rect x="1113.0" y="359.8" width="19.5" height="4.2" fill="#93c5fd" stroke="#60a5fa" stroke-width="0.5"/><rect x="1134.5" y="359.1" width="19.5" height="4.9" fill="#93c5fd" stroke="#60a5fa" stroke-width="0.5"/><rect x="1156.0" y="359.3" width="19.5" height="4.7" fill="#93c5fd" stroke="#60a5fa" stroke-width="0.5"/><rect x="1177.5" y="311.8" width="19.5" height="52.2" fill="#93c5fd" stroke="#60a5fa" stroke-width="0.5"/><polyline fill="none" stroke="#ef4444" stroke-width="2" points="90.8,364.0 112.2,191.5 133.8,189.7 155.2,187.8 176.8,185.9 198.2,184.7 219.8,182.9 241.2,181.0 262.8,180.2 284.2,178.5 305.8,176.6 327.2,174.8 348.8,173.2 370.2,171.5 391.8,169.8 413.2,167.9 434.8,165.2 456.2,162.9 477.8,160.5 499.2,158.1 520.8,155.6 542.2,153.1 563.8,150.8 585.2,148.4 606.8,146.1 628.2,143.5 649.8,140.7 671.2,138.3 692.8,136.2 714.2,133.8 735.8,131.3 757.2,128.8 778.8,126.2 800.2,123.9 821.8,121.0 843.2,118.8 864.8,115.8 886.2,113.7 907.8,111.2 929.2,108.8 950.8,106.3 972.2,103.9 993.8,101.2 1015.2,98.8 1036.8,96.5 1058.2,93.9 1079.8,91.2 1101.2,88.5 1122.8,86.2 1144.2,83.5 1165.8,80.8 1187.2,52.0"/><line x1="90.8" y1="364.0" x2="90.8" y2="370.0" stroke="#111827" stroke-width="1"/><text x="92.8" y="386.0" font-size="11" text-anchor="end" transform="rotate(-35 92.8 386.0)" font-family="sans-serif" fill="#374151">2026-02-17</text><line x1="241.2" y1="364.0" x2="241.2" y2="370.0" stroke="#111827" stroke-width="1"/><text x="243.2" y="386.0" font-size="11" text-anchor="end" transform="rotate(-35 243.2 386.0)" font-family="sans-serif" fill="#374151">2026-03-08</text><line x1="413.2" y1="364.0" x2="413.2" y2="370.0" stroke="#111827" stroke-width="1"/><text x="415.2" y="386.0" font-size="11" text-anchor="end" transform="rotate(-35 415.2 386.0)" font-family="sans-serif" fill="#374151">2026-03-16</text><line x1="563.8" y1="364.0" x2="563.8" y2="370.0" stroke="#111827" stroke-width="1"/><text x="565.8" y="386.0" font-size="11" text-anchor="end" transform="rotate(-35 565.8 386.0)" font-family="sans-serif" fill="#374151">2026-03-23</text><line x1="714.2" y1="364.0" x2="714.2" y2="370.0" stroke="#111827" stroke-width="1"/><text x="716.2" y="386.0" font-size="11" text-anchor="end" transform="rotate(-35 716.2 386.0)" font-family="sans-serif" fill="#374151">2026-03-30</text><line x1="864.8" y1="364.0" x2="864.8" y2="370.0" stroke="#111827" stroke-width="1"/><text x="866.8" y="386.0" font-size="11" text-anchor="end" transform="rotate(-35 866.8 386.0)" font-family="sans-serif" fill="#374151">2026-04-06</text><line x1="1036.8" y1="364.0" x2="1036.8" y2="370.0" stroke="#111827" stroke-width="1"/><text x="1038.8" y="386.0" font-size="11" text-anchor="end" transform="rotate(-35 1038.8 386.0)" font-family="sans-serif" fill="#374151">2026-04-14</text><line x1="1187.2" y1="364.0" x2="1187.2" y2="370.0" stroke="#111827" stroke-width="1"/><text x="1189.2" y="386.0" font-size="11" text-anchor="end" transform="rotate(-35 1189.2 386.0)" font-family="sans-serif" fill="#374151">2026-04-21</text><text x="26" y="208.0" font-size="12" transform="rotate(-90 26 208.0)" text-anchor="middle" font-family="sans-serif" fill="#1f2937">구간별 수</text><text x="1256.0" y="208.0" font-size="12" transform="rotate(90 1256.0 208.0)" text-anchor="middle" font-family="sans-serif" fill="#1f2937">누적</text><text x="639.0" y="442.0" font-size="13" text-anchor="middle" font-family="sans-serif" fill="#111827">일</text></svg>