<svg xmlns="http://www.w3.org/2000/svg" width="1280" height="460" viewBox="0 0 1280 460"><rect x="0" y="0" width="100%" height="100%" fill="#ffffff"/><text x="640.0" y="28" font-size="20" text-anchor="middle" font-family="sans-serif" fill="#111827">이벤트 / 최근 반영 시점 / 일별</text><line x1="80.0" y1="52.0" x2="1198.0" y2="52.0" stroke="#e5e7eb" stroke-width="1"/><text x="72.0" y="56.0" font-size="11" text-anchor="end" font-family="sans-serif" fill="#374151">215,897</text><text x="1206.0" y="56.0" font-size="11" text-anchor="start" font-family="sans-serif" fill="#374151">366,686</text><line x1="80.0" y1="114.4" x2="1198.0" y2="114.4" stroke="#e5e7eb" stroke-width="1"/><text x="72.0" y="118.4" font-size="11" text-anchor="end" font-family="sans-serif" fill="#374151">172,718</text><text x="1206.0" y="118.4" font-size="11" text-anchor="start" font-family="sans-serif" fill="#374151">293,349</text><line x1="80.0" y1="176.8" x2="1198.0" y2="176.8" stroke="#e5e7eb" stroke-width="1"/><text x="72.0" y="180.8" font-size="11" text-anchor="end" font-family="sans-serif" fill="#374151">129,538</text><text x="1206.0" y="180.8" font-size="11" text-anchor="start" font-family="sans-serif" fill="#374151">220,012</text><line x1="80.0" y1="239.2" x2="1198.0" y2="239.2" stroke="#e5e7eb" stroke-width="1"/><text x="72.0" y="243.2" font-size="11" text-anchor="end" font-family="sans-serif" fill="#374151">86,359</text><text x="1206.0" y="243.2" font-size="11" text-anchor="start" font-family="sans-serif" fill="#374151">146,674</text><line x1="80.0" y1="301.6" x2="1198.0" y2="301.6" stroke="#e5e7eb" stroke-width="1"/><text x="72.0" y="305.6" font-size="11" text-anchor="end" font-family="sans-serif" fill="#374151">43,179</text><text x="1206.0" y="305.6" font-size="11" text-anchor="start" font-family="sans-serif" fill="#374151">73,337</text><line x1="80.0" y1="364.0" x2="1198.0" y2="364.0" stroke="#e5e7eb" stroke-width="1"/><text x="72.0" y="368.0" font-size="11" text-anchor="end" font-family="sans-serif" fill="#374151">0</text><text x="1206.0" y="368.0" font-size="11" text-anchor="start" font-family="sans-serif" fill="#374151">0</text><line x1="80.0" y1="364.0" x2="1198.0" y2="364.0" stroke="#111827" stroke-width="1.2"/><line x1="80.0" y1="52.0" x2="80.0" y2="364.0" stroke="#111827" stroke-width="1.2"/><line x1="1198.0" y1="52.0" x2="1198.0" y2="364.0" stroke="#111827" stroke-width="1.2"/><rect x="81.0" y="364.0" width="22.8" height="0.0" fill="#93c5fd" stroke="#60a5fa" stroke-width="0.5"/><rect x="105.8" y="52.0" width="22.8" height="312.0" fill="#93c5fd" stroke="#60a5fa" stroke-width="0.5"/><rect x="130.7" y="360.8" width="22.8" height="3.2" fill="#93c5fd" stroke="#60a5fa" stroke-width="0.5"/><rect x="155.5" y="360.6" width="22.8" height="3.4" fill="#93c5fd" stroke="#60a5fa" stroke-width="0.5"/><rect x="180.4" y="360.6" width="22.8" height="3.4" fill="#93c5fd" stroke="#60a5fa" stroke-width="0.5"/><rect x="205.2" y="361.8" width="22.8" height="2.2" fill="#93c5fd" stroke="#60a5fa" stroke-width="0.5"/><rect x="230.1" y="360.7" width="22.8" height="3.3" fill="#93c5fd" stroke="#60a5fa" stroke-width="0.5"/><rect x="254.9" y="360.6" width="22.8" height="3.4" fill="#93c5fd" stroke="#60a5fa" stroke-width="0.5"/><rect x="279.8" y="362.5" width="22.8" height="1.5" fill="#93c5fd" stroke="#60a5fa" stroke-width="0.5"/><rect x="304.6" y="360.9" width="22.8" height="3.1" fill="#93c5fd" stroke="#60a5fa" stroke-width="0.5"/><rect x="329.4" y="360.6" width="22.8" height="3.4" fill="#93c5fd" stroke="#60a5fa" stroke-width="0.5"/><rect x="354.3" y="360.7" width="22.8" height="3.3" fill="#93c5fd" stroke="#60a5fa" stroke-width="0.5"/><rect x="379.1" y="361.1" width="22.8" height="2.9" fill="#93c5fd" stroke="#60a5fa" stroke-width="0.5"/><rect x="404.0" y="360.9" width="22.8" height="3.1" fill="#93c5fd" stroke="#60a5fa" stroke-width="0.5"/><rect x="428.8" y="361.0" width="22.8" height="3.0" fill="#93c5fd" stroke="#60a5fa" stroke-width="0.5"/><rect x="453.7" y="360.5" width="22.8" height="3.5" fill="#93c5fd" stroke="#60a5fa" stroke-width="0.5"/><rect x="478.5" y="359.2" width="22.8" height="4.8" fill="#93c5fd" stroke="#60a5fa" stroke-width="0.5"/><rect x="503.4" y="359.8" width="22.8" height="4.2" fill="#93c5fd" stroke="#60a5fa" stroke-width="0.5"/><rect x="528.2" y="359.7" width="22.8" height="4.3" fill="#93c5fd" stroke="#60a5fa" stroke-width="0.5"/><rect x="553.0" y="359.6" width="22.8" height="4.4" fill="#93c5fd" stroke="#60a5fa" stroke-width="0.5"/><rect x="577.9" y="359.4" width="22.8" height="4.6" fill="#93c5fd" stroke="#60a5fa" stroke-width="0.5"/><rect x="602.7" y="359.6" width="22.8" height="4.4" fill="#93c5fd" stroke="#60a5fa" stroke-width="0.5"/><rect x="627.6" y="359.8" width="22.8" height="4.2" fill="#93c5fd" stroke="#60a5fa" stroke-width="0.5"/><rect x="652.4" y="359.6" width="22.8" height="4.4" fill="#93c5fd" stroke="#60a5fa" stroke-width="0.5"/><rect x="677.3" y="359.9" width="22.8" height="4.1" fill="#93c5fd" stroke="#60a5fa" stroke-width="0.5"/><rect x="702.1" y="359.2" width="22.8" height="4.8" fill="#93c5fd" stroke="#60a5fa" stroke-width="0.5"/><rect x="727.0" y="358.9" width="22.8" height="5.1" fill="#93c5fd" stroke="#60a5fa" stroke-width="0.5"/><rect x="751.8" y="359.7" width="22.8" height="4.3" fill="#93c5fd" stroke="#60a5fa" stroke-width="0.5"/><rect x="776.6" y="360.2" width="22.8" height="3.8" fill="#93c5fd" stroke="#60a5fa" stroke-width="0.5"/><rect x="801.5" y="359.7" width="22.8" height="4.3" fill="#93c5fd" stroke="#60a5fa" stroke-width="0.5"/><rect x="826.3" y="359.6" width="22.8" height="4.4" fill="#93c5fd" stroke="#60a5fa" stroke-width="0.5"/><rect x="851.2" y="359.4" width="22.8" height="4.6" fill="#93c5fd" stroke="#60a5fa" stroke-width="0.5"/><rect x="876.0" y="359.3" width="22.8" height="4.7" fill="#93c5fd" stroke="#60a5fa" stroke-width="0.5"/><rect x="900.9" y="359.8" width="22.8" height="4.2" fill="#93c5fd" stroke="#60a5fa" stroke-width="0.5"/><rect x="925.7" y="358.8" width="22.8" height="5.2" fill="#93c5fd" stroke="#60a5fa" stroke-width="0.5"/><rect x="950.6" y="360.0" width="22.8" height="4.0" fill="#93c5fd" stroke="#60a5fa" stroke-width="0.5"/><rect x="975.4" y="358.7" width="22.8" height="5.3" fill="#93c5fd" stroke="#60a5fa" stroke-width="0.5"/><rect x="1000.2" y="360.1" width="22.8" height="3.9" fill="#93c5fd" stroke="#60a5fa" stroke-width="0.5"/><rect x="1025.1" y="359.5" width="22.8" height="4.5" fill="#93c5fd" stroke="#60a5fa" stroke-width="0.5"/><rect x="1049.9" y="359.6" width="22.8" height="4.4" fill="#93c5fd" stroke="#60a5fa" stroke-width="0.5"/><rect x="1074.8" y="359.5" width="22.8" height="4.5" fill="#93c5fd" stroke="#60a5fa" stroke-width="0.5"/><rect x="1099.6" y="359.6" width="22.8" height="4.4" fill="#93c5fd" stroke="#60a5fa" stroke-width="0.5"/><rect x="1124.5" y="359.0" width="22.8" height="5.0" fill="#93c5fd" stroke="#60a5fa" stroke-width="0.5"/><rect x="1149.3" y="359.6" width="22.8" height="4.4" fill="#93c5fd" stroke="#60a5fa" stroke-width="0.5"/><rect x="1174.2" y="314.0" width="22.8" height="50.0" fill="#93c5fd" stroke="#60a5fa" stroke-width="0.5"/><polyline fill="none" stroke="#ef4444" stroke-width="2" points="92.4,364.0 117.3,180.3 142.1,178.4 167.0,176.4 191.8,174.4 216.6,173.1 241.5,171.2 266.3,169.1 291.2,168.2 316.0,166.4 340.9,164.4 365.7,162.5 390.6,160.8 415.4,159.0 440.2,157.2 465.1,155.1 489.9,152.3 514.8,149.9 539.6,147.3 564.5,144.7 589.3,142.0 614.2,139.4 639.0,136.9 663.8,134.3 688.7,132.0 713.5,129.1 738.4,126.2 763.2,123.6 788.1,121.3 812.9,118.8 837.8,116.2 862.6,113.5 887.4,110.8 912.3,108.3 937.1,105.2 962.0,102.8 986.8,99.7 1011.7,97.4 1036.5,94.8 1061.4,92.2 1086.2,89.5 1111.0,87.0 1135.9,84.0 1160.7,81.5 1185.6,52.0"/><line x1="92.4" y1="364.0" x2="92.4" y2="370.0" stroke="#111827" stroke-width="1"/><text x="94.4" y="386.0" font-size="11" text-anchor="end" transform="rotate(-35 94.4 386.0)" font-family="sans-serif" fill="#374151">2026-02-17</text><line x1="241.5" y1="364.0" x2="241.5" y2="370.0" stroke="#111827" stroke-width="1"/><text x="243.5" y="386.0" font-size="11" text-anchor="end" transform="rotate(-35 243.5 386.0)" font-family="sans-serif" fill="#374151">2026-03-07</text><line x1="415.4" y1="364.0" x2="415.4" y2="370.0" stroke="#111827" stroke-width="1"/><text x="417.4" y="386.0" font-size="11" text-anchor="end" transform="rotate(-35 417.4 386.0)" font-family="sans-serif" fill="#374151">2026-03-14</text><line x1="564.5" y1="364.0" x2="564.5" y2="370.0" stroke="#111827" stroke-width="1"/><text x="566.5" y="386.0" font-size="11" text-anchor="end" transform="rotate(-35 566.5 386.0)" font-family="sans-serif" fill="#374151">2026-03-20</text><line x1="713.5" y1="364.0" x2="713.5" y2="370.0" stroke="#111827" stroke-width="1"/><text x="715.5" y="386.0" font-size="11" text-anchor="end" transform="rotate(-35 715.5 386.0)" font-family="sans-serif" fill="#374151">2026-03-26</text><line x1="862.6" y1="364.0" x2="862.6" y2="370.0" stroke="#111827" stroke-width="1"/><text x="864.6" y="386.0" font-size="11" text-anchor="end" transform="rotate(-35 864.6 386.0)" font-family="sans-serif" fill="#374151">2026-04-01</text><line x1="1036.5" y1="364.0" x2="1036.5" y2="370.0" stroke="#111827" stroke-width="1"/><text x="1038.5" y="386.0" font-size="11" text-anchor="end" transform="rotate(-35 1038.5 386.0)" font-family="sans-serif" fill="#374151">2026-04-08</text><line x1="1185.6" y1="364.0" x2="1185.6" y2="370.0" stroke="#111827" stroke-width="1"/><text x="1187.6" y="386.0" font-size="11" text-anchor="end" transform="rotate(-35 1187.6 386.0)" font-family="sans-serif" fill="#374151">2026-04-14</text><text x="26" y="208.0" font-size="12" transform="rotate(-90 26 208.0)" text-anchor="middle" font-family="sans-serif" fill="#1f2937">구간별 수</text><text x="1256.0" y="208.0" font-size="12" transform="rotate(90 1256.0 208.0)" text-anchor="middle" font-family="sans-serif" fill="#1f2937">누적</text><text x="639.0" y="442.0" font-size="13" text-anchor="middle" font-family="sans-serif" fill="#111827">일</text></svg>