<svg xmlns="http://www.w3.org/2000/svg" width="1280" height="460" viewBox="0 0 1280 460"><rect x="0" y="0" width="100%" height="100%" fill="#ffffff"/><text x="640.0" y="28" font-size="20" text-anchor="middle" font-family="sans-serif" fill="#111827">이벤트 / 최근 반영 시점 / 일별</text><line x1="80.0" y1="52.0" x2="1198.0" y2="52.0" stroke="#e5e7eb" stroke-width="1"/><text x="72.0" y="56.0" font-size="11" text-anchor="end" font-family="sans-serif" fill="#374151">215,834</text><text x="1206.0" y="56.0" font-size="11" text-anchor="start" font-family="sans-serif" fill="#374151">408,763</text><line x1="80.0" y1="114.4" x2="1198.0" y2="114.4" stroke="#e5e7eb" stroke-width="1"/><text x="72.0" y="118.4" font-size="11" text-anchor="end" font-family="sans-serif" fill="#374151">172,667</text><text x="1206.0" y="118.4" font-size="11" text-anchor="start" font-family="sans-serif" fill="#374151">327,010</text><line x1="80.0" y1="176.8" x2="1198.0" y2="176.8" stroke="#e5e7eb" stroke-width="1"/><text x="72.0" y="180.8" font-size="11" text-anchor="end" font-family="sans-serif" fill="#374151">129,500</text><text x="1206.0" y="180.8" font-size="11" text-anchor="start" font-family="sans-serif" fill="#374151">245,258</text><line x1="80.0" y1="239.2" x2="1198.0" y2="239.2" stroke="#e5e7eb" stroke-width="1"/><text x="72.0" y="243.2" font-size="11" text-anchor="end" font-family="sans-serif" fill="#374151">86,334</text><text x="1206.0" y="243.2" font-size="11" text-anchor="start" font-family="sans-serif" fill="#374151">163,505</text><line x1="80.0" y1="301.6" x2="1198.0" y2="301.6" stroke="#e5e7eb" stroke-width="1"/><text x="72.0" y="305.6" font-size="11" text-anchor="end" font-family="sans-serif" fill="#374151">43,167</text><text x="1206.0" y="305.6" font-size="11" text-anchor="start" font-family="sans-serif" fill="#374151">81,753</text><line x1="80.0" y1="364.0" x2="1198.0" y2="364.0" stroke="#e5e7eb" stroke-width="1"/><text x="72.0" y="368.0" font-size="11" text-anchor="end" font-family="sans-serif" fill="#374151">0</text><text x="1206.0" y="368.0" font-size="11" text-anchor="start" font-family="sans-serif" fill="#374151">0</text><line x1="80.0" y1="364.0" x2="1198.0" y2="364.0" stroke="#111827" stroke-width="1.2"/><line x1="80.0" y1="52.0" x2="80.0" y2="364.0" stroke="#111827" stroke-width="1.2"/><line x1="1198.0" y1="52.0" x2="1198.0" y2="364.0" stroke="#111827" stroke-width="1.2"/><rect x="81.0" y="364.0" width="17.6" height="0.0" fill="#93c5fd" stroke="#60a5fa" stroke-width="0.5"/><rect x="100.6" y="52.0" width="17.6" height="312.0" fill="#93c5fd" stroke="#60a5fa" stroke-width="0.5"/><rect x="120.2" y="360.8" width="17.6" height="3.2" fill="#93c5fd" stroke="#60a5fa" stroke-width="0.5"/><rect x="139.8" y="360.6" width="17.6" height="3.4" fill="#93c5fd" stroke="#60a5fa" stroke-width="0.5"/><rect x="159.5" y="360.6" width="17.6" height="3.4" fill="#93c5fd" stroke="#60a5fa" stroke-width="0.5"/><rect x="179.1" y="361.8" width="17.6" height="2.2" fill="#93c5fd" stroke="#60a5fa" stroke-width="0.5"/><rect x="198.7" y="360.7" width="17.6" height="3.3" fill="#93c5fd" stroke="#60a5fa" stroke-width="0.5"/><rect x="218.3" y="360.6" width="17.6" height="3.4" fill="#93c5fd" stroke="#60a5fa" stroke-width="0.5"/><rect x="237.9" y="362.5" width="17.6" height="1.5" fill="#93c5fd" stroke="#60a5fa" stroke-width="0.5"/><rect x="257.5" y="360.9" width="17.6" height="3.1" fill="#93c5fd" stroke="#60a5fa" stroke-width="0.5"/><rect x="277.1" y="360.6" width="17.6" height="3.4" fill="#93c5fd" stroke="#60a5fa" stroke-width="0.5"/><rect x="296.8" y="360.7" width="17.6" height="3.3" fill="#93c5fd" stroke="#60a5fa" stroke-width="0.5"/><rect x="316.4" y="361.1" width="17.6" height="2.9" fill="#93c5fd" stroke="#60a5fa" stroke-width="0.5"/><rect x="336.0" y="360.9" width="17.6" height="3.1" fill="#93c5fd" stroke="#60a5fa" stroke-width="0.5"/><rect x="355.6" y="361.0" width="17.6" height="3.0" fill="#93c5fd" stroke="#60a5fa" stroke-width="0.5"/><rect x="375.2" y="360.5" width="17.6" height="3.5" fill="#93c5fd" stroke="#60a5fa" stroke-width="0.5"/><rect x="394.8" y="359.2" width="17.6" height="4.8" fill="#93c5fd" stroke="#60a5fa" stroke-width="0.5"/><rect x="414.4" y="359.8" width="17.6" height="4.2" fill="#93c5fd" stroke="#60a5fa" stroke-width="0.5"/><rect x="434.1" y="359.6" width="17.6" height="4.4" fill="#93c5fd" stroke="#60a5fa" stroke-width="0.5"/><rect x="453.7" y="359.6" width="17.6" height="4.4" fill="#93c5fd" stroke="#60a5fa" stroke-width="0.5"/><rect x="473.3" y="359.4" width="17.6" height="4.6" fill="#93c5fd" stroke="#60a5fa" stroke-width="0.5"/><rect x="492.9" y="359.6" width="17.6" height="4.4" fill="#93c5fd" stroke="#60a5fa" stroke-width="0.5"/><rect x="512.5" y="359.8" width="17.6" height="4.2" fill="#93c5fd" stroke="#60a5fa" stroke-width="0.5"/><rect x="532.1" y="359.6" width="17.6" height="4.4" fill="#93c5fd" stroke="#60a5fa" stroke-width="0.5"/><rect x="551.7" y="359.9" width="17.6" height="4.1" fill="#93c5fd" stroke="#60a5fa" stroke-width="0.5"/><rect x="571.4" y="359.2" width="17.6" height="4.8" fill="#93c5fd" stroke="#60a5fa" stroke-width="0.5"/><rect x="591.0" y="358.9" width="17.6" height="5.1" fill="#93c5fd" stroke="#60a5fa" stroke-width="0.5"/><rect x="610.6" y="359.7" width="17.6" height="4.3" fill="#93c5fd" stroke="#60a5fa" stroke-width="0.5"/><rect x="630.2" y="360.2" width="17.6" height="3.8" fill="#93c5fd" stroke="#60a5fa" stroke-width="0.5"/><rect x="649.8" y="359.7" width="17.6" height="4.3" fill="#93c5fd" stroke="#60a5fa" stroke-width="0.5"/><rect x="669.4" y="359.6" width="17.6" height="4.4" fill="#93c5fd" stroke="#60a5fa" stroke-width="0.5"/><rect x="689.0" y="359.4" width="17.6" height="4.6" fill="#93c5fd" stroke="#60a5fa" stroke-width="0.5"/><rect x="708.6" y="359.4" width="17.6" height="4.6" fill="#93c5fd" stroke="#60a5fa" stroke-width="0.5"/><rect x="728.3" y="359.8" width="17.6" height="4.2" fill="#93c5fd" stroke="#60a5fa" stroke-width="0.5"/><rect x="747.9" y="358.8" width="17.6" height="5.2" fill="#93c5fd" stroke="#60a5fa" stroke-width="0.5"/><rect x="767.5" y="360.0" width="17.6" height="4.0" fill="#93c5fd" stroke="#60a5fa" stroke-width="0.5"/><rect x="787.1" y="358.7" width="17.6" height="5.3" fill="#93c5fd" stroke="#60a5fa" stroke-width="0.5"/><rect x="806.7" y="360.1" width="17.6" height="3.9" fill="#93c5fd" stroke="#60a5fa" stroke-width="0.5"/><rect x="826.3" y="359.5" width="17.6" height="4.5" fill="#93c5fd" stroke="#60a5fa" stroke-width="0.5"/><rect x="845.9" y="359.6" width="17.6" height="4.4" fill="#93c5fd" stroke="#60a5fa" stroke-width="0.5"/><rect x="865.6" y="359.5" width="17.6" height="4.5" fill="#93c5fd" stroke="#60a5fa" stroke-width="0.5"/><rect x="885.2" y="359.7" width="17.6" height="4.3" fill="#93c5fd" stroke="#60a5fa" stroke-width="0.5"/><rect x="904.8" y="359.1" width="17.6" height="4.9" fill="#93c5fd" stroke="#60a5fa" stroke-width="0.5"/><rect x="924.4" y="359.8" width="17.6" height="4.2" fill="#93c5fd" stroke="#60a5fa" stroke-width="0.5"/><rect x="944.0" y="359.8" width="17.6" height="4.2" fill="#93c5fd" stroke="#60a5fa" stroke-width="0.5"/><rect x="963.6" y="359.4" width="17.6" height="4.6" fill="#93c5fd" stroke="#60a5fa" stroke-width="0.5"/><rect x="983.2" y="359.0" width="17.6" height="5.0" fill="#93c5fd" stroke="#60a5fa" stroke-width="0.5"/><rect x="1002.9" y="359.2" width="17.6" height="4.8" fill="#93c5fd" stroke="#60a5fa" stroke-width="0.5"/><rect x="1022.5" y="359.8" width="17.6" height="4.2" fill="#93c5fd" stroke="#60a5fa" stroke-width="0.5"/><rect x="1042.1" y="359.1" width="17.6" height="4.9" fill="#93c5fd" stroke="#60a5fa" stroke-width="0.5"/><rect x="1061.7" y="359.7" width="17.6" height="4.3" fill="#93c5fd" stroke="#60a5fa" stroke-width="0.5"/><rect x="1081.3" y="359.6" width="17.6" height="4.4" fill="#93c5fd" stroke="#60a5fa" stroke-width="0.5"/><rect x="1100.9" y="359.1" width="17.6" height="4.9" fill="#93c5fd" stroke="#60a5fa" stroke-width="0.5"/><rect x="1120.5" y="359.2" width="17.6" height="4.8" fill="#93c5fd" stroke="#60a5fa" stroke-width="0.5"/><rect x="1140.2" y="359.4" width="17.6" height="4.6" fill="#93c5fd" stroke="#60a5fa" stroke-width="0.5"/><rect x="1159.8" y="359.3" width="17.6" height="4.7" fill="#93c5fd" stroke="#60a5fa" stroke-width="0.5"/><rect x="1179.4" y="308.2" width="17.6" height="55.8" fill="#93c5fd" stroke="#60a5fa" stroke-width="0.5"/><polyline fill="none" stroke="#ef4444" stroke-width="2" points="89.8,364.0 109.4,199.3 129.0,197.5 148.6,195.7 168.3,193.9 187.9,192.8 207.5,191.1 227.1,189.2 246.7,188.4 266.3,186.8 285.9,185.0 305.6,183.3 325.2,181.8 344.8,180.1 364.4,178.5 384.0,176.7 403.6,174.2 423.2,172.0 442.9,169.7 462.5,167.3 482.1,164.9 501.7,162.6 521.3,160.4 540.9,158.0 560.5,155.9 580.2,153.4 599.8,150.7 619.4,148.4 639.0,146.4 658.6,144.1 678.2,141.8 697.8,139.4 717.5,136.9 737.1,134.7 756.7,131.9 776.3,129.8 795.9,127.0 815.5,125.0 835.1,122.6 854.8,120.3 874.4,117.9 894.0,115.6 913.6,113.0 933.2,110.7 952.8,108.5 972.4,106.1 992.1,103.4 1011.7,100.9 1031.3,98.7 1050.9,96.1 1070.5,93.9 1090.1,91.5 1109.7,88.9 1129.4,86.4 1149.0,84.0 1168.6,81.5 1188.2,52.0"/><line x1="89.8" y1="364.0" x2="89.8" y2="370.0" stroke="#111827" stroke-width="1"/><text x="91.8" y="386.0" font-size="11" text-anchor="end" transform="rotate(-35 91.8 386.0)" font-family="sans-serif" fill="#374151">2026-02-17</text><line x1="246.7" y1="364.0" x2="246.7" y2="370.0" stroke="#111827" stroke-width="1"/><text x="248.7" y="386.0" font-size="11" text-anchor="end" transform="rotate(-35 248.7 386.0)" font-family="sans-serif" fill="#374151">2026-03-09</text><line x1="403.6" y1="364.0" x2="403.6" y2="370.0" stroke="#111827" stroke-width="1"/><text x="405.6" y="386.0" font-size="11" text-anchor="end" transform="rotate(-35 405.6 386.0)" font-family="sans-serif" fill="#374151">2026-03-17</text><line x1="560.5" y1="364.0" x2="560.5" y2="370.0" stroke="#111827" stroke-width="1"/><text x="562.5" y="386.0" font-size="11" text-anchor="end" transform="rotate(-35 562.5 386.0)" font-family="sans-serif" fill="#374151">2026-03-25</text><line x1="717.5" y1="364.0" x2="717.5" y2="370.0" stroke="#111827" stroke-width="1"/><text x="719.5" y="386.0" font-size="11" text-anchor="end" transform="rotate(-35 719.5 386.0)" font-family="sans-serif" fill="#374151">2026-04-02</text><line x1="874.4" y1="364.0" x2="874.4" y2="370.0" stroke="#111827" stroke-width="1"/><text x="876.4" y="386.0" font-size="11" text-anchor="end" transform="rotate(-35 876.4 386.0)" font-family="sans-serif" fill="#374151">2026-04-10</text><line x1="1031.3" y1="364.0" x2="1031.3" y2="370.0" stroke="#111827" stroke-width="1"/><text x="1033.3" y="386.0" font-size="11" text-anchor="end" transform="rotate(-35 1033.3 386.0)" font-family="sans-serif" fill="#374151">2026-04-18</text><line x1="1188.2" y1="364.0" x2="1188.2" y2="370.0" stroke="#111827" stroke-width="1"/><text x="1190.2" y="386.0" font-size="11" text-anchor="end" transform="rotate(-35 1190.2 386.0)" font-family="sans-serif" fill="#374151">2026-04-26</text><text x="26" y="208.0" font-size="12" transform="rotate(-90 26 208.0)" text-anchor="middle" font-family="sans-serif" fill="#1f2937">구간별 수</text><text x="1256.0" y="208.0" font-size="12" transform="rotate(90 1256.0 208.0)" text-anchor="middle" font-family="sans-serif" fill="#1f2937">누적</text><text x="639.0" y="442.0" font-size="13" text-anchor="middle" font-family="sans-serif" fill="#111827">일</text></svg>