<svg xmlns="http://www.w3.org/2000/svg" width="1280" height="460" viewBox="0 0 1280 460"><rect x="0" y="0" width="100%" height="100%" fill="#ffffff"/><text x="640.0" y="28" font-size="20" text-anchor="middle" font-family="sans-serif" fill="#111827">이벤트 / 최근 반영 시점 / 일별</text><line x1="80.0" y1="52.0" x2="1198.0" y2="52.0" stroke="#e5e7eb" stroke-width="1"/><text x="72.0" y="56.0" font-size="11" text-anchor="end" font-family="sans-serif" fill="#374151">215,871</text><text x="1206.0" y="56.0" font-size="11" text-anchor="start" font-family="sans-serif" fill="#374151">377,979</text><line x1="80.0" y1="114.4" x2="1198.0" y2="114.4" stroke="#e5e7eb" stroke-width="1"/><text x="72.0" y="118.4" font-size="11" text-anchor="end" font-family="sans-serif" fill="#374151">172,697</text><text x="1206.0" y="118.4" font-size="11" text-anchor="start" font-family="sans-serif" fill="#374151">302,383</text><line x1="80.0" y1="176.8" x2="1198.0" y2="176.8" stroke="#e5e7eb" stroke-width="1"/><text x="72.0" y="180.8" font-size="11" text-anchor="end" font-family="sans-serif" fill="#374151">129,523</text><text x="1206.0" y="180.8" font-size="11" text-anchor="start" font-family="sans-serif" fill="#374151">226,787</text><line x1="80.0" y1="239.2" x2="1198.0" y2="239.2" stroke="#e5e7eb" stroke-width="1"/><text x="72.0" y="243.2" font-size="11" text-anchor="end" font-family="sans-serif" fill="#374151">86,348</text><text x="1206.0" y="243.2" font-size="11" text-anchor="start" font-family="sans-serif" fill="#374151">151,192</text><line x1="80.0" y1="301.6" x2="1198.0" y2="301.6" stroke="#e5e7eb" stroke-width="1"/><text x="72.0" y="305.6" font-size="11" text-anchor="end" font-family="sans-serif" fill="#374151">43,174</text><text x="1206.0" y="305.6" font-size="11" text-anchor="start" font-family="sans-serif" fill="#374151">75,596</text><line x1="80.0" y1="364.0" x2="1198.0" y2="364.0" stroke="#e5e7eb" stroke-width="1"/><text x="72.0" y="368.0" font-size="11" text-anchor="end" font-family="sans-serif" fill="#374151">0</text><text x="1206.0" y="368.0" font-size="11" text-anchor="start" font-family="sans-serif" fill="#374151">0</text><line x1="80.0" y1="364.0" x2="1198.0" y2="364.0" stroke="#111827" stroke-width="1.2"/><line x1="80.0" y1="52.0" x2="80.0" y2="364.0" stroke="#111827" stroke-width="1.2"/><line x1="1198.0" y1="52.0" x2="1198.0" y2="364.0" stroke="#111827" stroke-width="1.2"/><rect x="81.0" y="364.0" width="21.3" height="0.0" fill="#93c5fd" stroke="#60a5fa" stroke-width="0.5"/><rect x="104.3" y="52.0" width="21.3" height="312.0" fill="#93c5fd" stroke="#60a5fa" stroke-width="0.5"/><rect x="127.6" y="360.8" width="21.3" height="3.2" fill="#93c5fd" stroke="#60a5fa" stroke-width="0.5"/><rect x="150.9" y="360.6" width="21.3" height="3.4" fill="#93c5fd" stroke="#60a5fa" stroke-width="0.5"/><rect x="174.2" y="360.6" width="21.3" height="3.4" fill="#93c5fd" stroke="#60a5fa" stroke-width="0.5"/><rect x="197.5" y="361.8" width="21.3" height="2.2" fill="#93c5fd" stroke="#60a5fa" stroke-width="0.5"/><rect x="220.8" y="360.7" width="21.3" height="3.3" fill="#93c5fd" stroke="#60a5fa" stroke-width="0.5"/><rect x="244.0" y="360.6" width="21.3" height="3.4" fill="#93c5fd" stroke="#60a5fa" stroke-width="0.5"/><rect x="267.3" y="362.5" width="21.3" height="1.5" fill="#93c5fd" stroke="#60a5fa" stroke-width="0.5"/><rect x="290.6" y="360.9" width="21.3" height="3.1" fill="#93c5fd" stroke="#60a5fa" stroke-width="0.5"/><rect x="313.9" y="360.6" width="21.3" height="3.4" fill="#93c5fd" stroke="#60a5fa" stroke-width="0.5"/><rect x="337.2" y="360.7" width="21.3" height="3.3" fill="#93c5fd" stroke="#60a5fa" stroke-width="0.5"/><rect x="360.5" y="361.1" width="21.3" height="2.9" fill="#93c5fd" stroke="#60a5fa" stroke-width="0.5"/><rect x="383.8" y="360.9" width="21.3" height="3.1" fill="#93c5fd" stroke="#60a5fa" stroke-width="0.5"/><rect x="407.1" y="361.0" width="21.3" height="3.0" fill="#93c5fd" stroke="#60a5fa" stroke-width="0.5"/><rect x="430.4" y="360.5" width="21.3" height="3.5" fill="#93c5fd" stroke="#60a5fa" stroke-width="0.5"/><rect x="453.7" y="359.2" width="21.3" height="4.8" fill="#93c5fd" stroke="#60a5fa" stroke-width="0.5"/><rect x="477.0" y="359.8" width="21.3" height="4.2" fill="#93c5fd" stroke="#60a5fa" stroke-width="0.5"/><rect x="500.2" y="359.6" width="21.3" height="4.4" fill="#93c5fd" stroke="#60a5fa" stroke-width="0.5"/><rect x="523.5" y="359.6" width="21.3" height="4.4" fill="#93c5fd" stroke="#60a5fa" stroke-width="0.5"/><rect x="546.8" y="359.4" width="21.3" height="4.6" fill="#93c5fd" stroke="#60a5fa" stroke-width="0.5"/><rect x="570.1" y="359.6" width="21.3" height="4.4" fill="#93c5fd" stroke="#60a5fa" stroke-width="0.5"/><rect x="593.4" y="359.8" width="21.3" height="4.2" fill="#93c5fd" stroke="#60a5fa" stroke-width="0.5"/><rect x="616.7" y="359.6" width="21.3" height="4.4" fill="#93c5fd" stroke="#60a5fa" stroke-width="0.5"/><rect x="640.0" y="359.9" width="21.3" height="4.1" fill="#93c5fd" stroke="#60a5fa" stroke-width="0.5"/><rect x="663.3" y="359.2" width="21.3" height="4.8" fill="#93c5fd" stroke="#60a5fa" stroke-width="0.5"/><rect x="686.6" y="358.9" width="21.3" height="5.1" fill="#93c5fd" stroke="#60a5fa" stroke-width="0.5"/><rect x="709.9" y="359.7" width="21.3" height="4.3" fill="#93c5fd" stroke="#60a5fa" stroke-width="0.5"/><rect x="733.2" y="360.2" width="21.3" height="3.8" fill="#93c5fd" stroke="#60a5fa" stroke-width="0.5"/><rect x="756.5" y="359.7" width="21.3" height="4.3" fill="#93c5fd" stroke="#60a5fa" stroke-width="0.5"/><rect x="779.8" y="359.6" width="21.3" height="4.4" fill="#93c5fd" stroke="#60a5fa" stroke-width="0.5"/><rect x="803.0" y="359.4" width="21.3" height="4.6" fill="#93c5fd" stroke="#60a5fa" stroke-width="0.5"/><rect x="826.3" y="359.4" width="21.3" height="4.6" fill="#93c5fd" stroke="#60a5fa" stroke-width="0.5"/><rect x="849.6" y="359.8" width="21.3" height="4.2" fill="#93c5fd" stroke="#60a5fa" stroke-width="0.5"/><rect x="872.9" y="358.8" width="21.3" height="5.2" fill="#93c5fd" stroke="#60a5fa" stroke-width="0.5"/><rect x="896.2" y="360.0" width="21.3" height="4.0" fill="#93c5fd" stroke="#60a5fa" stroke-width="0.5"/><rect x="919.5" y="358.7" width="21.3" height="5.3" fill="#93c5fd" stroke="#60a5fa" stroke-width="0.5"/><rect x="942.8" y="360.1" width="21.3" height="3.9" fill="#93c5fd" stroke="#60a5fa" stroke-width="0.5"/><rect x="966.1" y="359.5" width="21.3" height="4.5" fill="#93c5fd" stroke="#60a5fa" stroke-width="0.5"/><rect x="989.4" y="359.6" width="21.3" height="4.4" fill="#93c5fd" stroke="#60a5fa" stroke-width="0.5"/><rect x="1012.7" y="359.5" width="21.3" height="4.5" fill="#93c5fd" stroke="#60a5fa" stroke-width="0.5"/><rect x="1036.0" y="359.7" width="21.3" height="4.3" fill="#93c5fd" stroke="#60a5fa" stroke-width="0.5"/><rect x="1059.2" y="359.1" width="21.3" height="4.9" fill="#93c5fd" stroke="#60a5fa" stroke-width="0.5"/><rect x="1082.5" y="359.8" width="21.3" height="4.2" fill="#93c5fd" stroke="#60a5fa" stroke-width="0.5"/><rect x="1105.8" y="359.8" width="21.3" height="4.2" fill="#93c5fd" stroke="#60a5fa" stroke-width="0.5"/><rect x="1129.1" y="359.4" width="21.3" height="4.6" fill="#93c5fd" stroke="#60a5fa" stroke-width="0.5"/><rect x="1152.4" y="359.0" width="21.3" height="5.0" fill="#93c5fd" stroke="#60a5fa" stroke-width="0.5"/><rect x="1175.7" y="311.2" width="21.3" height="52.8" fill="#93c5fd" stroke="#60a5fa" stroke-width="0.5"/><polyline fill="none" stroke="#ef4444" stroke-width="2" points="91.6,364.0 114.9,185.8 138.2,184.0 161.5,182.0 184.8,180.1 208.1,178.8 231.4,176.9 254.7,175.0 278.0,174.1 301.3,172.4 324.6,170.4 347.9,168.5 371.1,166.9 394.4,165.1 417.7,163.4 441.0,161.4 464.3,158.7 487.6,156.3 510.9,153.8 534.2,151.3 557.5,148.7 580.8,146.1 604.1,143.7 627.4,141.2 650.6,138.9 673.9,136.2 697.2,133.3 720.5,130.8 743.8,128.6 767.1,126.1 790.4,123.6 813.7,121.0 837.0,118.4 860.3,116.0 883.6,113.0 906.9,110.7 930.1,107.6 953.4,105.4 976.7,102.9 1000.0,100.4 1023.3,97.8 1046.6,95.3 1069.9,92.5 1093.2,90.1 1116.5,87.6 1139.8,85.0 1163.1,82.1 1186.4,52.0"/><line x1="91.6" y1="364.0" x2="91.6" y2="370.0" stroke="#111827" stroke-width="1"/><text x="93.6" y="386.0" font-size="11" text-anchor="end" transform="rotate(-35 93.6 386.0)" font-family="sans-serif" fill="#374151">2026-02-17</text><line x1="254.7" y1="364.0" x2="254.7" y2="370.0" stroke="#111827" stroke-width="1"/><text x="256.7" y="386.0" font-size="11" text-anchor="end" transform="rotate(-35 256.7 386.0)" font-family="sans-serif" fill="#374151">2026-03-08</text><line x1="394.4" y1="364.0" x2="394.4" y2="370.0" stroke="#111827" stroke-width="1"/><text x="396.4" y="386.0" font-size="11" text-anchor="end" transform="rotate(-35 396.4 386.0)" font-family="sans-serif" fill="#374151">2026-03-14</text><line x1="557.5" y1="364.0" x2="557.5" y2="370.0" stroke="#111827" stroke-width="1"/><text x="559.5" y="386.0" font-size="11" text-anchor="end" transform="rotate(-35 559.5 386.0)" font-family="sans-serif" fill="#374151">2026-03-21</text><line x1="720.5" y1="364.0" x2="720.5" y2="370.0" stroke="#111827" stroke-width="1"/><text x="722.5" y="386.0" font-size="11" text-anchor="end" transform="rotate(-35 722.5 386.0)" font-family="sans-serif" fill="#374151">2026-03-28</text><line x1="883.6" y1="364.0" x2="883.6" y2="370.0" stroke="#111827" stroke-width="1"/><text x="885.6" y="386.0" font-size="11" text-anchor="end" transform="rotate(-35 885.6 386.0)" font-family="sans-serif" fill="#374151">2026-04-04</text><line x1="1023.3" y1="364.0" x2="1023.3" y2="370.0" stroke="#111827" stroke-width="1"/><text x="1025.3" y="386.0" font-size="11" text-anchor="end" transform="rotate(-35 1025.3 386.0)" font-family="sans-serif" fill="#374151">2026-04-10</text><line x1="1186.4" y1="364.0" x2="1186.4" y2="370.0" stroke="#111827" stroke-width="1"/><text x="1188.4" y="386.0" font-size="11" text-anchor="end" transform="rotate(-35 1188.4 386.0)" font-family="sans-serif" fill="#374151">2026-04-17</text><text x="26" y="208.0" font-size="12" transform="rotate(-90 26 208.0)" text-anchor="middle" font-family="sans-serif" fill="#1f2937">구간별 수</text><text x="1256.0" y="208.0" font-size="12" transform="rotate(90 1256.0 208.0)" text-anchor="middle" font-family="sans-serif" fill="#1f2937">누적</text><text x="639.0" y="442.0" font-size="13" text-anchor="middle" font-family="sans-serif" fill="#111827">일</text></svg>