<svg xmlns="http://www.w3.org/2000/svg" width="1280" height="460" viewBox="0 0 1280 460"><rect x="0" y="0" width="100%" height="100%" fill="#ffffff"/><text x="640.0" y="28" font-size="20" text-anchor="middle" font-family="sans-serif" fill="#111827">이벤트 / 최근 반영 시점 / 일별</text><line x1="80.0" y1="52.0" x2="1198.0" y2="52.0" stroke="#e5e7eb" stroke-width="1"/><text x="72.0" y="56.0" font-size="11" text-anchor="end" font-family="sans-serif" fill="#374151">215,888</text><text x="1206.0" y="56.0" font-size="11" text-anchor="start" font-family="sans-serif" fill="#374151">368,498</text><line x1="80.0" y1="114.4" x2="1198.0" y2="114.4" stroke="#e5e7eb" stroke-width="1"/><text x="72.0" y="118.4" font-size="11" text-anchor="end" font-family="sans-serif" fill="#374151">172,710</text><text x="1206.0" y="118.4" font-size="11" text-anchor="start" font-family="sans-serif" fill="#374151">294,798</text><line x1="80.0" y1="176.8" x2="1198.0" y2="176.8" stroke="#e5e7eb" stroke-width="1"/><text x="72.0" y="180.8" font-size="11" text-anchor="end" font-family="sans-serif" fill="#374151">129,533</text><text x="1206.0" y="180.8" font-size="11" text-anchor="start" font-family="sans-serif" fill="#374151">221,099</text><line x1="80.0" y1="239.2" x2="1198.0" y2="239.2" stroke="#e5e7eb" stroke-width="1"/><text x="72.0" y="243.2" font-size="11" text-anchor="end" font-family="sans-serif" fill="#374151">86,355</text><text x="1206.0" y="243.2" font-size="11" text-anchor="start" font-family="sans-serif" fill="#374151">147,399</text><line x1="80.0" y1="301.6" x2="1198.0" y2="301.6" stroke="#e5e7eb" stroke-width="1"/><text x="72.0" y="305.6" font-size="11" text-anchor="end" font-family="sans-serif" fill="#374151">43,178</text><text x="1206.0" y="305.6" font-size="11" text-anchor="start" font-family="sans-serif" fill="#374151">73,700</text><line x1="80.0" y1="364.0" x2="1198.0" y2="364.0" stroke="#e5e7eb" stroke-width="1"/><text x="72.0" y="368.0" font-size="11" text-anchor="end" font-family="sans-serif" fill="#374151">0</text><text x="1206.0" y="368.0" font-size="11" text-anchor="start" font-family="sans-serif" fill="#374151">0</text><line x1="80.0" y1="364.0" x2="1198.0" y2="364.0" stroke="#111827" stroke-width="1.2"/><line x1="80.0" y1="52.0" x2="80.0" y2="364.0" stroke="#111827" stroke-width="1.2"/><line x1="1198.0" y1="52.0" x2="1198.0" y2="364.0" stroke="#111827" stroke-width="1.2"/><rect x="81.0" y="364.0" width="22.8" height="0.0" fill="#93c5fd" stroke="#60a5fa" stroke-width="0.5"/><rect x="105.8" y="52.0" width="22.8" height="312.0" fill="#93c5fd" stroke="#60a5fa" stroke-width="0.5"/><rect x="130.7" y="360.8" width="22.8" height="3.2" fill="#93c5fd" stroke="#60a5fa" stroke-width="0.5"/><rect x="155.5" y="360.6" width="22.8" height="3.4" fill="#93c5fd" stroke="#60a5fa" stroke-width="0.5"/><rect x="180.4" y="360.6" width="22.8" height="3.4" fill="#93c5fd" stroke="#60a5fa" stroke-width="0.5"/><rect x="205.2" y="361.8" width="22.8" height="2.2" fill="#93c5fd" stroke="#60a5fa" stroke-width="0.5"/><rect x="230.1" y="360.7" width="22.8" height="3.3" fill="#93c5fd" stroke="#60a5fa" stroke-width="0.5"/><rect x="254.9" y="360.6" width="22.8" height="3.4" fill="#93c5fd" stroke="#60a5fa" stroke-width="0.5"/><rect x="279.8" y="362.5" width="22.8" height="1.5" fill="#93c5fd" stroke="#60a5fa" stroke-width="0.5"/><rect x="304.6" y="360.9" width="22.8" height="3.1" fill="#93c5fd" stroke="#60a5fa" stroke-width="0.5"/><rect x="329.4" y="360.6" width="22.8" height="3.4" fill="#93c5fd" stroke="#60a5fa" stroke-width="0.5"/><rect x="354.3" y="360.7" width="22.8" height="3.3" fill="#93c5fd" stroke="#60a5fa" stroke-width="0.5"/><rect x="379.1" y="361.1" width="22.8" height="2.9" fill="#93c5fd" stroke="#60a5fa" stroke-width="0.5"/><rect x="404.0" y="360.9" width="22.8" height="3.1" fill="#93c5fd" stroke="#60a5fa" stroke-width="0.5"/><rect x="428.8" y="361.0" width="22.8" height="3.0" fill="#93c5fd" stroke="#60a5fa" stroke-width="0.5"/><rect x="453.7" y="360.5" width="22.8" height="3.5" fill="#93c5fd" stroke="#60a5fa" stroke-width="0.5"/><rect x="478.5" y="359.2" width="22.8" height="4.8" fill="#93c5fd" stroke="#60a5fa" stroke-width="0.5"/><rect x="503.4" y="359.8" width="22.8" height="4.2" fill="#93c5fd" stroke="#60a5fa" stroke-width="0.5"/><rect x="528.2" y="359.6" width="22.8" height="4.4" fill="#93c5fd" stroke="#60a5fa" stroke-width="0.5"/><rect x="553.0" y="359.6" width="22.8" height="4.4" fill="#93c5fd" stroke="#60a5fa" stroke-width="0.5"/><rect x="577.9" y="359.4" width="22.8" height="4.6" fill="#93c5fd" stroke="#60a5fa" stroke-width="0.5"/><rect x="602.7" y="359.6" width="22.8" height="4.4" fill="#93c5fd" stroke="#60a5fa" stroke-width="0.5"/><rect x="627.6" y="359.8" width="22.8" height="4.2" fill="#93c5fd" stroke="#60a5fa" stroke-width="0.5"/><rect x="652.4" y="359.6" width="22.8" height="4.4" fill="#93c5fd" stroke="#60a5fa" stroke-width="0.5"/><rect x="677.3" y="359.9" width="22.8" height="4.1" fill="#93c5fd" stroke="#60a5fa" stroke-width="0.5"/><rect x="702.1" y="359.2" width="22.8" height="4.8" fill="#93c5fd" stroke="#60a5fa" stroke-width="0.5"/><rect x="727.0" y="358.9" width="22.8" height="5.1" fill="#93c5fd" stroke="#60a5fa" stroke-width="0.5"/><rect x="751.8" y="359.7" width="22.8" height="4.3" fill="#93c5fd" stroke="#60a5fa" stroke-width="0.5"/><rect x="776.6" y="360.2" width="22.8" height="3.8" fill="#93c5fd" stroke="#60a5fa" stroke-width="0.5"/><rect x="801.5" y="359.7" width="22.8" height="4.3" fill="#93c5fd" stroke="#60a5fa" stroke-width="0.5"/><rect x="826.3" y="359.6" width="22.8" height="4.4" fill="#93c5fd" stroke="#60a5fa" stroke-width="0.5"/><rect x="851.2" y="359.4" width="22.8" height="4.6" fill="#93c5fd" stroke="#60a5fa" stroke-width="0.5"/><rect x="876.0" y="359.3" width="22.8" height="4.7" fill="#93c5fd" stroke="#60a5fa" stroke-width="0.5"/><rect x="900.9" y="359.8" width="22.8" height="4.2" fill="#93c5fd" stroke="#60a5fa" stroke-width="0.5"/><rect x="925.7" y="358.8" width="22.8" height="5.2" fill="#93c5fd" stroke="#60a5fa" stroke-width="0.5"/><rect x="950.6" y="360.0" width="22.8" height="4.0" fill="#93c5fd" stroke="#60a5fa" stroke-width="0.5"/><rect x="975.4" y="358.7" width="22.8" height="5.3" fill="#93c5fd" stroke="#60a5fa" stroke-width="0.5"/><rect x="1000.2" y="360.1" width="22.8" height="3.9" fill="#93c5fd" stroke="#60a5fa" stroke-width="0.5"/><rect x="1025.1" y="359.5" width="22.8" height="4.5" fill="#93c5fd" stroke="#60a5fa" stroke-width="0.5"/><rect x="1049.9" y="359.6" width="22.8" height="4.4" fill="#93c5fd" stroke="#60a5fa" stroke-width="0.5"/><rect x="1074.8" y="359.5" width="22.8" height="4.5" fill="#93c5fd" stroke="#60a5fa" stroke-width="0.5"/><rect x="1099.6" y="359.6" width="22.8" height="4.4" fill="#93c5fd" stroke="#60a5fa" stroke-width="0.5"/><rect x="1124.5" y="359.0" width="22.8" height="5.0" fill="#93c5fd" stroke="#60a5fa" stroke-width="0.5"/><rect x="1149.3" y="359.7" width="22.8" height="4.3" fill="#93c5fd" stroke="#60a5fa" stroke-width="0.5"/><rect x="1174.2" y="311.2" width="22.8" height="52.8" fill="#93c5fd" stroke="#60a5fa" stroke-width="0.5"/><polyline fill="none" stroke="#ef4444" stroke-width="2" points="92.4,364.0 117.3,181.2 142.1,179.3 167.0,177.3 191.8,175.3 216.6,174.0 241.5,172.1 266.3,170.1 291.2,169.2 316.0,167.4 340.9,165.4 365.7,163.5 390.6,161.8 415.4,160.0 440.2,158.2 465.1,156.2 489.9,153.4 514.8,150.9 539.6,148.4 564.5,145.8 589.3,143.1 614.2,140.5 639.0,138.1 663.8,135.5 688.7,133.1 713.5,130.3 738.4,127.3 763.2,124.8 788.1,122.5 812.9,120.0 837.8,117.4 862.6,114.7 887.4,112.0 912.3,109.6 937.1,106.5 962.0,104.1 986.8,101.0 1011.7,98.8 1036.5,96.1 1061.4,93.5 1086.2,90.9 1111.0,88.4 1135.9,85.4 1160.7,82.9 1185.6,52.0"/><line x1="92.4" y1="364.0" x2="92.4" y2="370.0" stroke="#111827" stroke-width="1"/><text x="94.4" y="386.0" font-size="11" text-anchor="end" transform="rotate(-35 94.4 386.0)" font-family="sans-serif" fill="#374151">2026-02-17</text><line x1="241.5" y1="364.0" x2="241.5" y2="370.0" stroke="#111827" stroke-width="1"/><text x="243.5" y="386.0" font-size="11" text-anchor="end" transform="rotate(-35 243.5 386.0)" font-family="sans-serif" fill="#374151">2026-03-07</text><line x1="415.4" y1="364.0" x2="415.4" y2="370.0" stroke="#111827" stroke-width="1"/><text x="417.4" y="386.0" font-size="11" text-anchor="end" transform="rotate(-35 417.4 386.0)" font-family="sans-serif" fill="#374151">2026-03-14</text><line x1="564.5" y1="364.0" x2="564.5" y2="370.0" stroke="#111827" stroke-width="1"/><text x="566.5" y="386.0" font-size="11" text-anchor="end" transform="rotate(-35 566.5 386.0)" font-family="sans-serif" fill="#374151">2026-03-20</text><line x1="713.5" y1="364.0" x2="713.5" y2="370.0" stroke="#111827" stroke-width="1"/><text x="715.5" y="386.0" font-size="11" text-anchor="end" transform="rotate(-35 715.5 386.0)" font-family="sans-serif" fill="#374151">2026-03-26</text><line x1="862.6" y1="364.0" x2="862.6" y2="370.0" stroke="#111827" stroke-width="1"/><text x="864.6" y="386.0" font-size="11" text-anchor="end" transform="rotate(-35 864.6 386.0)" font-family="sans-serif" fill="#374151">2026-04-01</text><line x1="1036.5" y1="364.0" x2="1036.5" y2="370.0" stroke="#111827" stroke-width="1"/><text x="1038.5" y="386.0" font-size="11" text-anchor="end" transform="rotate(-35 1038.5 386.0)" font-family="sans-serif" fill="#374151">2026-04-08</text><line x1="1185.6" y1="364.0" x2="1185.6" y2="370.0" stroke="#111827" stroke-width="1"/><text x="1187.6" y="386.0" font-size="11" text-anchor="end" transform="rotate(-35 1187.6 386.0)" font-family="sans-serif" fill="#374151">2026-04-14</text><text x="26" y="208.0" font-size="12" transform="rotate(-90 26 208.0)" text-anchor="middle" font-family="sans-serif" fill="#1f2937">구간별 수</text><text x="1256.0" y="208.0" font-size="12" transform="rotate(90 1256.0 208.0)" text-anchor="middle" font-family="sans-serif" fill="#1f2937">누적</text><text x="639.0" y="442.0" font-size="13" text-anchor="middle" font-family="sans-serif" fill="#111827">일</text></svg>