<svg xmlns="http://www.w3.org/2000/svg" width="1280" height="460" viewBox="0 0 1280 460"><rect x="0" y="0" width="100%" height="100%" fill="#ffffff"/><text x="640.0" y="28" font-size="20" text-anchor="middle" font-family="sans-serif" fill="#111827">이벤트 / 생성 시점 / 월별</text><line x1="80.0" y1="52.0" x2="1198.0" y2="52.0" stroke="#e5e7eb" stroke-width="1"/><text x="72.0" y="56.0" font-size="11" text-anchor="end" font-family="sans-serif" fill="#374151">91,725</text><text x="1206.0" y="56.0" font-size="11" text-anchor="start" font-family="sans-serif" fill="#374151">319,418</text><line x1="80.0" y1="114.4" x2="1198.0" y2="114.4" stroke="#e5e7eb" stroke-width="1"/><text x="72.0" y="118.4" font-size="11" text-anchor="end" font-family="sans-serif" fill="#374151">73,380</text><text x="1206.0" y="118.4" font-size="11" text-anchor="start" font-family="sans-serif" fill="#374151">255,534</text><line x1="80.0" y1="176.8" x2="1198.0" y2="176.8" stroke="#e5e7eb" stroke-width="1"/><text x="72.0" y="180.8" font-size="11" text-anchor="end" font-family="sans-serif" fill="#374151">55,035</text><text x="1206.0" y="180.8" font-size="11" text-anchor="start" font-family="sans-serif" fill="#374151">191,651</text><line x1="80.0" y1="239.2" x2="1198.0" y2="239.2" stroke="#e5e7eb" stroke-width="1"/><text x="72.0" y="243.2" font-size="11" text-anchor="end" font-family="sans-serif" fill="#374151">36,690</text><text x="1206.0" y="243.2" font-size="11" text-anchor="start" font-family="sans-serif" fill="#374151">127,767</text><line x1="80.0" y1="301.6" x2="1198.0" y2="301.6" stroke="#e5e7eb" stroke-width="1"/><text x="72.0" y="305.6" font-size="11" text-anchor="end" font-family="sans-serif" fill="#374151">18,345</text><text x="1206.0" y="305.6" font-size="11" text-anchor="start" font-family="sans-serif" fill="#374151">63,884</text><line x1="80.0" y1="364.0" x2="1198.0" y2="364.0" stroke="#e5e7eb" stroke-width="1"/><text x="72.0" y="368.0" font-size="11" text-anchor="end" font-family="sans-serif" fill="#374151">0</text><text x="1206.0" y="368.0" font-size="11" text-anchor="start" font-family="sans-serif" fill="#374151">0</text><line x1="80.0" y1="364.0" x2="1198.0" y2="364.0" stroke="#111827" stroke-width="1.2"/><line x1="80.0" y1="52.0" x2="80.0" y2="364.0" stroke="#111827" stroke-width="1.2"/><line x1="1198.0" y1="52.0" x2="1198.0" y2="364.0" stroke="#111827" stroke-width="1.2"/><rect x="81.0" y="354.4" width="22.8" height="9.6" fill="#93c5fd" stroke="#60a5fa" stroke-width="0.5"/><rect x="105.8" y="363.5" width="22.8" height="0.5" fill="#93c5fd" stroke="#60a5fa" stroke-width="0.5"/><rect x="130.7" y="363.8" width="22.8" height="0.2" fill="#93c5fd" stroke="#60a5fa" stroke-width="0.5"/><rect x="155.5" y="363.8" width="22.8" height="0.2" fill="#93c5fd" stroke="#60a5fa" stroke-width="0.5"/><rect x="180.4" y="363.8" width="22.8" height="0.2" fill="#93c5fd" stroke="#60a5fa" stroke-width="0.5"/><rect x="205.2" y="363.9" width="22.8" height="0.1" fill="#93c5fd" stroke="#60a5fa" stroke-width="0.5"/><rect x="230.1" y="363.9" width="22.8" height="0.1" fill="#93c5fd" stroke="#60a5fa" stroke-width="0.5"/><rect x="254.9" y="363.7" width="22.8" height="0.3" fill="#93c5fd" stroke="#60a5fa" stroke-width="0.5"/><rect x="279.8" y="363.4" width="22.8" height="0.6" fill="#93c5fd" stroke="#60a5fa" stroke-width="0.5"/><rect x="304.6" y="363.4" width="22.8" height="0.6" fill="#93c5fd" stroke="#60a5fa" stroke-width="0.5"/><rect x="329.4" y="363.5" width="22.8" height="0.5" fill="#93c5fd" stroke="#60a5fa" stroke-width="0.5"/><rect x="354.3" y="363.8" width="22.8" height="0.2" fill="#93c5fd" stroke="#60a5fa" stroke-width="0.5"/><rect x="379.1" y="363.7" width="22.8" height="0.3" fill="#93c5fd" stroke="#60a5fa" stroke-width="0.5"/><rect x="404.0" y="363.6" width="22.8" height="0.4" fill="#93c5fd" stroke="#60a5fa" stroke-width="0.5"/><rect x="428.8" y="363.6" width="22.8" height="0.4" fill="#93c5fd" stroke="#60a5fa" stroke-width="0.5"/><rect x="453.7" y="363.5" width="22.8" height="0.5" fill="#93c5fd" stroke="#60a5fa" stroke-width="0.5"/><rect x="478.5" y="363.6" width="22.8" height="0.4" fill="#93c5fd" stroke="#60a5fa" stroke-width="0.5"/><rect x="503.4" y="363.4" width="22.8" height="0.6" fill="#93c5fd" stroke="#60a5fa" stroke-width="0.5"/><rect x="528.2" y="363.4" width="22.8" height="0.6" fill="#93c5fd" stroke="#60a5fa" stroke-width="0.5"/><rect x="553.0" y="363.4" width="22.8" height="0.6" fill="#93c5fd" stroke="#60a5fa" stroke-width="0.5"/><rect x="577.9" y="363.1" width="22.8" height="0.9" fill="#93c5fd" stroke="#60a5fa" stroke-width="0.5"/><rect x="602.7" y="363.1" width="22.8" height="0.9" fill="#93c5fd" stroke="#60a5fa" stroke-width="0.5"/><rect x="627.6" y="363.0" width="22.8" height="1.0" fill="#93c5fd" stroke="#60a5fa" stroke-width="0.5"/><rect x="652.4" y="362.7" width="22.8" height="1.3" fill="#93c5fd" stroke="#60a5fa" stroke-width="0.5"/><rect x="677.3" y="362.7" width="22.8" height="1.3" fill="#93c5fd" stroke="#60a5fa" stroke-width="0.5"/><rect x="702.1" y="362.4" width="22.8" height="1.6" fill="#93c5fd" stroke="#60a5fa" stroke-width="0.5"/><rect x="727.0" y="362.1" width="22.8" height="1.9" fill="#93c5fd" stroke="#60a5fa" stroke-width="0.5"/><rect x="751.8" y="360.9" width="22.8" height="3.1" fill="#93c5fd" stroke="#60a5fa" stroke-width="0.5"/><rect x="776.6" y="361.0" width="22.8" height="3.0" fill="#93c5fd" stroke="#60a5fa" stroke-width="0.5"/><rect x="801.5" y="359.9" width="22.8" height="4.1" fill="#93c5fd" stroke="#60a5fa" stroke-width="0.5"/><rect x="826.3" y="359.8" width="22.8" height="4.2" fill="#93c5fd" stroke="#60a5fa" stroke-width="0.5"/><rect x="851.2" y="356.3" width="22.8" height="7.7" fill="#93c5fd" stroke="#60a5fa" stroke-width="0.5"/><rect x="876.0" y="357.6" width="22.8" height="6.4" fill="#93c5fd" stroke="#60a5fa" stroke-width="0.5"/><rect x="900.9" y="358.5" width="22.8" height="5.5" fill="#93c5fd" stroke="#60a5fa" stroke-width="0.5"/><rect x="925.7" y="358.1" width="22.8" height="5.9" fill="#93c5fd" stroke="#60a5fa" stroke-width="0.5"/><rect x="950.6" y="349.0" width="22.8" height="15.0" fill="#93c5fd" stroke="#60a5fa" stroke-width="0.5"/><rect x="975.4" y="349.3" width="22.8" height="14.7" fill="#93c5fd" stroke="#60a5fa" stroke-width="0.5"/><rect x="1000.2" y="345.5" width="22.8" height="18.5" fill="#93c5fd" stroke="#60a5fa" stroke-width="0.5"/><rect x="1025.1" y="325.7" width="22.8" height="38.3" fill="#93c5fd" stroke="#60a5fa" stroke-width="0.5"/><rect x="1049.9" y="305.6" width="22.8" height="58.4" fill="#93c5fd" stroke="#60a5fa" stroke-width="0.5"/><rect x="1074.8" y="282.4" width="22.8" height="81.6" fill="#93c5fd" stroke="#60a5fa" stroke-width="0.5"/><rect x="1099.6" y="225.2" width="22.8" height="138.8" fill="#93c5fd" stroke="#60a5fa" stroke-width="0.5"/><rect x="1124.5" y="165.5" width="22.8" height="198.5" fill="#93c5fd" stroke="#60a5fa" stroke-width="0.5"/><rect x="1149.3" y="218.9" width="22.8" height="145.1" fill="#93c5fd" stroke="#60a5fa" stroke-width="0.5"/><rect x="1174.2" y="52.0" width="22.8" height="312.0" fill="#93c5fd" stroke="#60a5fa" stroke-width="0.5"/><polyline fill="none" stroke="#ef4444" stroke-width="2" points="92.4,361.2 117.3,361.1 142.1,361.0 167.0,361.0 191.8,360.9 216.6,360.9 241.5,360.9 266.3,360.8 291.2,360.6 316.0,360.4 340.9,360.3 365.7,360.2 390.6,360.2 415.4,360.1 440.2,359.9 465.1,359.8 489.9,359.7 514.8,359.5 539.6,359.3 564.5,359.2 589.3,358.9 614.2,358.7 639.0,358.4 663.8,358.0 688.7,357.6 713.5,357.2 738.4,356.6 763.2,355.8 788.1,354.9 812.9,353.7 837.8,352.5 862.6,350.3 887.4,348.5 912.3,346.9 937.1,345.2 962.0,340.9 986.8,336.7 1011.7,331.3 1036.5,320.3 1061.4,303.5 1086.2,280.1 1111.0,240.3 1135.9,183.3 1160.7,141.6 1185.6,52.0"/><line x1="92.4" y1="364.0" x2="92.4" y2="370.0" stroke="#111827" stroke-width="1"/><text x="94.4" y="386.0" font-size="11" text-anchor="end" transform="rotate(-35 94.4 386.0)" font-family="sans-serif" fill="#374151">2022-07</text><line x1="241.5" y1="364.0" x2="241.5" y2="370.0" stroke="#111827" stroke-width="1"/><text x="243.5" y="386.0" font-size="11" text-anchor="end" transform="rotate(-35 243.5 386.0)" font-family="sans-serif" fill="#374151">2023-01</text><line x1="415.4" y1="364.0" x2="415.4" y2="370.0" stroke="#111827" stroke-width="1"/><text x="417.4" y="386.0" font-size="11" text-anchor="end" transform="rotate(-35 417.4 386.0)" font-family="sans-serif" fill="#374151">2023-08</text><line x1="564.5" y1="364.0" x2="564.5" y2="370.0" stroke="#111827" stroke-width="1"/><text x="566.5" y="386.0" font-size="11" text-anchor="end" transform="rotate(-35 566.5 386.0)" font-family="sans-serif" fill="#374151">2024-02</text><line x1="713.5" y1="364.0" x2="713.5" y2="370.0" stroke="#111827" stroke-width="1"/><text x="715.5" y="386.0" font-size="11" text-anchor="end" transform="rotate(-35 715.5 386.0)" font-family="sans-serif" fill="#374151">2024-08</text><line x1="862.6" y1="364.0" x2="862.6" y2="370.0" stroke="#111827" stroke-width="1"/><text x="864.6" y="386.0" font-size="11" text-anchor="end" transform="rotate(-35 864.6 386.0)" font-family="sans-serif" fill="#374151">2025-02</text><line x1="1036.5" y1="364.0" x2="1036.5" y2="370.0" stroke="#111827" stroke-width="1"/><text x="1038.5" y="386.0" font-size="11" text-anchor="end" transform="rotate(-35 1038.5 386.0)" font-family="sans-serif" fill="#374151">2025-09</text><line x1="1185.6" y1="364.0" x2="1185.6" y2="370.0" stroke="#111827" stroke-width="1"/><text x="1187.6" y="386.0" font-size="11" text-anchor="end" transform="rotate(-35 1187.6 386.0)" font-family="sans-serif" fill="#374151">2026-03</text><text x="26" y="208.0" font-size="12" transform="rotate(-90 26 208.0)" text-anchor="middle" font-family="sans-serif" fill="#1f2937">구간별 수</text><text x="1256.0" y="208.0" font-size="12" transform="rotate(90 1256.0 208.0)" text-anchor="middle" font-family="sans-serif" fill="#1f2937">누적</text><text x="639.0" y="442.0" font-size="13" text-anchor="middle" font-family="sans-serif" fill="#111827">월</text></svg>