<svg xmlns="http://www.w3.org/2000/svg" width="1280" height="460" viewBox="0 0 1280 460"><rect x="0" y="0" width="100%" height="100%" fill="#ffffff"/><text x="640.0" y="28" font-size="20" text-anchor="middle" font-family="sans-serif" fill="#111827">이벤트 / 최근 반영 시점 / 일별</text><line x1="80.0" y1="52.0" x2="1198.0" y2="52.0" stroke="#e5e7eb" stroke-width="1"/><text x="72.0" y="56.0" font-size="11" text-anchor="end" font-family="sans-serif" fill="#374151">215,842</text><text x="1206.0" y="56.0" font-size="11" text-anchor="start" font-family="sans-serif" fill="#374151">402,915</text><line x1="80.0" y1="114.4" x2="1198.0" y2="114.4" stroke="#e5e7eb" stroke-width="1"/><text x="72.0" y="118.4" font-size="11" text-anchor="end" font-family="sans-serif" fill="#374151">172,674</text><text x="1206.0" y="118.4" font-size="11" text-anchor="start" font-family="sans-serif" fill="#374151">322,332</text><line x1="80.0" y1="176.8" x2="1198.0" y2="176.8" stroke="#e5e7eb" stroke-width="1"/><text x="72.0" y="180.8" font-size="11" text-anchor="end" font-family="sans-serif" fill="#374151">129,505</text><text x="1206.0" y="180.8" font-size="11" text-anchor="start" font-family="sans-serif" fill="#374151">241,749</text><line x1="80.0" y1="239.2" x2="1198.0" y2="239.2" stroke="#e5e7eb" stroke-width="1"/><text x="72.0" y="243.2" font-size="11" text-anchor="end" font-family="sans-serif" fill="#374151">86,337</text><text x="1206.0" y="243.2" font-size="11" text-anchor="start" font-family="sans-serif" fill="#374151">161,166</text><line x1="80.0" y1="301.6" x2="1198.0" y2="301.6" stroke="#e5e7eb" stroke-width="1"/><text x="72.0" y="305.6" font-size="11" text-anchor="end" font-family="sans-serif" fill="#374151">43,168</text><text x="1206.0" y="305.6" font-size="11" text-anchor="start" font-family="sans-serif" fill="#374151">80,583</text><line x1="80.0" y1="364.0" x2="1198.0" y2="364.0" stroke="#e5e7eb" stroke-width="1"/><text x="72.0" y="368.0" font-size="11" text-anchor="end" font-family="sans-serif" fill="#374151">0</text><text x="1206.0" y="368.0" font-size="11" text-anchor="start" font-family="sans-serif" fill="#374151">0</text><line x1="80.0" y1="364.0" x2="1198.0" y2="364.0" stroke="#111827" stroke-width="1.2"/><line x1="80.0" y1="52.0" x2="80.0" y2="364.0" stroke="#111827" stroke-width="1.2"/><line x1="1198.0" y1="52.0" x2="1198.0" y2="364.0" stroke="#111827" stroke-width="1.2"/><rect x="81.0" y="364.0" width="18.3" height="0.0" fill="#93c5fd" stroke="#60a5fa" stroke-width="0.5"/><rect x="101.3" y="52.0" width="18.3" height="312.0" fill="#93c5fd" stroke="#60a5fa" stroke-width="0.5"/><rect x="121.7" y="360.8" width="18.3" height="3.2" fill="#93c5fd" stroke="#60a5fa" stroke-width="0.5"/><rect x="142.0" y="360.6" width="18.3" height="3.4" fill="#93c5fd" stroke="#60a5fa" stroke-width="0.5"/><rect x="162.3" y="360.6" width="18.3" height="3.4" fill="#93c5fd" stroke="#60a5fa" stroke-width="0.5"/><rect x="182.6" y="361.8" width="18.3" height="2.2" fill="#93c5fd" stroke="#60a5fa" stroke-width="0.5"/><rect x="203.0" y="360.7" width="18.3" height="3.3" fill="#93c5fd" stroke="#60a5fa" stroke-width="0.5"/><rect x="223.3" y="360.6" width="18.3" height="3.4" fill="#93c5fd" stroke="#60a5fa" stroke-width="0.5"/><rect x="243.6" y="362.5" width="18.3" height="1.5" fill="#93c5fd" stroke="#60a5fa" stroke-width="0.5"/><rect x="263.9" y="360.9" width="18.3" height="3.1" fill="#93c5fd" stroke="#60a5fa" stroke-width="0.5"/><rect x="284.3" y="360.6" width="18.3" height="3.4" fill="#93c5fd" stroke="#60a5fa" stroke-width="0.5"/><rect x="304.6" y="360.7" width="18.3" height="3.3" fill="#93c5fd" stroke="#60a5fa" stroke-width="0.5"/><rect x="324.9" y="361.1" width="18.3" height="2.9" fill="#93c5fd" stroke="#60a5fa" stroke-width="0.5"/><rect x="345.3" y="360.9" width="18.3" height="3.1" fill="#93c5fd" stroke="#60a5fa" stroke-width="0.5"/><rect x="365.6" y="361.0" width="18.3" height="3.0" fill="#93c5fd" stroke="#60a5fa" stroke-width="0.5"/><rect x="385.9" y="360.5" width="18.3" height="3.5" fill="#93c5fd" stroke="#60a5fa" stroke-width="0.5"/><rect x="406.2" y="359.2" width="18.3" height="4.8" fill="#93c5fd" stroke="#60a5fa" stroke-width="0.5"/><rect x="426.6" y="359.8" width="18.3" height="4.2" fill="#93c5fd" stroke="#60a5fa" stroke-width="0.5"/><rect x="446.9" y="359.6" width="18.3" height="4.4" fill="#93c5fd" stroke="#60a5fa" stroke-width="0.5"/><rect x="467.2" y="359.6" width="18.3" height="4.4" fill="#93c5fd" stroke="#60a5fa" stroke-width="0.5"/><rect x="487.5" y="359.4" width="18.3" height="4.6" fill="#93c5fd" stroke="#60a5fa" stroke-width="0.5"/><rect x="507.9" y="359.6" width="18.3" height="4.4" fill="#93c5fd" stroke="#60a5fa" stroke-width="0.5"/><rect x="528.2" y="359.8" width="18.3" height="4.2" fill="#93c5fd" stroke="#60a5fa" stroke-width="0.5"/><rect x="548.5" y="359.6" width="18.3" height="4.4" fill="#93c5fd" stroke="#60a5fa" stroke-width="0.5"/><rect x="568.9" y="359.9" width="18.3" height="4.1" fill="#93c5fd" stroke="#60a5fa" stroke-width="0.5"/><rect x="589.2" y="359.2" width="18.3" height="4.8" fill="#93c5fd" stroke="#60a5fa" stroke-width="0.5"/><rect x="609.5" y="358.9" width="18.3" height="5.1" fill="#93c5fd" stroke="#60a5fa" stroke-width="0.5"/><rect x="629.8" y="359.7" width="18.3" height="4.3" fill="#93c5fd" stroke="#60a5fa" stroke-width="0.5"/><rect x="650.2" y="360.2" width="18.3" height="3.8" fill="#93c5fd" stroke="#60a5fa" stroke-width="0.5"/><rect x="670.5" y="359.7" width="18.3" height="4.3" fill="#93c5fd" stroke="#60a5fa" stroke-width="0.5"/><rect x="690.8" y="359.6" width="18.3" height="4.4" fill="#93c5fd" stroke="#60a5fa" stroke-width="0.5"/><rect x="711.1" y="359.4" width="18.3" height="4.6" fill="#93c5fd" stroke="#60a5fa" stroke-width="0.5"/><rect x="731.5" y="359.4" width="18.3" height="4.6" fill="#93c5fd" stroke="#60a5fa" stroke-width="0.5"/><rect x="751.8" y="359.8" width="18.3" height="4.2" fill="#93c5fd" stroke="#60a5fa" stroke-width="0.5"/><rect x="772.1" y="358.8" width="18.3" height="5.2" fill="#93c5fd" stroke="#60a5fa" stroke-width="0.5"/><rect x="792.5" y="360.0" width="18.3" height="4.0" fill="#93c5fd" stroke="#60a5fa" stroke-width="0.5"/><rect x="812.8" y="358.7" width="18.3" height="5.3" fill="#93c5fd" stroke="#60a5fa" stroke-width="0.5"/><rect x="833.1" y="360.1" width="18.3" height="3.9" fill="#93c5fd" stroke="#60a5fa" stroke-width="0.5"/><rect x="853.4" y="359.5" width="18.3" height="4.5" fill="#93c5fd" stroke="#60a5fa" stroke-width="0.5"/><rect x="873.8" y="359.6" width="18.3" height="4.4" fill="#93c5fd" stroke="#60a5fa" stroke-width="0.5"/><rect x="894.1" y="359.5" width="18.3" height="4.5" fill="#93c5fd" stroke="#60a5fa" stroke-width="0.5"/><rect x="914.4" y="359.7" width="18.3" height="4.3" fill="#93c5fd" stroke="#60a5fa" stroke-width="0.5"/><rect x="934.7" y="359.1" width="18.3" height="4.9" fill="#93c5fd" stroke="#60a5fa" stroke-width="0.5"/><rect x="955.1" y="359.8" width="18.3" height="4.2" fill="#93c5fd" stroke="#60a5fa" stroke-width="0.5"/><rect x="975.4" y="359.8" width="18.3" height="4.2" fill="#93c5fd" stroke="#60a5fa" stroke-width="0.5"/><rect x="995.7" y="359.4" width="18.3" height="4.6" fill="#93c5fd" stroke="#60a5fa" stroke-width="0.5"/><rect x="1016.1" y="359.0" width="18.3" height="5.0" fill="#93c5fd" stroke="#60a5fa" stroke-width="0.5"/><rect x="1036.4" y="359.2" width="18.3" height="4.8" fill="#93c5fd" stroke="#60a5fa" stroke-width="0.5"/><rect x="1056.7" y="359.8" width="18.3" height="4.2" fill="#93c5fd" stroke="#60a5fa" stroke-width="0.5"/><rect x="1077.0" y="359.1" width="18.3" height="4.9" fill="#93c5fd" stroke="#60a5fa" stroke-width="0.5"/><rect x="1097.4" y="359.7" width="18.3" height="4.3" fill="#93c5fd" stroke="#60a5fa" stroke-width="0.5"/><rect x="1117.7" y="359.6" width="18.3" height="4.4" fill="#93c5fd" stroke="#60a5fa" stroke-width="0.5"/><rect x="1138.0" y="359.1" width="18.3" height="4.9" fill="#93c5fd" stroke="#60a5fa" stroke-width="0.5"/><rect x="1158.3" y="359.2" width="18.3" height="4.8" fill="#93c5fd" stroke="#60a5fa" stroke-width="0.5"/><rect x="1178.7" y="307.4" width="18.3" height="56.6" fill="#93c5fd" stroke="#60a5fa" stroke-width="0.5"/><polyline fill="none" stroke="#ef4444" stroke-width="2" points="90.2,364.0 110.5,196.9 130.8,195.1 151.1,193.3 171.5,191.5 191.8,190.3 212.1,188.5 232.5,186.7 252.8,185.9 273.1,184.2 293.4,182.4 313.8,180.7 334.1,179.1 354.4,177.5 374.7,175.8 395.1,174.0 415.4,171.4 435.7,169.2 456.1,166.8 476.4,164.5 496.7,162.0 517.0,159.6 537.4,157.4 557.7,155.0 578.0,152.9 598.3,150.3 618.7,147.6 639.0,145.3 659.3,143.2 679.7,140.9 700.0,138.5 720.3,136.1 740.6,133.6 761.0,131.4 781.3,128.5 801.6,126.4 821.9,123.5 842.3,121.5 862.6,119.1 882.9,116.7 903.3,114.3 923.6,112.0 943.9,109.3 964.2,107.1 984.6,104.8 1004.9,102.3 1025.2,99.6 1045.5,97.0 1065.9,94.8 1086.2,92.2 1106.5,89.9 1126.9,87.5 1147.2,84.9 1167.5,82.3 1187.8,52.0"/><line x1="90.2" y1="364.0" x2="90.2" y2="370.0" stroke="#111827" stroke-width="1"/><text x="92.2" y="386.0" font-size="11" text-anchor="end" transform="rotate(-35 92.2 386.0)" font-family="sans-serif" fill="#374151">2026-02-17</text><line x1="252.8" y1="364.0" x2="252.8" y2="370.0" stroke="#111827" stroke-width="1"/><text x="254.8" y="386.0" font-size="11" text-anchor="end" transform="rotate(-35 254.8 386.0)" font-family="sans-serif" fill="#374151">2026-03-09</text><line x1="395.1" y1="364.0" x2="395.1" y2="370.0" stroke="#111827" stroke-width="1"/><text x="397.1" y="386.0" font-size="11" text-anchor="end" transform="rotate(-35 397.1 386.0)" font-family="sans-serif" fill="#374151">2026-03-16</text><line x1="557.7" y1="364.0" x2="557.7" y2="370.0" stroke="#111827" stroke-width="1"/><text x="559.7" y="386.0" font-size="11" text-anchor="end" transform="rotate(-35 559.7 386.0)" font-family="sans-serif" fill="#374151">2026-03-24</text><line x1="720.3" y1="364.0" x2="720.3" y2="370.0" stroke="#111827" stroke-width="1"/><text x="722.3" y="386.0" font-size="11" text-anchor="end" transform="rotate(-35 722.3 386.0)" font-family="sans-serif" fill="#374151">2026-04-01</text><line x1="882.9" y1="364.0" x2="882.9" y2="370.0" stroke="#111827" stroke-width="1"/><text x="884.9" y="386.0" font-size="11" text-anchor="end" transform="rotate(-35 884.9 386.0)" font-family="sans-serif" fill="#374151">2026-04-09</text><line x1="1025.2" y1="364.0" x2="1025.2" y2="370.0" stroke="#111827" stroke-width="1"/><text x="1027.2" y="386.0" font-size="11" text-anchor="end" transform="rotate(-35 1027.2 386.0)" font-family="sans-serif" fill="#374151">2026-04-16</text><line x1="1187.8" y1="364.0" x2="1187.8" y2="370.0" stroke="#111827" stroke-width="1"/><text x="1189.8" y="386.0" font-size="11" text-anchor="end" transform="rotate(-35 1189.8 386.0)" font-family="sans-serif" fill="#374151">2026-04-24</text><text x="26" y="208.0" font-size="12" transform="rotate(-90 26 208.0)" text-anchor="middle" font-family="sans-serif" fill="#1f2937">구간별 수</text><text x="1256.0" y="208.0" font-size="12" transform="rotate(90 1256.0 208.0)" text-anchor="middle" font-family="sans-serif" fill="#1f2937">누적</text><text x="639.0" y="442.0" font-size="13" text-anchor="middle" font-family="sans-serif" fill="#111827">일</text></svg>