<svg xmlns="http://www.w3.org/2000/svg" width="1280" height="460" viewBox="0 0 1280 460"><rect x="0" y="0" width="100%" height="100%" fill="#ffffff"/><text x="640.0" y="28" font-size="20" text-anchor="middle" font-family="sans-serif" fill="#111827">이벤트 / 최근 반영 시점 / 일별</text><line x1="80.0" y1="52.0" x2="1198.0" y2="52.0" stroke="#e5e7eb" stroke-width="1"/><text x="72.0" y="56.0" font-size="11" text-anchor="end" font-family="sans-serif" fill="#374151">215,859</text><text x="1206.0" y="56.0" font-size="11" text-anchor="start" font-family="sans-serif" fill="#374151">391,609</text><line x1="80.0" y1="114.4" x2="1198.0" y2="114.4" stroke="#e5e7eb" stroke-width="1"/><text x="72.0" y="118.4" font-size="11" text-anchor="end" font-family="sans-serif" fill="#374151">172,687</text><text x="1206.0" y="118.4" font-size="11" text-anchor="start" font-family="sans-serif" fill="#374151">313,287</text><line x1="80.0" y1="176.8" x2="1198.0" y2="176.8" stroke="#e5e7eb" stroke-width="1"/><text x="72.0" y="180.8" font-size="11" text-anchor="end" font-family="sans-serif" fill="#374151">129,515</text><text x="1206.0" y="180.8" font-size="11" text-anchor="start" font-family="sans-serif" fill="#374151">234,965</text><line x1="80.0" y1="239.2" x2="1198.0" y2="239.2" stroke="#e5e7eb" stroke-width="1"/><text x="72.0" y="243.2" font-size="11" text-anchor="end" font-family="sans-serif" fill="#374151">86,344</text><text x="1206.0" y="243.2" font-size="11" text-anchor="start" font-family="sans-serif" fill="#374151">156,644</text><line x1="80.0" y1="301.6" x2="1198.0" y2="301.6" stroke="#e5e7eb" stroke-width="1"/><text x="72.0" y="305.6" font-size="11" text-anchor="end" font-family="sans-serif" fill="#374151">43,172</text><text x="1206.0" y="305.6" font-size="11" text-anchor="start" font-family="sans-serif" fill="#374151">78,322</text><line x1="80.0" y1="364.0" x2="1198.0" y2="364.0" stroke="#e5e7eb" stroke-width="1"/><text x="72.0" y="368.0" font-size="11" text-anchor="end" font-family="sans-serif" fill="#374151">0</text><text x="1206.0" y="368.0" font-size="11" text-anchor="start" font-family="sans-serif" fill="#374151">0</text><line x1="80.0" y1="364.0" x2="1198.0" y2="364.0" stroke="#111827" stroke-width="1.2"/><line x1="80.0" y1="52.0" x2="80.0" y2="364.0" stroke="#111827" stroke-width="1.2"/><line x1="1198.0" y1="52.0" x2="1198.0" y2="364.0" stroke="#111827" stroke-width="1.2"/><rect x="81.0" y="364.0" width="19.5" height="0.0" fill="#93c5fd" stroke="#60a5fa" stroke-width="0.5"/><rect x="102.5" y="52.0" width="19.5" height="312.0" fill="#93c5fd" stroke="#60a5fa" stroke-width="0.5"/><rect x="124.0" y="360.8" width="19.5" height="3.2" fill="#93c5fd" stroke="#60a5fa" stroke-width="0.5"/><rect x="145.5" y="360.6" width="19.5" height="3.4" fill="#93c5fd" stroke="#60a5fa" stroke-width="0.5"/><rect x="167.0" y="360.6" width="19.5" height="3.4" fill="#93c5fd" stroke="#60a5fa" stroke-width="0.5"/><rect x="188.5" y="361.8" width="19.5" height="2.2" fill="#93c5fd" stroke="#60a5fa" stroke-width="0.5"/><rect x="210.0" y="360.7" width="19.5" height="3.3" fill="#93c5fd" stroke="#60a5fa" stroke-width="0.5"/><rect x="231.5" y="360.6" width="19.5" height="3.4" fill="#93c5fd" stroke="#60a5fa" stroke-width="0.5"/><rect x="253.0" y="362.5" width="19.5" height="1.5" fill="#93c5fd" stroke="#60a5fa" stroke-width="0.5"/><rect x="274.5" y="360.9" width="19.5" height="3.1" fill="#93c5fd" stroke="#60a5fa" stroke-width="0.5"/><rect x="296.0" y="360.6" width="19.5" height="3.4" fill="#93c5fd" stroke="#60a5fa" stroke-width="0.5"/><rect x="317.5" y="360.7" width="19.5" height="3.3" fill="#93c5fd" stroke="#60a5fa" stroke-width="0.5"/><rect x="339.0" y="361.1" width="19.5" height="2.9" fill="#93c5fd" stroke="#60a5fa" stroke-width="0.5"/><rect x="360.5" y="360.9" width="19.5" height="3.1" fill="#93c5fd" stroke="#60a5fa" stroke-width="0.5"/><rect x="382.0" y="361.0" width="19.5" height="3.0" fill="#93c5fd" stroke="#60a5fa" stroke-width="0.5"/><rect x="403.5" y="360.5" width="19.5" height="3.5" fill="#93c5fd" stroke="#60a5fa" stroke-width="0.5"/><rect x="425.0" y="359.2" width="19.5" height="4.8" fill="#93c5fd" stroke="#60a5fa" stroke-width="0.5"/><rect x="446.5" y="359.8" width="19.5" height="4.2" fill="#93c5fd" stroke="#60a5fa" stroke-width="0.5"/><rect x="468.0" y="359.6" width="19.5" height="4.4" fill="#93c5fd" stroke="#60a5fa" stroke-width="0.5"/><rect x="489.5" y="359.6" width="19.5" height="4.4" fill="#93c5fd" stroke="#60a5fa" stroke-width="0.5"/><rect x="511.0" y="359.4" width="19.5" height="4.6" fill="#93c5fd" stroke="#60a5fa" stroke-width="0.5"/><rect x="532.5" y="359.6" width="19.5" height="4.4" fill="#93c5fd" stroke="#60a5fa" stroke-width="0.5"/><rect x="554.0" y="359.8" width="19.5" height="4.2" fill="#93c5fd" stroke="#60a5fa" stroke-width="0.5"/><rect x="575.5" y="359.6" width="19.5" height="4.4" fill="#93c5fd" stroke="#60a5fa" stroke-width="0.5"/><rect x="597.0" y="359.9" width="19.5" height="4.1" fill="#93c5fd" stroke="#60a5fa" stroke-width="0.5"/><rect x="618.5" y="359.2" width="19.5" height="4.8" fill="#93c5fd" stroke="#60a5fa" stroke-width="0.5"/><rect x="640.0" y="358.9" width="19.5" height="5.1" fill="#93c5fd" stroke="#60a5fa" stroke-width="0.5"/><rect x="661.5" y="359.7" width="19.5" height="4.3" fill="#93c5fd" stroke="#60a5fa" stroke-width="0.5"/><rect x="683.0" y="360.2" width="19.5" height="3.8" fill="#93c5fd" stroke="#60a5fa" stroke-width="0.5"/><rect x="704.5" y="359.7" width="19.5" height="4.3" fill="#93c5fd" stroke="#60a5fa" stroke-width="0.5"/><rect x="726.0" y="359.6" width="19.5" height="4.4" fill="#93c5fd" stroke="#60a5fa" stroke-width="0.5"/><rect x="747.5" y="359.4" width="19.5" height="4.6" fill="#93c5fd" stroke="#60a5fa" stroke-width="0.5"/><rect x="769.0" y="359.4" width="19.5" height="4.6" fill="#93c5fd" stroke="#60a5fa" stroke-width="0.5"/><rect x="790.5" y="359.8" width="19.5" height="4.2" fill="#93c5fd" stroke="#60a5fa" stroke-width="0.5"/><rect x="812.0" y="358.8" width="19.5" height="5.2" fill="#93c5fd" stroke="#60a5fa" stroke-width="0.5"/><rect x="833.5" y="360.0" width="19.5" height="4.0" fill="#93c5fd" stroke="#60a5fa" stroke-width="0.5"/><rect x="855.0" y="358.7" width="19.5" height="5.3" fill="#93c5fd" stroke="#60a5fa" stroke-width="0.5"/><rect x="876.5" y="360.1" width="19.5" height="3.9" fill="#93c5fd" stroke="#60a5fa" stroke-width="0.5"/><rect x="898.0" y="359.5" width="19.5" height="4.5" fill="#93c5fd" stroke="#60a5fa" stroke-width="0.5"/><rect x="919.5" y="359.6" width="19.5" height="4.4" fill="#93c5fd" stroke="#60a5fa" stroke-width="0.5"/><rect x="941.0" y="359.5" width="19.5" height="4.5" fill="#93c5fd" stroke="#60a5fa" stroke-width="0.5"/><rect x="962.5" y="359.7" width="19.5" height="4.3" fill="#93c5fd" stroke="#60a5fa" stroke-width="0.5"/><rect x="984.0" y="359.1" width="19.5" height="4.9" fill="#93c5fd" stroke="#60a5fa" stroke-width="0.5"/><rect x="1005.5" y="359.8" width="19.5" height="4.2" fill="#93c5fd" stroke="#60a5fa" stroke-width="0.5"/><rect x="1027.0" y="359.8" width="19.5" height="4.2" fill="#93c5fd" stroke="#60a5fa" stroke-width="0.5"/><rect x="1048.5" y="359.4" width="19.5" height="4.6" fill="#93c5fd" stroke="#60a5fa" stroke-width="0.5"/><rect x="1070.0" y="359.0" width="19.5" height="5.0" fill="#93c5fd" stroke="#60a5fa" stroke-width="0.5"/><rect x="1091.5" y="359.2" width="19.5" height="4.8" fill="#93c5fd" stroke="#60a5fa" stroke-width="0.5"/><rect x="1113.0" y="359.8" width="19.5" height="4.2" fill="#93c5fd" stroke="#60a5fa" stroke-width="0.5"/><rect x="1134.5" y="359.1" width="19.5" height="4.9" fill="#93c5fd" stroke="#60a5fa" stroke-width="0.5"/><rect x="1156.0" y="359.7" width="19.5" height="4.3" fill="#93c5fd" stroke="#60a5fa" stroke-width="0.5"/><rect x="1177.5" y="309.7" width="19.5" height="54.3" fill="#93c5fd" stroke="#60a5fa" stroke-width="0.5"/><polyline fill="none" stroke="#ef4444" stroke-width="2" points="90.8,364.0 112.2,192.0 133.8,190.2 155.2,188.4 176.8,186.5 198.2,185.3 219.8,183.5 241.2,181.6 262.8,180.7 284.2,179.0 305.8,177.2 327.2,175.3 348.8,173.7 370.2,172.1 391.8,170.4 413.2,168.5 434.8,165.8 456.2,163.5 477.8,161.1 499.2,158.7 520.8,156.2 542.2,153.7 563.8,151.4 585.2,149.0 606.8,146.8 628.2,144.1 649.8,141.3 671.2,138.9 692.8,136.8 714.2,134.4 735.8,132.0 757.2,129.5 778.8,126.9 800.2,124.6 821.8,121.7 843.2,119.5 864.8,116.6 886.2,114.5 907.8,112.0 929.2,109.5 950.8,107.1 972.2,104.7 993.8,102.0 1015.2,99.6 1036.8,97.3 1058.2,94.7 1079.8,92.0 1101.2,89.3 1122.8,87.0 1144.2,84.3 1165.8,81.9 1187.2,52.0"/><line x1="90.8" y1="364.0" x2="90.8" y2="370.0" stroke="#111827" stroke-width="1"/><text x="92.8" y="386.0" font-size="11" text-anchor="end" transform="rotate(-35 92.8 386.0)" font-family="sans-serif" fill="#374151">2026-02-17</text><line x1="241.2" y1="364.0" x2="241.2" y2="370.0" stroke="#111827" stroke-width="1"/><text x="243.2" y="386.0" font-size="11" text-anchor="end" transform="rotate(-35 243.2 386.0)" font-family="sans-serif" fill="#374151">2026-03-08</text><line x1="413.2" y1="364.0" x2="413.2" y2="370.0" stroke="#111827" stroke-width="1"/><text x="415.2" y="386.0" font-size="11" text-anchor="end" transform="rotate(-35 415.2 386.0)" font-family="sans-serif" fill="#374151">2026-03-16</text><line x1="563.8" y1="364.0" x2="563.8" y2="370.0" stroke="#111827" stroke-width="1"/><text x="565.8" y="386.0" font-size="11" text-anchor="end" transform="rotate(-35 565.8 386.0)" font-family="sans-serif" fill="#374151">2026-03-23</text><line x1="714.2" y1="364.0" x2="714.2" y2="370.0" stroke="#111827" stroke-width="1"/><text x="716.2" y="386.0" font-size="11" text-anchor="end" transform="rotate(-35 716.2 386.0)" font-family="sans-serif" fill="#374151">2026-03-30</text><line x1="864.8" y1="364.0" x2="864.8" y2="370.0" stroke="#111827" stroke-width="1"/><text x="866.8" y="386.0" font-size="11" text-anchor="end" transform="rotate(-35 866.8 386.0)" font-family="sans-serif" fill="#374151">2026-04-06</text><line x1="1036.8" y1="364.0" x2="1036.8" y2="370.0" stroke="#111827" stroke-width="1"/><text x="1038.8" y="386.0" font-size="11" text-anchor="end" transform="rotate(-35 1038.8 386.0)" font-family="sans-serif" fill="#374151">2026-04-14</text><line x1="1187.2" y1="364.0" x2="1187.2" y2="370.0" stroke="#111827" stroke-width="1"/><text x="1189.2" y="386.0" font-size="11" text-anchor="end" transform="rotate(-35 1189.2 386.0)" font-family="sans-serif" fill="#374151">2026-04-21</text><text x="26" y="208.0" font-size="12" transform="rotate(-90 26 208.0)" text-anchor="middle" font-family="sans-serif" fill="#1f2937">구간별 수</text><text x="1256.0" y="208.0" font-size="12" transform="rotate(90 1256.0 208.0)" text-anchor="middle" font-family="sans-serif" fill="#1f2937">누적</text><text x="639.0" y="442.0" font-size="13" text-anchor="middle" font-family="sans-serif" fill="#111827">일</text></svg>