<svg xmlns="http://www.w3.org/2000/svg" width="1280" height="460" viewBox="0 0 1280 460"><rect x="0" y="0" width="100%" height="100%" fill="#ffffff"/><text x="640.0" y="28" font-size="20" text-anchor="middle" font-family="sans-serif" fill="#111827">이벤트 / 최근 반영 시점 / 일별</text><line x1="80.0" y1="52.0" x2="1198.0" y2="52.0" stroke="#e5e7eb" stroke-width="1"/><text x="72.0" y="56.0" font-size="11" text-anchor="end" font-family="sans-serif" fill="#374151">215,827</text><text x="1206.0" y="56.0" font-size="11" text-anchor="start" font-family="sans-serif" fill="#374151">415,695</text><line x1="80.0" y1="114.4" x2="1198.0" y2="114.4" stroke="#e5e7eb" stroke-width="1"/><text x="72.0" y="118.4" font-size="11" text-anchor="end" font-family="sans-serif" fill="#374151">172,662</text><text x="1206.0" y="118.4" font-size="11" text-anchor="start" font-family="sans-serif" fill="#374151">332,556</text><line x1="80.0" y1="176.8" x2="1198.0" y2="176.8" stroke="#e5e7eb" stroke-width="1"/><text x="72.0" y="180.8" font-size="11" text-anchor="end" font-family="sans-serif" fill="#374151">129,496</text><text x="1206.0" y="180.8" font-size="11" text-anchor="start" font-family="sans-serif" fill="#374151">249,417</text><line x1="80.0" y1="239.2" x2="1198.0" y2="239.2" stroke="#e5e7eb" stroke-width="1"/><text x="72.0" y="243.2" font-size="11" text-anchor="end" font-family="sans-serif" fill="#374151">86,331</text><text x="1206.0" y="243.2" font-size="11" text-anchor="start" font-family="sans-serif" fill="#374151">166,278</text><line x1="80.0" y1="301.6" x2="1198.0" y2="301.6" stroke="#e5e7eb" stroke-width="1"/><text x="72.0" y="305.6" font-size="11" text-anchor="end" font-family="sans-serif" fill="#374151">43,165</text><text x="1206.0" y="305.6" font-size="11" text-anchor="start" font-family="sans-serif" fill="#374151">83,139</text><line x1="80.0" y1="364.0" x2="1198.0" y2="364.0" stroke="#e5e7eb" stroke-width="1"/><text x="72.0" y="368.0" font-size="11" text-anchor="end" font-family="sans-serif" fill="#374151">0</text><text x="1206.0" y="368.0" font-size="11" text-anchor="start" font-family="sans-serif" fill="#374151">0</text><line x1="80.0" y1="364.0" x2="1198.0" y2="364.0" stroke="#111827" stroke-width="1.2"/><line x1="80.0" y1="52.0" x2="80.0" y2="364.0" stroke="#111827" stroke-width="1.2"/><line x1="1198.0" y1="52.0" x2="1198.0" y2="364.0" stroke="#111827" stroke-width="1.2"/><rect x="81.0" y="364.0" width="16.9" height="0.0" fill="#93c5fd" stroke="#60a5fa" stroke-width="0.5"/><rect x="99.9" y="52.0" width="16.9" height="312.0" fill="#93c5fd" stroke="#60a5fa" stroke-width="0.5"/><rect x="118.9" y="360.8" width="16.9" height="3.2" fill="#93c5fd" stroke="#60a5fa" stroke-width="0.5"/><rect x="137.8" y="360.6" width="16.9" height="3.4" fill="#93c5fd" stroke="#60a5fa" stroke-width="0.5"/><rect x="156.8" y="360.6" width="16.9" height="3.4" fill="#93c5fd" stroke="#60a5fa" stroke-width="0.5"/><rect x="175.7" y="361.8" width="16.9" height="2.2" fill="#93c5fd" stroke="#60a5fa" stroke-width="0.5"/><rect x="194.7" y="360.7" width="16.9" height="3.3" fill="#93c5fd" stroke="#60a5fa" stroke-width="0.5"/><rect x="213.6" y="360.6" width="16.9" height="3.4" fill="#93c5fd" stroke="#60a5fa" stroke-width="0.5"/><rect x="232.6" y="362.5" width="16.9" height="1.5" fill="#93c5fd" stroke="#60a5fa" stroke-width="0.5"/><rect x="251.5" y="360.9" width="16.9" height="3.1" fill="#93c5fd" stroke="#60a5fa" stroke-width="0.5"/><rect x="270.5" y="360.6" width="16.9" height="3.4" fill="#93c5fd" stroke="#60a5fa" stroke-width="0.5"/><rect x="289.4" y="360.7" width="16.9" height="3.3" fill="#93c5fd" stroke="#60a5fa" stroke-width="0.5"/><rect x="308.4" y="361.1" width="16.9" height="2.9" fill="#93c5fd" stroke="#60a5fa" stroke-width="0.5"/><rect x="327.3" y="360.9" width="16.9" height="3.1" fill="#93c5fd" stroke="#60a5fa" stroke-width="0.5"/><rect x="346.3" y="361.0" width="16.9" height="3.0" fill="#93c5fd" stroke="#60a5fa" stroke-width="0.5"/><rect x="365.2" y="360.5" width="16.9" height="3.5" fill="#93c5fd" stroke="#60a5fa" stroke-width="0.5"/><rect x="384.2" y="359.2" width="16.9" height="4.8" fill="#93c5fd" stroke="#60a5fa" stroke-width="0.5"/><rect x="403.1" y="359.8" width="16.9" height="4.2" fill="#93c5fd" stroke="#60a5fa" stroke-width="0.5"/><rect x="422.1" y="359.6" width="16.9" height="4.4" fill="#93c5fd" stroke="#60a5fa" stroke-width="0.5"/><rect x="441.0" y="359.6" width="16.9" height="4.4" fill="#93c5fd" stroke="#60a5fa" stroke-width="0.5"/><rect x="460.0" y="359.4" width="16.9" height="4.6" fill="#93c5fd" stroke="#60a5fa" stroke-width="0.5"/><rect x="478.9" y="359.6" width="16.9" height="4.4" fill="#93c5fd" stroke="#60a5fa" stroke-width="0.5"/><rect x="497.9" y="359.8" width="16.9" height="4.2" fill="#93c5fd" stroke="#60a5fa" stroke-width="0.5"/><rect x="516.8" y="359.6" width="16.9" height="4.4" fill="#93c5fd" stroke="#60a5fa" stroke-width="0.5"/><rect x="535.8" y="359.9" width="16.9" height="4.1" fill="#93c5fd" stroke="#60a5fa" stroke-width="0.5"/><rect x="554.7" y="359.2" width="16.9" height="4.8" fill="#93c5fd" stroke="#60a5fa" stroke-width="0.5"/><rect x="573.7" y="358.9" width="16.9" height="5.1" fill="#93c5fd" stroke="#60a5fa" stroke-width="0.5"/><rect x="592.6" y="359.7" width="16.9" height="4.3" fill="#93c5fd" stroke="#60a5fa" stroke-width="0.5"/><rect x="611.6" y="360.2" width="16.9" height="3.8" fill="#93c5fd" stroke="#60a5fa" stroke-width="0.5"/><rect x="630.5" y="359.7" width="16.9" height="4.3" fill="#93c5fd" stroke="#60a5fa" stroke-width="0.5"/><rect x="649.5" y="359.6" width="16.9" height="4.4" fill="#93c5fd" stroke="#60a5fa" stroke-width="0.5"/><rect x="668.4" y="359.4" width="16.9" height="4.6" fill="#93c5fd" stroke="#60a5fa" stroke-width="0.5"/><rect x="687.4" y="359.4" width="16.9" height="4.6" fill="#93c5fd" stroke="#60a5fa" stroke-width="0.5"/><rect x="706.3" y="359.8" width="16.9" height="4.2" fill="#93c5fd" stroke="#60a5fa" stroke-width="0.5"/><rect x="725.3" y="358.8" width="16.9" height="5.2" fill="#93c5fd" stroke="#60a5fa" stroke-width="0.5"/><rect x="744.2" y="360.0" width="16.9" height="4.0" fill="#93c5fd" stroke="#60a5fa" stroke-width="0.5"/><rect x="763.2" y="358.7" width="16.9" height="5.3" fill="#93c5fd" stroke="#60a5fa" stroke-width="0.5"/><rect x="782.1" y="360.1" width="16.9" height="3.9" fill="#93c5fd" stroke="#60a5fa" stroke-width="0.5"/><rect x="801.1" y="359.5" width="16.9" height="4.5" fill="#93c5fd" stroke="#60a5fa" stroke-width="0.5"/><rect x="820.0" y="359.6" width="16.9" height="4.4" fill="#93c5fd" stroke="#60a5fa" stroke-width="0.5"/><rect x="839.0" y="359.5" width="16.9" height="4.5" fill="#93c5fd" stroke="#60a5fa" stroke-width="0.5"/><rect x="857.9" y="359.7" width="16.9" height="4.3" fill="#93c5fd" stroke="#60a5fa" stroke-width="0.5"/><rect x="876.9" y="359.1" width="16.9" height="4.9" fill="#93c5fd" stroke="#60a5fa" stroke-width="0.5"/><rect x="895.8" y="359.8" width="16.9" height="4.2" fill="#93c5fd" stroke="#60a5fa" stroke-width="0.5"/><rect x="914.8" y="359.8" width="16.9" height="4.2" fill="#93c5fd" stroke="#60a5fa" stroke-width="0.5"/><rect x="933.7" y="359.4" width="16.9" height="4.6" fill="#93c5fd" stroke="#60a5fa" stroke-width="0.5"/><rect x="952.7" y="359.0" width="16.9" height="5.0" fill="#93c5fd" stroke="#60a5fa" stroke-width="0.5"/><rect x="971.6" y="359.2" width="16.9" height="4.8" fill="#93c5fd" stroke="#60a5fa" stroke-width="0.5"/><rect x="990.6" y="359.8" width="16.9" height="4.2" fill="#93c5fd" stroke="#60a5fa" stroke-width="0.5"/><rect x="1009.5" y="359.1" width="16.9" height="4.9" fill="#93c5fd" stroke="#60a5fa" stroke-width="0.5"/><rect x="1028.5" y="359.7" width="16.9" height="4.3" fill="#93c5fd" stroke="#60a5fa" stroke-width="0.5"/><rect x="1047.4" y="359.6" width="16.9" height="4.4" fill="#93c5fd" stroke="#60a5fa" stroke-width="0.5"/><rect x="1066.4" y="359.1" width="16.9" height="4.9" fill="#93c5fd" stroke="#60a5fa" stroke-width="0.5"/><rect x="1085.3" y="359.2" width="16.9" height="4.8" fill="#93c5fd" stroke="#60a5fa" stroke-width="0.5"/><rect x="1104.3" y="359.4" width="16.9" height="4.6" fill="#93c5fd" stroke="#60a5fa" stroke-width="0.5"/><rect x="1123.2" y="359.3" width="16.9" height="4.7" fill="#93c5fd" stroke="#60a5fa" stroke-width="0.5"/><rect x="1142.2" y="359.3" width="16.9" height="4.7" fill="#93c5fd" stroke="#60a5fa" stroke-width="0.5"/><rect x="1161.1" y="359.2" width="16.9" height="4.8" fill="#93c5fd" stroke="#60a5fa" stroke-width="0.5"/><rect x="1180.1" y="307.4" width="16.9" height="56.6" fill="#93c5fd" stroke="#60a5fa" stroke-width="0.5"/><polyline fill="none" stroke="#ef4444" stroke-width="2" points="89.5,364.0 108.4,202.0 127.4,200.3 146.3,198.6 165.3,196.8 184.2,195.7 203.2,193.9 222.1,192.2 241.1,191.4 260.0,189.8 279.0,188.0 297.9,186.3 316.9,184.8 335.8,183.2 354.8,181.6 373.7,179.8 392.7,177.3 411.6,175.2 430.6,172.9 449.5,170.6 468.5,168.2 487.4,165.9 506.4,163.8 525.3,161.5 544.3,159.4 563.2,156.9 582.2,154.3 601.1,152.0 620.1,150.0 639.0,147.8 657.9,145.5 676.9,143.1 695.8,140.7 714.8,138.5 733.7,135.8 752.7,133.7 771.6,131.0 790.6,128.9 809.5,126.6 828.5,124.3 847.4,122.0 866.4,119.7 885.3,117.2 904.3,115.0 923.2,112.8 942.2,110.4 961.1,107.8 980.1,105.3 999.0,103.1 1018.0,100.6 1036.9,98.4 1055.9,96.1 1074.8,93.5 1093.8,91.0 1112.7,88.7 1131.7,86.2 1150.6,83.8 1169.6,81.4 1188.5,52.0"/><line x1="89.5" y1="364.0" x2="89.5" y2="370.0" stroke="#111827" stroke-width="1"/><text x="91.5" y="386.0" font-size="11" text-anchor="end" transform="rotate(-35 91.5 386.0)" font-family="sans-serif" fill="#374151">2026-02-17</text><line x1="241.1" y1="364.0" x2="241.1" y2="370.0" stroke="#111827" stroke-width="1"/><text x="243.1" y="386.0" font-size="11" text-anchor="end" transform="rotate(-35 243.1 386.0)" font-family="sans-serif" fill="#374151">2026-03-09</text><line x1="411.6" y1="364.0" x2="411.6" y2="370.0" stroke="#111827" stroke-width="1"/><text x="413.6" y="386.0" font-size="11" text-anchor="end" transform="rotate(-35 413.6 386.0)" font-family="sans-serif" fill="#374151">2026-03-18</text><line x1="563.2" y1="364.0" x2="563.2" y2="370.0" stroke="#111827" stroke-width="1"/><text x="565.2" y="386.0" font-size="11" text-anchor="end" transform="rotate(-35 565.2 386.0)" font-family="sans-serif" fill="#374151">2026-03-26</text><line x1="714.8" y1="364.0" x2="714.8" y2="370.0" stroke="#111827" stroke-width="1"/><text x="716.8" y="386.0" font-size="11" text-anchor="end" transform="rotate(-35 716.8 386.0)" font-family="sans-serif" fill="#374151">2026-04-03</text><line x1="866.4" y1="364.0" x2="866.4" y2="370.0" stroke="#111827" stroke-width="1"/><text x="868.4" y="386.0" font-size="11" text-anchor="end" transform="rotate(-35 868.4 386.0)" font-family="sans-serif" fill="#374151">2026-04-11</text><line x1="1036.9" y1="364.0" x2="1036.9" y2="370.0" stroke="#111827" stroke-width="1"/><text x="1038.9" y="386.0" font-size="11" text-anchor="end" transform="rotate(-35 1038.9 386.0)" font-family="sans-serif" fill="#374151">2026-04-20</text><line x1="1188.5" y1="364.0" x2="1188.5" y2="370.0" stroke="#111827" stroke-width="1"/><text x="1190.5" y="386.0" font-size="11" text-anchor="end" transform="rotate(-35 1190.5 386.0)" font-family="sans-serif" fill="#374151">2026-04-28</text><text x="26" y="208.0" font-size="12" transform="rotate(-90 26 208.0)" text-anchor="middle" font-family="sans-serif" fill="#1f2937">구간별 수</text><text x="1256.0" y="208.0" font-size="12" transform="rotate(90 1256.0 208.0)" text-anchor="middle" font-family="sans-serif" fill="#1f2937">누적</text><text x="639.0" y="442.0" font-size="13" text-anchor="middle" font-family="sans-serif" fill="#111827">일</text></svg>