<svg xmlns="http://www.w3.org/2000/svg" width="1280" height="460" viewBox="0 0 1280 460"><rect x="0" y="0" width="100%" height="100%" fill="#ffffff"/><text x="640.0" y="28" font-size="20" text-anchor="middle" font-family="sans-serif" fill="#111827">이벤트 / 생성 시점 / 월별</text><line x1="80.0" y1="52.0" x2="1198.0" y2="52.0" stroke="#e5e7eb" stroke-width="1"/><text x="72.0" y="56.0" font-size="11" text-anchor="end" font-family="sans-serif" fill="#374151">92,192</text><text x="1206.0" y="56.0" font-size="11" text-anchor="start" font-family="sans-serif" fill="#374151">403,619</text><line x1="80.0" y1="114.4" x2="1198.0" y2="114.4" stroke="#e5e7eb" stroke-width="1"/><text x="72.0" y="118.4" font-size="11" text-anchor="end" font-family="sans-serif" fill="#374151">73,754</text><text x="1206.0" y="118.4" font-size="11" text-anchor="start" font-family="sans-serif" fill="#374151">322,895</text><line x1="80.0" y1="176.8" x2="1198.0" y2="176.8" stroke="#e5e7eb" stroke-width="1"/><text x="72.0" y="180.8" font-size="11" text-anchor="end" font-family="sans-serif" fill="#374151">55,315</text><text x="1206.0" y="180.8" font-size="11" text-anchor="start" font-family="sans-serif" fill="#374151">242,171</text><line x1="80.0" y1="239.2" x2="1198.0" y2="239.2" stroke="#e5e7eb" stroke-width="1"/><text x="72.0" y="243.2" font-size="11" text-anchor="end" font-family="sans-serif" fill="#374151">36,877</text><text x="1206.0" y="243.2" font-size="11" text-anchor="start" font-family="sans-serif" fill="#374151">161,448</text><line x1="80.0" y1="301.6" x2="1198.0" y2="301.6" stroke="#e5e7eb" stroke-width="1"/><text x="72.0" y="305.6" font-size="11" text-anchor="end" font-family="sans-serif" fill="#374151">18,438</text><text x="1206.0" y="305.6" font-size="11" text-anchor="start" font-family="sans-serif" fill="#374151">80,724</text><line x1="80.0" y1="364.0" x2="1198.0" y2="364.0" stroke="#e5e7eb" stroke-width="1"/><text x="72.0" y="368.0" font-size="11" text-anchor="end" font-family="sans-serif" fill="#374151">0</text><text x="1206.0" y="368.0" font-size="11" text-anchor="start" font-family="sans-serif" fill="#374151">0</text><line x1="80.0" y1="364.0" x2="1198.0" y2="364.0" stroke="#111827" stroke-width="1.2"/><line x1="80.0" y1="52.0" x2="80.0" y2="364.0" stroke="#111827" stroke-width="1.2"/><line x1="1198.0" y1="52.0" x2="1198.0" y2="364.0" stroke="#111827" stroke-width="1.2"/><rect x="81.0" y="354.5" width="22.3" height="9.5" fill="#93c5fd" stroke="#60a5fa" stroke-width="0.5"/><rect x="105.3" y="363.5" width="22.3" height="0.5" fill="#93c5fd" stroke="#60a5fa" stroke-width="0.5"/><rect x="129.6" y="363.8" width="22.3" height="0.2" fill="#93c5fd" stroke="#60a5fa" stroke-width="0.5"/><rect x="153.9" y="363.8" width="22.3" height="0.2" fill="#93c5fd" stroke="#60a5fa" stroke-width="0.5"/><rect x="178.2" y="363.8" width="22.3" height="0.2" fill="#93c5fd" stroke="#60a5fa" stroke-width="0.5"/><rect x="202.5" y="363.9" width="22.3" height="0.1" fill="#93c5fd" stroke="#60a5fa" stroke-width="0.5"/><rect x="226.8" y="363.9" width="22.3" height="0.1" fill="#93c5fd" stroke="#60a5fa" stroke-width="0.5"/><rect x="251.1" y="363.7" width="22.3" height="0.3" fill="#93c5fd" stroke="#60a5fa" stroke-width="0.5"/><rect x="275.4" y="363.4" width="22.3" height="0.6" fill="#93c5fd" stroke="#60a5fa" stroke-width="0.5"/><rect x="299.7" y="363.4" width="22.3" height="0.6" fill="#93c5fd" stroke="#60a5fa" stroke-width="0.5"/><rect x="324.0" y="363.5" width="22.3" height="0.5" fill="#93c5fd" stroke="#60a5fa" stroke-width="0.5"/><rect x="348.3" y="363.8" width="22.3" height="0.2" fill="#93c5fd" stroke="#60a5fa" stroke-width="0.5"/><rect x="372.7" y="363.7" width="22.3" height="0.3" fill="#93c5fd" stroke="#60a5fa" stroke-width="0.5"/><rect x="397.0" y="363.6" width="22.3" height="0.4" fill="#93c5fd" stroke="#60a5fa" stroke-width="0.5"/><rect x="421.3" y="363.6" width="22.3" height="0.4" fill="#93c5fd" stroke="#60a5fa" stroke-width="0.5"/><rect x="445.6" y="363.5" width="22.3" height="0.5" fill="#93c5fd" stroke="#60a5fa" stroke-width="0.5"/><rect x="469.9" y="363.6" width="22.3" height="0.4" fill="#93c5fd" stroke="#60a5fa" stroke-width="0.5"/><rect x="494.2" y="363.4" width="22.3" height="0.6" fill="#93c5fd" stroke="#60a5fa" stroke-width="0.5"/><rect x="518.5" y="363.4" width="22.3" height="0.6" fill="#93c5fd" stroke="#60a5fa" stroke-width="0.5"/><rect x="542.8" y="363.4" width="22.3" height="0.6" fill="#93c5fd" stroke="#60a5fa" stroke-width="0.5"/><rect x="567.1" y="363.1" width="22.3" height="0.9" fill="#93c5fd" stroke="#60a5fa" stroke-width="0.5"/><rect x="591.4" y="363.1" width="22.3" height="0.9" fill="#93c5fd" stroke="#60a5fa" stroke-width="0.5"/><rect x="615.7" y="363.0" width="22.3" height="1.0" fill="#93c5fd" stroke="#60a5fa" stroke-width="0.5"/><rect x="640.0" y="362.7" width="22.3" height="1.3" fill="#93c5fd" stroke="#60a5fa" stroke-width="0.5"/><rect x="664.3" y="362.7" width="22.3" height="1.3" fill="#93c5fd" stroke="#60a5fa" stroke-width="0.5"/><rect x="688.6" y="362.4" width="22.3" height="1.6" fill="#93c5fd" stroke="#60a5fa" stroke-width="0.5"/><rect x="712.9" y="362.1" width="22.3" height="1.9" fill="#93c5fd" stroke="#60a5fa" stroke-width="0.5"/><rect x="737.2" y="361.0" width="22.3" height="3.0" fill="#93c5fd" stroke="#60a5fa" stroke-width="0.5"/><rect x="761.5" y="361.0" width="22.3" height="3.0" fill="#93c5fd" stroke="#60a5fa" stroke-width="0.5"/><rect x="785.8" y="359.9" width="22.3" height="4.1" fill="#93c5fd" stroke="#60a5fa" stroke-width="0.5"/><rect x="810.1" y="359.8" width="22.3" height="4.2" fill="#93c5fd" stroke="#60a5fa" stroke-width="0.5"/><rect x="834.4" y="356.3" width="22.3" height="7.7" fill="#93c5fd" stroke="#60a5fa" stroke-width="0.5"/><rect x="858.7" y="357.7" width="22.3" height="6.3" fill="#93c5fd" stroke="#60a5fa" stroke-width="0.5"/><rect x="883.0" y="358.5" width="22.3" height="5.5" fill="#93c5fd" stroke="#60a5fa" stroke-width="0.5"/><rect x="907.3" y="358.1" width="22.3" height="5.9" fill="#93c5fd" stroke="#60a5fa" stroke-width="0.5"/><rect x="931.7" y="349.1" width="22.3" height="14.9" fill="#93c5fd" stroke="#60a5fa" stroke-width="0.5"/><rect x="956.0" y="349.4" width="22.3" height="14.6" fill="#93c5fd" stroke="#60a5fa" stroke-width="0.5"/><rect x="980.3" y="345.6" width="22.3" height="18.4" fill="#93c5fd" stroke="#60a5fa" stroke-width="0.5"/><rect x="1004.6" y="325.9" width="22.3" height="38.1" fill="#93c5fd" stroke="#60a5fa" stroke-width="0.5"/><rect x="1028.9" y="305.8" width="22.3" height="58.2" fill="#93c5fd" stroke="#60a5fa" stroke-width="0.5"/><rect x="1053.2" y="282.8" width="22.3" height="81.2" fill="#93c5fd" stroke="#60a5fa" stroke-width="0.5"/><rect x="1077.5" y="225.9" width="22.3" height="138.1" fill="#93c5fd" stroke="#60a5fa" stroke-width="0.5"/><rect x="1101.8" y="166.5" width="22.3" height="197.5" fill="#93c5fd" stroke="#60a5fa" stroke-width="0.5"/><rect x="1126.1" y="219.7" width="22.3" height="144.3" fill="#93c5fd" stroke="#60a5fa" stroke-width="0.5"/><rect x="1150.4" y="52.0" width="22.3" height="312.0" fill="#93c5fd" stroke="#60a5fa" stroke-width="0.5"/><rect x="1174.7" y="80.6" width="22.3" height="283.4" fill="#93c5fd" stroke="#60a5fa" stroke-width="0.5"/><polyline fill="none" stroke="#ef4444" stroke-width="2" points="92.2,361.8 116.5,361.7 140.8,361.7 165.1,361.6 189.4,361.6 213.7,361.5 238.0,361.5 262.3,361.4 286.6,361.3 310.9,361.2 335.2,361.1 359.5,361.0 383.8,361.0 408.1,360.9 432.4,360.8 456.7,360.7 481.0,360.6 505.3,360.4 529.6,360.3 553.9,360.2 578.2,360.0 602.5,359.8 626.8,359.6 651.2,359.3 675.5,359.0 699.8,358.6 724.1,358.2 748.4,357.5 772.7,356.8 797.0,355.9 821.3,354.9 845.6,353.2 869.9,351.7 894.2,350.5 918.5,349.1 942.8,345.7 967.1,342.4 991.4,338.2 1015.7,329.4 1040.0,316.2 1064.3,297.6 1088.6,266.1 1112.9,221.0 1137.2,188.0 1161.5,116.7 1185.8,52.0"/><line x1="92.2" y1="364.0" x2="92.2" y2="370.0" stroke="#111827" stroke-width="1"/><text x="94.2" y="386.0" font-size="11" text-anchor="end" transform="rotate(-35 94.2 386.0)" font-family="sans-serif" fill="#374151">2022-07</text><line x1="238.0" y1="364.0" x2="238.0" y2="370.0" stroke="#111827" stroke-width="1"/><text x="240.0" y="386.0" font-size="11" text-anchor="end" transform="rotate(-35 240.0 386.0)" font-family="sans-serif" fill="#374151">2023-01</text><line x1="408.1" y1="364.0" x2="408.1" y2="370.0" stroke="#111827" stroke-width="1"/><text x="410.1" y="386.0" font-size="11" text-anchor="end" transform="rotate(-35 410.1 386.0)" font-family="sans-serif" fill="#374151">2023-08</text><line x1="553.9" y1="364.0" x2="553.9" y2="370.0" stroke="#111827" stroke-width="1"/><text x="555.9" y="386.0" font-size="11" text-anchor="end" transform="rotate(-35 555.9 386.0)" font-family="sans-serif" fill="#374151">2024-02</text><line x1="724.1" y1="364.0" x2="724.1" y2="370.0" stroke="#111827" stroke-width="1"/><text x="726.1" y="386.0" font-size="11" text-anchor="end" transform="rotate(-35 726.1 386.0)" font-family="sans-serif" fill="#374151">2024-09</text><line x1="869.9" y1="364.0" x2="869.9" y2="370.0" stroke="#111827" stroke-width="1"/><text x="871.9" y="386.0" font-size="11" text-anchor="end" transform="rotate(-35 871.9 386.0)" font-family="sans-serif" fill="#374151">2025-03</text><line x1="1040.0" y1="364.0" x2="1040.0" y2="370.0" stroke="#111827" stroke-width="1"/><text x="1042.0" y="386.0" font-size="11" text-anchor="end" transform="rotate(-35 1042.0 386.0)" font-family="sans-serif" fill="#374151">2025-10</text><line x1="1185.8" y1="364.0" x2="1185.8" y2="370.0" stroke="#111827" stroke-width="1"/><text x="1187.8" y="386.0" font-size="11" text-anchor="end" transform="rotate(-35 1187.8 386.0)" font-family="sans-serif" fill="#374151">2026-04</text><text x="26" y="208.0" font-size="12" transform="rotate(-90 26 208.0)" text-anchor="middle" font-family="sans-serif" fill="#1f2937">구간별 수</text><text x="1256.0" y="208.0" font-size="12" transform="rotate(90 1256.0 208.0)" text-anchor="middle" font-family="sans-serif" fill="#1f2937">누적</text><text x="639.0" y="442.0" font-size="13" text-anchor="middle" font-family="sans-serif" fill="#111827">월</text></svg>