<svg xmlns="http://www.w3.org/2000/svg" width="1280" height="460" viewBox="0 0 1280 460"><rect x="0" y="0" width="100%" height="100%" fill="#ffffff"/><text x="640.0" y="28" font-size="20" text-anchor="middle" font-family="sans-serif" fill="#111827">이벤트 / 최근 반영 시점 / 일별</text><line x1="80.0" y1="52.0" x2="1198.0" y2="52.0" stroke="#e5e7eb" stroke-width="1"/><text x="72.0" y="56.0" font-size="11" text-anchor="end" font-family="sans-serif" fill="#374151">215,899</text><text x="1206.0" y="56.0" font-size="11" text-anchor="start" font-family="sans-serif" fill="#374151">365,422</text><line x1="80.0" y1="114.4" x2="1198.0" y2="114.4" stroke="#e5e7eb" stroke-width="1"/><text x="72.0" y="118.4" font-size="11" text-anchor="end" font-family="sans-serif" fill="#374151">172,719</text><text x="1206.0" y="118.4" font-size="11" text-anchor="start" font-family="sans-serif" fill="#374151">292,338</text><line x1="80.0" y1="176.8" x2="1198.0" y2="176.8" stroke="#e5e7eb" stroke-width="1"/><text x="72.0" y="180.8" font-size="11" text-anchor="end" font-family="sans-serif" fill="#374151">129,539</text><text x="1206.0" y="180.8" font-size="11" text-anchor="start" font-family="sans-serif" fill="#374151">219,253</text><line x1="80.0" y1="239.2" x2="1198.0" y2="239.2" stroke="#e5e7eb" stroke-width="1"/><text x="72.0" y="243.2" font-size="11" text-anchor="end" font-family="sans-serif" fill="#374151">86,360</text><text x="1206.0" y="243.2" font-size="11" text-anchor="start" font-family="sans-serif" fill="#374151">146,169</text><line x1="80.0" y1="301.6" x2="1198.0" y2="301.6" stroke="#e5e7eb" stroke-width="1"/><text x="72.0" y="305.6" font-size="11" text-anchor="end" font-family="sans-serif" fill="#374151">43,180</text><text x="1206.0" y="305.6" font-size="11" text-anchor="start" font-family="sans-serif" fill="#374151">73,084</text><line x1="80.0" y1="364.0" x2="1198.0" y2="364.0" stroke="#e5e7eb" stroke-width="1"/><text x="72.0" y="368.0" font-size="11" text-anchor="end" font-family="sans-serif" fill="#374151">0</text><text x="1206.0" y="368.0" font-size="11" text-anchor="start" font-family="sans-serif" fill="#374151">0</text><line x1="80.0" y1="364.0" x2="1198.0" y2="364.0" stroke="#111827" stroke-width="1.2"/><line x1="80.0" y1="52.0" x2="80.0" y2="364.0" stroke="#111827" stroke-width="1.2"/><line x1="1198.0" y1="52.0" x2="1198.0" y2="364.0" stroke="#111827" stroke-width="1.2"/><rect x="81.0" y="364.0" width="23.4" height="0.0" fill="#93c5fd" stroke="#60a5fa" stroke-width="0.5"/><rect x="106.4" y="52.0" width="23.4" height="312.0" fill="#93c5fd" stroke="#60a5fa" stroke-width="0.5"/><rect x="131.8" y="360.8" width="23.4" height="3.2" fill="#93c5fd" stroke="#60a5fa" stroke-width="0.5"/><rect x="157.2" y="360.6" width="23.4" height="3.4" fill="#93c5fd" stroke="#60a5fa" stroke-width="0.5"/><rect x="182.6" y="360.6" width="23.4" height="3.4" fill="#93c5fd" stroke="#60a5fa" stroke-width="0.5"/><rect x="208.0" y="361.8" width="23.4" height="2.2" fill="#93c5fd" stroke="#60a5fa" stroke-width="0.5"/><rect x="233.5" y="360.7" width="23.4" height="3.3" fill="#93c5fd" stroke="#60a5fa" stroke-width="0.5"/><rect x="258.9" y="360.6" width="23.4" height="3.4" fill="#93c5fd" stroke="#60a5fa" stroke-width="0.5"/><rect x="284.3" y="362.5" width="23.4" height="1.5" fill="#93c5fd" stroke="#60a5fa" stroke-width="0.5"/><rect x="309.7" y="360.9" width="23.4" height="3.1" fill="#93c5fd" stroke="#60a5fa" stroke-width="0.5"/><rect x="335.1" y="360.6" width="23.4" height="3.4" fill="#93c5fd" stroke="#60a5fa" stroke-width="0.5"/><rect x="360.5" y="360.7" width="23.4" height="3.3" fill="#93c5fd" stroke="#60a5fa" stroke-width="0.5"/><rect x="385.9" y="361.1" width="23.4" height="2.9" fill="#93c5fd" stroke="#60a5fa" stroke-width="0.5"/><rect x="411.3" y="360.9" width="23.4" height="3.1" fill="#93c5fd" stroke="#60a5fa" stroke-width="0.5"/><rect x="436.7" y="361.0" width="23.4" height="3.0" fill="#93c5fd" stroke="#60a5fa" stroke-width="0.5"/><rect x="462.1" y="360.5" width="23.4" height="3.5" fill="#93c5fd" stroke="#60a5fa" stroke-width="0.5"/><rect x="487.5" y="359.2" width="23.4" height="4.8" fill="#93c5fd" stroke="#60a5fa" stroke-width="0.5"/><rect x="513.0" y="359.8" width="23.4" height="4.2" fill="#93c5fd" stroke="#60a5fa" stroke-width="0.5"/><rect x="538.4" y="359.7" width="23.4" height="4.3" fill="#93c5fd" stroke="#60a5fa" stroke-width="0.5"/><rect x="563.8" y="359.6" width="23.4" height="4.4" fill="#93c5fd" stroke="#60a5fa" stroke-width="0.5"/><rect x="589.2" y="359.4" width="23.4" height="4.6" fill="#93c5fd" stroke="#60a5fa" stroke-width="0.5"/><rect x="614.6" y="359.6" width="23.4" height="4.4" fill="#93c5fd" stroke="#60a5fa" stroke-width="0.5"/><rect x="640.0" y="359.8" width="23.4" height="4.2" fill="#93c5fd" stroke="#60a5fa" stroke-width="0.5"/><rect x="665.4" y="359.6" width="23.4" height="4.4" fill="#93c5fd" stroke="#60a5fa" stroke-width="0.5"/><rect x="690.8" y="359.9" width="23.4" height="4.1" fill="#93c5fd" stroke="#60a5fa" stroke-width="0.5"/><rect x="716.2" y="359.2" width="23.4" height="4.8" fill="#93c5fd" stroke="#60a5fa" stroke-width="0.5"/><rect x="741.6" y="358.9" width="23.4" height="5.1" fill="#93c5fd" stroke="#60a5fa" stroke-width="0.5"/><rect x="767.0" y="359.7" width="23.4" height="4.3" fill="#93c5fd" stroke="#60a5fa" stroke-width="0.5"/><rect x="792.5" y="360.2" width="23.4" height="3.8" fill="#93c5fd" stroke="#60a5fa" stroke-width="0.5"/><rect x="817.9" y="359.7" width="23.4" height="4.3" fill="#93c5fd" stroke="#60a5fa" stroke-width="0.5"/><rect x="843.3" y="359.6" width="23.4" height="4.4" fill="#93c5fd" stroke="#60a5fa" stroke-width="0.5"/><rect x="868.7" y="359.4" width="23.4" height="4.6" fill="#93c5fd" stroke="#60a5fa" stroke-width="0.5"/><rect x="894.1" y="359.3" width="23.4" height="4.7" fill="#93c5fd" stroke="#60a5fa" stroke-width="0.5"/><rect x="919.5" y="359.8" width="23.4" height="4.2" fill="#93c5fd" stroke="#60a5fa" stroke-width="0.5"/><rect x="944.9" y="358.8" width="23.4" height="5.2" fill="#93c5fd" stroke="#60a5fa" stroke-width="0.5"/><rect x="970.3" y="360.0" width="23.4" height="4.0" fill="#93c5fd" stroke="#60a5fa" stroke-width="0.5"/><rect x="995.7" y="358.7" width="23.4" height="5.3" fill="#93c5fd" stroke="#60a5fa" stroke-width="0.5"/><rect x="1021.1" y="360.1" width="23.4" height="3.9" fill="#93c5fd" stroke="#60a5fa" stroke-width="0.5"/><rect x="1046.5" y="359.5" width="23.4" height="4.5" fill="#93c5fd" stroke="#60a5fa" stroke-width="0.5"/><rect x="1072.0" y="359.6" width="23.4" height="4.4" fill="#93c5fd" stroke="#60a5fa" stroke-width="0.5"/><rect x="1097.4" y="359.5" width="23.4" height="4.5" fill="#93c5fd" stroke="#60a5fa" stroke-width="0.5"/><rect x="1122.8" y="359.6" width="23.4" height="4.4" fill="#93c5fd" stroke="#60a5fa" stroke-width="0.5"/><rect x="1148.2" y="359.0" width="23.4" height="5.0" fill="#93c5fd" stroke="#60a5fa" stroke-width="0.5"/><rect x="1173.6" y="311.5" width="23.4" height="52.5" fill="#93c5fd" stroke="#60a5fa" stroke-width="0.5"/><polyline fill="none" stroke="#ef4444" stroke-width="2" points="92.7,364.0 118.1,179.7 143.5,177.7 168.9,175.7 194.3,173.7 219.8,172.4 245.2,170.5 270.6,168.5 296.0,167.6 321.4,165.7 346.8,163.7 372.2,161.8 397.6,160.1 423.0,158.3 448.4,156.5 473.8,154.4 499.2,151.6 524.7,149.1 550.1,146.6 575.5,143.9 600.9,141.2 626.3,138.6 651.7,136.1 677.1,133.6 702.5,131.2 727.9,128.3 753.3,125.3 778.8,122.8 804.2,120.5 829.6,117.9 855.0,115.3 880.4,112.6 905.8,109.9 931.2,107.4 956.6,104.3 982.0,101.9 1007.4,98.8 1032.8,96.5 1058.2,93.8 1083.7,91.2 1109.1,88.6 1134.5,86.0 1159.9,83.0 1185.3,52.0"/><line x1="92.7" y1="364.0" x2="92.7" y2="370.0" stroke="#111827" stroke-width="1"/><text x="94.7" y="386.0" font-size="11" text-anchor="end" transform="rotate(-35 94.7 386.0)" font-family="sans-serif" fill="#374151">2026-02-17</text><line x1="245.2" y1="364.0" x2="245.2" y2="370.0" stroke="#111827" stroke-width="1"/><text x="247.2" y="386.0" font-size="11" text-anchor="end" transform="rotate(-35 247.2 386.0)" font-family="sans-serif" fill="#374151">2026-03-07</text><line x1="397.6" y1="364.0" x2="397.6" y2="370.0" stroke="#111827" stroke-width="1"/><text x="399.6" y="386.0" font-size="11" text-anchor="end" transform="rotate(-35 399.6 386.0)" font-family="sans-serif" fill="#374151">2026-03-13</text><line x1="550.1" y1="364.0" x2="550.1" y2="370.0" stroke="#111827" stroke-width="1"/><text x="552.1" y="386.0" font-size="11" text-anchor="end" transform="rotate(-35 552.1 386.0)" font-family="sans-serif" fill="#374151">2026-03-19</text><line x1="727.9" y1="364.0" x2="727.9" y2="370.0" stroke="#111827" stroke-width="1"/><text x="729.9" y="386.0" font-size="11" text-anchor="end" transform="rotate(-35 729.9 386.0)" font-family="sans-serif" fill="#374151">2026-03-26</text><line x1="880.4" y1="364.0" x2="880.4" y2="370.0" stroke="#111827" stroke-width="1"/><text x="882.4" y="386.0" font-size="11" text-anchor="end" transform="rotate(-35 882.4 386.0)" font-family="sans-serif" fill="#374151">2026-04-01</text><line x1="1032.8" y1="364.0" x2="1032.8" y2="370.0" stroke="#111827" stroke-width="1"/><text x="1034.8" y="386.0" font-size="11" text-anchor="end" transform="rotate(-35 1034.8 386.0)" font-family="sans-serif" fill="#374151">2026-04-07</text><line x1="1185.3" y1="364.0" x2="1185.3" y2="370.0" stroke="#111827" stroke-width="1"/><text x="1187.3" y="386.0" font-size="11" text-anchor="end" transform="rotate(-35 1187.3 386.0)" font-family="sans-serif" fill="#374151">2026-04-13</text><text x="26" y="208.0" font-size="12" transform="rotate(-90 26 208.0)" text-anchor="middle" font-family="sans-serif" fill="#1f2937">구간별 수</text><text x="1256.0" y="208.0" font-size="12" transform="rotate(90 1256.0 208.0)" text-anchor="middle" font-family="sans-serif" fill="#1f2937">누적</text><text x="639.0" y="442.0" font-size="13" text-anchor="middle" font-family="sans-serif" fill="#111827">일</text></svg>