<svg xmlns="http://www.w3.org/2000/svg" width="1280" height="460" viewBox="0 0 1280 460"><rect x="0" y="0" width="100%" height="100%" fill="#ffffff"/><text x="640.0" y="28" font-size="20" text-anchor="middle" font-family="sans-serif" fill="#111827">이벤트 / 최근 반영 시점 / 일별</text><line x1="80.0" y1="52.0" x2="1198.0" y2="52.0" stroke="#e5e7eb" stroke-width="1"/><text x="72.0" y="56.0" font-size="11" text-anchor="end" font-family="sans-serif" fill="#374151">215,870</text><text x="1206.0" y="56.0" font-size="11" text-anchor="start" font-family="sans-serif" fill="#374151">379,213</text><line x1="80.0" y1="114.4" x2="1198.0" y2="114.4" stroke="#e5e7eb" stroke-width="1"/><text x="72.0" y="118.4" font-size="11" text-anchor="end" font-family="sans-serif" fill="#374151">172,696</text><text x="1206.0" y="118.4" font-size="11" text-anchor="start" font-family="sans-serif" fill="#374151">303,370</text><line x1="80.0" y1="176.8" x2="1198.0" y2="176.8" stroke="#e5e7eb" stroke-width="1"/><text x="72.0" y="180.8" font-size="11" text-anchor="end" font-family="sans-serif" fill="#374151">129,522</text><text x="1206.0" y="180.8" font-size="11" text-anchor="start" font-family="sans-serif" fill="#374151">227,528</text><line x1="80.0" y1="239.2" x2="1198.0" y2="239.2" stroke="#e5e7eb" stroke-width="1"/><text x="72.0" y="243.2" font-size="11" text-anchor="end" font-family="sans-serif" fill="#374151">86,348</text><text x="1206.0" y="243.2" font-size="11" text-anchor="start" font-family="sans-serif" fill="#374151">151,685</text><line x1="80.0" y1="301.6" x2="1198.0" y2="301.6" stroke="#e5e7eb" stroke-width="1"/><text x="72.0" y="305.6" font-size="11" text-anchor="end" font-family="sans-serif" fill="#374151">43,174</text><text x="1206.0" y="305.6" font-size="11" text-anchor="start" font-family="sans-serif" fill="#374151">75,843</text><line x1="80.0" y1="364.0" x2="1198.0" y2="364.0" stroke="#e5e7eb" stroke-width="1"/><text x="72.0" y="368.0" font-size="11" text-anchor="end" font-family="sans-serif" fill="#374151">0</text><text x="1206.0" y="368.0" font-size="11" text-anchor="start" font-family="sans-serif" fill="#374151">0</text><line x1="80.0" y1="364.0" x2="1198.0" y2="364.0" stroke="#111827" stroke-width="1.2"/><line x1="80.0" y1="52.0" x2="80.0" y2="364.0" stroke="#111827" stroke-width="1.2"/><line x1="1198.0" y1="52.0" x2="1198.0" y2="364.0" stroke="#111827" stroke-width="1.2"/><rect x="81.0" y="364.0" width="21.3" height="0.0" fill="#93c5fd" stroke="#60a5fa" stroke-width="0.5"/><rect x="104.3" y="52.0" width="21.3" height="312.0" fill="#93c5fd" stroke="#60a5fa" stroke-width="0.5"/><rect x="127.6" y="360.8" width="21.3" height="3.2" fill="#93c5fd" stroke="#60a5fa" stroke-width="0.5"/><rect x="150.9" y="360.6" width="21.3" height="3.4" fill="#93c5fd" stroke="#60a5fa" stroke-width="0.5"/><rect x="174.2" y="360.6" width="21.3" height="3.4" fill="#93c5fd" stroke="#60a5fa" stroke-width="0.5"/><rect x="197.5" y="361.8" width="21.3" height="2.2" fill="#93c5fd" stroke="#60a5fa" stroke-width="0.5"/><rect x="220.8" y="360.7" width="21.3" height="3.3" fill="#93c5fd" stroke="#60a5fa" stroke-width="0.5"/><rect x="244.0" y="360.6" width="21.3" height="3.4" fill="#93c5fd" stroke="#60a5fa" stroke-width="0.5"/><rect x="267.3" y="362.5" width="21.3" height="1.5" fill="#93c5fd" stroke="#60a5fa" stroke-width="0.5"/><rect x="290.6" y="360.9" width="21.3" height="3.1" fill="#93c5fd" stroke="#60a5fa" stroke-width="0.5"/><rect x="313.9" y="360.6" width="21.3" height="3.4" fill="#93c5fd" stroke="#60a5fa" stroke-width="0.5"/><rect x="337.2" y="360.7" width="21.3" height="3.3" fill="#93c5fd" stroke="#60a5fa" stroke-width="0.5"/><rect x="360.5" y="361.1" width="21.3" height="2.9" fill="#93c5fd" stroke="#60a5fa" stroke-width="0.5"/><rect x="383.8" y="360.9" width="21.3" height="3.1" fill="#93c5fd" stroke="#60a5fa" stroke-width="0.5"/><rect x="407.1" y="361.0" width="21.3" height="3.0" fill="#93c5fd" stroke="#60a5fa" stroke-width="0.5"/><rect x="430.4" y="360.5" width="21.3" height="3.5" fill="#93c5fd" stroke="#60a5fa" stroke-width="0.5"/><rect x="453.7" y="359.2" width="21.3" height="4.8" fill="#93c5fd" stroke="#60a5fa" stroke-width="0.5"/><rect x="477.0" y="359.8" width="21.3" height="4.2" fill="#93c5fd" stroke="#60a5fa" stroke-width="0.5"/><rect x="500.2" y="359.6" width="21.3" height="4.4" fill="#93c5fd" stroke="#60a5fa" stroke-width="0.5"/><rect x="523.5" y="359.6" width="21.3" height="4.4" fill="#93c5fd" stroke="#60a5fa" stroke-width="0.5"/><rect x="546.8" y="359.4" width="21.3" height="4.6" fill="#93c5fd" stroke="#60a5fa" stroke-width="0.5"/><rect x="570.1" y="359.6" width="21.3" height="4.4" fill="#93c5fd" stroke="#60a5fa" stroke-width="0.5"/><rect x="593.4" y="359.8" width="21.3" height="4.2" fill="#93c5fd" stroke="#60a5fa" stroke-width="0.5"/><rect x="616.7" y="359.6" width="21.3" height="4.4" fill="#93c5fd" stroke="#60a5fa" stroke-width="0.5"/><rect x="640.0" y="359.9" width="21.3" height="4.1" fill="#93c5fd" stroke="#60a5fa" stroke-width="0.5"/><rect x="663.3" y="359.2" width="21.3" height="4.8" fill="#93c5fd" stroke="#60a5fa" stroke-width="0.5"/><rect x="686.6" y="358.9" width="21.3" height="5.1" fill="#93c5fd" stroke="#60a5fa" stroke-width="0.5"/><rect x="709.9" y="359.7" width="21.3" height="4.3" fill="#93c5fd" stroke="#60a5fa" stroke-width="0.5"/><rect x="733.2" y="360.2" width="21.3" height="3.8" fill="#93c5fd" stroke="#60a5fa" stroke-width="0.5"/><rect x="756.5" y="359.7" width="21.3" height="4.3" fill="#93c5fd" stroke="#60a5fa" stroke-width="0.5"/><rect x="779.8" y="359.6" width="21.3" height="4.4" fill="#93c5fd" stroke="#60a5fa" stroke-width="0.5"/><rect x="803.0" y="359.4" width="21.3" height="4.6" fill="#93c5fd" stroke="#60a5fa" stroke-width="0.5"/><rect x="826.3" y="359.4" width="21.3" height="4.6" fill="#93c5fd" stroke="#60a5fa" stroke-width="0.5"/><rect x="849.6" y="359.8" width="21.3" height="4.2" fill="#93c5fd" stroke="#60a5fa" stroke-width="0.5"/><rect x="872.9" y="358.8" width="21.3" height="5.2" fill="#93c5fd" stroke="#60a5fa" stroke-width="0.5"/><rect x="896.2" y="360.0" width="21.3" height="4.0" fill="#93c5fd" stroke="#60a5fa" stroke-width="0.5"/><rect x="919.5" y="358.7" width="21.3" height="5.3" fill="#93c5fd" stroke="#60a5fa" stroke-width="0.5"/><rect x="942.8" y="360.1" width="21.3" height="3.9" fill="#93c5fd" stroke="#60a5fa" stroke-width="0.5"/><rect x="966.1" y="359.5" width="21.3" height="4.5" fill="#93c5fd" stroke="#60a5fa" stroke-width="0.5"/><rect x="989.4" y="359.6" width="21.3" height="4.4" fill="#93c5fd" stroke="#60a5fa" stroke-width="0.5"/><rect x="1012.7" y="359.5" width="21.3" height="4.5" fill="#93c5fd" stroke="#60a5fa" stroke-width="0.5"/><rect x="1036.0" y="359.7" width="21.3" height="4.3" fill="#93c5fd" stroke="#60a5fa" stroke-width="0.5"/><rect x="1059.2" y="359.1" width="21.3" height="4.9" fill="#93c5fd" stroke="#60a5fa" stroke-width="0.5"/><rect x="1082.5" y="359.8" width="21.3" height="4.2" fill="#93c5fd" stroke="#60a5fa" stroke-width="0.5"/><rect x="1105.8" y="359.8" width="21.3" height="4.2" fill="#93c5fd" stroke="#60a5fa" stroke-width="0.5"/><rect x="1129.1" y="359.4" width="21.3" height="4.6" fill="#93c5fd" stroke="#60a5fa" stroke-width="0.5"/><rect x="1152.4" y="359.0" width="21.3" height="5.0" fill="#93c5fd" stroke="#60a5fa" stroke-width="0.5"/><rect x="1175.7" y="309.4" width="21.3" height="54.6" fill="#93c5fd" stroke="#60a5fa" stroke-width="0.5"/><polyline fill="none" stroke="#ef4444" stroke-width="2" points="91.6,364.0 114.9,186.4 138.2,184.5 161.5,182.6 184.8,180.7 208.1,179.4 231.4,177.6 254.7,175.6 278.0,174.7 301.3,173.0 324.6,171.0 347.9,169.2 371.1,167.5 394.4,165.8 417.7,164.1 441.0,162.1 464.3,159.4 487.6,157.0 510.9,154.5 534.2,152.0 557.5,149.4 580.8,146.9 604.1,144.5 627.4,142.0 650.6,139.6 673.9,136.9 697.2,134.0 720.5,131.6 743.8,129.4 767.1,126.9 790.4,124.4 813.7,121.8 837.0,119.2 860.3,116.8 883.6,113.8 906.9,111.5 930.1,108.5 953.4,106.3 976.7,103.7 1000.0,101.2 1023.3,98.7 1046.6,96.2 1069.9,93.4 1093.2,91.0 1116.5,88.5 1139.8,85.9 1163.1,83.1 1186.4,52.0"/><line x1="91.6" y1="364.0" x2="91.6" y2="370.0" stroke="#111827" stroke-width="1"/><text x="93.6" y="386.0" font-size="11" text-anchor="end" transform="rotate(-35 93.6 386.0)" font-family="sans-serif" fill="#374151">2026-02-17</text><line x1="254.7" y1="364.0" x2="254.7" y2="370.0" stroke="#111827" stroke-width="1"/><text x="256.7" y="386.0" font-size="11" text-anchor="end" transform="rotate(-35 256.7 386.0)" font-family="sans-serif" fill="#374151">2026-03-08</text><line x1="394.4" y1="364.0" x2="394.4" y2="370.0" stroke="#111827" stroke-width="1"/><text x="396.4" y="386.0" font-size="11" text-anchor="end" transform="rotate(-35 396.4 386.0)" font-family="sans-serif" fill="#374151">2026-03-14</text><line x1="557.5" y1="364.0" x2="557.5" y2="370.0" stroke="#111827" stroke-width="1"/><text x="559.5" y="386.0" font-size="11" text-anchor="end" transform="rotate(-35 559.5 386.0)" font-family="sans-serif" fill="#374151">2026-03-21</text><line x1="720.5" y1="364.0" x2="720.5" y2="370.0" stroke="#111827" stroke-width="1"/><text x="722.5" y="386.0" font-size="11" text-anchor="end" transform="rotate(-35 722.5 386.0)" font-family="sans-serif" fill="#374151">2026-03-28</text><line x1="883.6" y1="364.0" x2="883.6" y2="370.0" stroke="#111827" stroke-width="1"/><text x="885.6" y="386.0" font-size="11" text-anchor="end" transform="rotate(-35 885.6 386.0)" font-family="sans-serif" fill="#374151">2026-04-04</text><line x1="1023.3" y1="364.0" x2="1023.3" y2="370.0" stroke="#111827" stroke-width="1"/><text x="1025.3" y="386.0" font-size="11" text-anchor="end" transform="rotate(-35 1025.3 386.0)" font-family="sans-serif" fill="#374151">2026-04-10</text><line x1="1186.4" y1="364.0" x2="1186.4" y2="370.0" stroke="#111827" stroke-width="1"/><text x="1188.4" y="386.0" font-size="11" text-anchor="end" transform="rotate(-35 1188.4 386.0)" font-family="sans-serif" fill="#374151">2026-04-17</text><text x="26" y="208.0" font-size="12" transform="rotate(-90 26 208.0)" text-anchor="middle" font-family="sans-serif" fill="#1f2937">구간별 수</text><text x="1256.0" y="208.0" font-size="12" transform="rotate(90 1256.0 208.0)" text-anchor="middle" font-family="sans-serif" fill="#1f2937">누적</text><text x="639.0" y="442.0" font-size="13" text-anchor="middle" font-family="sans-serif" fill="#111827">일</text></svg>