<svg xmlns="http://www.w3.org/2000/svg" width="1280" height="460" viewBox="0 0 1280 460"><rect x="0" y="0" width="100%" height="100%" fill="#ffffff"/><text x="640.0" y="28" font-size="20" text-anchor="middle" font-family="sans-serif" fill="#111827">이벤트 / 최근 반영 시점 / 일별</text><line x1="80.0" y1="52.0" x2="1198.0" y2="52.0" stroke="#e5e7eb" stroke-width="1"/><text x="72.0" y="56.0" font-size="11" text-anchor="end" font-family="sans-serif" fill="#374151">215,882</text><text x="1206.0" y="56.0" font-size="11" text-anchor="start" font-family="sans-serif" fill="#374151">371,199</text><line x1="80.0" y1="114.4" x2="1198.0" y2="114.4" stroke="#e5e7eb" stroke-width="1"/><text x="72.0" y="118.4" font-size="11" text-anchor="end" font-family="sans-serif" fill="#374151">172,706</text><text x="1206.0" y="118.4" font-size="11" text-anchor="start" font-family="sans-serif" fill="#374151">296,959</text><line x1="80.0" y1="176.8" x2="1198.0" y2="176.8" stroke="#e5e7eb" stroke-width="1"/><text x="72.0" y="180.8" font-size="11" text-anchor="end" font-family="sans-serif" fill="#374151">129,529</text><text x="1206.0" y="180.8" font-size="11" text-anchor="start" font-family="sans-serif" fill="#374151">222,719</text><line x1="80.0" y1="239.2" x2="1198.0" y2="239.2" stroke="#e5e7eb" stroke-width="1"/><text x="72.0" y="243.2" font-size="11" text-anchor="end" font-family="sans-serif" fill="#374151">86,353</text><text x="1206.0" y="243.2" font-size="11" text-anchor="start" font-family="sans-serif" fill="#374151">148,480</text><line x1="80.0" y1="301.6" x2="1198.0" y2="301.6" stroke="#e5e7eb" stroke-width="1"/><text x="72.0" y="305.6" font-size="11" text-anchor="end" font-family="sans-serif" fill="#374151">43,176</text><text x="1206.0" y="305.6" font-size="11" text-anchor="start" font-family="sans-serif" fill="#374151">74,240</text><line x1="80.0" y1="364.0" x2="1198.0" y2="364.0" stroke="#e5e7eb" stroke-width="1"/><text x="72.0" y="368.0" font-size="11" text-anchor="end" font-family="sans-serif" fill="#374151">0</text><text x="1206.0" y="368.0" font-size="11" text-anchor="start" font-family="sans-serif" fill="#374151">0</text><line x1="80.0" y1="364.0" x2="1198.0" y2="364.0" stroke="#111827" stroke-width="1.2"/><line x1="80.0" y1="52.0" x2="80.0" y2="364.0" stroke="#111827" stroke-width="1.2"/><line x1="1198.0" y1="52.0" x2="1198.0" y2="364.0" stroke="#111827" stroke-width="1.2"/><rect x="81.0" y="364.0" width="22.3" height="0.0" fill="#93c5fd" stroke="#60a5fa" stroke-width="0.5"/><rect x="105.3" y="52.0" width="22.3" height="312.0" fill="#93c5fd" stroke="#60a5fa" stroke-width="0.5"/><rect x="129.6" y="360.8" width="22.3" height="3.2" fill="#93c5fd" stroke="#60a5fa" stroke-width="0.5"/><rect x="153.9" y="360.6" width="22.3" height="3.4" fill="#93c5fd" stroke="#60a5fa" stroke-width="0.5"/><rect x="178.2" y="360.6" width="22.3" height="3.4" fill="#93c5fd" stroke="#60a5fa" stroke-width="0.5"/><rect x="202.5" y="361.8" width="22.3" height="2.2" fill="#93c5fd" stroke="#60a5fa" stroke-width="0.5"/><rect x="226.8" y="360.7" width="22.3" height="3.3" fill="#93c5fd" stroke="#60a5fa" stroke-width="0.5"/><rect x="251.1" y="360.6" width="22.3" height="3.4" fill="#93c5fd" stroke="#60a5fa" stroke-width="0.5"/><rect x="275.4" y="362.5" width="22.3" height="1.5" fill="#93c5fd" stroke="#60a5fa" stroke-width="0.5"/><rect x="299.7" y="360.9" width="22.3" height="3.1" fill="#93c5fd" stroke="#60a5fa" stroke-width="0.5"/><rect x="324.0" y="360.6" width="22.3" height="3.4" fill="#93c5fd" stroke="#60a5fa" stroke-width="0.5"/><rect x="348.3" y="360.7" width="22.3" height="3.3" fill="#93c5fd" stroke="#60a5fa" stroke-width="0.5"/><rect x="372.7" y="361.1" width="22.3" height="2.9" fill="#93c5fd" stroke="#60a5fa" stroke-width="0.5"/><rect x="397.0" y="360.9" width="22.3" height="3.1" fill="#93c5fd" stroke="#60a5fa" stroke-width="0.5"/><rect x="421.3" y="361.0" width="22.3" height="3.0" fill="#93c5fd" stroke="#60a5fa" stroke-width="0.5"/><rect x="445.6" y="360.5" width="22.3" height="3.5" fill="#93c5fd" stroke="#60a5fa" stroke-width="0.5"/><rect x="469.9" y="359.2" width="22.3" height="4.8" fill="#93c5fd" stroke="#60a5fa" stroke-width="0.5"/><rect x="494.2" y="359.8" width="22.3" height="4.2" fill="#93c5fd" stroke="#60a5fa" stroke-width="0.5"/><rect x="518.5" y="359.6" width="22.3" height="4.4" fill="#93c5fd" stroke="#60a5fa" stroke-width="0.5"/><rect x="542.8" y="359.6" width="22.3" height="4.4" fill="#93c5fd" stroke="#60a5fa" stroke-width="0.5"/><rect x="567.1" y="359.4" width="22.3" height="4.6" fill="#93c5fd" stroke="#60a5fa" stroke-width="0.5"/><rect x="591.4" y="359.6" width="22.3" height="4.4" fill="#93c5fd" stroke="#60a5fa" stroke-width="0.5"/><rect x="615.7" y="359.8" width="22.3" height="4.2" fill="#93c5fd" stroke="#60a5fa" stroke-width="0.5"/><rect x="640.0" y="359.6" width="22.3" height="4.4" fill="#93c5fd" stroke="#60a5fa" stroke-width="0.5"/><rect x="664.3" y="359.9" width="22.3" height="4.1" fill="#93c5fd" stroke="#60a5fa" stroke-width="0.5"/><rect x="688.6" y="359.2" width="22.3" height="4.8" fill="#93c5fd" stroke="#60a5fa" stroke-width="0.5"/><rect x="712.9" y="358.9" width="22.3" height="5.1" fill="#93c5fd" stroke="#60a5fa" stroke-width="0.5"/><rect x="737.2" y="359.7" width="22.3" height="4.3" fill="#93c5fd" stroke="#60a5fa" stroke-width="0.5"/><rect x="761.5" y="360.2" width="22.3" height="3.8" fill="#93c5fd" stroke="#60a5fa" stroke-width="0.5"/><rect x="785.8" y="359.7" width="22.3" height="4.3" fill="#93c5fd" stroke="#60a5fa" stroke-width="0.5"/><rect x="810.1" y="359.6" width="22.3" height="4.4" fill="#93c5fd" stroke="#60a5fa" stroke-width="0.5"/><rect x="834.4" y="359.4" width="22.3" height="4.6" fill="#93c5fd" stroke="#60a5fa" stroke-width="0.5"/><rect x="858.7" y="359.3" width="22.3" height="4.7" fill="#93c5fd" stroke="#60a5fa" stroke-width="0.5"/><rect x="883.0" y="359.8" width="22.3" height="4.2" fill="#93c5fd" stroke="#60a5fa" stroke-width="0.5"/><rect x="907.3" y="358.8" width="22.3" height="5.2" fill="#93c5fd" stroke="#60a5fa" stroke-width="0.5"/><rect x="931.7" y="360.0" width="22.3" height="4.0" fill="#93c5fd" stroke="#60a5fa" stroke-width="0.5"/><rect x="956.0" y="358.7" width="22.3" height="5.3" fill="#93c5fd" stroke="#60a5fa" stroke-width="0.5"/><rect x="980.3" y="360.1" width="22.3" height="3.9" fill="#93c5fd" stroke="#60a5fa" stroke-width="0.5"/><rect x="1004.6" y="359.5" width="22.3" height="4.5" fill="#93c5fd" stroke="#60a5fa" stroke-width="0.5"/><rect x="1028.9" y="359.6" width="22.3" height="4.4" fill="#93c5fd" stroke="#60a5fa" stroke-width="0.5"/><rect x="1053.2" y="359.5" width="22.3" height="4.5" fill="#93c5fd" stroke="#60a5fa" stroke-width="0.5"/><rect x="1077.5" y="359.6" width="22.3" height="4.4" fill="#93c5fd" stroke="#60a5fa" stroke-width="0.5"/><rect x="1101.8" y="359.0" width="22.3" height="5.0" fill="#93c5fd" stroke="#60a5fa" stroke-width="0.5"/><rect x="1126.1" y="359.7" width="22.3" height="4.3" fill="#93c5fd" stroke="#60a5fa" stroke-width="0.5"/><rect x="1150.4" y="359.7" width="22.3" height="4.3" fill="#93c5fd" stroke="#60a5fa" stroke-width="0.5"/><rect x="1174.7" y="311.5" width="22.3" height="52.5" fill="#93c5fd" stroke="#60a5fa" stroke-width="0.5"/><polyline fill="none" stroke="#ef4444" stroke-width="2" points="92.2,364.0 116.5,182.5 140.8,180.7 165.1,178.7 189.4,176.7 213.7,175.4 238.0,173.5 262.3,171.5 286.6,170.6 310.9,168.8 335.2,166.9 359.5,165.0 383.8,163.3 408.1,161.5 432.4,159.7 456.7,157.7 481.0,154.9 505.3,152.5 529.6,150.0 553.9,147.4 578.2,144.7 602.5,142.1 626.8,139.7 651.2,137.2 675.5,134.8 699.8,132.0 724.1,129.1 748.4,126.5 772.7,124.3 797.0,121.8 821.3,119.2 845.6,116.6 869.9,113.9 894.2,111.4 918.5,108.4 942.8,106.0 967.1,102.9 991.4,100.7 1015.7,98.1 1040.0,95.5 1064.3,92.9 1088.6,90.4 1112.9,87.5 1137.2,85.0 1161.5,82.5 1185.8,52.0"/><line x1="92.2" y1="364.0" x2="92.2" y2="370.0" stroke="#111827" stroke-width="1"/><text x="94.2" y="386.0" font-size="11" text-anchor="end" transform="rotate(-35 94.2 386.0)" font-family="sans-serif" fill="#374151">2026-02-17</text><line x1="238.0" y1="364.0" x2="238.0" y2="370.0" stroke="#111827" stroke-width="1"/><text x="240.0" y="386.0" font-size="11" text-anchor="end" transform="rotate(-35 240.0 386.0)" font-family="sans-serif" fill="#374151">2026-03-07</text><line x1="408.1" y1="364.0" x2="408.1" y2="370.0" stroke="#111827" stroke-width="1"/><text x="410.1" y="386.0" font-size="11" text-anchor="end" transform="rotate(-35 410.1 386.0)" font-family="sans-serif" fill="#374151">2026-03-14</text><line x1="553.9" y1="364.0" x2="553.9" y2="370.0" stroke="#111827" stroke-width="1"/><text x="555.9" y="386.0" font-size="11" text-anchor="end" transform="rotate(-35 555.9 386.0)" font-family="sans-serif" fill="#374151">2026-03-20</text><line x1="724.1" y1="364.0" x2="724.1" y2="370.0" stroke="#111827" stroke-width="1"/><text x="726.1" y="386.0" font-size="11" text-anchor="end" transform="rotate(-35 726.1 386.0)" font-family="sans-serif" fill="#374151">2026-03-27</text><line x1="869.9" y1="364.0" x2="869.9" y2="370.0" stroke="#111827" stroke-width="1"/><text x="871.9" y="386.0" font-size="11" text-anchor="end" transform="rotate(-35 871.9 386.0)" font-family="sans-serif" fill="#374151">2026-04-02</text><line x1="1040.0" y1="364.0" x2="1040.0" y2="370.0" stroke="#111827" stroke-width="1"/><text x="1042.0" y="386.0" font-size="11" text-anchor="end" transform="rotate(-35 1042.0 386.0)" font-family="sans-serif" fill="#374151">2026-04-09</text><line x1="1185.8" y1="364.0" x2="1185.8" y2="370.0" stroke="#111827" stroke-width="1"/><text x="1187.8" y="386.0" font-size="11" text-anchor="end" transform="rotate(-35 1187.8 386.0)" font-family="sans-serif" fill="#374151">2026-04-15</text><text x="26" y="208.0" font-size="12" transform="rotate(-90 26 208.0)" text-anchor="middle" font-family="sans-serif" fill="#1f2937">구간별 수</text><text x="1256.0" y="208.0" font-size="12" transform="rotate(90 1256.0 208.0)" text-anchor="middle" font-family="sans-serif" fill="#1f2937">누적</text><text x="639.0" y="442.0" font-size="13" text-anchor="middle" font-family="sans-serif" fill="#111827">일</text></svg>