<svg xmlns="http://www.w3.org/2000/svg" width="1280" height="460" viewBox="0 0 1280 460"><rect x="0" y="0" width="100%" height="100%" fill="#ffffff"/><text x="640.0" y="28" font-size="20" text-anchor="middle" font-family="sans-serif" fill="#111827">이벤트 / 최근 반영 시점 / 일별</text><line x1="80.0" y1="52.0" x2="1198.0" y2="52.0" stroke="#e5e7eb" stroke-width="1"/><text x="72.0" y="56.0" font-size="11" text-anchor="end" font-family="sans-serif" fill="#374151">215,853</text><text x="1206.0" y="56.0" font-size="11" text-anchor="start" font-family="sans-serif" fill="#374151">401,039</text><line x1="80.0" y1="114.4" x2="1198.0" y2="114.4" stroke="#e5e7eb" stroke-width="1"/><text x="72.0" y="118.4" font-size="11" text-anchor="end" font-family="sans-serif" fill="#374151">172,682</text><text x="1206.0" y="118.4" font-size="11" text-anchor="start" font-family="sans-serif" fill="#374151">320,831</text><line x1="80.0" y1="176.8" x2="1198.0" y2="176.8" stroke="#e5e7eb" stroke-width="1"/><text x="72.0" y="180.8" font-size="11" text-anchor="end" font-family="sans-serif" fill="#374151">129,512</text><text x="1206.0" y="180.8" font-size="11" text-anchor="start" font-family="sans-serif" fill="#374151">240,623</text><line x1="80.0" y1="239.2" x2="1198.0" y2="239.2" stroke="#e5e7eb" stroke-width="1"/><text x="72.0" y="243.2" font-size="11" text-anchor="end" font-family="sans-serif" fill="#374151">86,341</text><text x="1206.0" y="243.2" font-size="11" text-anchor="start" font-family="sans-serif" fill="#374151">160,416</text><line x1="80.0" y1="301.6" x2="1198.0" y2="301.6" stroke="#e5e7eb" stroke-width="1"/><text x="72.0" y="305.6" font-size="11" text-anchor="end" font-family="sans-serif" fill="#374151">43,171</text><text x="1206.0" y="305.6" font-size="11" text-anchor="start" font-family="sans-serif" fill="#374151">80,208</text><line x1="80.0" y1="364.0" x2="1198.0" y2="364.0" stroke="#e5e7eb" stroke-width="1"/><text x="72.0" y="368.0" font-size="11" text-anchor="end" font-family="sans-serif" fill="#374151">0</text><text x="1206.0" y="368.0" font-size="11" text-anchor="start" font-family="sans-serif" fill="#374151">0</text><line x1="80.0" y1="364.0" x2="1198.0" y2="364.0" stroke="#111827" stroke-width="1.2"/><line x1="80.0" y1="52.0" x2="80.0" y2="364.0" stroke="#111827" stroke-width="1.2"/><line x1="1198.0" y1="52.0" x2="1198.0" y2="364.0" stroke="#111827" stroke-width="1.2"/><rect x="81.0" y="364.0" width="18.3" height="0.0" fill="#93c5fd" stroke="#60a5fa" stroke-width="0.5"/><rect x="101.3" y="52.0" width="18.3" height="312.0" fill="#93c5fd" stroke="#60a5fa" stroke-width="0.5"/><rect x="121.7" y="360.8" width="18.3" height="3.2" fill="#93c5fd" stroke="#60a5fa" stroke-width="0.5"/><rect x="142.0" y="360.6" width="18.3" height="3.4" fill="#93c5fd" stroke="#60a5fa" stroke-width="0.5"/><rect x="162.3" y="360.6" width="18.3" height="3.4" fill="#93c5fd" stroke="#60a5fa" stroke-width="0.5"/><rect x="182.6" y="361.8" width="18.3" height="2.2" fill="#93c5fd" stroke="#60a5fa" stroke-width="0.5"/><rect x="203.0" y="360.7" width="18.3" height="3.3" fill="#93c5fd" stroke="#60a5fa" stroke-width="0.5"/><rect x="223.3" y="360.6" width="18.3" height="3.4" fill="#93c5fd" stroke="#60a5fa" stroke-width="0.5"/><rect x="243.6" y="362.5" width="18.3" height="1.5" fill="#93c5fd" stroke="#60a5fa" stroke-width="0.5"/><rect x="263.9" y="360.9" width="18.3" height="3.1" fill="#93c5fd" stroke="#60a5fa" stroke-width="0.5"/><rect x="284.3" y="360.6" width="18.3" height="3.4" fill="#93c5fd" stroke="#60a5fa" stroke-width="0.5"/><rect x="304.6" y="360.7" width="18.3" height="3.3" fill="#93c5fd" stroke="#60a5fa" stroke-width="0.5"/><rect x="324.9" y="361.1" width="18.3" height="2.9" fill="#93c5fd" stroke="#60a5fa" stroke-width="0.5"/><rect x="345.3" y="360.9" width="18.3" height="3.1" fill="#93c5fd" stroke="#60a5fa" stroke-width="0.5"/><rect x="365.6" y="361.0" width="18.3" height="3.0" fill="#93c5fd" stroke="#60a5fa" stroke-width="0.5"/><rect x="385.9" y="360.5" width="18.3" height="3.5" fill="#93c5fd" stroke="#60a5fa" stroke-width="0.5"/><rect x="406.2" y="359.2" width="18.3" height="4.8" fill="#93c5fd" stroke="#60a5fa" stroke-width="0.5"/><rect x="426.6" y="359.8" width="18.3" height="4.2" fill="#93c5fd" stroke="#60a5fa" stroke-width="0.5"/><rect x="446.9" y="359.6" width="18.3" height="4.4" fill="#93c5fd" stroke="#60a5fa" stroke-width="0.5"/><rect x="467.2" y="359.6" width="18.3" height="4.4" fill="#93c5fd" stroke="#60a5fa" stroke-width="0.5"/><rect x="487.5" y="359.4" width="18.3" height="4.6" fill="#93c5fd" stroke="#60a5fa" stroke-width="0.5"/><rect x="507.9" y="359.6" width="18.3" height="4.4" fill="#93c5fd" stroke="#60a5fa" stroke-width="0.5"/><rect x="528.2" y="359.8" width="18.3" height="4.2" fill="#93c5fd" stroke="#60a5fa" stroke-width="0.5"/><rect x="548.5" y="359.6" width="18.3" height="4.4" fill="#93c5fd" stroke="#60a5fa" stroke-width="0.5"/><rect x="568.9" y="359.9" width="18.3" height="4.1" fill="#93c5fd" stroke="#60a5fa" stroke-width="0.5"/><rect x="589.2" y="359.2" width="18.3" height="4.8" fill="#93c5fd" stroke="#60a5fa" stroke-width="0.5"/><rect x="609.5" y="358.9" width="18.3" height="5.1" fill="#93c5fd" stroke="#60a5fa" stroke-width="0.5"/><rect x="629.8" y="359.7" width="18.3" height="4.3" fill="#93c5fd" stroke="#60a5fa" stroke-width="0.5"/><rect x="650.2" y="360.2" width="18.3" height="3.8" fill="#93c5fd" stroke="#60a5fa" stroke-width="0.5"/><rect x="670.5" y="359.7" width="18.3" height="4.3" fill="#93c5fd" stroke="#60a5fa" stroke-width="0.5"/><rect x="690.8" y="359.6" width="18.3" height="4.4" fill="#93c5fd" stroke="#60a5fa" stroke-width="0.5"/><rect x="711.1" y="359.4" width="18.3" height="4.6" fill="#93c5fd" stroke="#60a5fa" stroke-width="0.5"/><rect x="731.5" y="359.4" width="18.3" height="4.6" fill="#93c5fd" stroke="#60a5fa" stroke-width="0.5"/><rect x="751.8" y="359.8" width="18.3" height="4.2" fill="#93c5fd" stroke="#60a5fa" stroke-width="0.5"/><rect x="772.1" y="358.8" width="18.3" height="5.2" fill="#93c5fd" stroke="#60a5fa" stroke-width="0.5"/><rect x="792.5" y="360.0" width="18.3" height="4.0" fill="#93c5fd" stroke="#60a5fa" stroke-width="0.5"/><rect x="812.8" y="358.7" width="18.3" height="5.3" fill="#93c5fd" stroke="#60a5fa" stroke-width="0.5"/><rect x="833.1" y="360.1" width="18.3" height="3.9" fill="#93c5fd" stroke="#60a5fa" stroke-width="0.5"/><rect x="853.4" y="359.5" width="18.3" height="4.5" fill="#93c5fd" stroke="#60a5fa" stroke-width="0.5"/><rect x="873.8" y="359.6" width="18.3" height="4.4" fill="#93c5fd" stroke="#60a5fa" stroke-width="0.5"/><rect x="894.1" y="359.5" width="18.3" height="4.5" fill="#93c5fd" stroke="#60a5fa" stroke-width="0.5"/><rect x="914.4" y="359.7" width="18.3" height="4.3" fill="#93c5fd" stroke="#60a5fa" stroke-width="0.5"/><rect x="934.7" y="359.1" width="18.3" height="4.9" fill="#93c5fd" stroke="#60a5fa" stroke-width="0.5"/><rect x="955.1" y="359.8" width="18.3" height="4.2" fill="#93c5fd" stroke="#60a5fa" stroke-width="0.5"/><rect x="975.4" y="359.8" width="18.3" height="4.2" fill="#93c5fd" stroke="#60a5fa" stroke-width="0.5"/><rect x="995.7" y="359.4" width="18.3" height="4.6" fill="#93c5fd" stroke="#60a5fa" stroke-width="0.5"/><rect x="1016.1" y="359.0" width="18.3" height="5.0" fill="#93c5fd" stroke="#60a5fa" stroke-width="0.5"/><rect x="1036.4" y="359.2" width="18.3" height="4.8" fill="#93c5fd" stroke="#60a5fa" stroke-width="0.5"/><rect x="1056.7" y="359.8" width="18.3" height="4.2" fill="#93c5fd" stroke="#60a5fa" stroke-width="0.5"/><rect x="1077.0" y="359.1" width="18.3" height="4.9" fill="#93c5fd" stroke="#60a5fa" stroke-width="0.5"/><rect x="1097.4" y="359.7" width="18.3" height="4.3" fill="#93c5fd" stroke="#60a5fa" stroke-width="0.5"/><rect x="1117.7" y="359.6" width="18.3" height="4.4" fill="#93c5fd" stroke="#60a5fa" stroke-width="0.5"/><rect x="1138.0" y="359.1" width="18.3" height="4.9" fill="#93c5fd" stroke="#60a5fa" stroke-width="0.5"/><rect x="1158.3" y="359.1" width="18.3" height="4.9" fill="#93c5fd" stroke="#60a5fa" stroke-width="0.5"/><rect x="1178.7" y="310.1" width="18.3" height="53.9" fill="#93c5fd" stroke="#60a5fa" stroke-width="0.5"/><polyline fill="none" stroke="#ef4444" stroke-width="2" points="90.2,364.0 110.5,196.1 130.8,194.3 151.1,192.5 171.5,190.7 191.8,189.5 212.1,187.7 232.5,185.9 252.8,185.0 273.1,183.4 293.4,181.6 313.8,179.8 334.1,178.2 354.4,176.6 374.7,175.0 395.1,173.1 415.4,170.5 435.7,168.2 456.1,165.9 476.4,163.5 496.7,161.1 517.0,158.7 537.4,156.4 557.7,154.1 578.0,151.9 598.3,149.3 618.7,146.6 639.0,144.2 659.3,142.2 679.7,139.8 700.0,137.5 720.3,135.0 740.6,132.5 761.0,130.3 781.3,127.4 801.6,125.3 821.9,122.4 842.3,120.3 862.6,117.9 882.9,115.5 903.3,113.1 923.6,110.8 943.9,108.1 964.2,105.8 984.6,103.6 1004.9,101.1 1025.2,98.4 1045.5,95.8 1065.9,93.5 1086.2,90.9 1106.5,88.6 1126.9,86.2 1147.2,83.6 1167.5,81.0 1187.8,52.0"/><line x1="90.2" y1="364.0" x2="90.2" y2="370.0" stroke="#111827" stroke-width="1"/><text x="92.2" y="386.0" font-size="11" text-anchor="end" transform="rotate(-35 92.2 386.0)" font-family="sans-serif" fill="#374151">2026-02-17</text><line x1="252.8" y1="364.0" x2="252.8" y2="370.0" stroke="#111827" stroke-width="1"/><text x="254.8" y="386.0" font-size="11" text-anchor="end" transform="rotate(-35 254.8 386.0)" font-family="sans-serif" fill="#374151">2026-03-09</text><line x1="395.1" y1="364.0" x2="395.1" y2="370.0" stroke="#111827" stroke-width="1"/><text x="397.1" y="386.0" font-size="11" text-anchor="end" transform="rotate(-35 397.1 386.0)" font-family="sans-serif" fill="#374151">2026-03-16</text><line x1="557.7" y1="364.0" x2="557.7" y2="370.0" stroke="#111827" stroke-width="1"/><text x="559.7" y="386.0" font-size="11" text-anchor="end" transform="rotate(-35 559.7 386.0)" font-family="sans-serif" fill="#374151">2026-03-24</text><line x1="720.3" y1="364.0" x2="720.3" y2="370.0" stroke="#111827" stroke-width="1"/><text x="722.3" y="386.0" font-size="11" text-anchor="end" transform="rotate(-35 722.3 386.0)" font-family="sans-serif" fill="#374151">2026-04-01</text><line x1="882.9" y1="364.0" x2="882.9" y2="370.0" stroke="#111827" stroke-width="1"/><text x="884.9" y="386.0" font-size="11" text-anchor="end" transform="rotate(-35 884.9 386.0)" font-family="sans-serif" fill="#374151">2026-04-09</text><line x1="1025.2" y1="364.0" x2="1025.2" y2="370.0" stroke="#111827" stroke-width="1"/><text x="1027.2" y="386.0" font-size="11" text-anchor="end" transform="rotate(-35 1027.2 386.0)" font-family="sans-serif" fill="#374151">2026-04-16</text><line x1="1187.8" y1="364.0" x2="1187.8" y2="370.0" stroke="#111827" stroke-width="1"/><text x="1189.8" y="386.0" font-size="11" text-anchor="end" transform="rotate(-35 1189.8 386.0)" font-family="sans-serif" fill="#374151">2026-04-24</text><text x="26" y="208.0" font-size="12" transform="rotate(-90 26 208.0)" text-anchor="middle" font-family="sans-serif" fill="#1f2937">구간별 수</text><text x="1256.0" y="208.0" font-size="12" transform="rotate(90 1256.0 208.0)" text-anchor="middle" font-family="sans-serif" fill="#1f2937">누적</text><text x="639.0" y="442.0" font-size="13" text-anchor="middle" font-family="sans-serif" fill="#111827">일</text></svg>