<svg xmlns="http://www.w3.org/2000/svg" width="1280" height="460" viewBox="0 0 1280 460"><rect x="0" y="0" width="100%" height="100%" fill="#ffffff"/><text x="640.0" y="28" font-size="20" text-anchor="middle" font-family="sans-serif" fill="#111827">이벤트 / 최근 반영 시점 / 일별</text><line x1="80.0" y1="52.0" x2="1198.0" y2="52.0" stroke="#e5e7eb" stroke-width="1"/><text x="72.0" y="56.0" font-size="11" text-anchor="end" font-family="sans-serif" fill="#374151">215,867</text><text x="1206.0" y="56.0" font-size="11" text-anchor="start" font-family="sans-serif" fill="#374151">381,695</text><line x1="80.0" y1="114.4" x2="1198.0" y2="114.4" stroke="#e5e7eb" stroke-width="1"/><text x="72.0" y="118.4" font-size="11" text-anchor="end" font-family="sans-serif" fill="#374151">172,694</text><text x="1206.0" y="118.4" font-size="11" text-anchor="start" font-family="sans-serif" fill="#374151">305,356</text><line x1="80.0" y1="176.8" x2="1198.0" y2="176.8" stroke="#e5e7eb" stroke-width="1"/><text x="72.0" y="180.8" font-size="11" text-anchor="end" font-family="sans-serif" fill="#374151">129,520</text><text x="1206.0" y="180.8" font-size="11" text-anchor="start" font-family="sans-serif" fill="#374151">229,017</text><line x1="80.0" y1="239.2" x2="1198.0" y2="239.2" stroke="#e5e7eb" stroke-width="1"/><text x="72.0" y="243.2" font-size="11" text-anchor="end" font-family="sans-serif" fill="#374151">86,347</text><text x="1206.0" y="243.2" font-size="11" text-anchor="start" font-family="sans-serif" fill="#374151">152,678</text><line x1="80.0" y1="301.6" x2="1198.0" y2="301.6" stroke="#e5e7eb" stroke-width="1"/><text x="72.0" y="305.6" font-size="11" text-anchor="end" font-family="sans-serif" fill="#374151">43,173</text><text x="1206.0" y="305.6" font-size="11" text-anchor="start" font-family="sans-serif" fill="#374151">76,339</text><line x1="80.0" y1="364.0" x2="1198.0" y2="364.0" stroke="#e5e7eb" stroke-width="1"/><text x="72.0" y="368.0" font-size="11" text-anchor="end" font-family="sans-serif" fill="#374151">0</text><text x="1206.0" y="368.0" font-size="11" text-anchor="start" font-family="sans-serif" fill="#374151">0</text><line x1="80.0" y1="364.0" x2="1198.0" y2="364.0" stroke="#111827" stroke-width="1.2"/><line x1="80.0" y1="52.0" x2="80.0" y2="364.0" stroke="#111827" stroke-width="1.2"/><line x1="1198.0" y1="52.0" x2="1198.0" y2="364.0" stroke="#111827" stroke-width="1.2"/><rect x="81.0" y="364.0" width="20.8" height="0.0" fill="#93c5fd" stroke="#60a5fa" stroke-width="0.5"/><rect x="103.8" y="52.0" width="20.8" height="312.0" fill="#93c5fd" stroke="#60a5fa" stroke-width="0.5"/><rect x="126.6" y="360.8" width="20.8" height="3.2" fill="#93c5fd" stroke="#60a5fa" stroke-width="0.5"/><rect x="149.4" y="360.6" width="20.8" height="3.4" fill="#93c5fd" stroke="#60a5fa" stroke-width="0.5"/><rect x="172.3" y="360.6" width="20.8" height="3.4" fill="#93c5fd" stroke="#60a5fa" stroke-width="0.5"/><rect x="195.1" y="361.8" width="20.8" height="2.2" fill="#93c5fd" stroke="#60a5fa" stroke-width="0.5"/><rect x="217.9" y="360.7" width="20.8" height="3.3" fill="#93c5fd" stroke="#60a5fa" stroke-width="0.5"/><rect x="240.7" y="360.6" width="20.8" height="3.4" fill="#93c5fd" stroke="#60a5fa" stroke-width="0.5"/><rect x="263.5" y="362.5" width="20.8" height="1.5" fill="#93c5fd" stroke="#60a5fa" stroke-width="0.5"/><rect x="286.3" y="360.9" width="20.8" height="3.1" fill="#93c5fd" stroke="#60a5fa" stroke-width="0.5"/><rect x="309.2" y="360.6" width="20.8" height="3.4" fill="#93c5fd" stroke="#60a5fa" stroke-width="0.5"/><rect x="332.0" y="360.7" width="20.8" height="3.3" fill="#93c5fd" stroke="#60a5fa" stroke-width="0.5"/><rect x="354.8" y="361.1" width="20.8" height="2.9" fill="#93c5fd" stroke="#60a5fa" stroke-width="0.5"/><rect x="377.6" y="360.9" width="20.8" height="3.1" fill="#93c5fd" stroke="#60a5fa" stroke-width="0.5"/><rect x="400.4" y="361.0" width="20.8" height="3.0" fill="#93c5fd" stroke="#60a5fa" stroke-width="0.5"/><rect x="423.2" y="360.5" width="20.8" height="3.5" fill="#93c5fd" stroke="#60a5fa" stroke-width="0.5"/><rect x="446.1" y="359.2" width="20.8" height="4.8" fill="#93c5fd" stroke="#60a5fa" stroke-width="0.5"/><rect x="468.9" y="359.8" width="20.8" height="4.2" fill="#93c5fd" stroke="#60a5fa" stroke-width="0.5"/><rect x="491.7" y="359.6" width="20.8" height="4.4" fill="#93c5fd" stroke="#60a5fa" stroke-width="0.5"/><rect x="514.5" y="359.6" width="20.8" height="4.4" fill="#93c5fd" stroke="#60a5fa" stroke-width="0.5"/><rect x="537.3" y="359.4" width="20.8" height="4.6" fill="#93c5fd" stroke="#60a5fa" stroke-width="0.5"/><rect x="560.1" y="359.6" width="20.8" height="4.4" fill="#93c5fd" stroke="#60a5fa" stroke-width="0.5"/><rect x="583.0" y="359.8" width="20.8" height="4.2" fill="#93c5fd" stroke="#60a5fa" stroke-width="0.5"/><rect x="605.8" y="359.6" width="20.8" height="4.4" fill="#93c5fd" stroke="#60a5fa" stroke-width="0.5"/><rect x="628.6" y="359.9" width="20.8" height="4.1" fill="#93c5fd" stroke="#60a5fa" stroke-width="0.5"/><rect x="651.4" y="359.2" width="20.8" height="4.8" fill="#93c5fd" stroke="#60a5fa" stroke-width="0.5"/><rect x="674.2" y="358.9" width="20.8" height="5.1" fill="#93c5fd" stroke="#60a5fa" stroke-width="0.5"/><rect x="697.0" y="359.7" width="20.8" height="4.3" fill="#93c5fd" stroke="#60a5fa" stroke-width="0.5"/><rect x="719.9" y="360.2" width="20.8" height="3.8" fill="#93c5fd" stroke="#60a5fa" stroke-width="0.5"/><rect x="742.7" y="359.7" width="20.8" height="4.3" fill="#93c5fd" stroke="#60a5fa" stroke-width="0.5"/><rect x="765.5" y="359.6" width="20.8" height="4.4" fill="#93c5fd" stroke="#60a5fa" stroke-width="0.5"/><rect x="788.3" y="359.4" width="20.8" height="4.6" fill="#93c5fd" stroke="#60a5fa" stroke-width="0.5"/><rect x="811.1" y="359.4" width="20.8" height="4.6" fill="#93c5fd" stroke="#60a5fa" stroke-width="0.5"/><rect x="833.9" y="359.8" width="20.8" height="4.2" fill="#93c5fd" stroke="#60a5fa" stroke-width="0.5"/><rect x="856.8" y="358.8" width="20.8" height="5.2" fill="#93c5fd" stroke="#60a5fa" stroke-width="0.5"/><rect x="879.6" y="360.0" width="20.8" height="4.0" fill="#93c5fd" stroke="#60a5fa" stroke-width="0.5"/><rect x="902.4" y="358.7" width="20.8" height="5.3" fill="#93c5fd" stroke="#60a5fa" stroke-width="0.5"/><rect x="925.2" y="360.1" width="20.8" height="3.9" fill="#93c5fd" stroke="#60a5fa" stroke-width="0.5"/><rect x="948.0" y="359.5" width="20.8" height="4.5" fill="#93c5fd" stroke="#60a5fa" stroke-width="0.5"/><rect x="970.8" y="359.6" width="20.8" height="4.4" fill="#93c5fd" stroke="#60a5fa" stroke-width="0.5"/><rect x="993.7" y="359.5" width="20.8" height="4.5" fill="#93c5fd" stroke="#60a5fa" stroke-width="0.5"/><rect x="1016.5" y="359.7" width="20.8" height="4.3" fill="#93c5fd" stroke="#60a5fa" stroke-width="0.5"/><rect x="1039.3" y="359.1" width="20.8" height="4.9" fill="#93c5fd" stroke="#60a5fa" stroke-width="0.5"/><rect x="1062.1" y="359.8" width="20.8" height="4.2" fill="#93c5fd" stroke="#60a5fa" stroke-width="0.5"/><rect x="1084.9" y="359.8" width="20.8" height="4.2" fill="#93c5fd" stroke="#60a5fa" stroke-width="0.5"/><rect x="1107.7" y="359.4" width="20.8" height="4.6" fill="#93c5fd" stroke="#60a5fa" stroke-width="0.5"/><rect x="1130.6" y="359.0" width="20.8" height="5.0" fill="#93c5fd" stroke="#60a5fa" stroke-width="0.5"/><rect x="1153.4" y="359.1" width="20.8" height="4.9" fill="#93c5fd" stroke="#60a5fa" stroke-width="0.5"/><rect x="1176.2" y="310.7" width="20.8" height="53.3" fill="#93c5fd" stroke="#60a5fa" stroke-width="0.5"/><polyline fill="none" stroke="#ef4444" stroke-width="2" points="91.4,364.0 114.2,187.5 137.0,185.7 159.9,183.8 182.7,181.9 205.5,180.6 228.3,178.8 251.1,176.8 273.9,176.0 296.8,174.2 319.6,172.3 342.4,170.4 365.2,168.8 388.0,167.1 410.8,165.4 433.7,163.4 456.5,160.7 479.3,158.3 502.1,155.9 524.9,153.3 547.7,150.8 570.6,148.3 593.4,145.9 616.2,143.4 639.0,141.1 661.8,138.4 684.6,135.5 707.4,133.1 730.3,130.9 753.1,128.5 775.9,126.0 798.7,123.4 821.5,120.8 844.3,118.4 867.2,115.4 890.0,113.2 912.8,110.1 935.6,108.0 958.4,105.4 981.2,102.9 1004.1,100.4 1026.9,97.9 1049.7,95.1 1072.5,92.7 1095.3,90.3 1118.1,87.7 1141.0,84.9 1163.8,82.1 1186.6,52.0"/><line x1="91.4" y1="364.0" x2="91.4" y2="370.0" stroke="#111827" stroke-width="1"/><text x="93.4" y="386.0" font-size="11" text-anchor="end" transform="rotate(-35 93.4 386.0)" font-family="sans-serif" fill="#374151">2026-02-17</text><line x1="251.1" y1="364.0" x2="251.1" y2="370.0" stroke="#111827" stroke-width="1"/><text x="253.1" y="386.0" font-size="11" text-anchor="end" transform="rotate(-35 253.1 386.0)" font-family="sans-serif" fill="#374151">2026-03-08</text><line x1="410.8" y1="364.0" x2="410.8" y2="370.0" stroke="#111827" stroke-width="1"/><text x="412.8" y="386.0" font-size="11" text-anchor="end" transform="rotate(-35 412.8 386.0)" font-family="sans-serif" fill="#374151">2026-03-15</text><line x1="570.6" y1="364.0" x2="570.6" y2="370.0" stroke="#111827" stroke-width="1"/><text x="572.6" y="386.0" font-size="11" text-anchor="end" transform="rotate(-35 572.6 386.0)" font-family="sans-serif" fill="#374151">2026-03-22</text><line x1="707.4" y1="364.0" x2="707.4" y2="370.0" stroke="#111827" stroke-width="1"/><text x="709.4" y="386.0" font-size="11" text-anchor="end" transform="rotate(-35 709.4 386.0)" font-family="sans-serif" fill="#374151">2026-03-28</text><line x1="867.2" y1="364.0" x2="867.2" y2="370.0" stroke="#111827" stroke-width="1"/><text x="869.2" y="386.0" font-size="11" text-anchor="end" transform="rotate(-35 869.2 386.0)" font-family="sans-serif" fill="#374151">2026-04-04</text><line x1="1026.9" y1="364.0" x2="1026.9" y2="370.0" stroke="#111827" stroke-width="1"/><text x="1028.9" y="386.0" font-size="11" text-anchor="end" transform="rotate(-35 1028.9 386.0)" font-family="sans-serif" fill="#374151">2026-04-11</text><line x1="1186.6" y1="364.0" x2="1186.6" y2="370.0" stroke="#111827" stroke-width="1"/><text x="1188.6" y="386.0" font-size="11" text-anchor="end" transform="rotate(-35 1188.6 386.0)" font-family="sans-serif" fill="#374151">2026-04-18</text><text x="26" y="208.0" font-size="12" transform="rotate(-90 26 208.0)" text-anchor="middle" font-family="sans-serif" fill="#1f2937">구간별 수</text><text x="1256.0" y="208.0" font-size="12" transform="rotate(90 1256.0 208.0)" text-anchor="middle" font-family="sans-serif" fill="#1f2937">누적</text><text x="639.0" y="442.0" font-size="13" text-anchor="middle" font-family="sans-serif" fill="#111827">일</text></svg>