<svg xmlns="http://www.w3.org/2000/svg" width="1280" height="460" viewBox="0 0 1280 460"><rect x="0" y="0" width="100%" height="100%" fill="#ffffff"/><text x="640.0" y="28" font-size="20" text-anchor="middle" font-family="sans-serif" fill="#111827">이벤트 / 최근 반영 시점 / 일별</text><line x1="80.0" y1="52.0" x2="1198.0" y2="52.0" stroke="#e5e7eb" stroke-width="1"/><text x="72.0" y="56.0" font-size="11" text-anchor="end" font-family="sans-serif" fill="#374151">215,878</text><text x="1206.0" y="56.0" font-size="11" text-anchor="start" font-family="sans-serif" fill="#374151">374,992</text><line x1="80.0" y1="114.4" x2="1198.0" y2="114.4" stroke="#e5e7eb" stroke-width="1"/><text x="72.0" y="118.4" font-size="11" text-anchor="end" font-family="sans-serif" fill="#374151">172,702</text><text x="1206.0" y="118.4" font-size="11" text-anchor="start" font-family="sans-serif" fill="#374151">299,994</text><line x1="80.0" y1="176.8" x2="1198.0" y2="176.8" stroke="#e5e7eb" stroke-width="1"/><text x="72.0" y="180.8" font-size="11" text-anchor="end" font-family="sans-serif" fill="#374151">129,527</text><text x="1206.0" y="180.8" font-size="11" text-anchor="start" font-family="sans-serif" fill="#374151">224,995</text><line x1="80.0" y1="239.2" x2="1198.0" y2="239.2" stroke="#e5e7eb" stroke-width="1"/><text x="72.0" y="243.2" font-size="11" text-anchor="end" font-family="sans-serif" fill="#374151">86,351</text><text x="1206.0" y="243.2" font-size="11" text-anchor="start" font-family="sans-serif" fill="#374151">149,997</text><line x1="80.0" y1="301.6" x2="1198.0" y2="301.6" stroke="#e5e7eb" stroke-width="1"/><text x="72.0" y="305.6" font-size="11" text-anchor="end" font-family="sans-serif" fill="#374151">43,176</text><text x="1206.0" y="305.6" font-size="11" text-anchor="start" font-family="sans-serif" fill="#374151">74,998</text><line x1="80.0" y1="364.0" x2="1198.0" y2="364.0" stroke="#e5e7eb" stroke-width="1"/><text x="72.0" y="368.0" font-size="11" text-anchor="end" font-family="sans-serif" fill="#374151">0</text><text x="1206.0" y="368.0" font-size="11" text-anchor="start" font-family="sans-serif" fill="#374151">0</text><line x1="80.0" y1="364.0" x2="1198.0" y2="364.0" stroke="#111827" stroke-width="1.2"/><line x1="80.0" y1="52.0" x2="80.0" y2="364.0" stroke="#111827" stroke-width="1.2"/><line x1="1198.0" y1="52.0" x2="1198.0" y2="364.0" stroke="#111827" stroke-width="1.2"/><rect x="81.0" y="364.0" width="21.8" height="0.0" fill="#93c5fd" stroke="#60a5fa" stroke-width="0.5"/><rect x="104.8" y="52.0" width="21.8" height="312.0" fill="#93c5fd" stroke="#60a5fa" stroke-width="0.5"/><rect x="128.6" y="360.8" width="21.8" height="3.2" fill="#93c5fd" stroke="#60a5fa" stroke-width="0.5"/><rect x="152.4" y="360.6" width="21.8" height="3.4" fill="#93c5fd" stroke="#60a5fa" stroke-width="0.5"/><rect x="176.1" y="360.6" width="21.8" height="3.4" fill="#93c5fd" stroke="#60a5fa" stroke-width="0.5"/><rect x="199.9" y="361.8" width="21.8" height="2.2" fill="#93c5fd" stroke="#60a5fa" stroke-width="0.5"/><rect x="223.7" y="360.7" width="21.8" height="3.3" fill="#93c5fd" stroke="#60a5fa" stroke-width="0.5"/><rect x="247.5" y="360.6" width="21.8" height="3.4" fill="#93c5fd" stroke="#60a5fa" stroke-width="0.5"/><rect x="271.3" y="362.5" width="21.8" height="1.5" fill="#93c5fd" stroke="#60a5fa" stroke-width="0.5"/><rect x="295.1" y="360.9" width="21.8" height="3.1" fill="#93c5fd" stroke="#60a5fa" stroke-width="0.5"/><rect x="318.9" y="360.6" width="21.8" height="3.4" fill="#93c5fd" stroke="#60a5fa" stroke-width="0.5"/><rect x="342.7" y="360.7" width="21.8" height="3.3" fill="#93c5fd" stroke="#60a5fa" stroke-width="0.5"/><rect x="366.4" y="361.1" width="21.8" height="2.9" fill="#93c5fd" stroke="#60a5fa" stroke-width="0.5"/><rect x="390.2" y="360.9" width="21.8" height="3.1" fill="#93c5fd" stroke="#60a5fa" stroke-width="0.5"/><rect x="414.0" y="361.0" width="21.8" height="3.0" fill="#93c5fd" stroke="#60a5fa" stroke-width="0.5"/><rect x="437.8" y="360.5" width="21.8" height="3.5" fill="#93c5fd" stroke="#60a5fa" stroke-width="0.5"/><rect x="461.6" y="359.2" width="21.8" height="4.8" fill="#93c5fd" stroke="#60a5fa" stroke-width="0.5"/><rect x="485.4" y="359.8" width="21.8" height="4.2" fill="#93c5fd" stroke="#60a5fa" stroke-width="0.5"/><rect x="509.2" y="359.6" width="21.8" height="4.4" fill="#93c5fd" stroke="#60a5fa" stroke-width="0.5"/><rect x="533.0" y="359.6" width="21.8" height="4.4" fill="#93c5fd" stroke="#60a5fa" stroke-width="0.5"/><rect x="556.7" y="359.4" width="21.8" height="4.6" fill="#93c5fd" stroke="#60a5fa" stroke-width="0.5"/><rect x="580.5" y="359.6" width="21.8" height="4.4" fill="#93c5fd" stroke="#60a5fa" stroke-width="0.5"/><rect x="604.3" y="359.8" width="21.8" height="4.2" fill="#93c5fd" stroke="#60a5fa" stroke-width="0.5"/><rect x="628.1" y="359.6" width="21.8" height="4.4" fill="#93c5fd" stroke="#60a5fa" stroke-width="0.5"/><rect x="651.9" y="359.9" width="21.8" height="4.1" fill="#93c5fd" stroke="#60a5fa" stroke-width="0.5"/><rect x="675.7" y="359.2" width="21.8" height="4.8" fill="#93c5fd" stroke="#60a5fa" stroke-width="0.5"/><rect x="699.5" y="358.9" width="21.8" height="5.1" fill="#93c5fd" stroke="#60a5fa" stroke-width="0.5"/><rect x="723.3" y="359.7" width="21.8" height="4.3" fill="#93c5fd" stroke="#60a5fa" stroke-width="0.5"/><rect x="747.0" y="360.2" width="21.8" height="3.8" fill="#93c5fd" stroke="#60a5fa" stroke-width="0.5"/><rect x="770.8" y="359.7" width="21.8" height="4.3" fill="#93c5fd" stroke="#60a5fa" stroke-width="0.5"/><rect x="794.6" y="359.6" width="21.8" height="4.4" fill="#93c5fd" stroke="#60a5fa" stroke-width="0.5"/><rect x="818.4" y="359.4" width="21.8" height="4.6" fill="#93c5fd" stroke="#60a5fa" stroke-width="0.5"/><rect x="842.2" y="359.4" width="21.8" height="4.6" fill="#93c5fd" stroke="#60a5fa" stroke-width="0.5"/><rect x="866.0" y="359.8" width="21.8" height="4.2" fill="#93c5fd" stroke="#60a5fa" stroke-width="0.5"/><rect x="889.8" y="358.8" width="21.8" height="5.2" fill="#93c5fd" stroke="#60a5fa" stroke-width="0.5"/><rect x="913.6" y="360.0" width="21.8" height="4.0" fill="#93c5fd" stroke="#60a5fa" stroke-width="0.5"/><rect x="937.3" y="358.7" width="21.8" height="5.3" fill="#93c5fd" stroke="#60a5fa" stroke-width="0.5"/><rect x="961.1" y="360.1" width="21.8" height="3.9" fill="#93c5fd" stroke="#60a5fa" stroke-width="0.5"/><rect x="984.9" y="359.5" width="21.8" height="4.5" fill="#93c5fd" stroke="#60a5fa" stroke-width="0.5"/><rect x="1008.7" y="359.6" width="21.8" height="4.4" fill="#93c5fd" stroke="#60a5fa" stroke-width="0.5"/><rect x="1032.5" y="359.5" width="21.8" height="4.5" fill="#93c5fd" stroke="#60a5fa" stroke-width="0.5"/><rect x="1056.3" y="359.6" width="21.8" height="4.4" fill="#93c5fd" stroke="#60a5fa" stroke-width="0.5"/><rect x="1080.1" y="359.1" width="21.8" height="4.9" fill="#93c5fd" stroke="#60a5fa" stroke-width="0.5"/><rect x="1103.9" y="359.7" width="21.8" height="4.3" fill="#93c5fd" stroke="#60a5fa" stroke-width="0.5"/><rect x="1127.6" y="359.8" width="21.8" height="4.2" fill="#93c5fd" stroke="#60a5fa" stroke-width="0.5"/><rect x="1151.4" y="359.4" width="21.8" height="4.6" fill="#93c5fd" stroke="#60a5fa" stroke-width="0.5"/><rect x="1175.2" y="310.6" width="21.8" height="53.4" fill="#93c5fd" stroke="#60a5fa" stroke-width="0.5"/><polyline fill="none" stroke="#ef4444" stroke-width="2" points="91.9,364.0 115.7,184.4 139.5,182.5 163.3,180.6 187.0,178.6 210.8,177.3 234.6,175.4 258.4,173.5 282.2,172.6 306.0,170.8 329.8,168.9 353.6,167.0 377.3,165.3 401.1,163.5 424.9,161.8 448.7,159.8 472.5,157.0 496.3,154.6 520.1,152.1 543.9,149.6 567.6,146.9 591.4,144.4 615.2,142.0 639.0,139.5 662.8,137.1 686.6,134.4 710.4,131.5 734.1,129.0 757.9,126.7 781.7,124.2 805.5,121.7 829.3,119.1 853.1,116.4 876.9,114.0 900.7,111.0 924.4,108.7 948.2,105.6 972.0,103.4 995.8,100.8 1019.6,98.3 1043.4,95.7 1067.2,93.2 1091.0,90.3 1114.7,87.9 1138.5,85.4 1162.3,82.8 1186.1,52.0"/><line x1="91.9" y1="364.0" x2="91.9" y2="370.0" stroke="#111827" stroke-width="1"/><text x="93.9" y="386.0" font-size="11" text-anchor="end" transform="rotate(-35 93.9 386.0)" font-family="sans-serif" fill="#374151">2026-02-17</text><line x1="258.4" y1="364.0" x2="258.4" y2="370.0" stroke="#111827" stroke-width="1"/><text x="260.4" y="386.0" font-size="11" text-anchor="end" transform="rotate(-35 260.4 386.0)" font-family="sans-serif" fill="#374151">2026-03-08</text><line x1="401.1" y1="364.0" x2="401.1" y2="370.0" stroke="#111827" stroke-width="1"/><text x="403.1" y="386.0" font-size="11" text-anchor="end" transform="rotate(-35 403.1 386.0)" font-family="sans-serif" fill="#374151">2026-03-14</text><line x1="567.6" y1="364.0" x2="567.6" y2="370.0" stroke="#111827" stroke-width="1"/><text x="569.6" y="386.0" font-size="11" text-anchor="end" transform="rotate(-35 569.6 386.0)" font-family="sans-serif" fill="#374151">2026-03-21</text><line x1="710.4" y1="364.0" x2="710.4" y2="370.0" stroke="#111827" stroke-width="1"/><text x="712.4" y="386.0" font-size="11" text-anchor="end" transform="rotate(-35 712.4 386.0)" font-family="sans-serif" fill="#374151">2026-03-27</text><line x1="876.9" y1="364.0" x2="876.9" y2="370.0" stroke="#111827" stroke-width="1"/><text x="878.9" y="386.0" font-size="11" text-anchor="end" transform="rotate(-35 878.9 386.0)" font-family="sans-serif" fill="#374151">2026-04-03</text><line x1="1019.6" y1="364.0" x2="1019.6" y2="370.0" stroke="#111827" stroke-width="1"/><text x="1021.6" y="386.0" font-size="11" text-anchor="end" transform="rotate(-35 1021.6 386.0)" font-family="sans-serif" fill="#374151">2026-04-09</text><line x1="1186.1" y1="364.0" x2="1186.1" y2="370.0" stroke="#111827" stroke-width="1"/><text x="1188.1" y="386.0" font-size="11" text-anchor="end" transform="rotate(-35 1188.1 386.0)" font-family="sans-serif" fill="#374151">2026-04-16</text><text x="26" y="208.0" font-size="12" transform="rotate(-90 26 208.0)" text-anchor="middle" font-family="sans-serif" fill="#1f2937">구간별 수</text><text x="1256.0" y="208.0" font-size="12" transform="rotate(90 1256.0 208.0)" text-anchor="middle" font-family="sans-serif" fill="#1f2937">누적</text><text x="639.0" y="442.0" font-size="13" text-anchor="middle" font-family="sans-serif" fill="#111827">일</text></svg>