<svg xmlns="http://www.w3.org/2000/svg" width="1280" height="460" viewBox="0 0 1280 460"><rect x="0" y="0" width="100%" height="100%" fill="#ffffff"/><text x="640.0" y="28" font-size="20" text-anchor="middle" font-family="sans-serif" fill="#111827">이벤트 / 최근 반영 시점 / 일별</text><line x1="80.0" y1="52.0" x2="1198.0" y2="52.0" stroke="#e5e7eb" stroke-width="1"/><text x="72.0" y="56.0" font-size="11" text-anchor="end" font-family="sans-serif" fill="#374151">215,967</text><text x="1206.0" y="56.0" font-size="11" text-anchor="start" font-family="sans-serif" fill="#374151">323,584</text><line x1="80.0" y1="114.4" x2="1198.0" y2="114.4" stroke="#e5e7eb" stroke-width="1"/><text x="72.0" y="118.4" font-size="11" text-anchor="end" font-family="sans-serif" fill="#374151">172,774</text><text x="1206.0" y="118.4" font-size="11" text-anchor="start" font-family="sans-serif" fill="#374151">258,867</text><line x1="80.0" y1="176.8" x2="1198.0" y2="176.8" stroke="#e5e7eb" stroke-width="1"/><text x="72.0" y="180.8" font-size="11" text-anchor="end" font-family="sans-serif" fill="#374151">129,580</text><text x="1206.0" y="180.8" font-size="11" text-anchor="start" font-family="sans-serif" fill="#374151">194,150</text><line x1="80.0" y1="239.2" x2="1198.0" y2="239.2" stroke="#e5e7eb" stroke-width="1"/><text x="72.0" y="243.2" font-size="11" text-anchor="end" font-family="sans-serif" fill="#374151">86,387</text><text x="1206.0" y="243.2" font-size="11" text-anchor="start" font-family="sans-serif" fill="#374151">129,434</text><line x1="80.0" y1="301.6" x2="1198.0" y2="301.6" stroke="#e5e7eb" stroke-width="1"/><text x="72.0" y="305.6" font-size="11" text-anchor="end" font-family="sans-serif" fill="#374151">43,193</text><text x="1206.0" y="305.6" font-size="11" text-anchor="start" font-family="sans-serif" fill="#374151">64,717</text><line x1="80.0" y1="364.0" x2="1198.0" y2="364.0" stroke="#e5e7eb" stroke-width="1"/><text x="72.0" y="368.0" font-size="11" text-anchor="end" font-family="sans-serif" fill="#374151">0</text><text x="1206.0" y="368.0" font-size="11" text-anchor="start" font-family="sans-serif" fill="#374151">0</text><line x1="80.0" y1="364.0" x2="1198.0" y2="364.0" stroke="#111827" stroke-width="1.2"/><line x1="80.0" y1="52.0" x2="80.0" y2="364.0" stroke="#111827" stroke-width="1.2"/><line x1="1198.0" y1="52.0" x2="1198.0" y2="364.0" stroke="#111827" stroke-width="1.2"/><rect x="81.0" y="364.0" width="31.9" height="0.0" fill="#93c5fd" stroke="#60a5fa" stroke-width="0.5"/><rect x="114.9" y="52.0" width="31.9" height="312.0" fill="#93c5fd" stroke="#60a5fa" stroke-width="0.5"/><rect x="148.8" y="360.8" width="31.9" height="3.2" fill="#93c5fd" stroke="#60a5fa" stroke-width="0.5"/><rect x="182.6" y="360.6" width="31.9" height="3.4" fill="#93c5fd" stroke="#60a5fa" stroke-width="0.5"/><rect x="216.5" y="360.6" width="31.9" height="3.4" fill="#93c5fd" stroke="#60a5fa" stroke-width="0.5"/><rect x="250.4" y="361.8" width="31.9" height="2.2" fill="#93c5fd" stroke="#60a5fa" stroke-width="0.5"/><rect x="284.3" y="360.7" width="31.9" height="3.3" fill="#93c5fd" stroke="#60a5fa" stroke-width="0.5"/><rect x="318.2" y="360.6" width="31.9" height="3.4" fill="#93c5fd" stroke="#60a5fa" stroke-width="0.5"/><rect x="352.0" y="362.5" width="31.9" height="1.5" fill="#93c5fd" stroke="#60a5fa" stroke-width="0.5"/><rect x="385.9" y="360.9" width="31.9" height="3.1" fill="#93c5fd" stroke="#60a5fa" stroke-width="0.5"/><rect x="419.8" y="360.6" width="31.9" height="3.4" fill="#93c5fd" stroke="#60a5fa" stroke-width="0.5"/><rect x="453.7" y="360.7" width="31.9" height="3.3" fill="#93c5fd" stroke="#60a5fa" stroke-width="0.5"/><rect x="487.5" y="361.1" width="31.9" height="2.9" fill="#93c5fd" stroke="#60a5fa" stroke-width="0.5"/><rect x="521.4" y="360.9" width="31.9" height="3.1" fill="#93c5fd" stroke="#60a5fa" stroke-width="0.5"/><rect x="555.3" y="361.0" width="31.9" height="3.0" fill="#93c5fd" stroke="#60a5fa" stroke-width="0.5"/><rect x="589.2" y="360.5" width="31.9" height="3.5" fill="#93c5fd" stroke="#60a5fa" stroke-width="0.5"/><rect x="623.1" y="359.2" width="31.9" height="4.8" fill="#93c5fd" stroke="#60a5fa" stroke-width="0.5"/><rect x="656.9" y="359.8" width="31.9" height="4.2" fill="#93c5fd" stroke="#60a5fa" stroke-width="0.5"/><rect x="690.8" y="359.7" width="31.9" height="4.3" fill="#93c5fd" stroke="#60a5fa" stroke-width="0.5"/><rect x="724.7" y="359.5" width="31.9" height="4.5" fill="#93c5fd" stroke="#60a5fa" stroke-width="0.5"/><rect x="758.6" y="359.4" width="31.9" height="4.6" fill="#93c5fd" stroke="#60a5fa" stroke-width="0.5"/><rect x="792.5" y="359.6" width="31.9" height="4.4" fill="#93c5fd" stroke="#60a5fa" stroke-width="0.5"/><rect x="826.3" y="359.8" width="31.9" height="4.2" fill="#93c5fd" stroke="#60a5fa" stroke-width="0.5"/><rect x="860.2" y="359.6" width="31.9" height="4.4" fill="#93c5fd" stroke="#60a5fa" stroke-width="0.5"/><rect x="894.1" y="359.9" width="31.9" height="4.1" fill="#93c5fd" stroke="#60a5fa" stroke-width="0.5"/><rect x="928.0" y="359.2" width="31.9" height="4.8" fill="#93c5fd" stroke="#60a5fa" stroke-width="0.5"/><rect x="961.8" y="358.9" width="31.9" height="5.1" fill="#93c5fd" stroke="#60a5fa" stroke-width="0.5"/><rect x="995.7" y="359.7" width="31.9" height="4.3" fill="#93c5fd" stroke="#60a5fa" stroke-width="0.5"/><rect x="1029.6" y="360.2" width="31.9" height="3.8" fill="#93c5fd" stroke="#60a5fa" stroke-width="0.5"/><rect x="1063.5" y="359.7" width="31.9" height="4.3" fill="#93c5fd" stroke="#60a5fa" stroke-width="0.5"/><rect x="1097.4" y="359.6" width="31.9" height="4.4" fill="#93c5fd" stroke="#60a5fa" stroke-width="0.5"/><rect x="1131.2" y="344.1" width="31.9" height="19.9" fill="#93c5fd" stroke="#60a5fa" stroke-width="0.5"/><rect x="1165.1" y="337.4" width="31.9" height="26.6" fill="#93c5fd" stroke="#60a5fa" stroke-width="0.5"/><polyline fill="none" stroke="#ef4444" stroke-width="2" points="96.9,364.0 130.8,155.8 164.7,153.6 198.6,151.3 232.5,149.0 266.3,147.6 300.2,145.4 334.1,143.1 368.0,142.1 401.8,140.0 435.7,137.8 469.6,135.6 503.5,133.6 537.4,131.6 571.2,129.6 605.1,127.2 639.0,124.1 672.9,121.3 706.8,118.4 740.6,115.4 774.5,112.3 808.4,109.4 842.3,106.5 876.2,103.6 910.0,100.9 943.9,97.7 977.8,94.3 1011.7,91.4 1045.5,88.9 1079.4,86.0 1113.3,83.0 1147.2,69.8 1181.1,52.0"/><line x1="96.9" y1="364.0" x2="96.9" y2="370.0" stroke="#111827" stroke-width="1"/><text x="98.9" y="386.0" font-size="11" text-anchor="end" transform="rotate(-35 98.9 386.0)" font-family="sans-serif" fill="#374151">2026-02-17</text><line x1="266.3" y1="364.0" x2="266.3" y2="370.0" stroke="#111827" stroke-width="1"/><text x="268.3" y="386.0" font-size="11" text-anchor="end" transform="rotate(-35 268.3 386.0)" font-family="sans-serif" fill="#374151">2026-03-06</text><line x1="401.8" y1="364.0" x2="401.8" y2="370.0" stroke="#111827" stroke-width="1"/><text x="403.8" y="386.0" font-size="11" text-anchor="end" transform="rotate(-35 403.8 386.0)" font-family="sans-serif" fill="#374151">2026-03-10</text><line x1="571.2" y1="364.0" x2="571.2" y2="370.0" stroke="#111827" stroke-width="1"/><text x="573.2" y="386.0" font-size="11" text-anchor="end" transform="rotate(-35 573.2 386.0)" font-family="sans-serif" fill="#374151">2026-03-15</text><line x1="706.8" y1="364.0" x2="706.8" y2="370.0" stroke="#111827" stroke-width="1"/><text x="708.8" y="386.0" font-size="11" text-anchor="end" transform="rotate(-35 708.8 386.0)" font-family="sans-serif" fill="#374151">2026-03-19</text><line x1="876.2" y1="364.0" x2="876.2" y2="370.0" stroke="#111827" stroke-width="1"/><text x="878.2" y="386.0" font-size="11" text-anchor="end" transform="rotate(-35 878.2 386.0)" font-family="sans-serif" fill="#374151">2026-03-24</text><line x1="1011.7" y1="364.0" x2="1011.7" y2="370.0" stroke="#111827" stroke-width="1"/><text x="1013.7" y="386.0" font-size="11" text-anchor="end" transform="rotate(-35 1013.7 386.0)" font-family="sans-serif" fill="#374151">2026-03-28</text><line x1="1181.1" y1="364.0" x2="1181.1" y2="370.0" stroke="#111827" stroke-width="1"/><text x="1183.1" y="386.0" font-size="11" text-anchor="end" transform="rotate(-35 1183.1 386.0)" font-family="sans-serif" fill="#374151">2026-04-02</text><text x="26" y="208.0" font-size="12" transform="rotate(-90 26 208.0)" text-anchor="middle" font-family="sans-serif" fill="#1f2937">구간별 수</text><text x="1256.0" y="208.0" font-size="12" transform="rotate(90 1256.0 208.0)" text-anchor="middle" font-family="sans-serif" fill="#1f2937">누적</text><text x="639.0" y="442.0" font-size="13" text-anchor="middle" font-family="sans-serif" fill="#111827">일</text></svg>