<svg xmlns="http://www.w3.org/2000/svg" width="1280" height="460" viewBox="0 0 1280 460"><rect x="0" y="0" width="100%" height="100%" fill="#ffffff"/><text x="640.0" y="28" font-size="20" text-anchor="middle" font-family="sans-serif" fill="#111827">이벤트 / 최근 반영 시점 / 일별</text><line x1="80.0" y1="52.0" x2="1198.0" y2="52.0" stroke="#e5e7eb" stroke-width="1"/><text x="72.0" y="56.0" font-size="11" text-anchor="end" font-family="sans-serif" fill="#374151">215,821</text><text x="1206.0" y="56.0" font-size="11" text-anchor="start" font-family="sans-serif" fill="#374151">421,419</text><line x1="80.0" y1="114.4" x2="1198.0" y2="114.4" stroke="#e5e7eb" stroke-width="1"/><text x="72.0" y="118.4" font-size="11" text-anchor="end" font-family="sans-serif" fill="#374151">172,657</text><text x="1206.0" y="118.4" font-size="11" text-anchor="start" font-family="sans-serif" fill="#374151">337,135</text><line x1="80.0" y1="176.8" x2="1198.0" y2="176.8" stroke="#e5e7eb" stroke-width="1"/><text x="72.0" y="180.8" font-size="11" text-anchor="end" font-family="sans-serif" fill="#374151">129,493</text><text x="1206.0" y="180.8" font-size="11" text-anchor="start" font-family="sans-serif" fill="#374151">252,851</text><line x1="80.0" y1="239.2" x2="1198.0" y2="239.2" stroke="#e5e7eb" stroke-width="1"/><text x="72.0" y="243.2" font-size="11" text-anchor="end" font-family="sans-serif" fill="#374151">86,328</text><text x="1206.0" y="243.2" font-size="11" text-anchor="start" font-family="sans-serif" fill="#374151">168,568</text><line x1="80.0" y1="301.6" x2="1198.0" y2="301.6" stroke="#e5e7eb" stroke-width="1"/><text x="72.0" y="305.6" font-size="11" text-anchor="end" font-family="sans-serif" fill="#374151">43,164</text><text x="1206.0" y="305.6" font-size="11" text-anchor="start" font-family="sans-serif" fill="#374151">84,284</text><line x1="80.0" y1="364.0" x2="1198.0" y2="364.0" stroke="#e5e7eb" stroke-width="1"/><text x="72.0" y="368.0" font-size="11" text-anchor="end" font-family="sans-serif" fill="#374151">0</text><text x="1206.0" y="368.0" font-size="11" text-anchor="start" font-family="sans-serif" fill="#374151">0</text><line x1="80.0" y1="364.0" x2="1198.0" y2="364.0" stroke="#111827" stroke-width="1.2"/><line x1="80.0" y1="52.0" x2="80.0" y2="364.0" stroke="#111827" stroke-width="1.2"/><line x1="1198.0" y1="52.0" x2="1198.0" y2="364.0" stroke="#111827" stroke-width="1.2"/><rect x="81.0" y="364.0" width="16.6" height="0.0" fill="#93c5fd" stroke="#60a5fa" stroke-width="0.5"/><rect x="99.6" y="52.0" width="16.6" height="312.0" fill="#93c5fd" stroke="#60a5fa" stroke-width="0.5"/><rect x="118.3" y="360.8" width="16.6" height="3.2" fill="#93c5fd" stroke="#60a5fa" stroke-width="0.5"/><rect x="136.9" y="360.6" width="16.6" height="3.4" fill="#93c5fd" stroke="#60a5fa" stroke-width="0.5"/><rect x="155.5" y="360.6" width="16.6" height="3.4" fill="#93c5fd" stroke="#60a5fa" stroke-width="0.5"/><rect x="174.2" y="361.8" width="16.6" height="2.2" fill="#93c5fd" stroke="#60a5fa" stroke-width="0.5"/><rect x="192.8" y="360.7" width="16.6" height="3.3" fill="#93c5fd" stroke="#60a5fa" stroke-width="0.5"/><rect x="211.4" y="360.6" width="16.6" height="3.4" fill="#93c5fd" stroke="#60a5fa" stroke-width="0.5"/><rect x="230.1" y="362.5" width="16.6" height="1.5" fill="#93c5fd" stroke="#60a5fa" stroke-width="0.5"/><rect x="248.7" y="360.9" width="16.6" height="3.1" fill="#93c5fd" stroke="#60a5fa" stroke-width="0.5"/><rect x="267.3" y="360.6" width="16.6" height="3.4" fill="#93c5fd" stroke="#60a5fa" stroke-width="0.5"/><rect x="286.0" y="360.7" width="16.6" height="3.3" fill="#93c5fd" stroke="#60a5fa" stroke-width="0.5"/><rect x="304.6" y="361.1" width="16.6" height="2.9" fill="#93c5fd" stroke="#60a5fa" stroke-width="0.5"/><rect x="323.2" y="360.9" width="16.6" height="3.1" fill="#93c5fd" stroke="#60a5fa" stroke-width="0.5"/><rect x="341.9" y="361.0" width="16.6" height="3.0" fill="#93c5fd" stroke="#60a5fa" stroke-width="0.5"/><rect x="360.5" y="360.5" width="16.6" height="3.5" fill="#93c5fd" stroke="#60a5fa" stroke-width="0.5"/><rect x="379.1" y="359.2" width="16.6" height="4.8" fill="#93c5fd" stroke="#60a5fa" stroke-width="0.5"/><rect x="397.8" y="359.8" width="16.6" height="4.2" fill="#93c5fd" stroke="#60a5fa" stroke-width="0.5"/><rect x="416.4" y="359.6" width="16.6" height="4.4" fill="#93c5fd" stroke="#60a5fa" stroke-width="0.5"/><rect x="435.0" y="359.6" width="16.6" height="4.4" fill="#93c5fd" stroke="#60a5fa" stroke-width="0.5"/><rect x="453.7" y="359.4" width="16.6" height="4.6" fill="#93c5fd" stroke="#60a5fa" stroke-width="0.5"/><rect x="472.3" y="359.6" width="16.6" height="4.4" fill="#93c5fd" stroke="#60a5fa" stroke-width="0.5"/><rect x="490.9" y="359.8" width="16.6" height="4.2" fill="#93c5fd" stroke="#60a5fa" stroke-width="0.5"/><rect x="509.6" y="359.6" width="16.6" height="4.4" fill="#93c5fd" stroke="#60a5fa" stroke-width="0.5"/><rect x="528.2" y="359.9" width="16.6" height="4.1" fill="#93c5fd" stroke="#60a5fa" stroke-width="0.5"/><rect x="546.8" y="359.2" width="16.6" height="4.8" fill="#93c5fd" stroke="#60a5fa" stroke-width="0.5"/><rect x="565.5" y="358.9" width="16.6" height="5.1" fill="#93c5fd" stroke="#60a5fa" stroke-width="0.5"/><rect x="584.1" y="359.7" width="16.6" height="4.3" fill="#93c5fd" stroke="#60a5fa" stroke-width="0.5"/><rect x="602.7" y="360.2" width="16.6" height="3.8" fill="#93c5fd" stroke="#60a5fa" stroke-width="0.5"/><rect x="621.4" y="359.7" width="16.6" height="4.3" fill="#93c5fd" stroke="#60a5fa" stroke-width="0.5"/><rect x="640.0" y="359.6" width="16.6" height="4.4" fill="#93c5fd" stroke="#60a5fa" stroke-width="0.5"/><rect x="658.6" y="359.4" width="16.6" height="4.6" fill="#93c5fd" stroke="#60a5fa" stroke-width="0.5"/><rect x="677.3" y="359.4" width="16.6" height="4.6" fill="#93c5fd" stroke="#60a5fa" stroke-width="0.5"/><rect x="695.9" y="359.8" width="16.6" height="4.2" fill="#93c5fd" stroke="#60a5fa" stroke-width="0.5"/><rect x="714.5" y="358.8" width="16.6" height="5.2" fill="#93c5fd" stroke="#60a5fa" stroke-width="0.5"/><rect x="733.2" y="360.0" width="16.6" height="4.0" fill="#93c5fd" stroke="#60a5fa" stroke-width="0.5"/><rect x="751.8" y="358.7" width="16.6" height="5.3" fill="#93c5fd" stroke="#60a5fa" stroke-width="0.5"/><rect x="770.4" y="360.1" width="16.6" height="3.9" fill="#93c5fd" stroke="#60a5fa" stroke-width="0.5"/><rect x="789.1" y="359.5" width="16.6" height="4.5" fill="#93c5fd" stroke="#60a5fa" stroke-width="0.5"/><rect x="807.7" y="359.6" width="16.6" height="4.4" fill="#93c5fd" stroke="#60a5fa" stroke-width="0.5"/><rect x="826.3" y="359.5" width="16.6" height="4.5" fill="#93c5fd" stroke="#60a5fa" stroke-width="0.5"/><rect x="845.0" y="359.7" width="16.6" height="4.3" fill="#93c5fd" stroke="#60a5fa" stroke-width="0.5"/><rect x="863.6" y="359.1" width="16.6" height="4.9" fill="#93c5fd" stroke="#60a5fa" stroke-width="0.5"/><rect x="882.2" y="359.8" width="16.6" height="4.2" fill="#93c5fd" stroke="#60a5fa" stroke-width="0.5"/><rect x="900.9" y="359.8" width="16.6" height="4.2" fill="#93c5fd" stroke="#60a5fa" stroke-width="0.5"/><rect x="919.5" y="359.4" width="16.6" height="4.6" fill="#93c5fd" stroke="#60a5fa" stroke-width="0.5"/><rect x="938.1" y="359.0" width="16.6" height="5.0" fill="#93c5fd" stroke="#60a5fa" stroke-width="0.5"/><rect x="956.8" y="359.2" width="16.6" height="4.8" fill="#93c5fd" stroke="#60a5fa" stroke-width="0.5"/><rect x="975.4" y="359.9" width="16.6" height="4.1" fill="#93c5fd" stroke="#60a5fa" stroke-width="0.5"/><rect x="994.0" y="359.1" width="16.6" height="4.9" fill="#93c5fd" stroke="#60a5fa" stroke-width="0.5"/><rect x="1012.7" y="359.7" width="16.6" height="4.3" fill="#93c5fd" stroke="#60a5fa" stroke-width="0.5"/><rect x="1031.3" y="359.6" width="16.6" height="4.4" fill="#93c5fd" stroke="#60a5fa" stroke-width="0.5"/><rect x="1049.9" y="359.1" width="16.6" height="4.9" fill="#93c5fd" stroke="#60a5fa" stroke-width="0.5"/><rect x="1068.6" y="359.2" width="16.6" height="4.8" fill="#93c5fd" stroke="#60a5fa" stroke-width="0.5"/><rect x="1087.2" y="359.4" width="16.6" height="4.6" fill="#93c5fd" stroke="#60a5fa" stroke-width="0.5"/><rect x="1105.8" y="359.4" width="16.6" height="4.6" fill="#93c5fd" stroke="#60a5fa" stroke-width="0.5"/><rect x="1124.5" y="359.4" width="16.6" height="4.6" fill="#93c5fd" stroke="#60a5fa" stroke-width="0.5"/><rect x="1143.1" y="359.4" width="16.6" height="4.6" fill="#93c5fd" stroke="#60a5fa" stroke-width="0.5"/><rect x="1161.7" y="358.5" width="16.6" height="5.5" fill="#93c5fd" stroke="#60a5fa" stroke-width="0.5"/><rect x="1180.4" y="304.4" width="16.6" height="59.6" fill="#93c5fd" stroke="#60a5fa" stroke-width="0.5"/><polyline fill="none" stroke="#ef4444" stroke-width="2" points="89.3,364.0 107.9,204.2 126.6,202.6 145.2,200.8 163.8,199.1 182.5,198.0 201.1,196.3 219.8,194.5 238.4,193.7 257.0,192.1 275.6,190.4 294.3,188.7 312.9,187.2 331.6,185.7 350.2,184.1 368.8,182.3 387.4,179.9 406.1,177.7 424.7,175.5 443.3,173.2 462.0,170.9 480.6,168.6 499.2,166.5 517.9,164.2 536.5,162.2 555.1,159.7 573.8,157.1 592.4,154.9 611.1,152.9 629.7,150.7 648.3,148.5 667.0,146.1 685.6,143.7 704.2,141.6 722.9,138.9 741.5,136.8 760.1,134.1 778.8,132.1 797.4,129.8 816.0,127.6 834.6,125.3 853.3,123.1 871.9,120.5 890.6,118.4 909.2,116.2 927.8,113.8 946.5,111.3 965.1,108.8 983.7,106.7 1002.4,104.2 1021.0,102.0 1039.6,99.7 1058.2,97.2 1076.9,94.8 1095.5,92.4 1114.1,90.0 1132.8,87.7 1151.4,85.3 1170.0,82.5 1188.7,52.0"/><line x1="89.3" y1="364.0" x2="89.3" y2="370.0" stroke="#111827" stroke-width="1"/><text x="91.3" y="386.0" font-size="11" text-anchor="end" transform="rotate(-35 91.3 386.0)" font-family="sans-serif" fill="#374151">2026-02-17</text><line x1="238.4" y1="364.0" x2="238.4" y2="370.0" stroke="#111827" stroke-width="1"/><text x="240.4" y="386.0" font-size="11" text-anchor="end" transform="rotate(-35 240.4 386.0)" font-family="sans-serif" fill="#374151">2026-03-09</text><line x1="406.1" y1="364.0" x2="406.1" y2="370.0" stroke="#111827" stroke-width="1"/><text x="408.1" y="386.0" font-size="11" text-anchor="end" transform="rotate(-35 408.1 386.0)" font-family="sans-serif" fill="#374151">2026-03-18</text><line x1="555.1" y1="364.0" x2="555.1" y2="370.0" stroke="#111827" stroke-width="1"/><text x="557.1" y="386.0" font-size="11" text-anchor="end" transform="rotate(-35 557.1 386.0)" font-family="sans-serif" fill="#374151">2026-03-26</text><line x1="722.9" y1="364.0" x2="722.9" y2="370.0" stroke="#111827" stroke-width="1"/><text x="724.9" y="386.0" font-size="11" text-anchor="end" transform="rotate(-35 724.9 386.0)" font-family="sans-serif" fill="#374151">2026-04-04</text><line x1="871.9" y1="364.0" x2="871.9" y2="370.0" stroke="#111827" stroke-width="1"/><text x="873.9" y="386.0" font-size="11" text-anchor="end" transform="rotate(-35 873.9 386.0)" font-family="sans-serif" fill="#374151">2026-04-12</text><line x1="1039.6" y1="364.0" x2="1039.6" y2="370.0" stroke="#111827" stroke-width="1"/><text x="1041.6" y="386.0" font-size="11" text-anchor="end" transform="rotate(-35 1041.6 386.0)" font-family="sans-serif" fill="#374151">2026-04-21</text><line x1="1188.7" y1="364.0" x2="1188.7" y2="370.0" stroke="#111827" stroke-width="1"/><text x="1190.7" y="386.0" font-size="11" text-anchor="end" transform="rotate(-35 1190.7 386.0)" font-family="sans-serif" fill="#374151">2026-04-29</text><text x="26" y="208.0" font-size="12" transform="rotate(-90 26 208.0)" text-anchor="middle" font-family="sans-serif" fill="#1f2937">구간별 수</text><text x="1256.0" y="208.0" font-size="12" transform="rotate(90 1256.0 208.0)" text-anchor="middle" font-family="sans-serif" fill="#1f2937">누적</text><text x="639.0" y="442.0" font-size="13" text-anchor="middle" font-family="sans-serif" fill="#111827">일</text></svg>