<svg xmlns="http://www.w3.org/2000/svg" width="1280" height="460" viewBox="0 0 1280 460"><rect x="0" y="0" width="100%" height="100%" fill="#ffffff"/><text x="640.0" y="28" font-size="20" text-anchor="middle" font-family="sans-serif" fill="#111827">이벤트 / 최근 반영 시점 / 일별</text><line x1="80.0" y1="52.0" x2="1198.0" y2="52.0" stroke="#e5e7eb" stroke-width="1"/><text x="72.0" y="56.0" font-size="11" text-anchor="end" font-family="sans-serif" fill="#374151">215,829</text><text x="1206.0" y="56.0" font-size="11" text-anchor="start" font-family="sans-serif" fill="#374151">413,547</text><line x1="80.0" y1="114.4" x2="1198.0" y2="114.4" stroke="#e5e7eb" stroke-width="1"/><text x="72.0" y="118.4" font-size="11" text-anchor="end" font-family="sans-serif" fill="#374151">172,663</text><text x="1206.0" y="118.4" font-size="11" text-anchor="start" font-family="sans-serif" fill="#374151">330,838</text><line x1="80.0" y1="176.8" x2="1198.0" y2="176.8" stroke="#e5e7eb" stroke-width="1"/><text x="72.0" y="180.8" font-size="11" text-anchor="end" font-family="sans-serif" fill="#374151">129,497</text><text x="1206.0" y="180.8" font-size="11" text-anchor="start" font-family="sans-serif" fill="#374151">248,128</text><line x1="80.0" y1="239.2" x2="1198.0" y2="239.2" stroke="#e5e7eb" stroke-width="1"/><text x="72.0" y="243.2" font-size="11" text-anchor="end" font-family="sans-serif" fill="#374151">86,332</text><text x="1206.0" y="243.2" font-size="11" text-anchor="start" font-family="sans-serif" fill="#374151">165,419</text><line x1="80.0" y1="301.6" x2="1198.0" y2="301.6" stroke="#e5e7eb" stroke-width="1"/><text x="72.0" y="305.6" font-size="11" text-anchor="end" font-family="sans-serif" fill="#374151">43,166</text><text x="1206.0" y="305.6" font-size="11" text-anchor="start" font-family="sans-serif" fill="#374151">82,709</text><line x1="80.0" y1="364.0" x2="1198.0" y2="364.0" stroke="#e5e7eb" stroke-width="1"/><text x="72.0" y="368.0" font-size="11" text-anchor="end" font-family="sans-serif" fill="#374151">0</text><text x="1206.0" y="368.0" font-size="11" text-anchor="start" font-family="sans-serif" fill="#374151">0</text><line x1="80.0" y1="364.0" x2="1198.0" y2="364.0" stroke="#111827" stroke-width="1.2"/><line x1="80.0" y1="52.0" x2="80.0" y2="364.0" stroke="#111827" stroke-width="1.2"/><line x1="1198.0" y1="52.0" x2="1198.0" y2="364.0" stroke="#111827" stroke-width="1.2"/><rect x="81.0" y="364.0" width="17.3" height="0.0" fill="#93c5fd" stroke="#60a5fa" stroke-width="0.5"/><rect x="100.3" y="52.0" width="17.3" height="312.0" fill="#93c5fd" stroke="#60a5fa" stroke-width="0.5"/><rect x="119.6" y="360.8" width="17.3" height="3.2" fill="#93c5fd" stroke="#60a5fa" stroke-width="0.5"/><rect x="138.8" y="360.6" width="17.3" height="3.4" fill="#93c5fd" stroke="#60a5fa" stroke-width="0.5"/><rect x="158.1" y="360.6" width="17.3" height="3.4" fill="#93c5fd" stroke="#60a5fa" stroke-width="0.5"/><rect x="177.4" y="361.8" width="17.3" height="2.2" fill="#93c5fd" stroke="#60a5fa" stroke-width="0.5"/><rect x="196.7" y="360.7" width="17.3" height="3.3" fill="#93c5fd" stroke="#60a5fa" stroke-width="0.5"/><rect x="215.9" y="360.6" width="17.3" height="3.4" fill="#93c5fd" stroke="#60a5fa" stroke-width="0.5"/><rect x="235.2" y="362.5" width="17.3" height="1.5" fill="#93c5fd" stroke="#60a5fa" stroke-width="0.5"/><rect x="254.5" y="360.9" width="17.3" height="3.1" fill="#93c5fd" stroke="#60a5fa" stroke-width="0.5"/><rect x="273.8" y="360.6" width="17.3" height="3.4" fill="#93c5fd" stroke="#60a5fa" stroke-width="0.5"/><rect x="293.0" y="360.7" width="17.3" height="3.3" fill="#93c5fd" stroke="#60a5fa" stroke-width="0.5"/><rect x="312.3" y="361.1" width="17.3" height="2.9" fill="#93c5fd" stroke="#60a5fa" stroke-width="0.5"/><rect x="331.6" y="360.9" width="17.3" height="3.1" fill="#93c5fd" stroke="#60a5fa" stroke-width="0.5"/><rect x="350.9" y="361.0" width="17.3" height="3.0" fill="#93c5fd" stroke="#60a5fa" stroke-width="0.5"/><rect x="370.1" y="360.5" width="17.3" height="3.5" fill="#93c5fd" stroke="#60a5fa" stroke-width="0.5"/><rect x="389.4" y="359.2" width="17.3" height="4.8" fill="#93c5fd" stroke="#60a5fa" stroke-width="0.5"/><rect x="408.7" y="359.8" width="17.3" height="4.2" fill="#93c5fd" stroke="#60a5fa" stroke-width="0.5"/><rect x="428.0" y="359.6" width="17.3" height="4.4" fill="#93c5fd" stroke="#60a5fa" stroke-width="0.5"/><rect x="447.2" y="359.6" width="17.3" height="4.4" fill="#93c5fd" stroke="#60a5fa" stroke-width="0.5"/><rect x="466.5" y="359.4" width="17.3" height="4.6" fill="#93c5fd" stroke="#60a5fa" stroke-width="0.5"/><rect x="485.8" y="359.6" width="17.3" height="4.4" fill="#93c5fd" stroke="#60a5fa" stroke-width="0.5"/><rect x="505.1" y="359.8" width="17.3" height="4.2" fill="#93c5fd" stroke="#60a5fa" stroke-width="0.5"/><rect x="524.3" y="359.6" width="17.3" height="4.4" fill="#93c5fd" stroke="#60a5fa" stroke-width="0.5"/><rect x="543.6" y="359.9" width="17.3" height="4.1" fill="#93c5fd" stroke="#60a5fa" stroke-width="0.5"/><rect x="562.9" y="359.2" width="17.3" height="4.8" fill="#93c5fd" stroke="#60a5fa" stroke-width="0.5"/><rect x="582.2" y="358.9" width="17.3" height="5.1" fill="#93c5fd" stroke="#60a5fa" stroke-width="0.5"/><rect x="601.4" y="359.7" width="17.3" height="4.3" fill="#93c5fd" stroke="#60a5fa" stroke-width="0.5"/><rect x="620.7" y="360.2" width="17.3" height="3.8" fill="#93c5fd" stroke="#60a5fa" stroke-width="0.5"/><rect x="640.0" y="359.7" width="17.3" height="4.3" fill="#93c5fd" stroke="#60a5fa" stroke-width="0.5"/><rect x="659.3" y="359.6" width="17.3" height="4.4" fill="#93c5fd" stroke="#60a5fa" stroke-width="0.5"/><rect x="678.6" y="359.4" width="17.3" height="4.6" fill="#93c5fd" stroke="#60a5fa" stroke-width="0.5"/><rect x="697.8" y="359.4" width="17.3" height="4.6" fill="#93c5fd" stroke="#60a5fa" stroke-width="0.5"/><rect x="717.1" y="359.8" width="17.3" height="4.2" fill="#93c5fd" stroke="#60a5fa" stroke-width="0.5"/><rect x="736.4" y="358.8" width="17.3" height="5.2" fill="#93c5fd" stroke="#60a5fa" stroke-width="0.5"/><rect x="755.7" y="360.0" width="17.3" height="4.0" fill="#93c5fd" stroke="#60a5fa" stroke-width="0.5"/><rect x="774.9" y="358.7" width="17.3" height="5.3" fill="#93c5fd" stroke="#60a5fa" stroke-width="0.5"/><rect x="794.2" y="360.1" width="17.3" height="3.9" fill="#93c5fd" stroke="#60a5fa" stroke-width="0.5"/><rect x="813.5" y="359.5" width="17.3" height="4.5" fill="#93c5fd" stroke="#60a5fa" stroke-width="0.5"/><rect x="832.8" y="359.6" width="17.3" height="4.4" fill="#93c5fd" stroke="#60a5fa" stroke-width="0.5"/><rect x="852.0" y="359.5" width="17.3" height="4.5" fill="#93c5fd" stroke="#60a5fa" stroke-width="0.5"/><rect x="871.3" y="359.7" width="17.3" height="4.3" fill="#93c5fd" stroke="#60a5fa" stroke-width="0.5"/><rect x="890.6" y="359.1" width="17.3" height="4.9" fill="#93c5fd" stroke="#60a5fa" stroke-width="0.5"/><rect x="909.9" y="359.8" width="17.3" height="4.2" fill="#93c5fd" stroke="#60a5fa" stroke-width="0.5"/><rect x="929.1" y="359.8" width="17.3" height="4.2" fill="#93c5fd" stroke="#60a5fa" stroke-width="0.5"/><rect x="948.4" y="359.4" width="17.3" height="4.6" fill="#93c5fd" stroke="#60a5fa" stroke-width="0.5"/><rect x="967.7" y="359.0" width="17.3" height="5.0" fill="#93c5fd" stroke="#60a5fa" stroke-width="0.5"/><rect x="987.0" y="359.2" width="17.3" height="4.8" fill="#93c5fd" stroke="#60a5fa" stroke-width="0.5"/><rect x="1006.2" y="359.8" width="17.3" height="4.2" fill="#93c5fd" stroke="#60a5fa" stroke-width="0.5"/><rect x="1025.5" y="359.1" width="17.3" height="4.9" fill="#93c5fd" stroke="#60a5fa" stroke-width="0.5"/><rect x="1044.8" y="359.7" width="17.3" height="4.3" fill="#93c5fd" stroke="#60a5fa" stroke-width="0.5"/><rect x="1064.1" y="359.6" width="17.3" height="4.4" fill="#93c5fd" stroke="#60a5fa" stroke-width="0.5"/><rect x="1083.3" y="359.1" width="17.3" height="4.9" fill="#93c5fd" stroke="#60a5fa" stroke-width="0.5"/><rect x="1102.6" y="359.2" width="17.3" height="4.8" fill="#93c5fd" stroke="#60a5fa" stroke-width="0.5"/><rect x="1121.9" y="359.4" width="17.3" height="4.6" fill="#93c5fd" stroke="#60a5fa" stroke-width="0.5"/><rect x="1141.2" y="359.3" width="17.3" height="4.7" fill="#93c5fd" stroke="#60a5fa" stroke-width="0.5"/><rect x="1160.4" y="359.3" width="17.3" height="4.7" fill="#93c5fd" stroke="#60a5fa" stroke-width="0.5"/><rect x="1179.7" y="305.8" width="17.3" height="58.2" fill="#93c5fd" stroke="#60a5fa" stroke-width="0.5"/><polyline fill="none" stroke="#ef4444" stroke-width="2" points="89.6,364.0 108.9,201.2 128.2,199.5 147.5,197.7 166.7,195.9 186.0,194.8 205.3,193.1 224.6,191.3 243.8,190.5 263.1,188.9 282.4,187.1 301.7,185.4 320.9,183.9 340.2,182.3 359.5,180.7 378.8,178.9 398.1,176.4 417.3,174.2 436.6,171.9 455.9,169.6 475.2,167.2 494.4,164.9 513.7,162.7 533.0,160.4 552.3,158.3 571.5,155.8 590.8,153.2 610.1,150.9 629.4,148.9 648.6,146.6 667.9,144.4 687.2,142.0 706.5,139.5 725.7,137.3 745.0,134.6 764.3,132.5 783.6,129.7 802.8,127.7 822.1,125.4 841.4,123.1 860.7,120.7 879.9,118.5 899.2,115.9 918.5,113.7 937.8,111.5 957.1,109.1 976.3,106.4 995.6,103.9 1014.9,101.8 1034.2,99.2 1053.4,97.0 1072.7,94.7 1092.0,92.1 1111.3,89.6 1130.5,87.2 1149.8,84.8 1169.1,82.4 1188.4,52.0"/><line x1="89.6" y1="364.0" x2="89.6" y2="370.0" stroke="#111827" stroke-width="1"/><text x="91.6" y="386.0" font-size="11" text-anchor="end" transform="rotate(-35 91.6 386.0)" font-family="sans-serif" fill="#374151">2026-02-17</text><line x1="243.8" y1="364.0" x2="243.8" y2="370.0" stroke="#111827" stroke-width="1"/><text x="245.8" y="386.0" font-size="11" text-anchor="end" transform="rotate(-35 245.8 386.0)" font-family="sans-serif" fill="#374151">2026-03-09</text><line x1="398.1" y1="364.0" x2="398.1" y2="370.0" stroke="#111827" stroke-width="1"/><text x="400.1" y="386.0" font-size="11" text-anchor="end" transform="rotate(-35 400.1 386.0)" font-family="sans-serif" fill="#374151">2026-03-17</text><line x1="552.3" y1="364.0" x2="552.3" y2="370.0" stroke="#111827" stroke-width="1"/><text x="554.3" y="386.0" font-size="11" text-anchor="end" transform="rotate(-35 554.3 386.0)" font-family="sans-serif" fill="#374151">2026-03-25</text><line x1="725.7" y1="364.0" x2="725.7" y2="370.0" stroke="#111827" stroke-width="1"/><text x="727.7" y="386.0" font-size="11" text-anchor="end" transform="rotate(-35 727.7 386.0)" font-family="sans-serif" fill="#374151">2026-04-03</text><line x1="879.9" y1="364.0" x2="879.9" y2="370.0" stroke="#111827" stroke-width="1"/><text x="881.9" y="386.0" font-size="11" text-anchor="end" transform="rotate(-35 881.9 386.0)" font-family="sans-serif" fill="#374151">2026-04-11</text><line x1="1034.2" y1="364.0" x2="1034.2" y2="370.0" stroke="#111827" stroke-width="1"/><text x="1036.2" y="386.0" font-size="11" text-anchor="end" transform="rotate(-35 1036.2 386.0)" font-family="sans-serif" fill="#374151">2026-04-19</text><line x1="1188.4" y1="364.0" x2="1188.4" y2="370.0" stroke="#111827" stroke-width="1"/><text x="1190.4" y="386.0" font-size="11" text-anchor="end" transform="rotate(-35 1190.4 386.0)" font-family="sans-serif" fill="#374151">2026-04-27</text><text x="26" y="208.0" font-size="12" transform="rotate(-90 26 208.0)" text-anchor="middle" font-family="sans-serif" fill="#1f2937">구간별 수</text><text x="1256.0" y="208.0" font-size="12" transform="rotate(90 1256.0 208.0)" text-anchor="middle" font-family="sans-serif" fill="#1f2937">누적</text><text x="639.0" y="442.0" font-size="13" text-anchor="middle" font-family="sans-serif" fill="#111827">일</text></svg>