<svg xmlns="http://www.w3.org/2000/svg" width="1280" height="460" viewBox="0 0 1280 460"><rect x="0" y="0" width="100%" height="100%" fill="#ffffff"/><text x="640.0" y="28" font-size="20" text-anchor="middle" font-family="sans-serif" fill="#111827">이벤트 / 생성 시점 / 월별</text><line x1="80.0" y1="52.0" x2="1198.0" y2="52.0" stroke="#e5e7eb" stroke-width="1"/><text x="72.0" y="56.0" font-size="11" text-anchor="end" font-family="sans-serif" fill="#374151">105,000</text><text x="1206.0" y="56.0" font-size="11" text-anchor="start" font-family="sans-serif" fill="#374151">425,951</text><line x1="80.0" y1="114.4" x2="1198.0" y2="114.4" stroke="#e5e7eb" stroke-width="1"/><text x="72.0" y="118.4" font-size="11" text-anchor="end" font-family="sans-serif" fill="#374151">84,000</text><text x="1206.0" y="118.4" font-size="11" text-anchor="start" font-family="sans-serif" fill="#374151">340,761</text><line x1="80.0" y1="176.8" x2="1198.0" y2="176.8" stroke="#e5e7eb" stroke-width="1"/><text x="72.0" y="180.8" font-size="11" text-anchor="end" font-family="sans-serif" fill="#374151">63,000</text><text x="1206.0" y="180.8" font-size="11" text-anchor="start" font-family="sans-serif" fill="#374151">255,571</text><line x1="80.0" y1="239.2" x2="1198.0" y2="239.2" stroke="#e5e7eb" stroke-width="1"/><text x="72.0" y="243.2" font-size="11" text-anchor="end" font-family="sans-serif" fill="#374151">42,000</text><text x="1206.0" y="243.2" font-size="11" text-anchor="start" font-family="sans-serif" fill="#374151">170,380</text><line x1="80.0" y1="301.6" x2="1198.0" y2="301.6" stroke="#e5e7eb" stroke-width="1"/><text x="72.0" y="305.6" font-size="11" text-anchor="end" font-family="sans-serif" fill="#374151">21,000</text><text x="1206.0" y="305.6" font-size="11" text-anchor="start" font-family="sans-serif" fill="#374151">85,190</text><line x1="80.0" y1="364.0" x2="1198.0" y2="364.0" stroke="#e5e7eb" stroke-width="1"/><text x="72.0" y="368.0" font-size="11" text-anchor="end" font-family="sans-serif" fill="#374151">0</text><text x="1206.0" y="368.0" font-size="11" text-anchor="start" font-family="sans-serif" fill="#374151">0</text><line x1="80.0" y1="364.0" x2="1198.0" y2="364.0" stroke="#111827" stroke-width="1.2"/><line x1="80.0" y1="52.0" x2="80.0" y2="364.0" stroke="#111827" stroke-width="1.2"/><line x1="1198.0" y1="52.0" x2="1198.0" y2="364.0" stroke="#111827" stroke-width="1.2"/><rect x="81.0" y="355.6" width="21.8" height="8.4" fill="#93c5fd" stroke="#60a5fa" stroke-width="0.5"/><rect x="104.8" y="363.6" width="21.8" height="0.4" fill="#93c5fd" stroke="#60a5fa" stroke-width="0.5"/><rect x="128.6" y="363.8" width="21.8" height="0.2" fill="#93c5fd" stroke="#60a5fa" stroke-width="0.5"/><rect x="152.4" y="363.8" width="21.8" height="0.2" fill="#93c5fd" stroke="#60a5fa" stroke-width="0.5"/><rect x="176.1" y="363.9" width="21.8" height="0.1" fill="#93c5fd" stroke="#60a5fa" stroke-width="0.5"/><rect x="199.9" y="363.9" width="21.8" height="0.1" fill="#93c5fd" stroke="#60a5fa" stroke-width="0.5"/><rect x="223.7" y="363.9" width="21.8" height="0.1" fill="#93c5fd" stroke="#60a5fa" stroke-width="0.5"/><rect x="247.5" y="363.7" width="21.8" height="0.3" fill="#93c5fd" stroke="#60a5fa" stroke-width="0.5"/><rect x="271.3" y="363.5" width="21.8" height="0.5" fill="#93c5fd" stroke="#60a5fa" stroke-width="0.5"/><rect x="295.1" y="363.5" width="21.8" height="0.5" fill="#93c5fd" stroke="#60a5fa" stroke-width="0.5"/><rect x="318.9" y="363.6" width="21.8" height="0.4" fill="#93c5fd" stroke="#60a5fa" stroke-width="0.5"/><rect x="342.7" y="363.8" width="21.8" height="0.2" fill="#93c5fd" stroke="#60a5fa" stroke-width="0.5"/><rect x="366.4" y="363.8" width="21.8" height="0.2" fill="#93c5fd" stroke="#60a5fa" stroke-width="0.5"/><rect x="390.2" y="363.7" width="21.8" height="0.3" fill="#93c5fd" stroke="#60a5fa" stroke-width="0.5"/><rect x="414.0" y="363.6" width="21.8" height="0.4" fill="#93c5fd" stroke="#60a5fa" stroke-width="0.5"/><rect x="437.8" y="363.6" width="21.8" height="0.4" fill="#93c5fd" stroke="#60a5fa" stroke-width="0.5"/><rect x="461.6" y="363.6" width="21.8" height="0.4" fill="#93c5fd" stroke="#60a5fa" stroke-width="0.5"/><rect x="485.4" y="363.5" width="21.8" height="0.5" fill="#93c5fd" stroke="#60a5fa" stroke-width="0.5"/><rect x="509.2" y="363.5" width="21.8" height="0.5" fill="#93c5fd" stroke="#60a5fa" stroke-width="0.5"/><rect x="533.0" y="363.5" width="21.8" height="0.5" fill="#93c5fd" stroke="#60a5fa" stroke-width="0.5"/><rect x="556.7" y="363.2" width="21.8" height="0.8" fill="#93c5fd" stroke="#60a5fa" stroke-width="0.5"/><rect x="580.5" y="363.2" width="21.8" height="0.8" fill="#93c5fd" stroke="#60a5fa" stroke-width="0.5"/><rect x="604.3" y="363.2" width="21.8" height="0.8" fill="#93c5fd" stroke="#60a5fa" stroke-width="0.5"/><rect x="628.1" y="362.9" width="21.8" height="1.1" fill="#93c5fd" stroke="#60a5fa" stroke-width="0.5"/><rect x="651.9" y="362.8" width="21.8" height="1.2" fill="#93c5fd" stroke="#60a5fa" stroke-width="0.5"/><rect x="675.7" y="362.6" width="21.8" height="1.4" fill="#93c5fd" stroke="#60a5fa" stroke-width="0.5"/><rect x="699.5" y="362.4" width="21.8" height="1.6" fill="#93c5fd" stroke="#60a5fa" stroke-width="0.5"/><rect x="723.3" y="361.3" width="21.8" height="2.7" fill="#93c5fd" stroke="#60a5fa" stroke-width="0.5"/><rect x="747.0" y="361.4" width="21.8" height="2.6" fill="#93c5fd" stroke="#60a5fa" stroke-width="0.5"/><rect x="770.8" y="360.4" width="21.8" height="3.6" fill="#93c5fd" stroke="#60a5fa" stroke-width="0.5"/><rect x="794.6" y="360.3" width="21.8" height="3.7" fill="#93c5fd" stroke="#60a5fa" stroke-width="0.5"/><rect x="818.4" y="357.3" width="21.8" height="6.7" fill="#93c5fd" stroke="#60a5fa" stroke-width="0.5"/><rect x="842.2" y="358.4" width="21.8" height="5.6" fill="#93c5fd" stroke="#60a5fa" stroke-width="0.5"/><rect x="866.0" y="359.2" width="21.8" height="4.8" fill="#93c5fd" stroke="#60a5fa" stroke-width="0.5"/><rect x="889.8" y="358.8" width="21.8" height="5.2" fill="#93c5fd" stroke="#60a5fa" stroke-width="0.5"/><rect x="913.6" y="350.9" width="21.8" height="13.1" fill="#93c5fd" stroke="#60a5fa" stroke-width="0.5"/><rect x="937.3" y="351.2" width="21.8" height="12.8" fill="#93c5fd" stroke="#60a5fa" stroke-width="0.5"/><rect x="961.1" y="347.8" width="21.8" height="16.2" fill="#93c5fd" stroke="#60a5fa" stroke-width="0.5"/><rect x="984.9" y="330.5" width="21.8" height="33.5" fill="#93c5fd" stroke="#60a5fa" stroke-width="0.5"/><rect x="1008.7" y="312.9" width="21.8" height="51.1" fill="#93c5fd" stroke="#60a5fa" stroke-width="0.5"/><rect x="1032.5" y="292.7" width="21.8" height="71.3" fill="#93c5fd" stroke="#60a5fa" stroke-width="0.5"/><rect x="1056.3" y="242.8" width="21.8" height="121.2" fill="#93c5fd" stroke="#60a5fa" stroke-width="0.5"/><rect x="1080.1" y="190.6" width="21.8" height="173.4" fill="#93c5fd" stroke="#60a5fa" stroke-width="0.5"/><rect x="1103.9" y="237.3" width="21.8" height="126.7" fill="#93c5fd" stroke="#60a5fa" stroke-width="0.5"/><rect x="1127.6" y="90.1" width="21.8" height="273.9" fill="#93c5fd" stroke="#60a5fa" stroke-width="0.5"/><rect x="1151.4" y="52.0" width="21.8" height="312.0" fill="#93c5fd" stroke="#60a5fa" stroke-width="0.5"/><rect x="1175.2" y="360.8" width="21.8" height="3.2" fill="#93c5fd" stroke="#60a5fa" stroke-width="0.5"/><polyline fill="none" stroke="#ef4444" stroke-width="2" points="91.9,361.9 115.7,361.8 139.5,361.8 163.3,361.7 187.0,361.7 210.8,361.7 234.6,361.6 258.4,361.6 282.2,361.5 306.0,361.3 329.8,361.2 353.6,361.2 377.3,361.1 401.1,361.0 424.9,361.0 448.7,360.8 472.5,360.8 496.3,360.6 520.1,360.5 543.9,360.4 567.6,360.2 591.4,360.0 615.2,359.8 639.0,359.5 662.8,359.2 686.6,358.9 710.4,358.5 734.1,357.8 757.9,357.2 781.7,356.3 805.5,355.4 829.3,353.7 853.1,352.4 876.9,351.2 900.7,349.9 924.4,346.7 948.2,343.5 972.0,339.5 995.8,331.3 1019.6,318.7 1043.4,301.1 1067.2,271.2 1091.0,228.5 1114.7,197.2 1138.5,129.7 1162.3,52.8 1186.1,52.0"/><line x1="91.9" y1="364.0" x2="91.9" y2="370.0" stroke="#111827" stroke-width="1"/><text x="93.9" y="386.0" font-size="11" text-anchor="end" transform="rotate(-35 93.9 386.0)" font-family="sans-serif" fill="#374151">2022-07</text><line x1="258.4" y1="364.0" x2="258.4" y2="370.0" stroke="#111827" stroke-width="1"/><text x="260.4" y="386.0" font-size="11" text-anchor="end" transform="rotate(-35 260.4 386.0)" font-family="sans-serif" fill="#374151">2023-02</text><line x1="401.1" y1="364.0" x2="401.1" y2="370.0" stroke="#111827" stroke-width="1"/><text x="403.1" y="386.0" font-size="11" text-anchor="end" transform="rotate(-35 403.1 386.0)" font-family="sans-serif" fill="#374151">2023-08</text><line x1="567.6" y1="364.0" x2="567.6" y2="370.0" stroke="#111827" stroke-width="1"/><text x="569.6" y="386.0" font-size="11" text-anchor="end" transform="rotate(-35 569.6 386.0)" font-family="sans-serif" fill="#374151">2024-03</text><line x1="710.4" y1="364.0" x2="710.4" y2="370.0" stroke="#111827" stroke-width="1"/><text x="712.4" y="386.0" font-size="11" text-anchor="end" transform="rotate(-35 712.4 386.0)" font-family="sans-serif" fill="#374151">2024-09</text><line x1="876.9" y1="364.0" x2="876.9" y2="370.0" stroke="#111827" stroke-width="1"/><text x="878.9" y="386.0" font-size="11" text-anchor="end" transform="rotate(-35 878.9 386.0)" font-family="sans-serif" fill="#374151">2025-04</text><line x1="1019.6" y1="364.0" x2="1019.6" y2="370.0" stroke="#111827" stroke-width="1"/><text x="1021.6" y="386.0" font-size="11" text-anchor="end" transform="rotate(-35 1021.6 386.0)" font-family="sans-serif" fill="#374151">2025-10</text><line x1="1186.1" y1="364.0" x2="1186.1" y2="370.0" stroke="#111827" stroke-width="1"/><text x="1188.1" y="386.0" font-size="11" text-anchor="end" transform="rotate(-35 1188.1 386.0)" font-family="sans-serif" fill="#374151">2026-05</text><text x="26" y="208.0" font-size="12" transform="rotate(-90 26 208.0)" text-anchor="middle" font-family="sans-serif" fill="#1f2937">구간별 수</text><text x="1256.0" y="208.0" font-size="12" transform="rotate(90 1256.0 208.0)" text-anchor="middle" font-family="sans-serif" fill="#1f2937">누적</text><text x="639.0" y="442.0" font-size="13" text-anchor="middle" font-family="sans-serif" fill="#111827">월</text></svg>