<svg xmlns="http://www.w3.org/2000/svg" width="1280" height="460" viewBox="0 0 1280 460"><rect x="0" y="0" width="100%" height="100%" fill="#ffffff"/><text x="640.0" y="28" font-size="20" text-anchor="middle" font-family="sans-serif" fill="#111827">이벤트 / 최근 반영 시점 / 일별</text><line x1="80.0" y1="52.0" x2="1198.0" y2="52.0" stroke="#e5e7eb" stroke-width="1"/><text x="72.0" y="56.0" font-size="11" text-anchor="end" font-family="sans-serif" fill="#374151">215,861</text><text x="1206.0" y="56.0" font-size="11" text-anchor="start" font-family="sans-serif" fill="#374151">388,093</text><line x1="80.0" y1="114.4" x2="1198.0" y2="114.4" stroke="#e5e7eb" stroke-width="1"/><text x="72.0" y="118.4" font-size="11" text-anchor="end" font-family="sans-serif" fill="#374151">172,689</text><text x="1206.0" y="118.4" font-size="11" text-anchor="start" font-family="sans-serif" fill="#374151">310,474</text><line x1="80.0" y1="176.8" x2="1198.0" y2="176.8" stroke="#e5e7eb" stroke-width="1"/><text x="72.0" y="180.8" font-size="11" text-anchor="end" font-family="sans-serif" fill="#374151">129,517</text><text x="1206.0" y="180.8" font-size="11" text-anchor="start" font-family="sans-serif" fill="#374151">232,856</text><line x1="80.0" y1="239.2" x2="1198.0" y2="239.2" stroke="#e5e7eb" stroke-width="1"/><text x="72.0" y="243.2" font-size="11" text-anchor="end" font-family="sans-serif" fill="#374151">86,344</text><text x="1206.0" y="243.2" font-size="11" text-anchor="start" font-family="sans-serif" fill="#374151">155,237</text><line x1="80.0" y1="301.6" x2="1198.0" y2="301.6" stroke="#e5e7eb" stroke-width="1"/><text x="72.0" y="305.6" font-size="11" text-anchor="end" font-family="sans-serif" fill="#374151">43,172</text><text x="1206.0" y="305.6" font-size="11" text-anchor="start" font-family="sans-serif" fill="#374151">77,619</text><line x1="80.0" y1="364.0" x2="1198.0" y2="364.0" stroke="#e5e7eb" stroke-width="1"/><text x="72.0" y="368.0" font-size="11" text-anchor="end" font-family="sans-serif" fill="#374151">0</text><text x="1206.0" y="368.0" font-size="11" text-anchor="start" font-family="sans-serif" fill="#374151">0</text><line x1="80.0" y1="364.0" x2="1198.0" y2="364.0" stroke="#111827" stroke-width="1.2"/><line x1="80.0" y1="52.0" x2="80.0" y2="364.0" stroke="#111827" stroke-width="1.2"/><line x1="1198.0" y1="52.0" x2="1198.0" y2="364.0" stroke="#111827" stroke-width="1.2"/><rect x="81.0" y="364.0" width="19.9" height="0.0" fill="#93c5fd" stroke="#60a5fa" stroke-width="0.5"/><rect x="102.9" y="52.0" width="19.9" height="312.0" fill="#93c5fd" stroke="#60a5fa" stroke-width="0.5"/><rect x="124.8" y="360.8" width="19.9" height="3.2" fill="#93c5fd" stroke="#60a5fa" stroke-width="0.5"/><rect x="146.8" y="360.6" width="19.9" height="3.4" fill="#93c5fd" stroke="#60a5fa" stroke-width="0.5"/><rect x="168.7" y="360.6" width="19.9" height="3.4" fill="#93c5fd" stroke="#60a5fa" stroke-width="0.5"/><rect x="190.6" y="361.8" width="19.9" height="2.2" fill="#93c5fd" stroke="#60a5fa" stroke-width="0.5"/><rect x="212.5" y="360.7" width="19.9" height="3.3" fill="#93c5fd" stroke="#60a5fa" stroke-width="0.5"/><rect x="234.5" y="360.6" width="19.9" height="3.4" fill="#93c5fd" stroke="#60a5fa" stroke-width="0.5"/><rect x="256.4" y="362.5" width="19.9" height="1.5" fill="#93c5fd" stroke="#60a5fa" stroke-width="0.5"/><rect x="278.3" y="360.9" width="19.9" height="3.1" fill="#93c5fd" stroke="#60a5fa" stroke-width="0.5"/><rect x="300.2" y="360.6" width="19.9" height="3.4" fill="#93c5fd" stroke="#60a5fa" stroke-width="0.5"/><rect x="322.1" y="360.7" width="19.9" height="3.3" fill="#93c5fd" stroke="#60a5fa" stroke-width="0.5"/><rect x="344.1" y="361.1" width="19.9" height="2.9" fill="#93c5fd" stroke="#60a5fa" stroke-width="0.5"/><rect x="366.0" y="360.9" width="19.9" height="3.1" fill="#93c5fd" stroke="#60a5fa" stroke-width="0.5"/><rect x="387.9" y="361.0" width="19.9" height="3.0" fill="#93c5fd" stroke="#60a5fa" stroke-width="0.5"/><rect x="409.8" y="360.5" width="19.9" height="3.5" fill="#93c5fd" stroke="#60a5fa" stroke-width="0.5"/><rect x="431.7" y="359.2" width="19.9" height="4.8" fill="#93c5fd" stroke="#60a5fa" stroke-width="0.5"/><rect x="453.7" y="359.8" width="19.9" height="4.2" fill="#93c5fd" stroke="#60a5fa" stroke-width="0.5"/><rect x="475.6" y="359.6" width="19.9" height="4.4" fill="#93c5fd" stroke="#60a5fa" stroke-width="0.5"/><rect x="497.5" y="359.6" width="19.9" height="4.4" fill="#93c5fd" stroke="#60a5fa" stroke-width="0.5"/><rect x="519.4" y="359.4" width="19.9" height="4.6" fill="#93c5fd" stroke="#60a5fa" stroke-width="0.5"/><rect x="541.4" y="359.6" width="19.9" height="4.4" fill="#93c5fd" stroke="#60a5fa" stroke-width="0.5"/><rect x="563.3" y="359.8" width="19.9" height="4.2" fill="#93c5fd" stroke="#60a5fa" stroke-width="0.5"/><rect x="585.2" y="359.6" width="19.9" height="4.4" fill="#93c5fd" stroke="#60a5fa" stroke-width="0.5"/><rect x="607.1" y="359.9" width="19.9" height="4.1" fill="#93c5fd" stroke="#60a5fa" stroke-width="0.5"/><rect x="629.0" y="359.2" width="19.9" height="4.8" fill="#93c5fd" stroke="#60a5fa" stroke-width="0.5"/><rect x="651.0" y="358.9" width="19.9" height="5.1" fill="#93c5fd" stroke="#60a5fa" stroke-width="0.5"/><rect x="672.9" y="359.7" width="19.9" height="4.3" fill="#93c5fd" stroke="#60a5fa" stroke-width="0.5"/><rect x="694.8" y="360.2" width="19.9" height="3.8" fill="#93c5fd" stroke="#60a5fa" stroke-width="0.5"/><rect x="716.7" y="359.7" width="19.9" height="4.3" fill="#93c5fd" stroke="#60a5fa" stroke-width="0.5"/><rect x="738.6" y="359.6" width="19.9" height="4.4" fill="#93c5fd" stroke="#60a5fa" stroke-width="0.5"/><rect x="760.6" y="359.4" width="19.9" height="4.6" fill="#93c5fd" stroke="#60a5fa" stroke-width="0.5"/><rect x="782.5" y="359.4" width="19.9" height="4.6" fill="#93c5fd" stroke="#60a5fa" stroke-width="0.5"/><rect x="804.4" y="359.8" width="19.9" height="4.2" fill="#93c5fd" stroke="#60a5fa" stroke-width="0.5"/><rect x="826.3" y="358.8" width="19.9" height="5.2" fill="#93c5fd" stroke="#60a5fa" stroke-width="0.5"/><rect x="848.3" y="360.0" width="19.9" height="4.0" fill="#93c5fd" stroke="#60a5fa" stroke-width="0.5"/><rect x="870.2" y="358.7" width="19.9" height="5.3" fill="#93c5fd" stroke="#60a5fa" stroke-width="0.5"/><rect x="892.1" y="360.1" width="19.9" height="3.9" fill="#93c5fd" stroke="#60a5fa" stroke-width="0.5"/><rect x="914.0" y="359.5" width="19.9" height="4.5" fill="#93c5fd" stroke="#60a5fa" stroke-width="0.5"/><rect x="935.9" y="359.6" width="19.9" height="4.4" fill="#93c5fd" stroke="#60a5fa" stroke-width="0.5"/><rect x="957.9" y="359.5" width="19.9" height="4.5" fill="#93c5fd" stroke="#60a5fa" stroke-width="0.5"/><rect x="979.8" y="359.7" width="19.9" height="4.3" fill="#93c5fd" stroke="#60a5fa" stroke-width="0.5"/><rect x="1001.7" y="359.1" width="19.9" height="4.9" fill="#93c5fd" stroke="#60a5fa" stroke-width="0.5"/><rect x="1023.6" y="359.8" width="19.9" height="4.2" fill="#93c5fd" stroke="#60a5fa" stroke-width="0.5"/><rect x="1045.5" y="359.8" width="19.9" height="4.2" fill="#93c5fd" stroke="#60a5fa" stroke-width="0.5"/><rect x="1067.5" y="359.4" width="19.9" height="4.6" fill="#93c5fd" stroke="#60a5fa" stroke-width="0.5"/><rect x="1089.4" y="359.0" width="19.9" height="5.0" fill="#93c5fd" stroke="#60a5fa" stroke-width="0.5"/><rect x="1111.3" y="359.2" width="19.9" height="4.8" fill="#93c5fd" stroke="#60a5fa" stroke-width="0.5"/><rect x="1133.2" y="359.8" width="19.9" height="4.2" fill="#93c5fd" stroke="#60a5fa" stroke-width="0.5"/><rect x="1155.2" y="359.1" width="19.9" height="4.9" fill="#93c5fd" stroke="#60a5fa" stroke-width="0.5"/><rect x="1177.1" y="310.5" width="19.9" height="53.5" fill="#93c5fd" stroke="#60a5fa" stroke-width="0.5"/><polyline fill="none" stroke="#ef4444" stroke-width="2" points="91.0,364.0 112.9,190.5 134.8,188.7 156.7,186.8 178.6,184.9 200.6,183.7 222.5,181.8 244.4,179.9 266.3,179.1 288.3,177.4 310.2,175.5 332.1,173.6 354.0,172.0 375.9,170.3 397.9,168.6 419.8,166.7 441.7,164.0 463.6,161.7 485.5,159.3 507.5,156.8 529.4,154.3 551.3,151.8 573.2,149.5 595.2,147.0 617.1,144.8 639.0,142.1 660.9,139.3 682.8,136.9 704.8,134.8 726.7,132.4 748.6,129.9 770.5,127.4 792.5,124.8 814.4,122.4 836.3,119.5 858.2,117.3 880.1,114.3 902.1,112.2 924.0,109.7 945.9,107.2 967.8,104.7 989.7,102.3 1011.7,99.6 1033.6,97.2 1055.5,94.9 1077.4,92.3 1099.4,89.5 1121.3,86.8 1143.2,84.5 1165.1,81.7 1187.0,52.0"/><line x1="91.0" y1="364.0" x2="91.0" y2="370.0" stroke="#111827" stroke-width="1"/><text x="93.0" y="386.0" font-size="11" text-anchor="end" transform="rotate(-35 93.0 386.0)" font-family="sans-serif" fill="#374151">2026-02-17</text><line x1="244.4" y1="364.0" x2="244.4" y2="370.0" stroke="#111827" stroke-width="1"/><text x="246.4" y="386.0" font-size="11" text-anchor="end" transform="rotate(-35 246.4 386.0)" font-family="sans-serif" fill="#374151">2026-03-08</text><line x1="397.9" y1="364.0" x2="397.9" y2="370.0" stroke="#111827" stroke-width="1"/><text x="399.9" y="386.0" font-size="11" text-anchor="end" transform="rotate(-35 399.9 386.0)" font-family="sans-serif" fill="#374151">2026-03-15</text><line x1="551.3" y1="364.0" x2="551.3" y2="370.0" stroke="#111827" stroke-width="1"/><text x="553.3" y="386.0" font-size="11" text-anchor="end" transform="rotate(-35 553.3 386.0)" font-family="sans-serif" fill="#374151">2026-03-22</text><line x1="726.7" y1="364.0" x2="726.7" y2="370.0" stroke="#111827" stroke-width="1"/><text x="728.7" y="386.0" font-size="11" text-anchor="end" transform="rotate(-35 728.7 386.0)" font-family="sans-serif" fill="#374151">2026-03-30</text><line x1="880.1" y1="364.0" x2="880.1" y2="370.0" stroke="#111827" stroke-width="1"/><text x="882.1" y="386.0" font-size="11" text-anchor="end" transform="rotate(-35 882.1 386.0)" font-family="sans-serif" fill="#374151">2026-04-06</text><line x1="1033.6" y1="364.0" x2="1033.6" y2="370.0" stroke="#111827" stroke-width="1"/><text x="1035.6" y="386.0" font-size="11" text-anchor="end" transform="rotate(-35 1035.6 386.0)" font-family="sans-serif" fill="#374151">2026-04-13</text><line x1="1187.0" y1="364.0" x2="1187.0" y2="370.0" stroke="#111827" stroke-width="1"/><text x="1189.0" y="386.0" font-size="11" text-anchor="end" transform="rotate(-35 1189.0 386.0)" font-family="sans-serif" fill="#374151">2026-04-20</text><text x="26" y="208.0" font-size="12" transform="rotate(-90 26 208.0)" text-anchor="middle" font-family="sans-serif" fill="#1f2937">구간별 수</text><text x="1256.0" y="208.0" font-size="12" transform="rotate(90 1256.0 208.0)" text-anchor="middle" font-family="sans-serif" fill="#1f2937">누적</text><text x="639.0" y="442.0" font-size="13" text-anchor="middle" font-family="sans-serif" fill="#111827">일</text></svg>