<svg xmlns="http://www.w3.org/2000/svg" width="1280" height="460" viewBox="0 0 1280 460"><rect x="0" y="0" width="100%" height="100%" fill="#ffffff"/><text x="640.0" y="28" font-size="20" text-anchor="middle" font-family="sans-serif" fill="#111827">마켓 / 최근 반영 시점 / 일별</text><line x1="80.0" y1="52.0" x2="1198.0" y2="52.0" stroke="#e5e7eb" stroke-width="1"/><text x="72.0" y="56.0" font-size="11" text-anchor="end" font-family="sans-serif" fill="#374151">493,407</text><text x="1206.0" y="56.0" font-size="11" text-anchor="start" font-family="sans-serif" fill="#374151">930,109</text><line x1="80.0" y1="114.4" x2="1198.0" y2="114.4" stroke="#e5e7eb" stroke-width="1"/><text x="72.0" y="118.4" font-size="11" text-anchor="end" font-family="sans-serif" fill="#374151">394,726</text><text x="1206.0" y="118.4" font-size="11" text-anchor="start" font-family="sans-serif" fill="#374151">744,087</text><line x1="80.0" y1="176.8" x2="1198.0" y2="176.8" stroke="#e5e7eb" stroke-width="1"/><text x="72.0" y="180.8" font-size="11" text-anchor="end" font-family="sans-serif" fill="#374151">296,044</text><text x="1206.0" y="180.8" font-size="11" text-anchor="start" font-family="sans-serif" fill="#374151">558,065</text><line x1="80.0" y1="239.2" x2="1198.0" y2="239.2" stroke="#e5e7eb" stroke-width="1"/><text x="72.0" y="243.2" font-size="11" text-anchor="end" font-family="sans-serif" fill="#374151">197,363</text><text x="1206.0" y="243.2" font-size="11" text-anchor="start" font-family="sans-serif" fill="#374151">372,044</text><line x1="80.0" y1="301.6" x2="1198.0" y2="301.6" stroke="#e5e7eb" stroke-width="1"/><text x="72.0" y="305.6" font-size="11" text-anchor="end" font-family="sans-serif" fill="#374151">98,681</text><text x="1206.0" y="305.6" font-size="11" text-anchor="start" font-family="sans-serif" fill="#374151">186,022</text><line x1="80.0" y1="364.0" x2="1198.0" y2="364.0" stroke="#e5e7eb" stroke-width="1"/><text x="72.0" y="368.0" font-size="11" text-anchor="end" font-family="sans-serif" fill="#374151">0</text><text x="1206.0" y="368.0" font-size="11" text-anchor="start" font-family="sans-serif" fill="#374151">0</text><line x1="80.0" y1="364.0" x2="1198.0" y2="364.0" stroke="#111827" stroke-width="1.2"/><line x1="80.0" y1="52.0" x2="80.0" y2="364.0" stroke="#111827" stroke-width="1.2"/><line x1="1198.0" y1="52.0" x2="1198.0" y2="364.0" stroke="#111827" stroke-width="1.2"/><rect x="81.0" y="346.1" width="20.8" height="17.9" fill="#93c5fd" stroke="#60a5fa" stroke-width="0.5"/><rect x="103.8" y="358.6" width="20.8" height="5.4" fill="#93c5fd" stroke="#60a5fa" stroke-width="0.5"/><rect x="126.6" y="52.0" width="20.8" height="312.0" fill="#93c5fd" stroke="#60a5fa" stroke-width="0.5"/><rect x="149.4" y="361.7" width="20.8" height="2.3" fill="#93c5fd" stroke="#60a5fa" stroke-width="0.5"/><rect x="172.3" y="361.2" width="20.8" height="2.8" fill="#93c5fd" stroke="#60a5fa" stroke-width="0.5"/><rect x="195.1" y="361.0" width="20.8" height="3.0" fill="#93c5fd" stroke="#60a5fa" stroke-width="0.5"/><rect x="217.9" y="362.6" width="20.8" height="1.4" fill="#93c5fd" stroke="#60a5fa" stroke-width="0.5"/><rect x="240.7" y="357.9" width="20.8" height="6.1" fill="#93c5fd" stroke="#60a5fa" stroke-width="0.5"/><rect x="263.5" y="360.4" width="20.8" height="3.6" fill="#93c5fd" stroke="#60a5fa" stroke-width="0.5"/><rect x="286.3" y="361.1" width="20.8" height="2.9" fill="#93c5fd" stroke="#60a5fa" stroke-width="0.5"/><rect x="309.2" y="360.7" width="20.8" height="3.3" fill="#93c5fd" stroke="#60a5fa" stroke-width="0.5"/><rect x="332.0" y="359.4" width="20.8" height="4.6" fill="#93c5fd" stroke="#60a5fa" stroke-width="0.5"/><rect x="354.8" y="359.7" width="20.8" height="4.3" fill="#93c5fd" stroke="#60a5fa" stroke-width="0.5"/><rect x="377.6" y="360.0" width="20.8" height="4.0" fill="#93c5fd" stroke="#60a5fa" stroke-width="0.5"/><rect x="400.4" y="358.9" width="20.8" height="5.1" fill="#93c5fd" stroke="#60a5fa" stroke-width="0.5"/><rect x="423.2" y="358.9" width="20.8" height="5.1" fill="#93c5fd" stroke="#60a5fa" stroke-width="0.5"/><rect x="446.1" y="359.7" width="20.8" height="4.3" fill="#93c5fd" stroke="#60a5fa" stroke-width="0.5"/><rect x="468.9" y="359.4" width="20.8" height="4.6" fill="#93c5fd" stroke="#60a5fa" stroke-width="0.5"/><rect x="491.7" y="359.3" width="20.8" height="4.7" fill="#93c5fd" stroke="#60a5fa" stroke-width="0.5"/><rect x="514.5" y="358.6" width="20.8" height="5.4" fill="#93c5fd" stroke="#60a5fa" stroke-width="0.5"/><rect x="537.3" y="358.7" width="20.8" height="5.3" fill="#93c5fd" stroke="#60a5fa" stroke-width="0.5"/><rect x="560.1" y="359.5" width="20.8" height="4.5" fill="#93c5fd" stroke="#60a5fa" stroke-width="0.5"/><rect x="583.0" y="358.2" width="20.8" height="5.8" fill="#93c5fd" stroke="#60a5fa" stroke-width="0.5"/><rect x="605.8" y="359.1" width="20.8" height="4.9" fill="#93c5fd" stroke="#60a5fa" stroke-width="0.5"/><rect x="628.6" y="359.1" width="20.8" height="4.9" fill="#93c5fd" stroke="#60a5fa" stroke-width="0.5"/><rect x="651.4" y="358.4" width="20.8" height="5.6" fill="#93c5fd" stroke="#60a5fa" stroke-width="0.5"/><rect x="674.2" y="358.0" width="20.8" height="6.0" fill="#93c5fd" stroke="#60a5fa" stroke-width="0.5"/><rect x="697.0" y="357.5" width="20.8" height="6.5" fill="#93c5fd" stroke="#60a5fa" stroke-width="0.5"/><rect x="719.9" y="359.8" width="20.8" height="4.2" fill="#93c5fd" stroke="#60a5fa" stroke-width="0.5"/><rect x="742.7" y="359.7" width="20.8" height="4.3" fill="#93c5fd" stroke="#60a5fa" stroke-width="0.5"/><rect x="765.5" y="358.9" width="20.8" height="5.1" fill="#93c5fd" stroke="#60a5fa" stroke-width="0.5"/><rect x="788.3" y="358.9" width="20.8" height="5.1" fill="#93c5fd" stroke="#60a5fa" stroke-width="0.5"/><rect x="811.1" y="359.5" width="20.8" height="4.5" fill="#93c5fd" stroke="#60a5fa" stroke-width="0.5"/><rect x="833.9" y="358.2" width="20.8" height="5.8" fill="#93c5fd" stroke="#60a5fa" stroke-width="0.5"/><rect x="856.8" y="358.4" width="20.8" height="5.6" fill="#93c5fd" stroke="#60a5fa" stroke-width="0.5"/><rect x="879.6" y="357.6" width="20.8" height="6.4" fill="#93c5fd" stroke="#60a5fa" stroke-width="0.5"/><rect x="902.4" y="357.8" width="20.8" height="6.2" fill="#93c5fd" stroke="#60a5fa" stroke-width="0.5"/><rect x="925.2" y="356.4" width="20.8" height="7.6" fill="#93c5fd" stroke="#60a5fa" stroke-width="0.5"/><rect x="948.0" y="359.3" width="20.8" height="4.7" fill="#93c5fd" stroke="#60a5fa" stroke-width="0.5"/><rect x="970.8" y="359.6" width="20.8" height="4.4" fill="#93c5fd" stroke="#60a5fa" stroke-width="0.5"/><rect x="993.7" y="357.1" width="20.8" height="6.9" fill="#93c5fd" stroke="#60a5fa" stroke-width="0.5"/><rect x="1016.5" y="356.9" width="20.8" height="7.1" fill="#93c5fd" stroke="#60a5fa" stroke-width="0.5"/><rect x="1039.3" y="358.8" width="20.8" height="5.2" fill="#93c5fd" stroke="#60a5fa" stroke-width="0.5"/><rect x="1062.1" y="359.0" width="20.8" height="5.0" fill="#93c5fd" stroke="#60a5fa" stroke-width="0.5"/><rect x="1084.9" y="360.1" width="20.8" height="3.9" fill="#93c5fd" stroke="#60a5fa" stroke-width="0.5"/><rect x="1107.7" y="359.4" width="20.8" height="4.6" fill="#93c5fd" stroke="#60a5fa" stroke-width="0.5"/><rect x="1130.6" y="359.5" width="20.8" height="4.5" fill="#93c5fd" stroke="#60a5fa" stroke-width="0.5"/><rect x="1153.4" y="357.5" width="20.8" height="6.5" fill="#93c5fd" stroke="#60a5fa" stroke-width="0.5"/><rect x="1176.2" y="329.8" width="20.8" height="34.2" fill="#93c5fd" stroke="#60a5fa" stroke-width="0.5"/><polyline fill="none" stroke="#ef4444" stroke-width="2" points="91.4,354.5 114.2,351.6 137.0,186.1 159.9,184.9 182.7,183.4 205.5,181.8 228.3,181.1 251.1,177.9 273.9,176.0 296.8,174.4 319.6,172.7 342.4,170.3 365.2,168.0 388.0,165.9 410.8,163.2 433.7,160.5 456.5,158.2 479.3,155.8 502.1,153.2 524.9,150.4 547.7,147.6 570.6,145.2 593.4,142.1 616.2,139.5 639.0,136.9 661.8,133.9 684.6,130.8 707.4,127.3 730.3,125.1 753.1,122.8 775.9,120.1 798.7,117.3 821.5,114.9 844.3,111.9 867.2,108.9 890.0,105.5 912.8,102.2 935.6,98.2 958.4,95.7 981.2,93.3 1004.1,89.7 1026.9,85.9 1049.7,83.1 1072.5,80.5 1095.3,78.4 1118.1,76.0 1141.0,73.6 1163.8,70.2 1186.6,52.0"/><line x1="91.4" y1="364.0" x2="91.4" y2="370.0" stroke="#111827" stroke-width="1"/><text x="93.4" y="386.0" font-size="11" text-anchor="end" transform="rotate(-35 93.4 386.0)" font-family="sans-serif" fill="#374151">2026-02-28</text><line x1="251.1" y1="364.0" x2="251.1" y2="370.0" stroke="#111827" stroke-width="1"/><text x="253.1" y="386.0" font-size="11" text-anchor="end" transform="rotate(-35 253.1 386.0)" font-family="sans-serif" fill="#374151">2026-03-09</text><line x1="410.8" y1="364.0" x2="410.8" y2="370.0" stroke="#111827" stroke-width="1"/><text x="412.8" y="386.0" font-size="11" text-anchor="end" transform="rotate(-35 412.8 386.0)" font-family="sans-serif" fill="#374151">2026-03-16</text><line x1="570.6" y1="364.0" x2="570.6" y2="370.0" stroke="#111827" stroke-width="1"/><text x="572.6" y="386.0" font-size="11" text-anchor="end" transform="rotate(-35 572.6 386.0)" font-family="sans-serif" fill="#374151">2026-03-23</text><line x1="707.4" y1="364.0" x2="707.4" y2="370.0" stroke="#111827" stroke-width="1"/><text x="709.4" y="386.0" font-size="11" text-anchor="end" transform="rotate(-35 709.4 386.0)" font-family="sans-serif" fill="#374151">2026-03-29</text><line x1="867.2" y1="364.0" x2="867.2" y2="370.0" stroke="#111827" stroke-width="1"/><text x="869.2" y="386.0" font-size="11" text-anchor="end" transform="rotate(-35 869.2 386.0)" font-family="sans-serif" fill="#374151">2026-04-05</text><line x1="1026.9" y1="364.0" x2="1026.9" y2="370.0" stroke="#111827" stroke-width="1"/><text x="1028.9" y="386.0" font-size="11" text-anchor="end" transform="rotate(-35 1028.9 386.0)" font-family="sans-serif" fill="#374151">2026-04-12</text><line x1="1186.6" y1="364.0" x2="1186.6" y2="370.0" stroke="#111827" stroke-width="1"/><text x="1188.6" y="386.0" font-size="11" text-anchor="end" transform="rotate(-35 1188.6 386.0)" font-family="sans-serif" fill="#374151">2026-04-19</text><text x="26" y="208.0" font-size="12" transform="rotate(-90 26 208.0)" text-anchor="middle" font-family="sans-serif" fill="#1f2937">구간별 수</text><text x="1256.0" y="208.0" font-size="12" transform="rotate(90 1256.0 208.0)" text-anchor="middle" font-family="sans-serif" fill="#1f2937">누적</text><text x="639.0" y="442.0" font-size="13" text-anchor="middle" font-family="sans-serif" fill="#111827">일</text></svg>