<svg xmlns="http://www.w3.org/2000/svg" width="1280" height="460" viewBox="0 0 1280 460"><rect x="0" y="0" width="100%" height="100%" fill="#ffffff"/><text x="640.0" y="28" font-size="20" text-anchor="middle" font-family="sans-serif" fill="#111827">마켓 / 최근 반영 시점 / 일별</text><line x1="80.0" y1="52.0" x2="1198.0" y2="52.0" stroke="#e5e7eb" stroke-width="1"/><text x="72.0" y="56.0" font-size="11" text-anchor="end" font-family="sans-serif" fill="#374151">493,407</text><text x="1206.0" y="56.0" font-size="11" text-anchor="start" font-family="sans-serif" fill="#374151">860,376</text><line x1="80.0" y1="114.4" x2="1198.0" y2="114.4" stroke="#e5e7eb" stroke-width="1"/><text x="72.0" y="118.4" font-size="11" text-anchor="end" font-family="sans-serif" fill="#374151">394,726</text><text x="1206.0" y="118.4" font-size="11" text-anchor="start" font-family="sans-serif" fill="#374151">688,301</text><line x1="80.0" y1="176.8" x2="1198.0" y2="176.8" stroke="#e5e7eb" stroke-width="1"/><text x="72.0" y="180.8" font-size="11" text-anchor="end" font-family="sans-serif" fill="#374151">296,044</text><text x="1206.0" y="180.8" font-size="11" text-anchor="start" font-family="sans-serif" fill="#374151">516,226</text><line x1="80.0" y1="239.2" x2="1198.0" y2="239.2" stroke="#e5e7eb" stroke-width="1"/><text x="72.0" y="243.2" font-size="11" text-anchor="end" font-family="sans-serif" fill="#374151">197,363</text><text x="1206.0" y="243.2" font-size="11" text-anchor="start" font-family="sans-serif" fill="#374151">344,150</text><line x1="80.0" y1="301.6" x2="1198.0" y2="301.6" stroke="#e5e7eb" stroke-width="1"/><text x="72.0" y="305.6" font-size="11" text-anchor="end" font-family="sans-serif" fill="#374151">98,681</text><text x="1206.0" y="305.6" font-size="11" text-anchor="start" font-family="sans-serif" fill="#374151">172,075</text><line x1="80.0" y1="364.0" x2="1198.0" y2="364.0" stroke="#e5e7eb" stroke-width="1"/><text x="72.0" y="368.0" font-size="11" text-anchor="end" font-family="sans-serif" fill="#374151">0</text><text x="1206.0" y="368.0" font-size="11" text-anchor="start" font-family="sans-serif" fill="#374151">0</text><line x1="80.0" y1="364.0" x2="1198.0" y2="364.0" stroke="#111827" stroke-width="1.2"/><line x1="80.0" y1="52.0" x2="80.0" y2="364.0" stroke="#111827" stroke-width="1.2"/><line x1="1198.0" y1="52.0" x2="1198.0" y2="364.0" stroke="#111827" stroke-width="1.2"/><rect x="81.0" y="346.1" width="25.3" height="17.9" fill="#93c5fd" stroke="#60a5fa" stroke-width="0.5"/><rect x="108.3" y="358.6" width="25.3" height="5.4" fill="#93c5fd" stroke="#60a5fa" stroke-width="0.5"/><rect x="135.5" y="52.0" width="25.3" height="312.0" fill="#93c5fd" stroke="#60a5fa" stroke-width="0.5"/><rect x="162.8" y="361.7" width="25.3" height="2.3" fill="#93c5fd" stroke="#60a5fa" stroke-width="0.5"/><rect x="190.1" y="361.2" width="25.3" height="2.8" fill="#93c5fd" stroke="#60a5fa" stroke-width="0.5"/><rect x="217.3" y="361.0" width="25.3" height="3.0" fill="#93c5fd" stroke="#60a5fa" stroke-width="0.5"/><rect x="244.6" y="362.6" width="25.3" height="1.4" fill="#93c5fd" stroke="#60a5fa" stroke-width="0.5"/><rect x="271.9" y="357.9" width="25.3" height="6.1" fill="#93c5fd" stroke="#60a5fa" stroke-width="0.5"/><rect x="299.1" y="360.4" width="25.3" height="3.6" fill="#93c5fd" stroke="#60a5fa" stroke-width="0.5"/><rect x="326.4" y="361.1" width="25.3" height="2.9" fill="#93c5fd" stroke="#60a5fa" stroke-width="0.5"/><rect x="353.7" y="360.7" width="25.3" height="3.3" fill="#93c5fd" stroke="#60a5fa" stroke-width="0.5"/><rect x="381.0" y="359.4" width="25.3" height="4.6" fill="#93c5fd" stroke="#60a5fa" stroke-width="0.5"/><rect x="408.2" y="359.7" width="25.3" height="4.3" fill="#93c5fd" stroke="#60a5fa" stroke-width="0.5"/><rect x="435.5" y="360.0" width="25.3" height="4.0" fill="#93c5fd" stroke="#60a5fa" stroke-width="0.5"/><rect x="462.8" y="358.9" width="25.3" height="5.1" fill="#93c5fd" stroke="#60a5fa" stroke-width="0.5"/><rect x="490.0" y="358.9" width="25.3" height="5.1" fill="#93c5fd" stroke="#60a5fa" stroke-width="0.5"/><rect x="517.3" y="359.7" width="25.3" height="4.3" fill="#93c5fd" stroke="#60a5fa" stroke-width="0.5"/><rect x="544.6" y="359.4" width="25.3" height="4.6" fill="#93c5fd" stroke="#60a5fa" stroke-width="0.5"/><rect x="571.8" y="359.3" width="25.3" height="4.7" fill="#93c5fd" stroke="#60a5fa" stroke-width="0.5"/><rect x="599.1" y="358.6" width="25.3" height="5.4" fill="#93c5fd" stroke="#60a5fa" stroke-width="0.5"/><rect x="626.4" y="358.7" width="25.3" height="5.3" fill="#93c5fd" stroke="#60a5fa" stroke-width="0.5"/><rect x="653.6" y="359.5" width="25.3" height="4.5" fill="#93c5fd" stroke="#60a5fa" stroke-width="0.5"/><rect x="680.9" y="358.2" width="25.3" height="5.8" fill="#93c5fd" stroke="#60a5fa" stroke-width="0.5"/><rect x="708.2" y="359.1" width="25.3" height="4.9" fill="#93c5fd" stroke="#60a5fa" stroke-width="0.5"/><rect x="735.4" y="359.1" width="25.3" height="4.9" fill="#93c5fd" stroke="#60a5fa" stroke-width="0.5"/><rect x="762.7" y="358.4" width="25.3" height="5.6" fill="#93c5fd" stroke="#60a5fa" stroke-width="0.5"/><rect x="790.0" y="358.0" width="25.3" height="6.0" fill="#93c5fd" stroke="#60a5fa" stroke-width="0.5"/><rect x="817.2" y="357.4" width="25.3" height="6.6" fill="#93c5fd" stroke="#60a5fa" stroke-width="0.5"/><rect x="844.5" y="359.8" width="25.3" height="4.2" fill="#93c5fd" stroke="#60a5fa" stroke-width="0.5"/><rect x="871.8" y="359.7" width="25.3" height="4.3" fill="#93c5fd" stroke="#60a5fa" stroke-width="0.5"/><rect x="899.0" y="358.9" width="25.3" height="5.1" fill="#93c5fd" stroke="#60a5fa" stroke-width="0.5"/><rect x="926.3" y="358.9" width="25.3" height="5.1" fill="#93c5fd" stroke="#60a5fa" stroke-width="0.5"/><rect x="953.6" y="359.5" width="25.3" height="4.5" fill="#93c5fd" stroke="#60a5fa" stroke-width="0.5"/><rect x="980.9" y="358.2" width="25.3" height="5.8" fill="#93c5fd" stroke="#60a5fa" stroke-width="0.5"/><rect x="1008.1" y="358.3" width="25.3" height="5.7" fill="#93c5fd" stroke="#60a5fa" stroke-width="0.5"/><rect x="1035.4" y="357.6" width="25.3" height="6.4" fill="#93c5fd" stroke="#60a5fa" stroke-width="0.5"/><rect x="1062.7" y="357.8" width="25.3" height="6.2" fill="#93c5fd" stroke="#60a5fa" stroke-width="0.5"/><rect x="1089.9" y="356.4" width="25.3" height="7.6" fill="#93c5fd" stroke="#60a5fa" stroke-width="0.5"/><rect x="1117.2" y="359.2" width="25.3" height="4.8" fill="#93c5fd" stroke="#60a5fa" stroke-width="0.5"/><rect x="1144.5" y="358.2" width="25.3" height="5.8" fill="#93c5fd" stroke="#60a5fa" stroke-width="0.5"/><rect x="1171.7" y="331.7" width="25.3" height="32.3" fill="#93c5fd" stroke="#60a5fa" stroke-width="0.5"/><polyline fill="none" stroke="#ef4444" stroke-width="2" points="93.6,353.7 120.9,350.6 148.2,171.7 175.4,170.4 202.7,168.8 230.0,167.0 257.2,166.3 284.5,162.8 311.8,160.7 339.0,159.0 366.3,157.2 393.6,154.5 420.9,152.1 448.1,149.8 475.4,146.9 502.7,144.0 529.9,141.5 557.2,138.9 584.5,136.2 611.7,133.1 639.0,130.1 666.3,127.5 693.5,124.1 720.8,121.3 748.1,118.5 775.3,115.3 802.6,111.9 829.9,108.1 857.1,105.7 884.4,103.2 911.7,100.3 939.0,97.3 966.2,94.7 993.5,91.4 1020.8,88.2 1048.0,84.5 1075.3,80.9 1102.6,76.6 1129.8,73.8 1157.1,70.6 1184.4,52.0"/><line x1="93.6" y1="364.0" x2="93.6" y2="370.0" stroke="#111827" stroke-width="1"/><text x="95.6" y="386.0" font-size="11" text-anchor="end" transform="rotate(-35 95.6 386.0)" font-family="sans-serif" fill="#374151">2026-02-28</text><line x1="257.2" y1="364.0" x2="257.2" y2="370.0" stroke="#111827" stroke-width="1"/><text x="259.2" y="386.0" font-size="11" text-anchor="end" transform="rotate(-35 259.2 386.0)" font-family="sans-serif" fill="#374151">2026-03-08</text><line x1="393.6" y1="364.0" x2="393.6" y2="370.0" stroke="#111827" stroke-width="1"/><text x="395.6" y="386.0" font-size="11" text-anchor="end" transform="rotate(-35 395.6 386.0)" font-family="sans-serif" fill="#374151">2026-03-13</text><line x1="557.2" y1="364.0" x2="557.2" y2="370.0" stroke="#111827" stroke-width="1"/><text x="559.2" y="386.0" font-size="11" text-anchor="end" transform="rotate(-35 559.2 386.0)" font-family="sans-serif" fill="#374151">2026-03-19</text><line x1="720.8" y1="364.0" x2="720.8" y2="370.0" stroke="#111827" stroke-width="1"/><text x="722.8" y="386.0" font-size="11" text-anchor="end" transform="rotate(-35 722.8 386.0)" font-family="sans-serif" fill="#374151">2026-03-25</text><line x1="884.4" y1="364.0" x2="884.4" y2="370.0" stroke="#111827" stroke-width="1"/><text x="886.4" y="386.0" font-size="11" text-anchor="end" transform="rotate(-35 886.4 386.0)" font-family="sans-serif" fill="#374151">2026-03-31</text><line x1="1020.8" y1="364.0" x2="1020.8" y2="370.0" stroke="#111827" stroke-width="1"/><text x="1022.8" y="386.0" font-size="11" text-anchor="end" transform="rotate(-35 1022.8 386.0)" font-family="sans-serif" fill="#374151">2026-04-05</text><line x1="1184.4" y1="364.0" x2="1184.4" y2="370.0" stroke="#111827" stroke-width="1"/><text x="1186.4" y="386.0" font-size="11" text-anchor="end" transform="rotate(-35 1186.4 386.0)" font-family="sans-serif" fill="#374151">2026-04-11</text><text x="26" y="208.0" font-size="12" transform="rotate(-90 26 208.0)" text-anchor="middle" font-family="sans-serif" fill="#1f2937">구간별 수</text><text x="1256.0" y="208.0" font-size="12" transform="rotate(90 1256.0 208.0)" text-anchor="middle" font-family="sans-serif" fill="#1f2937">누적</text><text x="639.0" y="442.0" font-size="13" text-anchor="middle" font-family="sans-serif" fill="#111827">일</text></svg>