<svg xmlns="http://www.w3.org/2000/svg" width="1280" height="460" viewBox="0 0 1280 460"><rect x="0" y="0" width="100%" height="100%" fill="#ffffff"/><text x="640.0" y="28" font-size="20" text-anchor="middle" font-family="sans-serif" fill="#111827">마켓 / 최근 반영 시점 / 일별</text><line x1="80.0" y1="52.0" x2="1198.0" y2="52.0" stroke="#e5e7eb" stroke-width="1"/><text x="72.0" y="56.0" font-size="11" text-anchor="end" font-family="sans-serif" fill="#374151">493,407</text><text x="1206.0" y="56.0" font-size="11" text-anchor="start" font-family="sans-serif" fill="#374151">991,391</text><line x1="80.0" y1="114.4" x2="1198.0" y2="114.4" stroke="#e5e7eb" stroke-width="1"/><text x="72.0" y="118.4" font-size="11" text-anchor="end" font-family="sans-serif" fill="#374151">394,726</text><text x="1206.0" y="118.4" font-size="11" text-anchor="start" font-family="sans-serif" fill="#374151">793,113</text><line x1="80.0" y1="176.8" x2="1198.0" y2="176.8" stroke="#e5e7eb" stroke-width="1"/><text x="72.0" y="180.8" font-size="11" text-anchor="end" font-family="sans-serif" fill="#374151">296,044</text><text x="1206.0" y="180.8" font-size="11" text-anchor="start" font-family="sans-serif" fill="#374151">594,835</text><line x1="80.0" y1="239.2" x2="1198.0" y2="239.2" stroke="#e5e7eb" stroke-width="1"/><text x="72.0" y="243.2" font-size="11" text-anchor="end" font-family="sans-serif" fill="#374151">197,363</text><text x="1206.0" y="243.2" font-size="11" text-anchor="start" font-family="sans-serif" fill="#374151">396,556</text><line x1="80.0" y1="301.6" x2="1198.0" y2="301.6" stroke="#e5e7eb" stroke-width="1"/><text x="72.0" y="305.6" font-size="11" text-anchor="end" font-family="sans-serif" fill="#374151">98,681</text><text x="1206.0" y="305.6" font-size="11" text-anchor="start" font-family="sans-serif" fill="#374151">198,278</text><line x1="80.0" y1="364.0" x2="1198.0" y2="364.0" stroke="#e5e7eb" stroke-width="1"/><text x="72.0" y="368.0" font-size="11" text-anchor="end" font-family="sans-serif" fill="#374151">0</text><text x="1206.0" y="368.0" font-size="11" text-anchor="start" font-family="sans-serif" fill="#374151">0</text><line x1="80.0" y1="364.0" x2="1198.0" y2="364.0" stroke="#111827" stroke-width="1.2"/><line x1="80.0" y1="52.0" x2="80.0" y2="364.0" stroke="#111827" stroke-width="1.2"/><line x1="1198.0" y1="52.0" x2="1198.0" y2="364.0" stroke="#111827" stroke-width="1.2"/><rect x="81.0" y="346.1" width="17.6" height="17.9" fill="#93c5fd" stroke="#60a5fa" stroke-width="0.5"/><rect x="100.6" y="358.6" width="17.6" height="5.4" fill="#93c5fd" stroke="#60a5fa" stroke-width="0.5"/><rect x="120.2" y="52.0" width="17.6" height="312.0" fill="#93c5fd" stroke="#60a5fa" stroke-width="0.5"/><rect x="139.8" y="361.7" width="17.6" height="2.3" fill="#93c5fd" stroke="#60a5fa" stroke-width="0.5"/><rect x="159.5" y="361.2" width="17.6" height="2.8" fill="#93c5fd" stroke="#60a5fa" stroke-width="0.5"/><rect x="179.1" y="361.0" width="17.6" height="3.0" fill="#93c5fd" stroke="#60a5fa" stroke-width="0.5"/><rect x="198.7" y="362.6" width="17.6" height="1.4" fill="#93c5fd" stroke="#60a5fa" stroke-width="0.5"/><rect x="218.3" y="357.9" width="17.6" height="6.1" fill="#93c5fd" stroke="#60a5fa" stroke-width="0.5"/><rect x="237.9" y="360.4" width="17.6" height="3.6" fill="#93c5fd" stroke="#60a5fa" stroke-width="0.5"/><rect x="257.5" y="361.1" width="17.6" height="2.9" fill="#93c5fd" stroke="#60a5fa" stroke-width="0.5"/><rect x="277.1" y="360.7" width="17.6" height="3.3" fill="#93c5fd" stroke="#60a5fa" stroke-width="0.5"/><rect x="296.8" y="359.4" width="17.6" height="4.6" fill="#93c5fd" stroke="#60a5fa" stroke-width="0.5"/><rect x="316.4" y="359.7" width="17.6" height="4.3" fill="#93c5fd" stroke="#60a5fa" stroke-width="0.5"/><rect x="336.0" y="360.0" width="17.6" height="4.0" fill="#93c5fd" stroke="#60a5fa" stroke-width="0.5"/><rect x="355.6" y="358.9" width="17.6" height="5.1" fill="#93c5fd" stroke="#60a5fa" stroke-width="0.5"/><rect x="375.2" y="358.9" width="17.6" height="5.1" fill="#93c5fd" stroke="#60a5fa" stroke-width="0.5"/><rect x="394.8" y="359.7" width="17.6" height="4.3" fill="#93c5fd" stroke="#60a5fa" stroke-width="0.5"/><rect x="414.4" y="359.4" width="17.6" height="4.6" fill="#93c5fd" stroke="#60a5fa" stroke-width="0.5"/><rect x="434.1" y="359.3" width="17.6" height="4.7" fill="#93c5fd" stroke="#60a5fa" stroke-width="0.5"/><rect x="453.7" y="358.6" width="17.6" height="5.4" fill="#93c5fd" stroke="#60a5fa" stroke-width="0.5"/><rect x="473.3" y="358.7" width="17.6" height="5.3" fill="#93c5fd" stroke="#60a5fa" stroke-width="0.5"/><rect x="492.9" y="359.5" width="17.6" height="4.5" fill="#93c5fd" stroke="#60a5fa" stroke-width="0.5"/><rect x="512.5" y="358.2" width="17.6" height="5.8" fill="#93c5fd" stroke="#60a5fa" stroke-width="0.5"/><rect x="532.1" y="359.1" width="17.6" height="4.9" fill="#93c5fd" stroke="#60a5fa" stroke-width="0.5"/><rect x="551.7" y="359.1" width="17.6" height="4.9" fill="#93c5fd" stroke="#60a5fa" stroke-width="0.5"/><rect x="571.4" y="358.4" width="17.6" height="5.6" fill="#93c5fd" stroke="#60a5fa" stroke-width="0.5"/><rect x="591.0" y="358.0" width="17.6" height="6.0" fill="#93c5fd" stroke="#60a5fa" stroke-width="0.5"/><rect x="610.6" y="357.5" width="17.6" height="6.5" fill="#93c5fd" stroke="#60a5fa" stroke-width="0.5"/><rect x="630.2" y="359.8" width="17.6" height="4.2" fill="#93c5fd" stroke="#60a5fa" stroke-width="0.5"/><rect x="649.8" y="359.7" width="17.6" height="4.3" fill="#93c5fd" stroke="#60a5fa" stroke-width="0.5"/><rect x="669.4" y="358.9" width="17.6" height="5.1" fill="#93c5fd" stroke="#60a5fa" stroke-width="0.5"/><rect x="689.0" y="358.9" width="17.6" height="5.1" fill="#93c5fd" stroke="#60a5fa" stroke-width="0.5"/><rect x="708.6" y="359.5" width="17.6" height="4.5" fill="#93c5fd" stroke="#60a5fa" stroke-width="0.5"/><rect x="728.3" y="358.2" width="17.6" height="5.8" fill="#93c5fd" stroke="#60a5fa" stroke-width="0.5"/><rect x="747.9" y="358.4" width="17.6" height="5.6" fill="#93c5fd" stroke="#60a5fa" stroke-width="0.5"/><rect x="767.5" y="357.6" width="17.6" height="6.4" fill="#93c5fd" stroke="#60a5fa" stroke-width="0.5"/><rect x="787.1" y="357.8" width="17.6" height="6.2" fill="#93c5fd" stroke="#60a5fa" stroke-width="0.5"/><rect x="806.7" y="356.4" width="17.6" height="7.6" fill="#93c5fd" stroke="#60a5fa" stroke-width="0.5"/><rect x="826.3" y="359.3" width="17.6" height="4.7" fill="#93c5fd" stroke="#60a5fa" stroke-width="0.5"/><rect x="845.9" y="359.6" width="17.6" height="4.4" fill="#93c5fd" stroke="#60a5fa" stroke-width="0.5"/><rect x="865.6" y="357.1" width="17.6" height="6.9" fill="#93c5fd" stroke="#60a5fa" stroke-width="0.5"/><rect x="885.2" y="356.9" width="17.6" height="7.1" fill="#93c5fd" stroke="#60a5fa" stroke-width="0.5"/><rect x="904.8" y="358.8" width="17.6" height="5.2" fill="#93c5fd" stroke="#60a5fa" stroke-width="0.5"/><rect x="924.4" y="359.0" width="17.6" height="5.0" fill="#93c5fd" stroke="#60a5fa" stroke-width="0.5"/><rect x="944.0" y="360.1" width="17.6" height="3.9" fill="#93c5fd" stroke="#60a5fa" stroke-width="0.5"/><rect x="963.6" y="359.4" width="17.6" height="4.6" fill="#93c5fd" stroke="#60a5fa" stroke-width="0.5"/><rect x="983.2" y="359.5" width="17.6" height="4.5" fill="#93c5fd" stroke="#60a5fa" stroke-width="0.5"/><rect x="1002.9" y="357.5" width="17.6" height="6.5" fill="#93c5fd" stroke="#60a5fa" stroke-width="0.5"/><rect x="1022.5" y="358.0" width="17.6" height="6.0" fill="#93c5fd" stroke="#60a5fa" stroke-width="0.5"/><rect x="1042.1" y="359.0" width="17.6" height="5.0" fill="#93c5fd" stroke="#60a5fa" stroke-width="0.5"/><rect x="1061.7" y="359.5" width="17.6" height="4.5" fill="#93c5fd" stroke="#60a5fa" stroke-width="0.5"/><rect x="1081.3" y="358.7" width="17.6" height="5.3" fill="#93c5fd" stroke="#60a5fa" stroke-width="0.5"/><rect x="1100.9" y="358.8" width="17.6" height="5.2" fill="#93c5fd" stroke="#60a5fa" stroke-width="0.5"/><rect x="1120.5" y="358.7" width="17.6" height="5.3" fill="#93c5fd" stroke="#60a5fa" stroke-width="0.5"/><rect x="1140.2" y="356.9" width="17.6" height="7.1" fill="#93c5fd" stroke="#60a5fa" stroke-width="0.5"/><rect x="1159.8" y="349.9" width="17.6" height="14.1" fill="#93c5fd" stroke="#60a5fa" stroke-width="0.5"/><rect x="1179.4" y="343.5" width="17.6" height="20.5" fill="#93c5fd" stroke="#60a5fa" stroke-width="0.5"/><polyline fill="none" stroke="#ef4444" stroke-width="2" points="89.8,355.1 109.4,352.4 129.0,197.1 148.6,196.0 168.3,194.6 187.9,193.1 207.5,192.4 227.1,189.4 246.7,187.6 266.3,186.1 285.9,184.5 305.6,182.2 325.2,180.1 344.8,178.1 364.4,175.6 384.0,173.1 403.6,170.9 423.2,168.6 442.9,166.3 462.5,163.6 482.1,161.0 501.7,158.7 521.3,155.9 540.9,153.4 560.5,150.9 580.2,148.2 599.8,145.2 619.4,141.9 639.0,139.8 658.6,137.7 678.2,135.1 697.8,132.6 717.5,130.3 737.1,127.5 756.7,124.7 776.3,121.5 795.9,118.4 815.5,114.6 835.1,112.2 854.8,110.0 874.4,106.6 894.0,103.1 913.6,100.5 933.2,98.0 952.8,96.1 972.4,93.8 992.1,91.6 1011.7,88.3 1031.3,85.3 1050.9,82.8 1070.5,80.6 1090.1,78.0 1109.7,75.4 1129.4,72.7 1149.0,69.2 1168.6,62.2 1188.2,52.0"/><line x1="89.8" y1="364.0" x2="89.8" y2="370.0" stroke="#111827" stroke-width="1"/><text x="91.8" y="386.0" font-size="11" text-anchor="end" transform="rotate(-35 91.8 386.0)" font-family="sans-serif" fill="#374151">2026-02-28</text><line x1="246.7" y1="364.0" x2="246.7" y2="370.0" stroke="#111827" stroke-width="1"/><text x="248.7" y="386.0" font-size="11" text-anchor="end" transform="rotate(-35 248.7 386.0)" font-family="sans-serif" fill="#374151">2026-03-10</text><line x1="403.6" y1="364.0" x2="403.6" y2="370.0" stroke="#111827" stroke-width="1"/><text x="405.6" y="386.0" font-size="11" text-anchor="end" transform="rotate(-35 405.6 386.0)" font-family="sans-serif" fill="#374151">2026-03-18</text><line x1="560.5" y1="364.0" x2="560.5" y2="370.0" stroke="#111827" stroke-width="1"/><text x="562.5" y="386.0" font-size="11" text-anchor="end" transform="rotate(-35 562.5 386.0)" font-family="sans-serif" fill="#374151">2026-03-26</text><line x1="717.5" y1="364.0" x2="717.5" y2="370.0" stroke="#111827" stroke-width="1"/><text x="719.5" y="386.0" font-size="11" text-anchor="end" transform="rotate(-35 719.5 386.0)" font-family="sans-serif" fill="#374151">2026-04-03</text><line x1="874.4" y1="364.0" x2="874.4" y2="370.0" stroke="#111827" stroke-width="1"/><text x="876.4" y="386.0" font-size="11" text-anchor="end" transform="rotate(-35 876.4 386.0)" font-family="sans-serif" fill="#374151">2026-04-11</text><line x1="1031.3" y1="364.0" x2="1031.3" y2="370.0" stroke="#111827" stroke-width="1"/><text x="1033.3" y="386.0" font-size="11" text-anchor="end" transform="rotate(-35 1033.3 386.0)" font-family="sans-serif" fill="#374151">2026-04-19</text><line x1="1188.2" y1="364.0" x2="1188.2" y2="370.0" stroke="#111827" stroke-width="1"/><text x="1190.2" y="386.0" font-size="11" text-anchor="end" transform="rotate(-35 1190.2 386.0)" font-family="sans-serif" fill="#374151">2026-04-27</text><text x="26" y="208.0" font-size="12" transform="rotate(-90 26 208.0)" text-anchor="middle" font-family="sans-serif" fill="#1f2937">구간별 수</text><text x="1256.0" y="208.0" font-size="12" transform="rotate(90 1256.0 208.0)" text-anchor="middle" font-family="sans-serif" fill="#1f2937">누적</text><text x="639.0" y="442.0" font-size="13" text-anchor="middle" font-family="sans-serif" fill="#111827">일</text></svg>