<svg xmlns="http://www.w3.org/2000/svg" width="1280" height="460" viewBox="0 0 1280 460"><rect x="0" y="0" width="100%" height="100%" fill="#ffffff"/><text x="640.0" y="28" font-size="20" text-anchor="middle" font-family="sans-serif" fill="#111827">마켓 / 최근 반영 시점 / 일별</text><line x1="80.0" y1="52.0" x2="1198.0" y2="52.0" stroke="#e5e7eb" stroke-width="1"/><text x="72.0" y="56.0" font-size="11" text-anchor="end" font-family="sans-serif" fill="#374151">493,407</text><text x="1206.0" y="56.0" font-size="11" text-anchor="start" font-family="sans-serif" fill="#374151">976,006</text><line x1="80.0" y1="114.4" x2="1198.0" y2="114.4" stroke="#e5e7eb" stroke-width="1"/><text x="72.0" y="118.4" font-size="11" text-anchor="end" font-family="sans-serif" fill="#374151">394,726</text><text x="1206.0" y="118.4" font-size="11" text-anchor="start" font-family="sans-serif" fill="#374151">780,805</text><line x1="80.0" y1="176.8" x2="1198.0" y2="176.8" stroke="#e5e7eb" stroke-width="1"/><text x="72.0" y="180.8" font-size="11" text-anchor="end" font-family="sans-serif" fill="#374151">296,044</text><text x="1206.0" y="180.8" font-size="11" text-anchor="start" font-family="sans-serif" fill="#374151">585,604</text><line x1="80.0" y1="239.2" x2="1198.0" y2="239.2" stroke="#e5e7eb" stroke-width="1"/><text x="72.0" y="243.2" font-size="11" text-anchor="end" font-family="sans-serif" fill="#374151">197,363</text><text x="1206.0" y="243.2" font-size="11" text-anchor="start" font-family="sans-serif" fill="#374151">390,402</text><line x1="80.0" y1="301.6" x2="1198.0" y2="301.6" stroke="#e5e7eb" stroke-width="1"/><text x="72.0" y="305.6" font-size="11" text-anchor="end" font-family="sans-serif" fill="#374151">98,681</text><text x="1206.0" y="305.6" font-size="11" text-anchor="start" font-family="sans-serif" fill="#374151">195,201</text><line x1="80.0" y1="364.0" x2="1198.0" y2="364.0" stroke="#e5e7eb" stroke-width="1"/><text x="72.0" y="368.0" font-size="11" text-anchor="end" font-family="sans-serif" fill="#374151">0</text><text x="1206.0" y="368.0" font-size="11" text-anchor="start" font-family="sans-serif" fill="#374151">0</text><line x1="80.0" y1="364.0" x2="1198.0" y2="364.0" stroke="#111827" stroke-width="1.2"/><line x1="80.0" y1="52.0" x2="80.0" y2="364.0" stroke="#111827" stroke-width="1.2"/><line x1="1198.0" y1="52.0" x2="1198.0" y2="364.0" stroke="#111827" stroke-width="1.2"/><rect x="81.0" y="346.1" width="18.3" height="17.9" fill="#93c5fd" stroke="#60a5fa" stroke-width="0.5"/><rect x="101.3" y="358.6" width="18.3" height="5.4" fill="#93c5fd" stroke="#60a5fa" stroke-width="0.5"/><rect x="121.7" y="52.0" width="18.3" height="312.0" fill="#93c5fd" stroke="#60a5fa" stroke-width="0.5"/><rect x="142.0" y="361.7" width="18.3" height="2.3" fill="#93c5fd" stroke="#60a5fa" stroke-width="0.5"/><rect x="162.3" y="361.2" width="18.3" height="2.8" fill="#93c5fd" stroke="#60a5fa" stroke-width="0.5"/><rect x="182.6" y="361.0" width="18.3" height="3.0" fill="#93c5fd" stroke="#60a5fa" stroke-width="0.5"/><rect x="203.0" y="362.6" width="18.3" height="1.4" fill="#93c5fd" stroke="#60a5fa" stroke-width="0.5"/><rect x="223.3" y="357.9" width="18.3" height="6.1" fill="#93c5fd" stroke="#60a5fa" stroke-width="0.5"/><rect x="243.6" y="360.4" width="18.3" height="3.6" fill="#93c5fd" stroke="#60a5fa" stroke-width="0.5"/><rect x="263.9" y="361.1" width="18.3" height="2.9" fill="#93c5fd" stroke="#60a5fa" stroke-width="0.5"/><rect x="284.3" y="360.7" width="18.3" height="3.3" fill="#93c5fd" stroke="#60a5fa" stroke-width="0.5"/><rect x="304.6" y="359.4" width="18.3" height="4.6" fill="#93c5fd" stroke="#60a5fa" stroke-width="0.5"/><rect x="324.9" y="359.7" width="18.3" height="4.3" fill="#93c5fd" stroke="#60a5fa" stroke-width="0.5"/><rect x="345.3" y="360.0" width="18.3" height="4.0" fill="#93c5fd" stroke="#60a5fa" stroke-width="0.5"/><rect x="365.6" y="358.9" width="18.3" height="5.1" fill="#93c5fd" stroke="#60a5fa" stroke-width="0.5"/><rect x="385.9" y="358.9" width="18.3" height="5.1" fill="#93c5fd" stroke="#60a5fa" stroke-width="0.5"/><rect x="406.2" y="359.7" width="18.3" height="4.3" fill="#93c5fd" stroke="#60a5fa" stroke-width="0.5"/><rect x="426.6" y="359.4" width="18.3" height="4.6" fill="#93c5fd" stroke="#60a5fa" stroke-width="0.5"/><rect x="446.9" y="359.3" width="18.3" height="4.7" fill="#93c5fd" stroke="#60a5fa" stroke-width="0.5"/><rect x="467.2" y="358.6" width="18.3" height="5.4" fill="#93c5fd" stroke="#60a5fa" stroke-width="0.5"/><rect x="487.5" y="358.7" width="18.3" height="5.3" fill="#93c5fd" stroke="#60a5fa" stroke-width="0.5"/><rect x="507.9" y="359.5" width="18.3" height="4.5" fill="#93c5fd" stroke="#60a5fa" stroke-width="0.5"/><rect x="528.2" y="358.2" width="18.3" height="5.8" fill="#93c5fd" stroke="#60a5fa" stroke-width="0.5"/><rect x="548.5" y="359.1" width="18.3" height="4.9" fill="#93c5fd" stroke="#60a5fa" stroke-width="0.5"/><rect x="568.9" y="359.1" width="18.3" height="4.9" fill="#93c5fd" stroke="#60a5fa" stroke-width="0.5"/><rect x="589.2" y="358.4" width="18.3" height="5.6" fill="#93c5fd" stroke="#60a5fa" stroke-width="0.5"/><rect x="609.5" y="358.0" width="18.3" height="6.0" fill="#93c5fd" stroke="#60a5fa" stroke-width="0.5"/><rect x="629.8" y="357.5" width="18.3" height="6.5" fill="#93c5fd" stroke="#60a5fa" stroke-width="0.5"/><rect x="650.2" y="359.8" width="18.3" height="4.2" fill="#93c5fd" stroke="#60a5fa" stroke-width="0.5"/><rect x="670.5" y="359.7" width="18.3" height="4.3" fill="#93c5fd" stroke="#60a5fa" stroke-width="0.5"/><rect x="690.8" y="358.9" width="18.3" height="5.1" fill="#93c5fd" stroke="#60a5fa" stroke-width="0.5"/><rect x="711.1" y="358.9" width="18.3" height="5.1" fill="#93c5fd" stroke="#60a5fa" stroke-width="0.5"/><rect x="731.5" y="359.5" width="18.3" height="4.5" fill="#93c5fd" stroke="#60a5fa" stroke-width="0.5"/><rect x="751.8" y="358.2" width="18.3" height="5.8" fill="#93c5fd" stroke="#60a5fa" stroke-width="0.5"/><rect x="772.1" y="358.4" width="18.3" height="5.6" fill="#93c5fd" stroke="#60a5fa" stroke-width="0.5"/><rect x="792.5" y="357.6" width="18.3" height="6.4" fill="#93c5fd" stroke="#60a5fa" stroke-width="0.5"/><rect x="812.8" y="357.8" width="18.3" height="6.2" fill="#93c5fd" stroke="#60a5fa" stroke-width="0.5"/><rect x="833.1" y="356.4" width="18.3" height="7.6" fill="#93c5fd" stroke="#60a5fa" stroke-width="0.5"/><rect x="853.4" y="359.3" width="18.3" height="4.7" fill="#93c5fd" stroke="#60a5fa" stroke-width="0.5"/><rect x="873.8" y="359.6" width="18.3" height="4.4" fill="#93c5fd" stroke="#60a5fa" stroke-width="0.5"/><rect x="894.1" y="357.1" width="18.3" height="6.9" fill="#93c5fd" stroke="#60a5fa" stroke-width="0.5"/><rect x="914.4" y="356.9" width="18.3" height="7.1" fill="#93c5fd" stroke="#60a5fa" stroke-width="0.5"/><rect x="934.7" y="358.8" width="18.3" height="5.2" fill="#93c5fd" stroke="#60a5fa" stroke-width="0.5"/><rect x="955.1" y="359.0" width="18.3" height="5.0" fill="#93c5fd" stroke="#60a5fa" stroke-width="0.5"/><rect x="975.4" y="360.1" width="18.3" height="3.9" fill="#93c5fd" stroke="#60a5fa" stroke-width="0.5"/><rect x="995.7" y="359.4" width="18.3" height="4.6" fill="#93c5fd" stroke="#60a5fa" stroke-width="0.5"/><rect x="1016.1" y="359.5" width="18.3" height="4.5" fill="#93c5fd" stroke="#60a5fa" stroke-width="0.5"/><rect x="1036.4" y="357.5" width="18.3" height="6.5" fill="#93c5fd" stroke="#60a5fa" stroke-width="0.5"/><rect x="1056.7" y="358.0" width="18.3" height="6.0" fill="#93c5fd" stroke="#60a5fa" stroke-width="0.5"/><rect x="1077.0" y="359.0" width="18.3" height="5.0" fill="#93c5fd" stroke="#60a5fa" stroke-width="0.5"/><rect x="1097.4" y="359.5" width="18.3" height="4.5" fill="#93c5fd" stroke="#60a5fa" stroke-width="0.5"/><rect x="1117.7" y="358.7" width="18.3" height="5.3" fill="#93c5fd" stroke="#60a5fa" stroke-width="0.5"/><rect x="1138.0" y="358.8" width="18.3" height="5.2" fill="#93c5fd" stroke="#60a5fa" stroke-width="0.5"/><rect x="1158.3" y="358.7" width="18.3" height="5.3" fill="#93c5fd" stroke="#60a5fa" stroke-width="0.5"/><rect x="1178.7" y="332.1" width="18.3" height="31.9" fill="#93c5fd" stroke="#60a5fa" stroke-width="0.5"/><polyline fill="none" stroke="#ef4444" stroke-width="2" points="90.2,354.9 110.5,352.2 130.8,194.5 151.1,193.3 171.5,191.9 191.8,190.4 212.1,189.7 232.5,186.6 252.8,184.8 273.1,183.3 293.4,181.7 313.8,179.4 334.1,177.2 354.4,175.2 374.7,172.6 395.1,170.1 415.4,167.9 435.7,165.6 456.1,163.2 476.4,160.4 496.7,157.8 517.0,155.5 537.4,152.6 557.7,150.1 578.0,147.6 598.3,144.8 618.7,141.7 639.0,138.4 659.3,136.3 679.7,134.1 700.0,131.5 720.3,128.9 740.6,126.7 761.0,123.7 781.3,120.9 801.6,117.7 821.9,114.5 842.3,110.7 862.6,108.3 882.9,106.0 903.3,102.6 923.6,99.0 943.9,96.3 964.2,93.8 984.6,91.8 1004.9,89.5 1025.2,87.3 1045.5,84.0 1065.9,80.9 1086.2,78.4 1106.5,76.1 1126.9,73.5 1147.2,70.8 1167.5,68.1 1187.8,52.0"/><line x1="90.2" y1="364.0" x2="90.2" y2="370.0" stroke="#111827" stroke-width="1"/><text x="92.2" y="386.0" font-size="11" text-anchor="end" transform="rotate(-35 92.2 386.0)" font-family="sans-serif" fill="#374151">2026-02-28</text><line x1="252.8" y1="364.0" x2="252.8" y2="370.0" stroke="#111827" stroke-width="1"/><text x="254.8" y="386.0" font-size="11" text-anchor="end" transform="rotate(-35 254.8 386.0)" font-family="sans-serif" fill="#374151">2026-03-10</text><line x1="395.1" y1="364.0" x2="395.1" y2="370.0" stroke="#111827" stroke-width="1"/><text x="397.1" y="386.0" font-size="11" text-anchor="end" transform="rotate(-35 397.1 386.0)" font-family="sans-serif" fill="#374151">2026-03-17</text><line x1="557.7" y1="364.0" x2="557.7" y2="370.0" stroke="#111827" stroke-width="1"/><text x="559.7" y="386.0" font-size="11" text-anchor="end" transform="rotate(-35 559.7 386.0)" font-family="sans-serif" fill="#374151">2026-03-25</text><line x1="720.3" y1="364.0" x2="720.3" y2="370.0" stroke="#111827" stroke-width="1"/><text x="722.3" y="386.0" font-size="11" text-anchor="end" transform="rotate(-35 722.3 386.0)" font-family="sans-serif" fill="#374151">2026-04-02</text><line x1="882.9" y1="364.0" x2="882.9" y2="370.0" stroke="#111827" stroke-width="1"/><text x="884.9" y="386.0" font-size="11" text-anchor="end" transform="rotate(-35 884.9 386.0)" font-family="sans-serif" fill="#374151">2026-04-10</text><line x1="1025.2" y1="364.0" x2="1025.2" y2="370.0" stroke="#111827" stroke-width="1"/><text x="1027.2" y="386.0" font-size="11" text-anchor="end" transform="rotate(-35 1027.2 386.0)" font-family="sans-serif" fill="#374151">2026-04-17</text><line x1="1187.8" y1="364.0" x2="1187.8" y2="370.0" stroke="#111827" stroke-width="1"/><text x="1189.8" y="386.0" font-size="11" text-anchor="end" transform="rotate(-35 1189.8 386.0)" font-family="sans-serif" fill="#374151">2026-04-25</text><text x="26" y="208.0" font-size="12" transform="rotate(-90 26 208.0)" text-anchor="middle" font-family="sans-serif" fill="#1f2937">구간별 수</text><text x="1256.0" y="208.0" font-size="12" transform="rotate(90 1256.0 208.0)" text-anchor="middle" font-family="sans-serif" fill="#1f2937">누적</text><text x="639.0" y="442.0" font-size="13" text-anchor="middle" font-family="sans-serif" fill="#111827">일</text></svg>