<svg xmlns="http://www.w3.org/2000/svg" width="1280" height="460" viewBox="0 0 1280 460"><rect x="0" y="0" width="100%" height="100%" fill="#ffffff"/><text x="640.0" y="28" font-size="20" text-anchor="middle" font-family="sans-serif" fill="#111827">마켓 / 최근 반영 시점 / 일별</text><line x1="80.0" y1="52.0" x2="1198.0" y2="52.0" stroke="#e5e7eb" stroke-width="1"/><text x="72.0" y="56.0" font-size="11" text-anchor="end" font-family="sans-serif" fill="#374151">493,371</text><text x="1206.0" y="56.0" font-size="11" text-anchor="start" font-family="sans-serif" fill="#374151">1,010,817</text><line x1="80.0" y1="114.4" x2="1198.0" y2="114.4" stroke="#e5e7eb" stroke-width="1"/><text x="72.0" y="118.4" font-size="11" text-anchor="end" font-family="sans-serif" fill="#374151">394,697</text><text x="1206.0" y="118.4" font-size="11" text-anchor="start" font-family="sans-serif" fill="#374151">808,654</text><line x1="80.0" y1="176.8" x2="1198.0" y2="176.8" stroke="#e5e7eb" stroke-width="1"/><text x="72.0" y="180.8" font-size="11" text-anchor="end" font-family="sans-serif" fill="#374151">296,023</text><text x="1206.0" y="180.8" font-size="11" text-anchor="start" font-family="sans-serif" fill="#374151">606,490</text><line x1="80.0" y1="239.2" x2="1198.0" y2="239.2" stroke="#e5e7eb" stroke-width="1"/><text x="72.0" y="243.2" font-size="11" text-anchor="end" font-family="sans-serif" fill="#374151">197,348</text><text x="1206.0" y="243.2" font-size="11" text-anchor="start" font-family="sans-serif" fill="#374151">404,327</text><line x1="80.0" y1="301.6" x2="1198.0" y2="301.6" stroke="#e5e7eb" stroke-width="1"/><text x="72.0" y="305.6" font-size="11" text-anchor="end" font-family="sans-serif" fill="#374151">98,674</text><text x="1206.0" y="305.6" font-size="11" text-anchor="start" font-family="sans-serif" fill="#374151">202,163</text><line x1="80.0" y1="364.0" x2="1198.0" y2="364.0" stroke="#e5e7eb" stroke-width="1"/><text x="72.0" y="368.0" font-size="11" text-anchor="end" font-family="sans-serif" fill="#374151">0</text><text x="1206.0" y="368.0" font-size="11" text-anchor="start" font-family="sans-serif" fill="#374151">0</text><line x1="80.0" y1="364.0" x2="1198.0" y2="364.0" stroke="#111827" stroke-width="1.2"/><line x1="80.0" y1="52.0" x2="80.0" y2="364.0" stroke="#111827" stroke-width="1.2"/><line x1="1198.0" y1="52.0" x2="1198.0" y2="364.0" stroke="#111827" stroke-width="1.2"/><rect x="81.0" y="346.1" width="16.9" height="17.9" fill="#93c5fd" stroke="#60a5fa" stroke-width="0.5"/><rect x="99.9" y="358.6" width="16.9" height="5.4" fill="#93c5fd" stroke="#60a5fa" stroke-width="0.5"/><rect x="118.9" y="52.0" width="16.9" height="312.0" fill="#93c5fd" stroke="#60a5fa" stroke-width="0.5"/><rect x="137.8" y="361.7" width="16.9" height="2.3" fill="#93c5fd" stroke="#60a5fa" stroke-width="0.5"/><rect x="156.8" y="361.2" width="16.9" height="2.8" fill="#93c5fd" stroke="#60a5fa" stroke-width="0.5"/><rect x="175.7" y="361.0" width="16.9" height="3.0" fill="#93c5fd" stroke="#60a5fa" stroke-width="0.5"/><rect x="194.7" y="362.6" width="16.9" height="1.4" fill="#93c5fd" stroke="#60a5fa" stroke-width="0.5"/><rect x="213.6" y="357.9" width="16.9" height="6.1" fill="#93c5fd" stroke="#60a5fa" stroke-width="0.5"/><rect x="232.6" y="360.4" width="16.9" height="3.6" fill="#93c5fd" stroke="#60a5fa" stroke-width="0.5"/><rect x="251.5" y="361.1" width="16.9" height="2.9" fill="#93c5fd" stroke="#60a5fa" stroke-width="0.5"/><rect x="270.5" y="360.7" width="16.9" height="3.3" fill="#93c5fd" stroke="#60a5fa" stroke-width="0.5"/><rect x="289.4" y="359.4" width="16.9" height="4.6" fill="#93c5fd" stroke="#60a5fa" stroke-width="0.5"/><rect x="308.4" y="359.7" width="16.9" height="4.3" fill="#93c5fd" stroke="#60a5fa" stroke-width="0.5"/><rect x="327.3" y="360.0" width="16.9" height="4.0" fill="#93c5fd" stroke="#60a5fa" stroke-width="0.5"/><rect x="346.3" y="358.9" width="16.9" height="5.1" fill="#93c5fd" stroke="#60a5fa" stroke-width="0.5"/><rect x="365.2" y="358.9" width="16.9" height="5.1" fill="#93c5fd" stroke="#60a5fa" stroke-width="0.5"/><rect x="384.2" y="359.7" width="16.9" height="4.3" fill="#93c5fd" stroke="#60a5fa" stroke-width="0.5"/><rect x="403.1" y="359.4" width="16.9" height="4.6" fill="#93c5fd" stroke="#60a5fa" stroke-width="0.5"/><rect x="422.1" y="359.3" width="16.9" height="4.7" fill="#93c5fd" stroke="#60a5fa" stroke-width="0.5"/><rect x="441.0" y="358.6" width="16.9" height="5.4" fill="#93c5fd" stroke="#60a5fa" stroke-width="0.5"/><rect x="460.0" y="358.7" width="16.9" height="5.3" fill="#93c5fd" stroke="#60a5fa" stroke-width="0.5"/><rect x="478.9" y="359.5" width="16.9" height="4.5" fill="#93c5fd" stroke="#60a5fa" stroke-width="0.5"/><rect x="497.9" y="358.2" width="16.9" height="5.8" fill="#93c5fd" stroke="#60a5fa" stroke-width="0.5"/><rect x="516.8" y="359.1" width="16.9" height="4.9" fill="#93c5fd" stroke="#60a5fa" stroke-width="0.5"/><rect x="535.8" y="359.1" width="16.9" height="4.9" fill="#93c5fd" stroke="#60a5fa" stroke-width="0.5"/><rect x="554.7" y="358.4" width="16.9" height="5.6" fill="#93c5fd" stroke="#60a5fa" stroke-width="0.5"/><rect x="573.7" y="358.0" width="16.9" height="6.0" fill="#93c5fd" stroke="#60a5fa" stroke-width="0.5"/><rect x="592.6" y="357.5" width="16.9" height="6.5" fill="#93c5fd" stroke="#60a5fa" stroke-width="0.5"/><rect x="611.6" y="359.8" width="16.9" height="4.2" fill="#93c5fd" stroke="#60a5fa" stroke-width="0.5"/><rect x="630.5" y="359.7" width="16.9" height="4.3" fill="#93c5fd" stroke="#60a5fa" stroke-width="0.5"/><rect x="649.5" y="358.9" width="16.9" height="5.1" fill="#93c5fd" stroke="#60a5fa" stroke-width="0.5"/><rect x="668.4" y="358.9" width="16.9" height="5.1" fill="#93c5fd" stroke="#60a5fa" stroke-width="0.5"/><rect x="687.4" y="359.5" width="16.9" height="4.5" fill="#93c5fd" stroke="#60a5fa" stroke-width="0.5"/><rect x="706.3" y="358.2" width="16.9" height="5.8" fill="#93c5fd" stroke="#60a5fa" stroke-width="0.5"/><rect x="725.3" y="358.3" width="16.9" height="5.7" fill="#93c5fd" stroke="#60a5fa" stroke-width="0.5"/><rect x="744.2" y="357.6" width="16.9" height="6.4" fill="#93c5fd" stroke="#60a5fa" stroke-width="0.5"/><rect x="763.2" y="357.8" width="16.9" height="6.2" fill="#93c5fd" stroke="#60a5fa" stroke-width="0.5"/><rect x="782.1" y="356.4" width="16.9" height="7.6" fill="#93c5fd" stroke="#60a5fa" stroke-width="0.5"/><rect x="801.1" y="359.3" width="16.9" height="4.7" fill="#93c5fd" stroke="#60a5fa" stroke-width="0.5"/><rect x="820.0" y="359.6" width="16.9" height="4.4" fill="#93c5fd" stroke="#60a5fa" stroke-width="0.5"/><rect x="839.0" y="357.1" width="16.9" height="6.9" fill="#93c5fd" stroke="#60a5fa" stroke-width="0.5"/><rect x="857.9" y="356.9" width="16.9" height="7.1" fill="#93c5fd" stroke="#60a5fa" stroke-width="0.5"/><rect x="876.9" y="358.8" width="16.9" height="5.2" fill="#93c5fd" stroke="#60a5fa" stroke-width="0.5"/><rect x="895.8" y="359.0" width="16.9" height="5.0" fill="#93c5fd" stroke="#60a5fa" stroke-width="0.5"/><rect x="914.8" y="360.1" width="16.9" height="3.9" fill="#93c5fd" stroke="#60a5fa" stroke-width="0.5"/><rect x="933.7" y="359.4" width="16.9" height="4.6" fill="#93c5fd" stroke="#60a5fa" stroke-width="0.5"/><rect x="952.7" y="359.5" width="16.9" height="4.5" fill="#93c5fd" stroke="#60a5fa" stroke-width="0.5"/><rect x="971.6" y="357.5" width="16.9" height="6.5" fill="#93c5fd" stroke="#60a5fa" stroke-width="0.5"/><rect x="990.6" y="358.0" width="16.9" height="6.0" fill="#93c5fd" stroke="#60a5fa" stroke-width="0.5"/><rect x="1009.5" y="359.0" width="16.9" height="5.0" fill="#93c5fd" stroke="#60a5fa" stroke-width="0.5"/><rect x="1028.5" y="359.5" width="16.9" height="4.5" fill="#93c5fd" stroke="#60a5fa" stroke-width="0.5"/><rect x="1047.4" y="358.7" width="16.9" height="5.3" fill="#93c5fd" stroke="#60a5fa" stroke-width="0.5"/><rect x="1066.4" y="358.8" width="16.9" height="5.2" fill="#93c5fd" stroke="#60a5fa" stroke-width="0.5"/><rect x="1085.3" y="358.7" width="16.9" height="5.3" fill="#93c5fd" stroke="#60a5fa" stroke-width="0.5"/><rect x="1104.3" y="357.0" width="16.9" height="7.0" fill="#93c5fd" stroke="#60a5fa" stroke-width="0.5"/><rect x="1123.2" y="357.3" width="16.9" height="6.7" fill="#93c5fd" stroke="#60a5fa" stroke-width="0.5"/><rect x="1142.2" y="360.1" width="16.9" height="3.9" fill="#93c5fd" stroke="#60a5fa" stroke-width="0.5"/><rect x="1161.1" y="358.3" width="16.9" height="5.7" fill="#93c5fd" stroke="#60a5fa" stroke-width="0.5"/><rect x="1180.1" y="333.3" width="16.9" height="30.7" fill="#93c5fd" stroke="#60a5fa" stroke-width="0.5"/><polyline fill="none" stroke="#ef4444" stroke-width="2" points="89.5,355.3 108.4,352.6 127.4,200.3 146.3,199.2 165.3,197.8 184.2,196.4 203.2,195.7 222.1,192.7 241.1,191.0 260.0,189.6 279.0,188.0 297.9,185.7 316.9,183.7 335.8,181.7 354.8,179.2 373.7,176.7 392.7,174.6 411.6,172.4 430.6,170.1 449.5,167.5 468.5,164.9 487.4,162.7 506.4,159.9 525.3,157.5 544.3,155.1 563.2,152.3 582.2,149.4 601.1,146.2 620.1,144.2 639.0,142.0 657.9,139.6 676.9,137.1 695.8,134.9 714.8,132.0 733.7,129.3 752.7,126.2 771.6,123.1 790.6,119.4 809.5,117.1 828.5,114.9 847.4,111.6 866.4,108.1 885.3,105.6 904.3,103.2 923.2,101.2 942.2,99.0 961.1,96.8 980.1,93.7 999.0,90.7 1018.0,88.3 1036.9,86.1 1055.9,83.5 1074.8,80.9 1093.8,78.4 1112.7,74.9 1131.7,71.7 1150.6,69.8 1169.6,67.0 1188.5,52.0"/><line x1="89.5" y1="364.0" x2="89.5" y2="370.0" stroke="#111827" stroke-width="1"/><text x="91.5" y="386.0" font-size="11" text-anchor="end" transform="rotate(-35 91.5 386.0)" font-family="sans-serif" fill="#374151">2026-02-28</text><line x1="241.1" y1="364.0" x2="241.1" y2="370.0" stroke="#111827" stroke-width="1"/><text x="243.1" y="386.0" font-size="11" text-anchor="end" transform="rotate(-35 243.1 386.0)" font-family="sans-serif" fill="#374151">2026-03-10</text><line x1="411.6" y1="364.0" x2="411.6" y2="370.0" stroke="#111827" stroke-width="1"/><text x="413.6" y="386.0" font-size="11" text-anchor="end" transform="rotate(-35 413.6 386.0)" font-family="sans-serif" fill="#374151">2026-03-19</text><line x1="563.2" y1="364.0" x2="563.2" y2="370.0" stroke="#111827" stroke-width="1"/><text x="565.2" y="386.0" font-size="11" text-anchor="end" transform="rotate(-35 565.2 386.0)" font-family="sans-serif" fill="#374151">2026-03-27</text><line x1="714.8" y1="364.0" x2="714.8" y2="370.0" stroke="#111827" stroke-width="1"/><text x="716.8" y="386.0" font-size="11" text-anchor="end" transform="rotate(-35 716.8 386.0)" font-family="sans-serif" fill="#374151">2026-04-04</text><line x1="866.4" y1="364.0" x2="866.4" y2="370.0" stroke="#111827" stroke-width="1"/><text x="868.4" y="386.0" font-size="11" text-anchor="end" transform="rotate(-35 868.4 386.0)" font-family="sans-serif" fill="#374151">2026-04-12</text><line x1="1036.9" y1="364.0" x2="1036.9" y2="370.0" stroke="#111827" stroke-width="1"/><text x="1038.9" y="386.0" font-size="11" text-anchor="end" transform="rotate(-35 1038.9 386.0)" font-family="sans-serif" fill="#374151">2026-04-21</text><line x1="1188.5" y1="364.0" x2="1188.5" y2="370.0" stroke="#111827" stroke-width="1"/><text x="1190.5" y="386.0" font-size="11" text-anchor="end" transform="rotate(-35 1190.5 386.0)" font-family="sans-serif" fill="#374151">2026-04-29</text><text x="26" y="208.0" font-size="12" transform="rotate(-90 26 208.0)" text-anchor="middle" font-family="sans-serif" fill="#1f2937">구간별 수</text><text x="1256.0" y="208.0" font-size="12" transform="rotate(90 1256.0 208.0)" text-anchor="middle" font-family="sans-serif" fill="#1f2937">누적</text><text x="639.0" y="442.0" font-size="13" text-anchor="middle" font-family="sans-serif" fill="#111827">일</text></svg>