<svg xmlns="http://www.w3.org/2000/svg" width="1280" height="460" viewBox="0 0 1280 460"><rect x="0" y="0" width="100%" height="100%" fill="#ffffff"/><text x="640.0" y="28" font-size="20" text-anchor="middle" font-family="sans-serif" fill="#111827">마켓 / 최근 반영 시점 / 일별</text><line x1="80.0" y1="52.0" x2="1198.0" y2="52.0" stroke="#e5e7eb" stroke-width="1"/><text x="72.0" y="56.0" font-size="11" text-anchor="end" font-family="sans-serif" fill="#374151">493,407</text><text x="1206.0" y="56.0" font-size="11" text-anchor="start" font-family="sans-serif" fill="#374151">764,318</text><line x1="80.0" y1="114.4" x2="1198.0" y2="114.4" stroke="#e5e7eb" stroke-width="1"/><text x="72.0" y="118.4" font-size="11" text-anchor="end" font-family="sans-serif" fill="#374151">394,726</text><text x="1206.0" y="118.4" font-size="11" text-anchor="start" font-family="sans-serif" fill="#374151">611,454</text><line x1="80.0" y1="176.8" x2="1198.0" y2="176.8" stroke="#e5e7eb" stroke-width="1"/><text x="72.0" y="180.8" font-size="11" text-anchor="end" font-family="sans-serif" fill="#374151">296,044</text><text x="1206.0" y="180.8" font-size="11" text-anchor="start" font-family="sans-serif" fill="#374151">458,591</text><line x1="80.0" y1="239.2" x2="1198.0" y2="239.2" stroke="#e5e7eb" stroke-width="1"/><text x="72.0" y="243.2" font-size="11" text-anchor="end" font-family="sans-serif" fill="#374151">197,363</text><text x="1206.0" y="243.2" font-size="11" text-anchor="start" font-family="sans-serif" fill="#374151">305,727</text><line x1="80.0" y1="301.6" x2="1198.0" y2="301.6" stroke="#e5e7eb" stroke-width="1"/><text x="72.0" y="305.6" font-size="11" text-anchor="end" font-family="sans-serif" fill="#374151">98,681</text><text x="1206.0" y="305.6" font-size="11" text-anchor="start" font-family="sans-serif" fill="#374151">152,864</text><line x1="80.0" y1="364.0" x2="1198.0" y2="364.0" stroke="#e5e7eb" stroke-width="1"/><text x="72.0" y="368.0" font-size="11" text-anchor="end" font-family="sans-serif" fill="#374151">0</text><text x="1206.0" y="368.0" font-size="11" text-anchor="start" font-family="sans-serif" fill="#374151">0</text><line x1="80.0" y1="364.0" x2="1198.0" y2="364.0" stroke="#111827" stroke-width="1.2"/><line x1="80.0" y1="52.0" x2="80.0" y2="364.0" stroke="#111827" stroke-width="1.2"/><line x1="1198.0" y1="52.0" x2="1198.0" y2="364.0" stroke="#111827" stroke-width="1.2"/><rect x="81.0" y="346.0" width="36.6" height="18.0" fill="#93c5fd" stroke="#60a5fa" stroke-width="0.5"/><rect x="119.6" y="358.6" width="36.6" height="5.4" fill="#93c5fd" stroke="#60a5fa" stroke-width="0.5"/><rect x="158.1" y="52.0" width="36.6" height="312.0" fill="#93c5fd" stroke="#60a5fa" stroke-width="0.5"/><rect x="196.7" y="361.7" width="36.6" height="2.3" fill="#93c5fd" stroke="#60a5fa" stroke-width="0.5"/><rect x="235.2" y="361.2" width="36.6" height="2.8" fill="#93c5fd" stroke="#60a5fa" stroke-width="0.5"/><rect x="273.8" y="361.0" width="36.6" height="3.0" fill="#93c5fd" stroke="#60a5fa" stroke-width="0.5"/><rect x="312.3" y="362.6" width="36.6" height="1.4" fill="#93c5fd" stroke="#60a5fa" stroke-width="0.5"/><rect x="350.9" y="357.9" width="36.6" height="6.1" fill="#93c5fd" stroke="#60a5fa" stroke-width="0.5"/><rect x="389.4" y="360.4" width="36.6" height="3.6" fill="#93c5fd" stroke="#60a5fa" stroke-width="0.5"/><rect x="428.0" y="361.1" width="36.6" height="2.9" fill="#93c5fd" stroke="#60a5fa" stroke-width="0.5"/><rect x="466.5" y="360.7" width="36.6" height="3.3" fill="#93c5fd" stroke="#60a5fa" stroke-width="0.5"/><rect x="505.1" y="359.4" width="36.6" height="4.6" fill="#93c5fd" stroke="#60a5fa" stroke-width="0.5"/><rect x="543.6" y="359.7" width="36.6" height="4.3" fill="#93c5fd" stroke="#60a5fa" stroke-width="0.5"/><rect x="582.2" y="360.0" width="36.6" height="4.0" fill="#93c5fd" stroke="#60a5fa" stroke-width="0.5"/><rect x="620.7" y="358.9" width="36.6" height="5.1" fill="#93c5fd" stroke="#60a5fa" stroke-width="0.5"/><rect x="659.3" y="358.9" width="36.6" height="5.1" fill="#93c5fd" stroke="#60a5fa" stroke-width="0.5"/><rect x="697.8" y="359.7" width="36.6" height="4.3" fill="#93c5fd" stroke="#60a5fa" stroke-width="0.5"/><rect x="736.4" y="359.4" width="36.6" height="4.6" fill="#93c5fd" stroke="#60a5fa" stroke-width="0.5"/><rect x="774.9" y="359.3" width="36.6" height="4.7" fill="#93c5fd" stroke="#60a5fa" stroke-width="0.5"/><rect x="813.5" y="358.6" width="36.6" height="5.4" fill="#93c5fd" stroke="#60a5fa" stroke-width="0.5"/><rect x="852.0" y="358.7" width="36.6" height="5.3" fill="#93c5fd" stroke="#60a5fa" stroke-width="0.5"/><rect x="890.6" y="359.5" width="36.6" height="4.5" fill="#93c5fd" stroke="#60a5fa" stroke-width="0.5"/><rect x="929.1" y="358.2" width="36.6" height="5.8" fill="#93c5fd" stroke="#60a5fa" stroke-width="0.5"/><rect x="967.7" y="359.1" width="36.6" height="4.9" fill="#93c5fd" stroke="#60a5fa" stroke-width="0.5"/><rect x="1006.2" y="359.1" width="36.6" height="4.9" fill="#93c5fd" stroke="#60a5fa" stroke-width="0.5"/><rect x="1044.8" y="358.4" width="36.6" height="5.6" fill="#93c5fd" stroke="#60a5fa" stroke-width="0.5"/><rect x="1083.3" y="358.0" width="36.6" height="6.0" fill="#93c5fd" stroke="#60a5fa" stroke-width="0.5"/><rect x="1121.9" y="357.3" width="36.6" height="6.7" fill="#93c5fd" stroke="#60a5fa" stroke-width="0.5"/><rect x="1160.4" y="327.1" width="36.6" height="36.9" fill="#93c5fd" stroke="#60a5fa" stroke-width="0.5"/><polyline fill="none" stroke="#ef4444" stroke-width="2" points="99.3,352.4 137.8,348.9 176.4,147.5 214.9,146.0 253.5,144.2 292.0,142.3 330.6,141.4 369.1,137.4 407.7,135.1 446.2,133.3 484.8,131.1 523.3,128.2 561.9,125.4 600.4,122.8 639.0,119.6 677.6,116.3 716.1,113.5 754.7,110.6 793.2,107.5 831.8,104.0 870.3,100.6 908.9,97.7 947.4,94.0 986.0,90.8 1024.5,87.6 1063.1,84.0 1101.6,80.1 1140.2,75.8 1178.7,52.0"/><line x1="99.3" y1="364.0" x2="99.3" y2="370.0" stroke="#111827" stroke-width="1"/><text x="101.3" y="386.0" font-size="11" text-anchor="end" transform="rotate(-35 101.3 386.0)" font-family="sans-serif" fill="#374151">2026-02-28</text><line x1="253.5" y1="364.0" x2="253.5" y2="370.0" stroke="#111827" stroke-width="1"/><text x="255.5" y="386.0" font-size="11" text-anchor="end" transform="rotate(-35 255.5 386.0)" font-family="sans-serif" fill="#374151">2026-03-04</text><line x1="407.7" y1="364.0" x2="407.7" y2="370.0" stroke="#111827" stroke-width="1"/><text x="409.7" y="386.0" font-size="11" text-anchor="end" transform="rotate(-35 409.7 386.0)" font-family="sans-serif" fill="#374151">2026-03-10</text><line x1="561.9" y1="364.0" x2="561.9" y2="370.0" stroke="#111827" stroke-width="1"/><text x="563.9" y="386.0" font-size="11" text-anchor="end" transform="rotate(-35 563.9 386.0)" font-family="sans-serif" fill="#374151">2026-03-14</text><line x1="716.1" y1="364.0" x2="716.1" y2="370.0" stroke="#111827" stroke-width="1"/><text x="718.1" y="386.0" font-size="11" text-anchor="end" transform="rotate(-35 718.1 386.0)" font-family="sans-serif" fill="#374151">2026-03-18</text><line x1="870.3" y1="364.0" x2="870.3" y2="370.0" stroke="#111827" stroke-width="1"/><text x="872.3" y="386.0" font-size="11" text-anchor="end" transform="rotate(-35 872.3 386.0)" font-family="sans-serif" fill="#374151">2026-03-22</text><line x1="1024.5" y1="364.0" x2="1024.5" y2="370.0" stroke="#111827" stroke-width="1"/><text x="1026.5" y="386.0" font-size="11" text-anchor="end" transform="rotate(-35 1026.5 386.0)" font-family="sans-serif" fill="#374151">2026-03-26</text><line x1="1178.7" y1="364.0" x2="1178.7" y2="370.0" stroke="#111827" stroke-width="1"/><text x="1180.7" y="386.0" font-size="11" text-anchor="end" transform="rotate(-35 1180.7 386.0)" font-family="sans-serif" fill="#374151">2026-03-30</text><text x="26" y="208.0" font-size="12" transform="rotate(-90 26 208.0)" text-anchor="middle" font-family="sans-serif" fill="#1f2937">구간별 수</text><text x="1256.0" y="208.0" font-size="12" transform="rotate(90 1256.0 208.0)" text-anchor="middle" font-family="sans-serif" fill="#1f2937">누적</text><text x="639.0" y="442.0" font-size="13" text-anchor="middle" font-family="sans-serif" fill="#111827">일</text></svg>