<svg xmlns="http://www.w3.org/2000/svg" width="1280" height="460" viewBox="0 0 1280 460"><rect x="0" y="0" width="100%" height="100%" fill="#ffffff"/><text x="640.0" y="28" font-size="20" text-anchor="middle" font-family="sans-serif" fill="#111827">마켓 / 생성 시점 / 월별</text><line x1="80.0" y1="52.0" x2="1198.0" y2="52.0" stroke="#e5e7eb" stroke-width="1"/><text x="72.0" y="56.0" font-size="11" text-anchor="end" font-family="sans-serif" fill="#374151">201,000</text><text x="1206.0" y="56.0" font-size="11" text-anchor="start" font-family="sans-serif" fill="#374151">757,465</text><line x1="80.0" y1="114.4" x2="1198.0" y2="114.4" stroke="#e5e7eb" stroke-width="1"/><text x="72.0" y="118.4" font-size="11" text-anchor="end" font-family="sans-serif" fill="#374151">160,800</text><text x="1206.0" y="118.4" font-size="11" text-anchor="start" font-family="sans-serif" fill="#374151">605,972</text><line x1="80.0" y1="176.8" x2="1198.0" y2="176.8" stroke="#e5e7eb" stroke-width="1"/><text x="72.0" y="180.8" font-size="11" text-anchor="end" font-family="sans-serif" fill="#374151">120,600</text><text x="1206.0" y="180.8" font-size="11" text-anchor="start" font-family="sans-serif" fill="#374151">454,479</text><line x1="80.0" y1="239.2" x2="1198.0" y2="239.2" stroke="#e5e7eb" stroke-width="1"/><text x="72.0" y="243.2" font-size="11" text-anchor="end" font-family="sans-serif" fill="#374151">80,400</text><text x="1206.0" y="243.2" font-size="11" text-anchor="start" font-family="sans-serif" fill="#374151">302,986</text><line x1="80.0" y1="301.6" x2="1198.0" y2="301.6" stroke="#e5e7eb" stroke-width="1"/><text x="72.0" y="305.6" font-size="11" text-anchor="end" font-family="sans-serif" fill="#374151">40,200</text><text x="1206.0" y="305.6" font-size="11" text-anchor="start" font-family="sans-serif" fill="#374151">151,493</text><line x1="80.0" y1="364.0" x2="1198.0" y2="364.0" stroke="#e5e7eb" stroke-width="1"/><text x="72.0" y="368.0" font-size="11" text-anchor="end" font-family="sans-serif" fill="#374151">0</text><text x="1206.0" y="368.0" font-size="11" text-anchor="start" font-family="sans-serif" fill="#374151">0</text><line x1="80.0" y1="364.0" x2="1198.0" y2="364.0" stroke="#111827" stroke-width="1.2"/><line x1="80.0" y1="52.0" x2="80.0" y2="364.0" stroke="#111827" stroke-width="1.2"/><line x1="1198.0" y1="52.0" x2="1198.0" y2="364.0" stroke="#111827" stroke-width="1.2"/><rect x="81.0" y="364.0" width="14.9" height="0.0" fill="#93c5fd" stroke="#60a5fa" stroke-width="0.5"/><rect x="97.9" y="364.0" width="14.9" height="0.0" fill="#93c5fd" stroke="#60a5fa" stroke-width="0.5"/><rect x="114.9" y="364.0" width="14.9" height="0.0" fill="#93c5fd" stroke="#60a5fa" stroke-width="0.5"/><rect x="131.8" y="363.9" width="14.9" height="0.1" fill="#93c5fd" stroke="#60a5fa" stroke-width="0.5"/><rect x="148.8" y="363.9" width="14.9" height="0.1" fill="#93c5fd" stroke="#60a5fa" stroke-width="0.5"/><rect x="165.7" y="363.9" width="14.9" height="0.1" fill="#93c5fd" stroke="#60a5fa" stroke-width="0.5"/><rect x="182.6" y="363.9" width="14.9" height="0.1" fill="#93c5fd" stroke="#60a5fa" stroke-width="0.5"/><rect x="199.6" y="363.8" width="14.9" height="0.2" fill="#93c5fd" stroke="#60a5fa" stroke-width="0.5"/><rect x="216.5" y="363.7" width="14.9" height="0.3" fill="#93c5fd" stroke="#60a5fa" stroke-width="0.5"/><rect x="233.5" y="363.8" width="14.9" height="0.2" fill="#93c5fd" stroke="#60a5fa" stroke-width="0.5"/><rect x="250.4" y="363.8" width="14.9" height="0.2" fill="#93c5fd" stroke="#60a5fa" stroke-width="0.5"/><rect x="267.3" y="363.9" width="14.9" height="0.1" fill="#93c5fd" stroke="#60a5fa" stroke-width="0.5"/><rect x="284.3" y="363.7" width="14.9" height="0.3" fill="#93c5fd" stroke="#60a5fa" stroke-width="0.5"/><rect x="301.2" y="363.4" width="14.9" height="0.6" fill="#93c5fd" stroke="#60a5fa" stroke-width="0.5"/><rect x="318.2" y="363.5" width="14.9" height="0.5" fill="#93c5fd" stroke="#60a5fa" stroke-width="0.5"/><rect x="335.1" y="363.0" width="14.9" height="1.0" fill="#93c5fd" stroke="#60a5fa" stroke-width="0.5"/><rect x="352.0" y="363.5" width="14.9" height="0.5" fill="#93c5fd" stroke="#60a5fa" stroke-width="0.5"/><rect x="369.0" y="363.2" width="14.9" height="0.8" fill="#93c5fd" stroke="#60a5fa" stroke-width="0.5"/><rect x="385.9" y="363.3" width="14.9" height="0.7" fill="#93c5fd" stroke="#60a5fa" stroke-width="0.5"/><rect x="402.8" y="363.6" width="14.9" height="0.4" fill="#93c5fd" stroke="#60a5fa" stroke-width="0.5"/><rect x="419.8" y="363.8" width="14.9" height="0.2" fill="#93c5fd" stroke="#60a5fa" stroke-width="0.5"/><rect x="436.7" y="359.5" width="14.9" height="4.5" fill="#93c5fd" stroke="#60a5fa" stroke-width="0.5"/><rect x="453.7" y="363.7" width="14.9" height="0.3" fill="#93c5fd" stroke="#60a5fa" stroke-width="0.5"/><rect x="470.6" y="363.7" width="14.9" height="0.3" fill="#93c5fd" stroke="#60a5fa" stroke-width="0.5"/><rect x="487.5" y="363.7" width="14.9" height="0.3" fill="#93c5fd" stroke="#60a5fa" stroke-width="0.5"/><rect x="504.5" y="363.7" width="14.9" height="0.3" fill="#93c5fd" stroke="#60a5fa" stroke-width="0.5"/><rect x="521.4" y="363.8" width="14.9" height="0.2" fill="#93c5fd" stroke="#60a5fa" stroke-width="0.5"/><rect x="538.4" y="363.8" width="14.9" height="0.2" fill="#93c5fd" stroke="#60a5fa" stroke-width="0.5"/><rect x="555.3" y="363.4" width="14.9" height="0.6" fill="#93c5fd" stroke="#60a5fa" stroke-width="0.5"/><rect x="572.2" y="362.6" width="14.9" height="1.4" fill="#93c5fd" stroke="#60a5fa" stroke-width="0.5"/><rect x="589.2" y="362.8" width="14.9" height="1.2" fill="#93c5fd" stroke="#60a5fa" stroke-width="0.5"/><rect x="606.1" y="363.0" width="14.9" height="1.0" fill="#93c5fd" stroke="#60a5fa" stroke-width="0.5"/><rect x="623.1" y="363.7" width="14.9" height="0.3" fill="#93c5fd" stroke="#60a5fa" stroke-width="0.5"/><rect x="640.0" y="363.8" width="14.9" height="0.2" fill="#93c5fd" stroke="#60a5fa" stroke-width="0.5"/><rect x="656.9" y="363.6" width="14.9" height="0.4" fill="#93c5fd" stroke="#60a5fa" stroke-width="0.5"/><rect x="673.9" y="363.5" width="14.9" height="0.5" fill="#93c5fd" stroke="#60a5fa" stroke-width="0.5"/><rect x="690.8" y="363.4" width="14.9" height="0.6" fill="#93c5fd" stroke="#60a5fa" stroke-width="0.5"/><rect x="707.8" y="363.4" width="14.9" height="0.6" fill="#93c5fd" stroke="#60a5fa" stroke-width="0.5"/><rect x="724.7" y="363.4" width="14.9" height="0.6" fill="#93c5fd" stroke="#60a5fa" stroke-width="0.5"/><rect x="741.6" y="363.1" width="14.9" height="0.9" fill="#93c5fd" stroke="#60a5fa" stroke-width="0.5"/><rect x="758.6" y="363.0" width="14.9" height="1.0" fill="#93c5fd" stroke="#60a5fa" stroke-width="0.5"/><rect x="775.5" y="362.6" width="14.9" height="1.4" fill="#93c5fd" stroke="#60a5fa" stroke-width="0.5"/><rect x="792.5" y="362.7" width="14.9" height="1.3" fill="#93c5fd" stroke="#60a5fa" stroke-width="0.5"/><rect x="809.4" y="362.6" width="14.9" height="1.4" fill="#93c5fd" stroke="#60a5fa" stroke-width="0.5"/><rect x="826.3" y="362.0" width="14.9" height="2.0" fill="#93c5fd" stroke="#60a5fa" stroke-width="0.5"/><rect x="843.3" y="361.5" width="14.9" height="2.5" fill="#93c5fd" stroke="#60a5fa" stroke-width="0.5"/><rect x="860.2" y="360.7" width="14.9" height="3.3" fill="#93c5fd" stroke="#60a5fa" stroke-width="0.5"/><rect x="877.2" y="359.8" width="14.9" height="4.2" fill="#93c5fd" stroke="#60a5fa" stroke-width="0.5"/><rect x="894.1" y="358.2" width="14.9" height="5.8" fill="#93c5fd" stroke="#60a5fa" stroke-width="0.5"/><rect x="911.0" y="358.7" width="14.9" height="5.3" fill="#93c5fd" stroke="#60a5fa" stroke-width="0.5"/><rect x="928.0" y="358.1" width="14.9" height="5.9" fill="#93c5fd" stroke="#60a5fa" stroke-width="0.5"/><rect x="944.9" y="357.5" width="14.9" height="6.5" fill="#93c5fd" stroke="#60a5fa" stroke-width="0.5"/><rect x="961.8" y="356.4" width="14.9" height="7.6" fill="#93c5fd" stroke="#60a5fa" stroke-width="0.5"/><rect x="978.8" y="353.8" width="14.9" height="10.2" fill="#93c5fd" stroke="#60a5fa" stroke-width="0.5"/><rect x="995.7" y="352.1" width="14.9" height="11.9" fill="#93c5fd" stroke="#60a5fa" stroke-width="0.5"/><rect x="1012.7" y="352.2" width="14.9" height="11.8" fill="#93c5fd" stroke="#60a5fa" stroke-width="0.5"/><rect x="1029.6" y="350.0" width="14.9" height="14.0" fill="#93c5fd" stroke="#60a5fa" stroke-width="0.5"/><rect x="1046.5" y="346.3" width="14.9" height="17.7" fill="#93c5fd" stroke="#60a5fa" stroke-width="0.5"/><rect x="1063.5" y="344.4" width="14.9" height="19.6" fill="#93c5fd" stroke="#60a5fa" stroke-width="0.5"/><rect x="1080.4" y="311.8" width="14.9" height="52.2" fill="#93c5fd" stroke="#60a5fa" stroke-width="0.5"/><rect x="1097.4" y="304.8" width="14.9" height="59.2" fill="#93c5fd" stroke="#60a5fa" stroke-width="0.5"/><rect x="1114.3" y="286.4" width="14.9" height="77.6" fill="#93c5fd" stroke="#60a5fa" stroke-width="0.5"/><rect x="1131.2" y="240.2" width="14.9" height="123.8" fill="#93c5fd" stroke="#60a5fa" stroke-width="0.5"/><rect x="1148.2" y="159.3" width="14.9" height="204.7" fill="#93c5fd" stroke="#60a5fa" stroke-width="0.5"/><rect x="1165.1" y="172.1" width="14.9" height="191.9" fill="#93c5fd" stroke="#60a5fa" stroke-width="0.5"/><rect x="1182.1" y="52.0" width="14.9" height="312.0" fill="#93c5fd" stroke="#60a5fa" stroke-width="0.5"/><polyline fill="none" stroke="#ef4444" stroke-width="2" points="88.5,364.0 105.4,364.0 122.3,364.0 139.3,364.0 156.2,363.9 173.2,363.9 190.1,363.9 207.0,363.8 224.0,363.7 240.9,363.7 257.9,363.6 274.8,363.6 291.7,363.5 308.7,363.4 325.6,363.2 342.6,363.0 359.5,362.8 376.4,362.6 393.4,362.4 410.3,362.3 427.3,362.3 444.2,361.1 461.1,361.0 478.1,360.9 495.0,360.8 512.0,360.8 528.9,360.7 545.8,360.7 562.8,360.5 579.7,360.1 596.7,359.8 613.6,359.5 630.5,359.5 647.5,359.4 664.4,359.3 681.3,359.2 698.3,359.0 715.2,358.9 732.2,358.7 749.1,358.5 766.0,358.2 783.0,357.8 799.9,357.5 816.9,357.1 833.8,356.6 850.7,355.9 867.7,355.1 884.6,353.9 901.6,352.4 918.5,351.0 935.4,349.4 952.4,347.7 969.3,345.7 986.3,343.0 1003.2,339.8 1020.1,336.7 1037.1,333.0 1054.0,328.3 1071.0,323.1 1087.9,309.2 1104.8,293.5 1121.8,272.9 1138.7,240.0 1155.7,185.7 1172.6,134.8 1189.5,52.0"/><line x1="88.5" y1="364.0" x2="88.5" y2="370.0" stroke="#111827" stroke-width="1"/><text x="90.5" y="386.0" font-size="11" text-anchor="end" transform="rotate(-35 90.5 386.0)" font-family="sans-serif" fill="#374151">2020-10</text><line x1="240.9" y1="364.0" x2="240.9" y2="370.0" stroke="#111827" stroke-width="1"/><text x="242.9" y="386.0" font-size="11" text-anchor="end" transform="rotate(-35 242.9 386.0)" font-family="sans-serif" fill="#374151">2021-07</text><line x1="410.3" y1="364.0" x2="410.3" y2="370.0" stroke="#111827" stroke-width="1"/><text x="412.3" y="386.0" font-size="11" text-anchor="end" transform="rotate(-35 412.3 386.0)" font-family="sans-serif" fill="#374151">2022-05</text><line x1="562.8" y1="364.0" x2="562.8" y2="370.0" stroke="#111827" stroke-width="1"/><text x="564.8" y="386.0" font-size="11" text-anchor="end" transform="rotate(-35 564.8 386.0)" font-family="sans-serif" fill="#374151">2023-02</text><line x1="715.2" y1="364.0" x2="715.2" y2="370.0" stroke="#111827" stroke-width="1"/><text x="717.2" y="386.0" font-size="11" text-anchor="end" transform="rotate(-35 717.2 386.0)" font-family="sans-serif" fill="#374151">2023-11</text><line x1="867.7" y1="364.0" x2="867.7" y2="370.0" stroke="#111827" stroke-width="1"/><text x="869.7" y="386.0" font-size="11" text-anchor="end" transform="rotate(-35 869.7 386.0)" font-family="sans-serif" fill="#374151">2024-08</text><line x1="1037.1" y1="364.0" x2="1037.1" y2="370.0" stroke="#111827" stroke-width="1"/><text x="1039.1" y="386.0" font-size="11" text-anchor="end" transform="rotate(-35 1039.1 386.0)" font-family="sans-serif" fill="#374151">2025-06</text><line x1="1189.5" y1="364.0" x2="1189.5" y2="370.0" stroke="#111827" stroke-width="1"/><text x="1191.5" y="386.0" font-size="11" text-anchor="end" transform="rotate(-35 1191.5 386.0)" font-family="sans-serif" fill="#374151">2026-03</text><text x="26" y="208.0" font-size="12" transform="rotate(-90 26 208.0)" text-anchor="middle" font-family="sans-serif" fill="#1f2937">구간별 수</text><text x="1256.0" y="208.0" font-size="12" transform="rotate(90 1256.0 208.0)" text-anchor="middle" font-family="sans-serif" fill="#1f2937">누적</text><text x="639.0" y="442.0" font-size="13" text-anchor="middle" font-family="sans-serif" fill="#111827">월</text></svg>