<svg xmlns="http://www.w3.org/2000/svg" width="1280" height="460" viewBox="0 0 1280 460"><rect x="0" y="0" width="100%" height="100%" fill="#ffffff"/><text x="640.0" y="28" font-size="20" text-anchor="middle" font-family="sans-serif" fill="#111827">마켓 / 생성 시점 / 월별</text><line x1="80.0" y1="52.0" x2="1198.0" y2="52.0" stroke="#e5e7eb" stroke-width="1"/><text x="72.0" y="56.0" font-size="11" text-anchor="end" font-family="sans-serif" fill="#374151">250,437</text><text x="1206.0" y="56.0" font-size="11" text-anchor="start" font-family="sans-serif" fill="#374151">1,025,800</text><line x1="80.0" y1="114.4" x2="1198.0" y2="114.4" stroke="#e5e7eb" stroke-width="1"/><text x="72.0" y="118.4" font-size="11" text-anchor="end" font-family="sans-serif" fill="#374151">200,350</text><text x="1206.0" y="118.4" font-size="11" text-anchor="start" font-family="sans-serif" fill="#374151">820,640</text><line x1="80.0" y1="176.8" x2="1198.0" y2="176.8" stroke="#e5e7eb" stroke-width="1"/><text x="72.0" y="180.8" font-size="11" text-anchor="end" font-family="sans-serif" fill="#374151">150,262</text><text x="1206.0" y="180.8" font-size="11" text-anchor="start" font-family="sans-serif" fill="#374151">615,480</text><line x1="80.0" y1="239.2" x2="1198.0" y2="239.2" stroke="#e5e7eb" stroke-width="1"/><text x="72.0" y="243.2" font-size="11" text-anchor="end" font-family="sans-serif" fill="#374151">100,175</text><text x="1206.0" y="243.2" font-size="11" text-anchor="start" font-family="sans-serif" fill="#374151">410,320</text><line x1="80.0" y1="301.6" x2="1198.0" y2="301.6" stroke="#e5e7eb" stroke-width="1"/><text x="72.0" y="305.6" font-size="11" text-anchor="end" font-family="sans-serif" fill="#374151">50,087</text><text x="1206.0" y="305.6" font-size="11" text-anchor="start" font-family="sans-serif" fill="#374151">205,160</text><line x1="80.0" y1="364.0" x2="1198.0" y2="364.0" stroke="#e5e7eb" stroke-width="1"/><text x="72.0" y="368.0" font-size="11" text-anchor="end" font-family="sans-serif" fill="#374151">0</text><text x="1206.0" y="368.0" font-size="11" text-anchor="start" font-family="sans-serif" fill="#374151">0</text><line x1="80.0" y1="364.0" x2="1198.0" y2="364.0" stroke="#111827" stroke-width="1.2"/><line x1="80.0" y1="52.0" x2="80.0" y2="364.0" stroke="#111827" stroke-width="1.2"/><line x1="1198.0" y1="52.0" x2="1198.0" y2="364.0" stroke="#111827" stroke-width="1.2"/><rect x="81.0" y="364.0" width="14.4" height="0.0" fill="#93c5fd" stroke="#60a5fa" stroke-width="0.5"/><rect x="97.4" y="364.0" width="14.4" height="0.0" fill="#93c5fd" stroke="#60a5fa" stroke-width="0.5"/><rect x="113.9" y="364.0" width="14.4" height="0.0" fill="#93c5fd" stroke="#60a5fa" stroke-width="0.5"/><rect x="130.3" y="364.0" width="14.4" height="0.0" fill="#93c5fd" stroke="#60a5fa" stroke-width="0.5"/><rect x="146.8" y="363.9" width="14.4" height="0.1" fill="#93c5fd" stroke="#60a5fa" stroke-width="0.5"/><rect x="163.2" y="363.9" width="14.4" height="0.1" fill="#93c5fd" stroke="#60a5fa" stroke-width="0.5"/><rect x="179.6" y="363.9" width="14.4" height="0.1" fill="#93c5fd" stroke="#60a5fa" stroke-width="0.5"/><rect x="196.1" y="363.8" width="14.4" height="0.2" fill="#93c5fd" stroke="#60a5fa" stroke-width="0.5"/><rect x="212.5" y="363.7" width="14.4" height="0.3" fill="#93c5fd" stroke="#60a5fa" stroke-width="0.5"/><rect x="229.0" y="363.9" width="14.4" height="0.1" fill="#93c5fd" stroke="#60a5fa" stroke-width="0.5"/><rect x="245.4" y="363.9" width="14.4" height="0.1" fill="#93c5fd" stroke="#60a5fa" stroke-width="0.5"/><rect x="261.9" y="363.9" width="14.4" height="0.1" fill="#93c5fd" stroke="#60a5fa" stroke-width="0.5"/><rect x="278.3" y="363.8" width="14.4" height="0.2" fill="#93c5fd" stroke="#60a5fa" stroke-width="0.5"/><rect x="294.7" y="363.5" width="14.4" height="0.5" fill="#93c5fd" stroke="#60a5fa" stroke-width="0.5"/><rect x="311.2" y="363.6" width="14.4" height="0.4" fill="#93c5fd" stroke="#60a5fa" stroke-width="0.5"/><rect x="327.6" y="363.2" width="14.4" height="0.8" fill="#93c5fd" stroke="#60a5fa" stroke-width="0.5"/><rect x="344.1" y="363.6" width="14.4" height="0.4" fill="#93c5fd" stroke="#60a5fa" stroke-width="0.5"/><rect x="360.5" y="363.4" width="14.4" height="0.6" fill="#93c5fd" stroke="#60a5fa" stroke-width="0.5"/><rect x="376.9" y="363.5" width="14.4" height="0.5" fill="#93c5fd" stroke="#60a5fa" stroke-width="0.5"/><rect x="393.4" y="363.7" width="14.4" height="0.3" fill="#93c5fd" stroke="#60a5fa" stroke-width="0.5"/><rect x="409.8" y="363.9" width="14.4" height="0.1" fill="#93c5fd" stroke="#60a5fa" stroke-width="0.5"/><rect x="426.3" y="360.4" width="14.4" height="3.6" fill="#93c5fd" stroke="#60a5fa" stroke-width="0.5"/><rect x="442.7" y="363.7" width="14.4" height="0.3" fill="#93c5fd" stroke="#60a5fa" stroke-width="0.5"/><rect x="459.1" y="363.8" width="14.4" height="0.2" fill="#93c5fd" stroke="#60a5fa" stroke-width="0.5"/><rect x="475.6" y="363.8" width="14.4" height="0.2" fill="#93c5fd" stroke="#60a5fa" stroke-width="0.5"/><rect x="492.0" y="363.7" width="14.4" height="0.3" fill="#93c5fd" stroke="#60a5fa" stroke-width="0.5"/><rect x="508.5" y="363.9" width="14.4" height="0.1" fill="#93c5fd" stroke="#60a5fa" stroke-width="0.5"/><rect x="524.9" y="363.8" width="14.4" height="0.2" fill="#93c5fd" stroke="#60a5fa" stroke-width="0.5"/><rect x="541.4" y="363.5" width="14.4" height="0.5" fill="#93c5fd" stroke="#60a5fa" stroke-width="0.5"/><rect x="557.8" y="362.9" width="14.4" height="1.1" fill="#93c5fd" stroke="#60a5fa" stroke-width="0.5"/><rect x="574.2" y="363.0" width="14.4" height="1.0" fill="#93c5fd" stroke="#60a5fa" stroke-width="0.5"/><rect x="590.7" y="363.2" width="14.4" height="0.8" fill="#93c5fd" stroke="#60a5fa" stroke-width="0.5"/><rect x="607.1" y="363.8" width="14.4" height="0.2" fill="#93c5fd" stroke="#60a5fa" stroke-width="0.5"/><rect x="623.6" y="363.8" width="14.4" height="0.2" fill="#93c5fd" stroke="#60a5fa" stroke-width="0.5"/><rect x="640.0" y="363.7" width="14.4" height="0.3" fill="#93c5fd" stroke="#60a5fa" stroke-width="0.5"/><rect x="656.4" y="363.6" width="14.4" height="0.4" fill="#93c5fd" stroke="#60a5fa" stroke-width="0.5"/><rect x="672.9" y="363.5" width="14.4" height="0.5" fill="#93c5fd" stroke="#60a5fa" stroke-width="0.5"/><rect x="689.3" y="363.5" width="14.4" height="0.5" fill="#93c5fd" stroke="#60a5fa" stroke-width="0.5"/><rect x="705.8" y="363.5" width="14.4" height="0.5" fill="#93c5fd" stroke="#60a5fa" stroke-width="0.5"/><rect x="722.2" y="363.3" width="14.4" height="0.7" fill="#93c5fd" stroke="#60a5fa" stroke-width="0.5"/><rect x="738.6" y="363.2" width="14.4" height="0.8" fill="#93c5fd" stroke="#60a5fa" stroke-width="0.5"/><rect x="755.1" y="362.9" width="14.4" height="1.1" fill="#93c5fd" stroke="#60a5fa" stroke-width="0.5"/><rect x="771.5" y="362.9" width="14.4" height="1.1" fill="#93c5fd" stroke="#60a5fa" stroke-width="0.5"/><rect x="788.0" y="362.8" width="14.4" height="1.2" fill="#93c5fd" stroke="#60a5fa" stroke-width="0.5"/><rect x="804.4" y="362.4" width="14.4" height="1.6" fill="#93c5fd" stroke="#60a5fa" stroke-width="0.5"/><rect x="820.9" y="362.0" width="14.4" height="2.0" fill="#93c5fd" stroke="#60a5fa" stroke-width="0.5"/><rect x="837.3" y="361.4" width="14.4" height="2.6" fill="#93c5fd" stroke="#60a5fa" stroke-width="0.5"/><rect x="853.7" y="360.7" width="14.4" height="3.3" fill="#93c5fd" stroke="#60a5fa" stroke-width="0.5"/><rect x="870.2" y="359.3" width="14.4" height="4.7" fill="#93c5fd" stroke="#60a5fa" stroke-width="0.5"/><rect x="886.6" y="359.8" width="14.4" height="4.2" fill="#93c5fd" stroke="#60a5fa" stroke-width="0.5"/><rect x="903.1" y="359.3" width="14.4" height="4.7" fill="#93c5fd" stroke="#60a5fa" stroke-width="0.5"/><rect x="919.5" y="358.8" width="14.4" height="5.2" fill="#93c5fd" stroke="#60a5fa" stroke-width="0.5"/><rect x="935.9" y="357.9" width="14.4" height="6.1" fill="#93c5fd" stroke="#60a5fa" stroke-width="0.5"/><rect x="952.4" y="355.8" width="14.4" height="8.2" fill="#93c5fd" stroke="#60a5fa" stroke-width="0.5"/><rect x="968.8" y="354.4" width="14.4" height="9.6" fill="#93c5fd" stroke="#60a5fa" stroke-width="0.5"/><rect x="985.3" y="354.5" width="14.4" height="9.5" fill="#93c5fd" stroke="#60a5fa" stroke-width="0.5"/><rect x="1001.7" y="352.8" width="14.4" height="11.2" fill="#93c5fd" stroke="#60a5fa" stroke-width="0.5"/><rect x="1018.1" y="349.8" width="14.4" height="14.2" fill="#93c5fd" stroke="#60a5fa" stroke-width="0.5"/><rect x="1034.6" y="348.3" width="14.4" height="15.7" fill="#93c5fd" stroke="#60a5fa" stroke-width="0.5"/><rect x="1051.0" y="322.1" width="14.4" height="41.9" fill="#93c5fd" stroke="#60a5fa" stroke-width="0.5"/><rect x="1067.5" y="316.5" width="14.4" height="47.5" fill="#93c5fd" stroke="#60a5fa" stroke-width="0.5"/><rect x="1083.9" y="301.7" width="14.4" height="62.3" fill="#93c5fd" stroke="#60a5fa" stroke-width="0.5"/><rect x="1100.4" y="264.6" width="14.4" height="99.4" fill="#93c5fd" stroke="#60a5fa" stroke-width="0.5"/><rect x="1116.8" y="199.7" width="14.4" height="164.3" fill="#93c5fd" stroke="#60a5fa" stroke-width="0.5"/><rect x="1133.2" y="210.0" width="14.4" height="154.0" fill="#93c5fd" stroke="#60a5fa" stroke-width="0.5"/><rect x="1149.7" y="92.6" width="14.4" height="271.4" fill="#93c5fd" stroke="#60a5fa" stroke-width="0.5"/><rect x="1166.1" y="52.0" width="14.4" height="312.0" fill="#93c5fd" stroke="#60a5fa" stroke-width="0.5"/><rect x="1182.6" y="362.7" width="14.4" height="1.3" fill="#93c5fd" stroke="#60a5fa" stroke-width="0.5"/><polyline fill="none" stroke="#ef4444" stroke-width="2" points="88.2,364.0 104.7,364.0 121.1,364.0 137.5,364.0 154.0,364.0 170.4,363.9 186.9,363.9 203.3,363.9 219.8,363.8 236.2,363.8 252.6,363.7 269.1,363.7 285.5,363.6 302.0,363.5 318.4,363.4 334.8,363.2 351.3,363.1 367.7,363.0 384.2,362.8 400.6,362.8 417.0,362.7 433.5,361.8 449.9,361.8 466.4,361.7 482.8,361.7 499.3,361.6 515.7,361.6 532.1,361.5 548.6,361.4 565.0,361.1 581.5,360.9 597.9,360.7 614.3,360.7 630.8,360.6 647.2,360.5 663.7,360.4 680.1,360.3 696.5,360.2 713.0,360.1 729.4,359.9 745.9,359.7 762.3,359.5 778.8,359.2 795.2,358.9 811.6,358.5 828.1,358.0 844.5,357.4 861.0,356.6 877.4,355.4 893.8,354.4 910.3,353.2 926.7,352.0 943.2,350.5 959.6,348.5 976.0,346.1 992.5,343.8 1008.9,341.1 1025.4,337.6 1041.8,333.8 1058.2,323.5 1074.7,311.9 1091.1,296.7 1107.6,272.5 1124.0,232.4 1140.5,194.7 1156.9,128.5 1173.3,52.3 1189.8,52.0"/><line x1="88.2" y1="364.0" x2="88.2" y2="370.0" stroke="#111827" stroke-width="1"/><text x="90.2" y="386.0" font-size="11" text-anchor="end" transform="rotate(-35 90.2 386.0)" font-family="sans-serif" fill="#374151">2020-10</text><line x1="252.6" y1="364.0" x2="252.6" y2="370.0" stroke="#111827" stroke-width="1"/><text x="254.6" y="386.0" font-size="11" text-anchor="end" transform="rotate(-35 254.6 386.0)" font-family="sans-serif" fill="#374151">2021-08</text><line x1="400.6" y1="364.0" x2="400.6" y2="370.0" stroke="#111827" stroke-width="1"/><text x="402.6" y="386.0" font-size="11" text-anchor="end" transform="rotate(-35 402.6 386.0)" font-family="sans-serif" fill="#374151">2022-05</text><line x1="565.0" y1="364.0" x2="565.0" y2="370.0" stroke="#111827" stroke-width="1"/><text x="567.0" y="386.0" font-size="11" text-anchor="end" transform="rotate(-35 567.0 386.0)" font-family="sans-serif" fill="#374151">2023-03</text><line x1="713.0" y1="364.0" x2="713.0" y2="370.0" stroke="#111827" stroke-width="1"/><text x="715.0" y="386.0" font-size="11" text-anchor="end" transform="rotate(-35 715.0 386.0)" font-family="sans-serif" fill="#374151">2023-12</text><line x1="877.4" y1="364.0" x2="877.4" y2="370.0" stroke="#111827" stroke-width="1"/><text x="879.4" y="386.0" font-size="11" text-anchor="end" transform="rotate(-35 879.4 386.0)" font-family="sans-serif" fill="#374151">2024-10</text><line x1="1025.4" y1="364.0" x2="1025.4" y2="370.0" stroke="#111827" stroke-width="1"/><text x="1027.4" y="386.0" font-size="11" text-anchor="end" transform="rotate(-35 1027.4 386.0)" font-family="sans-serif" fill="#374151">2025-07</text><line x1="1189.8" y1="364.0" x2="1189.8" y2="370.0" stroke="#111827" stroke-width="1"/><text x="1191.8" y="386.0" font-size="11" text-anchor="end" transform="rotate(-35 1191.8 386.0)" font-family="sans-serif" fill="#374151">2026-05</text><text x="26" y="208.0" font-size="12" transform="rotate(-90 26 208.0)" text-anchor="middle" font-family="sans-serif" fill="#1f2937">구간별 수</text><text x="1256.0" y="208.0" font-size="12" transform="rotate(90 1256.0 208.0)" text-anchor="middle" font-family="sans-serif" fill="#1f2937">누적</text><text x="639.0" y="442.0" font-size="13" text-anchor="middle" font-family="sans-serif" fill="#111827">월</text></svg>