<svg xmlns="http://www.w3.org/2000/svg" width="1280" height="460" viewBox="0 0 1280 460"><rect x="0" y="0" width="100%" height="100%" fill="#ffffff"/><text x="640.0" y="28" font-size="20" text-anchor="middle" font-family="sans-serif" fill="#111827">마켓 / 최근 반영 시점 / 일별</text><line x1="80.0" y1="52.0" x2="1198.0" y2="52.0" stroke="#e5e7eb" stroke-width="1"/><text x="72.0" y="56.0" font-size="11" text-anchor="end" font-family="sans-serif" fill="#374151">493,407</text><text x="1206.0" y="56.0" font-size="11" text-anchor="start" font-family="sans-serif" fill="#374151">973,074</text><line x1="80.0" y1="114.4" x2="1198.0" y2="114.4" stroke="#e5e7eb" stroke-width="1"/><text x="72.0" y="118.4" font-size="11" text-anchor="end" font-family="sans-serif" fill="#374151">394,726</text><text x="1206.0" y="118.4" font-size="11" text-anchor="start" font-family="sans-serif" fill="#374151">778,459</text><line x1="80.0" y1="176.8" x2="1198.0" y2="176.8" stroke="#e5e7eb" stroke-width="1"/><text x="72.0" y="180.8" font-size="11" text-anchor="end" font-family="sans-serif" fill="#374151">296,044</text><text x="1206.0" y="180.8" font-size="11" text-anchor="start" font-family="sans-serif" fill="#374151">583,844</text><line x1="80.0" y1="239.2" x2="1198.0" y2="239.2" stroke="#e5e7eb" stroke-width="1"/><text x="72.0" y="243.2" font-size="11" text-anchor="end" font-family="sans-serif" fill="#374151">197,363</text><text x="1206.0" y="243.2" font-size="11" text-anchor="start" font-family="sans-serif" fill="#374151">389,230</text><line x1="80.0" y1="301.6" x2="1198.0" y2="301.6" stroke="#e5e7eb" stroke-width="1"/><text x="72.0" y="305.6" font-size="11" text-anchor="end" font-family="sans-serif" fill="#374151">98,681</text><text x="1206.0" y="305.6" font-size="11" text-anchor="start" font-family="sans-serif" fill="#374151">194,615</text><line x1="80.0" y1="364.0" x2="1198.0" y2="364.0" stroke="#e5e7eb" stroke-width="1"/><text x="72.0" y="368.0" font-size="11" text-anchor="end" font-family="sans-serif" fill="#374151">0</text><text x="1206.0" y="368.0" font-size="11" text-anchor="start" font-family="sans-serif" fill="#374151">0</text><line x1="80.0" y1="364.0" x2="1198.0" y2="364.0" stroke="#111827" stroke-width="1.2"/><line x1="80.0" y1="52.0" x2="80.0" y2="364.0" stroke="#111827" stroke-width="1.2"/><line x1="1198.0" y1="52.0" x2="1198.0" y2="364.0" stroke="#111827" stroke-width="1.2"/><rect x="81.0" y="346.1" width="18.7" height="17.9" fill="#93c5fd" stroke="#60a5fa" stroke-width="0.5"/><rect x="101.7" y="358.6" width="18.7" height="5.4" fill="#93c5fd" stroke="#60a5fa" stroke-width="0.5"/><rect x="122.4" y="52.0" width="18.7" height="312.0" fill="#93c5fd" stroke="#60a5fa" stroke-width="0.5"/><rect x="143.1" y="361.7" width="18.7" height="2.3" fill="#93c5fd" stroke="#60a5fa" stroke-width="0.5"/><rect x="163.8" y="361.2" width="18.7" height="2.8" fill="#93c5fd" stroke="#60a5fa" stroke-width="0.5"/><rect x="184.5" y="361.0" width="18.7" height="3.0" fill="#93c5fd" stroke="#60a5fa" stroke-width="0.5"/><rect x="205.2" y="362.6" width="18.7" height="1.4" fill="#93c5fd" stroke="#60a5fa" stroke-width="0.5"/><rect x="225.9" y="357.9" width="18.7" height="6.1" fill="#93c5fd" stroke="#60a5fa" stroke-width="0.5"/><rect x="246.6" y="360.4" width="18.7" height="3.6" fill="#93c5fd" stroke="#60a5fa" stroke-width="0.5"/><rect x="267.3" y="361.1" width="18.7" height="2.9" fill="#93c5fd" stroke="#60a5fa" stroke-width="0.5"/><rect x="288.0" y="360.7" width="18.7" height="3.3" fill="#93c5fd" stroke="#60a5fa" stroke-width="0.5"/><rect x="308.7" y="359.4" width="18.7" height="4.6" fill="#93c5fd" stroke="#60a5fa" stroke-width="0.5"/><rect x="329.4" y="359.7" width="18.7" height="4.3" fill="#93c5fd" stroke="#60a5fa" stroke-width="0.5"/><rect x="350.1" y="360.0" width="18.7" height="4.0" fill="#93c5fd" stroke="#60a5fa" stroke-width="0.5"/><rect x="370.9" y="358.9" width="18.7" height="5.1" fill="#93c5fd" stroke="#60a5fa" stroke-width="0.5"/><rect x="391.6" y="358.9" width="18.7" height="5.1" fill="#93c5fd" stroke="#60a5fa" stroke-width="0.5"/><rect x="412.3" y="359.7" width="18.7" height="4.3" fill="#93c5fd" stroke="#60a5fa" stroke-width="0.5"/><rect x="433.0" y="359.4" width="18.7" height="4.6" fill="#93c5fd" stroke="#60a5fa" stroke-width="0.5"/><rect x="453.7" y="359.3" width="18.7" height="4.7" fill="#93c5fd" stroke="#60a5fa" stroke-width="0.5"/><rect x="474.4" y="358.6" width="18.7" height="5.4" fill="#93c5fd" stroke="#60a5fa" stroke-width="0.5"/><rect x="495.1" y="358.7" width="18.7" height="5.3" fill="#93c5fd" stroke="#60a5fa" stroke-width="0.5"/><rect x="515.8" y="359.5" width="18.7" height="4.5" fill="#93c5fd" stroke="#60a5fa" stroke-width="0.5"/><rect x="536.5" y="358.2" width="18.7" height="5.8" fill="#93c5fd" stroke="#60a5fa" stroke-width="0.5"/><rect x="557.2" y="359.1" width="18.7" height="4.9" fill="#93c5fd" stroke="#60a5fa" stroke-width="0.5"/><rect x="577.9" y="359.1" width="18.7" height="4.9" fill="#93c5fd" stroke="#60a5fa" stroke-width="0.5"/><rect x="598.6" y="358.4" width="18.7" height="5.6" fill="#93c5fd" stroke="#60a5fa" stroke-width="0.5"/><rect x="619.3" y="358.0" width="18.7" height="6.0" fill="#93c5fd" stroke="#60a5fa" stroke-width="0.5"/><rect x="640.0" y="357.5" width="18.7" height="6.5" fill="#93c5fd" stroke="#60a5fa" stroke-width="0.5"/><rect x="660.7" y="359.8" width="18.7" height="4.2" fill="#93c5fd" stroke="#60a5fa" stroke-width="0.5"/><rect x="681.4" y="359.7" width="18.7" height="4.3" fill="#93c5fd" stroke="#60a5fa" stroke-width="0.5"/><rect x="702.1" y="358.9" width="18.7" height="5.1" fill="#93c5fd" stroke="#60a5fa" stroke-width="0.5"/><rect x="722.8" y="358.9" width="18.7" height="5.1" fill="#93c5fd" stroke="#60a5fa" stroke-width="0.5"/><rect x="743.5" y="359.5" width="18.7" height="4.5" fill="#93c5fd" stroke="#60a5fa" stroke-width="0.5"/><rect x="764.2" y="358.2" width="18.7" height="5.8" fill="#93c5fd" stroke="#60a5fa" stroke-width="0.5"/><rect x="784.9" y="358.4" width="18.7" height="5.6" fill="#93c5fd" stroke="#60a5fa" stroke-width="0.5"/><rect x="805.6" y="357.6" width="18.7" height="6.4" fill="#93c5fd" stroke="#60a5fa" stroke-width="0.5"/><rect x="826.3" y="357.8" width="18.7" height="6.2" fill="#93c5fd" stroke="#60a5fa" stroke-width="0.5"/><rect x="847.0" y="356.4" width="18.7" height="7.6" fill="#93c5fd" stroke="#60a5fa" stroke-width="0.5"/><rect x="867.7" y="359.3" width="18.7" height="4.7" fill="#93c5fd" stroke="#60a5fa" stroke-width="0.5"/><rect x="888.4" y="359.6" width="18.7" height="4.4" fill="#93c5fd" stroke="#60a5fa" stroke-width="0.5"/><rect x="909.1" y="357.1" width="18.7" height="6.9" fill="#93c5fd" stroke="#60a5fa" stroke-width="0.5"/><rect x="929.9" y="356.9" width="18.7" height="7.1" fill="#93c5fd" stroke="#60a5fa" stroke-width="0.5"/><rect x="950.6" y="358.8" width="18.7" height="5.2" fill="#93c5fd" stroke="#60a5fa" stroke-width="0.5"/><rect x="971.3" y="359.0" width="18.7" height="5.0" fill="#93c5fd" stroke="#60a5fa" stroke-width="0.5"/><rect x="992.0" y="360.1" width="18.7" height="3.9" fill="#93c5fd" stroke="#60a5fa" stroke-width="0.5"/><rect x="1012.7" y="359.4" width="18.7" height="4.6" fill="#93c5fd" stroke="#60a5fa" stroke-width="0.5"/><rect x="1033.4" y="359.5" width="18.7" height="4.5" fill="#93c5fd" stroke="#60a5fa" stroke-width="0.5"/><rect x="1054.1" y="357.5" width="18.7" height="6.5" fill="#93c5fd" stroke="#60a5fa" stroke-width="0.5"/><rect x="1074.8" y="358.0" width="18.7" height="6.0" fill="#93c5fd" stroke="#60a5fa" stroke-width="0.5"/><rect x="1095.5" y="359.0" width="18.7" height="5.0" fill="#93c5fd" stroke="#60a5fa" stroke-width="0.5"/><rect x="1116.2" y="359.5" width="18.7" height="4.5" fill="#93c5fd" stroke="#60a5fa" stroke-width="0.5"/><rect x="1136.9" y="358.7" width="18.7" height="5.3" fill="#93c5fd" stroke="#60a5fa" stroke-width="0.5"/><rect x="1157.6" y="358.8" width="18.7" height="5.2" fill="#93c5fd" stroke="#60a5fa" stroke-width="0.5"/><rect x="1178.3" y="328.6" width="18.7" height="35.4" fill="#93c5fd" stroke="#60a5fa" stroke-width="0.5"/><polyline fill="none" stroke="#ef4444" stroke-width="2" points="90.4,354.9 111.1,352.2 131.8,194.0 152.5,192.8 173.2,191.4 193.9,189.9 214.6,189.2 235.3,186.1 256.0,184.3 276.7,182.8 297.4,181.1 318.1,178.8 338.8,176.6 359.5,174.6 380.2,172.0 400.9,169.5 421.6,167.3 442.3,165.0 463.0,162.6 483.7,159.8 504.4,157.2 525.1,154.9 545.8,151.9 566.5,149.4 587.2,146.9 607.9,144.1 628.6,141.1 649.4,137.8 670.1,135.6 690.8,133.4 711.5,130.8 732.2,128.2 752.9,125.9 773.6,123.0 794.3,120.2 815.0,116.9 835.7,113.8 856.4,109.9 877.1,107.5 897.8,105.3 918.5,101.8 939.2,98.2 959.9,95.5 980.6,93.0 1001.3,91.0 1022.0,88.7 1042.7,86.4 1063.4,83.2 1084.1,80.1 1104.8,77.5 1125.5,75.3 1146.2,72.6 1166.9,69.9 1187.6,52.0"/><line x1="90.4" y1="364.0" x2="90.4" y2="370.0" stroke="#111827" stroke-width="1"/><text x="92.4" y="386.0" font-size="11" text-anchor="end" transform="rotate(-35 92.4 386.0)" font-family="sans-serif" fill="#374151">2026-02-28</text><line x1="256.0" y1="364.0" x2="256.0" y2="370.0" stroke="#111827" stroke-width="1"/><text x="258.0" y="386.0" font-size="11" text-anchor="end" transform="rotate(-35 258.0 386.0)" font-family="sans-serif" fill="#374151">2026-03-10</text><line x1="400.9" y1="364.0" x2="400.9" y2="370.0" stroke="#111827" stroke-width="1"/><text x="402.9" y="386.0" font-size="11" text-anchor="end" transform="rotate(-35 402.9 386.0)" font-family="sans-serif" fill="#374151">2026-03-17</text><line x1="566.5" y1="364.0" x2="566.5" y2="370.0" stroke="#111827" stroke-width="1"/><text x="568.5" y="386.0" font-size="11" text-anchor="end" transform="rotate(-35 568.5 386.0)" font-family="sans-serif" fill="#374151">2026-03-25</text><line x1="711.5" y1="364.0" x2="711.5" y2="370.0" stroke="#111827" stroke-width="1"/><text x="713.5" y="386.0" font-size="11" text-anchor="end" transform="rotate(-35 713.5 386.0)" font-family="sans-serif" fill="#374151">2026-04-01</text><line x1="877.1" y1="364.0" x2="877.1" y2="370.0" stroke="#111827" stroke-width="1"/><text x="879.1" y="386.0" font-size="11" text-anchor="end" transform="rotate(-35 879.1 386.0)" font-family="sans-serif" fill="#374151">2026-04-09</text><line x1="1022.0" y1="364.0" x2="1022.0" y2="370.0" stroke="#111827" stroke-width="1"/><text x="1024.0" y="386.0" font-size="11" text-anchor="end" transform="rotate(-35 1024.0 386.0)" font-family="sans-serif" fill="#374151">2026-04-16</text><line x1="1187.6" y1="364.0" x2="1187.6" y2="370.0" stroke="#111827" stroke-width="1"/><text x="1189.6" y="386.0" font-size="11" text-anchor="end" transform="rotate(-35 1189.6 386.0)" font-family="sans-serif" fill="#374151">2026-04-24</text><text x="26" y="208.0" font-size="12" transform="rotate(-90 26 208.0)" text-anchor="middle" font-family="sans-serif" fill="#1f2937">구간별 수</text><text x="1256.0" y="208.0" font-size="12" transform="rotate(90 1256.0 208.0)" text-anchor="middle" font-family="sans-serif" fill="#1f2937">누적</text><text x="639.0" y="442.0" font-size="13" text-anchor="middle" font-family="sans-serif" fill="#111827">일</text></svg>