<svg xmlns="http://www.w3.org/2000/svg" width="1280" height="460" viewBox="0 0 1280 460"><rect x="0" y="0" width="100%" height="100%" fill="#ffffff"/><text x="640.0" y="28" font-size="20" text-anchor="middle" font-family="sans-serif" fill="#111827">마켓 / 최근 반영 시점 / 일별</text><line x1="80.0" y1="52.0" x2="1198.0" y2="52.0" stroke="#e5e7eb" stroke-width="1"/><text x="72.0" y="56.0" font-size="11" text-anchor="end" font-family="sans-serif" fill="#374151">493,407</text><text x="1206.0" y="56.0" font-size="11" text-anchor="start" font-family="sans-serif" fill="#374151">894,662</text><line x1="80.0" y1="114.4" x2="1198.0" y2="114.4" stroke="#e5e7eb" stroke-width="1"/><text x="72.0" y="118.4" font-size="11" text-anchor="end" font-family="sans-serif" fill="#374151">394,726</text><text x="1206.0" y="118.4" font-size="11" text-anchor="start" font-family="sans-serif" fill="#374151">715,730</text><line x1="80.0" y1="176.8" x2="1198.0" y2="176.8" stroke="#e5e7eb" stroke-width="1"/><text x="72.0" y="180.8" font-size="11" text-anchor="end" font-family="sans-serif" fill="#374151">296,044</text><text x="1206.0" y="180.8" font-size="11" text-anchor="start" font-family="sans-serif" fill="#374151">536,797</text><line x1="80.0" y1="239.2" x2="1198.0" y2="239.2" stroke="#e5e7eb" stroke-width="1"/><text x="72.0" y="243.2" font-size="11" text-anchor="end" font-family="sans-serif" fill="#374151">197,363</text><text x="1206.0" y="243.2" font-size="11" text-anchor="start" font-family="sans-serif" fill="#374151">357,865</text><line x1="80.0" y1="301.6" x2="1198.0" y2="301.6" stroke="#e5e7eb" stroke-width="1"/><text x="72.0" y="305.6" font-size="11" text-anchor="end" font-family="sans-serif" fill="#374151">98,681</text><text x="1206.0" y="305.6" font-size="11" text-anchor="start" font-family="sans-serif" fill="#374151">178,932</text><line x1="80.0" y1="364.0" x2="1198.0" y2="364.0" stroke="#e5e7eb" stroke-width="1"/><text x="72.0" y="368.0" font-size="11" text-anchor="end" font-family="sans-serif" fill="#374151">0</text><text x="1206.0" y="368.0" font-size="11" text-anchor="start" font-family="sans-serif" fill="#374151">0</text><line x1="80.0" y1="364.0" x2="1198.0" y2="364.0" stroke="#111827" stroke-width="1.2"/><line x1="80.0" y1="52.0" x2="80.0" y2="364.0" stroke="#111827" stroke-width="1.2"/><line x1="1198.0" y1="52.0" x2="1198.0" y2="364.0" stroke="#111827" stroke-width="1.2"/><rect x="81.0" y="346.1" width="22.8" height="17.9" fill="#93c5fd" stroke="#60a5fa" stroke-width="0.5"/><rect x="105.8" y="358.6" width="22.8" height="5.4" fill="#93c5fd" stroke="#60a5fa" stroke-width="0.5"/><rect x="130.7" y="52.0" width="22.8" height="312.0" fill="#93c5fd" stroke="#60a5fa" stroke-width="0.5"/><rect x="155.5" y="361.7" width="22.8" height="2.3" fill="#93c5fd" stroke="#60a5fa" stroke-width="0.5"/><rect x="180.4" y="361.2" width="22.8" height="2.8" fill="#93c5fd" stroke="#60a5fa" stroke-width="0.5"/><rect x="205.2" y="361.0" width="22.8" height="3.0" fill="#93c5fd" stroke="#60a5fa" stroke-width="0.5"/><rect x="230.1" y="362.6" width="22.8" height="1.4" fill="#93c5fd" stroke="#60a5fa" stroke-width="0.5"/><rect x="254.9" y="357.9" width="22.8" height="6.1" fill="#93c5fd" stroke="#60a5fa" stroke-width="0.5"/><rect x="279.8" y="360.4" width="22.8" height="3.6" fill="#93c5fd" stroke="#60a5fa" stroke-width="0.5"/><rect x="304.6" y="361.1" width="22.8" height="2.9" fill="#93c5fd" stroke="#60a5fa" stroke-width="0.5"/><rect x="329.4" y="360.7" width="22.8" height="3.3" fill="#93c5fd" stroke="#60a5fa" stroke-width="0.5"/><rect x="354.3" y="359.4" width="22.8" height="4.6" fill="#93c5fd" stroke="#60a5fa" stroke-width="0.5"/><rect x="379.1" y="359.7" width="22.8" height="4.3" fill="#93c5fd" stroke="#60a5fa" stroke-width="0.5"/><rect x="404.0" y="360.0" width="22.8" height="4.0" fill="#93c5fd" stroke="#60a5fa" stroke-width="0.5"/><rect x="428.8" y="358.9" width="22.8" height="5.1" fill="#93c5fd" stroke="#60a5fa" stroke-width="0.5"/><rect x="453.7" y="358.9" width="22.8" height="5.1" fill="#93c5fd" stroke="#60a5fa" stroke-width="0.5"/><rect x="478.5" y="359.7" width="22.8" height="4.3" fill="#93c5fd" stroke="#60a5fa" stroke-width="0.5"/><rect x="503.4" y="359.4" width="22.8" height="4.6" fill="#93c5fd" stroke="#60a5fa" stroke-width="0.5"/><rect x="528.2" y="359.3" width="22.8" height="4.7" fill="#93c5fd" stroke="#60a5fa" stroke-width="0.5"/><rect x="553.0" y="358.6" width="22.8" height="5.4" fill="#93c5fd" stroke="#60a5fa" stroke-width="0.5"/><rect x="577.9" y="358.7" width="22.8" height="5.3" fill="#93c5fd" stroke="#60a5fa" stroke-width="0.5"/><rect x="602.7" y="359.5" width="22.8" height="4.5" fill="#93c5fd" stroke="#60a5fa" stroke-width="0.5"/><rect x="627.6" y="358.2" width="22.8" height="5.8" fill="#93c5fd" stroke="#60a5fa" stroke-width="0.5"/><rect x="652.4" y="359.1" width="22.8" height="4.9" fill="#93c5fd" stroke="#60a5fa" stroke-width="0.5"/><rect x="677.3" y="359.1" width="22.8" height="4.9" fill="#93c5fd" stroke="#60a5fa" stroke-width="0.5"/><rect x="702.1" y="358.4" width="22.8" height="5.6" fill="#93c5fd" stroke="#60a5fa" stroke-width="0.5"/><rect x="727.0" y="358.0" width="22.8" height="6.0" fill="#93c5fd" stroke="#60a5fa" stroke-width="0.5"/><rect x="751.8" y="357.5" width="22.8" height="6.5" fill="#93c5fd" stroke="#60a5fa" stroke-width="0.5"/><rect x="776.6" y="359.8" width="22.8" height="4.2" fill="#93c5fd" stroke="#60a5fa" stroke-width="0.5"/><rect x="801.5" y="359.7" width="22.8" height="4.3" fill="#93c5fd" stroke="#60a5fa" stroke-width="0.5"/><rect x="826.3" y="358.9" width="22.8" height="5.1" fill="#93c5fd" stroke="#60a5fa" stroke-width="0.5"/><rect x="851.2" y="358.9" width="22.8" height="5.1" fill="#93c5fd" stroke="#60a5fa" stroke-width="0.5"/><rect x="876.0" y="359.5" width="22.8" height="4.5" fill="#93c5fd" stroke="#60a5fa" stroke-width="0.5"/><rect x="900.9" y="358.2" width="22.8" height="5.8" fill="#93c5fd" stroke="#60a5fa" stroke-width="0.5"/><rect x="925.7" y="358.4" width="22.8" height="5.6" fill="#93c5fd" stroke="#60a5fa" stroke-width="0.5"/><rect x="950.6" y="357.6" width="22.8" height="6.4" fill="#93c5fd" stroke="#60a5fa" stroke-width="0.5"/><rect x="975.4" y="357.8" width="22.8" height="6.2" fill="#93c5fd" stroke="#60a5fa" stroke-width="0.5"/><rect x="1000.2" y="356.4" width="22.8" height="7.6" fill="#93c5fd" stroke="#60a5fa" stroke-width="0.5"/><rect x="1025.1" y="359.3" width="22.8" height="4.7" fill="#93c5fd" stroke="#60a5fa" stroke-width="0.5"/><rect x="1049.9" y="359.6" width="22.8" height="4.4" fill="#93c5fd" stroke="#60a5fa" stroke-width="0.5"/><rect x="1074.8" y="357.1" width="22.8" height="6.9" fill="#93c5fd" stroke="#60a5fa" stroke-width="0.5"/><rect x="1099.6" y="356.9" width="22.8" height="7.1" fill="#93c5fd" stroke="#60a5fa" stroke-width="0.5"/><rect x="1124.5" y="358.8" width="22.8" height="5.2" fill="#93c5fd" stroke="#60a5fa" stroke-width="0.5"/><rect x="1149.3" y="346.3" width="22.8" height="17.7" fill="#93c5fd" stroke="#60a5fa" stroke-width="0.5"/><rect x="1174.2" y="345.5" width="22.8" height="18.5" fill="#93c5fd" stroke="#60a5fa" stroke-width="0.5"/><polyline fill="none" stroke="#ef4444" stroke-width="2" points="92.4,354.1 117.3,351.1 142.1,179.1 167.0,177.8 191.8,176.2 216.6,174.6 241.5,173.8 266.3,170.5 291.2,168.5 316.0,166.9 340.9,165.1 365.7,162.6 390.6,160.2 415.4,158.0 440.2,155.2 465.1,152.4 489.9,150.0 514.8,147.5 539.6,144.9 564.5,141.9 589.3,139.0 614.2,136.5 639.0,133.3 663.8,130.6 688.7,127.9 713.5,124.8 738.4,121.5 763.2,117.9 788.1,115.6 812.9,113.2 837.8,110.4 862.6,107.6 887.4,105.1 912.3,101.9 937.1,98.8 962.0,95.2 986.8,91.8 1011.7,87.6 1036.5,85.0 1061.4,82.6 1086.2,78.8 1111.0,74.9 1135.9,72.0 1160.7,62.2 1185.6,52.0"/><line x1="92.4" y1="364.0" x2="92.4" y2="370.0" stroke="#111827" stroke-width="1"/><text x="94.4" y="386.0" font-size="11" text-anchor="end" transform="rotate(-35 94.4 386.0)" font-family="sans-serif" fill="#374151">2026-02-28</text><line x1="241.5" y1="364.0" x2="241.5" y2="370.0" stroke="#111827" stroke-width="1"/><text x="243.5" y="386.0" font-size="11" text-anchor="end" transform="rotate(-35 243.5 386.0)" font-family="sans-serif" fill="#374151">2026-03-08</text><line x1="415.4" y1="364.0" x2="415.4" y2="370.0" stroke="#111827" stroke-width="1"/><text x="417.4" y="386.0" font-size="11" text-anchor="end" transform="rotate(-35 417.4 386.0)" font-family="sans-serif" fill="#374151">2026-03-15</text><line x1="564.5" y1="364.0" x2="564.5" y2="370.0" stroke="#111827" stroke-width="1"/><text x="566.5" y="386.0" font-size="11" text-anchor="end" transform="rotate(-35 566.5 386.0)" font-family="sans-serif" fill="#374151">2026-03-21</text><line x1="713.5" y1="364.0" x2="713.5" y2="370.0" stroke="#111827" stroke-width="1"/><text x="715.5" y="386.0" font-size="11" text-anchor="end" transform="rotate(-35 715.5 386.0)" font-family="sans-serif" fill="#374151">2026-03-27</text><line x1="862.6" y1="364.0" x2="862.6" y2="370.0" stroke="#111827" stroke-width="1"/><text x="864.6" y="386.0" font-size="11" text-anchor="end" transform="rotate(-35 864.6 386.0)" font-family="sans-serif" fill="#374151">2026-04-02</text><line x1="1036.5" y1="364.0" x2="1036.5" y2="370.0" stroke="#111827" stroke-width="1"/><text x="1038.5" y="386.0" font-size="11" text-anchor="end" transform="rotate(-35 1038.5 386.0)" font-family="sans-serif" fill="#374151">2026-04-09</text><line x1="1185.6" y1="364.0" x2="1185.6" y2="370.0" stroke="#111827" stroke-width="1"/><text x="1187.6" y="386.0" font-size="11" text-anchor="end" transform="rotate(-35 1187.6 386.0)" font-family="sans-serif" fill="#374151">2026-04-15</text><text x="26" y="208.0" font-size="12" transform="rotate(-90 26 208.0)" text-anchor="middle" font-family="sans-serif" fill="#1f2937">구간별 수</text><text x="1256.0" y="208.0" font-size="12" transform="rotate(90 1256.0 208.0)" text-anchor="middle" font-family="sans-serif" fill="#1f2937">누적</text><text x="639.0" y="442.0" font-size="13" text-anchor="middle" font-family="sans-serif" fill="#111827">일</text></svg>