<svg xmlns="http://www.w3.org/2000/svg" width="1280" height="460" viewBox="0 0 1280 460"><rect x="0" y="0" width="100%" height="100%" fill="#ffffff"/><text x="640.0" y="28" font-size="20" text-anchor="middle" font-family="sans-serif" fill="#111827">마켓 / 최근 반영 시점 / 일별</text><line x1="80.0" y1="52.0" x2="1198.0" y2="52.0" stroke="#e5e7eb" stroke-width="1"/><text x="72.0" y="56.0" font-size="11" text-anchor="end" font-family="sans-serif" fill="#374151">493,407</text><text x="1206.0" y="56.0" font-size="11" text-anchor="start" font-family="sans-serif" fill="#374151">834,717</text><line x1="80.0" y1="114.4" x2="1198.0" y2="114.4" stroke="#e5e7eb" stroke-width="1"/><text x="72.0" y="118.4" font-size="11" text-anchor="end" font-family="sans-serif" fill="#374151">394,726</text><text x="1206.0" y="118.4" font-size="11" text-anchor="start" font-family="sans-serif" fill="#374151">667,774</text><line x1="80.0" y1="176.8" x2="1198.0" y2="176.8" stroke="#e5e7eb" stroke-width="1"/><text x="72.0" y="180.8" font-size="11" text-anchor="end" font-family="sans-serif" fill="#374151">296,044</text><text x="1206.0" y="180.8" font-size="11" text-anchor="start" font-family="sans-serif" fill="#374151">500,830</text><line x1="80.0" y1="239.2" x2="1198.0" y2="239.2" stroke="#e5e7eb" stroke-width="1"/><text x="72.0" y="243.2" font-size="11" text-anchor="end" font-family="sans-serif" fill="#374151">197,363</text><text x="1206.0" y="243.2" font-size="11" text-anchor="start" font-family="sans-serif" fill="#374151">333,887</text><line x1="80.0" y1="301.6" x2="1198.0" y2="301.6" stroke="#e5e7eb" stroke-width="1"/><text x="72.0" y="305.6" font-size="11" text-anchor="end" font-family="sans-serif" fill="#374151">98,681</text><text x="1206.0" y="305.6" font-size="11" text-anchor="start" font-family="sans-serif" fill="#374151">166,943</text><line x1="80.0" y1="364.0" x2="1198.0" y2="364.0" stroke="#e5e7eb" stroke-width="1"/><text x="72.0" y="368.0" font-size="11" text-anchor="end" font-family="sans-serif" fill="#374151">0</text><text x="1206.0" y="368.0" font-size="11" text-anchor="start" font-family="sans-serif" fill="#374151">0</text><line x1="80.0" y1="364.0" x2="1198.0" y2="364.0" stroke="#111827" stroke-width="1.2"/><line x1="80.0" y1="52.0" x2="80.0" y2="364.0" stroke="#111827" stroke-width="1.2"/><line x1="1198.0" y1="52.0" x2="1198.0" y2="364.0" stroke="#111827" stroke-width="1.2"/><rect x="81.0" y="346.1" width="28.2" height="17.9" fill="#93c5fd" stroke="#60a5fa" stroke-width="0.5"/><rect x="111.2" y="358.6" width="28.2" height="5.4" fill="#93c5fd" stroke="#60a5fa" stroke-width="0.5"/><rect x="141.4" y="52.0" width="28.2" height="312.0" fill="#93c5fd" stroke="#60a5fa" stroke-width="0.5"/><rect x="171.6" y="361.7" width="28.2" height="2.3" fill="#93c5fd" stroke="#60a5fa" stroke-width="0.5"/><rect x="201.9" y="361.2" width="28.2" height="2.8" fill="#93c5fd" stroke="#60a5fa" stroke-width="0.5"/><rect x="232.1" y="361.0" width="28.2" height="3.0" fill="#93c5fd" stroke="#60a5fa" stroke-width="0.5"/><rect x="262.3" y="362.6" width="28.2" height="1.4" fill="#93c5fd" stroke="#60a5fa" stroke-width="0.5"/><rect x="292.5" y="357.9" width="28.2" height="6.1" fill="#93c5fd" stroke="#60a5fa" stroke-width="0.5"/><rect x="322.7" y="360.4" width="28.2" height="3.6" fill="#93c5fd" stroke="#60a5fa" stroke-width="0.5"/><rect x="352.9" y="361.1" width="28.2" height="2.9" fill="#93c5fd" stroke="#60a5fa" stroke-width="0.5"/><rect x="383.2" y="360.7" width="28.2" height="3.3" fill="#93c5fd" stroke="#60a5fa" stroke-width="0.5"/><rect x="413.4" y="359.4" width="28.2" height="4.6" fill="#93c5fd" stroke="#60a5fa" stroke-width="0.5"/><rect x="443.6" y="359.7" width="28.2" height="4.3" fill="#93c5fd" stroke="#60a5fa" stroke-width="0.5"/><rect x="473.8" y="360.0" width="28.2" height="4.0" fill="#93c5fd" stroke="#60a5fa" stroke-width="0.5"/><rect x="504.0" y="358.9" width="28.2" height="5.1" fill="#93c5fd" stroke="#60a5fa" stroke-width="0.5"/><rect x="534.2" y="358.9" width="28.2" height="5.1" fill="#93c5fd" stroke="#60a5fa" stroke-width="0.5"/><rect x="564.5" y="359.7" width="28.2" height="4.3" fill="#93c5fd" stroke="#60a5fa" stroke-width="0.5"/><rect x="594.7" y="359.4" width="28.2" height="4.6" fill="#93c5fd" stroke="#60a5fa" stroke-width="0.5"/><rect x="624.9" y="359.3" width="28.2" height="4.7" fill="#93c5fd" stroke="#60a5fa" stroke-width="0.5"/><rect x="655.1" y="358.6" width="28.2" height="5.4" fill="#93c5fd" stroke="#60a5fa" stroke-width="0.5"/><rect x="685.3" y="358.7" width="28.2" height="5.3" fill="#93c5fd" stroke="#60a5fa" stroke-width="0.5"/><rect x="715.5" y="359.5" width="28.2" height="4.5" fill="#93c5fd" stroke="#60a5fa" stroke-width="0.5"/><rect x="745.8" y="358.2" width="28.2" height="5.8" fill="#93c5fd" stroke="#60a5fa" stroke-width="0.5"/><rect x="776.0" y="359.1" width="28.2" height="4.9" fill="#93c5fd" stroke="#60a5fa" stroke-width="0.5"/><rect x="806.2" y="359.1" width="28.2" height="4.9" fill="#93c5fd" stroke="#60a5fa" stroke-width="0.5"/><rect x="836.4" y="358.4" width="28.2" height="5.6" fill="#93c5fd" stroke="#60a5fa" stroke-width="0.5"/><rect x="866.6" y="358.0" width="28.2" height="6.0" fill="#93c5fd" stroke="#60a5fa" stroke-width="0.5"/><rect x="896.8" y="357.4" width="28.2" height="6.6" fill="#93c5fd" stroke="#60a5fa" stroke-width="0.5"/><rect x="927.1" y="359.8" width="28.2" height="4.2" fill="#93c5fd" stroke="#60a5fa" stroke-width="0.5"/><rect x="957.3" y="359.7" width="28.2" height="4.3" fill="#93c5fd" stroke="#60a5fa" stroke-width="0.5"/><rect x="987.5" y="358.9" width="28.2" height="5.1" fill="#93c5fd" stroke="#60a5fa" stroke-width="0.5"/><rect x="1017.7" y="358.9" width="28.2" height="5.1" fill="#93c5fd" stroke="#60a5fa" stroke-width="0.5"/><rect x="1047.9" y="359.5" width="28.2" height="4.5" fill="#93c5fd" stroke="#60a5fa" stroke-width="0.5"/><rect x="1078.1" y="358.2" width="28.2" height="5.8" fill="#93c5fd" stroke="#60a5fa" stroke-width="0.5"/><rect x="1108.4" y="358.3" width="28.2" height="5.7" fill="#93c5fd" stroke="#60a5fa" stroke-width="0.5"/><rect x="1138.6" y="357.6" width="28.2" height="6.4" fill="#93c5fd" stroke="#60a5fa" stroke-width="0.5"/><rect x="1168.8" y="323.6" width="28.2" height="40.4" fill="#93c5fd" stroke="#60a5fa" stroke-width="0.5"/><polyline fill="none" stroke="#ef4444" stroke-width="2" points="95.1,353.4 125.3,350.2 155.5,165.8 185.8,164.4 216.0,162.7 246.2,161.0 276.4,160.2 306.6,156.6 336.8,154.5 367.1,152.7 397.3,150.8 427.5,148.1 457.7,145.6 487.9,143.2 518.1,140.2 548.4,137.2 578.6,134.6 608.8,132.0 639.0,129.1 669.2,126.0 699.4,122.9 729.6,120.2 759.9,116.8 790.1,113.8 820.3,110.9 850.5,107.6 880.7,104.1 910.9,100.2 941.2,97.7 971.4,95.1 1001.6,92.1 1031.8,89.1 1062.0,86.4 1092.2,83.0 1122.5,79.7 1152.7,75.9 1182.9,52.0"/><line x1="95.1" y1="364.0" x2="95.1" y2="370.0" stroke="#111827" stroke-width="1"/><text x="97.1" y="386.0" font-size="11" text-anchor="end" transform="rotate(-35 97.1 386.0)" font-family="sans-serif" fill="#374151">2026-02-28</text><line x1="246.2" y1="364.0" x2="246.2" y2="370.0" stroke="#111827" stroke-width="1"/><text x="248.2" y="386.0" font-size="11" text-anchor="end" transform="rotate(-35 248.2 386.0)" font-family="sans-serif" fill="#374151">2026-03-05</text><line x1="397.3" y1="364.0" x2="397.3" y2="370.0" stroke="#111827" stroke-width="1"/><text x="399.3" y="386.0" font-size="11" text-anchor="end" transform="rotate(-35 399.3 386.0)" font-family="sans-serif" fill="#374151">2026-03-12</text><line x1="548.4" y1="364.0" x2="548.4" y2="370.0" stroke="#111827" stroke-width="1"/><text x="550.4" y="386.0" font-size="11" text-anchor="end" transform="rotate(-35 550.4 386.0)" font-family="sans-serif" fill="#374151">2026-03-17</text><line x1="729.6" y1="364.0" x2="729.6" y2="370.0" stroke="#111827" stroke-width="1"/><text x="731.6" y="386.0" font-size="11" text-anchor="end" transform="rotate(-35 731.6 386.0)" font-family="sans-serif" fill="#374151">2026-03-23</text><line x1="880.7" y1="364.0" x2="880.7" y2="370.0" stroke="#111827" stroke-width="1"/><text x="882.7" y="386.0" font-size="11" text-anchor="end" transform="rotate(-35 882.7 386.0)" font-family="sans-serif" fill="#374151">2026-03-28</text><line x1="1031.8" y1="364.0" x2="1031.8" y2="370.0" stroke="#111827" stroke-width="1"/><text x="1033.8" y="386.0" font-size="11" text-anchor="end" transform="rotate(-35 1033.8 386.0)" font-family="sans-serif" fill="#374151">2026-04-02</text><line x1="1182.9" y1="364.0" x2="1182.9" y2="370.0" stroke="#111827" stroke-width="1"/><text x="1184.9" y="386.0" font-size="11" text-anchor="end" transform="rotate(-35 1184.9 386.0)" font-family="sans-serif" fill="#374151">2026-04-07</text><text x="26" y="208.0" font-size="12" transform="rotate(-90 26 208.0)" text-anchor="middle" font-family="sans-serif" fill="#1f2937">구간별 수</text><text x="1256.0" y="208.0" font-size="12" transform="rotate(90 1256.0 208.0)" text-anchor="middle" font-family="sans-serif" fill="#1f2937">누적</text><text x="639.0" y="442.0" font-size="13" text-anchor="middle" font-family="sans-serif" fill="#111827">일</text></svg>