<svg xmlns="http://www.w3.org/2000/svg" width="1280" height="460" viewBox="0 0 1280 460"><rect x="0" y="0" width="100%" height="100%" fill="#ffffff"/><text x="640.0" y="28" font-size="20" text-anchor="middle" font-family="sans-serif" fill="#111827">마켓 / 최근 반영 시점 / 일별</text><line x1="80.0" y1="52.0" x2="1198.0" y2="52.0" stroke="#e5e7eb" stroke-width="1"/><text x="72.0" y="56.0" font-size="11" text-anchor="end" font-family="sans-serif" fill="#374151">493,407</text><text x="1206.0" y="56.0" font-size="11" text-anchor="start" font-family="sans-serif" fill="#374151">916,078</text><line x1="80.0" y1="114.4" x2="1198.0" y2="114.4" stroke="#e5e7eb" stroke-width="1"/><text x="72.0" y="118.4" font-size="11" text-anchor="end" font-family="sans-serif" fill="#374151">394,726</text><text x="1206.0" y="118.4" font-size="11" text-anchor="start" font-family="sans-serif" fill="#374151">732,862</text><line x1="80.0" y1="176.8" x2="1198.0" y2="176.8" stroke="#e5e7eb" stroke-width="1"/><text x="72.0" y="180.8" font-size="11" text-anchor="end" font-family="sans-serif" fill="#374151">296,044</text><text x="1206.0" y="180.8" font-size="11" text-anchor="start" font-family="sans-serif" fill="#374151">549,647</text><line x1="80.0" y1="239.2" x2="1198.0" y2="239.2" stroke="#e5e7eb" stroke-width="1"/><text x="72.0" y="243.2" font-size="11" text-anchor="end" font-family="sans-serif" fill="#374151">197,363</text><text x="1206.0" y="243.2" font-size="11" text-anchor="start" font-family="sans-serif" fill="#374151">366,431</text><line x1="80.0" y1="301.6" x2="1198.0" y2="301.6" stroke="#e5e7eb" stroke-width="1"/><text x="72.0" y="305.6" font-size="11" text-anchor="end" font-family="sans-serif" fill="#374151">98,681</text><text x="1206.0" y="305.6" font-size="11" text-anchor="start" font-family="sans-serif" fill="#374151">183,216</text><line x1="80.0" y1="364.0" x2="1198.0" y2="364.0" stroke="#e5e7eb" stroke-width="1"/><text x="72.0" y="368.0" font-size="11" text-anchor="end" font-family="sans-serif" fill="#374151">0</text><text x="1206.0" y="368.0" font-size="11" text-anchor="start" font-family="sans-serif" fill="#374151">0</text><line x1="80.0" y1="364.0" x2="1198.0" y2="364.0" stroke="#111827" stroke-width="1.2"/><line x1="80.0" y1="52.0" x2="80.0" y2="364.0" stroke="#111827" stroke-width="1.2"/><line x1="1198.0" y1="52.0" x2="1198.0" y2="364.0" stroke="#111827" stroke-width="1.2"/><rect x="81.0" y="346.1" width="21.3" height="17.9" fill="#93c5fd" stroke="#60a5fa" stroke-width="0.5"/><rect x="104.3" y="358.6" width="21.3" height="5.4" fill="#93c5fd" stroke="#60a5fa" stroke-width="0.5"/><rect x="127.6" y="52.0" width="21.3" height="312.0" fill="#93c5fd" stroke="#60a5fa" stroke-width="0.5"/><rect x="150.9" y="361.7" width="21.3" height="2.3" fill="#93c5fd" stroke="#60a5fa" stroke-width="0.5"/><rect x="174.2" y="361.2" width="21.3" height="2.8" fill="#93c5fd" stroke="#60a5fa" stroke-width="0.5"/><rect x="197.5" y="361.0" width="21.3" height="3.0" fill="#93c5fd" stroke="#60a5fa" stroke-width="0.5"/><rect x="220.8" y="362.6" width="21.3" height="1.4" fill="#93c5fd" stroke="#60a5fa" stroke-width="0.5"/><rect x="244.0" y="357.9" width="21.3" height="6.1" fill="#93c5fd" stroke="#60a5fa" stroke-width="0.5"/><rect x="267.3" y="360.4" width="21.3" height="3.6" fill="#93c5fd" stroke="#60a5fa" stroke-width="0.5"/><rect x="290.6" y="361.1" width="21.3" height="2.9" fill="#93c5fd" stroke="#60a5fa" stroke-width="0.5"/><rect x="313.9" y="360.7" width="21.3" height="3.3" fill="#93c5fd" stroke="#60a5fa" stroke-width="0.5"/><rect x="337.2" y="359.4" width="21.3" height="4.6" fill="#93c5fd" stroke="#60a5fa" stroke-width="0.5"/><rect x="360.5" y="359.7" width="21.3" height="4.3" fill="#93c5fd" stroke="#60a5fa" stroke-width="0.5"/><rect x="383.8" y="360.0" width="21.3" height="4.0" fill="#93c5fd" stroke="#60a5fa" stroke-width="0.5"/><rect x="407.1" y="358.9" width="21.3" height="5.1" fill="#93c5fd" stroke="#60a5fa" stroke-width="0.5"/><rect x="430.4" y="358.9" width="21.3" height="5.1" fill="#93c5fd" stroke="#60a5fa" stroke-width="0.5"/><rect x="453.7" y="359.7" width="21.3" height="4.3" fill="#93c5fd" stroke="#60a5fa" stroke-width="0.5"/><rect x="477.0" y="359.4" width="21.3" height="4.6" fill="#93c5fd" stroke="#60a5fa" stroke-width="0.5"/><rect x="500.2" y="359.3" width="21.3" height="4.7" fill="#93c5fd" stroke="#60a5fa" stroke-width="0.5"/><rect x="523.5" y="358.6" width="21.3" height="5.4" fill="#93c5fd" stroke="#60a5fa" stroke-width="0.5"/><rect x="546.8" y="358.7" width="21.3" height="5.3" fill="#93c5fd" stroke="#60a5fa" stroke-width="0.5"/><rect x="570.1" y="359.5" width="21.3" height="4.5" fill="#93c5fd" stroke="#60a5fa" stroke-width="0.5"/><rect x="593.4" y="358.2" width="21.3" height="5.8" fill="#93c5fd" stroke="#60a5fa" stroke-width="0.5"/><rect x="616.7" y="359.1" width="21.3" height="4.9" fill="#93c5fd" stroke="#60a5fa" stroke-width="0.5"/><rect x="640.0" y="359.1" width="21.3" height="4.9" fill="#93c5fd" stroke="#60a5fa" stroke-width="0.5"/><rect x="663.3" y="358.4" width="21.3" height="5.6" fill="#93c5fd" stroke="#60a5fa" stroke-width="0.5"/><rect x="686.6" y="358.0" width="21.3" height="6.0" fill="#93c5fd" stroke="#60a5fa" stroke-width="0.5"/><rect x="709.9" y="357.5" width="21.3" height="6.5" fill="#93c5fd" stroke="#60a5fa" stroke-width="0.5"/><rect x="733.2" y="359.8" width="21.3" height="4.2" fill="#93c5fd" stroke="#60a5fa" stroke-width="0.5"/><rect x="756.5" y="359.7" width="21.3" height="4.3" fill="#93c5fd" stroke="#60a5fa" stroke-width="0.5"/><rect x="779.8" y="358.9" width="21.3" height="5.1" fill="#93c5fd" stroke="#60a5fa" stroke-width="0.5"/><rect x="803.0" y="358.9" width="21.3" height="5.1" fill="#93c5fd" stroke="#60a5fa" stroke-width="0.5"/><rect x="826.3" y="359.5" width="21.3" height="4.5" fill="#93c5fd" stroke="#60a5fa" stroke-width="0.5"/><rect x="849.6" y="358.2" width="21.3" height="5.8" fill="#93c5fd" stroke="#60a5fa" stroke-width="0.5"/><rect x="872.9" y="358.4" width="21.3" height="5.6" fill="#93c5fd" stroke="#60a5fa" stroke-width="0.5"/><rect x="896.2" y="357.6" width="21.3" height="6.4" fill="#93c5fd" stroke="#60a5fa" stroke-width="0.5"/><rect x="919.5" y="357.8" width="21.3" height="6.2" fill="#93c5fd" stroke="#60a5fa" stroke-width="0.5"/><rect x="942.8" y="356.4" width="21.3" height="7.6" fill="#93c5fd" stroke="#60a5fa" stroke-width="0.5"/><rect x="966.1" y="359.3" width="21.3" height="4.7" fill="#93c5fd" stroke="#60a5fa" stroke-width="0.5"/><rect x="989.4" y="359.6" width="21.3" height="4.4" fill="#93c5fd" stroke="#60a5fa" stroke-width="0.5"/><rect x="1012.7" y="357.1" width="21.3" height="6.9" fill="#93c5fd" stroke="#60a5fa" stroke-width="0.5"/><rect x="1036.0" y="356.9" width="21.3" height="7.1" fill="#93c5fd" stroke="#60a5fa" stroke-width="0.5"/><rect x="1059.2" y="358.8" width="21.3" height="5.2" fill="#93c5fd" stroke="#60a5fa" stroke-width="0.5"/><rect x="1082.5" y="359.0" width="21.3" height="5.0" fill="#93c5fd" stroke="#60a5fa" stroke-width="0.5"/><rect x="1105.8" y="360.1" width="21.3" height="3.9" fill="#93c5fd" stroke="#60a5fa" stroke-width="0.5"/><rect x="1129.1" y="359.4" width="21.3" height="4.6" fill="#93c5fd" stroke="#60a5fa" stroke-width="0.5"/><rect x="1152.4" y="357.4" width="21.3" height="6.6" fill="#93c5fd" stroke="#60a5fa" stroke-width="0.5"/><rect x="1175.7" y="334.2" width="21.3" height="29.8" fill="#93c5fd" stroke="#60a5fa" stroke-width="0.5"/><polyline fill="none" stroke="#ef4444" stroke-width="2" points="91.6,354.3 114.9,351.5 138.2,183.4 161.5,182.2 184.8,180.6 208.1,179.0 231.4,178.3 254.7,175.0 278.0,173.1 301.3,171.5 324.6,169.7 347.9,167.3 371.1,165.0 394.4,162.8 417.7,160.1 441.0,157.4 464.3,155.0 487.6,152.6 510.9,150.0 534.2,147.1 557.5,144.3 580.8,141.9 604.1,138.7 627.4,136.1 650.6,133.4 673.9,130.4 697.2,127.2 720.5,123.7 743.8,121.4 767.1,119.1 790.4,116.3 813.7,113.6 837.0,111.1 860.3,108.0 883.6,105.0 906.9,101.5 930.1,98.2 953.4,94.1 976.7,91.5 1000.0,89.2 1023.3,85.5 1046.6,81.6 1069.9,78.8 1093.2,76.2 1116.5,74.0 1139.8,71.6 1163.1,68.0 1186.4,52.0"/><line x1="91.6" y1="364.0" x2="91.6" y2="370.0" stroke="#111827" stroke-width="1"/><text x="93.6" y="386.0" font-size="11" text-anchor="end" transform="rotate(-35 93.6 386.0)" font-family="sans-serif" fill="#374151">2026-02-28</text><line x1="254.7" y1="364.0" x2="254.7" y2="370.0" stroke="#111827" stroke-width="1"/><text x="256.7" y="386.0" font-size="11" text-anchor="end" transform="rotate(-35 256.7 386.0)" font-family="sans-serif" fill="#374151">2026-03-09</text><line x1="394.4" y1="364.0" x2="394.4" y2="370.0" stroke="#111827" stroke-width="1"/><text x="396.4" y="386.0" font-size="11" text-anchor="end" transform="rotate(-35 396.4 386.0)" font-family="sans-serif" fill="#374151">2026-03-15</text><line x1="557.5" y1="364.0" x2="557.5" y2="370.0" stroke="#111827" stroke-width="1"/><text x="559.5" y="386.0" font-size="11" text-anchor="end" transform="rotate(-35 559.5 386.0)" font-family="sans-serif" fill="#374151">2026-03-22</text><line x1="720.5" y1="364.0" x2="720.5" y2="370.0" stroke="#111827" stroke-width="1"/><text x="722.5" y="386.0" font-size="11" text-anchor="end" transform="rotate(-35 722.5 386.0)" font-family="sans-serif" fill="#374151">2026-03-29</text><line x1="883.6" y1="364.0" x2="883.6" y2="370.0" stroke="#111827" stroke-width="1"/><text x="885.6" y="386.0" font-size="11" text-anchor="end" transform="rotate(-35 885.6 386.0)" font-family="sans-serif" fill="#374151">2026-04-05</text><line x1="1023.3" y1="364.0" x2="1023.3" y2="370.0" stroke="#111827" stroke-width="1"/><text x="1025.3" y="386.0" font-size="11" text-anchor="end" transform="rotate(-35 1025.3 386.0)" font-family="sans-serif" fill="#374151">2026-04-11</text><line x1="1186.4" y1="364.0" x2="1186.4" y2="370.0" stroke="#111827" stroke-width="1"/><text x="1188.4" y="386.0" font-size="11" text-anchor="end" transform="rotate(-35 1188.4 386.0)" font-family="sans-serif" fill="#374151">2026-04-18</text><text x="26" y="208.0" font-size="12" transform="rotate(-90 26 208.0)" text-anchor="middle" font-family="sans-serif" fill="#1f2937">구간별 수</text><text x="1256.0" y="208.0" font-size="12" transform="rotate(90 1256.0 208.0)" text-anchor="middle" font-family="sans-serif" fill="#1f2937">누적</text><text x="639.0" y="442.0" font-size="13" text-anchor="middle" font-family="sans-serif" fill="#111827">일</text></svg>