<svg xmlns="http://www.w3.org/2000/svg" width="1280" height="460" viewBox="0 0 1280 460"><rect x="0" y="0" width="100%" height="100%" fill="#ffffff"/><text x="640.0" y="28" font-size="20" text-anchor="middle" font-family="sans-serif" fill="#111827">마켓 / 최근 반영 시점 / 일별</text><line x1="80.0" y1="52.0" x2="1198.0" y2="52.0" stroke="#e5e7eb" stroke-width="1"/><text x="72.0" y="56.0" font-size="11" text-anchor="end" font-family="sans-serif" fill="#374151">493,407</text><text x="1206.0" y="56.0" font-size="11" text-anchor="start" font-family="sans-serif" fill="#374151">941,642</text><line x1="80.0" y1="114.4" x2="1198.0" y2="114.4" stroke="#e5e7eb" stroke-width="1"/><text x="72.0" y="118.4" font-size="11" text-anchor="end" font-family="sans-serif" fill="#374151">394,726</text><text x="1206.0" y="118.4" font-size="11" text-anchor="start" font-family="sans-serif" fill="#374151">753,314</text><line x1="80.0" y1="176.8" x2="1198.0" y2="176.8" stroke="#e5e7eb" stroke-width="1"/><text x="72.0" y="180.8" font-size="11" text-anchor="end" font-family="sans-serif" fill="#374151">296,044</text><text x="1206.0" y="180.8" font-size="11" text-anchor="start" font-family="sans-serif" fill="#374151">564,985</text><line x1="80.0" y1="239.2" x2="1198.0" y2="239.2" stroke="#e5e7eb" stroke-width="1"/><text x="72.0" y="243.2" font-size="11" text-anchor="end" font-family="sans-serif" fill="#374151">197,363</text><text x="1206.0" y="243.2" font-size="11" text-anchor="start" font-family="sans-serif" fill="#374151">376,657</text><line x1="80.0" y1="301.6" x2="1198.0" y2="301.6" stroke="#e5e7eb" stroke-width="1"/><text x="72.0" y="305.6" font-size="11" text-anchor="end" font-family="sans-serif" fill="#374151">98,681</text><text x="1206.0" y="305.6" font-size="11" text-anchor="start" font-family="sans-serif" fill="#374151">188,328</text><line x1="80.0" y1="364.0" x2="1198.0" y2="364.0" stroke="#e5e7eb" stroke-width="1"/><text x="72.0" y="368.0" font-size="11" text-anchor="end" font-family="sans-serif" fill="#374151">0</text><text x="1206.0" y="368.0" font-size="11" text-anchor="start" font-family="sans-serif" fill="#374151">0</text><line x1="80.0" y1="364.0" x2="1198.0" y2="364.0" stroke="#111827" stroke-width="1.2"/><line x1="80.0" y1="52.0" x2="80.0" y2="364.0" stroke="#111827" stroke-width="1.2"/><line x1="1198.0" y1="52.0" x2="1198.0" y2="364.0" stroke="#111827" stroke-width="1.2"/><rect x="81.0" y="346.1" width="20.4" height="17.9" fill="#93c5fd" stroke="#60a5fa" stroke-width="0.5"/><rect x="103.4" y="358.6" width="20.4" height="5.4" fill="#93c5fd" stroke="#60a5fa" stroke-width="0.5"/><rect x="125.7" y="52.0" width="20.4" height="312.0" fill="#93c5fd" stroke="#60a5fa" stroke-width="0.5"/><rect x="148.1" y="361.7" width="20.4" height="2.3" fill="#93c5fd" stroke="#60a5fa" stroke-width="0.5"/><rect x="170.4" y="361.2" width="20.4" height="2.8" fill="#93c5fd" stroke="#60a5fa" stroke-width="0.5"/><rect x="192.8" y="361.0" width="20.4" height="3.0" fill="#93c5fd" stroke="#60a5fa" stroke-width="0.5"/><rect x="215.2" y="362.6" width="20.4" height="1.4" fill="#93c5fd" stroke="#60a5fa" stroke-width="0.5"/><rect x="237.5" y="357.9" width="20.4" height="6.1" fill="#93c5fd" stroke="#60a5fa" stroke-width="0.5"/><rect x="259.9" y="360.4" width="20.4" height="3.6" fill="#93c5fd" stroke="#60a5fa" stroke-width="0.5"/><rect x="282.2" y="361.1" width="20.4" height="2.9" fill="#93c5fd" stroke="#60a5fa" stroke-width="0.5"/><rect x="304.6" y="360.7" width="20.4" height="3.3" fill="#93c5fd" stroke="#60a5fa" stroke-width="0.5"/><rect x="327.0" y="359.4" width="20.4" height="4.6" fill="#93c5fd" stroke="#60a5fa" stroke-width="0.5"/><rect x="349.3" y="359.7" width="20.4" height="4.3" fill="#93c5fd" stroke="#60a5fa" stroke-width="0.5"/><rect x="371.7" y="360.0" width="20.4" height="4.0" fill="#93c5fd" stroke="#60a5fa" stroke-width="0.5"/><rect x="394.0" y="358.9" width="20.4" height="5.1" fill="#93c5fd" stroke="#60a5fa" stroke-width="0.5"/><rect x="416.4" y="358.9" width="20.4" height="5.1" fill="#93c5fd" stroke="#60a5fa" stroke-width="0.5"/><rect x="438.8" y="359.7" width="20.4" height="4.3" fill="#93c5fd" stroke="#60a5fa" stroke-width="0.5"/><rect x="461.1" y="359.4" width="20.4" height="4.6" fill="#93c5fd" stroke="#60a5fa" stroke-width="0.5"/><rect x="483.5" y="359.3" width="20.4" height="4.7" fill="#93c5fd" stroke="#60a5fa" stroke-width="0.5"/><rect x="505.8" y="358.6" width="20.4" height="5.4" fill="#93c5fd" stroke="#60a5fa" stroke-width="0.5"/><rect x="528.2" y="358.7" width="20.4" height="5.3" fill="#93c5fd" stroke="#60a5fa" stroke-width="0.5"/><rect x="550.6" y="359.5" width="20.4" height="4.5" fill="#93c5fd" stroke="#60a5fa" stroke-width="0.5"/><rect x="572.9" y="358.2" width="20.4" height="5.8" fill="#93c5fd" stroke="#60a5fa" stroke-width="0.5"/><rect x="595.3" y="359.1" width="20.4" height="4.9" fill="#93c5fd" stroke="#60a5fa" stroke-width="0.5"/><rect x="617.6" y="359.1" width="20.4" height="4.9" fill="#93c5fd" stroke="#60a5fa" stroke-width="0.5"/><rect x="640.0" y="358.4" width="20.4" height="5.6" fill="#93c5fd" stroke="#60a5fa" stroke-width="0.5"/><rect x="662.4" y="358.0" width="20.4" height="6.0" fill="#93c5fd" stroke="#60a5fa" stroke-width="0.5"/><rect x="684.7" y="357.5" width="20.4" height="6.5" fill="#93c5fd" stroke="#60a5fa" stroke-width="0.5"/><rect x="707.1" y="359.8" width="20.4" height="4.2" fill="#93c5fd" stroke="#60a5fa" stroke-width="0.5"/><rect x="729.4" y="359.7" width="20.4" height="4.3" fill="#93c5fd" stroke="#60a5fa" stroke-width="0.5"/><rect x="751.8" y="358.9" width="20.4" height="5.1" fill="#93c5fd" stroke="#60a5fa" stroke-width="0.5"/><rect x="774.2" y="358.9" width="20.4" height="5.1" fill="#93c5fd" stroke="#60a5fa" stroke-width="0.5"/><rect x="796.5" y="359.5" width="20.4" height="4.5" fill="#93c5fd" stroke="#60a5fa" stroke-width="0.5"/><rect x="818.9" y="358.2" width="20.4" height="5.8" fill="#93c5fd" stroke="#60a5fa" stroke-width="0.5"/><rect x="841.2" y="358.4" width="20.4" height="5.6" fill="#93c5fd" stroke="#60a5fa" stroke-width="0.5"/><rect x="863.6" y="357.6" width="20.4" height="6.4" fill="#93c5fd" stroke="#60a5fa" stroke-width="0.5"/><rect x="886.0" y="357.8" width="20.4" height="6.2" fill="#93c5fd" stroke="#60a5fa" stroke-width="0.5"/><rect x="908.3" y="356.4" width="20.4" height="7.6" fill="#93c5fd" stroke="#60a5fa" stroke-width="0.5"/><rect x="930.7" y="359.3" width="20.4" height="4.7" fill="#93c5fd" stroke="#60a5fa" stroke-width="0.5"/><rect x="953.0" y="359.6" width="20.4" height="4.4" fill="#93c5fd" stroke="#60a5fa" stroke-width="0.5"/><rect x="975.4" y="357.1" width="20.4" height="6.9" fill="#93c5fd" stroke="#60a5fa" stroke-width="0.5"/><rect x="997.8" y="356.9" width="20.4" height="7.1" fill="#93c5fd" stroke="#60a5fa" stroke-width="0.5"/><rect x="1020.1" y="358.8" width="20.4" height="5.2" fill="#93c5fd" stroke="#60a5fa" stroke-width="0.5"/><rect x="1042.5" y="359.0" width="20.4" height="5.0" fill="#93c5fd" stroke="#60a5fa" stroke-width="0.5"/><rect x="1064.8" y="360.1" width="20.4" height="3.9" fill="#93c5fd" stroke="#60a5fa" stroke-width="0.5"/><rect x="1087.2" y="359.4" width="20.4" height="4.6" fill="#93c5fd" stroke="#60a5fa" stroke-width="0.5"/><rect x="1109.6" y="359.5" width="20.4" height="4.5" fill="#93c5fd" stroke="#60a5fa" stroke-width="0.5"/><rect x="1131.9" y="357.5" width="20.4" height="6.5" fill="#93c5fd" stroke="#60a5fa" stroke-width="0.5"/><rect x="1154.3" y="358.0" width="20.4" height="6.0" fill="#93c5fd" stroke="#60a5fa" stroke-width="0.5"/><rect x="1176.6" y="328.5" width="20.4" height="35.5" fill="#93c5fd" stroke="#60a5fa" stroke-width="0.5"/><polyline fill="none" stroke="#ef4444" stroke-width="2" points="91.2,354.6 113.5,351.8 135.9,188.3 158.3,187.1 180.6,185.6 203.0,184.1 225.3,183.3 247.7,180.1 270.1,178.3 292.4,176.7 314.8,175.0 337.1,172.6 359.5,170.4 381.9,168.3 404.2,165.6 426.6,163.0 448.9,160.7 471.3,158.3 493.7,155.8 516.0,153.0 538.4,150.3 560.7,147.9 583.1,144.9 605.5,142.3 627.8,139.7 650.2,136.8 672.5,133.6 694.9,130.2 717.3,128.0 739.6,125.7 762.0,123.1 784.3,120.4 806.7,118.0 829.1,115.0 851.4,112.0 873.8,108.7 896.1,105.4 918.5,101.4 940.9,98.9 963.2,96.6 985.6,93.0 1007.9,89.3 1030.3,86.6 1052.7,84.0 1075.0,81.9 1097.4,79.5 1119.7,77.2 1142.1,73.8 1164.5,70.6 1186.8,52.0"/><line x1="91.2" y1="364.0" x2="91.2" y2="370.0" stroke="#111827" stroke-width="1"/><text x="93.2" y="386.0" font-size="11" text-anchor="end" transform="rotate(-35 93.2 386.0)" font-family="sans-serif" fill="#374151">2026-02-28</text><line x1="247.7" y1="364.0" x2="247.7" y2="370.0" stroke="#111827" stroke-width="1"/><text x="249.7" y="386.0" font-size="11" text-anchor="end" transform="rotate(-35 249.7 386.0)" font-family="sans-serif" fill="#374151">2026-03-09</text><line x1="404.2" y1="364.0" x2="404.2" y2="370.0" stroke="#111827" stroke-width="1"/><text x="406.2" y="386.0" font-size="11" text-anchor="end" transform="rotate(-35 406.2 386.0)" font-family="sans-serif" fill="#374151">2026-03-16</text><line x1="560.7" y1="364.0" x2="560.7" y2="370.0" stroke="#111827" stroke-width="1"/><text x="562.7" y="386.0" font-size="11" text-anchor="end" transform="rotate(-35 562.7 386.0)" font-family="sans-serif" fill="#374151">2026-03-23</text><line x1="717.3" y1="364.0" x2="717.3" y2="370.0" stroke="#111827" stroke-width="1"/><text x="719.3" y="386.0" font-size="11" text-anchor="end" transform="rotate(-35 719.3 386.0)" font-family="sans-serif" fill="#374151">2026-03-30</text><line x1="873.8" y1="364.0" x2="873.8" y2="370.0" stroke="#111827" stroke-width="1"/><text x="875.8" y="386.0" font-size="11" text-anchor="end" transform="rotate(-35 875.8 386.0)" font-family="sans-serif" fill="#374151">2026-04-06</text><line x1="1030.3" y1="364.0" x2="1030.3" y2="370.0" stroke="#111827" stroke-width="1"/><text x="1032.3" y="386.0" font-size="11" text-anchor="end" transform="rotate(-35 1032.3 386.0)" font-family="sans-serif" fill="#374151">2026-04-13</text><line x1="1186.8" y1="364.0" x2="1186.8" y2="370.0" stroke="#111827" stroke-width="1"/><text x="1188.8" y="386.0" font-size="11" text-anchor="end" transform="rotate(-35 1188.8 386.0)" font-family="sans-serif" fill="#374151">2026-04-20</text><text x="26" y="208.0" font-size="12" transform="rotate(-90 26 208.0)" text-anchor="middle" font-family="sans-serif" fill="#1f2937">구간별 수</text><text x="1256.0" y="208.0" font-size="12" transform="rotate(90 1256.0 208.0)" text-anchor="middle" font-family="sans-serif" fill="#1f2937">누적</text><text x="639.0" y="442.0" font-size="13" text-anchor="middle" font-family="sans-serif" fill="#111827">일</text></svg>