<svg xmlns="http://www.w3.org/2000/svg" width="1280" height="460" viewBox="0 0 1280 460"><rect x="0" y="0" width="100%" height="100%" fill="#ffffff"/><text x="640.0" y="28" font-size="20" text-anchor="middle" font-family="sans-serif" fill="#111827">마켓 / 최근 반영 시점 / 일별</text><line x1="80.0" y1="52.0" x2="1198.0" y2="52.0" stroke="#e5e7eb" stroke-width="1"/><text x="72.0" y="56.0" font-size="11" text-anchor="end" font-family="sans-serif" fill="#374151">493,407</text><text x="1206.0" y="56.0" font-size="11" text-anchor="start" font-family="sans-serif" fill="#374151">910,317</text><line x1="80.0" y1="114.4" x2="1198.0" y2="114.4" stroke="#e5e7eb" stroke-width="1"/><text x="72.0" y="118.4" font-size="11" text-anchor="end" font-family="sans-serif" fill="#374151">394,726</text><text x="1206.0" y="118.4" font-size="11" text-anchor="start" font-family="sans-serif" fill="#374151">728,254</text><line x1="80.0" y1="176.8" x2="1198.0" y2="176.8" stroke="#e5e7eb" stroke-width="1"/><text x="72.0" y="180.8" font-size="11" text-anchor="end" font-family="sans-serif" fill="#374151">296,044</text><text x="1206.0" y="180.8" font-size="11" text-anchor="start" font-family="sans-serif" fill="#374151">546,190</text><line x1="80.0" y1="239.2" x2="1198.0" y2="239.2" stroke="#e5e7eb" stroke-width="1"/><text x="72.0" y="243.2" font-size="11" text-anchor="end" font-family="sans-serif" fill="#374151">197,363</text><text x="1206.0" y="243.2" font-size="11" text-anchor="start" font-family="sans-serif" fill="#374151">364,127</text><line x1="80.0" y1="301.6" x2="1198.0" y2="301.6" stroke="#e5e7eb" stroke-width="1"/><text x="72.0" y="305.6" font-size="11" text-anchor="end" font-family="sans-serif" fill="#374151">98,681</text><text x="1206.0" y="305.6" font-size="11" text-anchor="start" font-family="sans-serif" fill="#374151">182,063</text><line x1="80.0" y1="364.0" x2="1198.0" y2="364.0" stroke="#e5e7eb" stroke-width="1"/><text x="72.0" y="368.0" font-size="11" text-anchor="end" font-family="sans-serif" fill="#374151">0</text><text x="1206.0" y="368.0" font-size="11" text-anchor="start" font-family="sans-serif" fill="#374151">0</text><line x1="80.0" y1="364.0" x2="1198.0" y2="364.0" stroke="#111827" stroke-width="1.2"/><line x1="80.0" y1="52.0" x2="80.0" y2="364.0" stroke="#111827" stroke-width="1.2"/><line x1="1198.0" y1="52.0" x2="1198.0" y2="364.0" stroke="#111827" stroke-width="1.2"/><rect x="81.0" y="346.1" width="21.8" height="17.9" fill="#93c5fd" stroke="#60a5fa" stroke-width="0.5"/><rect x="104.8" y="358.6" width="21.8" height="5.4" fill="#93c5fd" stroke="#60a5fa" stroke-width="0.5"/><rect x="128.6" y="52.0" width="21.8" height="312.0" fill="#93c5fd" stroke="#60a5fa" stroke-width="0.5"/><rect x="152.4" y="361.7" width="21.8" height="2.3" fill="#93c5fd" stroke="#60a5fa" stroke-width="0.5"/><rect x="176.1" y="361.2" width="21.8" height="2.8" fill="#93c5fd" stroke="#60a5fa" stroke-width="0.5"/><rect x="199.9" y="361.0" width="21.8" height="3.0" fill="#93c5fd" stroke="#60a5fa" stroke-width="0.5"/><rect x="223.7" y="362.6" width="21.8" height="1.4" fill="#93c5fd" stroke="#60a5fa" stroke-width="0.5"/><rect x="247.5" y="357.9" width="21.8" height="6.1" fill="#93c5fd" stroke="#60a5fa" stroke-width="0.5"/><rect x="271.3" y="360.4" width="21.8" height="3.6" fill="#93c5fd" stroke="#60a5fa" stroke-width="0.5"/><rect x="295.1" y="361.1" width="21.8" height="2.9" fill="#93c5fd" stroke="#60a5fa" stroke-width="0.5"/><rect x="318.9" y="360.7" width="21.8" height="3.3" fill="#93c5fd" stroke="#60a5fa" stroke-width="0.5"/><rect x="342.7" y="359.4" width="21.8" height="4.6" fill="#93c5fd" stroke="#60a5fa" stroke-width="0.5"/><rect x="366.4" y="359.7" width="21.8" height="4.3" fill="#93c5fd" stroke="#60a5fa" stroke-width="0.5"/><rect x="390.2" y="360.0" width="21.8" height="4.0" fill="#93c5fd" stroke="#60a5fa" stroke-width="0.5"/><rect x="414.0" y="358.9" width="21.8" height="5.1" fill="#93c5fd" stroke="#60a5fa" stroke-width="0.5"/><rect x="437.8" y="358.9" width="21.8" height="5.1" fill="#93c5fd" stroke="#60a5fa" stroke-width="0.5"/><rect x="461.6" y="359.7" width="21.8" height="4.3" fill="#93c5fd" stroke="#60a5fa" stroke-width="0.5"/><rect x="485.4" y="359.4" width="21.8" height="4.6" fill="#93c5fd" stroke="#60a5fa" stroke-width="0.5"/><rect x="509.2" y="359.3" width="21.8" height="4.7" fill="#93c5fd" stroke="#60a5fa" stroke-width="0.5"/><rect x="533.0" y="358.6" width="21.8" height="5.4" fill="#93c5fd" stroke="#60a5fa" stroke-width="0.5"/><rect x="556.7" y="358.7" width="21.8" height="5.3" fill="#93c5fd" stroke="#60a5fa" stroke-width="0.5"/><rect x="580.5" y="359.5" width="21.8" height="4.5" fill="#93c5fd" stroke="#60a5fa" stroke-width="0.5"/><rect x="604.3" y="358.2" width="21.8" height="5.8" fill="#93c5fd" stroke="#60a5fa" stroke-width="0.5"/><rect x="628.1" y="359.1" width="21.8" height="4.9" fill="#93c5fd" stroke="#60a5fa" stroke-width="0.5"/><rect x="651.9" y="359.1" width="21.8" height="4.9" fill="#93c5fd" stroke="#60a5fa" stroke-width="0.5"/><rect x="675.7" y="358.4" width="21.8" height="5.6" fill="#93c5fd" stroke="#60a5fa" stroke-width="0.5"/><rect x="699.5" y="358.0" width="21.8" height="6.0" fill="#93c5fd" stroke="#60a5fa" stroke-width="0.5"/><rect x="723.3" y="357.5" width="21.8" height="6.5" fill="#93c5fd" stroke="#60a5fa" stroke-width="0.5"/><rect x="747.0" y="359.8" width="21.8" height="4.2" fill="#93c5fd" stroke="#60a5fa" stroke-width="0.5"/><rect x="770.8" y="359.7" width="21.8" height="4.3" fill="#93c5fd" stroke="#60a5fa" stroke-width="0.5"/><rect x="794.6" y="358.9" width="21.8" height="5.1" fill="#93c5fd" stroke="#60a5fa" stroke-width="0.5"/><rect x="818.4" y="358.9" width="21.8" height="5.1" fill="#93c5fd" stroke="#60a5fa" stroke-width="0.5"/><rect x="842.2" y="359.5" width="21.8" height="4.5" fill="#93c5fd" stroke="#60a5fa" stroke-width="0.5"/><rect x="866.0" y="358.2" width="21.8" height="5.8" fill="#93c5fd" stroke="#60a5fa" stroke-width="0.5"/><rect x="889.8" y="358.4" width="21.8" height="5.6" fill="#93c5fd" stroke="#60a5fa" stroke-width="0.5"/><rect x="913.6" y="357.6" width="21.8" height="6.4" fill="#93c5fd" stroke="#60a5fa" stroke-width="0.5"/><rect x="937.3" y="357.8" width="21.8" height="6.2" fill="#93c5fd" stroke="#60a5fa" stroke-width="0.5"/><rect x="961.1" y="356.4" width="21.8" height="7.6" fill="#93c5fd" stroke="#60a5fa" stroke-width="0.5"/><rect x="984.9" y="359.3" width="21.8" height="4.7" fill="#93c5fd" stroke="#60a5fa" stroke-width="0.5"/><rect x="1008.7" y="359.6" width="21.8" height="4.4" fill="#93c5fd" stroke="#60a5fa" stroke-width="0.5"/><rect x="1032.5" y="357.1" width="21.8" height="6.9" fill="#93c5fd" stroke="#60a5fa" stroke-width="0.5"/><rect x="1056.3" y="356.9" width="21.8" height="7.1" fill="#93c5fd" stroke="#60a5fa" stroke-width="0.5"/><rect x="1080.1" y="358.8" width="21.8" height="5.2" fill="#93c5fd" stroke="#60a5fa" stroke-width="0.5"/><rect x="1103.9" y="359.0" width="21.8" height="5.0" fill="#93c5fd" stroke="#60a5fa" stroke-width="0.5"/><rect x="1127.6" y="360.1" width="21.8" height="3.9" fill="#93c5fd" stroke="#60a5fa" stroke-width="0.5"/><rect x="1151.4" y="359.4" width="21.8" height="4.6" fill="#93c5fd" stroke="#60a5fa" stroke-width="0.5"/><rect x="1175.2" y="331.3" width="21.8" height="32.7" fill="#93c5fd" stroke="#60a5fa" stroke-width="0.5"/><polyline fill="none" stroke="#ef4444" stroke-width="2" points="91.9,354.3 115.7,351.4 139.5,182.3 163.3,181.0 187.0,179.5 210.8,177.9 234.6,177.1 258.4,173.8 282.2,171.9 306.0,170.3 329.8,168.5 353.6,166.0 377.3,163.7 401.1,161.6 424.9,158.8 448.7,156.1 472.5,153.7 496.3,151.2 520.1,148.7 543.9,145.8 567.6,142.9 591.4,140.5 615.2,137.3 639.0,134.6 662.8,132.0 686.6,128.9 710.4,125.7 734.1,122.2 757.9,119.9 781.7,117.5 805.5,114.8 829.3,112.0 853.1,109.5 876.9,106.4 900.7,103.3 924.4,99.9 948.2,96.5 972.0,92.4 995.8,89.8 1019.6,87.4 1043.4,83.7 1067.2,79.8 1091.0,77.0 1114.7,74.3 1138.5,72.2 1162.3,69.7 1186.1,52.0"/><line x1="91.9" y1="364.0" x2="91.9" y2="370.0" stroke="#111827" stroke-width="1"/><text x="93.9" y="386.0" font-size="11" text-anchor="end" transform="rotate(-35 93.9 386.0)" font-family="sans-serif" fill="#374151">2026-02-28</text><line x1="258.4" y1="364.0" x2="258.4" y2="370.0" stroke="#111827" stroke-width="1"/><text x="260.4" y="386.0" font-size="11" text-anchor="end" transform="rotate(-35 260.4 386.0)" font-family="sans-serif" fill="#374151">2026-03-09</text><line x1="401.1" y1="364.0" x2="401.1" y2="370.0" stroke="#111827" stroke-width="1"/><text x="403.1" y="386.0" font-size="11" text-anchor="end" transform="rotate(-35 403.1 386.0)" font-family="sans-serif" fill="#374151">2026-03-15</text><line x1="567.6" y1="364.0" x2="567.6" y2="370.0" stroke="#111827" stroke-width="1"/><text x="569.6" y="386.0" font-size="11" text-anchor="end" transform="rotate(-35 569.6 386.0)" font-family="sans-serif" fill="#374151">2026-03-22</text><line x1="710.4" y1="364.0" x2="710.4" y2="370.0" stroke="#111827" stroke-width="1"/><text x="712.4" y="386.0" font-size="11" text-anchor="end" transform="rotate(-35 712.4 386.0)" font-family="sans-serif" fill="#374151">2026-03-28</text><line x1="876.9" y1="364.0" x2="876.9" y2="370.0" stroke="#111827" stroke-width="1"/><text x="878.9" y="386.0" font-size="11" text-anchor="end" transform="rotate(-35 878.9 386.0)" font-family="sans-serif" fill="#374151">2026-04-04</text><line x1="1019.6" y1="364.0" x2="1019.6" y2="370.0" stroke="#111827" stroke-width="1"/><text x="1021.6" y="386.0" font-size="11" text-anchor="end" transform="rotate(-35 1021.6 386.0)" font-family="sans-serif" fill="#374151">2026-04-10</text><line x1="1186.1" y1="364.0" x2="1186.1" y2="370.0" stroke="#111827" stroke-width="1"/><text x="1188.1" y="386.0" font-size="11" text-anchor="end" transform="rotate(-35 1188.1 386.0)" font-family="sans-serif" fill="#374151">2026-04-17</text><text x="26" y="208.0" font-size="12" transform="rotate(-90 26 208.0)" text-anchor="middle" font-family="sans-serif" fill="#1f2937">구간별 수</text><text x="1256.0" y="208.0" font-size="12" transform="rotate(90 1256.0 208.0)" text-anchor="middle" font-family="sans-serif" fill="#1f2937">누적</text><text x="639.0" y="442.0" font-size="13" text-anchor="middle" font-family="sans-serif" fill="#111827">일</text></svg>