<svg xmlns="http://www.w3.org/2000/svg" width="1280" height="460" viewBox="0 0 1280 460"><rect x="0" y="0" width="100%" height="100%" fill="#ffffff"/><text x="640.0" y="28" font-size="20" text-anchor="middle" font-family="sans-serif" fill="#111827">마켓 / 최근 반영 시점 / 일별</text><line x1="80.0" y1="52.0" x2="1198.0" y2="52.0" stroke="#e5e7eb" stroke-width="1"/><text x="72.0" y="56.0" font-size="11" text-anchor="end" font-family="sans-serif" fill="#374151">493,407</text><text x="1206.0" y="56.0" font-size="11" text-anchor="start" font-family="sans-serif" fill="#374151">986,682</text><line x1="80.0" y1="114.4" x2="1198.0" y2="114.4" stroke="#e5e7eb" stroke-width="1"/><text x="72.0" y="118.4" font-size="11" text-anchor="end" font-family="sans-serif" fill="#374151">394,726</text><text x="1206.0" y="118.4" font-size="11" text-anchor="start" font-family="sans-serif" fill="#374151">789,346</text><line x1="80.0" y1="176.8" x2="1198.0" y2="176.8" stroke="#e5e7eb" stroke-width="1"/><text x="72.0" y="180.8" font-size="11" text-anchor="end" font-family="sans-serif" fill="#374151">296,044</text><text x="1206.0" y="180.8" font-size="11" text-anchor="start" font-family="sans-serif" fill="#374151">592,009</text><line x1="80.0" y1="239.2" x2="1198.0" y2="239.2" stroke="#e5e7eb" stroke-width="1"/><text x="72.0" y="243.2" font-size="11" text-anchor="end" font-family="sans-serif" fill="#374151">197,363</text><text x="1206.0" y="243.2" font-size="11" text-anchor="start" font-family="sans-serif" fill="#374151">394,673</text><line x1="80.0" y1="301.6" x2="1198.0" y2="301.6" stroke="#e5e7eb" stroke-width="1"/><text x="72.0" y="305.6" font-size="11" text-anchor="end" font-family="sans-serif" fill="#374151">98,681</text><text x="1206.0" y="305.6" font-size="11" text-anchor="start" font-family="sans-serif" fill="#374151">197,336</text><line x1="80.0" y1="364.0" x2="1198.0" y2="364.0" stroke="#e5e7eb" stroke-width="1"/><text x="72.0" y="368.0" font-size="11" text-anchor="end" font-family="sans-serif" fill="#374151">0</text><text x="1206.0" y="368.0" font-size="11" text-anchor="start" font-family="sans-serif" fill="#374151">0</text><line x1="80.0" y1="364.0" x2="1198.0" y2="364.0" stroke="#111827" stroke-width="1.2"/><line x1="80.0" y1="52.0" x2="80.0" y2="364.0" stroke="#111827" stroke-width="1.2"/><line x1="1198.0" y1="52.0" x2="1198.0" y2="364.0" stroke="#111827" stroke-width="1.2"/><rect x="81.0" y="346.1" width="18.0" height="17.9" fill="#93c5fd" stroke="#60a5fa" stroke-width="0.5"/><rect x="101.0" y="358.6" width="18.0" height="5.4" fill="#93c5fd" stroke="#60a5fa" stroke-width="0.5"/><rect x="120.9" y="52.0" width="18.0" height="312.0" fill="#93c5fd" stroke="#60a5fa" stroke-width="0.5"/><rect x="140.9" y="361.7" width="18.0" height="2.3" fill="#93c5fd" stroke="#60a5fa" stroke-width="0.5"/><rect x="160.9" y="361.2" width="18.0" height="2.8" fill="#93c5fd" stroke="#60a5fa" stroke-width="0.5"/><rect x="180.8" y="361.0" width="18.0" height="3.0" fill="#93c5fd" stroke="#60a5fa" stroke-width="0.5"/><rect x="200.8" y="362.6" width="18.0" height="1.4" fill="#93c5fd" stroke="#60a5fa" stroke-width="0.5"/><rect x="220.8" y="357.9" width="18.0" height="6.1" fill="#93c5fd" stroke="#60a5fa" stroke-width="0.5"/><rect x="240.7" y="360.4" width="18.0" height="3.6" fill="#93c5fd" stroke="#60a5fa" stroke-width="0.5"/><rect x="260.7" y="361.1" width="18.0" height="2.9" fill="#93c5fd" stroke="#60a5fa" stroke-width="0.5"/><rect x="280.6" y="360.7" width="18.0" height="3.3" fill="#93c5fd" stroke="#60a5fa" stroke-width="0.5"/><rect x="300.6" y="359.4" width="18.0" height="4.6" fill="#93c5fd" stroke="#60a5fa" stroke-width="0.5"/><rect x="320.6" y="359.7" width="18.0" height="4.3" fill="#93c5fd" stroke="#60a5fa" stroke-width="0.5"/><rect x="340.5" y="360.0" width="18.0" height="4.0" fill="#93c5fd" stroke="#60a5fa" stroke-width="0.5"/><rect x="360.5" y="358.9" width="18.0" height="5.1" fill="#93c5fd" stroke="#60a5fa" stroke-width="0.5"/><rect x="380.5" y="358.9" width="18.0" height="5.1" fill="#93c5fd" stroke="#60a5fa" stroke-width="0.5"/><rect x="400.4" y="359.7" width="18.0" height="4.3" fill="#93c5fd" stroke="#60a5fa" stroke-width="0.5"/><rect x="420.4" y="359.4" width="18.0" height="4.6" fill="#93c5fd" stroke="#60a5fa" stroke-width="0.5"/><rect x="440.4" y="359.3" width="18.0" height="4.7" fill="#93c5fd" stroke="#60a5fa" stroke-width="0.5"/><rect x="460.3" y="358.6" width="18.0" height="5.4" fill="#93c5fd" stroke="#60a5fa" stroke-width="0.5"/><rect x="480.3" y="358.7" width="18.0" height="5.3" fill="#93c5fd" stroke="#60a5fa" stroke-width="0.5"/><rect x="500.2" y="359.5" width="18.0" height="4.5" fill="#93c5fd" stroke="#60a5fa" stroke-width="0.5"/><rect x="520.2" y="358.2" width="18.0" height="5.8" fill="#93c5fd" stroke="#60a5fa" stroke-width="0.5"/><rect x="540.2" y="359.1" width="18.0" height="4.9" fill="#93c5fd" stroke="#60a5fa" stroke-width="0.5"/><rect x="560.1" y="359.1" width="18.0" height="4.9" fill="#93c5fd" stroke="#60a5fa" stroke-width="0.5"/><rect x="580.1" y="358.4" width="18.0" height="5.6" fill="#93c5fd" stroke="#60a5fa" stroke-width="0.5"/><rect x="600.1" y="358.0" width="18.0" height="6.0" fill="#93c5fd" stroke="#60a5fa" stroke-width="0.5"/><rect x="620.0" y="357.5" width="18.0" height="6.5" fill="#93c5fd" stroke="#60a5fa" stroke-width="0.5"/><rect x="640.0" y="359.8" width="18.0" height="4.2" fill="#93c5fd" stroke="#60a5fa" stroke-width="0.5"/><rect x="660.0" y="359.7" width="18.0" height="4.3" fill="#93c5fd" stroke="#60a5fa" stroke-width="0.5"/><rect x="679.9" y="358.9" width="18.0" height="5.1" fill="#93c5fd" stroke="#60a5fa" stroke-width="0.5"/><rect x="699.9" y="358.9" width="18.0" height="5.1" fill="#93c5fd" stroke="#60a5fa" stroke-width="0.5"/><rect x="719.9" y="359.5" width="18.0" height="4.5" fill="#93c5fd" stroke="#60a5fa" stroke-width="0.5"/><rect x="739.8" y="358.2" width="18.0" height="5.8" fill="#93c5fd" stroke="#60a5fa" stroke-width="0.5"/><rect x="759.8" y="358.4" width="18.0" height="5.6" fill="#93c5fd" stroke="#60a5fa" stroke-width="0.5"/><rect x="779.8" y="357.6" width="18.0" height="6.4" fill="#93c5fd" stroke="#60a5fa" stroke-width="0.5"/><rect x="799.7" y="357.8" width="18.0" height="6.2" fill="#93c5fd" stroke="#60a5fa" stroke-width="0.5"/><rect x="819.7" y="356.4" width="18.0" height="7.6" fill="#93c5fd" stroke="#60a5fa" stroke-width="0.5"/><rect x="839.6" y="359.3" width="18.0" height="4.7" fill="#93c5fd" stroke="#60a5fa" stroke-width="0.5"/><rect x="859.6" y="359.6" width="18.0" height="4.4" fill="#93c5fd" stroke="#60a5fa" stroke-width="0.5"/><rect x="879.6" y="357.1" width="18.0" height="6.9" fill="#93c5fd" stroke="#60a5fa" stroke-width="0.5"/><rect x="899.5" y="356.9" width="18.0" height="7.1" fill="#93c5fd" stroke="#60a5fa" stroke-width="0.5"/><rect x="919.5" y="358.8" width="18.0" height="5.2" fill="#93c5fd" stroke="#60a5fa" stroke-width="0.5"/><rect x="939.5" y="359.0" width="18.0" height="5.0" fill="#93c5fd" stroke="#60a5fa" stroke-width="0.5"/><rect x="959.4" y="360.1" width="18.0" height="3.9" fill="#93c5fd" stroke="#60a5fa" stroke-width="0.5"/><rect x="979.4" y="359.4" width="18.0" height="4.6" fill="#93c5fd" stroke="#60a5fa" stroke-width="0.5"/><rect x="999.4" y="359.5" width="18.0" height="4.5" fill="#93c5fd" stroke="#60a5fa" stroke-width="0.5"/><rect x="1019.3" y="357.5" width="18.0" height="6.5" fill="#93c5fd" stroke="#60a5fa" stroke-width="0.5"/><rect x="1039.3" y="358.0" width="18.0" height="6.0" fill="#93c5fd" stroke="#60a5fa" stroke-width="0.5"/><rect x="1059.2" y="359.0" width="18.0" height="5.0" fill="#93c5fd" stroke="#60a5fa" stroke-width="0.5"/><rect x="1079.2" y="359.5" width="18.0" height="4.5" fill="#93c5fd" stroke="#60a5fa" stroke-width="0.5"/><rect x="1099.2" y="358.7" width="18.0" height="5.3" fill="#93c5fd" stroke="#60a5fa" stroke-width="0.5"/><rect x="1119.1" y="358.8" width="18.0" height="5.2" fill="#93c5fd" stroke="#60a5fa" stroke-width="0.5"/><rect x="1139.1" y="358.7" width="18.0" height="5.3" fill="#93c5fd" stroke="#60a5fa" stroke-width="0.5"/><rect x="1159.1" y="356.9" width="18.0" height="7.1" fill="#93c5fd" stroke="#60a5fa" stroke-width="0.5"/><rect x="1179.0" y="332.4" width="18.0" height="31.6" fill="#93c5fd" stroke="#60a5fa" stroke-width="0.5"/><polyline fill="none" stroke="#ef4444" stroke-width="2" points="90.0,355.0 109.9,352.4 129.9,196.3 149.9,195.2 169.8,193.8 189.8,192.3 209.8,191.6 229.7,188.5 249.7,186.8 269.7,185.3 289.6,183.7 309.6,181.4 329.6,179.2 349.5,177.2 369.5,174.7 389.4,172.1 409.4,170.0 429.4,167.7 449.3,165.3 469.3,162.6 489.3,160.0 509.2,157.8 529.2,154.9 549.2,152.4 569.1,149.9 589.1,147.1 609.1,144.1 629.0,140.9 649.0,138.8 668.9,136.6 688.9,134.1 708.9,131.5 728.8,129.2 748.8,126.3 768.8,123.5 788.7,120.3 808.7,117.2 828.7,113.4 848.6,111.0 868.6,108.8 888.6,105.4 908.5,101.8 928.5,99.2 948.4,96.8 968.4,94.8 988.4,92.5 1008.3,90.3 1028.3,87.0 1048.3,84.0 1068.2,81.5 1088.2,79.2 1108.2,76.6 1128.1,74.0 1148.1,71.4 1168.1,67.8 1188.0,52.0"/><line x1="90.0" y1="364.0" x2="90.0" y2="370.0" stroke="#111827" stroke-width="1"/><text x="92.0" y="386.0" font-size="11" text-anchor="end" transform="rotate(-35 92.0 386.0)" font-family="sans-serif" fill="#374151">2026-02-28</text><line x1="249.7" y1="364.0" x2="249.7" y2="370.0" stroke="#111827" stroke-width="1"/><text x="251.7" y="386.0" font-size="11" text-anchor="end" transform="rotate(-35 251.7 386.0)" font-family="sans-serif" fill="#374151">2026-03-10</text><line x1="409.4" y1="364.0" x2="409.4" y2="370.0" stroke="#111827" stroke-width="1"/><text x="411.4" y="386.0" font-size="11" text-anchor="end" transform="rotate(-35 411.4 386.0)" font-family="sans-serif" fill="#374151">2026-03-18</text><line x1="569.1" y1="364.0" x2="569.1" y2="370.0" stroke="#111827" stroke-width="1"/><text x="571.1" y="386.0" font-size="11" text-anchor="end" transform="rotate(-35 571.1 386.0)" font-family="sans-serif" fill="#374151">2026-03-26</text><line x1="708.9" y1="364.0" x2="708.9" y2="370.0" stroke="#111827" stroke-width="1"/><text x="710.9" y="386.0" font-size="11" text-anchor="end" transform="rotate(-35 710.9 386.0)" font-family="sans-serif" fill="#374151">2026-04-02</text><line x1="868.6" y1="364.0" x2="868.6" y2="370.0" stroke="#111827" stroke-width="1"/><text x="870.6" y="386.0" font-size="11" text-anchor="end" transform="rotate(-35 870.6 386.0)" font-family="sans-serif" fill="#374151">2026-04-10</text><line x1="1028.3" y1="364.0" x2="1028.3" y2="370.0" stroke="#111827" stroke-width="1"/><text x="1030.3" y="386.0" font-size="11" text-anchor="end" transform="rotate(-35 1030.3 386.0)" font-family="sans-serif" fill="#374151">2026-04-18</text><line x1="1188.0" y1="364.0" x2="1188.0" y2="370.0" stroke="#111827" stroke-width="1"/><text x="1190.0" y="386.0" font-size="11" text-anchor="end" transform="rotate(-35 1190.0 386.0)" font-family="sans-serif" fill="#374151">2026-04-26</text><text x="26" y="208.0" font-size="12" transform="rotate(-90 26 208.0)" text-anchor="middle" font-family="sans-serif" fill="#1f2937">구간별 수</text><text x="1256.0" y="208.0" font-size="12" transform="rotate(90 1256.0 208.0)" text-anchor="middle" font-family="sans-serif" fill="#1f2937">누적</text><text x="639.0" y="442.0" font-size="13" text-anchor="middle" font-family="sans-serif" fill="#111827">일</text></svg>