<svg xmlns="http://www.w3.org/2000/svg" width="1280" height="460" viewBox="0 0 1280 460"><rect x="0" y="0" width="100%" height="100%" fill="#ffffff"/><text x="640.0" y="28" font-size="20" text-anchor="middle" font-family="sans-serif" fill="#111827">마켓 / 최근 반영 시점 / 일별</text><line x1="80.0" y1="52.0" x2="1198.0" y2="52.0" stroke="#e5e7eb" stroke-width="1"/><text x="72.0" y="56.0" font-size="11" text-anchor="end" font-family="sans-serif" fill="#374151">493,371</text><text x="1206.0" y="56.0" font-size="11" text-anchor="start" font-family="sans-serif" fill="#374151">1,008,835</text><line x1="80.0" y1="114.4" x2="1198.0" y2="114.4" stroke="#e5e7eb" stroke-width="1"/><text x="72.0" y="118.4" font-size="11" text-anchor="end" font-family="sans-serif" fill="#374151">394,697</text><text x="1206.0" y="118.4" font-size="11" text-anchor="start" font-family="sans-serif" fill="#374151">807,068</text><line x1="80.0" y1="176.8" x2="1198.0" y2="176.8" stroke="#e5e7eb" stroke-width="1"/><text x="72.0" y="180.8" font-size="11" text-anchor="end" font-family="sans-serif" fill="#374151">296,023</text><text x="1206.0" y="180.8" font-size="11" text-anchor="start" font-family="sans-serif" fill="#374151">605,301</text><line x1="80.0" y1="239.2" x2="1198.0" y2="239.2" stroke="#e5e7eb" stroke-width="1"/><text x="72.0" y="243.2" font-size="11" text-anchor="end" font-family="sans-serif" fill="#374151">197,348</text><text x="1206.0" y="243.2" font-size="11" text-anchor="start" font-family="sans-serif" fill="#374151">403,534</text><line x1="80.0" y1="301.6" x2="1198.0" y2="301.6" stroke="#e5e7eb" stroke-width="1"/><text x="72.0" y="305.6" font-size="11" text-anchor="end" font-family="sans-serif" fill="#374151">98,674</text><text x="1206.0" y="305.6" font-size="11" text-anchor="start" font-family="sans-serif" fill="#374151">201,767</text><line x1="80.0" y1="364.0" x2="1198.0" y2="364.0" stroke="#e5e7eb" stroke-width="1"/><text x="72.0" y="368.0" font-size="11" text-anchor="end" font-family="sans-serif" fill="#374151">0</text><text x="1206.0" y="368.0" font-size="11" text-anchor="start" font-family="sans-serif" fill="#374151">0</text><line x1="80.0" y1="364.0" x2="1198.0" y2="364.0" stroke="#111827" stroke-width="1.2"/><line x1="80.0" y1="52.0" x2="80.0" y2="364.0" stroke="#111827" stroke-width="1.2"/><line x1="1198.0" y1="52.0" x2="1198.0" y2="364.0" stroke="#111827" stroke-width="1.2"/><rect x="81.0" y="346.1" width="17.3" height="17.9" fill="#93c5fd" stroke="#60a5fa" stroke-width="0.5"/><rect x="100.3" y="358.6" width="17.3" height="5.4" fill="#93c5fd" stroke="#60a5fa" stroke-width="0.5"/><rect x="119.6" y="52.0" width="17.3" height="312.0" fill="#93c5fd" stroke="#60a5fa" stroke-width="0.5"/><rect x="138.8" y="361.7" width="17.3" height="2.3" fill="#93c5fd" stroke="#60a5fa" stroke-width="0.5"/><rect x="158.1" y="361.2" width="17.3" height="2.8" fill="#93c5fd" stroke="#60a5fa" stroke-width="0.5"/><rect x="177.4" y="361.0" width="17.3" height="3.0" fill="#93c5fd" stroke="#60a5fa" stroke-width="0.5"/><rect x="196.7" y="362.6" width="17.3" height="1.4" fill="#93c5fd" stroke="#60a5fa" stroke-width="0.5"/><rect x="215.9" y="357.9" width="17.3" height="6.1" fill="#93c5fd" stroke="#60a5fa" stroke-width="0.5"/><rect x="235.2" y="360.4" width="17.3" height="3.6" fill="#93c5fd" stroke="#60a5fa" stroke-width="0.5"/><rect x="254.5" y="361.1" width="17.3" height="2.9" fill="#93c5fd" stroke="#60a5fa" stroke-width="0.5"/><rect x="273.8" y="360.7" width="17.3" height="3.3" fill="#93c5fd" stroke="#60a5fa" stroke-width="0.5"/><rect x="293.0" y="359.4" width="17.3" height="4.6" fill="#93c5fd" stroke="#60a5fa" stroke-width="0.5"/><rect x="312.3" y="359.7" width="17.3" height="4.3" fill="#93c5fd" stroke="#60a5fa" stroke-width="0.5"/><rect x="331.6" y="360.0" width="17.3" height="4.0" fill="#93c5fd" stroke="#60a5fa" stroke-width="0.5"/><rect x="350.9" y="358.9" width="17.3" height="5.1" fill="#93c5fd" stroke="#60a5fa" stroke-width="0.5"/><rect x="370.1" y="358.9" width="17.3" height="5.1" fill="#93c5fd" stroke="#60a5fa" stroke-width="0.5"/><rect x="389.4" y="359.7" width="17.3" height="4.3" fill="#93c5fd" stroke="#60a5fa" stroke-width="0.5"/><rect x="408.7" y="359.4" width="17.3" height="4.6" fill="#93c5fd" stroke="#60a5fa" stroke-width="0.5"/><rect x="428.0" y="359.3" width="17.3" height="4.7" fill="#93c5fd" stroke="#60a5fa" stroke-width="0.5"/><rect x="447.2" y="358.6" width="17.3" height="5.4" fill="#93c5fd" stroke="#60a5fa" stroke-width="0.5"/><rect x="466.5" y="358.7" width="17.3" height="5.3" fill="#93c5fd" stroke="#60a5fa" stroke-width="0.5"/><rect x="485.8" y="359.5" width="17.3" height="4.5" fill="#93c5fd" stroke="#60a5fa" stroke-width="0.5"/><rect x="505.1" y="358.2" width="17.3" height="5.8" fill="#93c5fd" stroke="#60a5fa" stroke-width="0.5"/><rect x="524.3" y="359.1" width="17.3" height="4.9" fill="#93c5fd" stroke="#60a5fa" stroke-width="0.5"/><rect x="543.6" y="359.1" width="17.3" height="4.9" fill="#93c5fd" stroke="#60a5fa" stroke-width="0.5"/><rect x="562.9" y="358.4" width="17.3" height="5.6" fill="#93c5fd" stroke="#60a5fa" stroke-width="0.5"/><rect x="582.2" y="358.0" width="17.3" height="6.0" fill="#93c5fd" stroke="#60a5fa" stroke-width="0.5"/><rect x="601.4" y="357.5" width="17.3" height="6.5" fill="#93c5fd" stroke="#60a5fa" stroke-width="0.5"/><rect x="620.7" y="359.8" width="17.3" height="4.2" fill="#93c5fd" stroke="#60a5fa" stroke-width="0.5"/><rect x="640.0" y="359.7" width="17.3" height="4.3" fill="#93c5fd" stroke="#60a5fa" stroke-width="0.5"/><rect x="659.3" y="358.9" width="17.3" height="5.1" fill="#93c5fd" stroke="#60a5fa" stroke-width="0.5"/><rect x="678.6" y="358.9" width="17.3" height="5.1" fill="#93c5fd" stroke="#60a5fa" stroke-width="0.5"/><rect x="697.8" y="359.5" width="17.3" height="4.5" fill="#93c5fd" stroke="#60a5fa" stroke-width="0.5"/><rect x="717.1" y="358.2" width="17.3" height="5.8" fill="#93c5fd" stroke="#60a5fa" stroke-width="0.5"/><rect x="736.4" y="358.3" width="17.3" height="5.7" fill="#93c5fd" stroke="#60a5fa" stroke-width="0.5"/><rect x="755.7" y="357.6" width="17.3" height="6.4" fill="#93c5fd" stroke="#60a5fa" stroke-width="0.5"/><rect x="774.9" y="357.8" width="17.3" height="6.2" fill="#93c5fd" stroke="#60a5fa" stroke-width="0.5"/><rect x="794.2" y="356.4" width="17.3" height="7.6" fill="#93c5fd" stroke="#60a5fa" stroke-width="0.5"/><rect x="813.5" y="359.3" width="17.3" height="4.7" fill="#93c5fd" stroke="#60a5fa" stroke-width="0.5"/><rect x="832.8" y="359.6" width="17.3" height="4.4" fill="#93c5fd" stroke="#60a5fa" stroke-width="0.5"/><rect x="852.0" y="357.1" width="17.3" height="6.9" fill="#93c5fd" stroke="#60a5fa" stroke-width="0.5"/><rect x="871.3" y="356.9" width="17.3" height="7.1" fill="#93c5fd" stroke="#60a5fa" stroke-width="0.5"/><rect x="890.6" y="358.8" width="17.3" height="5.2" fill="#93c5fd" stroke="#60a5fa" stroke-width="0.5"/><rect x="909.9" y="359.0" width="17.3" height="5.0" fill="#93c5fd" stroke="#60a5fa" stroke-width="0.5"/><rect x="929.1" y="360.1" width="17.3" height="3.9" fill="#93c5fd" stroke="#60a5fa" stroke-width="0.5"/><rect x="948.4" y="359.4" width="17.3" height="4.6" fill="#93c5fd" stroke="#60a5fa" stroke-width="0.5"/><rect x="967.7" y="359.5" width="17.3" height="4.5" fill="#93c5fd" stroke="#60a5fa" stroke-width="0.5"/><rect x="987.0" y="357.5" width="17.3" height="6.5" fill="#93c5fd" stroke="#60a5fa" stroke-width="0.5"/><rect x="1006.2" y="358.0" width="17.3" height="6.0" fill="#93c5fd" stroke="#60a5fa" stroke-width="0.5"/><rect x="1025.5" y="359.0" width="17.3" height="5.0" fill="#93c5fd" stroke="#60a5fa" stroke-width="0.5"/><rect x="1044.8" y="359.5" width="17.3" height="4.5" fill="#93c5fd" stroke="#60a5fa" stroke-width="0.5"/><rect x="1064.1" y="358.7" width="17.3" height="5.3" fill="#93c5fd" stroke="#60a5fa" stroke-width="0.5"/><rect x="1083.3" y="358.8" width="17.3" height="5.2" fill="#93c5fd" stroke="#60a5fa" stroke-width="0.5"/><rect x="1102.6" y="358.7" width="17.3" height="5.3" fill="#93c5fd" stroke="#60a5fa" stroke-width="0.5"/><rect x="1121.9" y="357.0" width="17.3" height="7.0" fill="#93c5fd" stroke="#60a5fa" stroke-width="0.5"/><rect x="1141.2" y="357.3" width="17.3" height="6.7" fill="#93c5fd" stroke="#60a5fa" stroke-width="0.5"/><rect x="1160.4" y="360.1" width="17.3" height="3.9" fill="#93c5fd" stroke="#60a5fa" stroke-width="0.5"/><rect x="1179.7" y="328.9" width="17.3" height="35.1" fill="#93c5fd" stroke="#60a5fa" stroke-width="0.5"/><polyline fill="none" stroke="#ef4444" stroke-width="2" points="89.6,355.2 108.9,352.6 128.2,200.0 147.5,198.9 166.7,197.5 186.0,196.1 205.3,195.4 224.6,192.4 243.8,190.7 263.1,189.2 282.4,187.6 301.7,185.4 320.9,183.3 340.2,181.3 359.5,178.9 378.8,176.4 398.1,174.3 417.3,172.0 436.6,169.7 455.9,167.1 475.2,164.5 494.4,162.3 513.7,159.5 533.0,157.1 552.3,154.6 571.5,151.9 590.8,149.0 610.1,145.8 629.4,143.7 648.6,141.6 667.9,139.1 687.2,136.6 706.5,134.4 725.7,131.6 745.0,128.8 764.3,125.7 783.6,122.6 802.8,118.9 822.1,116.6 841.4,114.5 860.7,111.1 879.9,107.6 899.2,105.1 918.5,102.7 937.8,100.7 957.1,98.5 976.3,96.3 995.6,93.1 1014.9,90.2 1034.2,87.7 1053.4,85.5 1072.7,82.9 1092.0,80.4 1111.3,77.8 1130.5,74.4 1149.8,71.1 1169.1,69.2 1188.4,52.0"/><line x1="89.6" y1="364.0" x2="89.6" y2="370.0" stroke="#111827" stroke-width="1"/><text x="91.6" y="386.0" font-size="11" text-anchor="end" transform="rotate(-35 91.6 386.0)" font-family="sans-serif" fill="#374151">2026-02-28</text><line x1="243.8" y1="364.0" x2="243.8" y2="370.0" stroke="#111827" stroke-width="1"/><text x="245.8" y="386.0" font-size="11" text-anchor="end" transform="rotate(-35 245.8 386.0)" font-family="sans-serif" fill="#374151">2026-03-10</text><line x1="398.1" y1="364.0" x2="398.1" y2="370.0" stroke="#111827" stroke-width="1"/><text x="400.1" y="386.0" font-size="11" text-anchor="end" transform="rotate(-35 400.1 386.0)" font-family="sans-serif" fill="#374151">2026-03-18</text><line x1="552.3" y1="364.0" x2="552.3" y2="370.0" stroke="#111827" stroke-width="1"/><text x="554.3" y="386.0" font-size="11" text-anchor="end" transform="rotate(-35 554.3 386.0)" font-family="sans-serif" fill="#374151">2026-03-26</text><line x1="725.7" y1="364.0" x2="725.7" y2="370.0" stroke="#111827" stroke-width="1"/><text x="727.7" y="386.0" font-size="11" text-anchor="end" transform="rotate(-35 727.7 386.0)" font-family="sans-serif" fill="#374151">2026-04-04</text><line x1="879.9" y1="364.0" x2="879.9" y2="370.0" stroke="#111827" stroke-width="1"/><text x="881.9" y="386.0" font-size="11" text-anchor="end" transform="rotate(-35 881.9 386.0)" font-family="sans-serif" fill="#374151">2026-04-12</text><line x1="1034.2" y1="364.0" x2="1034.2" y2="370.0" stroke="#111827" stroke-width="1"/><text x="1036.2" y="386.0" font-size="11" text-anchor="end" transform="rotate(-35 1036.2 386.0)" font-family="sans-serif" fill="#374151">2026-04-20</text><line x1="1188.4" y1="364.0" x2="1188.4" y2="370.0" stroke="#111827" stroke-width="1"/><text x="1190.4" y="386.0" font-size="11" text-anchor="end" transform="rotate(-35 1190.4 386.0)" font-family="sans-serif" fill="#374151">2026-04-28</text><text x="26" y="208.0" font-size="12" transform="rotate(-90 26 208.0)" text-anchor="middle" font-family="sans-serif" fill="#1f2937">구간별 수</text><text x="1256.0" y="208.0" font-size="12" transform="rotate(90 1256.0 208.0)" text-anchor="middle" font-family="sans-serif" fill="#1f2937">누적</text><text x="639.0" y="442.0" font-size="13" text-anchor="middle" font-family="sans-serif" fill="#111827">일</text></svg>