<svg xmlns="http://www.w3.org/2000/svg" width="1280" height="460" viewBox="0 0 1280 460"><rect x="0" y="0" width="100%" height="100%" fill="#ffffff"/><text x="640.0" y="28" font-size="20" text-anchor="middle" font-family="sans-serif" fill="#111827">마켓 / 최근 반영 시점 / 일별</text><line x1="80.0" y1="52.0" x2="1198.0" y2="52.0" stroke="#e5e7eb" stroke-width="1"/><text x="72.0" y="56.0" font-size="11" text-anchor="end" font-family="sans-serif" fill="#374151">493,407</text><text x="1206.0" y="56.0" font-size="11" text-anchor="start" font-family="sans-serif" fill="#374151">811,591</text><line x1="80.0" y1="114.4" x2="1198.0" y2="114.4" stroke="#e5e7eb" stroke-width="1"/><text x="72.0" y="118.4" font-size="11" text-anchor="end" font-family="sans-serif" fill="#374151">394,726</text><text x="1206.0" y="118.4" font-size="11" text-anchor="start" font-family="sans-serif" fill="#374151">649,273</text><line x1="80.0" y1="176.8" x2="1198.0" y2="176.8" stroke="#e5e7eb" stroke-width="1"/><text x="72.0" y="180.8" font-size="11" text-anchor="end" font-family="sans-serif" fill="#374151">296,044</text><text x="1206.0" y="180.8" font-size="11" text-anchor="start" font-family="sans-serif" fill="#374151">486,955</text><line x1="80.0" y1="239.2" x2="1198.0" y2="239.2" stroke="#e5e7eb" stroke-width="1"/><text x="72.0" y="243.2" font-size="11" text-anchor="end" font-family="sans-serif" fill="#374151">197,363</text><text x="1206.0" y="243.2" font-size="11" text-anchor="start" font-family="sans-serif" fill="#374151">324,636</text><line x1="80.0" y1="301.6" x2="1198.0" y2="301.6" stroke="#e5e7eb" stroke-width="1"/><text x="72.0" y="305.6" font-size="11" text-anchor="end" font-family="sans-serif" fill="#374151">98,681</text><text x="1206.0" y="305.6" font-size="11" text-anchor="start" font-family="sans-serif" fill="#374151">162,318</text><line x1="80.0" y1="364.0" x2="1198.0" y2="364.0" stroke="#e5e7eb" stroke-width="1"/><text x="72.0" y="368.0" font-size="11" text-anchor="end" font-family="sans-serif" fill="#374151">0</text><text x="1206.0" y="368.0" font-size="11" text-anchor="start" font-family="sans-serif" fill="#374151">0</text><line x1="80.0" y1="364.0" x2="1198.0" y2="364.0" stroke="#111827" stroke-width="1.2"/><line x1="80.0" y1="52.0" x2="80.0" y2="364.0" stroke="#111827" stroke-width="1.2"/><line x1="1198.0" y1="52.0" x2="1198.0" y2="364.0" stroke="#111827" stroke-width="1.2"/><rect x="81.0" y="346.0" width="29.9" height="18.0" fill="#93c5fd" stroke="#60a5fa" stroke-width="0.5"/><rect x="112.9" y="358.6" width="29.9" height="5.4" fill="#93c5fd" stroke="#60a5fa" stroke-width="0.5"/><rect x="144.9" y="52.0" width="29.9" height="312.0" fill="#93c5fd" stroke="#60a5fa" stroke-width="0.5"/><rect x="176.8" y="361.7" width="29.9" height="2.3" fill="#93c5fd" stroke="#60a5fa" stroke-width="0.5"/><rect x="208.8" y="361.2" width="29.9" height="2.8" fill="#93c5fd" stroke="#60a5fa" stroke-width="0.5"/><rect x="240.7" y="361.0" width="29.9" height="3.0" fill="#93c5fd" stroke="#60a5fa" stroke-width="0.5"/><rect x="272.7" y="362.6" width="29.9" height="1.4" fill="#93c5fd" stroke="#60a5fa" stroke-width="0.5"/><rect x="304.6" y="357.9" width="29.9" height="6.1" fill="#93c5fd" stroke="#60a5fa" stroke-width="0.5"/><rect x="336.5" y="360.4" width="29.9" height="3.6" fill="#93c5fd" stroke="#60a5fa" stroke-width="0.5"/><rect x="368.5" y="361.1" width="29.9" height="2.9" fill="#93c5fd" stroke="#60a5fa" stroke-width="0.5"/><rect x="400.4" y="360.7" width="29.9" height="3.3" fill="#93c5fd" stroke="#60a5fa" stroke-width="0.5"/><rect x="432.4" y="359.4" width="29.9" height="4.6" fill="#93c5fd" stroke="#60a5fa" stroke-width="0.5"/><rect x="464.3" y="359.7" width="29.9" height="4.3" fill="#93c5fd" stroke="#60a5fa" stroke-width="0.5"/><rect x="496.3" y="360.0" width="29.9" height="4.0" fill="#93c5fd" stroke="#60a5fa" stroke-width="0.5"/><rect x="528.2" y="358.9" width="29.9" height="5.1" fill="#93c5fd" stroke="#60a5fa" stroke-width="0.5"/><rect x="560.1" y="358.9" width="29.9" height="5.1" fill="#93c5fd" stroke="#60a5fa" stroke-width="0.5"/><rect x="592.1" y="359.7" width="29.9" height="4.3" fill="#93c5fd" stroke="#60a5fa" stroke-width="0.5"/><rect x="624.0" y="359.4" width="29.9" height="4.6" fill="#93c5fd" stroke="#60a5fa" stroke-width="0.5"/><rect x="656.0" y="359.3" width="29.9" height="4.7" fill="#93c5fd" stroke="#60a5fa" stroke-width="0.5"/><rect x="687.9" y="358.6" width="29.9" height="5.4" fill="#93c5fd" stroke="#60a5fa" stroke-width="0.5"/><rect x="719.9" y="358.7" width="29.9" height="5.3" fill="#93c5fd" stroke="#60a5fa" stroke-width="0.5"/><rect x="751.8" y="359.5" width="29.9" height="4.5" fill="#93c5fd" stroke="#60a5fa" stroke-width="0.5"/><rect x="783.7" y="358.2" width="29.9" height="5.8" fill="#93c5fd" stroke="#60a5fa" stroke-width="0.5"/><rect x="815.7" y="359.1" width="29.9" height="4.9" fill="#93c5fd" stroke="#60a5fa" stroke-width="0.5"/><rect x="847.6" y="359.1" width="29.9" height="4.9" fill="#93c5fd" stroke="#60a5fa" stroke-width="0.5"/><rect x="879.6" y="358.4" width="29.9" height="5.6" fill="#93c5fd" stroke="#60a5fa" stroke-width="0.5"/><rect x="911.5" y="358.0" width="29.9" height="6.0" fill="#93c5fd" stroke="#60a5fa" stroke-width="0.5"/><rect x="943.5" y="357.4" width="29.9" height="6.6" fill="#93c5fd" stroke="#60a5fa" stroke-width="0.5"/><rect x="975.4" y="359.8" width="29.9" height="4.2" fill="#93c5fd" stroke="#60a5fa" stroke-width="0.5"/><rect x="1007.3" y="359.7" width="29.9" height="4.3" fill="#93c5fd" stroke="#60a5fa" stroke-width="0.5"/><rect x="1039.3" y="358.9" width="29.9" height="5.1" fill="#93c5fd" stroke="#60a5fa" stroke-width="0.5"/><rect x="1071.2" y="358.9" width="29.9" height="5.1" fill="#93c5fd" stroke="#60a5fa" stroke-width="0.5"/><rect x="1103.2" y="359.5" width="29.9" height="4.5" fill="#93c5fd" stroke="#60a5fa" stroke-width="0.5"/><rect x="1135.1" y="357.4" width="29.9" height="6.6" fill="#93c5fd" stroke="#60a5fa" stroke-width="0.5"/><rect x="1167.1" y="327.0" width="29.9" height="37.0" fill="#93c5fd" stroke="#60a5fa" stroke-width="0.5"/><polyline fill="none" stroke="#ef4444" stroke-width="2" points="96.0,353.1 127.9,349.8 159.9,160.1 191.8,158.7 223.7,157.0 255.7,155.2 287.6,154.4 319.6,150.6 351.5,148.5 383.5,146.7 415.4,144.7 447.3,141.9 479.3,139.3 511.2,136.9 543.2,133.8 575.1,130.7 607.1,128.1 639.0,125.3 670.9,122.4 702.9,119.2 734.8,116.0 766.8,113.2 798.7,109.7 830.7,106.7 862.6,103.7 894.5,100.3 926.5,96.7 958.4,92.7 990.4,90.1 1022.3,87.5 1054.3,84.4 1086.2,81.2 1118.1,78.5 1150.1,74.5 1182.0,52.0"/><line x1="96.0" y1="364.0" x2="96.0" y2="370.0" stroke="#111827" stroke-width="1"/><text x="98.0" y="386.0" font-size="11" text-anchor="end" transform="rotate(-35 98.0 386.0)" font-family="sans-serif" fill="#374151">2026-02-28</text><line x1="255.7" y1="364.0" x2="255.7" y2="370.0" stroke="#111827" stroke-width="1"/><text x="257.7" y="386.0" font-size="11" text-anchor="end" transform="rotate(-35 257.7 386.0)" font-family="sans-serif" fill="#374151">2026-03-05</text><line x1="415.4" y1="364.0" x2="415.4" y2="370.0" stroke="#111827" stroke-width="1"/><text x="417.4" y="386.0" font-size="11" text-anchor="end" transform="rotate(-35 417.4 386.0)" font-family="sans-serif" fill="#374151">2026-03-12</text><line x1="575.1" y1="364.0" x2="575.1" y2="370.0" stroke="#111827" stroke-width="1"/><text x="577.1" y="386.0" font-size="11" text-anchor="end" transform="rotate(-35 577.1 386.0)" font-family="sans-serif" fill="#374151">2026-03-17</text><line x1="702.9" y1="364.0" x2="702.9" y2="370.0" stroke="#111827" stroke-width="1"/><text x="704.9" y="386.0" font-size="11" text-anchor="end" transform="rotate(-35 704.9 386.0)" font-family="sans-serif" fill="#374151">2026-03-21</text><line x1="862.6" y1="364.0" x2="862.6" y2="370.0" stroke="#111827" stroke-width="1"/><text x="864.6" y="386.0" font-size="11" text-anchor="end" transform="rotate(-35 864.6 386.0)" font-family="sans-serif" fill="#374151">2026-03-26</text><line x1="1022.3" y1="364.0" x2="1022.3" y2="370.0" stroke="#111827" stroke-width="1"/><text x="1024.3" y="386.0" font-size="11" text-anchor="end" transform="rotate(-35 1024.3 386.0)" font-family="sans-serif" fill="#374151">2026-03-31</text><line x1="1182.0" y1="364.0" x2="1182.0" y2="370.0" stroke="#111827" stroke-width="1"/><text x="1184.0" y="386.0" font-size="11" text-anchor="end" transform="rotate(-35 1184.0 386.0)" font-family="sans-serif" fill="#374151">2026-04-05</text><text x="26" y="208.0" font-size="12" transform="rotate(-90 26 208.0)" text-anchor="middle" font-family="sans-serif" fill="#1f2937">구간별 수</text><text x="1256.0" y="208.0" font-size="12" transform="rotate(90 1256.0 208.0)" text-anchor="middle" font-family="sans-serif" fill="#1f2937">누적</text><text x="639.0" y="442.0" font-size="13" text-anchor="middle" font-family="sans-serif" fill="#111827">일</text></svg>