<svg xmlns="http://www.w3.org/2000/svg" width="1280" height="460" viewBox="0 0 1280 460"><rect x="0" y="0" width="100%" height="100%" fill="#ffffff"/><text x="640.0" y="28" font-size="20" text-anchor="middle" font-family="sans-serif" fill="#111827">마켓 / 최근 반영 시점 / 일별</text><line x1="80.0" y1="52.0" x2="1198.0" y2="52.0" stroke="#e5e7eb" stroke-width="1"/><text x="72.0" y="56.0" font-size="11" text-anchor="end" font-family="sans-serif" fill="#374151">493,407</text><text x="1206.0" y="56.0" font-size="11" text-anchor="start" font-family="sans-serif" fill="#374151">887,406</text><line x1="80.0" y1="114.4" x2="1198.0" y2="114.4" stroke="#e5e7eb" stroke-width="1"/><text x="72.0" y="118.4" font-size="11" text-anchor="end" font-family="sans-serif" fill="#374151">394,726</text><text x="1206.0" y="118.4" font-size="11" text-anchor="start" font-family="sans-serif" fill="#374151">709,925</text><line x1="80.0" y1="176.8" x2="1198.0" y2="176.8" stroke="#e5e7eb" stroke-width="1"/><text x="72.0" y="180.8" font-size="11" text-anchor="end" font-family="sans-serif" fill="#374151">296,044</text><text x="1206.0" y="180.8" font-size="11" text-anchor="start" font-family="sans-serif" fill="#374151">532,444</text><line x1="80.0" y1="239.2" x2="1198.0" y2="239.2" stroke="#e5e7eb" stroke-width="1"/><text x="72.0" y="243.2" font-size="11" text-anchor="end" font-family="sans-serif" fill="#374151">197,363</text><text x="1206.0" y="243.2" font-size="11" text-anchor="start" font-family="sans-serif" fill="#374151">354,962</text><line x1="80.0" y1="301.6" x2="1198.0" y2="301.6" stroke="#e5e7eb" stroke-width="1"/><text x="72.0" y="305.6" font-size="11" text-anchor="end" font-family="sans-serif" fill="#374151">98,681</text><text x="1206.0" y="305.6" font-size="11" text-anchor="start" font-family="sans-serif" fill="#374151">177,481</text><line x1="80.0" y1="364.0" x2="1198.0" y2="364.0" stroke="#e5e7eb" stroke-width="1"/><text x="72.0" y="368.0" font-size="11" text-anchor="end" font-family="sans-serif" fill="#374151">0</text><text x="1206.0" y="368.0" font-size="11" text-anchor="start" font-family="sans-serif" fill="#374151">0</text><line x1="80.0" y1="364.0" x2="1198.0" y2="364.0" stroke="#111827" stroke-width="1.2"/><line x1="80.0" y1="52.0" x2="80.0" y2="364.0" stroke="#111827" stroke-width="1.2"/><line x1="1198.0" y1="52.0" x2="1198.0" y2="364.0" stroke="#111827" stroke-width="1.2"/><rect x="81.0" y="346.1" width="23.4" height="17.9" fill="#93c5fd" stroke="#60a5fa" stroke-width="0.5"/><rect x="106.4" y="358.6" width="23.4" height="5.4" fill="#93c5fd" stroke="#60a5fa" stroke-width="0.5"/><rect x="131.8" y="52.0" width="23.4" height="312.0" fill="#93c5fd" stroke="#60a5fa" stroke-width="0.5"/><rect x="157.2" y="361.7" width="23.4" height="2.3" fill="#93c5fd" stroke="#60a5fa" stroke-width="0.5"/><rect x="182.6" y="361.2" width="23.4" height="2.8" fill="#93c5fd" stroke="#60a5fa" stroke-width="0.5"/><rect x="208.0" y="361.0" width="23.4" height="3.0" fill="#93c5fd" stroke="#60a5fa" stroke-width="0.5"/><rect x="233.5" y="362.6" width="23.4" height="1.4" fill="#93c5fd" stroke="#60a5fa" stroke-width="0.5"/><rect x="258.9" y="357.9" width="23.4" height="6.1" fill="#93c5fd" stroke="#60a5fa" stroke-width="0.5"/><rect x="284.3" y="360.4" width="23.4" height="3.6" fill="#93c5fd" stroke="#60a5fa" stroke-width="0.5"/><rect x="309.7" y="361.1" width="23.4" height="2.9" fill="#93c5fd" stroke="#60a5fa" stroke-width="0.5"/><rect x="335.1" y="360.7" width="23.4" height="3.3" fill="#93c5fd" stroke="#60a5fa" stroke-width="0.5"/><rect x="360.5" y="359.4" width="23.4" height="4.6" fill="#93c5fd" stroke="#60a5fa" stroke-width="0.5"/><rect x="385.9" y="359.7" width="23.4" height="4.3" fill="#93c5fd" stroke="#60a5fa" stroke-width="0.5"/><rect x="411.3" y="360.0" width="23.4" height="4.0" fill="#93c5fd" stroke="#60a5fa" stroke-width="0.5"/><rect x="436.7" y="358.9" width="23.4" height="5.1" fill="#93c5fd" stroke="#60a5fa" stroke-width="0.5"/><rect x="462.1" y="358.9" width="23.4" height="5.1" fill="#93c5fd" stroke="#60a5fa" stroke-width="0.5"/><rect x="487.5" y="359.7" width="23.4" height="4.3" fill="#93c5fd" stroke="#60a5fa" stroke-width="0.5"/><rect x="513.0" y="359.4" width="23.4" height="4.6" fill="#93c5fd" stroke="#60a5fa" stroke-width="0.5"/><rect x="538.4" y="359.3" width="23.4" height="4.7" fill="#93c5fd" stroke="#60a5fa" stroke-width="0.5"/><rect x="563.8" y="358.6" width="23.4" height="5.4" fill="#93c5fd" stroke="#60a5fa" stroke-width="0.5"/><rect x="589.2" y="358.7" width="23.4" height="5.3" fill="#93c5fd" stroke="#60a5fa" stroke-width="0.5"/><rect x="614.6" y="359.5" width="23.4" height="4.5" fill="#93c5fd" stroke="#60a5fa" stroke-width="0.5"/><rect x="640.0" y="358.2" width="23.4" height="5.8" fill="#93c5fd" stroke="#60a5fa" stroke-width="0.5"/><rect x="665.4" y="359.1" width="23.4" height="4.9" fill="#93c5fd" stroke="#60a5fa" stroke-width="0.5"/><rect x="690.8" y="359.1" width="23.4" height="4.9" fill="#93c5fd" stroke="#60a5fa" stroke-width="0.5"/><rect x="716.2" y="358.4" width="23.4" height="5.6" fill="#93c5fd" stroke="#60a5fa" stroke-width="0.5"/><rect x="741.6" y="358.0" width="23.4" height="6.0" fill="#93c5fd" stroke="#60a5fa" stroke-width="0.5"/><rect x="767.0" y="357.5" width="23.4" height="6.5" fill="#93c5fd" stroke="#60a5fa" stroke-width="0.5"/><rect x="792.5" y="359.8" width="23.4" height="4.2" fill="#93c5fd" stroke="#60a5fa" stroke-width="0.5"/><rect x="817.9" y="359.7" width="23.4" height="4.3" fill="#93c5fd" stroke="#60a5fa" stroke-width="0.5"/><rect x="843.3" y="358.9" width="23.4" height="5.1" fill="#93c5fd" stroke="#60a5fa" stroke-width="0.5"/><rect x="868.7" y="358.9" width="23.4" height="5.1" fill="#93c5fd" stroke="#60a5fa" stroke-width="0.5"/><rect x="894.1" y="359.5" width="23.4" height="4.5" fill="#93c5fd" stroke="#60a5fa" stroke-width="0.5"/><rect x="919.5" y="358.2" width="23.4" height="5.8" fill="#93c5fd" stroke="#60a5fa" stroke-width="0.5"/><rect x="944.9" y="358.4" width="23.4" height="5.6" fill="#93c5fd" stroke="#60a5fa" stroke-width="0.5"/><rect x="970.3" y="357.6" width="23.4" height="6.4" fill="#93c5fd" stroke="#60a5fa" stroke-width="0.5"/><rect x="995.7" y="357.8" width="23.4" height="6.2" fill="#93c5fd" stroke="#60a5fa" stroke-width="0.5"/><rect x="1021.1" y="356.4" width="23.4" height="7.6" fill="#93c5fd" stroke="#60a5fa" stroke-width="0.5"/><rect x="1046.5" y="359.3" width="23.4" height="4.7" fill="#93c5fd" stroke="#60a5fa" stroke-width="0.5"/><rect x="1072.0" y="359.6" width="23.4" height="4.4" fill="#93c5fd" stroke="#60a5fa" stroke-width="0.5"/><rect x="1097.4" y="357.1" width="23.4" height="6.9" fill="#93c5fd" stroke="#60a5fa" stroke-width="0.5"/><rect x="1122.8" y="356.9" width="23.4" height="7.1" fill="#93c5fd" stroke="#60a5fa" stroke-width="0.5"/><rect x="1148.2" y="358.6" width="23.4" height="5.4" fill="#93c5fd" stroke="#60a5fa" stroke-width="0.5"/><rect x="1173.6" y="332.6" width="23.4" height="31.4" fill="#93c5fd" stroke="#60a5fa" stroke-width="0.5"/><polyline fill="none" stroke="#ef4444" stroke-width="2" points="92.7,354.0 118.1,351.0 143.5,177.6 168.9,176.3 194.3,174.7 219.8,173.0 245.2,172.3 270.6,168.9 296.0,166.9 321.4,165.3 346.8,163.5 372.2,160.9 397.6,158.5 423.0,156.3 448.4,153.5 473.8,150.7 499.2,148.3 524.7,145.7 550.1,143.1 575.5,140.1 600.9,137.2 626.3,134.7 651.7,131.5 677.1,128.7 702.5,126.0 727.9,122.9 753.3,119.5 778.8,115.9 804.2,113.6 829.6,111.2 855.0,108.3 880.4,105.5 905.8,103.0 931.2,99.7 956.6,96.6 982.0,93.0 1007.4,89.6 1032.8,85.4 1058.2,82.7 1083.7,80.3 1109.1,76.4 1134.5,72.5 1159.9,69.5 1185.3,52.0"/><line x1="92.7" y1="364.0" x2="92.7" y2="370.0" stroke="#111827" stroke-width="1"/><text x="94.7" y="386.0" font-size="11" text-anchor="end" transform="rotate(-35 94.7 386.0)" font-family="sans-serif" fill="#374151">2026-02-28</text><line x1="245.2" y1="364.0" x2="245.2" y2="370.0" stroke="#111827" stroke-width="1"/><text x="247.2" y="386.0" font-size="11" text-anchor="end" transform="rotate(-35 247.2 386.0)" font-family="sans-serif" fill="#374151">2026-03-08</text><line x1="397.6" y1="364.0" x2="397.6" y2="370.0" stroke="#111827" stroke-width="1"/><text x="399.6" y="386.0" font-size="11" text-anchor="end" transform="rotate(-35 399.6 386.0)" font-family="sans-serif" fill="#374151">2026-03-14</text><line x1="550.1" y1="364.0" x2="550.1" y2="370.0" stroke="#111827" stroke-width="1"/><text x="552.1" y="386.0" font-size="11" text-anchor="end" transform="rotate(-35 552.1 386.0)" font-family="sans-serif" fill="#374151">2026-03-20</text><line x1="727.9" y1="364.0" x2="727.9" y2="370.0" stroke="#111827" stroke-width="1"/><text x="729.9" y="386.0" font-size="11" text-anchor="end" transform="rotate(-35 729.9 386.0)" font-family="sans-serif" fill="#374151">2026-03-27</text><line x1="880.4" y1="364.0" x2="880.4" y2="370.0" stroke="#111827" stroke-width="1"/><text x="882.4" y="386.0" font-size="11" text-anchor="end" transform="rotate(-35 882.4 386.0)" font-family="sans-serif" fill="#374151">2026-04-02</text><line x1="1032.8" y1="364.0" x2="1032.8" y2="370.0" stroke="#111827" stroke-width="1"/><text x="1034.8" y="386.0" font-size="11" text-anchor="end" transform="rotate(-35 1034.8 386.0)" font-family="sans-serif" fill="#374151">2026-04-08</text><line x1="1185.3" y1="364.0" x2="1185.3" y2="370.0" stroke="#111827" stroke-width="1"/><text x="1187.3" y="386.0" font-size="11" text-anchor="end" transform="rotate(-35 1187.3 386.0)" font-family="sans-serif" fill="#374151">2026-04-14</text><text x="26" y="208.0" font-size="12" transform="rotate(-90 26 208.0)" text-anchor="middle" font-family="sans-serif" fill="#1f2937">구간별 수</text><text x="1256.0" y="208.0" font-size="12" transform="rotate(90 1256.0 208.0)" text-anchor="middle" font-family="sans-serif" fill="#1f2937">누적</text><text x="639.0" y="442.0" font-size="13" text-anchor="middle" font-family="sans-serif" fill="#111827">일</text></svg>