<svg xmlns="http://www.w3.org/2000/svg" width="1280" height="460" viewBox="0 0 1280 460"><rect x="0" y="0" width="100%" height="100%" fill="#ffffff"/><text x="640.0" y="28" font-size="20" text-anchor="middle" font-family="sans-serif" fill="#111827">마켓 / 생성 시점 / 월별</text><line x1="80.0" y1="52.0" x2="1198.0" y2="52.0" stroke="#e5e7eb" stroke-width="1"/><text x="72.0" y="56.0" font-size="11" text-anchor="end" font-family="sans-serif" fill="#374151">217,794</text><text x="1206.0" y="56.0" font-size="11" text-anchor="start" font-family="sans-serif" fill="#374151">838,904</text><line x1="80.0" y1="114.4" x2="1198.0" y2="114.4" stroke="#e5e7eb" stroke-width="1"/><text x="72.0" y="118.4" font-size="11" text-anchor="end" font-family="sans-serif" fill="#374151">174,235</text><text x="1206.0" y="118.4" font-size="11" text-anchor="start" font-family="sans-serif" fill="#374151">671,123</text><line x1="80.0" y1="176.8" x2="1198.0" y2="176.8" stroke="#e5e7eb" stroke-width="1"/><text x="72.0" y="180.8" font-size="11" text-anchor="end" font-family="sans-serif" fill="#374151">130,676</text><text x="1206.0" y="180.8" font-size="11" text-anchor="start" font-family="sans-serif" fill="#374151">503,342</text><line x1="80.0" y1="239.2" x2="1198.0" y2="239.2" stroke="#e5e7eb" stroke-width="1"/><text x="72.0" y="243.2" font-size="11" text-anchor="end" font-family="sans-serif" fill="#374151">87,118</text><text x="1206.0" y="243.2" font-size="11" text-anchor="start" font-family="sans-serif" fill="#374151">335,562</text><line x1="80.0" y1="301.6" x2="1198.0" y2="301.6" stroke="#e5e7eb" stroke-width="1"/><text x="72.0" y="305.6" font-size="11" text-anchor="end" font-family="sans-serif" fill="#374151">43,559</text><text x="1206.0" y="305.6" font-size="11" text-anchor="start" font-family="sans-serif" fill="#374151">167,781</text><line x1="80.0" y1="364.0" x2="1198.0" y2="364.0" stroke="#e5e7eb" stroke-width="1"/><text x="72.0" y="368.0" font-size="11" text-anchor="end" font-family="sans-serif" fill="#374151">0</text><text x="1206.0" y="368.0" font-size="11" text-anchor="start" font-family="sans-serif" fill="#374151">0</text><line x1="80.0" y1="364.0" x2="1198.0" y2="364.0" stroke="#111827" stroke-width="1.2"/><line x1="80.0" y1="52.0" x2="80.0" y2="364.0" stroke="#111827" stroke-width="1.2"/><line x1="1198.0" y1="52.0" x2="1198.0" y2="364.0" stroke="#111827" stroke-width="1.2"/><rect x="81.0" y="364.0" width="14.7" height="0.0" fill="#93c5fd" stroke="#60a5fa" stroke-width="0.5"/><rect x="97.7" y="364.0" width="14.7" height="0.0" fill="#93c5fd" stroke="#60a5fa" stroke-width="0.5"/><rect x="114.4" y="364.0" width="14.7" height="0.0" fill="#93c5fd" stroke="#60a5fa" stroke-width="0.5"/><rect x="131.1" y="363.9" width="14.7" height="0.1" fill="#93c5fd" stroke="#60a5fa" stroke-width="0.5"/><rect x="147.7" y="363.9" width="14.7" height="0.1" fill="#93c5fd" stroke="#60a5fa" stroke-width="0.5"/><rect x="164.4" y="363.9" width="14.7" height="0.1" fill="#93c5fd" stroke="#60a5fa" stroke-width="0.5"/><rect x="181.1" y="363.9" width="14.7" height="0.1" fill="#93c5fd" stroke="#60a5fa" stroke-width="0.5"/><rect x="197.8" y="363.8" width="14.7" height="0.2" fill="#93c5fd" stroke="#60a5fa" stroke-width="0.5"/><rect x="214.5" y="363.7" width="14.7" height="0.3" fill="#93c5fd" stroke="#60a5fa" stroke-width="0.5"/><rect x="231.2" y="363.8" width="14.7" height="0.2" fill="#93c5fd" stroke="#60a5fa" stroke-width="0.5"/><rect x="247.9" y="363.8" width="14.7" height="0.2" fill="#93c5fd" stroke="#60a5fa" stroke-width="0.5"/><rect x="264.6" y="363.9" width="14.7" height="0.1" fill="#93c5fd" stroke="#60a5fa" stroke-width="0.5"/><rect x="281.2" y="363.7" width="14.7" height="0.3" fill="#93c5fd" stroke="#60a5fa" stroke-width="0.5"/><rect x="297.9" y="363.4" width="14.7" height="0.6" fill="#93c5fd" stroke="#60a5fa" stroke-width="0.5"/><rect x="314.6" y="363.5" width="14.7" height="0.5" fill="#93c5fd" stroke="#60a5fa" stroke-width="0.5"/><rect x="331.3" y="363.1" width="14.7" height="0.9" fill="#93c5fd" stroke="#60a5fa" stroke-width="0.5"/><rect x="348.0" y="363.5" width="14.7" height="0.5" fill="#93c5fd" stroke="#60a5fa" stroke-width="0.5"/><rect x="364.7" y="363.3" width="14.7" height="0.7" fill="#93c5fd" stroke="#60a5fa" stroke-width="0.5"/><rect x="381.4" y="363.4" width="14.7" height="0.6" fill="#93c5fd" stroke="#60a5fa" stroke-width="0.5"/><rect x="398.0" y="363.6" width="14.7" height="0.4" fill="#93c5fd" stroke="#60a5fa" stroke-width="0.5"/><rect x="414.7" y="363.8" width="14.7" height="0.2" fill="#93c5fd" stroke="#60a5fa" stroke-width="0.5"/><rect x="431.4" y="359.8" width="14.7" height="4.2" fill="#93c5fd" stroke="#60a5fa" stroke-width="0.5"/><rect x="448.1" y="363.7" width="14.7" height="0.3" fill="#93c5fd" stroke="#60a5fa" stroke-width="0.5"/><rect x="464.8" y="363.7" width="14.7" height="0.3" fill="#93c5fd" stroke="#60a5fa" stroke-width="0.5"/><rect x="481.5" y="363.8" width="14.7" height="0.2" fill="#93c5fd" stroke="#60a5fa" stroke-width="0.5"/><rect x="498.2" y="363.7" width="14.7" height="0.3" fill="#93c5fd" stroke="#60a5fa" stroke-width="0.5"/><rect x="514.9" y="363.9" width="14.7" height="0.1" fill="#93c5fd" stroke="#60a5fa" stroke-width="0.5"/><rect x="531.5" y="363.8" width="14.7" height="0.2" fill="#93c5fd" stroke="#60a5fa" stroke-width="0.5"/><rect x="548.2" y="363.4" width="14.7" height="0.6" fill="#93c5fd" stroke="#60a5fa" stroke-width="0.5"/><rect x="564.9" y="362.7" width="14.7" height="1.3" fill="#93c5fd" stroke="#60a5fa" stroke-width="0.5"/><rect x="581.6" y="362.9" width="14.7" height="1.1" fill="#93c5fd" stroke="#60a5fa" stroke-width="0.5"/><rect x="598.3" y="363.1" width="14.7" height="0.9" fill="#93c5fd" stroke="#60a5fa" stroke-width="0.5"/><rect x="615.0" y="363.8" width="14.7" height="0.2" fill="#93c5fd" stroke="#60a5fa" stroke-width="0.5"/><rect x="631.7" y="363.8" width="14.7" height="0.2" fill="#93c5fd" stroke="#60a5fa" stroke-width="0.5"/><rect x="648.3" y="363.7" width="14.7" height="0.3" fill="#93c5fd" stroke="#60a5fa" stroke-width="0.5"/><rect x="665.0" y="363.6" width="14.7" height="0.4" fill="#93c5fd" stroke="#60a5fa" stroke-width="0.5"/><rect x="681.7" y="363.4" width="14.7" height="0.6" fill="#93c5fd" stroke="#60a5fa" stroke-width="0.5"/><rect x="698.4" y="363.4" width="14.7" height="0.6" fill="#93c5fd" stroke="#60a5fa" stroke-width="0.5"/><rect x="715.1" y="363.5" width="14.7" height="0.5" fill="#93c5fd" stroke="#60a5fa" stroke-width="0.5"/><rect x="731.8" y="363.1" width="14.7" height="0.9" fill="#93c5fd" stroke="#60a5fa" stroke-width="0.5"/><rect x="748.5" y="363.1" width="14.7" height="0.9" fill="#93c5fd" stroke="#60a5fa" stroke-width="0.5"/><rect x="765.1" y="362.7" width="14.7" height="1.3" fill="#93c5fd" stroke="#60a5fa" stroke-width="0.5"/><rect x="781.8" y="362.8" width="14.7" height="1.2" fill="#93c5fd" stroke="#60a5fa" stroke-width="0.5"/><rect x="798.5" y="362.7" width="14.7" height="1.3" fill="#93c5fd" stroke="#60a5fa" stroke-width="0.5"/><rect x="815.2" y="362.2" width="14.7" height="1.8" fill="#93c5fd" stroke="#60a5fa" stroke-width="0.5"/><rect x="831.9" y="361.7" width="14.7" height="2.3" fill="#93c5fd" stroke="#60a5fa" stroke-width="0.5"/><rect x="848.6" y="361.0" width="14.7" height="3.0" fill="#93c5fd" stroke="#60a5fa" stroke-width="0.5"/><rect x="865.3" y="360.2" width="14.7" height="3.8" fill="#93c5fd" stroke="#60a5fa" stroke-width="0.5"/><rect x="882.0" y="358.6" width="14.7" height="5.4" fill="#93c5fd" stroke="#60a5fa" stroke-width="0.5"/><rect x="898.6" y="359.1" width="14.7" height="4.9" fill="#93c5fd" stroke="#60a5fa" stroke-width="0.5"/><rect x="915.3" y="358.5" width="14.7" height="5.5" fill="#93c5fd" stroke="#60a5fa" stroke-width="0.5"/><rect x="932.0" y="358.0" width="14.7" height="6.0" fill="#93c5fd" stroke="#60a5fa" stroke-width="0.5"/><rect x="948.7" y="357.0" width="14.7" height="7.0" fill="#93c5fd" stroke="#60a5fa" stroke-width="0.5"/><rect x="965.4" y="354.6" width="14.7" height="9.4" fill="#93c5fd" stroke="#60a5fa" stroke-width="0.5"/><rect x="982.1" y="353.0" width="14.7" height="11.0" fill="#93c5fd" stroke="#60a5fa" stroke-width="0.5"/><rect x="998.8" y="353.1" width="14.7" height="10.9" fill="#93c5fd" stroke="#60a5fa" stroke-width="0.5"/><rect x="1015.4" y="351.1" width="14.7" height="12.9" fill="#93c5fd" stroke="#60a5fa" stroke-width="0.5"/><rect x="1032.1" y="347.7" width="14.7" height="16.3" fill="#93c5fd" stroke="#60a5fa" stroke-width="0.5"/><rect x="1048.8" y="345.9" width="14.7" height="18.1" fill="#93c5fd" stroke="#60a5fa" stroke-width="0.5"/><rect x="1065.5" y="315.8" width="14.7" height="48.2" fill="#93c5fd" stroke="#60a5fa" stroke-width="0.5"/><rect x="1082.2" y="309.3" width="14.7" height="54.7" fill="#93c5fd" stroke="#60a5fa" stroke-width="0.5"/><rect x="1098.9" y="292.3" width="14.7" height="71.7" fill="#93c5fd" stroke="#60a5fa" stroke-width="0.5"/><rect x="1115.6" y="249.7" width="14.7" height="114.3" fill="#93c5fd" stroke="#60a5fa" stroke-width="0.5"/><rect x="1132.3" y="175.1" width="14.7" height="188.9" fill="#93c5fd" stroke="#60a5fa" stroke-width="0.5"/><rect x="1148.9" y="186.9" width="14.7" height="177.1" fill="#93c5fd" stroke="#60a5fa" stroke-width="0.5"/><rect x="1165.6" y="52.0" width="14.7" height="312.0" fill="#93c5fd" stroke="#60a5fa" stroke-width="0.5"/><rect x="1182.3" y="271.4" width="14.7" height="92.6" fill="#93c5fd" stroke="#60a5fa" stroke-width="0.5"/><polyline fill="none" stroke="#ef4444" stroke-width="2" points="88.3,364.0 105.0,364.0 121.7,364.0 138.4,364.0 155.1,363.9 171.8,363.9 188.5,363.9 205.1,363.8 221.8,363.8 238.5,363.7 255.2,363.7 271.9,363.6 288.6,363.6 305.3,363.4 322.0,363.3 338.6,363.1 355.3,362.9 372.0,362.7 388.7,362.6 405.4,362.5 422.1,362.4 438.8,361.4 455.4,361.3 472.1,361.2 488.8,361.1 505.5,361.1 522.2,361.0 538.9,361.0 555.6,360.8 572.3,360.5 588.9,360.2 605.6,360.0 622.3,359.9 639.0,359.9 655.7,359.8 672.4,359.7 689.1,359.5 705.7,359.4 722.4,359.2 739.1,359.0 755.8,358.8 772.5,358.4 789.2,358.1 805.9,357.8 822.6,357.3 839.2,356.7 855.9,355.9 872.6,354.9 889.3,353.5 906.0,352.3 922.7,350.8 939.4,349.3 956.0,347.5 972.7,345.0 989.4,342.2 1006.1,339.3 1022.8,336.0 1039.5,331.7 1056.2,327.0 1072.9,314.5 1089.5,300.3 1106.2,281.7 1122.9,252.1 1139.6,203.0 1156.3,157.0 1173.0,76.0 1189.7,52.0"/><line x1="88.3" y1="364.0" x2="88.3" y2="370.0" stroke="#111827" stroke-width="1"/><text x="90.3" y="386.0" font-size="11" text-anchor="end" transform="rotate(-35 90.3 386.0)" font-family="sans-serif" fill="#374151">2020-10</text><line x1="238.5" y1="364.0" x2="238.5" y2="370.0" stroke="#111827" stroke-width="1"/><text x="240.5" y="386.0" font-size="11" text-anchor="end" transform="rotate(-35 240.5 386.0)" font-family="sans-serif" fill="#374151">2021-07</text><line x1="405.4" y1="364.0" x2="405.4" y2="370.0" stroke="#111827" stroke-width="1"/><text x="407.4" y="386.0" font-size="11" text-anchor="end" transform="rotate(-35 407.4 386.0)" font-family="sans-serif" fill="#374151">2022-05</text><line x1="555.6" y1="364.0" x2="555.6" y2="370.0" stroke="#111827" stroke-width="1"/><text x="557.6" y="386.0" font-size="11" text-anchor="end" transform="rotate(-35 557.6 386.0)" font-family="sans-serif" fill="#374151">2023-02</text><line x1="722.4" y1="364.0" x2="722.4" y2="370.0" stroke="#111827" stroke-width="1"/><text x="724.4" y="386.0" font-size="11" text-anchor="end" transform="rotate(-35 724.4 386.0)" font-family="sans-serif" fill="#374151">2023-12</text><line x1="872.6" y1="364.0" x2="872.6" y2="370.0" stroke="#111827" stroke-width="1"/><text x="874.6" y="386.0" font-size="11" text-anchor="end" transform="rotate(-35 874.6 386.0)" font-family="sans-serif" fill="#374151">2024-09</text><line x1="1039.5" y1="364.0" x2="1039.5" y2="370.0" stroke="#111827" stroke-width="1"/><text x="1041.5" y="386.0" font-size="11" text-anchor="end" transform="rotate(-35 1041.5 386.0)" font-family="sans-serif" fill="#374151">2025-07</text><line x1="1189.7" y1="364.0" x2="1189.7" y2="370.0" stroke="#111827" stroke-width="1"/><text x="1191.7" y="386.0" font-size="11" text-anchor="end" transform="rotate(-35 1191.7 386.0)" font-family="sans-serif" fill="#374151">2026-04</text><text x="26" y="208.0" font-size="12" transform="rotate(-90 26 208.0)" text-anchor="middle" font-family="sans-serif" fill="#1f2937">구간별 수</text><text x="1256.0" y="208.0" font-size="12" transform="rotate(90 1256.0 208.0)" text-anchor="middle" font-family="sans-serif" fill="#1f2937">누적</text><text x="639.0" y="442.0" font-size="13" text-anchor="middle" font-family="sans-serif" fill="#111827">월</text></svg>