<svg xmlns="http://www.w3.org/2000/svg" width="1280" height="460" viewBox="0 0 1280 460"><rect x="0" y="0" width="100%" height="100%" fill="#ffffff"/><text x="640.0" y="28" font-size="20" text-anchor="middle" font-family="sans-serif" fill="#111827">마켓 / 최근 반영 시점 / 일별</text><line x1="80.0" y1="52.0" x2="1198.0" y2="52.0" stroke="#e5e7eb" stroke-width="1"/><text x="72.0" y="56.0" font-size="11" text-anchor="end" font-family="sans-serif" fill="#374151">493,407</text><text x="1206.0" y="56.0" font-size="11" text-anchor="start" font-family="sans-serif" fill="#374151">951,801</text><line x1="80.0" y1="114.4" x2="1198.0" y2="114.4" stroke="#e5e7eb" stroke-width="1"/><text x="72.0" y="118.4" font-size="11" text-anchor="end" font-family="sans-serif" fill="#374151">394,726</text><text x="1206.0" y="118.4" font-size="11" text-anchor="start" font-family="sans-serif" fill="#374151">761,441</text><line x1="80.0" y1="176.8" x2="1198.0" y2="176.8" stroke="#e5e7eb" stroke-width="1"/><text x="72.0" y="180.8" font-size="11" text-anchor="end" font-family="sans-serif" fill="#374151">296,044</text><text x="1206.0" y="180.8" font-size="11" text-anchor="start" font-family="sans-serif" fill="#374151">571,081</text><line x1="80.0" y1="239.2" x2="1198.0" y2="239.2" stroke="#e5e7eb" stroke-width="1"/><text x="72.0" y="243.2" font-size="11" text-anchor="end" font-family="sans-serif" fill="#374151">197,363</text><text x="1206.0" y="243.2" font-size="11" text-anchor="start" font-family="sans-serif" fill="#374151">380,720</text><line x1="80.0" y1="301.6" x2="1198.0" y2="301.6" stroke="#e5e7eb" stroke-width="1"/><text x="72.0" y="305.6" font-size="11" text-anchor="end" font-family="sans-serif" fill="#374151">98,681</text><text x="1206.0" y="305.6" font-size="11" text-anchor="start" font-family="sans-serif" fill="#374151">190,360</text><line x1="80.0" y1="364.0" x2="1198.0" y2="364.0" stroke="#e5e7eb" stroke-width="1"/><text x="72.0" y="368.0" font-size="11" text-anchor="end" font-family="sans-serif" fill="#374151">0</text><text x="1206.0" y="368.0" font-size="11" text-anchor="start" font-family="sans-serif" fill="#374151">0</text><line x1="80.0" y1="364.0" x2="1198.0" y2="364.0" stroke="#111827" stroke-width="1.2"/><line x1="80.0" y1="52.0" x2="80.0" y2="364.0" stroke="#111827" stroke-width="1.2"/><line x1="1198.0" y1="52.0" x2="1198.0" y2="364.0" stroke="#111827" stroke-width="1.2"/><rect x="81.0" y="346.1" width="19.5" height="17.9" fill="#93c5fd" stroke="#60a5fa" stroke-width="0.5"/><rect x="102.5" y="358.6" width="19.5" height="5.4" fill="#93c5fd" stroke="#60a5fa" stroke-width="0.5"/><rect x="124.0" y="52.0" width="19.5" height="312.0" fill="#93c5fd" stroke="#60a5fa" stroke-width="0.5"/><rect x="145.5" y="361.7" width="19.5" height="2.3" fill="#93c5fd" stroke="#60a5fa" stroke-width="0.5"/><rect x="167.0" y="361.2" width="19.5" height="2.8" fill="#93c5fd" stroke="#60a5fa" stroke-width="0.5"/><rect x="188.5" y="361.0" width="19.5" height="3.0" fill="#93c5fd" stroke="#60a5fa" stroke-width="0.5"/><rect x="210.0" y="362.6" width="19.5" height="1.4" fill="#93c5fd" stroke="#60a5fa" stroke-width="0.5"/><rect x="231.5" y="357.9" width="19.5" height="6.1" fill="#93c5fd" stroke="#60a5fa" stroke-width="0.5"/><rect x="253.0" y="360.4" width="19.5" height="3.6" fill="#93c5fd" stroke="#60a5fa" stroke-width="0.5"/><rect x="274.5" y="361.1" width="19.5" height="2.9" fill="#93c5fd" stroke="#60a5fa" stroke-width="0.5"/><rect x="296.0" y="360.7" width="19.5" height="3.3" fill="#93c5fd" stroke="#60a5fa" stroke-width="0.5"/><rect x="317.5" y="359.4" width="19.5" height="4.6" fill="#93c5fd" stroke="#60a5fa" stroke-width="0.5"/><rect x="339.0" y="359.7" width="19.5" height="4.3" fill="#93c5fd" stroke="#60a5fa" stroke-width="0.5"/><rect x="360.5" y="360.0" width="19.5" height="4.0" fill="#93c5fd" stroke="#60a5fa" stroke-width="0.5"/><rect x="382.0" y="358.9" width="19.5" height="5.1" fill="#93c5fd" stroke="#60a5fa" stroke-width="0.5"/><rect x="403.5" y="358.9" width="19.5" height="5.1" fill="#93c5fd" stroke="#60a5fa" stroke-width="0.5"/><rect x="425.0" y="359.7" width="19.5" height="4.3" fill="#93c5fd" stroke="#60a5fa" stroke-width="0.5"/><rect x="446.5" y="359.4" width="19.5" height="4.6" fill="#93c5fd" stroke="#60a5fa" stroke-width="0.5"/><rect x="468.0" y="359.3" width="19.5" height="4.7" fill="#93c5fd" stroke="#60a5fa" stroke-width="0.5"/><rect x="489.5" y="358.6" width="19.5" height="5.4" fill="#93c5fd" stroke="#60a5fa" stroke-width="0.5"/><rect x="511.0" y="358.7" width="19.5" height="5.3" fill="#93c5fd" stroke="#60a5fa" stroke-width="0.5"/><rect x="532.5" y="359.5" width="19.5" height="4.5" fill="#93c5fd" stroke="#60a5fa" stroke-width="0.5"/><rect x="554.0" y="358.2" width="19.5" height="5.8" fill="#93c5fd" stroke="#60a5fa" stroke-width="0.5"/><rect x="575.5" y="359.1" width="19.5" height="4.9" fill="#93c5fd" stroke="#60a5fa" stroke-width="0.5"/><rect x="597.0" y="359.1" width="19.5" height="4.9" fill="#93c5fd" stroke="#60a5fa" stroke-width="0.5"/><rect x="618.5" y="358.4" width="19.5" height="5.6" fill="#93c5fd" stroke="#60a5fa" stroke-width="0.5"/><rect x="640.0" y="358.0" width="19.5" height="6.0" fill="#93c5fd" stroke="#60a5fa" stroke-width="0.5"/><rect x="661.5" y="357.5" width="19.5" height="6.5" fill="#93c5fd" stroke="#60a5fa" stroke-width="0.5"/><rect x="683.0" y="359.8" width="19.5" height="4.2" fill="#93c5fd" stroke="#60a5fa" stroke-width="0.5"/><rect x="704.5" y="359.7" width="19.5" height="4.3" fill="#93c5fd" stroke="#60a5fa" stroke-width="0.5"/><rect x="726.0" y="358.9" width="19.5" height="5.1" fill="#93c5fd" stroke="#60a5fa" stroke-width="0.5"/><rect x="747.5" y="358.9" width="19.5" height="5.1" fill="#93c5fd" stroke="#60a5fa" stroke-width="0.5"/><rect x="769.0" y="359.5" width="19.5" height="4.5" fill="#93c5fd" stroke="#60a5fa" stroke-width="0.5"/><rect x="790.5" y="358.2" width="19.5" height="5.8" fill="#93c5fd" stroke="#60a5fa" stroke-width="0.5"/><rect x="812.0" y="358.4" width="19.5" height="5.6" fill="#93c5fd" stroke="#60a5fa" stroke-width="0.5"/><rect x="833.5" y="357.6" width="19.5" height="6.4" fill="#93c5fd" stroke="#60a5fa" stroke-width="0.5"/><rect x="855.0" y="357.8" width="19.5" height="6.2" fill="#93c5fd" stroke="#60a5fa" stroke-width="0.5"/><rect x="876.5" y="356.4" width="19.5" height="7.6" fill="#93c5fd" stroke="#60a5fa" stroke-width="0.5"/><rect x="898.0" y="359.3" width="19.5" height="4.7" fill="#93c5fd" stroke="#60a5fa" stroke-width="0.5"/><rect x="919.5" y="359.6" width="19.5" height="4.4" fill="#93c5fd" stroke="#60a5fa" stroke-width="0.5"/><rect x="941.0" y="357.1" width="19.5" height="6.9" fill="#93c5fd" stroke="#60a5fa" stroke-width="0.5"/><rect x="962.5" y="356.9" width="19.5" height="7.1" fill="#93c5fd" stroke="#60a5fa" stroke-width="0.5"/><rect x="984.0" y="358.8" width="19.5" height="5.2" fill="#93c5fd" stroke="#60a5fa" stroke-width="0.5"/><rect x="1005.5" y="359.0" width="19.5" height="5.0" fill="#93c5fd" stroke="#60a5fa" stroke-width="0.5"/><rect x="1027.0" y="360.1" width="19.5" height="3.9" fill="#93c5fd" stroke="#60a5fa" stroke-width="0.5"/><rect x="1048.5" y="359.4" width="19.5" height="4.6" fill="#93c5fd" stroke="#60a5fa" stroke-width="0.5"/><rect x="1070.0" y="359.5" width="19.5" height="4.5" fill="#93c5fd" stroke="#60a5fa" stroke-width="0.5"/><rect x="1091.5" y="357.5" width="19.5" height="6.5" fill="#93c5fd" stroke="#60a5fa" stroke-width="0.5"/><rect x="1113.0" y="358.0" width="19.5" height="6.0" fill="#93c5fd" stroke="#60a5fa" stroke-width="0.5"/><rect x="1134.5" y="359.0" width="19.5" height="5.0" fill="#93c5fd" stroke="#60a5fa" stroke-width="0.5"/><rect x="1156.0" y="356.7" width="19.5" height="7.3" fill="#93c5fd" stroke="#60a5fa" stroke-width="0.5"/><rect x="1177.5" y="334.4" width="19.5" height="29.6" fill="#93c5fd" stroke="#60a5fa" stroke-width="0.5"/><polyline fill="none" stroke="#ef4444" stroke-width="2" points="90.8,354.7 112.2,351.9 133.8,190.2 155.2,189.0 176.8,187.5 198.2,186.0 219.8,185.3 241.2,182.1 262.8,180.3 284.2,178.7 305.8,177.0 327.2,174.7 348.8,172.4 370.2,170.4 391.8,167.7 413.2,165.1 434.8,162.9 456.2,160.5 477.8,158.1 499.2,155.3 520.8,152.5 542.2,150.2 563.8,147.2 585.2,144.6 606.8,142.1 628.2,139.2 649.8,136.1 671.2,132.7 692.8,130.5 714.2,128.3 735.8,125.6 757.2,123.0 778.8,120.6 800.2,117.6 821.8,114.7 843.2,111.4 864.8,108.2 886.2,104.2 907.8,101.8 929.2,99.5 950.8,95.9 972.2,92.2 993.8,89.5 1015.2,87.0 1036.8,84.9 1058.2,82.6 1079.8,80.2 1101.2,76.9 1122.8,73.7 1144.2,71.1 1165.8,67.3 1187.2,52.0"/><line x1="90.8" y1="364.0" x2="90.8" y2="370.0" stroke="#111827" stroke-width="1"/><text x="92.8" y="386.0" font-size="11" text-anchor="end" transform="rotate(-35 92.8 386.0)" font-family="sans-serif" fill="#374151">2026-02-28</text><line x1="241.2" y1="364.0" x2="241.2" y2="370.0" stroke="#111827" stroke-width="1"/><text x="243.2" y="386.0" font-size="11" text-anchor="end" transform="rotate(-35 243.2 386.0)" font-family="sans-serif" fill="#374151">2026-03-09</text><line x1="413.2" y1="364.0" x2="413.2" y2="370.0" stroke="#111827" stroke-width="1"/><text x="415.2" y="386.0" font-size="11" text-anchor="end" transform="rotate(-35 415.2 386.0)" font-family="sans-serif" fill="#374151">2026-03-17</text><line x1="563.8" y1="364.0" x2="563.8" y2="370.0" stroke="#111827" stroke-width="1"/><text x="565.8" y="386.0" font-size="11" text-anchor="end" transform="rotate(-35 565.8 386.0)" font-family="sans-serif" fill="#374151">2026-03-24</text><line x1="714.2" y1="364.0" x2="714.2" y2="370.0" stroke="#111827" stroke-width="1"/><text x="716.2" y="386.0" font-size="11" text-anchor="end" transform="rotate(-35 716.2 386.0)" font-family="sans-serif" fill="#374151">2026-03-31</text><line x1="864.8" y1="364.0" x2="864.8" y2="370.0" stroke="#111827" stroke-width="1"/><text x="866.8" y="386.0" font-size="11" text-anchor="end" transform="rotate(-35 866.8 386.0)" font-family="sans-serif" fill="#374151">2026-04-07</text><line x1="1036.8" y1="364.0" x2="1036.8" y2="370.0" stroke="#111827" stroke-width="1"/><text x="1038.8" y="386.0" font-size="11" text-anchor="end" transform="rotate(-35 1038.8 386.0)" font-family="sans-serif" fill="#374151">2026-04-15</text><line x1="1187.2" y1="364.0" x2="1187.2" y2="370.0" stroke="#111827" stroke-width="1"/><text x="1189.2" y="386.0" font-size="11" text-anchor="end" transform="rotate(-35 1189.2 386.0)" font-family="sans-serif" fill="#374151">2026-04-22</text><text x="26" y="208.0" font-size="12" transform="rotate(-90 26 208.0)" text-anchor="middle" font-family="sans-serif" fill="#1f2937">구간별 수</text><text x="1256.0" y="208.0" font-size="12" transform="rotate(90 1256.0 208.0)" text-anchor="middle" font-family="sans-serif" fill="#1f2937">누적</text><text x="639.0" y="442.0" font-size="13" text-anchor="middle" font-family="sans-serif" fill="#111827">일</text></svg>