<svg xmlns="http://www.w3.org/2000/svg" width="1280" height="460" viewBox="0 0 1280 460"><rect x="0" y="0" width="100%" height="100%" fill="#ffffff"/><text x="640.0" y="28" font-size="20" text-anchor="middle" font-family="sans-serif" fill="#111827">마켓 / 최근 반영 시점 / 일별</text><line x1="80.0" y1="52.0" x2="1198.0" y2="52.0" stroke="#e5e7eb" stroke-width="1"/><text x="72.0" y="56.0" font-size="11" text-anchor="end" font-family="sans-serif" fill="#374151">493,407</text><text x="1206.0" y="56.0" font-size="11" text-anchor="start" font-family="sans-serif" fill="#374151">782,341</text><line x1="80.0" y1="114.4" x2="1198.0" y2="114.4" stroke="#e5e7eb" stroke-width="1"/><text x="72.0" y="118.4" font-size="11" text-anchor="end" font-family="sans-serif" fill="#374151">394,726</text><text x="1206.0" y="118.4" font-size="11" text-anchor="start" font-family="sans-serif" fill="#374151">625,873</text><line x1="80.0" y1="176.8" x2="1198.0" y2="176.8" stroke="#e5e7eb" stroke-width="1"/><text x="72.0" y="180.8" font-size="11" text-anchor="end" font-family="sans-serif" fill="#374151">296,044</text><text x="1206.0" y="180.8" font-size="11" text-anchor="start" font-family="sans-serif" fill="#374151">469,405</text><line x1="80.0" y1="239.2" x2="1198.0" y2="239.2" stroke="#e5e7eb" stroke-width="1"/><text x="72.0" y="243.2" font-size="11" text-anchor="end" font-family="sans-serif" fill="#374151">197,363</text><text x="1206.0" y="243.2" font-size="11" text-anchor="start" font-family="sans-serif" fill="#374151">312,936</text><line x1="80.0" y1="301.6" x2="1198.0" y2="301.6" stroke="#e5e7eb" stroke-width="1"/><text x="72.0" y="305.6" font-size="11" text-anchor="end" font-family="sans-serif" fill="#374151">98,681</text><text x="1206.0" y="305.6" font-size="11" text-anchor="start" font-family="sans-serif" fill="#374151">156,468</text><line x1="80.0" y1="364.0" x2="1198.0" y2="364.0" stroke="#e5e7eb" stroke-width="1"/><text x="72.0" y="368.0" font-size="11" text-anchor="end" font-family="sans-serif" fill="#374151">0</text><text x="1206.0" y="368.0" font-size="11" text-anchor="start" font-family="sans-serif" fill="#374151">0</text><line x1="80.0" y1="364.0" x2="1198.0" y2="364.0" stroke="#111827" stroke-width="1.2"/><line x1="80.0" y1="52.0" x2="80.0" y2="364.0" stroke="#111827" stroke-width="1.2"/><line x1="1198.0" y1="52.0" x2="1198.0" y2="364.0" stroke="#111827" stroke-width="1.2"/><rect x="81.0" y="346.0" width="32.9" height="18.0" fill="#93c5fd" stroke="#60a5fa" stroke-width="0.5"/><rect x="115.9" y="358.6" width="32.9" height="5.4" fill="#93c5fd" stroke="#60a5fa" stroke-width="0.5"/><rect x="150.9" y="52.0" width="32.9" height="312.0" fill="#93c5fd" stroke="#60a5fa" stroke-width="0.5"/><rect x="185.8" y="361.7" width="32.9" height="2.3" fill="#93c5fd" stroke="#60a5fa" stroke-width="0.5"/><rect x="220.8" y="361.2" width="32.9" height="2.8" fill="#93c5fd" stroke="#60a5fa" stroke-width="0.5"/><rect x="255.7" y="361.0" width="32.9" height="3.0" fill="#93c5fd" stroke="#60a5fa" stroke-width="0.5"/><rect x="290.6" y="362.6" width="32.9" height="1.4" fill="#93c5fd" stroke="#60a5fa" stroke-width="0.5"/><rect x="325.6" y="357.9" width="32.9" height="6.1" fill="#93c5fd" stroke="#60a5fa" stroke-width="0.5"/><rect x="360.5" y="360.4" width="32.9" height="3.6" fill="#93c5fd" stroke="#60a5fa" stroke-width="0.5"/><rect x="395.4" y="361.1" width="32.9" height="2.9" fill="#93c5fd" stroke="#60a5fa" stroke-width="0.5"/><rect x="430.4" y="360.7" width="32.9" height="3.3" fill="#93c5fd" stroke="#60a5fa" stroke-width="0.5"/><rect x="465.3" y="359.4" width="32.9" height="4.6" fill="#93c5fd" stroke="#60a5fa" stroke-width="0.5"/><rect x="500.2" y="359.7" width="32.9" height="4.3" fill="#93c5fd" stroke="#60a5fa" stroke-width="0.5"/><rect x="535.2" y="360.0" width="32.9" height="4.0" fill="#93c5fd" stroke="#60a5fa" stroke-width="0.5"/><rect x="570.1" y="358.9" width="32.9" height="5.1" fill="#93c5fd" stroke="#60a5fa" stroke-width="0.5"/><rect x="605.1" y="358.9" width="32.9" height="5.1" fill="#93c5fd" stroke="#60a5fa" stroke-width="0.5"/><rect x="640.0" y="359.7" width="32.9" height="4.3" fill="#93c5fd" stroke="#60a5fa" stroke-width="0.5"/><rect x="674.9" y="359.4" width="32.9" height="4.6" fill="#93c5fd" stroke="#60a5fa" stroke-width="0.5"/><rect x="709.9" y="359.3" width="32.9" height="4.7" fill="#93c5fd" stroke="#60a5fa" stroke-width="0.5"/><rect x="744.8" y="358.6" width="32.9" height="5.4" fill="#93c5fd" stroke="#60a5fa" stroke-width="0.5"/><rect x="779.8" y="358.7" width="32.9" height="5.3" fill="#93c5fd" stroke="#60a5fa" stroke-width="0.5"/><rect x="814.7" y="359.5" width="32.9" height="4.5" fill="#93c5fd" stroke="#60a5fa" stroke-width="0.5"/><rect x="849.6" y="358.2" width="32.9" height="5.8" fill="#93c5fd" stroke="#60a5fa" stroke-width="0.5"/><rect x="884.6" y="359.1" width="32.9" height="4.9" fill="#93c5fd" stroke="#60a5fa" stroke-width="0.5"/><rect x="919.5" y="359.1" width="32.9" height="4.9" fill="#93c5fd" stroke="#60a5fa" stroke-width="0.5"/><rect x="954.4" y="358.4" width="32.9" height="5.6" fill="#93c5fd" stroke="#60a5fa" stroke-width="0.5"/><rect x="989.4" y="358.0" width="32.9" height="6.0" fill="#93c5fd" stroke="#60a5fa" stroke-width="0.5"/><rect x="1024.3" y="357.4" width="32.9" height="6.6" fill="#93c5fd" stroke="#60a5fa" stroke-width="0.5"/><rect x="1059.2" y="359.8" width="32.9" height="4.2" fill="#93c5fd" stroke="#60a5fa" stroke-width="0.5"/><rect x="1094.2" y="359.7" width="32.9" height="4.3" fill="#93c5fd" stroke="#60a5fa" stroke-width="0.5"/><rect x="1129.1" y="358.0" width="32.9" height="6.0" fill="#93c5fd" stroke="#60a5fa" stroke-width="0.5"/><rect x="1164.1" y="330.2" width="32.9" height="33.8" fill="#93c5fd" stroke="#60a5fa" stroke-width="0.5"/><polyline fill="none" stroke="#ef4444" stroke-width="2" points="97.5,352.7 132.4,349.3 167.3,152.5 202.3,151.0 237.2,149.3 272.2,147.4 307.1,146.5 342.0,142.7 377.0,140.4 411.9,138.6 446.8,136.5 481.8,133.6 516.7,130.9 551.7,128.4 586.6,125.2 621.5,122.0 656.5,119.3 691.4,116.4 726.3,113.4 761.3,110.0 796.2,106.7 831.2,103.9 866.1,100.2 901.0,97.1 936.0,94.0 970.9,90.5 1005.8,86.7 1040.8,82.5 1075.7,79.9 1110.7,77.1 1145.6,73.3 1180.5,52.0"/><line x1="97.5" y1="364.0" x2="97.5" y2="370.0" stroke="#111827" stroke-width="1"/><text x="99.5" y="386.0" font-size="11" text-anchor="end" transform="rotate(-35 99.5 386.0)" font-family="sans-serif" fill="#374151">2026-02-28</text><line x1="237.2" y1="364.0" x2="237.2" y2="370.0" stroke="#111827" stroke-width="1"/><text x="239.2" y="386.0" font-size="11" text-anchor="end" transform="rotate(-35 239.2 386.0)" font-family="sans-serif" fill="#374151">2026-03-04</text><line x1="411.9" y1="364.0" x2="411.9" y2="370.0" stroke="#111827" stroke-width="1"/><text x="413.9" y="386.0" font-size="11" text-anchor="end" transform="rotate(-35 413.9 386.0)" font-family="sans-serif" fill="#374151">2026-03-11</text><line x1="551.7" y1="364.0" x2="551.7" y2="370.0" stroke="#111827" stroke-width="1"/><text x="553.7" y="386.0" font-size="11" text-anchor="end" transform="rotate(-35 553.7 386.0)" font-family="sans-serif" fill="#374151">2026-03-15</text><line x1="726.3" y1="364.0" x2="726.3" y2="370.0" stroke="#111827" stroke-width="1"/><text x="728.3" y="386.0" font-size="11" text-anchor="end" transform="rotate(-35 728.3 386.0)" font-family="sans-serif" fill="#374151">2026-03-20</text><line x1="866.1" y1="364.0" x2="866.1" y2="370.0" stroke="#111827" stroke-width="1"/><text x="868.1" y="386.0" font-size="11" text-anchor="end" transform="rotate(-35 868.1 386.0)" font-family="sans-serif" fill="#374151">2026-03-24</text><line x1="1040.8" y1="364.0" x2="1040.8" y2="370.0" stroke="#111827" stroke-width="1"/><text x="1042.8" y="386.0" font-size="11" text-anchor="end" transform="rotate(-35 1042.8 386.0)" font-family="sans-serif" fill="#374151">2026-03-29</text><line x1="1180.5" y1="364.0" x2="1180.5" y2="370.0" stroke="#111827" stroke-width="1"/><text x="1182.5" y="386.0" font-size="11" text-anchor="end" transform="rotate(-35 1182.5 386.0)" font-family="sans-serif" fill="#374151">2026-04-02</text><text x="26" y="208.0" font-size="12" transform="rotate(-90 26 208.0)" text-anchor="middle" font-family="sans-serif" fill="#1f2937">구간별 수</text><text x="1256.0" y="208.0" font-size="12" transform="rotate(90 1256.0 208.0)" text-anchor="middle" font-family="sans-serif" fill="#1f2937">누적</text><text x="639.0" y="442.0" font-size="13" text-anchor="middle" font-family="sans-serif" fill="#111827">일</text></svg>