<svg xmlns="http://www.w3.org/2000/svg" width="1280" height="460" viewBox="0 0 1280 460"><rect x="0" y="0" width="100%" height="100%" fill="#ffffff"/><text x="640.0" y="28" font-size="20" text-anchor="middle" font-family="sans-serif" fill="#111827">마켓 / 최근 반영 시점 / 일별</text><line x1="80.0" y1="52.0" x2="1198.0" y2="52.0" stroke="#e5e7eb" stroke-width="1"/><text x="72.0" y="56.0" font-size="11" text-anchor="end" font-family="sans-serif" fill="#374151">493,407</text><text x="1206.0" y="56.0" font-size="11" text-anchor="start" font-family="sans-serif" fill="#374151">1,001,442</text><line x1="80.0" y1="114.4" x2="1198.0" y2="114.4" stroke="#e5e7eb" stroke-width="1"/><text x="72.0" y="118.4" font-size="11" text-anchor="end" font-family="sans-serif" fill="#374151">394,726</text><text x="1206.0" y="118.4" font-size="11" text-anchor="start" font-family="sans-serif" fill="#374151">801,154</text><line x1="80.0" y1="176.8" x2="1198.0" y2="176.8" stroke="#e5e7eb" stroke-width="1"/><text x="72.0" y="180.8" font-size="11" text-anchor="end" font-family="sans-serif" fill="#374151">296,044</text><text x="1206.0" y="180.8" font-size="11" text-anchor="start" font-family="sans-serif" fill="#374151">600,865</text><line x1="80.0" y1="239.2" x2="1198.0" y2="239.2" stroke="#e5e7eb" stroke-width="1"/><text x="72.0" y="243.2" font-size="11" text-anchor="end" font-family="sans-serif" fill="#374151">197,363</text><text x="1206.0" y="243.2" font-size="11" text-anchor="start" font-family="sans-serif" fill="#374151">400,577</text><line x1="80.0" y1="301.6" x2="1198.0" y2="301.6" stroke="#e5e7eb" stroke-width="1"/><text x="72.0" y="305.6" font-size="11" text-anchor="end" font-family="sans-serif" fill="#374151">98,681</text><text x="1206.0" y="305.6" font-size="11" text-anchor="start" font-family="sans-serif" fill="#374151">200,288</text><line x1="80.0" y1="364.0" x2="1198.0" y2="364.0" stroke="#e5e7eb" stroke-width="1"/><text x="72.0" y="368.0" font-size="11" text-anchor="end" font-family="sans-serif" fill="#374151">0</text><text x="1206.0" y="368.0" font-size="11" text-anchor="start" font-family="sans-serif" fill="#374151">0</text><line x1="80.0" y1="364.0" x2="1198.0" y2="364.0" stroke="#111827" stroke-width="1.2"/><line x1="80.0" y1="52.0" x2="80.0" y2="364.0" stroke="#111827" stroke-width="1.2"/><line x1="1198.0" y1="52.0" x2="1198.0" y2="364.0" stroke="#111827" stroke-width="1.2"/><rect x="81.0" y="346.1" width="17.3" height="17.9" fill="#93c5fd" stroke="#60a5fa" stroke-width="0.5"/><rect x="100.3" y="358.6" width="17.3" height="5.4" fill="#93c5fd" stroke="#60a5fa" stroke-width="0.5"/><rect x="119.6" y="52.0" width="17.3" height="312.0" fill="#93c5fd" stroke="#60a5fa" stroke-width="0.5"/><rect x="138.8" y="361.7" width="17.3" height="2.3" fill="#93c5fd" stroke="#60a5fa" stroke-width="0.5"/><rect x="158.1" y="361.2" width="17.3" height="2.8" fill="#93c5fd" stroke="#60a5fa" stroke-width="0.5"/><rect x="177.4" y="361.0" width="17.3" height="3.0" fill="#93c5fd" stroke="#60a5fa" stroke-width="0.5"/><rect x="196.7" y="362.6" width="17.3" height="1.4" fill="#93c5fd" stroke="#60a5fa" stroke-width="0.5"/><rect x="215.9" y="357.9" width="17.3" height="6.1" fill="#93c5fd" stroke="#60a5fa" stroke-width="0.5"/><rect x="235.2" y="360.4" width="17.3" height="3.6" fill="#93c5fd" stroke="#60a5fa" stroke-width="0.5"/><rect x="254.5" y="361.1" width="17.3" height="2.9" fill="#93c5fd" stroke="#60a5fa" stroke-width="0.5"/><rect x="273.8" y="360.7" width="17.3" height="3.3" fill="#93c5fd" stroke="#60a5fa" stroke-width="0.5"/><rect x="293.0" y="359.4" width="17.3" height="4.6" fill="#93c5fd" stroke="#60a5fa" stroke-width="0.5"/><rect x="312.3" y="359.7" width="17.3" height="4.3" fill="#93c5fd" stroke="#60a5fa" stroke-width="0.5"/><rect x="331.6" y="360.0" width="17.3" height="4.0" fill="#93c5fd" stroke="#60a5fa" stroke-width="0.5"/><rect x="350.9" y="358.9" width="17.3" height="5.1" fill="#93c5fd" stroke="#60a5fa" stroke-width="0.5"/><rect x="370.1" y="358.9" width="17.3" height="5.1" fill="#93c5fd" stroke="#60a5fa" stroke-width="0.5"/><rect x="389.4" y="359.7" width="17.3" height="4.3" fill="#93c5fd" stroke="#60a5fa" stroke-width="0.5"/><rect x="408.7" y="359.4" width="17.3" height="4.6" fill="#93c5fd" stroke="#60a5fa" stroke-width="0.5"/><rect x="428.0" y="359.3" width="17.3" height="4.7" fill="#93c5fd" stroke="#60a5fa" stroke-width="0.5"/><rect x="447.2" y="358.6" width="17.3" height="5.4" fill="#93c5fd" stroke="#60a5fa" stroke-width="0.5"/><rect x="466.5" y="358.7" width="17.3" height="5.3" fill="#93c5fd" stroke="#60a5fa" stroke-width="0.5"/><rect x="485.8" y="359.5" width="17.3" height="4.5" fill="#93c5fd" stroke="#60a5fa" stroke-width="0.5"/><rect x="505.1" y="358.2" width="17.3" height="5.8" fill="#93c5fd" stroke="#60a5fa" stroke-width="0.5"/><rect x="524.3" y="359.1" width="17.3" height="4.9" fill="#93c5fd" stroke="#60a5fa" stroke-width="0.5"/><rect x="543.6" y="359.1" width="17.3" height="4.9" fill="#93c5fd" stroke="#60a5fa" stroke-width="0.5"/><rect x="562.9" y="358.4" width="17.3" height="5.6" fill="#93c5fd" stroke="#60a5fa" stroke-width="0.5"/><rect x="582.2" y="358.0" width="17.3" height="6.0" fill="#93c5fd" stroke="#60a5fa" stroke-width="0.5"/><rect x="601.4" y="357.5" width="17.3" height="6.5" fill="#93c5fd" stroke="#60a5fa" stroke-width="0.5"/><rect x="620.7" y="359.8" width="17.3" height="4.2" fill="#93c5fd" stroke="#60a5fa" stroke-width="0.5"/><rect x="640.0" y="359.7" width="17.3" height="4.3" fill="#93c5fd" stroke="#60a5fa" stroke-width="0.5"/><rect x="659.3" y="358.9" width="17.3" height="5.1" fill="#93c5fd" stroke="#60a5fa" stroke-width="0.5"/><rect x="678.6" y="358.9" width="17.3" height="5.1" fill="#93c5fd" stroke="#60a5fa" stroke-width="0.5"/><rect x="697.8" y="359.5" width="17.3" height="4.5" fill="#93c5fd" stroke="#60a5fa" stroke-width="0.5"/><rect x="717.1" y="358.2" width="17.3" height="5.8" fill="#93c5fd" stroke="#60a5fa" stroke-width="0.5"/><rect x="736.4" y="358.4" width="17.3" height="5.6" fill="#93c5fd" stroke="#60a5fa" stroke-width="0.5"/><rect x="755.7" y="357.6" width="17.3" height="6.4" fill="#93c5fd" stroke="#60a5fa" stroke-width="0.5"/><rect x="774.9" y="357.8" width="17.3" height="6.2" fill="#93c5fd" stroke="#60a5fa" stroke-width="0.5"/><rect x="794.2" y="356.4" width="17.3" height="7.6" fill="#93c5fd" stroke="#60a5fa" stroke-width="0.5"/><rect x="813.5" y="359.3" width="17.3" height="4.7" fill="#93c5fd" stroke="#60a5fa" stroke-width="0.5"/><rect x="832.8" y="359.6" width="17.3" height="4.4" fill="#93c5fd" stroke="#60a5fa" stroke-width="0.5"/><rect x="852.0" y="357.1" width="17.3" height="6.9" fill="#93c5fd" stroke="#60a5fa" stroke-width="0.5"/><rect x="871.3" y="356.9" width="17.3" height="7.1" fill="#93c5fd" stroke="#60a5fa" stroke-width="0.5"/><rect x="890.6" y="358.8" width="17.3" height="5.2" fill="#93c5fd" stroke="#60a5fa" stroke-width="0.5"/><rect x="909.9" y="359.0" width="17.3" height="5.0" fill="#93c5fd" stroke="#60a5fa" stroke-width="0.5"/><rect x="929.1" y="360.1" width="17.3" height="3.9" fill="#93c5fd" stroke="#60a5fa" stroke-width="0.5"/><rect x="948.4" y="359.4" width="17.3" height="4.6" fill="#93c5fd" stroke="#60a5fa" stroke-width="0.5"/><rect x="967.7" y="359.5" width="17.3" height="4.5" fill="#93c5fd" stroke="#60a5fa" stroke-width="0.5"/><rect x="987.0" y="357.5" width="17.3" height="6.5" fill="#93c5fd" stroke="#60a5fa" stroke-width="0.5"/><rect x="1006.2" y="358.0" width="17.3" height="6.0" fill="#93c5fd" stroke="#60a5fa" stroke-width="0.5"/><rect x="1025.5" y="359.0" width="17.3" height="5.0" fill="#93c5fd" stroke="#60a5fa" stroke-width="0.5"/><rect x="1044.8" y="359.5" width="17.3" height="4.5" fill="#93c5fd" stroke="#60a5fa" stroke-width="0.5"/><rect x="1064.1" y="358.7" width="17.3" height="5.3" fill="#93c5fd" stroke="#60a5fa" stroke-width="0.5"/><rect x="1083.3" y="358.8" width="17.3" height="5.2" fill="#93c5fd" stroke="#60a5fa" stroke-width="0.5"/><rect x="1102.6" y="358.7" width="17.3" height="5.3" fill="#93c5fd" stroke="#60a5fa" stroke-width="0.5"/><rect x="1121.9" y="356.9" width="17.3" height="7.1" fill="#93c5fd" stroke="#60a5fa" stroke-width="0.5"/><rect x="1141.2" y="357.3" width="17.3" height="6.7" fill="#93c5fd" stroke="#60a5fa" stroke-width="0.5"/><rect x="1160.4" y="354.2" width="17.3" height="9.8" fill="#93c5fd" stroke="#60a5fa" stroke-width="0.5"/><rect x="1179.7" y="339.5" width="17.3" height="24.5" fill="#93c5fd" stroke="#60a5fa" stroke-width="0.5"/><polyline fill="none" stroke="#ef4444" stroke-width="2" points="89.6,355.2 108.9,352.5 128.2,198.8 147.5,197.7 166.7,196.3 186.0,194.8 205.3,194.1 224.6,191.1 243.8,189.4 263.1,187.9 282.4,186.3 301.7,184.1 320.9,181.9 340.2,180.0 359.5,177.5 378.8,175.0 398.1,172.8 417.3,170.6 436.6,168.3 455.9,165.6 475.2,163.0 494.4,160.8 513.7,157.9 533.0,155.5 552.3,153.1 571.5,150.3 590.8,147.4 610.1,144.2 629.4,142.1 648.6,140.0 667.9,137.4 687.2,134.9 706.5,132.7 725.7,129.8 745.0,127.1 764.3,123.9 783.6,120.8 802.8,117.1 822.1,114.8 841.4,112.6 860.7,109.2 879.9,105.7 899.2,103.1 918.5,100.7 937.8,98.8 957.1,96.5 976.3,94.3 995.6,91.1 1014.9,88.1 1034.2,85.7 1053.4,83.4 1072.7,80.8 1092.0,78.3 1111.3,75.7 1130.5,72.2 1149.8,68.9 1169.1,64.1 1188.4,52.0"/><line x1="89.6" y1="364.0" x2="89.6" y2="370.0" stroke="#111827" stroke-width="1"/><text x="91.6" y="386.0" font-size="11" text-anchor="end" transform="rotate(-35 91.6 386.0)" font-family="sans-serif" fill="#374151">2026-02-28</text><line x1="243.8" y1="364.0" x2="243.8" y2="370.0" stroke="#111827" stroke-width="1"/><text x="245.8" y="386.0" font-size="11" text-anchor="end" transform="rotate(-35 245.8 386.0)" font-family="sans-serif" fill="#374151">2026-03-10</text><line x1="398.1" y1="364.0" x2="398.1" y2="370.0" stroke="#111827" stroke-width="1"/><text x="400.1" y="386.0" font-size="11" text-anchor="end" transform="rotate(-35 400.1 386.0)" font-family="sans-serif" fill="#374151">2026-03-18</text><line x1="552.3" y1="364.0" x2="552.3" y2="370.0" stroke="#111827" stroke-width="1"/><text x="554.3" y="386.0" font-size="11" text-anchor="end" transform="rotate(-35 554.3 386.0)" font-family="sans-serif" fill="#374151">2026-03-26</text><line x1="725.7" y1="364.0" x2="725.7" y2="370.0" stroke="#111827" stroke-width="1"/><text x="727.7" y="386.0" font-size="11" text-anchor="end" transform="rotate(-35 727.7 386.0)" font-family="sans-serif" fill="#374151">2026-04-04</text><line x1="879.9" y1="364.0" x2="879.9" y2="370.0" stroke="#111827" stroke-width="1"/><text x="881.9" y="386.0" font-size="11" text-anchor="end" transform="rotate(-35 881.9 386.0)" font-family="sans-serif" fill="#374151">2026-04-12</text><line x1="1034.2" y1="364.0" x2="1034.2" y2="370.0" stroke="#111827" stroke-width="1"/><text x="1036.2" y="386.0" font-size="11" text-anchor="end" transform="rotate(-35 1036.2 386.0)" font-family="sans-serif" fill="#374151">2026-04-20</text><line x1="1188.4" y1="364.0" x2="1188.4" y2="370.0" stroke="#111827" stroke-width="1"/><text x="1190.4" y="386.0" font-size="11" text-anchor="end" transform="rotate(-35 1190.4 386.0)" font-family="sans-serif" fill="#374151">2026-04-28</text><text x="26" y="208.0" font-size="12" transform="rotate(-90 26 208.0)" text-anchor="middle" font-family="sans-serif" fill="#1f2937">구간별 수</text><text x="1256.0" y="208.0" font-size="12" transform="rotate(90 1256.0 208.0)" text-anchor="middle" font-family="sans-serif" fill="#1f2937">누적</text><text x="639.0" y="442.0" font-size="13" text-anchor="middle" font-family="sans-serif" fill="#111827">일</text></svg>