<svg xmlns="http://www.w3.org/2000/svg" width="1280" height="460" viewBox="0 0 1280 460"><rect x="0" y="0" width="100%" height="100%" fill="#ffffff"/><text x="640.0" y="28" font-size="20" text-anchor="middle" font-family="sans-serif" fill="#111827">마켓 / 최근 반영 시점 / 일별</text><line x1="80.0" y1="52.0" x2="1198.0" y2="52.0" stroke="#e5e7eb" stroke-width="1"/><text x="72.0" y="56.0" font-size="11" text-anchor="end" font-family="sans-serif" fill="#374151">493,407</text><text x="1206.0" y="56.0" font-size="11" text-anchor="start" font-family="sans-serif" fill="#374151">894,336</text><line x1="80.0" y1="114.4" x2="1198.0" y2="114.4" stroke="#e5e7eb" stroke-width="1"/><text x="72.0" y="118.4" font-size="11" text-anchor="end" font-family="sans-serif" fill="#374151">394,726</text><text x="1206.0" y="118.4" font-size="11" text-anchor="start" font-family="sans-serif" fill="#374151">715,469</text><line x1="80.0" y1="176.8" x2="1198.0" y2="176.8" stroke="#e5e7eb" stroke-width="1"/><text x="72.0" y="180.8" font-size="11" text-anchor="end" font-family="sans-serif" fill="#374151">296,044</text><text x="1206.0" y="180.8" font-size="11" text-anchor="start" font-family="sans-serif" fill="#374151">536,602</text><line x1="80.0" y1="239.2" x2="1198.0" y2="239.2" stroke="#e5e7eb" stroke-width="1"/><text x="72.0" y="243.2" font-size="11" text-anchor="end" font-family="sans-serif" fill="#374151">197,363</text><text x="1206.0" y="243.2" font-size="11" text-anchor="start" font-family="sans-serif" fill="#374151">357,734</text><line x1="80.0" y1="301.6" x2="1198.0" y2="301.6" stroke="#e5e7eb" stroke-width="1"/><text x="72.0" y="305.6" font-size="11" text-anchor="end" font-family="sans-serif" fill="#374151">98,681</text><text x="1206.0" y="305.6" font-size="11" text-anchor="start" font-family="sans-serif" fill="#374151">178,867</text><line x1="80.0" y1="364.0" x2="1198.0" y2="364.0" stroke="#e5e7eb" stroke-width="1"/><text x="72.0" y="368.0" font-size="11" text-anchor="end" font-family="sans-serif" fill="#374151">0</text><text x="1206.0" y="368.0" font-size="11" text-anchor="start" font-family="sans-serif" fill="#374151">0</text><line x1="80.0" y1="364.0" x2="1198.0" y2="364.0" stroke="#111827" stroke-width="1.2"/><line x1="80.0" y1="52.0" x2="80.0" y2="364.0" stroke="#111827" stroke-width="1.2"/><line x1="1198.0" y1="52.0" x2="1198.0" y2="364.0" stroke="#111827" stroke-width="1.2"/><rect x="81.0" y="346.1" width="23.4" height="17.9" fill="#93c5fd" stroke="#60a5fa" stroke-width="0.5"/><rect x="106.4" y="358.6" width="23.4" height="5.4" fill="#93c5fd" stroke="#60a5fa" stroke-width="0.5"/><rect x="131.8" y="52.0" width="23.4" height="312.0" fill="#93c5fd" stroke="#60a5fa" stroke-width="0.5"/><rect x="157.2" y="361.7" width="23.4" height="2.3" fill="#93c5fd" stroke="#60a5fa" stroke-width="0.5"/><rect x="182.6" y="361.2" width="23.4" height="2.8" fill="#93c5fd" stroke="#60a5fa" stroke-width="0.5"/><rect x="208.0" y="361.0" width="23.4" height="3.0" fill="#93c5fd" stroke="#60a5fa" stroke-width="0.5"/><rect x="233.5" y="362.6" width="23.4" height="1.4" fill="#93c5fd" stroke="#60a5fa" stroke-width="0.5"/><rect x="258.9" y="357.9" width="23.4" height="6.1" fill="#93c5fd" stroke="#60a5fa" stroke-width="0.5"/><rect x="284.3" y="360.4" width="23.4" height="3.6" fill="#93c5fd" stroke="#60a5fa" stroke-width="0.5"/><rect x="309.7" y="361.1" width="23.4" height="2.9" fill="#93c5fd" stroke="#60a5fa" stroke-width="0.5"/><rect x="335.1" y="360.7" width="23.4" height="3.3" fill="#93c5fd" stroke="#60a5fa" stroke-width="0.5"/><rect x="360.5" y="359.4" width="23.4" height="4.6" fill="#93c5fd" stroke="#60a5fa" stroke-width="0.5"/><rect x="385.9" y="359.7" width="23.4" height="4.3" fill="#93c5fd" stroke="#60a5fa" stroke-width="0.5"/><rect x="411.3" y="360.0" width="23.4" height="4.0" fill="#93c5fd" stroke="#60a5fa" stroke-width="0.5"/><rect x="436.7" y="358.9" width="23.4" height="5.1" fill="#93c5fd" stroke="#60a5fa" stroke-width="0.5"/><rect x="462.1" y="358.9" width="23.4" height="5.1" fill="#93c5fd" stroke="#60a5fa" stroke-width="0.5"/><rect x="487.5" y="359.7" width="23.4" height="4.3" fill="#93c5fd" stroke="#60a5fa" stroke-width="0.5"/><rect x="513.0" y="359.4" width="23.4" height="4.6" fill="#93c5fd" stroke="#60a5fa" stroke-width="0.5"/><rect x="538.4" y="359.3" width="23.4" height="4.7" fill="#93c5fd" stroke="#60a5fa" stroke-width="0.5"/><rect x="563.8" y="358.6" width="23.4" height="5.4" fill="#93c5fd" stroke="#60a5fa" stroke-width="0.5"/><rect x="589.2" y="358.7" width="23.4" height="5.3" fill="#93c5fd" stroke="#60a5fa" stroke-width="0.5"/><rect x="614.6" y="359.5" width="23.4" height="4.5" fill="#93c5fd" stroke="#60a5fa" stroke-width="0.5"/><rect x="640.0" y="358.2" width="23.4" height="5.8" fill="#93c5fd" stroke="#60a5fa" stroke-width="0.5"/><rect x="665.4" y="359.1" width="23.4" height="4.9" fill="#93c5fd" stroke="#60a5fa" stroke-width="0.5"/><rect x="690.8" y="359.1" width="23.4" height="4.9" fill="#93c5fd" stroke="#60a5fa" stroke-width="0.5"/><rect x="716.2" y="358.4" width="23.4" height="5.6" fill="#93c5fd" stroke="#60a5fa" stroke-width="0.5"/><rect x="741.6" y="358.0" width="23.4" height="6.0" fill="#93c5fd" stroke="#60a5fa" stroke-width="0.5"/><rect x="767.0" y="357.5" width="23.4" height="6.5" fill="#93c5fd" stroke="#60a5fa" stroke-width="0.5"/><rect x="792.5" y="359.8" width="23.4" height="4.2" fill="#93c5fd" stroke="#60a5fa" stroke-width="0.5"/><rect x="817.9" y="359.7" width="23.4" height="4.3" fill="#93c5fd" stroke="#60a5fa" stroke-width="0.5"/><rect x="843.3" y="358.9" width="23.4" height="5.1" fill="#93c5fd" stroke="#60a5fa" stroke-width="0.5"/><rect x="868.7" y="358.9" width="23.4" height="5.1" fill="#93c5fd" stroke="#60a5fa" stroke-width="0.5"/><rect x="894.1" y="359.5" width="23.4" height="4.5" fill="#93c5fd" stroke="#60a5fa" stroke-width="0.5"/><rect x="919.5" y="358.2" width="23.4" height="5.8" fill="#93c5fd" stroke="#60a5fa" stroke-width="0.5"/><rect x="944.9" y="358.4" width="23.4" height="5.6" fill="#93c5fd" stroke="#60a5fa" stroke-width="0.5"/><rect x="970.3" y="357.6" width="23.4" height="6.4" fill="#93c5fd" stroke="#60a5fa" stroke-width="0.5"/><rect x="995.7" y="357.8" width="23.4" height="6.2" fill="#93c5fd" stroke="#60a5fa" stroke-width="0.5"/><rect x="1021.1" y="356.4" width="23.4" height="7.6" fill="#93c5fd" stroke="#60a5fa" stroke-width="0.5"/><rect x="1046.5" y="359.3" width="23.4" height="4.7" fill="#93c5fd" stroke="#60a5fa" stroke-width="0.5"/><rect x="1072.0" y="359.6" width="23.4" height="4.4" fill="#93c5fd" stroke="#60a5fa" stroke-width="0.5"/><rect x="1097.4" y="357.1" width="23.4" height="6.9" fill="#93c5fd" stroke="#60a5fa" stroke-width="0.5"/><rect x="1122.8" y="356.9" width="23.4" height="7.1" fill="#93c5fd" stroke="#60a5fa" stroke-width="0.5"/><rect x="1148.2" y="358.8" width="23.4" height="5.2" fill="#93c5fd" stroke="#60a5fa" stroke-width="0.5"/><rect x="1173.6" y="328.0" width="23.4" height="36.0" fill="#93c5fd" stroke="#60a5fa" stroke-width="0.5"/><polyline fill="none" stroke="#ef4444" stroke-width="2" points="92.7,354.1 118.1,351.1 143.5,179.0 168.9,177.7 194.3,176.2 219.8,174.5 245.2,173.8 270.6,170.4 296.0,168.4 321.4,166.8 346.8,165.0 372.2,162.5 397.6,160.1 423.0,157.9 448.4,155.1 473.8,152.3 499.2,150.0 524.7,147.4 550.1,144.8 575.5,141.8 600.9,138.9 626.3,136.5 651.7,133.3 677.1,130.5 702.5,127.8 727.9,124.7 753.3,121.4 778.8,117.8 804.2,115.5 829.6,113.1 855.0,110.3 880.4,107.5 905.8,105.0 931.2,101.8 956.6,98.7 982.0,95.1 1007.4,91.7 1032.8,87.5 1058.2,84.9 1083.7,82.5 1109.1,78.7 1134.5,74.7 1159.9,71.9 1185.3,52.0"/><line x1="92.7" y1="364.0" x2="92.7" y2="370.0" stroke="#111827" stroke-width="1"/><text x="94.7" y="386.0" font-size="11" text-anchor="end" transform="rotate(-35 94.7 386.0)" font-family="sans-serif" fill="#374151">2026-02-28</text><line x1="245.2" y1="364.0" x2="245.2" y2="370.0" stroke="#111827" stroke-width="1"/><text x="247.2" y="386.0" font-size="11" text-anchor="end" transform="rotate(-35 247.2 386.0)" font-family="sans-serif" fill="#374151">2026-03-08</text><line x1="397.6" y1="364.0" x2="397.6" y2="370.0" stroke="#111827" stroke-width="1"/><text x="399.6" y="386.0" font-size="11" text-anchor="end" transform="rotate(-35 399.6 386.0)" font-family="sans-serif" fill="#374151">2026-03-14</text><line x1="550.1" y1="364.0" x2="550.1" y2="370.0" stroke="#111827" stroke-width="1"/><text x="552.1" y="386.0" font-size="11" text-anchor="end" transform="rotate(-35 552.1 386.0)" font-family="sans-serif" fill="#374151">2026-03-20</text><line x1="727.9" y1="364.0" x2="727.9" y2="370.0" stroke="#111827" stroke-width="1"/><text x="729.9" y="386.0" font-size="11" text-anchor="end" transform="rotate(-35 729.9 386.0)" font-family="sans-serif" fill="#374151">2026-03-27</text><line x1="880.4" y1="364.0" x2="880.4" y2="370.0" stroke="#111827" stroke-width="1"/><text x="882.4" y="386.0" font-size="11" text-anchor="end" transform="rotate(-35 882.4 386.0)" font-family="sans-serif" fill="#374151">2026-04-02</text><line x1="1032.8" y1="364.0" x2="1032.8" y2="370.0" stroke="#111827" stroke-width="1"/><text x="1034.8" y="386.0" font-size="11" text-anchor="end" transform="rotate(-35 1034.8 386.0)" font-family="sans-serif" fill="#374151">2026-04-08</text><line x1="1185.3" y1="364.0" x2="1185.3" y2="370.0" stroke="#111827" stroke-width="1"/><text x="1187.3" y="386.0" font-size="11" text-anchor="end" transform="rotate(-35 1187.3 386.0)" font-family="sans-serif" fill="#374151">2026-04-14</text><text x="26" y="208.0" font-size="12" transform="rotate(-90 26 208.0)" text-anchor="middle" font-family="sans-serif" fill="#1f2937">구간별 수</text><text x="1256.0" y="208.0" font-size="12" transform="rotate(90 1256.0 208.0)" text-anchor="middle" font-family="sans-serif" fill="#1f2937">누적</text><text x="639.0" y="442.0" font-size="13" text-anchor="middle" font-family="sans-serif" fill="#111827">일</text></svg>