<svg xmlns="http://www.w3.org/2000/svg" width="1280" height="460" viewBox="0 0 1280 460"><rect x="0" y="0" width="100%" height="100%" fill="#ffffff"/><text x="640.0" y="28" font-size="20" text-anchor="middle" font-family="sans-serif" fill="#111827">마켓 / 최근 반영 시점 / 일별</text><line x1="80.0" y1="52.0" x2="1198.0" y2="52.0" stroke="#e5e7eb" stroke-width="1"/><text x="72.0" y="56.0" font-size="11" text-anchor="end" font-family="sans-serif" fill="#374151">493,407</text><text x="1206.0" y="56.0" font-size="11" text-anchor="start" font-family="sans-serif" fill="#374151">853,642</text><line x1="80.0" y1="114.4" x2="1198.0" y2="114.4" stroke="#e5e7eb" stroke-width="1"/><text x="72.0" y="118.4" font-size="11" text-anchor="end" font-family="sans-serif" fill="#374151">394,726</text><text x="1206.0" y="118.4" font-size="11" text-anchor="start" font-family="sans-serif" fill="#374151">682,914</text><line x1="80.0" y1="176.8" x2="1198.0" y2="176.8" stroke="#e5e7eb" stroke-width="1"/><text x="72.0" y="180.8" font-size="11" text-anchor="end" font-family="sans-serif" fill="#374151">296,044</text><text x="1206.0" y="180.8" font-size="11" text-anchor="start" font-family="sans-serif" fill="#374151">512,185</text><line x1="80.0" y1="239.2" x2="1198.0" y2="239.2" stroke="#e5e7eb" stroke-width="1"/><text x="72.0" y="243.2" font-size="11" text-anchor="end" font-family="sans-serif" fill="#374151">197,363</text><text x="1206.0" y="243.2" font-size="11" text-anchor="start" font-family="sans-serif" fill="#374151">341,457</text><line x1="80.0" y1="301.6" x2="1198.0" y2="301.6" stroke="#e5e7eb" stroke-width="1"/><text x="72.0" y="305.6" font-size="11" text-anchor="end" font-family="sans-serif" fill="#374151">98,681</text><text x="1206.0" y="305.6" font-size="11" text-anchor="start" font-family="sans-serif" fill="#374151">170,728</text><line x1="80.0" y1="364.0" x2="1198.0" y2="364.0" stroke="#e5e7eb" stroke-width="1"/><text x="72.0" y="368.0" font-size="11" text-anchor="end" font-family="sans-serif" fill="#374151">0</text><text x="1206.0" y="368.0" font-size="11" text-anchor="start" font-family="sans-serif" fill="#374151">0</text><line x1="80.0" y1="364.0" x2="1198.0" y2="364.0" stroke="#111827" stroke-width="1.2"/><line x1="80.0" y1="52.0" x2="80.0" y2="364.0" stroke="#111827" stroke-width="1.2"/><line x1="1198.0" y1="52.0" x2="1198.0" y2="364.0" stroke="#111827" stroke-width="1.2"/><rect x="81.0" y="346.1" width="25.9" height="17.9" fill="#93c5fd" stroke="#60a5fa" stroke-width="0.5"/><rect x="109.0" y="358.6" width="25.9" height="5.4" fill="#93c5fd" stroke="#60a5fa" stroke-width="0.5"/><rect x="136.9" y="52.0" width="25.9" height="312.0" fill="#93c5fd" stroke="#60a5fa" stroke-width="0.5"/><rect x="164.8" y="361.7" width="25.9" height="2.3" fill="#93c5fd" stroke="#60a5fa" stroke-width="0.5"/><rect x="192.8" y="361.2" width="25.9" height="2.8" fill="#93c5fd" stroke="#60a5fa" stroke-width="0.5"/><rect x="220.8" y="361.0" width="25.9" height="3.0" fill="#93c5fd" stroke="#60a5fa" stroke-width="0.5"/><rect x="248.7" y="362.6" width="25.9" height="1.4" fill="#93c5fd" stroke="#60a5fa" stroke-width="0.5"/><rect x="276.6" y="357.9" width="25.9" height="6.1" fill="#93c5fd" stroke="#60a5fa" stroke-width="0.5"/><rect x="304.6" y="360.4" width="25.9" height="3.6" fill="#93c5fd" stroke="#60a5fa" stroke-width="0.5"/><rect x="332.5" y="361.1" width="25.9" height="2.9" fill="#93c5fd" stroke="#60a5fa" stroke-width="0.5"/><rect x="360.5" y="360.7" width="25.9" height="3.3" fill="#93c5fd" stroke="#60a5fa" stroke-width="0.5"/><rect x="388.4" y="359.4" width="25.9" height="4.6" fill="#93c5fd" stroke="#60a5fa" stroke-width="0.5"/><rect x="416.4" y="359.7" width="25.9" height="4.3" fill="#93c5fd" stroke="#60a5fa" stroke-width="0.5"/><rect x="444.3" y="360.0" width="25.9" height="4.0" fill="#93c5fd" stroke="#60a5fa" stroke-width="0.5"/><rect x="472.3" y="358.9" width="25.9" height="5.1" fill="#93c5fd" stroke="#60a5fa" stroke-width="0.5"/><rect x="500.2" y="358.9" width="25.9" height="5.1" fill="#93c5fd" stroke="#60a5fa" stroke-width="0.5"/><rect x="528.2" y="359.7" width="25.9" height="4.3" fill="#93c5fd" stroke="#60a5fa" stroke-width="0.5"/><rect x="556.1" y="359.4" width="25.9" height="4.6" fill="#93c5fd" stroke="#60a5fa" stroke-width="0.5"/><rect x="584.1" y="359.3" width="25.9" height="4.7" fill="#93c5fd" stroke="#60a5fa" stroke-width="0.5"/><rect x="612.0" y="358.6" width="25.9" height="5.4" fill="#93c5fd" stroke="#60a5fa" stroke-width="0.5"/><rect x="640.0" y="358.7" width="25.9" height="5.3" fill="#93c5fd" stroke="#60a5fa" stroke-width="0.5"/><rect x="667.9" y="359.5" width="25.9" height="4.5" fill="#93c5fd" stroke="#60a5fa" stroke-width="0.5"/><rect x="695.9" y="358.2" width="25.9" height="5.8" fill="#93c5fd" stroke="#60a5fa" stroke-width="0.5"/><rect x="723.9" y="359.1" width="25.9" height="4.9" fill="#93c5fd" stroke="#60a5fa" stroke-width="0.5"/><rect x="751.8" y="359.1" width="25.9" height="4.9" fill="#93c5fd" stroke="#60a5fa" stroke-width="0.5"/><rect x="779.8" y="358.4" width="25.9" height="5.6" fill="#93c5fd" stroke="#60a5fa" stroke-width="0.5"/><rect x="807.7" y="358.0" width="25.9" height="6.0" fill="#93c5fd" stroke="#60a5fa" stroke-width="0.5"/><rect x="835.6" y="357.4" width="25.9" height="6.6" fill="#93c5fd" stroke="#60a5fa" stroke-width="0.5"/><rect x="863.6" y="359.8" width="25.9" height="4.2" fill="#93c5fd" stroke="#60a5fa" stroke-width="0.5"/><rect x="891.5" y="359.7" width="25.9" height="4.3" fill="#93c5fd" stroke="#60a5fa" stroke-width="0.5"/><rect x="919.5" y="358.9" width="25.9" height="5.1" fill="#93c5fd" stroke="#60a5fa" stroke-width="0.5"/><rect x="947.4" y="358.9" width="25.9" height="5.1" fill="#93c5fd" stroke="#60a5fa" stroke-width="0.5"/><rect x="975.4" y="359.5" width="25.9" height="4.5" fill="#93c5fd" stroke="#60a5fa" stroke-width="0.5"/><rect x="1003.4" y="358.2" width="25.9" height="5.8" fill="#93c5fd" stroke="#60a5fa" stroke-width="0.5"/><rect x="1031.3" y="358.3" width="25.9" height="5.7" fill="#93c5fd" stroke="#60a5fa" stroke-width="0.5"/><rect x="1059.2" y="357.6" width="25.9" height="6.4" fill="#93c5fd" stroke="#60a5fa" stroke-width="0.5"/><rect x="1087.2" y="357.8" width="25.9" height="6.2" fill="#93c5fd" stroke="#60a5fa" stroke-width="0.5"/><rect x="1115.1" y="356.4" width="25.9" height="7.6" fill="#93c5fd" stroke="#60a5fa" stroke-width="0.5"/><rect x="1143.1" y="359.2" width="25.9" height="4.8" fill="#93c5fd" stroke="#60a5fa" stroke-width="0.5"/><rect x="1171.0" y="330.2" width="25.9" height="33.8" fill="#93c5fd" stroke="#60a5fa" stroke-width="0.5"/><polyline fill="none" stroke="#ef4444" stroke-width="2" points="94.0,353.6 121.9,350.5 149.9,170.2 177.8,168.8 205.8,167.2 233.7,165.5 261.7,164.7 289.6,161.2 317.6,159.1 345.5,157.4 373.5,155.5 401.4,152.9 429.4,150.4 457.3,148.1 485.3,145.2 513.2,142.2 541.2,139.7 569.1,137.1 597.1,134.4 625.0,131.3 653.0,128.2 680.9,125.6 708.9,122.3 736.8,119.4 764.8,116.6 792.7,113.3 820.7,109.9 848.6,106.1 876.6,103.6 904.5,101.1 932.5,98.2 960.4,95.2 988.4,92.6 1016.3,89.3 1044.3,86.0 1072.2,82.3 1100.2,78.7 1128.1,74.3 1156.1,71.5 1184.0,52.0"/><line x1="94.0" y1="364.0" x2="94.0" y2="370.0" stroke="#111827" stroke-width="1"/><text x="96.0" y="386.0" font-size="11" text-anchor="end" transform="rotate(-35 96.0 386.0)" font-family="sans-serif" fill="#374151">2026-02-28</text><line x1="261.7" y1="364.0" x2="261.7" y2="370.0" stroke="#111827" stroke-width="1"/><text x="263.7" y="386.0" font-size="11" text-anchor="end" transform="rotate(-35 263.7 386.0)" font-family="sans-serif" fill="#374151">2026-03-08</text><line x1="401.4" y1="364.0" x2="401.4" y2="370.0" stroke="#111827" stroke-width="1"/><text x="403.4" y="386.0" font-size="11" text-anchor="end" transform="rotate(-35 403.4 386.0)" font-family="sans-serif" fill="#374151">2026-03-13</text><line x1="569.1" y1="364.0" x2="569.1" y2="370.0" stroke="#111827" stroke-width="1"/><text x="571.1" y="386.0" font-size="11" text-anchor="end" transform="rotate(-35 571.1 386.0)" font-family="sans-serif" fill="#374151">2026-03-19</text><line x1="708.9" y1="364.0" x2="708.9" y2="370.0" stroke="#111827" stroke-width="1"/><text x="710.9" y="386.0" font-size="11" text-anchor="end" transform="rotate(-35 710.9 386.0)" font-family="sans-serif" fill="#374151">2026-03-24</text><line x1="876.6" y1="364.0" x2="876.6" y2="370.0" stroke="#111827" stroke-width="1"/><text x="878.6" y="386.0" font-size="11" text-anchor="end" transform="rotate(-35 878.6 386.0)" font-family="sans-serif" fill="#374151">2026-03-30</text><line x1="1016.3" y1="364.0" x2="1016.3" y2="370.0" stroke="#111827" stroke-width="1"/><text x="1018.3" y="386.0" font-size="11" text-anchor="end" transform="rotate(-35 1018.3 386.0)" font-family="sans-serif" fill="#374151">2026-04-04</text><line x1="1184.0" y1="364.0" x2="1184.0" y2="370.0" stroke="#111827" stroke-width="1"/><text x="1186.0" y="386.0" font-size="11" text-anchor="end" transform="rotate(-35 1186.0 386.0)" font-family="sans-serif" fill="#374151">2026-04-10</text><text x="26" y="208.0" font-size="12" transform="rotate(-90 26 208.0)" text-anchor="middle" font-family="sans-serif" fill="#1f2937">구간별 수</text><text x="1256.0" y="208.0" font-size="12" transform="rotate(90 1256.0 208.0)" text-anchor="middle" font-family="sans-serif" fill="#1f2937">누적</text><text x="639.0" y="442.0" font-size="13" text-anchor="middle" font-family="sans-serif" fill="#111827">일</text></svg>