<svg xmlns="http://www.w3.org/2000/svg" width="1280" height="460" viewBox="0 0 1280 460"><rect x="0" y="0" width="100%" height="100%" fill="#ffffff"/><text x="640.0" y="28" font-size="20" text-anchor="middle" font-family="sans-serif" fill="#111827">마켓 / 최근 반영 시점 / 일별</text><line x1="80.0" y1="52.0" x2="1198.0" y2="52.0" stroke="#e5e7eb" stroke-width="1"/><text x="72.0" y="56.0" font-size="11" text-anchor="end" font-family="sans-serif" fill="#374151">493,407</text><text x="1206.0" y="56.0" font-size="11" text-anchor="start" font-family="sans-serif" fill="#374151">950,569</text><line x1="80.0" y1="114.4" x2="1198.0" y2="114.4" stroke="#e5e7eb" stroke-width="1"/><text x="72.0" y="118.4" font-size="11" text-anchor="end" font-family="sans-serif" fill="#374151">394,726</text><text x="1206.0" y="118.4" font-size="11" text-anchor="start" font-family="sans-serif" fill="#374151">760,455</text><line x1="80.0" y1="176.8" x2="1198.0" y2="176.8" stroke="#e5e7eb" stroke-width="1"/><text x="72.0" y="180.8" font-size="11" text-anchor="end" font-family="sans-serif" fill="#374151">296,044</text><text x="1206.0" y="180.8" font-size="11" text-anchor="start" font-family="sans-serif" fill="#374151">570,341</text><line x1="80.0" y1="239.2" x2="1198.0" y2="239.2" stroke="#e5e7eb" stroke-width="1"/><text x="72.0" y="243.2" font-size="11" text-anchor="end" font-family="sans-serif" fill="#374151">197,363</text><text x="1206.0" y="243.2" font-size="11" text-anchor="start" font-family="sans-serif" fill="#374151">380,228</text><line x1="80.0" y1="301.6" x2="1198.0" y2="301.6" stroke="#e5e7eb" stroke-width="1"/><text x="72.0" y="305.6" font-size="11" text-anchor="end" font-family="sans-serif" fill="#374151">98,681</text><text x="1206.0" y="305.6" font-size="11" text-anchor="start" font-family="sans-serif" fill="#374151">190,114</text><line x1="80.0" y1="364.0" x2="1198.0" y2="364.0" stroke="#e5e7eb" stroke-width="1"/><text x="72.0" y="368.0" font-size="11" text-anchor="end" font-family="sans-serif" fill="#374151">0</text><text x="1206.0" y="368.0" font-size="11" text-anchor="start" font-family="sans-serif" fill="#374151">0</text><line x1="80.0" y1="364.0" x2="1198.0" y2="364.0" stroke="#111827" stroke-width="1.2"/><line x1="80.0" y1="52.0" x2="80.0" y2="364.0" stroke="#111827" stroke-width="1.2"/><line x1="1198.0" y1="52.0" x2="1198.0" y2="364.0" stroke="#111827" stroke-width="1.2"/><rect x="81.0" y="346.1" width="19.9" height="17.9" fill="#93c5fd" stroke="#60a5fa" stroke-width="0.5"/><rect x="102.9" y="358.6" width="19.9" height="5.4" fill="#93c5fd" stroke="#60a5fa" stroke-width="0.5"/><rect x="124.8" y="52.0" width="19.9" height="312.0" fill="#93c5fd" stroke="#60a5fa" stroke-width="0.5"/><rect x="146.8" y="361.7" width="19.9" height="2.3" fill="#93c5fd" stroke="#60a5fa" stroke-width="0.5"/><rect x="168.7" y="361.2" width="19.9" height="2.8" fill="#93c5fd" stroke="#60a5fa" stroke-width="0.5"/><rect x="190.6" y="361.0" width="19.9" height="3.0" fill="#93c5fd" stroke="#60a5fa" stroke-width="0.5"/><rect x="212.5" y="362.6" width="19.9" height="1.4" fill="#93c5fd" stroke="#60a5fa" stroke-width="0.5"/><rect x="234.5" y="357.9" width="19.9" height="6.1" fill="#93c5fd" stroke="#60a5fa" stroke-width="0.5"/><rect x="256.4" y="360.4" width="19.9" height="3.6" fill="#93c5fd" stroke="#60a5fa" stroke-width="0.5"/><rect x="278.3" y="361.1" width="19.9" height="2.9" fill="#93c5fd" stroke="#60a5fa" stroke-width="0.5"/><rect x="300.2" y="360.7" width="19.9" height="3.3" fill="#93c5fd" stroke="#60a5fa" stroke-width="0.5"/><rect x="322.1" y="359.4" width="19.9" height="4.6" fill="#93c5fd" stroke="#60a5fa" stroke-width="0.5"/><rect x="344.1" y="359.7" width="19.9" height="4.3" fill="#93c5fd" stroke="#60a5fa" stroke-width="0.5"/><rect x="366.0" y="360.0" width="19.9" height="4.0" fill="#93c5fd" stroke="#60a5fa" stroke-width="0.5"/><rect x="387.9" y="358.9" width="19.9" height="5.1" fill="#93c5fd" stroke="#60a5fa" stroke-width="0.5"/><rect x="409.8" y="358.9" width="19.9" height="5.1" fill="#93c5fd" stroke="#60a5fa" stroke-width="0.5"/><rect x="431.7" y="359.7" width="19.9" height="4.3" fill="#93c5fd" stroke="#60a5fa" stroke-width="0.5"/><rect x="453.7" y="359.4" width="19.9" height="4.6" fill="#93c5fd" stroke="#60a5fa" stroke-width="0.5"/><rect x="475.6" y="359.3" width="19.9" height="4.7" fill="#93c5fd" stroke="#60a5fa" stroke-width="0.5"/><rect x="497.5" y="358.6" width="19.9" height="5.4" fill="#93c5fd" stroke="#60a5fa" stroke-width="0.5"/><rect x="519.4" y="358.7" width="19.9" height="5.3" fill="#93c5fd" stroke="#60a5fa" stroke-width="0.5"/><rect x="541.4" y="359.5" width="19.9" height="4.5" fill="#93c5fd" stroke="#60a5fa" stroke-width="0.5"/><rect x="563.3" y="358.2" width="19.9" height="5.8" fill="#93c5fd" stroke="#60a5fa" stroke-width="0.5"/><rect x="585.2" y="359.1" width="19.9" height="4.9" fill="#93c5fd" stroke="#60a5fa" stroke-width="0.5"/><rect x="607.1" y="359.1" width="19.9" height="4.9" fill="#93c5fd" stroke="#60a5fa" stroke-width="0.5"/><rect x="629.0" y="358.4" width="19.9" height="5.6" fill="#93c5fd" stroke="#60a5fa" stroke-width="0.5"/><rect x="651.0" y="358.0" width="19.9" height="6.0" fill="#93c5fd" stroke="#60a5fa" stroke-width="0.5"/><rect x="672.9" y="357.5" width="19.9" height="6.5" fill="#93c5fd" stroke="#60a5fa" stroke-width="0.5"/><rect x="694.8" y="359.8" width="19.9" height="4.2" fill="#93c5fd" stroke="#60a5fa" stroke-width="0.5"/><rect x="716.7" y="359.7" width="19.9" height="4.3" fill="#93c5fd" stroke="#60a5fa" stroke-width="0.5"/><rect x="738.6" y="358.9" width="19.9" height="5.1" fill="#93c5fd" stroke="#60a5fa" stroke-width="0.5"/><rect x="760.6" y="358.9" width="19.9" height="5.1" fill="#93c5fd" stroke="#60a5fa" stroke-width="0.5"/><rect x="782.5" y="359.5" width="19.9" height="4.5" fill="#93c5fd" stroke="#60a5fa" stroke-width="0.5"/><rect x="804.4" y="358.2" width="19.9" height="5.8" fill="#93c5fd" stroke="#60a5fa" stroke-width="0.5"/><rect x="826.3" y="358.4" width="19.9" height="5.6" fill="#93c5fd" stroke="#60a5fa" stroke-width="0.5"/><rect x="848.3" y="357.6" width="19.9" height="6.4" fill="#93c5fd" stroke="#60a5fa" stroke-width="0.5"/><rect x="870.2" y="357.8" width="19.9" height="6.2" fill="#93c5fd" stroke="#60a5fa" stroke-width="0.5"/><rect x="892.1" y="356.4" width="19.9" height="7.6" fill="#93c5fd" stroke="#60a5fa" stroke-width="0.5"/><rect x="914.0" y="359.3" width="19.9" height="4.7" fill="#93c5fd" stroke="#60a5fa" stroke-width="0.5"/><rect x="935.9" y="359.6" width="19.9" height="4.4" fill="#93c5fd" stroke="#60a5fa" stroke-width="0.5"/><rect x="957.9" y="357.1" width="19.9" height="6.9" fill="#93c5fd" stroke="#60a5fa" stroke-width="0.5"/><rect x="979.8" y="356.9" width="19.9" height="7.1" fill="#93c5fd" stroke="#60a5fa" stroke-width="0.5"/><rect x="1001.7" y="358.8" width="19.9" height="5.2" fill="#93c5fd" stroke="#60a5fa" stroke-width="0.5"/><rect x="1023.6" y="359.0" width="19.9" height="5.0" fill="#93c5fd" stroke="#60a5fa" stroke-width="0.5"/><rect x="1045.5" y="360.1" width="19.9" height="3.9" fill="#93c5fd" stroke="#60a5fa" stroke-width="0.5"/><rect x="1067.5" y="359.4" width="19.9" height="4.6" fill="#93c5fd" stroke="#60a5fa" stroke-width="0.5"/><rect x="1089.4" y="359.5" width="19.9" height="4.5" fill="#93c5fd" stroke="#60a5fa" stroke-width="0.5"/><rect x="1111.3" y="357.5" width="19.9" height="6.5" fill="#93c5fd" stroke="#60a5fa" stroke-width="0.5"/><rect x="1133.2" y="358.0" width="19.9" height="6.0" fill="#93c5fd" stroke="#60a5fa" stroke-width="0.5"/><rect x="1155.2" y="359.0" width="19.9" height="5.0" fill="#93c5fd" stroke="#60a5fa" stroke-width="0.5"/><rect x="1177.1" y="327.9" width="19.9" height="36.1" fill="#93c5fd" stroke="#60a5fa" stroke-width="0.5"/><polyline fill="none" stroke="#ef4444" stroke-width="2" points="91.0,354.7 112.9,351.9 134.8,190.0 156.7,188.7 178.6,187.3 200.6,185.7 222.5,185.0 244.4,181.9 266.3,180.0 288.3,178.5 310.2,176.8 332.1,174.4 354.0,172.2 375.9,170.1 397.9,167.5 419.8,164.9 441.7,162.6 463.6,160.2 485.5,157.8 507.5,155.0 529.4,152.3 551.3,149.9 573.2,146.9 595.2,144.4 617.1,141.8 639.0,138.9 660.9,135.8 682.8,132.4 704.8,130.2 726.7,128.0 748.6,125.3 770.5,122.7 792.5,120.3 814.4,117.3 836.3,114.4 858.2,111.1 880.1,107.8 902.1,103.9 924.0,101.4 945.9,99.1 967.8,95.6 989.7,91.9 1011.7,89.2 1033.6,86.6 1055.5,84.6 1077.4,82.2 1099.4,79.9 1121.3,76.5 1143.2,73.4 1165.1,70.7 1187.0,52.0"/><line x1="91.0" y1="364.0" x2="91.0" y2="370.0" stroke="#111827" stroke-width="1"/><text x="93.0" y="386.0" font-size="11" text-anchor="end" transform="rotate(-35 93.0 386.0)" font-family="sans-serif" fill="#374151">2026-02-28</text><line x1="244.4" y1="364.0" x2="244.4" y2="370.0" stroke="#111827" stroke-width="1"/><text x="246.4" y="386.0" font-size="11" text-anchor="end" transform="rotate(-35 246.4 386.0)" font-family="sans-serif" fill="#374151">2026-03-09</text><line x1="397.9" y1="364.0" x2="397.9" y2="370.0" stroke="#111827" stroke-width="1"/><text x="399.9" y="386.0" font-size="11" text-anchor="end" transform="rotate(-35 399.9 386.0)" font-family="sans-serif" fill="#374151">2026-03-16</text><line x1="551.3" y1="364.0" x2="551.3" y2="370.0" stroke="#111827" stroke-width="1"/><text x="553.3" y="386.0" font-size="11" text-anchor="end" transform="rotate(-35 553.3 386.0)" font-family="sans-serif" fill="#374151">2026-03-23</text><line x1="726.7" y1="364.0" x2="726.7" y2="370.0" stroke="#111827" stroke-width="1"/><text x="728.7" y="386.0" font-size="11" text-anchor="end" transform="rotate(-35 728.7 386.0)" font-family="sans-serif" fill="#374151">2026-03-31</text><line x1="880.1" y1="364.0" x2="880.1" y2="370.0" stroke="#111827" stroke-width="1"/><text x="882.1" y="386.0" font-size="11" text-anchor="end" transform="rotate(-35 882.1 386.0)" font-family="sans-serif" fill="#374151">2026-04-07</text><line x1="1033.6" y1="364.0" x2="1033.6" y2="370.0" stroke="#111827" stroke-width="1"/><text x="1035.6" y="386.0" font-size="11" text-anchor="end" transform="rotate(-35 1035.6 386.0)" font-family="sans-serif" fill="#374151">2026-04-14</text><line x1="1187.0" y1="364.0" x2="1187.0" y2="370.0" stroke="#111827" stroke-width="1"/><text x="1189.0" y="386.0" font-size="11" text-anchor="end" transform="rotate(-35 1189.0 386.0)" font-family="sans-serif" fill="#374151">2026-04-21</text><text x="26" y="208.0" font-size="12" transform="rotate(-90 26 208.0)" text-anchor="middle" font-family="sans-serif" fill="#1f2937">구간별 수</text><text x="1256.0" y="208.0" font-size="12" transform="rotate(90 1256.0 208.0)" text-anchor="middle" font-family="sans-serif" fill="#1f2937">누적</text><text x="639.0" y="442.0" font-size="13" text-anchor="middle" font-family="sans-serif" fill="#111827">일</text></svg>