<svg xmlns="http://www.w3.org/2000/svg" width="1280" height="460" viewBox="0 0 1280 460"><rect x="0" y="0" width="100%" height="100%" fill="#ffffff"/><text x="640.0" y="28" font-size="20" text-anchor="middle" font-family="sans-serif" fill="#111827">마켓 / 최근 반영 시점 / 일별</text><line x1="80.0" y1="52.0" x2="1198.0" y2="52.0" stroke="#e5e7eb" stroke-width="1"/><text x="72.0" y="56.0" font-size="11" text-anchor="end" font-family="sans-serif" fill="#374151">493,371</text><text x="1206.0" y="56.0" font-size="11" text-anchor="start" font-family="sans-serif" fill="#374151">1,026,687</text><line x1="80.0" y1="114.4" x2="1198.0" y2="114.4" stroke="#e5e7eb" stroke-width="1"/><text x="72.0" y="118.4" font-size="11" text-anchor="end" font-family="sans-serif" fill="#374151">394,697</text><text x="1206.0" y="118.4" font-size="11" text-anchor="start" font-family="sans-serif" fill="#374151">821,350</text><line x1="80.0" y1="176.8" x2="1198.0" y2="176.8" stroke="#e5e7eb" stroke-width="1"/><text x="72.0" y="180.8" font-size="11" text-anchor="end" font-family="sans-serif" fill="#374151">296,023</text><text x="1206.0" y="180.8" font-size="11" text-anchor="start" font-family="sans-serif" fill="#374151">616,012</text><line x1="80.0" y1="239.2" x2="1198.0" y2="239.2" stroke="#e5e7eb" stroke-width="1"/><text x="72.0" y="243.2" font-size="11" text-anchor="end" font-family="sans-serif" fill="#374151">197,348</text><text x="1206.0" y="243.2" font-size="11" text-anchor="start" font-family="sans-serif" fill="#374151">410,675</text><line x1="80.0" y1="301.6" x2="1198.0" y2="301.6" stroke="#e5e7eb" stroke-width="1"/><text x="72.0" y="305.6" font-size="11" text-anchor="end" font-family="sans-serif" fill="#374151">98,674</text><text x="1206.0" y="305.6" font-size="11" text-anchor="start" font-family="sans-serif" fill="#374151">205,337</text><line x1="80.0" y1="364.0" x2="1198.0" y2="364.0" stroke="#e5e7eb" stroke-width="1"/><text x="72.0" y="368.0" font-size="11" text-anchor="end" font-family="sans-serif" fill="#374151">0</text><text x="1206.0" y="368.0" font-size="11" text-anchor="start" font-family="sans-serif" fill="#374151">0</text><line x1="80.0" y1="364.0" x2="1198.0" y2="364.0" stroke="#111827" stroke-width="1.2"/><line x1="80.0" y1="52.0" x2="80.0" y2="364.0" stroke="#111827" stroke-width="1.2"/><line x1="1198.0" y1="52.0" x2="1198.0" y2="364.0" stroke="#111827" stroke-width="1.2"/><rect x="81.0" y="346.1" width="16.3" height="17.9" fill="#93c5fd" stroke="#60a5fa" stroke-width="0.5"/><rect x="99.3" y="358.6" width="16.3" height="5.4" fill="#93c5fd" stroke="#60a5fa" stroke-width="0.5"/><rect x="117.7" y="52.0" width="16.3" height="312.0" fill="#93c5fd" stroke="#60a5fa" stroke-width="0.5"/><rect x="136.0" y="361.7" width="16.3" height="2.3" fill="#93c5fd" stroke="#60a5fa" stroke-width="0.5"/><rect x="154.3" y="361.2" width="16.3" height="2.8" fill="#93c5fd" stroke="#60a5fa" stroke-width="0.5"/><rect x="172.6" y="361.0" width="16.3" height="3.0" fill="#93c5fd" stroke="#60a5fa" stroke-width="0.5"/><rect x="191.0" y="362.6" width="16.3" height="1.4" fill="#93c5fd" stroke="#60a5fa" stroke-width="0.5"/><rect x="209.3" y="357.9" width="16.3" height="6.1" fill="#93c5fd" stroke="#60a5fa" stroke-width="0.5"/><rect x="227.6" y="360.4" width="16.3" height="3.6" fill="#93c5fd" stroke="#60a5fa" stroke-width="0.5"/><rect x="246.0" y="361.1" width="16.3" height="2.9" fill="#93c5fd" stroke="#60a5fa" stroke-width="0.5"/><rect x="264.3" y="360.7" width="16.3" height="3.3" fill="#93c5fd" stroke="#60a5fa" stroke-width="0.5"/><rect x="282.6" y="359.4" width="16.3" height="4.6" fill="#93c5fd" stroke="#60a5fa" stroke-width="0.5"/><rect x="300.9" y="359.7" width="16.3" height="4.3" fill="#93c5fd" stroke="#60a5fa" stroke-width="0.5"/><rect x="319.3" y="360.0" width="16.3" height="4.0" fill="#93c5fd" stroke="#60a5fa" stroke-width="0.5"/><rect x="337.6" y="358.9" width="16.3" height="5.1" fill="#93c5fd" stroke="#60a5fa" stroke-width="0.5"/><rect x="355.9" y="358.9" width="16.3" height="5.1" fill="#93c5fd" stroke="#60a5fa" stroke-width="0.5"/><rect x="374.2" y="359.7" width="16.3" height="4.3" fill="#93c5fd" stroke="#60a5fa" stroke-width="0.5"/><rect x="392.6" y="359.4" width="16.3" height="4.6" fill="#93c5fd" stroke="#60a5fa" stroke-width="0.5"/><rect x="410.9" y="359.3" width="16.3" height="4.7" fill="#93c5fd" stroke="#60a5fa" stroke-width="0.5"/><rect x="429.2" y="358.6" width="16.3" height="5.4" fill="#93c5fd" stroke="#60a5fa" stroke-width="0.5"/><rect x="447.6" y="358.7" width="16.3" height="5.3" fill="#93c5fd" stroke="#60a5fa" stroke-width="0.5"/><rect x="465.9" y="359.5" width="16.3" height="4.5" fill="#93c5fd" stroke="#60a5fa" stroke-width="0.5"/><rect x="484.2" y="358.2" width="16.3" height="5.8" fill="#93c5fd" stroke="#60a5fa" stroke-width="0.5"/><rect x="502.5" y="359.1" width="16.3" height="4.9" fill="#93c5fd" stroke="#60a5fa" stroke-width="0.5"/><rect x="520.9" y="359.1" width="16.3" height="4.9" fill="#93c5fd" stroke="#60a5fa" stroke-width="0.5"/><rect x="539.2" y="358.4" width="16.3" height="5.6" fill="#93c5fd" stroke="#60a5fa" stroke-width="0.5"/><rect x="557.5" y="358.0" width="16.3" height="6.0" fill="#93c5fd" stroke="#60a5fa" stroke-width="0.5"/><rect x="575.9" y="357.5" width="16.3" height="6.5" fill="#93c5fd" stroke="#60a5fa" stroke-width="0.5"/><rect x="594.2" y="359.8" width="16.3" height="4.2" fill="#93c5fd" stroke="#60a5fa" stroke-width="0.5"/><rect x="612.5" y="359.7" width="16.3" height="4.3" fill="#93c5fd" stroke="#60a5fa" stroke-width="0.5"/><rect x="630.8" y="358.9" width="16.3" height="5.1" fill="#93c5fd" stroke="#60a5fa" stroke-width="0.5"/><rect x="649.2" y="358.9" width="16.3" height="5.1" fill="#93c5fd" stroke="#60a5fa" stroke-width="0.5"/><rect x="667.5" y="359.5" width="16.3" height="4.5" fill="#93c5fd" stroke="#60a5fa" stroke-width="0.5"/><rect x="685.8" y="358.2" width="16.3" height="5.8" fill="#93c5fd" stroke="#60a5fa" stroke-width="0.5"/><rect x="704.1" y="358.3" width="16.3" height="5.7" fill="#93c5fd" stroke="#60a5fa" stroke-width="0.5"/><rect x="722.5" y="357.6" width="16.3" height="6.4" fill="#93c5fd" stroke="#60a5fa" stroke-width="0.5"/><rect x="740.8" y="357.8" width="16.3" height="6.2" fill="#93c5fd" stroke="#60a5fa" stroke-width="0.5"/><rect x="759.1" y="356.4" width="16.3" height="7.6" fill="#93c5fd" stroke="#60a5fa" stroke-width="0.5"/><rect x="777.5" y="359.3" width="16.3" height="4.7" fill="#93c5fd" stroke="#60a5fa" stroke-width="0.5"/><rect x="795.8" y="359.6" width="16.3" height="4.4" fill="#93c5fd" stroke="#60a5fa" stroke-width="0.5"/><rect x="814.1" y="357.1" width="16.3" height="6.9" fill="#93c5fd" stroke="#60a5fa" stroke-width="0.5"/><rect x="832.4" y="356.9" width="16.3" height="7.1" fill="#93c5fd" stroke="#60a5fa" stroke-width="0.5"/><rect x="850.8" y="358.8" width="16.3" height="5.2" fill="#93c5fd" stroke="#60a5fa" stroke-width="0.5"/><rect x="869.1" y="359.0" width="16.3" height="5.0" fill="#93c5fd" stroke="#60a5fa" stroke-width="0.5"/><rect x="887.4" y="360.1" width="16.3" height="3.9" fill="#93c5fd" stroke="#60a5fa" stroke-width="0.5"/><rect x="905.8" y="359.4" width="16.3" height="4.6" fill="#93c5fd" stroke="#60a5fa" stroke-width="0.5"/><rect x="924.1" y="359.5" width="16.3" height="4.5" fill="#93c5fd" stroke="#60a5fa" stroke-width="0.5"/><rect x="942.4" y="357.5" width="16.3" height="6.5" fill="#93c5fd" stroke="#60a5fa" stroke-width="0.5"/><rect x="960.7" y="358.0" width="16.3" height="6.0" fill="#93c5fd" stroke="#60a5fa" stroke-width="0.5"/><rect x="979.1" y="359.0" width="16.3" height="5.0" fill="#93c5fd" stroke="#60a5fa" stroke-width="0.5"/><rect x="997.4" y="359.5" width="16.3" height="4.5" fill="#93c5fd" stroke="#60a5fa" stroke-width="0.5"/><rect x="1015.7" y="358.7" width="16.3" height="5.3" fill="#93c5fd" stroke="#60a5fa" stroke-width="0.5"/><rect x="1034.0" y="358.8" width="16.3" height="5.2" fill="#93c5fd" stroke="#60a5fa" stroke-width="0.5"/><rect x="1052.4" y="358.7" width="16.3" height="5.3" fill="#93c5fd" stroke="#60a5fa" stroke-width="0.5"/><rect x="1070.7" y="357.0" width="16.3" height="7.0" fill="#93c5fd" stroke="#60a5fa" stroke-width="0.5"/><rect x="1089.0" y="357.3" width="16.3" height="6.7" fill="#93c5fd" stroke="#60a5fa" stroke-width="0.5"/><rect x="1107.4" y="360.1" width="16.3" height="3.9" fill="#93c5fd" stroke="#60a5fa" stroke-width="0.5"/><rect x="1125.7" y="359.3" width="16.3" height="4.7" fill="#93c5fd" stroke="#60a5fa" stroke-width="0.5"/><rect x="1144.0" y="359.5" width="16.3" height="4.5" fill="#93c5fd" stroke="#60a5fa" stroke-width="0.5"/><rect x="1162.3" y="357.2" width="16.3" height="6.8" fill="#93c5fd" stroke="#60a5fa" stroke-width="0.5"/><rect x="1180.7" y="333.6" width="16.3" height="30.4" fill="#93c5fd" stroke="#60a5fa" stroke-width="0.5"/><polyline fill="none" stroke="#ef4444" stroke-width="2" points="89.2,355.4 107.5,352.8 125.8,202.9 144.1,201.8 162.5,200.4 180.8,199.0 199.1,198.3 217.5,195.4 235.8,193.7 254.1,192.3 272.4,190.7 290.8,188.5 309.1,186.4 327.4,184.5 345.8,182.1 364.1,179.6 382.4,177.6 400.7,175.4 419.1,173.1 437.4,170.5 455.7,168.0 474.0,165.8 492.4,163.0 510.7,160.7 529.0,158.3 547.4,155.6 565.7,152.7 584.0,149.6 602.3,147.6 620.7,145.5 639.0,143.0 657.3,140.6 675.7,138.4 694.0,135.6 712.3,132.9 730.6,129.8 749.0,126.8 767.3,123.2 785.6,120.9 804.0,118.8 822.3,115.5 840.6,112.1 858.9,109.6 877.3,107.2 895.6,105.3 913.9,103.1 932.2,100.9 950.6,97.8 968.9,94.9 987.2,92.5 1005.6,90.4 1023.9,87.8 1042.2,85.3 1060.5,82.8 1078.9,79.4 1097.2,76.2 1115.5,74.3 1133.9,72.0 1152.2,69.9 1170.5,66.6 1188.8,52.0"/><line x1="89.2" y1="364.0" x2="89.2" y2="370.0" stroke="#111827" stroke-width="1"/><text x="91.2" y="386.0" font-size="11" text-anchor="end" transform="rotate(-35 91.2 386.0)" font-family="sans-serif" fill="#374151">2026-02-28</text><line x1="254.1" y1="364.0" x2="254.1" y2="370.0" stroke="#111827" stroke-width="1"/><text x="256.1" y="386.0" font-size="11" text-anchor="end" transform="rotate(-35 256.1 386.0)" font-family="sans-serif" fill="#374151">2026-03-11</text><line x1="400.7" y1="364.0" x2="400.7" y2="370.0" stroke="#111827" stroke-width="1"/><text x="402.7" y="386.0" font-size="11" text-anchor="end" transform="rotate(-35 402.7 386.0)" font-family="sans-serif" fill="#374151">2026-03-19</text><line x1="565.7" y1="364.0" x2="565.7" y2="370.0" stroke="#111827" stroke-width="1"/><text x="567.7" y="386.0" font-size="11" text-anchor="end" transform="rotate(-35 567.7 386.0)" font-family="sans-serif" fill="#374151">2026-03-28</text><line x1="712.3" y1="364.0" x2="712.3" y2="370.0" stroke="#111827" stroke-width="1"/><text x="714.3" y="386.0" font-size="11" text-anchor="end" transform="rotate(-35 714.3 386.0)" font-family="sans-serif" fill="#374151">2026-04-05</text><line x1="877.3" y1="364.0" x2="877.3" y2="370.0" stroke="#111827" stroke-width="1"/><text x="879.3" y="386.0" font-size="11" text-anchor="end" transform="rotate(-35 879.3 386.0)" font-family="sans-serif" fill="#374151">2026-04-14</text><line x1="1023.9" y1="364.0" x2="1023.9" y2="370.0" stroke="#111827" stroke-width="1"/><text x="1025.9" y="386.0" font-size="11" text-anchor="end" transform="rotate(-35 1025.9 386.0)" font-family="sans-serif" fill="#374151">2026-04-22</text><line x1="1188.8" y1="364.0" x2="1188.8" y2="370.0" stroke="#111827" stroke-width="1"/><text x="1190.8" y="386.0" font-size="11" text-anchor="end" transform="rotate(-35 1190.8 386.0)" font-family="sans-serif" fill="#374151">2026-05-01</text><text x="26" y="208.0" font-size="12" transform="rotate(-90 26 208.0)" text-anchor="middle" font-family="sans-serif" fill="#1f2937">구간별 수</text><text x="1256.0" y="208.0" font-size="12" transform="rotate(90 1256.0 208.0)" text-anchor="middle" font-family="sans-serif" fill="#1f2937">누적</text><text x="639.0" y="442.0" font-size="13" text-anchor="middle" font-family="sans-serif" fill="#111827">일</text></svg>