<svg xmlns="http://www.w3.org/2000/svg" width="1280" height="460" viewBox="0 0 1280 460"><rect x="0" y="0" width="100%" height="100%" fill="#ffffff"/><text x="640.0" y="28" font-size="20" text-anchor="middle" font-family="sans-serif" fill="#111827">마켓 / 최근 반영 시점 / 일별</text><line x1="80.0" y1="52.0" x2="1198.0" y2="52.0" stroke="#e5e7eb" stroke-width="1"/><text x="72.0" y="56.0" font-size="11" text-anchor="end" font-family="sans-serif" fill="#374151">493,407</text><text x="1206.0" y="56.0" font-size="11" text-anchor="start" font-family="sans-serif" fill="#374151">866,931</text><line x1="80.0" y1="114.4" x2="1198.0" y2="114.4" stroke="#e5e7eb" stroke-width="1"/><text x="72.0" y="118.4" font-size="11" text-anchor="end" font-family="sans-serif" fill="#374151">394,726</text><text x="1206.0" y="118.4" font-size="11" text-anchor="start" font-family="sans-serif" fill="#374151">693,545</text><line x1="80.0" y1="176.8" x2="1198.0" y2="176.8" stroke="#e5e7eb" stroke-width="1"/><text x="72.0" y="180.8" font-size="11" text-anchor="end" font-family="sans-serif" fill="#374151">296,044</text><text x="1206.0" y="180.8" font-size="11" text-anchor="start" font-family="sans-serif" fill="#374151">520,159</text><line x1="80.0" y1="239.2" x2="1198.0" y2="239.2" stroke="#e5e7eb" stroke-width="1"/><text x="72.0" y="243.2" font-size="11" text-anchor="end" font-family="sans-serif" fill="#374151">197,363</text><text x="1206.0" y="243.2" font-size="11" text-anchor="start" font-family="sans-serif" fill="#374151">346,772</text><line x1="80.0" y1="301.6" x2="1198.0" y2="301.6" stroke="#e5e7eb" stroke-width="1"/><text x="72.0" y="305.6" font-size="11" text-anchor="end" font-family="sans-serif" fill="#374151">98,681</text><text x="1206.0" y="305.6" font-size="11" text-anchor="start" font-family="sans-serif" fill="#374151">173,386</text><line x1="80.0" y1="364.0" x2="1198.0" y2="364.0" stroke="#e5e7eb" stroke-width="1"/><text x="72.0" y="368.0" font-size="11" text-anchor="end" font-family="sans-serif" fill="#374151">0</text><text x="1206.0" y="368.0" font-size="11" text-anchor="start" font-family="sans-serif" fill="#374151">0</text><line x1="80.0" y1="364.0" x2="1198.0" y2="364.0" stroke="#111827" stroke-width="1.2"/><line x1="80.0" y1="52.0" x2="80.0" y2="364.0" stroke="#111827" stroke-width="1.2"/><line x1="1198.0" y1="52.0" x2="1198.0" y2="364.0" stroke="#111827" stroke-width="1.2"/><rect x="81.0" y="346.1" width="24.6" height="17.9" fill="#93c5fd" stroke="#60a5fa" stroke-width="0.5"/><rect x="107.6" y="358.6" width="24.6" height="5.4" fill="#93c5fd" stroke="#60a5fa" stroke-width="0.5"/><rect x="134.2" y="52.0" width="24.6" height="312.0" fill="#93c5fd" stroke="#60a5fa" stroke-width="0.5"/><rect x="160.9" y="361.7" width="24.6" height="2.3" fill="#93c5fd" stroke="#60a5fa" stroke-width="0.5"/><rect x="187.5" y="361.2" width="24.6" height="2.8" fill="#93c5fd" stroke="#60a5fa" stroke-width="0.5"/><rect x="214.1" y="361.0" width="24.6" height="3.0" fill="#93c5fd" stroke="#60a5fa" stroke-width="0.5"/><rect x="240.7" y="362.6" width="24.6" height="1.4" fill="#93c5fd" stroke="#60a5fa" stroke-width="0.5"/><rect x="267.3" y="357.9" width="24.6" height="6.1" fill="#93c5fd" stroke="#60a5fa" stroke-width="0.5"/><rect x="294.0" y="360.4" width="24.6" height="3.6" fill="#93c5fd" stroke="#60a5fa" stroke-width="0.5"/><rect x="320.6" y="361.1" width="24.6" height="2.9" fill="#93c5fd" stroke="#60a5fa" stroke-width="0.5"/><rect x="347.2" y="360.7" width="24.6" height="3.3" fill="#93c5fd" stroke="#60a5fa" stroke-width="0.5"/><rect x="373.8" y="359.4" width="24.6" height="4.6" fill="#93c5fd" stroke="#60a5fa" stroke-width="0.5"/><rect x="400.4" y="359.7" width="24.6" height="4.3" fill="#93c5fd" stroke="#60a5fa" stroke-width="0.5"/><rect x="427.0" y="360.0" width="24.6" height="4.0" fill="#93c5fd" stroke="#60a5fa" stroke-width="0.5"/><rect x="453.7" y="358.9" width="24.6" height="5.1" fill="#93c5fd" stroke="#60a5fa" stroke-width="0.5"/><rect x="480.3" y="358.9" width="24.6" height="5.1" fill="#93c5fd" stroke="#60a5fa" stroke-width="0.5"/><rect x="506.9" y="359.7" width="24.6" height="4.3" fill="#93c5fd" stroke="#60a5fa" stroke-width="0.5"/><rect x="533.5" y="359.4" width="24.6" height="4.6" fill="#93c5fd" stroke="#60a5fa" stroke-width="0.5"/><rect x="560.1" y="359.3" width="24.6" height="4.7" fill="#93c5fd" stroke="#60a5fa" stroke-width="0.5"/><rect x="586.8" y="358.6" width="24.6" height="5.4" fill="#93c5fd" stroke="#60a5fa" stroke-width="0.5"/><rect x="613.4" y="358.7" width="24.6" height="5.3" fill="#93c5fd" stroke="#60a5fa" stroke-width="0.5"/><rect x="640.0" y="359.5" width="24.6" height="4.5" fill="#93c5fd" stroke="#60a5fa" stroke-width="0.5"/><rect x="666.6" y="358.2" width="24.6" height="5.8" fill="#93c5fd" stroke="#60a5fa" stroke-width="0.5"/><rect x="693.2" y="359.1" width="24.6" height="4.9" fill="#93c5fd" stroke="#60a5fa" stroke-width="0.5"/><rect x="719.9" y="359.1" width="24.6" height="4.9" fill="#93c5fd" stroke="#60a5fa" stroke-width="0.5"/><rect x="746.5" y="358.4" width="24.6" height="5.6" fill="#93c5fd" stroke="#60a5fa" stroke-width="0.5"/><rect x="773.1" y="358.0" width="24.6" height="6.0" fill="#93c5fd" stroke="#60a5fa" stroke-width="0.5"/><rect x="799.7" y="357.5" width="24.6" height="6.5" fill="#93c5fd" stroke="#60a5fa" stroke-width="0.5"/><rect x="826.3" y="359.8" width="24.6" height="4.2" fill="#93c5fd" stroke="#60a5fa" stroke-width="0.5"/><rect x="853.0" y="359.7" width="24.6" height="4.3" fill="#93c5fd" stroke="#60a5fa" stroke-width="0.5"/><rect x="879.6" y="358.9" width="24.6" height="5.1" fill="#93c5fd" stroke="#60a5fa" stroke-width="0.5"/><rect x="906.2" y="358.9" width="24.6" height="5.1" fill="#93c5fd" stroke="#60a5fa" stroke-width="0.5"/><rect x="932.8" y="359.5" width="24.6" height="4.5" fill="#93c5fd" stroke="#60a5fa" stroke-width="0.5"/><rect x="959.4" y="358.2" width="24.6" height="5.8" fill="#93c5fd" stroke="#60a5fa" stroke-width="0.5"/><rect x="986.0" y="358.4" width="24.6" height="5.6" fill="#93c5fd" stroke="#60a5fa" stroke-width="0.5"/><rect x="1012.7" y="357.6" width="24.6" height="6.4" fill="#93c5fd" stroke="#60a5fa" stroke-width="0.5"/><rect x="1039.3" y="357.8" width="24.6" height="6.2" fill="#93c5fd" stroke="#60a5fa" stroke-width="0.5"/><rect x="1065.9" y="356.4" width="24.6" height="7.6" fill="#93c5fd" stroke="#60a5fa" stroke-width="0.5"/><rect x="1092.5" y="359.3" width="24.6" height="4.7" fill="#93c5fd" stroke="#60a5fa" stroke-width="0.5"/><rect x="1119.1" y="359.6" width="24.6" height="4.4" fill="#93c5fd" stroke="#60a5fa" stroke-width="0.5"/><rect x="1145.8" y="342.7" width="24.6" height="21.3" fill="#93c5fd" stroke="#60a5fa" stroke-width="0.5"/><rect x="1172.4" y="347.4" width="24.6" height="16.6" fill="#93c5fd" stroke="#60a5fa" stroke-width="0.5"/><polyline fill="none" stroke="#ef4444" stroke-width="2" points="93.3,353.8 119.9,350.7 146.5,173.2 173.2,171.8 199.8,170.2 226.4,168.5 253.0,167.8 279.6,164.3 306.3,162.3 332.9,160.6 359.5,158.7 386.1,156.1 412.7,153.7 439.4,151.4 466.0,148.5 492.6,145.6 519.2,143.2 545.8,140.6 572.5,137.9 599.1,134.8 625.7,131.8 652.3,129.3 678.9,126.0 705.5,123.2 732.2,120.3 758.8,117.2 785.4,113.8 812.0,110.0 838.6,107.6 865.3,105.2 891.9,102.3 918.5,99.4 945.1,96.8 971.7,93.5 998.4,90.3 1025.0,86.6 1051.6,83.1 1078.2,78.8 1104.8,76.1 1131.5,73.6 1158.1,61.4 1184.7,52.0"/><line x1="93.3" y1="364.0" x2="93.3" y2="370.0" stroke="#111827" stroke-width="1"/><text x="95.3" y="386.0" font-size="11" text-anchor="end" transform="rotate(-35 95.3 386.0)" font-family="sans-serif" fill="#374151">2026-02-28</text><line x1="253.0" y1="364.0" x2="253.0" y2="370.0" stroke="#111827" stroke-width="1"/><text x="255.0" y="386.0" font-size="11" text-anchor="end" transform="rotate(-35 255.0 386.0)" font-family="sans-serif" fill="#374151">2026-03-08</text><line x1="412.7" y1="364.0" x2="412.7" y2="370.0" stroke="#111827" stroke-width="1"/><text x="414.7" y="386.0" font-size="11" text-anchor="end" transform="rotate(-35 414.7 386.0)" font-family="sans-serif" fill="#374151">2026-03-14</text><line x1="572.5" y1="364.0" x2="572.5" y2="370.0" stroke="#111827" stroke-width="1"/><text x="574.5" y="386.0" font-size="11" text-anchor="end" transform="rotate(-35 574.5 386.0)" font-family="sans-serif" fill="#374151">2026-03-20</text><line x1="705.5" y1="364.0" x2="705.5" y2="370.0" stroke="#111827" stroke-width="1"/><text x="707.5" y="386.0" font-size="11" text-anchor="end" transform="rotate(-35 707.5 386.0)" font-family="sans-serif" fill="#374151">2026-03-25</text><line x1="865.3" y1="364.0" x2="865.3" y2="370.0" stroke="#111827" stroke-width="1"/><text x="867.3" y="386.0" font-size="11" text-anchor="end" transform="rotate(-35 867.3 386.0)" font-family="sans-serif" fill="#374151">2026-03-31</text><line x1="1025.0" y1="364.0" x2="1025.0" y2="370.0" stroke="#111827" stroke-width="1"/><text x="1027.0" y="386.0" font-size="11" text-anchor="end" transform="rotate(-35 1027.0 386.0)" font-family="sans-serif" fill="#374151">2026-04-06</text><line x1="1184.7" y1="364.0" x2="1184.7" y2="370.0" stroke="#111827" stroke-width="1"/><text x="1186.7" y="386.0" font-size="11" text-anchor="end" transform="rotate(-35 1186.7 386.0)" font-family="sans-serif" fill="#374151">2026-04-12</text><text x="26" y="208.0" font-size="12" transform="rotate(-90 26 208.0)" text-anchor="middle" font-family="sans-serif" fill="#1f2937">구간별 수</text><text x="1256.0" y="208.0" font-size="12" transform="rotate(90 1256.0 208.0)" text-anchor="middle" font-family="sans-serif" fill="#1f2937">누적</text><text x="639.0" y="442.0" font-size="13" text-anchor="middle" font-family="sans-serif" fill="#111827">일</text></svg>