<svg xmlns="http://www.w3.org/2000/svg" width="1280" height="460" viewBox="0 0 1280 460"><rect x="0" y="0" width="100%" height="100%" fill="#ffffff"/><text x="640.0" y="28" font-size="20" text-anchor="middle" font-family="sans-serif" fill="#111827">마켓 / 생성 시점 / 월별</text><line x1="80.0" y1="52.0" x2="1198.0" y2="52.0" stroke="#e5e7eb" stroke-width="1"/><text x="72.0" y="56.0" font-size="11" text-anchor="end" font-family="sans-serif" fill="#374151">213,574</text><text x="1206.0" y="56.0" font-size="11" text-anchor="start" font-family="sans-serif" fill="#374151">770,039</text><line x1="80.0" y1="114.4" x2="1198.0" y2="114.4" stroke="#e5e7eb" stroke-width="1"/><text x="72.0" y="118.4" font-size="11" text-anchor="end" font-family="sans-serif" fill="#374151">170,859</text><text x="1206.0" y="118.4" font-size="11" text-anchor="start" font-family="sans-serif" fill="#374151">616,031</text><line x1="80.0" y1="176.8" x2="1198.0" y2="176.8" stroke="#e5e7eb" stroke-width="1"/><text x="72.0" y="180.8" font-size="11" text-anchor="end" font-family="sans-serif" fill="#374151">128,144</text><text x="1206.0" y="180.8" font-size="11" text-anchor="start" font-family="sans-serif" fill="#374151">462,023</text><line x1="80.0" y1="239.2" x2="1198.0" y2="239.2" stroke="#e5e7eb" stroke-width="1"/><text x="72.0" y="243.2" font-size="11" text-anchor="end" font-family="sans-serif" fill="#374151">85,430</text><text x="1206.0" y="243.2" font-size="11" text-anchor="start" font-family="sans-serif" fill="#374151">308,016</text><line x1="80.0" y1="301.6" x2="1198.0" y2="301.6" stroke="#e5e7eb" stroke-width="1"/><text x="72.0" y="305.6" font-size="11" text-anchor="end" font-family="sans-serif" fill="#374151">42,715</text><text x="1206.0" y="305.6" font-size="11" text-anchor="start" font-family="sans-serif" fill="#374151">154,008</text><line x1="80.0" y1="364.0" x2="1198.0" y2="364.0" stroke="#e5e7eb" stroke-width="1"/><text x="72.0" y="368.0" font-size="11" text-anchor="end" font-family="sans-serif" fill="#374151">0</text><text x="1206.0" y="368.0" font-size="11" text-anchor="start" font-family="sans-serif" fill="#374151">0</text><line x1="80.0" y1="364.0" x2="1198.0" y2="364.0" stroke="#111827" stroke-width="1.2"/><line x1="80.0" y1="52.0" x2="80.0" y2="364.0" stroke="#111827" stroke-width="1.2"/><line x1="1198.0" y1="52.0" x2="1198.0" y2="364.0" stroke="#111827" stroke-width="1.2"/><rect x="81.0" y="364.0" width="14.9" height="0.0" fill="#93c5fd" stroke="#60a5fa" stroke-width="0.5"/><rect x="97.9" y="364.0" width="14.9" height="0.0" fill="#93c5fd" stroke="#60a5fa" stroke-width="0.5"/><rect x="114.9" y="364.0" width="14.9" height="0.0" fill="#93c5fd" stroke="#60a5fa" stroke-width="0.5"/><rect x="131.8" y="363.9" width="14.9" height="0.1" fill="#93c5fd" stroke="#60a5fa" stroke-width="0.5"/><rect x="148.8" y="363.9" width="14.9" height="0.1" fill="#93c5fd" stroke="#60a5fa" stroke-width="0.5"/><rect x="165.7" y="363.9" width="14.9" height="0.1" fill="#93c5fd" stroke="#60a5fa" stroke-width="0.5"/><rect x="182.6" y="363.9" width="14.9" height="0.1" fill="#93c5fd" stroke="#60a5fa" stroke-width="0.5"/><rect x="199.6" y="363.8" width="14.9" height="0.2" fill="#93c5fd" stroke="#60a5fa" stroke-width="0.5"/><rect x="216.5" y="363.7" width="14.9" height="0.3" fill="#93c5fd" stroke="#60a5fa" stroke-width="0.5"/><rect x="233.5" y="363.8" width="14.9" height="0.2" fill="#93c5fd" stroke="#60a5fa" stroke-width="0.5"/><rect x="250.4" y="363.8" width="14.9" height="0.2" fill="#93c5fd" stroke="#60a5fa" stroke-width="0.5"/><rect x="267.3" y="363.9" width="14.9" height="0.1" fill="#93c5fd" stroke="#60a5fa" stroke-width="0.5"/><rect x="284.3" y="363.7" width="14.9" height="0.3" fill="#93c5fd" stroke="#60a5fa" stroke-width="0.5"/><rect x="301.2" y="363.4" width="14.9" height="0.6" fill="#93c5fd" stroke="#60a5fa" stroke-width="0.5"/><rect x="318.2" y="363.5" width="14.9" height="0.5" fill="#93c5fd" stroke="#60a5fa" stroke-width="0.5"/><rect x="335.1" y="363.1" width="14.9" height="0.9" fill="#93c5fd" stroke="#60a5fa" stroke-width="0.5"/><rect x="352.0" y="363.5" width="14.9" height="0.5" fill="#93c5fd" stroke="#60a5fa" stroke-width="0.5"/><rect x="369.0" y="363.3" width="14.9" height="0.7" fill="#93c5fd" stroke="#60a5fa" stroke-width="0.5"/><rect x="385.9" y="363.4" width="14.9" height="0.6" fill="#93c5fd" stroke="#60a5fa" stroke-width="0.5"/><rect x="402.8" y="363.6" width="14.9" height="0.4" fill="#93c5fd" stroke="#60a5fa" stroke-width="0.5"/><rect x="419.8" y="363.8" width="14.9" height="0.2" fill="#93c5fd" stroke="#60a5fa" stroke-width="0.5"/><rect x="436.7" y="359.7" width="14.9" height="4.3" fill="#93c5fd" stroke="#60a5fa" stroke-width="0.5"/><rect x="453.7" y="363.7" width="14.9" height="0.3" fill="#93c5fd" stroke="#60a5fa" stroke-width="0.5"/><rect x="470.6" y="363.7" width="14.9" height="0.3" fill="#93c5fd" stroke="#60a5fa" stroke-width="0.5"/><rect x="487.5" y="363.8" width="14.9" height="0.2" fill="#93c5fd" stroke="#60a5fa" stroke-width="0.5"/><rect x="504.5" y="363.7" width="14.9" height="0.3" fill="#93c5fd" stroke="#60a5fa" stroke-width="0.5"/><rect x="521.4" y="363.8" width="14.9" height="0.2" fill="#93c5fd" stroke="#60a5fa" stroke-width="0.5"/><rect x="538.4" y="363.8" width="14.9" height="0.2" fill="#93c5fd" stroke="#60a5fa" stroke-width="0.5"/><rect x="555.3" y="363.4" width="14.9" height="0.6" fill="#93c5fd" stroke="#60a5fa" stroke-width="0.5"/><rect x="572.2" y="362.7" width="14.9" height="1.3" fill="#93c5fd" stroke="#60a5fa" stroke-width="0.5"/><rect x="589.2" y="362.8" width="14.9" height="1.2" fill="#93c5fd" stroke="#60a5fa" stroke-width="0.5"/><rect x="606.1" y="363.1" width="14.9" height="0.9" fill="#93c5fd" stroke="#60a5fa" stroke-width="0.5"/><rect x="623.1" y="363.8" width="14.9" height="0.2" fill="#93c5fd" stroke="#60a5fa" stroke-width="0.5"/><rect x="640.0" y="363.8" width="14.9" height="0.2" fill="#93c5fd" stroke="#60a5fa" stroke-width="0.5"/><rect x="656.9" y="363.7" width="14.9" height="0.3" fill="#93c5fd" stroke="#60a5fa" stroke-width="0.5"/><rect x="673.9" y="363.6" width="14.9" height="0.4" fill="#93c5fd" stroke="#60a5fa" stroke-width="0.5"/><rect x="690.8" y="363.4" width="14.9" height="0.6" fill="#93c5fd" stroke="#60a5fa" stroke-width="0.5"/><rect x="707.8" y="363.4" width="14.9" height="0.6" fill="#93c5fd" stroke="#60a5fa" stroke-width="0.5"/><rect x="724.7" y="363.4" width="14.9" height="0.6" fill="#93c5fd" stroke="#60a5fa" stroke-width="0.5"/><rect x="741.6" y="363.1" width="14.9" height="0.9" fill="#93c5fd" stroke="#60a5fa" stroke-width="0.5"/><rect x="758.6" y="363.1" width="14.9" height="0.9" fill="#93c5fd" stroke="#60a5fa" stroke-width="0.5"/><rect x="775.5" y="362.7" width="14.9" height="1.3" fill="#93c5fd" stroke="#60a5fa" stroke-width="0.5"/><rect x="792.5" y="362.7" width="14.9" height="1.3" fill="#93c5fd" stroke="#60a5fa" stroke-width="0.5"/><rect x="809.4" y="362.6" width="14.9" height="1.4" fill="#93c5fd" stroke="#60a5fa" stroke-width="0.5"/><rect x="826.3" y="362.2" width="14.9" height="1.8" fill="#93c5fd" stroke="#60a5fa" stroke-width="0.5"/><rect x="843.3" y="361.6" width="14.9" height="2.4" fill="#93c5fd" stroke="#60a5fa" stroke-width="0.5"/><rect x="860.2" y="360.9" width="14.9" height="3.1" fill="#93c5fd" stroke="#60a5fa" stroke-width="0.5"/><rect x="877.2" y="360.1" width="14.9" height="3.9" fill="#93c5fd" stroke="#60a5fa" stroke-width="0.5"/><rect x="894.1" y="358.5" width="14.9" height="5.5" fill="#93c5fd" stroke="#60a5fa" stroke-width="0.5"/><rect x="911.0" y="359.0" width="14.9" height="5.0" fill="#93c5fd" stroke="#60a5fa" stroke-width="0.5"/><rect x="928.0" y="358.4" width="14.9" height="5.6" fill="#93c5fd" stroke="#60a5fa" stroke-width="0.5"/><rect x="944.9" y="357.9" width="14.9" height="6.1" fill="#93c5fd" stroke="#60a5fa" stroke-width="0.5"/><rect x="961.8" y="356.8" width="14.9" height="7.2" fill="#93c5fd" stroke="#60a5fa" stroke-width="0.5"/><rect x="978.8" y="354.4" width="14.9" height="9.6" fill="#93c5fd" stroke="#60a5fa" stroke-width="0.5"/><rect x="995.7" y="352.8" width="14.9" height="11.2" fill="#93c5fd" stroke="#60a5fa" stroke-width="0.5"/><rect x="1012.7" y="352.9" width="14.9" height="11.1" fill="#93c5fd" stroke="#60a5fa" stroke-width="0.5"/><rect x="1029.6" y="350.8" width="14.9" height="13.2" fill="#93c5fd" stroke="#60a5fa" stroke-width="0.5"/><rect x="1046.5" y="347.4" width="14.9" height="16.6" fill="#93c5fd" stroke="#60a5fa" stroke-width="0.5"/><rect x="1063.5" y="345.6" width="14.9" height="18.4" fill="#93c5fd" stroke="#60a5fa" stroke-width="0.5"/><rect x="1080.4" y="314.9" width="14.9" height="49.1" fill="#93c5fd" stroke="#60a5fa" stroke-width="0.5"/><rect x="1097.4" y="308.3" width="14.9" height="55.7" fill="#93c5fd" stroke="#60a5fa" stroke-width="0.5"/><rect x="1114.3" y="290.9" width="14.9" height="73.1" fill="#93c5fd" stroke="#60a5fa" stroke-width="0.5"/><rect x="1131.2" y="247.5" width="14.9" height="116.5" fill="#93c5fd" stroke="#60a5fa" stroke-width="0.5"/><rect x="1148.2" y="171.4" width="14.9" height="192.6" fill="#93c5fd" stroke="#60a5fa" stroke-width="0.5"/><rect x="1165.1" y="183.4" width="14.9" height="180.6" fill="#93c5fd" stroke="#60a5fa" stroke-width="0.5"/><rect x="1182.1" y="52.0" width="14.9" height="312.0" fill="#93c5fd" stroke="#60a5fa" stroke-width="0.5"/><polyline fill="none" stroke="#ef4444" stroke-width="2" points="88.5,364.0 105.4,364.0 122.3,364.0 139.3,364.0 156.2,363.9 173.2,363.9 190.1,363.9 207.0,363.8 224.0,363.7 240.9,363.7 257.9,363.6 274.8,363.6 291.7,363.5 308.7,363.4 325.6,363.2 342.6,363.0 359.5,362.8 376.4,362.6 393.4,362.5 410.3,362.3 427.3,362.3 444.2,361.1 461.1,361.0 478.1,361.0 495.0,360.9 512.0,360.8 528.9,360.8 545.8,360.7 562.8,360.5 579.7,360.2 596.7,359.9 613.6,359.6 630.5,359.5 647.5,359.5 664.4,359.4 681.3,359.3 698.3,359.1 715.2,358.9 732.2,358.8 749.1,358.6 766.0,358.3 783.0,357.9 799.9,357.6 816.9,357.2 833.8,356.7 850.7,356.1 867.7,355.2 884.6,354.1 901.6,352.6 918.5,351.2 935.4,349.7 952.4,348.0 969.3,346.0 986.3,343.3 1003.2,340.2 1020.1,337.1 1037.1,333.5 1054.0,328.9 1071.0,323.7 1087.9,310.1 1104.8,294.7 1121.8,274.4 1138.7,242.1 1155.7,188.6 1172.6,138.5 1189.5,52.0"/><line x1="88.5" y1="364.0" x2="88.5" y2="370.0" stroke="#111827" stroke-width="1"/><text x="90.5" y="386.0" font-size="11" text-anchor="end" transform="rotate(-35 90.5 386.0)" font-family="sans-serif" fill="#374151">2020-10</text><line x1="240.9" y1="364.0" x2="240.9" y2="370.0" stroke="#111827" stroke-width="1"/><text x="242.9" y="386.0" font-size="11" text-anchor="end" transform="rotate(-35 242.9 386.0)" font-family="sans-serif" fill="#374151">2021-07</text><line x1="410.3" y1="364.0" x2="410.3" y2="370.0" stroke="#111827" stroke-width="1"/><text x="412.3" y="386.0" font-size="11" text-anchor="end" transform="rotate(-35 412.3 386.0)" font-family="sans-serif" fill="#374151">2022-05</text><line x1="562.8" y1="364.0" x2="562.8" y2="370.0" stroke="#111827" stroke-width="1"/><text x="564.8" y="386.0" font-size="11" text-anchor="end" transform="rotate(-35 564.8 386.0)" font-family="sans-serif" fill="#374151">2023-02</text><line x1="715.2" y1="364.0" x2="715.2" y2="370.0" stroke="#111827" stroke-width="1"/><text x="717.2" y="386.0" font-size="11" text-anchor="end" transform="rotate(-35 717.2 386.0)" font-family="sans-serif" fill="#374151">2023-11</text><line x1="867.7" y1="364.0" x2="867.7" y2="370.0" stroke="#111827" stroke-width="1"/><text x="869.7" y="386.0" font-size="11" text-anchor="end" transform="rotate(-35 869.7 386.0)" font-family="sans-serif" fill="#374151">2024-08</text><line x1="1037.1" y1="364.0" x2="1037.1" y2="370.0" stroke="#111827" stroke-width="1"/><text x="1039.1" y="386.0" font-size="11" text-anchor="end" transform="rotate(-35 1039.1 386.0)" font-family="sans-serif" fill="#374151">2025-06</text><line x1="1189.5" y1="364.0" x2="1189.5" y2="370.0" stroke="#111827" stroke-width="1"/><text x="1191.5" y="386.0" font-size="11" text-anchor="end" transform="rotate(-35 1191.5 386.0)" font-family="sans-serif" fill="#374151">2026-03</text><text x="26" y="208.0" font-size="12" transform="rotate(-90 26 208.0)" text-anchor="middle" font-family="sans-serif" fill="#1f2937">구간별 수</text><text x="1256.0" y="208.0" font-size="12" transform="rotate(90 1256.0 208.0)" text-anchor="middle" font-family="sans-serif" fill="#1f2937">누적</text><text x="639.0" y="442.0" font-size="13" text-anchor="middle" font-family="sans-serif" fill="#111827">월</text></svg>