<svg xmlns="http://www.w3.org/2000/svg" width="1280" height="460" viewBox="0 0 1280 460"><rect x="0" y="0" width="100%" height="100%" fill="#ffffff"/><text x="640.0" y="28" font-size="20" text-anchor="middle" font-family="sans-serif" fill="#111827">마켓 / 최근 반영 시점 / 일별</text><line x1="80.0" y1="52.0" x2="1198.0" y2="52.0" stroke="#e5e7eb" stroke-width="1"/><text x="72.0" y="56.0" font-size="11" text-anchor="end" font-family="sans-serif" fill="#374151">493,407</text><text x="1206.0" y="56.0" font-size="11" text-anchor="start" font-family="sans-serif" fill="#374151">904,037</text><line x1="80.0" y1="114.4" x2="1198.0" y2="114.4" stroke="#e5e7eb" stroke-width="1"/><text x="72.0" y="118.4" font-size="11" text-anchor="end" font-family="sans-serif" fill="#374151">394,726</text><text x="1206.0" y="118.4" font-size="11" text-anchor="start" font-family="sans-serif" fill="#374151">723,230</text><line x1="80.0" y1="176.8" x2="1198.0" y2="176.8" stroke="#e5e7eb" stroke-width="1"/><text x="72.0" y="180.8" font-size="11" text-anchor="end" font-family="sans-serif" fill="#374151">296,044</text><text x="1206.0" y="180.8" font-size="11" text-anchor="start" font-family="sans-serif" fill="#374151">542,422</text><line x1="80.0" y1="239.2" x2="1198.0" y2="239.2" stroke="#e5e7eb" stroke-width="1"/><text x="72.0" y="243.2" font-size="11" text-anchor="end" font-family="sans-serif" fill="#374151">197,363</text><text x="1206.0" y="243.2" font-size="11" text-anchor="start" font-family="sans-serif" fill="#374151">361,615</text><line x1="80.0" y1="301.6" x2="1198.0" y2="301.6" stroke="#e5e7eb" stroke-width="1"/><text x="72.0" y="305.6" font-size="11" text-anchor="end" font-family="sans-serif" fill="#374151">98,681</text><text x="1206.0" y="305.6" font-size="11" text-anchor="start" font-family="sans-serif" fill="#374151">180,807</text><line x1="80.0" y1="364.0" x2="1198.0" y2="364.0" stroke="#e5e7eb" stroke-width="1"/><text x="72.0" y="368.0" font-size="11" text-anchor="end" font-family="sans-serif" fill="#374151">0</text><text x="1206.0" y="368.0" font-size="11" text-anchor="start" font-family="sans-serif" fill="#374151">0</text><line x1="80.0" y1="364.0" x2="1198.0" y2="364.0" stroke="#111827" stroke-width="1.2"/><line x1="80.0" y1="52.0" x2="80.0" y2="364.0" stroke="#111827" stroke-width="1.2"/><line x1="1198.0" y1="52.0" x2="1198.0" y2="364.0" stroke="#111827" stroke-width="1.2"/><rect x="81.0" y="346.1" width="22.3" height="17.9" fill="#93c5fd" stroke="#60a5fa" stroke-width="0.5"/><rect x="105.3" y="358.6" width="22.3" height="5.4" fill="#93c5fd" stroke="#60a5fa" stroke-width="0.5"/><rect x="129.6" y="52.0" width="22.3" height="312.0" fill="#93c5fd" stroke="#60a5fa" stroke-width="0.5"/><rect x="153.9" y="361.7" width="22.3" height="2.3" fill="#93c5fd" stroke="#60a5fa" stroke-width="0.5"/><rect x="178.2" y="361.2" width="22.3" height="2.8" fill="#93c5fd" stroke="#60a5fa" stroke-width="0.5"/><rect x="202.5" y="361.0" width="22.3" height="3.0" fill="#93c5fd" stroke="#60a5fa" stroke-width="0.5"/><rect x="226.8" y="362.6" width="22.3" height="1.4" fill="#93c5fd" stroke="#60a5fa" stroke-width="0.5"/><rect x="251.1" y="357.9" width="22.3" height="6.1" fill="#93c5fd" stroke="#60a5fa" stroke-width="0.5"/><rect x="275.4" y="360.4" width="22.3" height="3.6" fill="#93c5fd" stroke="#60a5fa" stroke-width="0.5"/><rect x="299.7" y="361.1" width="22.3" height="2.9" fill="#93c5fd" stroke="#60a5fa" stroke-width="0.5"/><rect x="324.0" y="360.7" width="22.3" height="3.3" fill="#93c5fd" stroke="#60a5fa" stroke-width="0.5"/><rect x="348.3" y="359.4" width="22.3" height="4.6" fill="#93c5fd" stroke="#60a5fa" stroke-width="0.5"/><rect x="372.7" y="359.7" width="22.3" height="4.3" fill="#93c5fd" stroke="#60a5fa" stroke-width="0.5"/><rect x="397.0" y="360.0" width="22.3" height="4.0" fill="#93c5fd" stroke="#60a5fa" stroke-width="0.5"/><rect x="421.3" y="358.9" width="22.3" height="5.1" fill="#93c5fd" stroke="#60a5fa" stroke-width="0.5"/><rect x="445.6" y="358.9" width="22.3" height="5.1" fill="#93c5fd" stroke="#60a5fa" stroke-width="0.5"/><rect x="469.9" y="359.7" width="22.3" height="4.3" fill="#93c5fd" stroke="#60a5fa" stroke-width="0.5"/><rect x="494.2" y="359.4" width="22.3" height="4.6" fill="#93c5fd" stroke="#60a5fa" stroke-width="0.5"/><rect x="518.5" y="359.3" width="22.3" height="4.7" fill="#93c5fd" stroke="#60a5fa" stroke-width="0.5"/><rect x="542.8" y="358.6" width="22.3" height="5.4" fill="#93c5fd" stroke="#60a5fa" stroke-width="0.5"/><rect x="567.1" y="358.7" width="22.3" height="5.3" fill="#93c5fd" stroke="#60a5fa" stroke-width="0.5"/><rect x="591.4" y="359.5" width="22.3" height="4.5" fill="#93c5fd" stroke="#60a5fa" stroke-width="0.5"/><rect x="615.7" y="358.2" width="22.3" height="5.8" fill="#93c5fd" stroke="#60a5fa" stroke-width="0.5"/><rect x="640.0" y="359.1" width="22.3" height="4.9" fill="#93c5fd" stroke="#60a5fa" stroke-width="0.5"/><rect x="664.3" y="359.1" width="22.3" height="4.9" fill="#93c5fd" stroke="#60a5fa" stroke-width="0.5"/><rect x="688.6" y="358.4" width="22.3" height="5.6" fill="#93c5fd" stroke="#60a5fa" stroke-width="0.5"/><rect x="712.9" y="358.0" width="22.3" height="6.0" fill="#93c5fd" stroke="#60a5fa" stroke-width="0.5"/><rect x="737.2" y="357.5" width="22.3" height="6.5" fill="#93c5fd" stroke="#60a5fa" stroke-width="0.5"/><rect x="761.5" y="359.8" width="22.3" height="4.2" fill="#93c5fd" stroke="#60a5fa" stroke-width="0.5"/><rect x="785.8" y="359.7" width="22.3" height="4.3" fill="#93c5fd" stroke="#60a5fa" stroke-width="0.5"/><rect x="810.1" y="358.9" width="22.3" height="5.1" fill="#93c5fd" stroke="#60a5fa" stroke-width="0.5"/><rect x="834.4" y="358.9" width="22.3" height="5.1" fill="#93c5fd" stroke="#60a5fa" stroke-width="0.5"/><rect x="858.7" y="359.5" width="22.3" height="4.5" fill="#93c5fd" stroke="#60a5fa" stroke-width="0.5"/><rect x="883.0" y="358.2" width="22.3" height="5.8" fill="#93c5fd" stroke="#60a5fa" stroke-width="0.5"/><rect x="907.3" y="358.4" width="22.3" height="5.6" fill="#93c5fd" stroke="#60a5fa" stroke-width="0.5"/><rect x="931.7" y="357.6" width="22.3" height="6.4" fill="#93c5fd" stroke="#60a5fa" stroke-width="0.5"/><rect x="956.0" y="357.8" width="22.3" height="6.2" fill="#93c5fd" stroke="#60a5fa" stroke-width="0.5"/><rect x="980.3" y="356.4" width="22.3" height="7.6" fill="#93c5fd" stroke="#60a5fa" stroke-width="0.5"/><rect x="1004.6" y="359.3" width="22.3" height="4.7" fill="#93c5fd" stroke="#60a5fa" stroke-width="0.5"/><rect x="1028.9" y="359.6" width="22.3" height="4.4" fill="#93c5fd" stroke="#60a5fa" stroke-width="0.5"/><rect x="1053.2" y="357.1" width="22.3" height="6.9" fill="#93c5fd" stroke="#60a5fa" stroke-width="0.5"/><rect x="1077.5" y="356.9" width="22.3" height="7.1" fill="#93c5fd" stroke="#60a5fa" stroke-width="0.5"/><rect x="1101.8" y="358.8" width="22.3" height="5.2" fill="#93c5fd" stroke="#60a5fa" stroke-width="0.5"/><rect x="1126.1" y="359.0" width="22.3" height="5.0" fill="#93c5fd" stroke="#60a5fa" stroke-width="0.5"/><rect x="1150.4" y="360.1" width="22.3" height="3.9" fill="#93c5fd" stroke="#60a5fa" stroke-width="0.5"/><rect x="1174.7" y="330.7" width="22.3" height="33.3" fill="#93c5fd" stroke="#60a5fa" stroke-width="0.5"/><polyline fill="none" stroke="#ef4444" stroke-width="2" points="92.2,354.2 116.5,351.3 140.8,181.0 165.1,179.7 189.4,178.2 213.7,176.6 238.0,175.8 262.3,172.5 286.6,170.5 310.9,168.9 335.2,167.2 359.5,164.7 383.8,162.3 408.1,160.1 432.4,157.4 456.7,154.6 481.0,152.2 505.3,149.8 529.6,147.2 553.9,144.2 578.2,141.4 602.5,138.9 626.8,135.7 651.2,133.0 675.5,130.4 699.8,127.3 724.1,124.0 748.4,120.5 772.7,118.2 797.0,115.8 821.3,113.0 845.6,110.2 869.9,107.8 894.2,104.6 918.5,101.5 942.8,98.0 967.1,94.6 991.4,90.5 1015.7,87.9 1040.0,85.5 1064.3,81.7 1088.6,77.9 1112.9,75.0 1137.2,72.3 1161.5,70.2 1185.8,52.0"/><line x1="92.2" y1="364.0" x2="92.2" y2="370.0" stroke="#111827" stroke-width="1"/><text x="94.2" y="386.0" font-size="11" text-anchor="end" transform="rotate(-35 94.2 386.0)" font-family="sans-serif" fill="#374151">2026-02-28</text><line x1="238.0" y1="364.0" x2="238.0" y2="370.0" stroke="#111827" stroke-width="1"/><text x="240.0" y="386.0" font-size="11" text-anchor="end" transform="rotate(-35 240.0 386.0)" font-family="sans-serif" fill="#374151">2026-03-08</text><line x1="408.1" y1="364.0" x2="408.1" y2="370.0" stroke="#111827" stroke-width="1"/><text x="410.1" y="386.0" font-size="11" text-anchor="end" transform="rotate(-35 410.1 386.0)" font-family="sans-serif" fill="#374151">2026-03-15</text><line x1="553.9" y1="364.0" x2="553.9" y2="370.0" stroke="#111827" stroke-width="1"/><text x="555.9" y="386.0" font-size="11" text-anchor="end" transform="rotate(-35 555.9 386.0)" font-family="sans-serif" fill="#374151">2026-03-21</text><line x1="724.1" y1="364.0" x2="724.1" y2="370.0" stroke="#111827" stroke-width="1"/><text x="726.1" y="386.0" font-size="11" text-anchor="end" transform="rotate(-35 726.1 386.0)" font-family="sans-serif" fill="#374151">2026-03-28</text><line x1="869.9" y1="364.0" x2="869.9" y2="370.0" stroke="#111827" stroke-width="1"/><text x="871.9" y="386.0" font-size="11" text-anchor="end" transform="rotate(-35 871.9 386.0)" font-family="sans-serif" fill="#374151">2026-04-03</text><line x1="1040.0" y1="364.0" x2="1040.0" y2="370.0" stroke="#111827" stroke-width="1"/><text x="1042.0" y="386.0" font-size="11" text-anchor="end" transform="rotate(-35 1042.0 386.0)" font-family="sans-serif" fill="#374151">2026-04-10</text><line x1="1185.8" y1="364.0" x2="1185.8" y2="370.0" stroke="#111827" stroke-width="1"/><text x="1187.8" y="386.0" font-size="11" text-anchor="end" transform="rotate(-35 1187.8 386.0)" font-family="sans-serif" fill="#374151">2026-04-16</text><text x="26" y="208.0" font-size="12" transform="rotate(-90 26 208.0)" text-anchor="middle" font-family="sans-serif" fill="#1f2937">구간별 수</text><text x="1256.0" y="208.0" font-size="12" transform="rotate(90 1256.0 208.0)" text-anchor="middle" font-family="sans-serif" fill="#1f2937">누적</text><text x="639.0" y="442.0" font-size="13" text-anchor="middle" font-family="sans-serif" fill="#111827">일</text></svg>