<svg xmlns="http://www.w3.org/2000/svg" width="1280" height="460" viewBox="0 0 1280 460"><rect x="0" y="0" width="100%" height="100%" fill="#ffffff"/><text x="640.0" y="28" font-size="20" text-anchor="middle" font-family="sans-serif" fill="#111827">마켓 / 최근 반영 시점 / 일별</text><line x1="80.0" y1="52.0" x2="1198.0" y2="52.0" stroke="#e5e7eb" stroke-width="1"/><text x="72.0" y="56.0" font-size="11" text-anchor="end" font-family="sans-serif" fill="#374151">493,407</text><text x="1206.0" y="56.0" font-size="11" text-anchor="start" font-family="sans-serif" fill="#374151">843,165</text><line x1="80.0" y1="114.4" x2="1198.0" y2="114.4" stroke="#e5e7eb" stroke-width="1"/><text x="72.0" y="118.4" font-size="11" text-anchor="end" font-family="sans-serif" fill="#374151">394,726</text><text x="1206.0" y="118.4" font-size="11" text-anchor="start" font-family="sans-serif" fill="#374151">674,532</text><line x1="80.0" y1="176.8" x2="1198.0" y2="176.8" stroke="#e5e7eb" stroke-width="1"/><text x="72.0" y="180.8" font-size="11" text-anchor="end" font-family="sans-serif" fill="#374151">296,044</text><text x="1206.0" y="180.8" font-size="11" text-anchor="start" font-family="sans-serif" fill="#374151">505,899</text><line x1="80.0" y1="239.2" x2="1198.0" y2="239.2" stroke="#e5e7eb" stroke-width="1"/><text x="72.0" y="243.2" font-size="11" text-anchor="end" font-family="sans-serif" fill="#374151">197,363</text><text x="1206.0" y="243.2" font-size="11" text-anchor="start" font-family="sans-serif" fill="#374151">337,266</text><line x1="80.0" y1="301.6" x2="1198.0" y2="301.6" stroke="#e5e7eb" stroke-width="1"/><text x="72.0" y="305.6" font-size="11" text-anchor="end" font-family="sans-serif" fill="#374151">98,681</text><text x="1206.0" y="305.6" font-size="11" text-anchor="start" font-family="sans-serif" fill="#374151">168,633</text><line x1="80.0" y1="364.0" x2="1198.0" y2="364.0" stroke="#e5e7eb" stroke-width="1"/><text x="72.0" y="368.0" font-size="11" text-anchor="end" font-family="sans-serif" fill="#374151">0</text><text x="1206.0" y="368.0" font-size="11" text-anchor="start" font-family="sans-serif" fill="#374151">0</text><line x1="80.0" y1="364.0" x2="1198.0" y2="364.0" stroke="#111827" stroke-width="1.2"/><line x1="80.0" y1="52.0" x2="80.0" y2="364.0" stroke="#111827" stroke-width="1.2"/><line x1="1198.0" y1="52.0" x2="1198.0" y2="364.0" stroke="#111827" stroke-width="1.2"/><rect x="81.0" y="346.1" width="26.7" height="17.9" fill="#93c5fd" stroke="#60a5fa" stroke-width="0.5"/><rect x="109.7" y="358.6" width="26.7" height="5.4" fill="#93c5fd" stroke="#60a5fa" stroke-width="0.5"/><rect x="138.3" y="52.0" width="26.7" height="312.0" fill="#93c5fd" stroke="#60a5fa" stroke-width="0.5"/><rect x="167.0" y="361.7" width="26.7" height="2.3" fill="#93c5fd" stroke="#60a5fa" stroke-width="0.5"/><rect x="195.7" y="361.2" width="26.7" height="2.8" fill="#93c5fd" stroke="#60a5fa" stroke-width="0.5"/><rect x="224.3" y="361.0" width="26.7" height="3.0" fill="#93c5fd" stroke="#60a5fa" stroke-width="0.5"/><rect x="253.0" y="362.6" width="26.7" height="1.4" fill="#93c5fd" stroke="#60a5fa" stroke-width="0.5"/><rect x="281.7" y="357.9" width="26.7" height="6.1" fill="#93c5fd" stroke="#60a5fa" stroke-width="0.5"/><rect x="310.3" y="360.4" width="26.7" height="3.6" fill="#93c5fd" stroke="#60a5fa" stroke-width="0.5"/><rect x="339.0" y="361.1" width="26.7" height="2.9" fill="#93c5fd" stroke="#60a5fa" stroke-width="0.5"/><rect x="367.7" y="360.7" width="26.7" height="3.3" fill="#93c5fd" stroke="#60a5fa" stroke-width="0.5"/><rect x="396.3" y="359.4" width="26.7" height="4.6" fill="#93c5fd" stroke="#60a5fa" stroke-width="0.5"/><rect x="425.0" y="359.7" width="26.7" height="4.3" fill="#93c5fd" stroke="#60a5fa" stroke-width="0.5"/><rect x="453.7" y="360.0" width="26.7" height="4.0" fill="#93c5fd" stroke="#60a5fa" stroke-width="0.5"/><rect x="482.3" y="358.9" width="26.7" height="5.1" fill="#93c5fd" stroke="#60a5fa" stroke-width="0.5"/><rect x="511.0" y="358.9" width="26.7" height="5.1" fill="#93c5fd" stroke="#60a5fa" stroke-width="0.5"/><rect x="539.7" y="359.7" width="26.7" height="4.3" fill="#93c5fd" stroke="#60a5fa" stroke-width="0.5"/><rect x="568.3" y="359.4" width="26.7" height="4.6" fill="#93c5fd" stroke="#60a5fa" stroke-width="0.5"/><rect x="597.0" y="359.3" width="26.7" height="4.7" fill="#93c5fd" stroke="#60a5fa" stroke-width="0.5"/><rect x="625.7" y="358.6" width="26.7" height="5.4" fill="#93c5fd" stroke="#60a5fa" stroke-width="0.5"/><rect x="654.3" y="358.7" width="26.7" height="5.3" fill="#93c5fd" stroke="#60a5fa" stroke-width="0.5"/><rect x="683.0" y="359.5" width="26.7" height="4.5" fill="#93c5fd" stroke="#60a5fa" stroke-width="0.5"/><rect x="711.7" y="358.2" width="26.7" height="5.8" fill="#93c5fd" stroke="#60a5fa" stroke-width="0.5"/><rect x="740.3" y="359.1" width="26.7" height="4.9" fill="#93c5fd" stroke="#60a5fa" stroke-width="0.5"/><rect x="769.0" y="359.1" width="26.7" height="4.9" fill="#93c5fd" stroke="#60a5fa" stroke-width="0.5"/><rect x="797.7" y="358.4" width="26.7" height="5.6" fill="#93c5fd" stroke="#60a5fa" stroke-width="0.5"/><rect x="826.3" y="358.0" width="26.7" height="6.0" fill="#93c5fd" stroke="#60a5fa" stroke-width="0.5"/><rect x="855.0" y="357.4" width="26.7" height="6.6" fill="#93c5fd" stroke="#60a5fa" stroke-width="0.5"/><rect x="883.7" y="359.8" width="26.7" height="4.2" fill="#93c5fd" stroke="#60a5fa" stroke-width="0.5"/><rect x="912.3" y="359.7" width="26.7" height="4.3" fill="#93c5fd" stroke="#60a5fa" stroke-width="0.5"/><rect x="941.0" y="358.9" width="26.7" height="5.1" fill="#93c5fd" stroke="#60a5fa" stroke-width="0.5"/><rect x="969.7" y="358.9" width="26.7" height="5.1" fill="#93c5fd" stroke="#60a5fa" stroke-width="0.5"/><rect x="998.3" y="359.5" width="26.7" height="4.5" fill="#93c5fd" stroke="#60a5fa" stroke-width="0.5"/><rect x="1027.0" y="358.2" width="26.7" height="5.8" fill="#93c5fd" stroke="#60a5fa" stroke-width="0.5"/><rect x="1055.7" y="358.3" width="26.7" height="5.7" fill="#93c5fd" stroke="#60a5fa" stroke-width="0.5"/><rect x="1084.3" y="357.6" width="26.7" height="6.4" fill="#93c5fd" stroke="#60a5fa" stroke-width="0.5"/><rect x="1113.0" y="357.8" width="26.7" height="6.2" fill="#93c5fd" stroke="#60a5fa" stroke-width="0.5"/><rect x="1141.7" y="349.0" width="26.7" height="15.0" fill="#93c5fd" stroke="#60a5fa" stroke-width="0.5"/><rect x="1170.3" y="339.5" width="26.7" height="24.5" fill="#93c5fd" stroke="#60a5fa" stroke-width="0.5"/><polyline fill="none" stroke="#ef4444" stroke-width="2" points="94.3,353.5 123.0,350.4 151.7,167.8 180.3,166.4 209.0,164.8 237.7,163.0 266.3,162.2 295.0,158.6 323.7,156.6 352.3,154.9 381.0,152.9 409.7,150.3 438.3,147.7 467.0,145.4 495.7,142.4 524.3,139.5 553.0,136.9 581.7,134.3 610.3,131.5 639.0,128.4 667.7,125.3 696.3,122.6 725.0,119.2 753.7,116.4 782.3,113.5 811.0,110.2 839.7,106.7 868.3,102.9 897.0,100.4 925.7,97.8 954.3,94.9 983.0,91.9 1011.7,89.2 1040.3,85.8 1069.0,82.5 1097.7,78.8 1126.3,75.1 1155.0,66.3 1183.7,52.0"/><line x1="94.3" y1="364.0" x2="94.3" y2="370.0" stroke="#111827" stroke-width="1"/><text x="96.3" y="386.0" font-size="11" text-anchor="end" transform="rotate(-35 96.3 386.0)" font-family="sans-serif" fill="#374151">2026-02-28</text><line x1="237.7" y1="364.0" x2="237.7" y2="370.0" stroke="#111827" stroke-width="1"/><text x="239.7" y="386.0" font-size="11" text-anchor="end" transform="rotate(-35 239.7 386.0)" font-family="sans-serif" fill="#374151">2026-03-05</text><line x1="409.7" y1="364.0" x2="409.7" y2="370.0" stroke="#111827" stroke-width="1"/><text x="411.7" y="386.0" font-size="11" text-anchor="end" transform="rotate(-35 411.7 386.0)" font-family="sans-serif" fill="#374151">2026-03-13</text><line x1="553.0" y1="364.0" x2="553.0" y2="370.0" stroke="#111827" stroke-width="1"/><text x="555.0" y="386.0" font-size="11" text-anchor="end" transform="rotate(-35 555.0 386.0)" font-family="sans-serif" fill="#374151">2026-03-18</text><line x1="725.0" y1="364.0" x2="725.0" y2="370.0" stroke="#111827" stroke-width="1"/><text x="727.0" y="386.0" font-size="11" text-anchor="end" transform="rotate(-35 727.0 386.0)" font-family="sans-serif" fill="#374151">2026-03-24</text><line x1="868.3" y1="364.0" x2="868.3" y2="370.0" stroke="#111827" stroke-width="1"/><text x="870.3" y="386.0" font-size="11" text-anchor="end" transform="rotate(-35 870.3 386.0)" font-family="sans-serif" fill="#374151">2026-03-29</text><line x1="1040.3" y1="364.0" x2="1040.3" y2="370.0" stroke="#111827" stroke-width="1"/><text x="1042.3" y="386.0" font-size="11" text-anchor="end" transform="rotate(-35 1042.3 386.0)" font-family="sans-serif" fill="#374151">2026-04-04</text><line x1="1183.7" y1="364.0" x2="1183.7" y2="370.0" stroke="#111827" stroke-width="1"/><text x="1185.7" y="386.0" font-size="11" text-anchor="end" transform="rotate(-35 1185.7 386.0)" font-family="sans-serif" fill="#374151">2026-04-09</text><text x="26" y="208.0" font-size="12" transform="rotate(-90 26 208.0)" text-anchor="middle" font-family="sans-serif" fill="#1f2937">구간별 수</text><text x="1256.0" y="208.0" font-size="12" transform="rotate(90 1256.0 208.0)" text-anchor="middle" font-family="sans-serif" fill="#1f2937">누적</text><text x="639.0" y="442.0" font-size="13" text-anchor="middle" font-family="sans-serif" fill="#111827">일</text></svg>