<svg xmlns="http://www.w3.org/2000/svg" width="1280" height="460" viewBox="0 0 1280 460"><rect x="0" y="0" width="100%" height="100%" fill="#ffffff"/><text x="640.0" y="28" font-size="20" text-anchor="middle" font-family="sans-serif" fill="#111827">마켓 / 최근 반영 시점 / 일별</text><line x1="80.0" y1="52.0" x2="1198.0" y2="52.0" stroke="#e5e7eb" stroke-width="1"/><text x="72.0" y="56.0" font-size="11" text-anchor="end" font-family="sans-serif" fill="#374151">493,407</text><text x="1206.0" y="56.0" font-size="11" text-anchor="start" font-family="sans-serif" fill="#374151">775,209</text><line x1="80.0" y1="114.4" x2="1198.0" y2="114.4" stroke="#e5e7eb" stroke-width="1"/><text x="72.0" y="118.4" font-size="11" text-anchor="end" font-family="sans-serif" fill="#374151">394,726</text><text x="1206.0" y="118.4" font-size="11" text-anchor="start" font-family="sans-serif" fill="#374151">620,167</text><line x1="80.0" y1="176.8" x2="1198.0" y2="176.8" stroke="#e5e7eb" stroke-width="1"/><text x="72.0" y="180.8" font-size="11" text-anchor="end" font-family="sans-serif" fill="#374151">296,044</text><text x="1206.0" y="180.8" font-size="11" text-anchor="start" font-family="sans-serif" fill="#374151">465,125</text><line x1="80.0" y1="239.2" x2="1198.0" y2="239.2" stroke="#e5e7eb" stroke-width="1"/><text x="72.0" y="243.2" font-size="11" text-anchor="end" font-family="sans-serif" fill="#374151">197,363</text><text x="1206.0" y="243.2" font-size="11" text-anchor="start" font-family="sans-serif" fill="#374151">310,084</text><line x1="80.0" y1="301.6" x2="1198.0" y2="301.6" stroke="#e5e7eb" stroke-width="1"/><text x="72.0" y="305.6" font-size="11" text-anchor="end" font-family="sans-serif" fill="#374151">98,681</text><text x="1206.0" y="305.6" font-size="11" text-anchor="start" font-family="sans-serif" fill="#374151">155,042</text><line x1="80.0" y1="364.0" x2="1198.0" y2="364.0" stroke="#e5e7eb" stroke-width="1"/><text x="72.0" y="368.0" font-size="11" text-anchor="end" font-family="sans-serif" fill="#374151">0</text><text x="1206.0" y="368.0" font-size="11" text-anchor="start" font-family="sans-serif" fill="#374151">0</text><line x1="80.0" y1="364.0" x2="1198.0" y2="364.0" stroke="#111827" stroke-width="1.2"/><line x1="80.0" y1="52.0" x2="80.0" y2="364.0" stroke="#111827" stroke-width="1.2"/><line x1="1198.0" y1="52.0" x2="1198.0" y2="364.0" stroke="#111827" stroke-width="1.2"/><rect x="81.0" y="346.0" width="34.1" height="18.0" fill="#93c5fd" stroke="#60a5fa" stroke-width="0.5"/><rect x="117.1" y="358.6" width="34.1" height="5.4" fill="#93c5fd" stroke="#60a5fa" stroke-width="0.5"/><rect x="153.1" y="52.0" width="34.1" height="312.0" fill="#93c5fd" stroke="#60a5fa" stroke-width="0.5"/><rect x="189.2" y="361.7" width="34.1" height="2.3" fill="#93c5fd" stroke="#60a5fa" stroke-width="0.5"/><rect x="225.3" y="361.2" width="34.1" height="2.8" fill="#93c5fd" stroke="#60a5fa" stroke-width="0.5"/><rect x="261.3" y="361.0" width="34.1" height="3.0" fill="#93c5fd" stroke="#60a5fa" stroke-width="0.5"/><rect x="297.4" y="362.6" width="34.1" height="1.4" fill="#93c5fd" stroke="#60a5fa" stroke-width="0.5"/><rect x="333.5" y="357.9" width="34.1" height="6.1" fill="#93c5fd" stroke="#60a5fa" stroke-width="0.5"/><rect x="369.5" y="360.4" width="34.1" height="3.6" fill="#93c5fd" stroke="#60a5fa" stroke-width="0.5"/><rect x="405.6" y="361.1" width="34.1" height="2.9" fill="#93c5fd" stroke="#60a5fa" stroke-width="0.5"/><rect x="441.6" y="360.7" width="34.1" height="3.3" fill="#93c5fd" stroke="#60a5fa" stroke-width="0.5"/><rect x="477.7" y="359.4" width="34.1" height="4.6" fill="#93c5fd" stroke="#60a5fa" stroke-width="0.5"/><rect x="513.8" y="359.7" width="34.1" height="4.3" fill="#93c5fd" stroke="#60a5fa" stroke-width="0.5"/><rect x="549.8" y="360.0" width="34.1" height="4.0" fill="#93c5fd" stroke="#60a5fa" stroke-width="0.5"/><rect x="585.9" y="358.9" width="34.1" height="5.1" fill="#93c5fd" stroke="#60a5fa" stroke-width="0.5"/><rect x="622.0" y="358.9" width="34.1" height="5.1" fill="#93c5fd" stroke="#60a5fa" stroke-width="0.5"/><rect x="658.0" y="359.7" width="34.1" height="4.3" fill="#93c5fd" stroke="#60a5fa" stroke-width="0.5"/><rect x="694.1" y="359.4" width="34.1" height="4.6" fill="#93c5fd" stroke="#60a5fa" stroke-width="0.5"/><rect x="730.2" y="359.3" width="34.1" height="4.7" fill="#93c5fd" stroke="#60a5fa" stroke-width="0.5"/><rect x="766.2" y="358.6" width="34.1" height="5.4" fill="#93c5fd" stroke="#60a5fa" stroke-width="0.5"/><rect x="802.3" y="358.7" width="34.1" height="5.3" fill="#93c5fd" stroke="#60a5fa" stroke-width="0.5"/><rect x="838.4" y="359.5" width="34.1" height="4.5" fill="#93c5fd" stroke="#60a5fa" stroke-width="0.5"/><rect x="874.4" y="358.2" width="34.1" height="5.8" fill="#93c5fd" stroke="#60a5fa" stroke-width="0.5"/><rect x="910.5" y="359.1" width="34.1" height="4.9" fill="#93c5fd" stroke="#60a5fa" stroke-width="0.5"/><rect x="946.5" y="359.1" width="34.1" height="4.9" fill="#93c5fd" stroke="#60a5fa" stroke-width="0.5"/><rect x="982.6" y="358.4" width="34.1" height="5.6" fill="#93c5fd" stroke="#60a5fa" stroke-width="0.5"/><rect x="1018.7" y="358.0" width="34.1" height="6.0" fill="#93c5fd" stroke="#60a5fa" stroke-width="0.5"/><rect x="1054.7" y="357.4" width="34.1" height="6.6" fill="#93c5fd" stroke="#60a5fa" stroke-width="0.5"/><rect x="1090.8" y="359.8" width="34.1" height="4.2" fill="#93c5fd" stroke="#60a5fa" stroke-width="0.5"/><rect x="1126.9" y="358.9" width="34.1" height="5.1" fill="#93c5fd" stroke="#60a5fa" stroke-width="0.5"/><rect x="1162.9" y="329.4" width="34.1" height="34.6" fill="#93c5fd" stroke="#60a5fa" stroke-width="0.5"/><polyline fill="none" stroke="#ef4444" stroke-width="2" points="98.0,352.6 134.1,349.1 170.2,150.6 206.2,149.1 242.3,147.3 278.4,145.4 314.4,144.5 350.5,140.6 386.5,138.4 422.6,136.5 458.7,134.4 494.7,131.5 530.8,128.8 566.9,126.2 602.9,123.0 639.0,119.8 675.1,117.0 711.1,114.1 747.2,111.1 783.3,107.7 819.3,104.3 855.4,101.5 891.5,97.8 927.5,94.6 963.6,91.5 999.6,87.9 1035.7,84.1 1071.8,79.9 1107.8,77.2 1143.9,74.0 1180.0,52.0"/><line x1="98.0" y1="364.0" x2="98.0" y2="370.0" stroke="#111827" stroke-width="1"/><text x="100.0" y="386.0" font-size="11" text-anchor="end" transform="rotate(-35 100.0 386.0)" font-family="sans-serif" fill="#374151">2026-02-28</text><line x1="242.3" y1="364.0" x2="242.3" y2="370.0" stroke="#111827" stroke-width="1"/><text x="244.3" y="386.0" font-size="11" text-anchor="end" transform="rotate(-35 244.3 386.0)" font-family="sans-serif" fill="#374151">2026-03-04</text><line x1="422.6" y1="364.0" x2="422.6" y2="370.0" stroke="#111827" stroke-width="1"/><text x="424.6" y="386.0" font-size="11" text-anchor="end" transform="rotate(-35 424.6 386.0)" font-family="sans-serif" fill="#374151">2026-03-11</text><line x1="566.9" y1="364.0" x2="566.9" y2="370.0" stroke="#111827" stroke-width="1"/><text x="568.9" y="386.0" font-size="11" text-anchor="end" transform="rotate(-35 568.9 386.0)" font-family="sans-serif" fill="#374151">2026-03-15</text><line x1="711.1" y1="364.0" x2="711.1" y2="370.0" stroke="#111827" stroke-width="1"/><text x="713.1" y="386.0" font-size="11" text-anchor="end" transform="rotate(-35 713.1 386.0)" font-family="sans-serif" fill="#374151">2026-03-19</text><line x1="855.4" y1="364.0" x2="855.4" y2="370.0" stroke="#111827" stroke-width="1"/><text x="857.4" y="386.0" font-size="11" text-anchor="end" transform="rotate(-35 857.4 386.0)" font-family="sans-serif" fill="#374151">2026-03-23</text><line x1="1035.7" y1="364.0" x2="1035.7" y2="370.0" stroke="#111827" stroke-width="1"/><text x="1037.7" y="386.0" font-size="11" text-anchor="end" transform="rotate(-35 1037.7 386.0)" font-family="sans-serif" fill="#374151">2026-03-28</text><line x1="1180.0" y1="364.0" x2="1180.0" y2="370.0" stroke="#111827" stroke-width="1"/><text x="1182.0" y="386.0" font-size="11" text-anchor="end" transform="rotate(-35 1182.0 386.0)" font-family="sans-serif" fill="#374151">2026-04-01</text><text x="26" y="208.0" font-size="12" transform="rotate(-90 26 208.0)" text-anchor="middle" font-family="sans-serif" fill="#1f2937">구간별 수</text><text x="1256.0" y="208.0" font-size="12" transform="rotate(90 1256.0 208.0)" text-anchor="middle" font-family="sans-serif" fill="#1f2937">누적</text><text x="639.0" y="442.0" font-size="13" text-anchor="middle" font-family="sans-serif" fill="#111827">일</text></svg>