<svg xmlns="http://www.w3.org/2000/svg" width="1280" height="460" viewBox="0 0 1280 460"><rect x="0" y="0" width="100%" height="100%" fill="#ffffff"/><text x="640.0" y="28" font-size="20" text-anchor="middle" font-family="sans-serif" fill="#111827">마켓 / 최근 반영 시점 / 일별</text><line x1="80.0" y1="52.0" x2="1198.0" y2="52.0" stroke="#e5e7eb" stroke-width="1"/><text x="72.0" y="56.0" font-size="11" text-anchor="end" font-family="sans-serif" fill="#374151">493,371</text><text x="1206.0" y="56.0" font-size="11" text-anchor="start" font-family="sans-serif" fill="#374151">1,019,896</text><line x1="80.0" y1="114.4" x2="1198.0" y2="114.4" stroke="#e5e7eb" stroke-width="1"/><text x="72.0" y="118.4" font-size="11" text-anchor="end" font-family="sans-serif" fill="#374151">394,697</text><text x="1206.0" y="118.4" font-size="11" text-anchor="start" font-family="sans-serif" fill="#374151">815,917</text><line x1="80.0" y1="176.8" x2="1198.0" y2="176.8" stroke="#e5e7eb" stroke-width="1"/><text x="72.0" y="180.8" font-size="11" text-anchor="end" font-family="sans-serif" fill="#374151">296,023</text><text x="1206.0" y="180.8" font-size="11" text-anchor="start" font-family="sans-serif" fill="#374151">611,938</text><line x1="80.0" y1="239.2" x2="1198.0" y2="239.2" stroke="#e5e7eb" stroke-width="1"/><text x="72.0" y="243.2" font-size="11" text-anchor="end" font-family="sans-serif" fill="#374151">197,348</text><text x="1206.0" y="243.2" font-size="11" text-anchor="start" font-family="sans-serif" fill="#374151">407,958</text><line x1="80.0" y1="301.6" x2="1198.0" y2="301.6" stroke="#e5e7eb" stroke-width="1"/><text x="72.0" y="305.6" font-size="11" text-anchor="end" font-family="sans-serif" fill="#374151">98,674</text><text x="1206.0" y="305.6" font-size="11" text-anchor="start" font-family="sans-serif" fill="#374151">203,979</text><line x1="80.0" y1="364.0" x2="1198.0" y2="364.0" stroke="#e5e7eb" stroke-width="1"/><text x="72.0" y="368.0" font-size="11" text-anchor="end" font-family="sans-serif" fill="#374151">0</text><text x="1206.0" y="368.0" font-size="11" text-anchor="start" font-family="sans-serif" fill="#374151">0</text><line x1="80.0" y1="364.0" x2="1198.0" y2="364.0" stroke="#111827" stroke-width="1.2"/><line x1="80.0" y1="52.0" x2="80.0" y2="364.0" stroke="#111827" stroke-width="1.2"/><line x1="1198.0" y1="52.0" x2="1198.0" y2="364.0" stroke="#111827" stroke-width="1.2"/><rect x="81.0" y="346.1" width="16.6" height="17.9" fill="#93c5fd" stroke="#60a5fa" stroke-width="0.5"/><rect x="99.6" y="358.6" width="16.6" height="5.4" fill="#93c5fd" stroke="#60a5fa" stroke-width="0.5"/><rect x="118.3" y="52.0" width="16.6" height="312.0" fill="#93c5fd" stroke="#60a5fa" stroke-width="0.5"/><rect x="136.9" y="361.7" width="16.6" height="2.3" fill="#93c5fd" stroke="#60a5fa" stroke-width="0.5"/><rect x="155.5" y="361.2" width="16.6" height="2.8" fill="#93c5fd" stroke="#60a5fa" stroke-width="0.5"/><rect x="174.2" y="361.0" width="16.6" height="3.0" fill="#93c5fd" stroke="#60a5fa" stroke-width="0.5"/><rect x="192.8" y="362.6" width="16.6" height="1.4" fill="#93c5fd" stroke="#60a5fa" stroke-width="0.5"/><rect x="211.4" y="357.9" width="16.6" height="6.1" fill="#93c5fd" stroke="#60a5fa" stroke-width="0.5"/><rect x="230.1" y="360.4" width="16.6" height="3.6" fill="#93c5fd" stroke="#60a5fa" stroke-width="0.5"/><rect x="248.7" y="361.1" width="16.6" height="2.9" fill="#93c5fd" stroke="#60a5fa" stroke-width="0.5"/><rect x="267.3" y="360.7" width="16.6" height="3.3" fill="#93c5fd" stroke="#60a5fa" stroke-width="0.5"/><rect x="286.0" y="359.4" width="16.6" height="4.6" fill="#93c5fd" stroke="#60a5fa" stroke-width="0.5"/><rect x="304.6" y="359.7" width="16.6" height="4.3" fill="#93c5fd" stroke="#60a5fa" stroke-width="0.5"/><rect x="323.2" y="360.0" width="16.6" height="4.0" fill="#93c5fd" stroke="#60a5fa" stroke-width="0.5"/><rect x="341.9" y="358.9" width="16.6" height="5.1" fill="#93c5fd" stroke="#60a5fa" stroke-width="0.5"/><rect x="360.5" y="358.9" width="16.6" height="5.1" fill="#93c5fd" stroke="#60a5fa" stroke-width="0.5"/><rect x="379.1" y="359.7" width="16.6" height="4.3" fill="#93c5fd" stroke="#60a5fa" stroke-width="0.5"/><rect x="397.8" y="359.4" width="16.6" height="4.6" fill="#93c5fd" stroke="#60a5fa" stroke-width="0.5"/><rect x="416.4" y="359.3" width="16.6" height="4.7" fill="#93c5fd" stroke="#60a5fa" stroke-width="0.5"/><rect x="435.0" y="358.6" width="16.6" height="5.4" fill="#93c5fd" stroke="#60a5fa" stroke-width="0.5"/><rect x="453.7" y="358.7" width="16.6" height="5.3" fill="#93c5fd" stroke="#60a5fa" stroke-width="0.5"/><rect x="472.3" y="359.5" width="16.6" height="4.5" fill="#93c5fd" stroke="#60a5fa" stroke-width="0.5"/><rect x="490.9" y="358.2" width="16.6" height="5.8" fill="#93c5fd" stroke="#60a5fa" stroke-width="0.5"/><rect x="509.6" y="359.1" width="16.6" height="4.9" fill="#93c5fd" stroke="#60a5fa" stroke-width="0.5"/><rect x="528.2" y="359.1" width="16.6" height="4.9" fill="#93c5fd" stroke="#60a5fa" stroke-width="0.5"/><rect x="546.8" y="358.4" width="16.6" height="5.6" fill="#93c5fd" stroke="#60a5fa" stroke-width="0.5"/><rect x="565.5" y="358.0" width="16.6" height="6.0" fill="#93c5fd" stroke="#60a5fa" stroke-width="0.5"/><rect x="584.1" y="357.5" width="16.6" height="6.5" fill="#93c5fd" stroke="#60a5fa" stroke-width="0.5"/><rect x="602.7" y="359.8" width="16.6" height="4.2" fill="#93c5fd" stroke="#60a5fa" stroke-width="0.5"/><rect x="621.4" y="359.7" width="16.6" height="4.3" fill="#93c5fd" stroke="#60a5fa" stroke-width="0.5"/><rect x="640.0" y="358.9" width="16.6" height="5.1" fill="#93c5fd" stroke="#60a5fa" stroke-width="0.5"/><rect x="658.6" y="358.9" width="16.6" height="5.1" fill="#93c5fd" stroke="#60a5fa" stroke-width="0.5"/><rect x="677.3" y="359.5" width="16.6" height="4.5" fill="#93c5fd" stroke="#60a5fa" stroke-width="0.5"/><rect x="695.9" y="358.2" width="16.6" height="5.8" fill="#93c5fd" stroke="#60a5fa" stroke-width="0.5"/><rect x="714.5" y="358.3" width="16.6" height="5.7" fill="#93c5fd" stroke="#60a5fa" stroke-width="0.5"/><rect x="733.2" y="357.6" width="16.6" height="6.4" fill="#93c5fd" stroke="#60a5fa" stroke-width="0.5"/><rect x="751.8" y="357.8" width="16.6" height="6.2" fill="#93c5fd" stroke="#60a5fa" stroke-width="0.5"/><rect x="770.4" y="356.4" width="16.6" height="7.6" fill="#93c5fd" stroke="#60a5fa" stroke-width="0.5"/><rect x="789.1" y="359.3" width="16.6" height="4.7" fill="#93c5fd" stroke="#60a5fa" stroke-width="0.5"/><rect x="807.7" y="359.6" width="16.6" height="4.4" fill="#93c5fd" stroke="#60a5fa" stroke-width="0.5"/><rect x="826.3" y="357.1" width="16.6" height="6.9" fill="#93c5fd" stroke="#60a5fa" stroke-width="0.5"/><rect x="845.0" y="356.9" width="16.6" height="7.1" fill="#93c5fd" stroke="#60a5fa" stroke-width="0.5"/><rect x="863.6" y="358.8" width="16.6" height="5.2" fill="#93c5fd" stroke="#60a5fa" stroke-width="0.5"/><rect x="882.2" y="359.0" width="16.6" height="5.0" fill="#93c5fd" stroke="#60a5fa" stroke-width="0.5"/><rect x="900.9" y="360.1" width="16.6" height="3.9" fill="#93c5fd" stroke="#60a5fa" stroke-width="0.5"/><rect x="919.5" y="359.4" width="16.6" height="4.6" fill="#93c5fd" stroke="#60a5fa" stroke-width="0.5"/><rect x="938.1" y="359.5" width="16.6" height="4.5" fill="#93c5fd" stroke="#60a5fa" stroke-width="0.5"/><rect x="956.8" y="357.5" width="16.6" height="6.5" fill="#93c5fd" stroke="#60a5fa" stroke-width="0.5"/><rect x="975.4" y="358.0" width="16.6" height="6.0" fill="#93c5fd" stroke="#60a5fa" stroke-width="0.5"/><rect x="994.0" y="359.0" width="16.6" height="5.0" fill="#93c5fd" stroke="#60a5fa" stroke-width="0.5"/><rect x="1012.7" y="359.5" width="16.6" height="4.5" fill="#93c5fd" stroke="#60a5fa" stroke-width="0.5"/><rect x="1031.3" y="358.7" width="16.6" height="5.3" fill="#93c5fd" stroke="#60a5fa" stroke-width="0.5"/><rect x="1049.9" y="358.8" width="16.6" height="5.2" fill="#93c5fd" stroke="#60a5fa" stroke-width="0.5"/><rect x="1068.6" y="358.7" width="16.6" height="5.3" fill="#93c5fd" stroke="#60a5fa" stroke-width="0.5"/><rect x="1087.2" y="357.0" width="16.6" height="7.0" fill="#93c5fd" stroke="#60a5fa" stroke-width="0.5"/><rect x="1105.8" y="357.3" width="16.6" height="6.7" fill="#93c5fd" stroke="#60a5fa" stroke-width="0.5"/><rect x="1124.5" y="360.1" width="16.6" height="3.9" fill="#93c5fd" stroke="#60a5fa" stroke-width="0.5"/><rect x="1143.1" y="359.3" width="16.6" height="4.7" fill="#93c5fd" stroke="#60a5fa" stroke-width="0.5"/><rect x="1161.7" y="359.5" width="16.6" height="4.5" fill="#93c5fd" stroke="#60a5fa" stroke-width="0.5"/><rect x="1180.4" y="331.1" width="16.6" height="32.9" fill="#93c5fd" stroke="#60a5fa" stroke-width="0.5"/><polyline fill="none" stroke="#ef4444" stroke-width="2" points="89.3,355.3 107.9,352.7 126.6,201.8 145.2,200.7 163.8,199.3 182.5,197.9 201.1,197.2 219.8,194.3 238.4,192.5 257.0,191.1 275.6,189.5 294.3,187.3 312.9,185.3 331.6,183.3 350.2,180.9 368.8,178.4 387.4,176.3 406.1,174.1 424.7,171.8 443.3,169.2 462.0,166.7 480.6,164.5 499.2,161.7 517.9,159.3 536.5,156.9 555.1,154.2 573.8,151.3 592.4,148.2 611.1,146.1 629.7,144.0 648.3,141.6 667.0,139.1 685.6,136.9 704.2,134.1 722.9,131.4 741.5,128.3 760.1,125.3 778.8,121.6 797.4,119.3 816.0,117.2 834.6,113.8 853.3,110.4 871.9,107.9 890.6,105.5 909.2,103.6 927.8,101.4 946.5,99.2 965.1,96.1 983.7,93.2 1002.4,90.7 1021.0,88.5 1039.6,86.0 1058.2,83.5 1076.9,80.9 1095.5,77.5 1114.1,74.3 1132.8,72.4 1151.4,70.1 1170.0,67.9 1188.7,52.0"/><line x1="89.3" y1="364.0" x2="89.3" y2="370.0" stroke="#111827" stroke-width="1"/><text x="91.3" y="386.0" font-size="11" text-anchor="end" transform="rotate(-35 91.3 386.0)" font-family="sans-serif" fill="#374151">2026-02-28</text><line x1="238.4" y1="364.0" x2="238.4" y2="370.0" stroke="#111827" stroke-width="1"/><text x="240.4" y="386.0" font-size="11" text-anchor="end" transform="rotate(-35 240.4 386.0)" font-family="sans-serif" fill="#374151">2026-03-10</text><line x1="406.1" y1="364.0" x2="406.1" y2="370.0" stroke="#111827" stroke-width="1"/><text x="408.1" y="386.0" font-size="11" text-anchor="end" transform="rotate(-35 408.1 386.0)" font-family="sans-serif" fill="#374151">2026-03-19</text><line x1="555.1" y1="364.0" x2="555.1" y2="370.0" stroke="#111827" stroke-width="1"/><text x="557.1" y="386.0" font-size="11" text-anchor="end" transform="rotate(-35 557.1 386.0)" font-family="sans-serif" fill="#374151">2026-03-27</text><line x1="722.9" y1="364.0" x2="722.9" y2="370.0" stroke="#111827" stroke-width="1"/><text x="724.9" y="386.0" font-size="11" text-anchor="end" transform="rotate(-35 724.9 386.0)" font-family="sans-serif" fill="#374151">2026-04-05</text><line x1="871.9" y1="364.0" x2="871.9" y2="370.0" stroke="#111827" stroke-width="1"/><text x="873.9" y="386.0" font-size="11" text-anchor="end" transform="rotate(-35 873.9 386.0)" font-family="sans-serif" fill="#374151">2026-04-13</text><line x1="1039.6" y1="364.0" x2="1039.6" y2="370.0" stroke="#111827" stroke-width="1"/><text x="1041.6" y="386.0" font-size="11" text-anchor="end" transform="rotate(-35 1041.6 386.0)" font-family="sans-serif" fill="#374151">2026-04-22</text><line x1="1188.7" y1="364.0" x2="1188.7" y2="370.0" stroke="#111827" stroke-width="1"/><text x="1190.7" y="386.0" font-size="11" text-anchor="end" transform="rotate(-35 1190.7 386.0)" font-family="sans-serif" fill="#374151">2026-04-30</text><text x="26" y="208.0" font-size="12" transform="rotate(-90 26 208.0)" text-anchor="middle" font-family="sans-serif" fill="#1f2937">구간별 수</text><text x="1256.0" y="208.0" font-size="12" transform="rotate(90 1256.0 208.0)" text-anchor="middle" font-family="sans-serif" fill="#1f2937">누적</text><text x="639.0" y="442.0" font-size="13" text-anchor="middle" font-family="sans-serif" fill="#111827">일</text></svg>