<svg xmlns="http://www.w3.org/2000/svg" width="1280" height="460" viewBox="0 0 1280 460"><rect x="0" y="0" width="100%" height="100%" fill="#ffffff"/><text x="640.0" y="28" font-size="20" text-anchor="middle" font-family="sans-serif" fill="#111827">마켓 / 최근 반영 시점 / 일별</text><line x1="80.0" y1="52.0" x2="1198.0" y2="52.0" stroke="#e5e7eb" stroke-width="1"/><text x="72.0" y="56.0" font-size="11" text-anchor="end" font-family="sans-serif" fill="#374151">493,407</text><text x="1206.0" y="56.0" font-size="11" text-anchor="start" font-family="sans-serif" fill="#374151">794,097</text><line x1="80.0" y1="114.4" x2="1198.0" y2="114.4" stroke="#e5e7eb" stroke-width="1"/><text x="72.0" y="118.4" font-size="11" text-anchor="end" font-family="sans-serif" fill="#374151">394,726</text><text x="1206.0" y="118.4" font-size="11" text-anchor="start" font-family="sans-serif" fill="#374151">635,278</text><line x1="80.0" y1="176.8" x2="1198.0" y2="176.8" stroke="#e5e7eb" stroke-width="1"/><text x="72.0" y="180.8" font-size="11" text-anchor="end" font-family="sans-serif" fill="#374151">296,044</text><text x="1206.0" y="180.8" font-size="11" text-anchor="start" font-family="sans-serif" fill="#374151">476,458</text><line x1="80.0" y1="239.2" x2="1198.0" y2="239.2" stroke="#e5e7eb" stroke-width="1"/><text x="72.0" y="243.2" font-size="11" text-anchor="end" font-family="sans-serif" fill="#374151">197,363</text><text x="1206.0" y="243.2" font-size="11" text-anchor="start" font-family="sans-serif" fill="#374151">317,639</text><line x1="80.0" y1="301.6" x2="1198.0" y2="301.6" stroke="#e5e7eb" stroke-width="1"/><text x="72.0" y="305.6" font-size="11" text-anchor="end" font-family="sans-serif" fill="#374151">98,681</text><text x="1206.0" y="305.6" font-size="11" text-anchor="start" font-family="sans-serif" fill="#374151">158,819</text><line x1="80.0" y1="364.0" x2="1198.0" y2="364.0" stroke="#e5e7eb" stroke-width="1"/><text x="72.0" y="368.0" font-size="11" text-anchor="end" font-family="sans-serif" fill="#374151">0</text><text x="1206.0" y="368.0" font-size="11" text-anchor="start" font-family="sans-serif" fill="#374151">0</text><line x1="80.0" y1="364.0" x2="1198.0" y2="364.0" stroke="#111827" stroke-width="1.2"/><line x1="80.0" y1="52.0" x2="80.0" y2="364.0" stroke="#111827" stroke-width="1.2"/><line x1="1198.0" y1="52.0" x2="1198.0" y2="364.0" stroke="#111827" stroke-width="1.2"/><rect x="81.0" y="346.0" width="31.9" height="18.0" fill="#93c5fd" stroke="#60a5fa" stroke-width="0.5"/><rect x="114.9" y="358.6" width="31.9" height="5.4" fill="#93c5fd" stroke="#60a5fa" stroke-width="0.5"/><rect x="148.8" y="52.0" width="31.9" height="312.0" fill="#93c5fd" stroke="#60a5fa" stroke-width="0.5"/><rect x="182.6" y="361.7" width="31.9" height="2.3" fill="#93c5fd" stroke="#60a5fa" stroke-width="0.5"/><rect x="216.5" y="361.2" width="31.9" height="2.8" fill="#93c5fd" stroke="#60a5fa" stroke-width="0.5"/><rect x="250.4" y="361.0" width="31.9" height="3.0" fill="#93c5fd" stroke="#60a5fa" stroke-width="0.5"/><rect x="284.3" y="362.6" width="31.9" height="1.4" fill="#93c5fd" stroke="#60a5fa" stroke-width="0.5"/><rect x="318.2" y="357.9" width="31.9" height="6.1" fill="#93c5fd" stroke="#60a5fa" stroke-width="0.5"/><rect x="352.0" y="360.4" width="31.9" height="3.6" fill="#93c5fd" stroke="#60a5fa" stroke-width="0.5"/><rect x="385.9" y="361.1" width="31.9" height="2.9" fill="#93c5fd" stroke="#60a5fa" stroke-width="0.5"/><rect x="419.8" y="360.7" width="31.9" height="3.3" fill="#93c5fd" stroke="#60a5fa" stroke-width="0.5"/><rect x="453.7" y="359.4" width="31.9" height="4.6" fill="#93c5fd" stroke="#60a5fa" stroke-width="0.5"/><rect x="487.5" y="359.7" width="31.9" height="4.3" fill="#93c5fd" stroke="#60a5fa" stroke-width="0.5"/><rect x="521.4" y="360.0" width="31.9" height="4.0" fill="#93c5fd" stroke="#60a5fa" stroke-width="0.5"/><rect x="555.3" y="358.9" width="31.9" height="5.1" fill="#93c5fd" stroke="#60a5fa" stroke-width="0.5"/><rect x="589.2" y="358.9" width="31.9" height="5.1" fill="#93c5fd" stroke="#60a5fa" stroke-width="0.5"/><rect x="623.1" y="359.7" width="31.9" height="4.3" fill="#93c5fd" stroke="#60a5fa" stroke-width="0.5"/><rect x="656.9" y="359.4" width="31.9" height="4.6" fill="#93c5fd" stroke="#60a5fa" stroke-width="0.5"/><rect x="690.8" y="359.3" width="31.9" height="4.7" fill="#93c5fd" stroke="#60a5fa" stroke-width="0.5"/><rect x="724.7" y="358.6" width="31.9" height="5.4" fill="#93c5fd" stroke="#60a5fa" stroke-width="0.5"/><rect x="758.6" y="358.7" width="31.9" height="5.3" fill="#93c5fd" stroke="#60a5fa" stroke-width="0.5"/><rect x="792.5" y="359.5" width="31.9" height="4.5" fill="#93c5fd" stroke="#60a5fa" stroke-width="0.5"/><rect x="826.3" y="358.2" width="31.9" height="5.8" fill="#93c5fd" stroke="#60a5fa" stroke-width="0.5"/><rect x="860.2" y="359.1" width="31.9" height="4.9" fill="#93c5fd" stroke="#60a5fa" stroke-width="0.5"/><rect x="894.1" y="359.1" width="31.9" height="4.9" fill="#93c5fd" stroke="#60a5fa" stroke-width="0.5"/><rect x="928.0" y="358.4" width="31.9" height="5.6" fill="#93c5fd" stroke="#60a5fa" stroke-width="0.5"/><rect x="961.8" y="358.0" width="31.9" height="6.0" fill="#93c5fd" stroke="#60a5fa" stroke-width="0.5"/><rect x="995.7" y="357.4" width="31.9" height="6.6" fill="#93c5fd" stroke="#60a5fa" stroke-width="0.5"/><rect x="1029.6" y="359.8" width="31.9" height="4.2" fill="#93c5fd" stroke="#60a5fa" stroke-width="0.5"/><rect x="1063.5" y="359.7" width="31.9" height="4.3" fill="#93c5fd" stroke="#60a5fa" stroke-width="0.5"/><rect x="1097.4" y="358.9" width="31.9" height="5.1" fill="#93c5fd" stroke="#60a5fa" stroke-width="0.5"/><rect x="1131.2" y="358.6" width="31.9" height="5.4" fill="#93c5fd" stroke="#60a5fa" stroke-width="0.5"/><rect x="1165.1" y="327.3" width="31.9" height="36.7" fill="#93c5fd" stroke="#60a5fa" stroke-width="0.5"/><polyline fill="none" stroke="#ef4444" stroke-width="2" points="96.9,352.8 130.8,349.5 164.7,155.6 198.6,154.2 232.5,152.4 266.3,150.6 300.2,149.7 334.1,145.9 368.0,143.7 401.8,141.9 435.7,139.9 469.6,137.0 503.5,134.4 537.4,131.9 571.2,128.7 605.1,125.6 639.0,122.9 672.9,120.1 706.8,117.1 740.6,113.8 774.5,110.5 808.4,107.7 842.3,104.1 876.2,101.0 910.0,98.0 943.9,94.5 977.8,90.8 1011.7,86.7 1045.5,84.1 1079.4,81.4 1113.3,78.2 1147.2,74.8 1181.1,52.0"/><line x1="96.9" y1="364.0" x2="96.9" y2="370.0" stroke="#111827" stroke-width="1"/><text x="98.9" y="386.0" font-size="11" text-anchor="end" transform="rotate(-35 98.9 386.0)" font-family="sans-serif" fill="#374151">2026-02-28</text><line x1="266.3" y1="364.0" x2="266.3" y2="370.0" stroke="#111827" stroke-width="1"/><text x="268.3" y="386.0" font-size="11" text-anchor="end" transform="rotate(-35 268.3 386.0)" font-family="sans-serif" fill="#374151">2026-03-05</text><line x1="401.8" y1="364.0" x2="401.8" y2="370.0" stroke="#111827" stroke-width="1"/><text x="403.8" y="386.0" font-size="11" text-anchor="end" transform="rotate(-35 403.8 386.0)" font-family="sans-serif" fill="#374151">2026-03-11</text><line x1="571.2" y1="364.0" x2="571.2" y2="370.0" stroke="#111827" stroke-width="1"/><text x="573.2" y="386.0" font-size="11" text-anchor="end" transform="rotate(-35 573.2 386.0)" font-family="sans-serif" fill="#374151">2026-03-16</text><line x1="706.8" y1="364.0" x2="706.8" y2="370.0" stroke="#111827" stroke-width="1"/><text x="708.8" y="386.0" font-size="11" text-anchor="end" transform="rotate(-35 708.8 386.0)" font-family="sans-serif" fill="#374151">2026-03-20</text><line x1="876.2" y1="364.0" x2="876.2" y2="370.0" stroke="#111827" stroke-width="1"/><text x="878.2" y="386.0" font-size="11" text-anchor="end" transform="rotate(-35 878.2 386.0)" font-family="sans-serif" fill="#374151">2026-03-25</text><line x1="1011.7" y1="364.0" x2="1011.7" y2="370.0" stroke="#111827" stroke-width="1"/><text x="1013.7" y="386.0" font-size="11" text-anchor="end" transform="rotate(-35 1013.7 386.0)" font-family="sans-serif" fill="#374151">2026-03-29</text><line x1="1181.1" y1="364.0" x2="1181.1" y2="370.0" stroke="#111827" stroke-width="1"/><text x="1183.1" y="386.0" font-size="11" text-anchor="end" transform="rotate(-35 1183.1 386.0)" font-family="sans-serif" fill="#374151">2026-04-03</text><text x="26" y="208.0" font-size="12" transform="rotate(-90 26 208.0)" text-anchor="middle" font-family="sans-serif" fill="#1f2937">구간별 수</text><text x="1256.0" y="208.0" font-size="12" transform="rotate(90 1256.0 208.0)" text-anchor="middle" font-family="sans-serif" fill="#1f2937">누적</text><text x="639.0" y="442.0" font-size="13" text-anchor="middle" font-family="sans-serif" fill="#111827">일</text></svg>