<svg xmlns="http://www.w3.org/2000/svg" width="1280" height="460" viewBox="0 0 1280 460"><rect x="0" y="0" width="100%" height="100%" fill="#ffffff"/><text x="640.0" y="28" font-size="20" text-anchor="middle" font-family="sans-serif" fill="#111827">마켓 / 최근 반영 시점 / 일별</text><line x1="80.0" y1="52.0" x2="1198.0" y2="52.0" stroke="#e5e7eb" stroke-width="1"/><text x="72.0" y="56.0" font-size="11" text-anchor="end" font-family="sans-serif" fill="#374151">493,407</text><text x="1206.0" y="56.0" font-size="11" text-anchor="start" font-family="sans-serif" fill="#374151">960,625</text><line x1="80.0" y1="114.4" x2="1198.0" y2="114.4" stroke="#e5e7eb" stroke-width="1"/><text x="72.0" y="118.4" font-size="11" text-anchor="end" font-family="sans-serif" fill="#374151">394,726</text><text x="1206.0" y="118.4" font-size="11" text-anchor="start" font-family="sans-serif" fill="#374151">768,500</text><line x1="80.0" y1="176.8" x2="1198.0" y2="176.8" stroke="#e5e7eb" stroke-width="1"/><text x="72.0" y="180.8" font-size="11" text-anchor="end" font-family="sans-serif" fill="#374151">296,044</text><text x="1206.0" y="180.8" font-size="11" text-anchor="start" font-family="sans-serif" fill="#374151">576,375</text><line x1="80.0" y1="239.2" x2="1198.0" y2="239.2" stroke="#e5e7eb" stroke-width="1"/><text x="72.0" y="243.2" font-size="11" text-anchor="end" font-family="sans-serif" fill="#374151">197,363</text><text x="1206.0" y="243.2" font-size="11" text-anchor="start" font-family="sans-serif" fill="#374151">384,250</text><line x1="80.0" y1="301.6" x2="1198.0" y2="301.6" stroke="#e5e7eb" stroke-width="1"/><text x="72.0" y="305.6" font-size="11" text-anchor="end" font-family="sans-serif" fill="#374151">98,681</text><text x="1206.0" y="305.6" font-size="11" text-anchor="start" font-family="sans-serif" fill="#374151">192,125</text><line x1="80.0" y1="364.0" x2="1198.0" y2="364.0" stroke="#e5e7eb" stroke-width="1"/><text x="72.0" y="368.0" font-size="11" text-anchor="end" font-family="sans-serif" fill="#374151">0</text><text x="1206.0" y="368.0" font-size="11" text-anchor="start" font-family="sans-serif" fill="#374151">0</text><line x1="80.0" y1="364.0" x2="1198.0" y2="364.0" stroke="#111827" stroke-width="1.2"/><line x1="80.0" y1="52.0" x2="80.0" y2="364.0" stroke="#111827" stroke-width="1.2"/><line x1="1198.0" y1="52.0" x2="1198.0" y2="364.0" stroke="#111827" stroke-width="1.2"/><rect x="81.0" y="346.1" width="19.1" height="17.9" fill="#93c5fd" stroke="#60a5fa" stroke-width="0.5"/><rect x="102.1" y="358.6" width="19.1" height="5.4" fill="#93c5fd" stroke="#60a5fa" stroke-width="0.5"/><rect x="123.2" y="52.0" width="19.1" height="312.0" fill="#93c5fd" stroke="#60a5fa" stroke-width="0.5"/><rect x="144.3" y="361.7" width="19.1" height="2.3" fill="#93c5fd" stroke="#60a5fa" stroke-width="0.5"/><rect x="165.4" y="361.2" width="19.1" height="2.8" fill="#93c5fd" stroke="#60a5fa" stroke-width="0.5"/><rect x="186.5" y="361.0" width="19.1" height="3.0" fill="#93c5fd" stroke="#60a5fa" stroke-width="0.5"/><rect x="207.6" y="362.6" width="19.1" height="1.4" fill="#93c5fd" stroke="#60a5fa" stroke-width="0.5"/><rect x="228.7" y="357.9" width="19.1" height="6.1" fill="#93c5fd" stroke="#60a5fa" stroke-width="0.5"/><rect x="249.8" y="360.4" width="19.1" height="3.6" fill="#93c5fd" stroke="#60a5fa" stroke-width="0.5"/><rect x="270.8" y="361.1" width="19.1" height="2.9" fill="#93c5fd" stroke="#60a5fa" stroke-width="0.5"/><rect x="291.9" y="360.7" width="19.1" height="3.3" fill="#93c5fd" stroke="#60a5fa" stroke-width="0.5"/><rect x="313.0" y="359.4" width="19.1" height="4.6" fill="#93c5fd" stroke="#60a5fa" stroke-width="0.5"/><rect x="334.1" y="359.7" width="19.1" height="4.3" fill="#93c5fd" stroke="#60a5fa" stroke-width="0.5"/><rect x="355.2" y="360.0" width="19.1" height="4.0" fill="#93c5fd" stroke="#60a5fa" stroke-width="0.5"/><rect x="376.3" y="358.9" width="19.1" height="5.1" fill="#93c5fd" stroke="#60a5fa" stroke-width="0.5"/><rect x="397.4" y="358.9" width="19.1" height="5.1" fill="#93c5fd" stroke="#60a5fa" stroke-width="0.5"/><rect x="418.5" y="359.7" width="19.1" height="4.3" fill="#93c5fd" stroke="#60a5fa" stroke-width="0.5"/><rect x="439.6" y="359.4" width="19.1" height="4.6" fill="#93c5fd" stroke="#60a5fa" stroke-width="0.5"/><rect x="460.7" y="359.3" width="19.1" height="4.7" fill="#93c5fd" stroke="#60a5fa" stroke-width="0.5"/><rect x="481.8" y="358.6" width="19.1" height="5.4" fill="#93c5fd" stroke="#60a5fa" stroke-width="0.5"/><rect x="502.9" y="358.7" width="19.1" height="5.3" fill="#93c5fd" stroke="#60a5fa" stroke-width="0.5"/><rect x="524.0" y="359.5" width="19.1" height="4.5" fill="#93c5fd" stroke="#60a5fa" stroke-width="0.5"/><rect x="545.1" y="358.2" width="19.1" height="5.8" fill="#93c5fd" stroke="#60a5fa" stroke-width="0.5"/><rect x="566.2" y="359.1" width="19.1" height="4.9" fill="#93c5fd" stroke="#60a5fa" stroke-width="0.5"/><rect x="587.3" y="359.1" width="19.1" height="4.9" fill="#93c5fd" stroke="#60a5fa" stroke-width="0.5"/><rect x="608.4" y="358.4" width="19.1" height="5.6" fill="#93c5fd" stroke="#60a5fa" stroke-width="0.5"/><rect x="629.5" y="358.0" width="19.1" height="6.0" fill="#93c5fd" stroke="#60a5fa" stroke-width="0.5"/><rect x="650.5" y="357.5" width="19.1" height="6.5" fill="#93c5fd" stroke="#60a5fa" stroke-width="0.5"/><rect x="671.6" y="359.8" width="19.1" height="4.2" fill="#93c5fd" stroke="#60a5fa" stroke-width="0.5"/><rect x="692.7" y="359.7" width="19.1" height="4.3" fill="#93c5fd" stroke="#60a5fa" stroke-width="0.5"/><rect x="713.8" y="358.9" width="19.1" height="5.1" fill="#93c5fd" stroke="#60a5fa" stroke-width="0.5"/><rect x="734.9" y="358.9" width="19.1" height="5.1" fill="#93c5fd" stroke="#60a5fa" stroke-width="0.5"/><rect x="756.0" y="359.5" width="19.1" height="4.5" fill="#93c5fd" stroke="#60a5fa" stroke-width="0.5"/><rect x="777.1" y="358.2" width="19.1" height="5.8" fill="#93c5fd" stroke="#60a5fa" stroke-width="0.5"/><rect x="798.2" y="358.4" width="19.1" height="5.6" fill="#93c5fd" stroke="#60a5fa" stroke-width="0.5"/><rect x="819.3" y="357.6" width="19.1" height="6.4" fill="#93c5fd" stroke="#60a5fa" stroke-width="0.5"/><rect x="840.4" y="357.8" width="19.1" height="6.2" fill="#93c5fd" stroke="#60a5fa" stroke-width="0.5"/><rect x="861.5" y="356.4" width="19.1" height="7.6" fill="#93c5fd" stroke="#60a5fa" stroke-width="0.5"/><rect x="882.6" y="359.3" width="19.1" height="4.7" fill="#93c5fd" stroke="#60a5fa" stroke-width="0.5"/><rect x="903.7" y="359.6" width="19.1" height="4.4" fill="#93c5fd" stroke="#60a5fa" stroke-width="0.5"/><rect x="924.8" y="357.1" width="19.1" height="6.9" fill="#93c5fd" stroke="#60a5fa" stroke-width="0.5"/><rect x="945.9" y="356.9" width="19.1" height="7.1" fill="#93c5fd" stroke="#60a5fa" stroke-width="0.5"/><rect x="967.0" y="358.8" width="19.1" height="5.2" fill="#93c5fd" stroke="#60a5fa" stroke-width="0.5"/><rect x="988.1" y="359.0" width="19.1" height="5.0" fill="#93c5fd" stroke="#60a5fa" stroke-width="0.5"/><rect x="1009.2" y="360.1" width="19.1" height="3.9" fill="#93c5fd" stroke="#60a5fa" stroke-width="0.5"/><rect x="1030.2" y="359.4" width="19.1" height="4.6" fill="#93c5fd" stroke="#60a5fa" stroke-width="0.5"/><rect x="1051.3" y="359.5" width="19.1" height="4.5" fill="#93c5fd" stroke="#60a5fa" stroke-width="0.5"/><rect x="1072.4" y="357.5" width="19.1" height="6.5" fill="#93c5fd" stroke="#60a5fa" stroke-width="0.5"/><rect x="1093.5" y="358.0" width="19.1" height="6.0" fill="#93c5fd" stroke="#60a5fa" stroke-width="0.5"/><rect x="1114.6" y="359.0" width="19.1" height="5.0" fill="#93c5fd" stroke="#60a5fa" stroke-width="0.5"/><rect x="1135.7" y="359.5" width="19.1" height="4.5" fill="#93c5fd" stroke="#60a5fa" stroke-width="0.5"/><rect x="1156.8" y="358.4" width="19.1" height="5.6" fill="#93c5fd" stroke="#60a5fa" stroke-width="0.5"/><rect x="1177.9" y="331.6" width="19.1" height="32.4" fill="#93c5fd" stroke="#60a5fa" stroke-width="0.5"/><polyline fill="none" stroke="#ef4444" stroke-width="2" points="90.5,354.8 111.6,352.0 132.7,191.8 153.8,190.6 174.9,189.1 196.0,187.6 217.1,186.9 238.2,183.8 259.3,181.9 280.4,180.4 301.5,178.8 322.6,176.4 343.7,174.2 364.8,172.2 385.9,169.6 407.0,166.9 428.1,164.7 449.2,162.4 470.2,159.9 491.3,157.2 512.4,154.5 533.5,152.2 554.6,149.2 575.7,146.7 596.8,144.1 617.9,141.3 639.0,138.2 660.1,134.8 681.2,132.7 702.3,130.4 723.4,127.8 744.5,125.2 765.6,122.9 786.7,119.9 807.8,117.0 828.8,113.7 849.9,110.5 871.0,106.6 892.1,104.2 913.2,101.9 934.3,98.4 955.4,94.7 976.5,92.1 997.6,89.5 1018.7,87.5 1039.8,85.1 1060.9,82.8 1082.0,79.5 1103.1,76.4 1124.2,73.8 1145.3,71.5 1166.4,68.7 1187.5,52.0"/><line x1="90.5" y1="364.0" x2="90.5" y2="370.0" stroke="#111827" stroke-width="1"/><text x="92.5" y="386.0" font-size="11" text-anchor="end" transform="rotate(-35 92.5 386.0)" font-family="sans-serif" fill="#374151">2026-02-28</text><line x1="238.2" y1="364.0" x2="238.2" y2="370.0" stroke="#111827" stroke-width="1"/><text x="240.2" y="386.0" font-size="11" text-anchor="end" transform="rotate(-35 240.2 386.0)" font-family="sans-serif" fill="#374151">2026-03-09</text><line x1="407.0" y1="364.0" x2="407.0" y2="370.0" stroke="#111827" stroke-width="1"/><text x="409.0" y="386.0" font-size="11" text-anchor="end" transform="rotate(-35 409.0 386.0)" font-family="sans-serif" fill="#374151">2026-03-17</text><line x1="554.6" y1="364.0" x2="554.6" y2="370.0" stroke="#111827" stroke-width="1"/><text x="556.6" y="386.0" font-size="11" text-anchor="end" transform="rotate(-35 556.6 386.0)" font-family="sans-serif" fill="#374151">2026-03-24</text><line x1="723.4" y1="364.0" x2="723.4" y2="370.0" stroke="#111827" stroke-width="1"/><text x="725.4" y="386.0" font-size="11" text-anchor="end" transform="rotate(-35 725.4 386.0)" font-family="sans-serif" fill="#374151">2026-04-01</text><line x1="871.0" y1="364.0" x2="871.0" y2="370.0" stroke="#111827" stroke-width="1"/><text x="873.0" y="386.0" font-size="11" text-anchor="end" transform="rotate(-35 873.0 386.0)" font-family="sans-serif" fill="#374151">2026-04-08</text><line x1="1039.8" y1="364.0" x2="1039.8" y2="370.0" stroke="#111827" stroke-width="1"/><text x="1041.8" y="386.0" font-size="11" text-anchor="end" transform="rotate(-35 1041.8 386.0)" font-family="sans-serif" fill="#374151">2026-04-16</text><line x1="1187.5" y1="364.0" x2="1187.5" y2="370.0" stroke="#111827" stroke-width="1"/><text x="1189.5" y="386.0" font-size="11" text-anchor="end" transform="rotate(-35 1189.5 386.0)" font-family="sans-serif" fill="#374151">2026-04-23</text><text x="26" y="208.0" font-size="12" transform="rotate(-90 26 208.0)" text-anchor="middle" font-family="sans-serif" fill="#1f2937">구간별 수</text><text x="1256.0" y="208.0" font-size="12" transform="rotate(90 1256.0 208.0)" text-anchor="middle" font-family="sans-serif" fill="#1f2937">누적</text><text x="639.0" y="442.0" font-size="13" text-anchor="middle" font-family="sans-serif" fill="#111827">일</text></svg>