<svg xmlns="http://www.w3.org/2000/svg" width="1280" height="460" viewBox="0 0 1280 460"><rect x="0" y="0" width="100%" height="100%" fill="#ffffff"/><text x="640.0" y="28" font-size="20" text-anchor="middle" font-family="sans-serif" fill="#111827">마켓 / 최근 반영 시점 / 일별</text><line x1="80.0" y1="52.0" x2="1198.0" y2="52.0" stroke="#e5e7eb" stroke-width="1"/><text x="72.0" y="56.0" font-size="11" text-anchor="end" font-family="sans-serif" fill="#374151">493,407</text><text x="1206.0" y="56.0" font-size="11" text-anchor="start" font-family="sans-serif" fill="#374151">982,728</text><line x1="80.0" y1="114.4" x2="1198.0" y2="114.4" stroke="#e5e7eb" stroke-width="1"/><text x="72.0" y="118.4" font-size="11" text-anchor="end" font-family="sans-serif" fill="#374151">394,726</text><text x="1206.0" y="118.4" font-size="11" text-anchor="start" font-family="sans-serif" fill="#374151">786,182</text><line x1="80.0" y1="176.8" x2="1198.0" y2="176.8" stroke="#e5e7eb" stroke-width="1"/><text x="72.0" y="180.8" font-size="11" text-anchor="end" font-family="sans-serif" fill="#374151">296,044</text><text x="1206.0" y="180.8" font-size="11" text-anchor="start" font-family="sans-serif" fill="#374151">589,637</text><line x1="80.0" y1="239.2" x2="1198.0" y2="239.2" stroke="#e5e7eb" stroke-width="1"/><text x="72.0" y="243.2" font-size="11" text-anchor="end" font-family="sans-serif" fill="#374151">197,363</text><text x="1206.0" y="243.2" font-size="11" text-anchor="start" font-family="sans-serif" fill="#374151">393,091</text><line x1="80.0" y1="301.6" x2="1198.0" y2="301.6" stroke="#e5e7eb" stroke-width="1"/><text x="72.0" y="305.6" font-size="11" text-anchor="end" font-family="sans-serif" fill="#374151">98,681</text><text x="1206.0" y="305.6" font-size="11" text-anchor="start" font-family="sans-serif" fill="#374151">196,546</text><line x1="80.0" y1="364.0" x2="1198.0" y2="364.0" stroke="#e5e7eb" stroke-width="1"/><text x="72.0" y="368.0" font-size="11" text-anchor="end" font-family="sans-serif" fill="#374151">0</text><text x="1206.0" y="368.0" font-size="11" text-anchor="start" font-family="sans-serif" fill="#374151">0</text><line x1="80.0" y1="364.0" x2="1198.0" y2="364.0" stroke="#111827" stroke-width="1.2"/><line x1="80.0" y1="52.0" x2="80.0" y2="364.0" stroke="#111827" stroke-width="1.2"/><line x1="1198.0" y1="52.0" x2="1198.0" y2="364.0" stroke="#111827" stroke-width="1.2"/><rect x="81.0" y="346.1" width="18.0" height="17.9" fill="#93c5fd" stroke="#60a5fa" stroke-width="0.5"/><rect x="101.0" y="358.6" width="18.0" height="5.4" fill="#93c5fd" stroke="#60a5fa" stroke-width="0.5"/><rect x="120.9" y="52.0" width="18.0" height="312.0" fill="#93c5fd" stroke="#60a5fa" stroke-width="0.5"/><rect x="140.9" y="361.7" width="18.0" height="2.3" fill="#93c5fd" stroke="#60a5fa" stroke-width="0.5"/><rect x="160.9" y="361.2" width="18.0" height="2.8" fill="#93c5fd" stroke="#60a5fa" stroke-width="0.5"/><rect x="180.8" y="361.0" width="18.0" height="3.0" fill="#93c5fd" stroke="#60a5fa" stroke-width="0.5"/><rect x="200.8" y="362.6" width="18.0" height="1.4" fill="#93c5fd" stroke="#60a5fa" stroke-width="0.5"/><rect x="220.8" y="357.9" width="18.0" height="6.1" fill="#93c5fd" stroke="#60a5fa" stroke-width="0.5"/><rect x="240.7" y="360.4" width="18.0" height="3.6" fill="#93c5fd" stroke="#60a5fa" stroke-width="0.5"/><rect x="260.7" y="361.1" width="18.0" height="2.9" fill="#93c5fd" stroke="#60a5fa" stroke-width="0.5"/><rect x="280.6" y="360.7" width="18.0" height="3.3" fill="#93c5fd" stroke="#60a5fa" stroke-width="0.5"/><rect x="300.6" y="359.4" width="18.0" height="4.6" fill="#93c5fd" stroke="#60a5fa" stroke-width="0.5"/><rect x="320.6" y="359.7" width="18.0" height="4.3" fill="#93c5fd" stroke="#60a5fa" stroke-width="0.5"/><rect x="340.5" y="360.0" width="18.0" height="4.0" fill="#93c5fd" stroke="#60a5fa" stroke-width="0.5"/><rect x="360.5" y="358.9" width="18.0" height="5.1" fill="#93c5fd" stroke="#60a5fa" stroke-width="0.5"/><rect x="380.5" y="358.9" width="18.0" height="5.1" fill="#93c5fd" stroke="#60a5fa" stroke-width="0.5"/><rect x="400.4" y="359.7" width="18.0" height="4.3" fill="#93c5fd" stroke="#60a5fa" stroke-width="0.5"/><rect x="420.4" y="359.4" width="18.0" height="4.6" fill="#93c5fd" stroke="#60a5fa" stroke-width="0.5"/><rect x="440.4" y="359.3" width="18.0" height="4.7" fill="#93c5fd" stroke="#60a5fa" stroke-width="0.5"/><rect x="460.3" y="358.6" width="18.0" height="5.4" fill="#93c5fd" stroke="#60a5fa" stroke-width="0.5"/><rect x="480.3" y="358.7" width="18.0" height="5.3" fill="#93c5fd" stroke="#60a5fa" stroke-width="0.5"/><rect x="500.2" y="359.5" width="18.0" height="4.5" fill="#93c5fd" stroke="#60a5fa" stroke-width="0.5"/><rect x="520.2" y="358.2" width="18.0" height="5.8" fill="#93c5fd" stroke="#60a5fa" stroke-width="0.5"/><rect x="540.2" y="359.1" width="18.0" height="4.9" fill="#93c5fd" stroke="#60a5fa" stroke-width="0.5"/><rect x="560.1" y="359.1" width="18.0" height="4.9" fill="#93c5fd" stroke="#60a5fa" stroke-width="0.5"/><rect x="580.1" y="358.4" width="18.0" height="5.6" fill="#93c5fd" stroke="#60a5fa" stroke-width="0.5"/><rect x="600.1" y="358.0" width="18.0" height="6.0" fill="#93c5fd" stroke="#60a5fa" stroke-width="0.5"/><rect x="620.0" y="357.5" width="18.0" height="6.5" fill="#93c5fd" stroke="#60a5fa" stroke-width="0.5"/><rect x="640.0" y="359.8" width="18.0" height="4.2" fill="#93c5fd" stroke="#60a5fa" stroke-width="0.5"/><rect x="660.0" y="359.7" width="18.0" height="4.3" fill="#93c5fd" stroke="#60a5fa" stroke-width="0.5"/><rect x="679.9" y="358.9" width="18.0" height="5.1" fill="#93c5fd" stroke="#60a5fa" stroke-width="0.5"/><rect x="699.9" y="358.9" width="18.0" height="5.1" fill="#93c5fd" stroke="#60a5fa" stroke-width="0.5"/><rect x="719.9" y="359.5" width="18.0" height="4.5" fill="#93c5fd" stroke="#60a5fa" stroke-width="0.5"/><rect x="739.8" y="358.2" width="18.0" height="5.8" fill="#93c5fd" stroke="#60a5fa" stroke-width="0.5"/><rect x="759.8" y="358.4" width="18.0" height="5.6" fill="#93c5fd" stroke="#60a5fa" stroke-width="0.5"/><rect x="779.8" y="357.6" width="18.0" height="6.4" fill="#93c5fd" stroke="#60a5fa" stroke-width="0.5"/><rect x="799.7" y="357.8" width="18.0" height="6.2" fill="#93c5fd" stroke="#60a5fa" stroke-width="0.5"/><rect x="819.7" y="356.4" width="18.0" height="7.6" fill="#93c5fd" stroke="#60a5fa" stroke-width="0.5"/><rect x="839.6" y="359.3" width="18.0" height="4.7" fill="#93c5fd" stroke="#60a5fa" stroke-width="0.5"/><rect x="859.6" y="359.6" width="18.0" height="4.4" fill="#93c5fd" stroke="#60a5fa" stroke-width="0.5"/><rect x="879.6" y="357.1" width="18.0" height="6.9" fill="#93c5fd" stroke="#60a5fa" stroke-width="0.5"/><rect x="899.5" y="356.9" width="18.0" height="7.1" fill="#93c5fd" stroke="#60a5fa" stroke-width="0.5"/><rect x="919.5" y="358.8" width="18.0" height="5.2" fill="#93c5fd" stroke="#60a5fa" stroke-width="0.5"/><rect x="939.5" y="359.0" width="18.0" height="5.0" fill="#93c5fd" stroke="#60a5fa" stroke-width="0.5"/><rect x="959.4" y="360.1" width="18.0" height="3.9" fill="#93c5fd" stroke="#60a5fa" stroke-width="0.5"/><rect x="979.4" y="359.4" width="18.0" height="4.6" fill="#93c5fd" stroke="#60a5fa" stroke-width="0.5"/><rect x="999.4" y="359.5" width="18.0" height="4.5" fill="#93c5fd" stroke="#60a5fa" stroke-width="0.5"/><rect x="1019.3" y="357.5" width="18.0" height="6.5" fill="#93c5fd" stroke="#60a5fa" stroke-width="0.5"/><rect x="1039.3" y="358.0" width="18.0" height="6.0" fill="#93c5fd" stroke="#60a5fa" stroke-width="0.5"/><rect x="1059.2" y="359.0" width="18.0" height="5.0" fill="#93c5fd" stroke="#60a5fa" stroke-width="0.5"/><rect x="1079.2" y="359.5" width="18.0" height="4.5" fill="#93c5fd" stroke="#60a5fa" stroke-width="0.5"/><rect x="1099.2" y="358.7" width="18.0" height="5.3" fill="#93c5fd" stroke="#60a5fa" stroke-width="0.5"/><rect x="1119.1" y="358.8" width="18.0" height="5.2" fill="#93c5fd" stroke="#60a5fa" stroke-width="0.5"/><rect x="1139.1" y="358.7" width="18.0" height="5.3" fill="#93c5fd" stroke="#60a5fa" stroke-width="0.5"/><rect x="1159.1" y="355.3" width="18.0" height="8.7" fill="#93c5fd" stroke="#60a5fa" stroke-width="0.5"/><rect x="1179.0" y="336.5" width="18.0" height="27.5" fill="#93c5fd" stroke="#60a5fa" stroke-width="0.5"/><polyline fill="none" stroke="#ef4444" stroke-width="2" points="90.0,355.0 109.9,352.3 129.9,195.7 149.9,194.5 169.8,193.1 189.8,191.6 209.8,190.9 229.7,187.8 249.7,186.0 269.7,184.6 289.6,182.9 309.6,180.6 329.6,178.5 349.5,176.5 369.5,173.9 389.4,171.4 409.4,169.2 429.4,166.9 449.3,164.5 469.3,161.8 489.3,159.2 509.2,156.9 529.2,154.0 549.2,151.5 569.1,149.1 589.1,146.3 609.1,143.3 629.0,140.0 649.0,137.9 668.9,135.7 688.9,133.1 708.9,130.6 728.8,128.3 748.8,125.4 768.8,122.6 788.7,119.3 808.7,116.2 828.7,112.4 848.6,110.0 868.6,107.8 888.6,104.3 908.5,100.8 928.5,98.2 948.4,95.7 968.4,93.7 988.4,91.4 1008.3,89.2 1028.3,85.9 1048.3,82.9 1068.2,80.4 1088.2,78.1 1108.2,75.4 1128.1,72.8 1148.1,70.2 1168.1,65.8 1188.0,52.0"/><line x1="90.0" y1="364.0" x2="90.0" y2="370.0" stroke="#111827" stroke-width="1"/><text x="92.0" y="386.0" font-size="11" text-anchor="end" transform="rotate(-35 92.0 386.0)" font-family="sans-serif" fill="#374151">2026-02-28</text><line x1="249.7" y1="364.0" x2="249.7" y2="370.0" stroke="#111827" stroke-width="1"/><text x="251.7" y="386.0" font-size="11" text-anchor="end" transform="rotate(-35 251.7 386.0)" font-family="sans-serif" fill="#374151">2026-03-10</text><line x1="409.4" y1="364.0" x2="409.4" y2="370.0" stroke="#111827" stroke-width="1"/><text x="411.4" y="386.0" font-size="11" text-anchor="end" transform="rotate(-35 411.4 386.0)" font-family="sans-serif" fill="#374151">2026-03-18</text><line x1="569.1" y1="364.0" x2="569.1" y2="370.0" stroke="#111827" stroke-width="1"/><text x="571.1" y="386.0" font-size="11" text-anchor="end" transform="rotate(-35 571.1 386.0)" font-family="sans-serif" fill="#374151">2026-03-26</text><line x1="708.9" y1="364.0" x2="708.9" y2="370.0" stroke="#111827" stroke-width="1"/><text x="710.9" y="386.0" font-size="11" text-anchor="end" transform="rotate(-35 710.9 386.0)" font-family="sans-serif" fill="#374151">2026-04-02</text><line x1="868.6" y1="364.0" x2="868.6" y2="370.0" stroke="#111827" stroke-width="1"/><text x="870.6" y="386.0" font-size="11" text-anchor="end" transform="rotate(-35 870.6 386.0)" font-family="sans-serif" fill="#374151">2026-04-10</text><line x1="1028.3" y1="364.0" x2="1028.3" y2="370.0" stroke="#111827" stroke-width="1"/><text x="1030.3" y="386.0" font-size="11" text-anchor="end" transform="rotate(-35 1030.3 386.0)" font-family="sans-serif" fill="#374151">2026-04-18</text><line x1="1188.0" y1="364.0" x2="1188.0" y2="370.0" stroke="#111827" stroke-width="1"/><text x="1190.0" y="386.0" font-size="11" text-anchor="end" transform="rotate(-35 1190.0 386.0)" font-family="sans-serif" fill="#374151">2026-04-26</text><text x="26" y="208.0" font-size="12" transform="rotate(-90 26 208.0)" text-anchor="middle" font-family="sans-serif" fill="#1f2937">구간별 수</text><text x="1256.0" y="208.0" font-size="12" transform="rotate(90 1256.0 208.0)" text-anchor="middle" font-family="sans-serif" fill="#1f2937">누적</text><text x="639.0" y="442.0" font-size="13" text-anchor="middle" font-family="sans-serif" fill="#111827">일</text></svg>