<svg xmlns="http://www.w3.org/2000/svg" width="1280" height="460" viewBox="0 0 1280 460"><rect x="0" y="0" width="100%" height="100%" fill="#ffffff"/><text x="640.0" y="28" font-size="20" text-anchor="middle" font-family="sans-serif" fill="#111827">마켓 / 최근 반영 시점 / 일별</text><line x1="80.0" y1="52.0" x2="1198.0" y2="52.0" stroke="#e5e7eb" stroke-width="1"/><text x="72.0" y="56.0" font-size="11" text-anchor="end" font-family="sans-serif" fill="#374151">493,371</text><text x="1206.0" y="56.0" font-size="11" text-anchor="start" font-family="sans-serif" fill="#374151">1,025,438</text><line x1="80.0" y1="114.4" x2="1198.0" y2="114.4" stroke="#e5e7eb" stroke-width="1"/><text x="72.0" y="118.4" font-size="11" text-anchor="end" font-family="sans-serif" fill="#374151">394,697</text><text x="1206.0" y="118.4" font-size="11" text-anchor="start" font-family="sans-serif" fill="#374151">820,350</text><line x1="80.0" y1="176.8" x2="1198.0" y2="176.8" stroke="#e5e7eb" stroke-width="1"/><text x="72.0" y="180.8" font-size="11" text-anchor="end" font-family="sans-serif" fill="#374151">296,023</text><text x="1206.0" y="180.8" font-size="11" text-anchor="start" font-family="sans-serif" fill="#374151">615,263</text><line x1="80.0" y1="239.2" x2="1198.0" y2="239.2" stroke="#e5e7eb" stroke-width="1"/><text x="72.0" y="243.2" font-size="11" text-anchor="end" font-family="sans-serif" fill="#374151">197,348</text><text x="1206.0" y="243.2" font-size="11" text-anchor="start" font-family="sans-serif" fill="#374151">410,175</text><line x1="80.0" y1="301.6" x2="1198.0" y2="301.6" stroke="#e5e7eb" stroke-width="1"/><text x="72.0" y="305.6" font-size="11" text-anchor="end" font-family="sans-serif" fill="#374151">98,674</text><text x="1206.0" y="305.6" font-size="11" text-anchor="start" font-family="sans-serif" fill="#374151">205,088</text><line x1="80.0" y1="364.0" x2="1198.0" y2="364.0" stroke="#e5e7eb" stroke-width="1"/><text x="72.0" y="368.0" font-size="11" text-anchor="end" font-family="sans-serif" fill="#374151">0</text><text x="1206.0" y="368.0" font-size="11" text-anchor="start" font-family="sans-serif" fill="#374151">0</text><line x1="80.0" y1="364.0" x2="1198.0" y2="364.0" stroke="#111827" stroke-width="1.2"/><line x1="80.0" y1="52.0" x2="80.0" y2="364.0" stroke="#111827" stroke-width="1.2"/><line x1="1198.0" y1="52.0" x2="1198.0" y2="364.0" stroke="#111827" stroke-width="1.2"/><rect x="81.0" y="346.1" width="16.3" height="17.9" fill="#93c5fd" stroke="#60a5fa" stroke-width="0.5"/><rect x="99.3" y="358.6" width="16.3" height="5.4" fill="#93c5fd" stroke="#60a5fa" stroke-width="0.5"/><rect x="117.7" y="52.0" width="16.3" height="312.0" fill="#93c5fd" stroke="#60a5fa" stroke-width="0.5"/><rect x="136.0" y="361.7" width="16.3" height="2.3" fill="#93c5fd" stroke="#60a5fa" stroke-width="0.5"/><rect x="154.3" y="361.2" width="16.3" height="2.8" fill="#93c5fd" stroke="#60a5fa" stroke-width="0.5"/><rect x="172.6" y="361.0" width="16.3" height="3.0" fill="#93c5fd" stroke="#60a5fa" stroke-width="0.5"/><rect x="191.0" y="362.6" width="16.3" height="1.4" fill="#93c5fd" stroke="#60a5fa" stroke-width="0.5"/><rect x="209.3" y="357.9" width="16.3" height="6.1" fill="#93c5fd" stroke="#60a5fa" stroke-width="0.5"/><rect x="227.6" y="360.4" width="16.3" height="3.6" fill="#93c5fd" stroke="#60a5fa" stroke-width="0.5"/><rect x="246.0" y="361.1" width="16.3" height="2.9" fill="#93c5fd" stroke="#60a5fa" stroke-width="0.5"/><rect x="264.3" y="360.7" width="16.3" height="3.3" fill="#93c5fd" stroke="#60a5fa" stroke-width="0.5"/><rect x="282.6" y="359.4" width="16.3" height="4.6" fill="#93c5fd" stroke="#60a5fa" stroke-width="0.5"/><rect x="300.9" y="359.7" width="16.3" height="4.3" fill="#93c5fd" stroke="#60a5fa" stroke-width="0.5"/><rect x="319.3" y="360.0" width="16.3" height="4.0" fill="#93c5fd" stroke="#60a5fa" stroke-width="0.5"/><rect x="337.6" y="358.9" width="16.3" height="5.1" fill="#93c5fd" stroke="#60a5fa" stroke-width="0.5"/><rect x="355.9" y="358.9" width="16.3" height="5.1" fill="#93c5fd" stroke="#60a5fa" stroke-width="0.5"/><rect x="374.2" y="359.7" width="16.3" height="4.3" fill="#93c5fd" stroke="#60a5fa" stroke-width="0.5"/><rect x="392.6" y="359.4" width="16.3" height="4.6" fill="#93c5fd" stroke="#60a5fa" stroke-width="0.5"/><rect x="410.9" y="359.3" width="16.3" height="4.7" fill="#93c5fd" stroke="#60a5fa" stroke-width="0.5"/><rect x="429.2" y="358.6" width="16.3" height="5.4" fill="#93c5fd" stroke="#60a5fa" stroke-width="0.5"/><rect x="447.6" y="358.7" width="16.3" height="5.3" fill="#93c5fd" stroke="#60a5fa" stroke-width="0.5"/><rect x="465.9" y="359.5" width="16.3" height="4.5" fill="#93c5fd" stroke="#60a5fa" stroke-width="0.5"/><rect x="484.2" y="358.2" width="16.3" height="5.8" fill="#93c5fd" stroke="#60a5fa" stroke-width="0.5"/><rect x="502.5" y="359.1" width="16.3" height="4.9" fill="#93c5fd" stroke="#60a5fa" stroke-width="0.5"/><rect x="520.9" y="359.1" width="16.3" height="4.9" fill="#93c5fd" stroke="#60a5fa" stroke-width="0.5"/><rect x="539.2" y="358.4" width="16.3" height="5.6" fill="#93c5fd" stroke="#60a5fa" stroke-width="0.5"/><rect x="557.5" y="358.0" width="16.3" height="6.0" fill="#93c5fd" stroke="#60a5fa" stroke-width="0.5"/><rect x="575.9" y="357.5" width="16.3" height="6.5" fill="#93c5fd" stroke="#60a5fa" stroke-width="0.5"/><rect x="594.2" y="359.8" width="16.3" height="4.2" fill="#93c5fd" stroke="#60a5fa" stroke-width="0.5"/><rect x="612.5" y="359.7" width="16.3" height="4.3" fill="#93c5fd" stroke="#60a5fa" stroke-width="0.5"/><rect x="630.8" y="358.9" width="16.3" height="5.1" fill="#93c5fd" stroke="#60a5fa" stroke-width="0.5"/><rect x="649.2" y="358.9" width="16.3" height="5.1" fill="#93c5fd" stroke="#60a5fa" stroke-width="0.5"/><rect x="667.5" y="359.5" width="16.3" height="4.5" fill="#93c5fd" stroke="#60a5fa" stroke-width="0.5"/><rect x="685.8" y="358.2" width="16.3" height="5.8" fill="#93c5fd" stroke="#60a5fa" stroke-width="0.5"/><rect x="704.1" y="358.3" width="16.3" height="5.7" fill="#93c5fd" stroke="#60a5fa" stroke-width="0.5"/><rect x="722.5" y="357.6" width="16.3" height="6.4" fill="#93c5fd" stroke="#60a5fa" stroke-width="0.5"/><rect x="740.8" y="357.8" width="16.3" height="6.2" fill="#93c5fd" stroke="#60a5fa" stroke-width="0.5"/><rect x="759.1" y="356.4" width="16.3" height="7.6" fill="#93c5fd" stroke="#60a5fa" stroke-width="0.5"/><rect x="777.5" y="359.3" width="16.3" height="4.7" fill="#93c5fd" stroke="#60a5fa" stroke-width="0.5"/><rect x="795.8" y="359.6" width="16.3" height="4.4" fill="#93c5fd" stroke="#60a5fa" stroke-width="0.5"/><rect x="814.1" y="357.1" width="16.3" height="6.9" fill="#93c5fd" stroke="#60a5fa" stroke-width="0.5"/><rect x="832.4" y="356.9" width="16.3" height="7.1" fill="#93c5fd" stroke="#60a5fa" stroke-width="0.5"/><rect x="850.8" y="358.8" width="16.3" height="5.2" fill="#93c5fd" stroke="#60a5fa" stroke-width="0.5"/><rect x="869.1" y="359.0" width="16.3" height="5.0" fill="#93c5fd" stroke="#60a5fa" stroke-width="0.5"/><rect x="887.4" y="360.1" width="16.3" height="3.9" fill="#93c5fd" stroke="#60a5fa" stroke-width="0.5"/><rect x="905.8" y="359.4" width="16.3" height="4.6" fill="#93c5fd" stroke="#60a5fa" stroke-width="0.5"/><rect x="924.1" y="359.5" width="16.3" height="4.5" fill="#93c5fd" stroke="#60a5fa" stroke-width="0.5"/><rect x="942.4" y="357.5" width="16.3" height="6.5" fill="#93c5fd" stroke="#60a5fa" stroke-width="0.5"/><rect x="960.7" y="358.0" width="16.3" height="6.0" fill="#93c5fd" stroke="#60a5fa" stroke-width="0.5"/><rect x="979.1" y="359.0" width="16.3" height="5.0" fill="#93c5fd" stroke="#60a5fa" stroke-width="0.5"/><rect x="997.4" y="359.5" width="16.3" height="4.5" fill="#93c5fd" stroke="#60a5fa" stroke-width="0.5"/><rect x="1015.7" y="358.7" width="16.3" height="5.3" fill="#93c5fd" stroke="#60a5fa" stroke-width="0.5"/><rect x="1034.0" y="358.8" width="16.3" height="5.2" fill="#93c5fd" stroke="#60a5fa" stroke-width="0.5"/><rect x="1052.4" y="358.7" width="16.3" height="5.3" fill="#93c5fd" stroke="#60a5fa" stroke-width="0.5"/><rect x="1070.7" y="357.0" width="16.3" height="7.0" fill="#93c5fd" stroke="#60a5fa" stroke-width="0.5"/><rect x="1089.0" y="357.3" width="16.3" height="6.7" fill="#93c5fd" stroke="#60a5fa" stroke-width="0.5"/><rect x="1107.4" y="360.1" width="16.3" height="3.9" fill="#93c5fd" stroke="#60a5fa" stroke-width="0.5"/><rect x="1125.7" y="359.3" width="16.3" height="4.7" fill="#93c5fd" stroke="#60a5fa" stroke-width="0.5"/><rect x="1144.0" y="359.5" width="16.3" height="4.5" fill="#93c5fd" stroke="#60a5fa" stroke-width="0.5"/><rect x="1162.3" y="356.1" width="16.3" height="7.9" fill="#93c5fd" stroke="#60a5fa" stroke-width="0.5"/><rect x="1180.7" y="335.5" width="16.3" height="28.5" fill="#93c5fd" stroke="#60a5fa" stroke-width="0.5"/><polyline fill="none" stroke="#ef4444" stroke-width="2" points="89.2,355.4 107.5,352.8 125.8,202.7 144.1,201.6 162.5,200.2 180.8,198.8 199.1,198.1 217.5,195.2 235.8,193.5 254.1,192.1 272.4,190.5 290.8,188.3 309.1,186.2 327.4,184.3 345.8,181.9 364.1,179.4 382.4,177.3 400.7,175.1 419.1,172.9 437.4,170.3 455.7,167.7 474.0,165.6 492.4,162.8 510.7,160.4 529.0,158.0 547.4,155.4 565.7,152.5 584.0,149.3 602.3,147.3 620.7,145.2 639.0,142.8 657.3,140.3 675.7,138.1 694.0,135.3 712.3,132.6 730.6,129.5 749.0,126.5 767.3,122.9 785.6,120.6 804.0,118.5 822.3,115.2 840.6,111.8 858.9,109.3 877.3,106.9 895.6,105.0 913.9,102.8 932.2,100.6 950.6,97.5 968.9,94.6 987.2,92.2 1005.6,90.0 1023.9,87.5 1042.2,85.0 1060.5,82.5 1078.9,79.1 1097.2,75.8 1115.5,74.0 1133.9,71.7 1152.2,69.5 1170.5,65.7 1188.8,52.0"/><line x1="89.2" y1="364.0" x2="89.2" y2="370.0" stroke="#111827" stroke-width="1"/><text x="91.2" y="386.0" font-size="11" text-anchor="end" transform="rotate(-35 91.2 386.0)" font-family="sans-serif" fill="#374151">2026-02-28</text><line x1="254.1" y1="364.0" x2="254.1" y2="370.0" stroke="#111827" stroke-width="1"/><text x="256.1" y="386.0" font-size="11" text-anchor="end" transform="rotate(-35 256.1 386.0)" font-family="sans-serif" fill="#374151">2026-03-11</text><line x1="400.7" y1="364.0" x2="400.7" y2="370.0" stroke="#111827" stroke-width="1"/><text x="402.7" y="386.0" font-size="11" text-anchor="end" transform="rotate(-35 402.7 386.0)" font-family="sans-serif" fill="#374151">2026-03-19</text><line x1="565.7" y1="364.0" x2="565.7" y2="370.0" stroke="#111827" stroke-width="1"/><text x="567.7" y="386.0" font-size="11" text-anchor="end" transform="rotate(-35 567.7 386.0)" font-family="sans-serif" fill="#374151">2026-03-28</text><line x1="712.3" y1="364.0" x2="712.3" y2="370.0" stroke="#111827" stroke-width="1"/><text x="714.3" y="386.0" font-size="11" text-anchor="end" transform="rotate(-35 714.3 386.0)" font-family="sans-serif" fill="#374151">2026-04-05</text><line x1="877.3" y1="364.0" x2="877.3" y2="370.0" stroke="#111827" stroke-width="1"/><text x="879.3" y="386.0" font-size="11" text-anchor="end" transform="rotate(-35 879.3 386.0)" font-family="sans-serif" fill="#374151">2026-04-14</text><line x1="1023.9" y1="364.0" x2="1023.9" y2="370.0" stroke="#111827" stroke-width="1"/><text x="1025.9" y="386.0" font-size="11" text-anchor="end" transform="rotate(-35 1025.9 386.0)" font-family="sans-serif" fill="#374151">2026-04-22</text><line x1="1188.8" y1="364.0" x2="1188.8" y2="370.0" stroke="#111827" stroke-width="1"/><text x="1190.8" y="386.0" font-size="11" text-anchor="end" transform="rotate(-35 1190.8 386.0)" font-family="sans-serif" fill="#374151">2026-05-01</text><text x="26" y="208.0" font-size="12" transform="rotate(-90 26 208.0)" text-anchor="middle" font-family="sans-serif" fill="#1f2937">구간별 수</text><text x="1256.0" y="208.0" font-size="12" transform="rotate(90 1256.0 208.0)" text-anchor="middle" font-family="sans-serif" fill="#1f2937">누적</text><text x="639.0" y="442.0" font-size="13" text-anchor="middle" font-family="sans-serif" fill="#111827">일</text></svg>