<svg xmlns="http://www.w3.org/2000/svg" width="1280" height="460" viewBox="0 0 1280 460"><rect x="0" y="0" width="100%" height="100%" fill="#ffffff"/><text x="640.0" y="28" font-size="20" text-anchor="middle" font-family="sans-serif" fill="#111827">마켓 / 최근 반영 시점 / 일별</text><line x1="80.0" y1="52.0" x2="1198.0" y2="52.0" stroke="#e5e7eb" stroke-width="1"/><text x="72.0" y="56.0" font-size="11" text-anchor="end" font-family="sans-serif" fill="#374151">493,407</text><text x="1206.0" y="56.0" font-size="11" text-anchor="start" font-family="sans-serif" fill="#374151">998,917</text><line x1="80.0" y1="114.4" x2="1198.0" y2="114.4" stroke="#e5e7eb" stroke-width="1"/><text x="72.0" y="118.4" font-size="11" text-anchor="end" font-family="sans-serif" fill="#374151">394,726</text><text x="1206.0" y="118.4" font-size="11" text-anchor="start" font-family="sans-serif" fill="#374151">799,134</text><line x1="80.0" y1="176.8" x2="1198.0" y2="176.8" stroke="#e5e7eb" stroke-width="1"/><text x="72.0" y="180.8" font-size="11" text-anchor="end" font-family="sans-serif" fill="#374151">296,044</text><text x="1206.0" y="180.8" font-size="11" text-anchor="start" font-family="sans-serif" fill="#374151">599,350</text><line x1="80.0" y1="239.2" x2="1198.0" y2="239.2" stroke="#e5e7eb" stroke-width="1"/><text x="72.0" y="243.2" font-size="11" text-anchor="end" font-family="sans-serif" fill="#374151">197,363</text><text x="1206.0" y="243.2" font-size="11" text-anchor="start" font-family="sans-serif" fill="#374151">399,567</text><line x1="80.0" y1="301.6" x2="1198.0" y2="301.6" stroke="#e5e7eb" stroke-width="1"/><text x="72.0" y="305.6" font-size="11" text-anchor="end" font-family="sans-serif" fill="#374151">98,681</text><text x="1206.0" y="305.6" font-size="11" text-anchor="start" font-family="sans-serif" fill="#374151">199,783</text><line x1="80.0" y1="364.0" x2="1198.0" y2="364.0" stroke="#e5e7eb" stroke-width="1"/><text x="72.0" y="368.0" font-size="11" text-anchor="end" font-family="sans-serif" fill="#374151">0</text><text x="1206.0" y="368.0" font-size="11" text-anchor="start" font-family="sans-serif" fill="#374151">0</text><line x1="80.0" y1="364.0" x2="1198.0" y2="364.0" stroke="#111827" stroke-width="1.2"/><line x1="80.0" y1="52.0" x2="80.0" y2="364.0" stroke="#111827" stroke-width="1.2"/><line x1="1198.0" y1="52.0" x2="1198.0" y2="364.0" stroke="#111827" stroke-width="1.2"/><rect x="81.0" y="346.1" width="17.6" height="17.9" fill="#93c5fd" stroke="#60a5fa" stroke-width="0.5"/><rect x="100.6" y="358.6" width="17.6" height="5.4" fill="#93c5fd" stroke="#60a5fa" stroke-width="0.5"/><rect x="120.2" y="52.0" width="17.6" height="312.0" fill="#93c5fd" stroke="#60a5fa" stroke-width="0.5"/><rect x="139.8" y="361.7" width="17.6" height="2.3" fill="#93c5fd" stroke="#60a5fa" stroke-width="0.5"/><rect x="159.5" y="361.2" width="17.6" height="2.8" fill="#93c5fd" stroke="#60a5fa" stroke-width="0.5"/><rect x="179.1" y="361.0" width="17.6" height="3.0" fill="#93c5fd" stroke="#60a5fa" stroke-width="0.5"/><rect x="198.7" y="362.6" width="17.6" height="1.4" fill="#93c5fd" stroke="#60a5fa" stroke-width="0.5"/><rect x="218.3" y="357.9" width="17.6" height="6.1" fill="#93c5fd" stroke="#60a5fa" stroke-width="0.5"/><rect x="237.9" y="360.4" width="17.6" height="3.6" fill="#93c5fd" stroke="#60a5fa" stroke-width="0.5"/><rect x="257.5" y="361.1" width="17.6" height="2.9" fill="#93c5fd" stroke="#60a5fa" stroke-width="0.5"/><rect x="277.1" y="360.7" width="17.6" height="3.3" fill="#93c5fd" stroke="#60a5fa" stroke-width="0.5"/><rect x="296.8" y="359.4" width="17.6" height="4.6" fill="#93c5fd" stroke="#60a5fa" stroke-width="0.5"/><rect x="316.4" y="359.7" width="17.6" height="4.3" fill="#93c5fd" stroke="#60a5fa" stroke-width="0.5"/><rect x="336.0" y="360.0" width="17.6" height="4.0" fill="#93c5fd" stroke="#60a5fa" stroke-width="0.5"/><rect x="355.6" y="358.9" width="17.6" height="5.1" fill="#93c5fd" stroke="#60a5fa" stroke-width="0.5"/><rect x="375.2" y="358.9" width="17.6" height="5.1" fill="#93c5fd" stroke="#60a5fa" stroke-width="0.5"/><rect x="394.8" y="359.7" width="17.6" height="4.3" fill="#93c5fd" stroke="#60a5fa" stroke-width="0.5"/><rect x="414.4" y="359.4" width="17.6" height="4.6" fill="#93c5fd" stroke="#60a5fa" stroke-width="0.5"/><rect x="434.1" y="359.3" width="17.6" height="4.7" fill="#93c5fd" stroke="#60a5fa" stroke-width="0.5"/><rect x="453.7" y="358.6" width="17.6" height="5.4" fill="#93c5fd" stroke="#60a5fa" stroke-width="0.5"/><rect x="473.3" y="358.7" width="17.6" height="5.3" fill="#93c5fd" stroke="#60a5fa" stroke-width="0.5"/><rect x="492.9" y="359.5" width="17.6" height="4.5" fill="#93c5fd" stroke="#60a5fa" stroke-width="0.5"/><rect x="512.5" y="358.2" width="17.6" height="5.8" fill="#93c5fd" stroke="#60a5fa" stroke-width="0.5"/><rect x="532.1" y="359.1" width="17.6" height="4.9" fill="#93c5fd" stroke="#60a5fa" stroke-width="0.5"/><rect x="551.7" y="359.1" width="17.6" height="4.9" fill="#93c5fd" stroke="#60a5fa" stroke-width="0.5"/><rect x="571.4" y="358.4" width="17.6" height="5.6" fill="#93c5fd" stroke="#60a5fa" stroke-width="0.5"/><rect x="591.0" y="358.0" width="17.6" height="6.0" fill="#93c5fd" stroke="#60a5fa" stroke-width="0.5"/><rect x="610.6" y="357.5" width="17.6" height="6.5" fill="#93c5fd" stroke="#60a5fa" stroke-width="0.5"/><rect x="630.2" y="359.8" width="17.6" height="4.2" fill="#93c5fd" stroke="#60a5fa" stroke-width="0.5"/><rect x="649.8" y="359.7" width="17.6" height="4.3" fill="#93c5fd" stroke="#60a5fa" stroke-width="0.5"/><rect x="669.4" y="358.9" width="17.6" height="5.1" fill="#93c5fd" stroke="#60a5fa" stroke-width="0.5"/><rect x="689.0" y="358.9" width="17.6" height="5.1" fill="#93c5fd" stroke="#60a5fa" stroke-width="0.5"/><rect x="708.6" y="359.5" width="17.6" height="4.5" fill="#93c5fd" stroke="#60a5fa" stroke-width="0.5"/><rect x="728.3" y="358.2" width="17.6" height="5.8" fill="#93c5fd" stroke="#60a5fa" stroke-width="0.5"/><rect x="747.9" y="358.4" width="17.6" height="5.6" fill="#93c5fd" stroke="#60a5fa" stroke-width="0.5"/><rect x="767.5" y="357.6" width="17.6" height="6.4" fill="#93c5fd" stroke="#60a5fa" stroke-width="0.5"/><rect x="787.1" y="357.8" width="17.6" height="6.2" fill="#93c5fd" stroke="#60a5fa" stroke-width="0.5"/><rect x="806.7" y="356.4" width="17.6" height="7.6" fill="#93c5fd" stroke="#60a5fa" stroke-width="0.5"/><rect x="826.3" y="359.3" width="17.6" height="4.7" fill="#93c5fd" stroke="#60a5fa" stroke-width="0.5"/><rect x="845.9" y="359.6" width="17.6" height="4.4" fill="#93c5fd" stroke="#60a5fa" stroke-width="0.5"/><rect x="865.6" y="357.1" width="17.6" height="6.9" fill="#93c5fd" stroke="#60a5fa" stroke-width="0.5"/><rect x="885.2" y="356.9" width="17.6" height="7.1" fill="#93c5fd" stroke="#60a5fa" stroke-width="0.5"/><rect x="904.8" y="358.8" width="17.6" height="5.2" fill="#93c5fd" stroke="#60a5fa" stroke-width="0.5"/><rect x="924.4" y="359.0" width="17.6" height="5.0" fill="#93c5fd" stroke="#60a5fa" stroke-width="0.5"/><rect x="944.0" y="360.1" width="17.6" height="3.9" fill="#93c5fd" stroke="#60a5fa" stroke-width="0.5"/><rect x="963.6" y="359.4" width="17.6" height="4.6" fill="#93c5fd" stroke="#60a5fa" stroke-width="0.5"/><rect x="983.2" y="359.5" width="17.6" height="4.5" fill="#93c5fd" stroke="#60a5fa" stroke-width="0.5"/><rect x="1002.9" y="357.5" width="17.6" height="6.5" fill="#93c5fd" stroke="#60a5fa" stroke-width="0.5"/><rect x="1022.5" y="358.0" width="17.6" height="6.0" fill="#93c5fd" stroke="#60a5fa" stroke-width="0.5"/><rect x="1042.1" y="359.0" width="17.6" height="5.0" fill="#93c5fd" stroke="#60a5fa" stroke-width="0.5"/><rect x="1061.7" y="359.5" width="17.6" height="4.5" fill="#93c5fd" stroke="#60a5fa" stroke-width="0.5"/><rect x="1081.3" y="358.7" width="17.6" height="5.3" fill="#93c5fd" stroke="#60a5fa" stroke-width="0.5"/><rect x="1100.9" y="358.8" width="17.6" height="5.2" fill="#93c5fd" stroke="#60a5fa" stroke-width="0.5"/><rect x="1120.5" y="358.7" width="17.6" height="5.3" fill="#93c5fd" stroke="#60a5fa" stroke-width="0.5"/><rect x="1140.2" y="356.9" width="17.6" height="7.1" fill="#93c5fd" stroke="#60a5fa" stroke-width="0.5"/><rect x="1159.8" y="357.3" width="17.6" height="6.7" fill="#93c5fd" stroke="#60a5fa" stroke-width="0.5"/><rect x="1179.4" y="331.3" width="17.6" height="32.7" fill="#93c5fd" stroke="#60a5fa" stroke-width="0.5"/><polyline fill="none" stroke="#ef4444" stroke-width="2" points="89.8,355.1 109.4,352.5 129.0,198.4 148.6,197.2 168.3,195.8 187.9,194.4 207.5,193.7 227.1,190.7 246.7,188.9 266.3,187.5 285.9,185.9 305.6,183.6 325.2,181.5 344.8,179.5 364.4,177.0 384.0,174.5 403.6,172.4 423.2,170.1 442.9,167.8 462.5,165.1 482.1,162.5 501.7,160.3 521.3,157.4 540.9,155.0 560.5,152.6 580.2,149.8 599.8,146.8 619.4,143.6 639.0,141.5 658.6,139.4 678.2,136.9 697.8,134.3 717.5,132.1 737.1,129.3 756.7,126.5 776.3,123.3 795.9,120.2 815.5,116.5 835.1,114.1 854.8,112.0 874.4,108.6 894.0,105.0 913.6,102.5 933.2,100.0 952.8,98.1 972.4,95.8 992.1,93.6 1011.7,90.4 1031.3,87.4 1050.9,85.0 1070.5,82.7 1090.1,80.1 1109.7,77.6 1129.4,74.9 1149.0,71.5 1168.6,68.2 1188.2,52.0"/><line x1="89.8" y1="364.0" x2="89.8" y2="370.0" stroke="#111827" stroke-width="1"/><text x="91.8" y="386.0" font-size="11" text-anchor="end" transform="rotate(-35 91.8 386.0)" font-family="sans-serif" fill="#374151">2026-02-28</text><line x1="246.7" y1="364.0" x2="246.7" y2="370.0" stroke="#111827" stroke-width="1"/><text x="248.7" y="386.0" font-size="11" text-anchor="end" transform="rotate(-35 248.7 386.0)" font-family="sans-serif" fill="#374151">2026-03-10</text><line x1="403.6" y1="364.0" x2="403.6" y2="370.0" stroke="#111827" stroke-width="1"/><text x="405.6" y="386.0" font-size="11" text-anchor="end" transform="rotate(-35 405.6 386.0)" font-family="sans-serif" fill="#374151">2026-03-18</text><line x1="560.5" y1="364.0" x2="560.5" y2="370.0" stroke="#111827" stroke-width="1"/><text x="562.5" y="386.0" font-size="11" text-anchor="end" transform="rotate(-35 562.5 386.0)" font-family="sans-serif" fill="#374151">2026-03-26</text><line x1="717.5" y1="364.0" x2="717.5" y2="370.0" stroke="#111827" stroke-width="1"/><text x="719.5" y="386.0" font-size="11" text-anchor="end" transform="rotate(-35 719.5 386.0)" font-family="sans-serif" fill="#374151">2026-04-03</text><line x1="874.4" y1="364.0" x2="874.4" y2="370.0" stroke="#111827" stroke-width="1"/><text x="876.4" y="386.0" font-size="11" text-anchor="end" transform="rotate(-35 876.4 386.0)" font-family="sans-serif" fill="#374151">2026-04-11</text><line x1="1031.3" y1="364.0" x2="1031.3" y2="370.0" stroke="#111827" stroke-width="1"/><text x="1033.3" y="386.0" font-size="11" text-anchor="end" transform="rotate(-35 1033.3 386.0)" font-family="sans-serif" fill="#374151">2026-04-19</text><line x1="1188.2" y1="364.0" x2="1188.2" y2="370.0" stroke="#111827" stroke-width="1"/><text x="1190.2" y="386.0" font-size="11" text-anchor="end" transform="rotate(-35 1190.2 386.0)" font-family="sans-serif" fill="#374151">2026-04-27</text><text x="26" y="208.0" font-size="12" transform="rotate(-90 26 208.0)" text-anchor="middle" font-family="sans-serif" fill="#1f2937">구간별 수</text><text x="1256.0" y="208.0" font-size="12" transform="rotate(90 1256.0 208.0)" text-anchor="middle" font-family="sans-serif" fill="#1f2937">누적</text><text x="639.0" y="442.0" font-size="13" text-anchor="middle" font-family="sans-serif" fill="#111827">일</text></svg>