<svg xmlns="http://www.w3.org/2000/svg" width="1280" height="460" viewBox="0 0 1280 460"><rect x="0" y="0" width="100%" height="100%" fill="#ffffff"/><text x="640.0" y="28" font-size="20" text-anchor="middle" font-family="sans-serif" fill="#111827">마켓 / 최근 반영 시점 / 일별</text><line x1="80.0" y1="52.0" x2="1198.0" y2="52.0" stroke="#e5e7eb" stroke-width="1"/><text x="72.0" y="56.0" font-size="11" text-anchor="end" font-family="sans-serif" fill="#374151">493,407</text><text x="1206.0" y="56.0" font-size="11" text-anchor="start" font-family="sans-serif" fill="#374151">977,575</text><line x1="80.0" y1="114.4" x2="1198.0" y2="114.4" stroke="#e5e7eb" stroke-width="1"/><text x="72.0" y="118.4" font-size="11" text-anchor="end" font-family="sans-serif" fill="#374151">394,726</text><text x="1206.0" y="118.4" font-size="11" text-anchor="start" font-family="sans-serif" fill="#374151">782,060</text><line x1="80.0" y1="176.8" x2="1198.0" y2="176.8" stroke="#e5e7eb" stroke-width="1"/><text x="72.0" y="180.8" font-size="11" text-anchor="end" font-family="sans-serif" fill="#374151">296,044</text><text x="1206.0" y="180.8" font-size="11" text-anchor="start" font-family="sans-serif" fill="#374151">586,545</text><line x1="80.0" y1="239.2" x2="1198.0" y2="239.2" stroke="#e5e7eb" stroke-width="1"/><text x="72.0" y="243.2" font-size="11" text-anchor="end" font-family="sans-serif" fill="#374151">197,363</text><text x="1206.0" y="243.2" font-size="11" text-anchor="start" font-family="sans-serif" fill="#374151">391,030</text><line x1="80.0" y1="301.6" x2="1198.0" y2="301.6" stroke="#e5e7eb" stroke-width="1"/><text x="72.0" y="305.6" font-size="11" text-anchor="end" font-family="sans-serif" fill="#374151">98,681</text><text x="1206.0" y="305.6" font-size="11" text-anchor="start" font-family="sans-serif" fill="#374151">195,515</text><line x1="80.0" y1="364.0" x2="1198.0" y2="364.0" stroke="#e5e7eb" stroke-width="1"/><text x="72.0" y="368.0" font-size="11" text-anchor="end" font-family="sans-serif" fill="#374151">0</text><text x="1206.0" y="368.0" font-size="11" text-anchor="start" font-family="sans-serif" fill="#374151">0</text><line x1="80.0" y1="364.0" x2="1198.0" y2="364.0" stroke="#111827" stroke-width="1.2"/><line x1="80.0" y1="52.0" x2="80.0" y2="364.0" stroke="#111827" stroke-width="1.2"/><line x1="1198.0" y1="52.0" x2="1198.0" y2="364.0" stroke="#111827" stroke-width="1.2"/><rect x="81.0" y="346.1" width="18.3" height="17.9" fill="#93c5fd" stroke="#60a5fa" stroke-width="0.5"/><rect x="101.3" y="358.6" width="18.3" height="5.4" fill="#93c5fd" stroke="#60a5fa" stroke-width="0.5"/><rect x="121.7" y="52.0" width="18.3" height="312.0" fill="#93c5fd" stroke="#60a5fa" stroke-width="0.5"/><rect x="142.0" y="361.7" width="18.3" height="2.3" fill="#93c5fd" stroke="#60a5fa" stroke-width="0.5"/><rect x="162.3" y="361.2" width="18.3" height="2.8" fill="#93c5fd" stroke="#60a5fa" stroke-width="0.5"/><rect x="182.6" y="361.0" width="18.3" height="3.0" fill="#93c5fd" stroke="#60a5fa" stroke-width="0.5"/><rect x="203.0" y="362.6" width="18.3" height="1.4" fill="#93c5fd" stroke="#60a5fa" stroke-width="0.5"/><rect x="223.3" y="357.9" width="18.3" height="6.1" fill="#93c5fd" stroke="#60a5fa" stroke-width="0.5"/><rect x="243.6" y="360.4" width="18.3" height="3.6" fill="#93c5fd" stroke="#60a5fa" stroke-width="0.5"/><rect x="263.9" y="361.1" width="18.3" height="2.9" fill="#93c5fd" stroke="#60a5fa" stroke-width="0.5"/><rect x="284.3" y="360.7" width="18.3" height="3.3" fill="#93c5fd" stroke="#60a5fa" stroke-width="0.5"/><rect x="304.6" y="359.4" width="18.3" height="4.6" fill="#93c5fd" stroke="#60a5fa" stroke-width="0.5"/><rect x="324.9" y="359.7" width="18.3" height="4.3" fill="#93c5fd" stroke="#60a5fa" stroke-width="0.5"/><rect x="345.3" y="360.0" width="18.3" height="4.0" fill="#93c5fd" stroke="#60a5fa" stroke-width="0.5"/><rect x="365.6" y="358.9" width="18.3" height="5.1" fill="#93c5fd" stroke="#60a5fa" stroke-width="0.5"/><rect x="385.9" y="358.9" width="18.3" height="5.1" fill="#93c5fd" stroke="#60a5fa" stroke-width="0.5"/><rect x="406.2" y="359.7" width="18.3" height="4.3" fill="#93c5fd" stroke="#60a5fa" stroke-width="0.5"/><rect x="426.6" y="359.4" width="18.3" height="4.6" fill="#93c5fd" stroke="#60a5fa" stroke-width="0.5"/><rect x="446.9" y="359.3" width="18.3" height="4.7" fill="#93c5fd" stroke="#60a5fa" stroke-width="0.5"/><rect x="467.2" y="358.6" width="18.3" height="5.4" fill="#93c5fd" stroke="#60a5fa" stroke-width="0.5"/><rect x="487.5" y="358.7" width="18.3" height="5.3" fill="#93c5fd" stroke="#60a5fa" stroke-width="0.5"/><rect x="507.9" y="359.5" width="18.3" height="4.5" fill="#93c5fd" stroke="#60a5fa" stroke-width="0.5"/><rect x="528.2" y="358.2" width="18.3" height="5.8" fill="#93c5fd" stroke="#60a5fa" stroke-width="0.5"/><rect x="548.5" y="359.1" width="18.3" height="4.9" fill="#93c5fd" stroke="#60a5fa" stroke-width="0.5"/><rect x="568.9" y="359.1" width="18.3" height="4.9" fill="#93c5fd" stroke="#60a5fa" stroke-width="0.5"/><rect x="589.2" y="358.4" width="18.3" height="5.6" fill="#93c5fd" stroke="#60a5fa" stroke-width="0.5"/><rect x="609.5" y="358.0" width="18.3" height="6.0" fill="#93c5fd" stroke="#60a5fa" stroke-width="0.5"/><rect x="629.8" y="357.5" width="18.3" height="6.5" fill="#93c5fd" stroke="#60a5fa" stroke-width="0.5"/><rect x="650.2" y="359.8" width="18.3" height="4.2" fill="#93c5fd" stroke="#60a5fa" stroke-width="0.5"/><rect x="670.5" y="359.7" width="18.3" height="4.3" fill="#93c5fd" stroke="#60a5fa" stroke-width="0.5"/><rect x="690.8" y="358.9" width="18.3" height="5.1" fill="#93c5fd" stroke="#60a5fa" stroke-width="0.5"/><rect x="711.1" y="358.9" width="18.3" height="5.1" fill="#93c5fd" stroke="#60a5fa" stroke-width="0.5"/><rect x="731.5" y="359.5" width="18.3" height="4.5" fill="#93c5fd" stroke="#60a5fa" stroke-width="0.5"/><rect x="751.8" y="358.2" width="18.3" height="5.8" fill="#93c5fd" stroke="#60a5fa" stroke-width="0.5"/><rect x="772.1" y="358.4" width="18.3" height="5.6" fill="#93c5fd" stroke="#60a5fa" stroke-width="0.5"/><rect x="792.5" y="357.6" width="18.3" height="6.4" fill="#93c5fd" stroke="#60a5fa" stroke-width="0.5"/><rect x="812.8" y="357.8" width="18.3" height="6.2" fill="#93c5fd" stroke="#60a5fa" stroke-width="0.5"/><rect x="833.1" y="356.4" width="18.3" height="7.6" fill="#93c5fd" stroke="#60a5fa" stroke-width="0.5"/><rect x="853.4" y="359.3" width="18.3" height="4.7" fill="#93c5fd" stroke="#60a5fa" stroke-width="0.5"/><rect x="873.8" y="359.6" width="18.3" height="4.4" fill="#93c5fd" stroke="#60a5fa" stroke-width="0.5"/><rect x="894.1" y="357.1" width="18.3" height="6.9" fill="#93c5fd" stroke="#60a5fa" stroke-width="0.5"/><rect x="914.4" y="356.9" width="18.3" height="7.1" fill="#93c5fd" stroke="#60a5fa" stroke-width="0.5"/><rect x="934.7" y="358.8" width="18.3" height="5.2" fill="#93c5fd" stroke="#60a5fa" stroke-width="0.5"/><rect x="955.1" y="359.0" width="18.3" height="5.0" fill="#93c5fd" stroke="#60a5fa" stroke-width="0.5"/><rect x="975.4" y="360.1" width="18.3" height="3.9" fill="#93c5fd" stroke="#60a5fa" stroke-width="0.5"/><rect x="995.7" y="359.4" width="18.3" height="4.6" fill="#93c5fd" stroke="#60a5fa" stroke-width="0.5"/><rect x="1016.1" y="359.5" width="18.3" height="4.5" fill="#93c5fd" stroke="#60a5fa" stroke-width="0.5"/><rect x="1036.4" y="357.5" width="18.3" height="6.5" fill="#93c5fd" stroke="#60a5fa" stroke-width="0.5"/><rect x="1056.7" y="358.0" width="18.3" height="6.0" fill="#93c5fd" stroke="#60a5fa" stroke-width="0.5"/><rect x="1077.0" y="359.0" width="18.3" height="5.0" fill="#93c5fd" stroke="#60a5fa" stroke-width="0.5"/><rect x="1097.4" y="359.5" width="18.3" height="4.5" fill="#93c5fd" stroke="#60a5fa" stroke-width="0.5"/><rect x="1117.7" y="358.7" width="18.3" height="5.3" fill="#93c5fd" stroke="#60a5fa" stroke-width="0.5"/><rect x="1138.0" y="358.8" width="18.3" height="5.2" fill="#93c5fd" stroke="#60a5fa" stroke-width="0.5"/><rect x="1158.3" y="358.7" width="18.3" height="5.3" fill="#93c5fd" stroke="#60a5fa" stroke-width="0.5"/><rect x="1178.7" y="331.1" width="18.3" height="32.9" fill="#93c5fd" stroke="#60a5fa" stroke-width="0.5"/><polyline fill="none" stroke="#ef4444" stroke-width="2" points="90.2,355.0 110.5,352.2 130.8,194.8 151.1,193.6 171.5,192.2 191.8,190.7 212.1,190.0 232.5,186.9 252.8,185.1 273.1,183.6 293.4,182.0 313.8,179.7 334.1,177.5 354.4,175.5 374.7,172.9 395.1,170.4 415.4,168.2 435.7,165.9 456.1,163.5 476.4,160.8 496.7,158.1 517.0,155.8 537.4,152.9 557.7,150.4 578.0,147.9 598.3,145.1 618.7,142.1 639.0,138.8 659.3,136.7 679.7,134.5 700.0,131.9 720.3,129.3 740.6,127.0 761.0,124.1 781.3,121.3 801.6,118.0 821.9,114.9 842.3,111.1 862.6,108.7 882.9,106.5 903.3,103.0 923.6,99.4 943.9,96.8 964.2,94.3 984.6,92.3 1004.9,90.0 1025.2,87.7 1045.5,84.4 1065.9,81.4 1086.2,78.9 1106.5,76.6 1126.9,73.9 1147.2,71.3 1167.5,68.6 1187.8,52.0"/><line x1="90.2" y1="364.0" x2="90.2" y2="370.0" stroke="#111827" stroke-width="1"/><text x="92.2" y="386.0" font-size="11" text-anchor="end" transform="rotate(-35 92.2 386.0)" font-family="sans-serif" fill="#374151">2026-02-28</text><line x1="252.8" y1="364.0" x2="252.8" y2="370.0" stroke="#111827" stroke-width="1"/><text x="254.8" y="386.0" font-size="11" text-anchor="end" transform="rotate(-35 254.8 386.0)" font-family="sans-serif" fill="#374151">2026-03-10</text><line x1="395.1" y1="364.0" x2="395.1" y2="370.0" stroke="#111827" stroke-width="1"/><text x="397.1" y="386.0" font-size="11" text-anchor="end" transform="rotate(-35 397.1 386.0)" font-family="sans-serif" fill="#374151">2026-03-17</text><line x1="557.7" y1="364.0" x2="557.7" y2="370.0" stroke="#111827" stroke-width="1"/><text x="559.7" y="386.0" font-size="11" text-anchor="end" transform="rotate(-35 559.7 386.0)" font-family="sans-serif" fill="#374151">2026-03-25</text><line x1="720.3" y1="364.0" x2="720.3" y2="370.0" stroke="#111827" stroke-width="1"/><text x="722.3" y="386.0" font-size="11" text-anchor="end" transform="rotate(-35 722.3 386.0)" font-family="sans-serif" fill="#374151">2026-04-02</text><line x1="882.9" y1="364.0" x2="882.9" y2="370.0" stroke="#111827" stroke-width="1"/><text x="884.9" y="386.0" font-size="11" text-anchor="end" transform="rotate(-35 884.9 386.0)" font-family="sans-serif" fill="#374151">2026-04-10</text><line x1="1025.2" y1="364.0" x2="1025.2" y2="370.0" stroke="#111827" stroke-width="1"/><text x="1027.2" y="386.0" font-size="11" text-anchor="end" transform="rotate(-35 1027.2 386.0)" font-family="sans-serif" fill="#374151">2026-04-17</text><line x1="1187.8" y1="364.0" x2="1187.8" y2="370.0" stroke="#111827" stroke-width="1"/><text x="1189.8" y="386.0" font-size="11" text-anchor="end" transform="rotate(-35 1189.8 386.0)" font-family="sans-serif" fill="#374151">2026-04-25</text><text x="26" y="208.0" font-size="12" transform="rotate(-90 26 208.0)" text-anchor="middle" font-family="sans-serif" fill="#1f2937">구간별 수</text><text x="1256.0" y="208.0" font-size="12" transform="rotate(90 1256.0 208.0)" text-anchor="middle" font-family="sans-serif" fill="#1f2937">누적</text><text x="639.0" y="442.0" font-size="13" text-anchor="middle" font-family="sans-serif" fill="#111827">일</text></svg>