<svg xmlns="http://www.w3.org/2000/svg" width="1280" height="460" viewBox="0 0 1280 460"><rect x="0" y="0" width="100%" height="100%" fill="#ffffff"/><text x="640.0" y="28" font-size="20" text-anchor="middle" font-family="sans-serif" fill="#111827">마켓 / 최근 반영 시점 / 일별</text><line x1="80.0" y1="52.0" x2="1198.0" y2="52.0" stroke="#e5e7eb" stroke-width="1"/><text x="72.0" y="56.0" font-size="11" text-anchor="end" font-family="sans-serif" fill="#374151">493,407</text><text x="1206.0" y="56.0" font-size="11" text-anchor="start" font-family="sans-serif" fill="#374151">841,948</text><line x1="80.0" y1="114.4" x2="1198.0" y2="114.4" stroke="#e5e7eb" stroke-width="1"/><text x="72.0" y="118.4" font-size="11" text-anchor="end" font-family="sans-serif" fill="#374151">394,726</text><text x="1206.0" y="118.4" font-size="11" text-anchor="start" font-family="sans-serif" fill="#374151">673,558</text><line x1="80.0" y1="176.8" x2="1198.0" y2="176.8" stroke="#e5e7eb" stroke-width="1"/><text x="72.0" y="180.8" font-size="11" text-anchor="end" font-family="sans-serif" fill="#374151">296,044</text><text x="1206.0" y="180.8" font-size="11" text-anchor="start" font-family="sans-serif" fill="#374151">505,169</text><line x1="80.0" y1="239.2" x2="1198.0" y2="239.2" stroke="#e5e7eb" stroke-width="1"/><text x="72.0" y="243.2" font-size="11" text-anchor="end" font-family="sans-serif" fill="#374151">197,363</text><text x="1206.0" y="243.2" font-size="11" text-anchor="start" font-family="sans-serif" fill="#374151">336,779</text><line x1="80.0" y1="301.6" x2="1198.0" y2="301.6" stroke="#e5e7eb" stroke-width="1"/><text x="72.0" y="305.6" font-size="11" text-anchor="end" font-family="sans-serif" fill="#374151">98,681</text><text x="1206.0" y="305.6" font-size="11" text-anchor="start" font-family="sans-serif" fill="#374151">168,390</text><line x1="80.0" y1="364.0" x2="1198.0" y2="364.0" stroke="#e5e7eb" stroke-width="1"/><text x="72.0" y="368.0" font-size="11" text-anchor="end" font-family="sans-serif" fill="#374151">0</text><text x="1206.0" y="368.0" font-size="11" text-anchor="start" font-family="sans-serif" fill="#374151">0</text><line x1="80.0" y1="364.0" x2="1198.0" y2="364.0" stroke="#111827" stroke-width="1.2"/><line x1="80.0" y1="52.0" x2="80.0" y2="364.0" stroke="#111827" stroke-width="1.2"/><line x1="1198.0" y1="52.0" x2="1198.0" y2="364.0" stroke="#111827" stroke-width="1.2"/><rect x="81.0" y="346.1" width="27.4" height="17.9" fill="#93c5fd" stroke="#60a5fa" stroke-width="0.5"/><rect x="110.4" y="358.6" width="27.4" height="5.4" fill="#93c5fd" stroke="#60a5fa" stroke-width="0.5"/><rect x="139.8" y="52.0" width="27.4" height="312.0" fill="#93c5fd" stroke="#60a5fa" stroke-width="0.5"/><rect x="169.3" y="361.7" width="27.4" height="2.3" fill="#93c5fd" stroke="#60a5fa" stroke-width="0.5"/><rect x="198.7" y="361.2" width="27.4" height="2.8" fill="#93c5fd" stroke="#60a5fa" stroke-width="0.5"/><rect x="228.1" y="361.0" width="27.4" height="3.0" fill="#93c5fd" stroke="#60a5fa" stroke-width="0.5"/><rect x="257.5" y="362.6" width="27.4" height="1.4" fill="#93c5fd" stroke="#60a5fa" stroke-width="0.5"/><rect x="286.9" y="357.9" width="27.4" height="6.1" fill="#93c5fd" stroke="#60a5fa" stroke-width="0.5"/><rect x="316.4" y="360.4" width="27.4" height="3.6" fill="#93c5fd" stroke="#60a5fa" stroke-width="0.5"/><rect x="345.8" y="361.1" width="27.4" height="2.9" fill="#93c5fd" stroke="#60a5fa" stroke-width="0.5"/><rect x="375.2" y="360.7" width="27.4" height="3.3" fill="#93c5fd" stroke="#60a5fa" stroke-width="0.5"/><rect x="404.6" y="359.4" width="27.4" height="4.6" fill="#93c5fd" stroke="#60a5fa" stroke-width="0.5"/><rect x="434.1" y="359.7" width="27.4" height="4.3" fill="#93c5fd" stroke="#60a5fa" stroke-width="0.5"/><rect x="463.5" y="360.0" width="27.4" height="4.0" fill="#93c5fd" stroke="#60a5fa" stroke-width="0.5"/><rect x="492.9" y="358.9" width="27.4" height="5.1" fill="#93c5fd" stroke="#60a5fa" stroke-width="0.5"/><rect x="522.3" y="358.9" width="27.4" height="5.1" fill="#93c5fd" stroke="#60a5fa" stroke-width="0.5"/><rect x="551.7" y="359.7" width="27.4" height="4.3" fill="#93c5fd" stroke="#60a5fa" stroke-width="0.5"/><rect x="581.2" y="359.4" width="27.4" height="4.6" fill="#93c5fd" stroke="#60a5fa" stroke-width="0.5"/><rect x="610.6" y="359.3" width="27.4" height="4.7" fill="#93c5fd" stroke="#60a5fa" stroke-width="0.5"/><rect x="640.0" y="358.6" width="27.4" height="5.4" fill="#93c5fd" stroke="#60a5fa" stroke-width="0.5"/><rect x="669.4" y="358.7" width="27.4" height="5.3" fill="#93c5fd" stroke="#60a5fa" stroke-width="0.5"/><rect x="698.8" y="359.5" width="27.4" height="4.5" fill="#93c5fd" stroke="#60a5fa" stroke-width="0.5"/><rect x="728.3" y="358.2" width="27.4" height="5.8" fill="#93c5fd" stroke="#60a5fa" stroke-width="0.5"/><rect x="757.7" y="359.1" width="27.4" height="4.9" fill="#93c5fd" stroke="#60a5fa" stroke-width="0.5"/><rect x="787.1" y="359.1" width="27.4" height="4.9" fill="#93c5fd" stroke="#60a5fa" stroke-width="0.5"/><rect x="816.5" y="358.4" width="27.4" height="5.6" fill="#93c5fd" stroke="#60a5fa" stroke-width="0.5"/><rect x="845.9" y="358.0" width="27.4" height="6.0" fill="#93c5fd" stroke="#60a5fa" stroke-width="0.5"/><rect x="875.4" y="357.4" width="27.4" height="6.6" fill="#93c5fd" stroke="#60a5fa" stroke-width="0.5"/><rect x="904.8" y="359.8" width="27.4" height="4.2" fill="#93c5fd" stroke="#60a5fa" stroke-width="0.5"/><rect x="934.2" y="359.7" width="27.4" height="4.3" fill="#93c5fd" stroke="#60a5fa" stroke-width="0.5"/><rect x="963.6" y="358.9" width="27.4" height="5.1" fill="#93c5fd" stroke="#60a5fa" stroke-width="0.5"/><rect x="993.1" y="358.9" width="27.4" height="5.1" fill="#93c5fd" stroke="#60a5fa" stroke-width="0.5"/><rect x="1022.5" y="359.5" width="27.4" height="4.5" fill="#93c5fd" stroke="#60a5fa" stroke-width="0.5"/><rect x="1051.9" y="358.2" width="27.4" height="5.8" fill="#93c5fd" stroke="#60a5fa" stroke-width="0.5"/><rect x="1081.3" y="358.3" width="27.4" height="5.7" fill="#93c5fd" stroke="#60a5fa" stroke-width="0.5"/><rect x="1110.7" y="357.6" width="27.4" height="6.4" fill="#93c5fd" stroke="#60a5fa" stroke-width="0.5"/><rect x="1140.2" y="357.8" width="27.4" height="6.2" fill="#93c5fd" stroke="#60a5fa" stroke-width="0.5"/><rect x="1169.6" y="325.2" width="27.4" height="38.8" fill="#93c5fd" stroke="#60a5fa" stroke-width="0.5"/><polyline fill="none" stroke="#ef4444" stroke-width="2" points="94.7,353.5 124.1,350.3 153.6,167.5 183.0,166.1 212.4,164.5 241.8,162.7 271.2,161.9 300.7,158.4 330.1,156.3 359.5,154.5 388.9,152.6 418.3,149.9 447.8,147.4 477.2,145.1 506.6,142.1 536.0,139.1 565.4,136.6 594.9,133.9 624.3,131.2 653.7,128.0 683.1,124.9 712.6,122.3 742.0,118.9 771.4,116.0 800.8,113.1 830.2,109.8 859.7,106.3 889.1,102.5 918.5,100.0 947.9,97.5 977.3,94.5 1006.8,91.5 1036.2,88.8 1065.6,85.4 1095.0,82.1 1124.4,78.4 1153.9,74.7 1183.3,52.0"/><line x1="94.7" y1="364.0" x2="94.7" y2="370.0" stroke="#111827" stroke-width="1"/><text x="96.7" y="386.0" font-size="11" text-anchor="end" transform="rotate(-35 96.7 386.0)" font-family="sans-serif" fill="#374151">2026-02-28</text><line x1="241.8" y1="364.0" x2="241.8" y2="370.0" stroke="#111827" stroke-width="1"/><text x="243.8" y="386.0" font-size="11" text-anchor="end" transform="rotate(-35 243.8 386.0)" font-family="sans-serif" fill="#374151">2026-03-05</text><line x1="418.3" y1="364.0" x2="418.3" y2="370.0" stroke="#111827" stroke-width="1"/><text x="420.3" y="386.0" font-size="11" text-anchor="end" transform="rotate(-35 420.3 386.0)" font-family="sans-serif" fill="#374151">2026-03-13</text><line x1="565.4" y1="364.0" x2="565.4" y2="370.0" stroke="#111827" stroke-width="1"/><text x="567.4" y="386.0" font-size="11" text-anchor="end" transform="rotate(-35 567.4 386.0)" font-family="sans-serif" fill="#374151">2026-03-18</text><line x1="712.6" y1="364.0" x2="712.6" y2="370.0" stroke="#111827" stroke-width="1"/><text x="714.6" y="386.0" font-size="11" text-anchor="end" transform="rotate(-35 714.6 386.0)" font-family="sans-serif" fill="#374151">2026-03-23</text><line x1="859.7" y1="364.0" x2="859.7" y2="370.0" stroke="#111827" stroke-width="1"/><text x="861.7" y="386.0" font-size="11" text-anchor="end" transform="rotate(-35 861.7 386.0)" font-family="sans-serif" fill="#374151">2026-03-28</text><line x1="1036.2" y1="364.0" x2="1036.2" y2="370.0" stroke="#111827" stroke-width="1"/><text x="1038.2" y="386.0" font-size="11" text-anchor="end" transform="rotate(-35 1038.2 386.0)" font-family="sans-serif" fill="#374151">2026-04-03</text><line x1="1183.3" y1="364.0" x2="1183.3" y2="370.0" stroke="#111827" stroke-width="1"/><text x="1185.3" y="386.0" font-size="11" text-anchor="end" transform="rotate(-35 1185.3 386.0)" font-family="sans-serif" fill="#374151">2026-04-08</text><text x="26" y="208.0" font-size="12" transform="rotate(-90 26 208.0)" text-anchor="middle" font-family="sans-serif" fill="#1f2937">구간별 수</text><text x="1256.0" y="208.0" font-size="12" transform="rotate(90 1256.0 208.0)" text-anchor="middle" font-family="sans-serif" fill="#1f2937">누적</text><text x="639.0" y="442.0" font-size="13" text-anchor="middle" font-family="sans-serif" fill="#111827">일</text></svg>