<svg xmlns="http://www.w3.org/2000/svg" width="1280" height="460" viewBox="0 0 1280 460"><rect x="0" y="0" width="100%" height="100%" fill="#ffffff"/><text x="640.0" y="28" font-size="20" text-anchor="middle" font-family="sans-serif" fill="#111827">마켓 / 최근 반영 시점 / 일별</text><line x1="80.0" y1="52.0" x2="1198.0" y2="52.0" stroke="#e5e7eb" stroke-width="1"/><text x="72.0" y="56.0" font-size="11" text-anchor="end" font-family="sans-serif" fill="#374151">493,407</text><text x="1206.0" y="56.0" font-size="11" text-anchor="start" font-family="sans-serif" fill="#374151">884,294</text><line x1="80.0" y1="114.4" x2="1198.0" y2="114.4" stroke="#e5e7eb" stroke-width="1"/><text x="72.0" y="118.4" font-size="11" text-anchor="end" font-family="sans-serif" fill="#374151">394,726</text><text x="1206.0" y="118.4" font-size="11" text-anchor="start" font-family="sans-serif" fill="#374151">707,435</text><line x1="80.0" y1="176.8" x2="1198.0" y2="176.8" stroke="#e5e7eb" stroke-width="1"/><text x="72.0" y="180.8" font-size="11" text-anchor="end" font-family="sans-serif" fill="#374151">296,044</text><text x="1206.0" y="180.8" font-size="11" text-anchor="start" font-family="sans-serif" fill="#374151">530,576</text><line x1="80.0" y1="239.2" x2="1198.0" y2="239.2" stroke="#e5e7eb" stroke-width="1"/><text x="72.0" y="243.2" font-size="11" text-anchor="end" font-family="sans-serif" fill="#374151">197,363</text><text x="1206.0" y="243.2" font-size="11" text-anchor="start" font-family="sans-serif" fill="#374151">353,718</text><line x1="80.0" y1="301.6" x2="1198.0" y2="301.6" stroke="#e5e7eb" stroke-width="1"/><text x="72.0" y="305.6" font-size="11" text-anchor="end" font-family="sans-serif" fill="#374151">98,681</text><text x="1206.0" y="305.6" font-size="11" text-anchor="start" font-family="sans-serif" fill="#374151">176,859</text><line x1="80.0" y1="364.0" x2="1198.0" y2="364.0" stroke="#e5e7eb" stroke-width="1"/><text x="72.0" y="368.0" font-size="11" text-anchor="end" font-family="sans-serif" fill="#374151">0</text><text x="1206.0" y="368.0" font-size="11" text-anchor="start" font-family="sans-serif" fill="#374151">0</text><line x1="80.0" y1="364.0" x2="1198.0" y2="364.0" stroke="#111827" stroke-width="1.2"/><line x1="80.0" y1="52.0" x2="80.0" y2="364.0" stroke="#111827" stroke-width="1.2"/><line x1="1198.0" y1="52.0" x2="1198.0" y2="364.0" stroke="#111827" stroke-width="1.2"/><rect x="81.0" y="346.1" width="24.0" height="17.9" fill="#93c5fd" stroke="#60a5fa" stroke-width="0.5"/><rect x="107.0" y="358.6" width="24.0" height="5.4" fill="#93c5fd" stroke="#60a5fa" stroke-width="0.5"/><rect x="133.0" y="52.0" width="24.0" height="312.0" fill="#93c5fd" stroke="#60a5fa" stroke-width="0.5"/><rect x="159.0" y="361.7" width="24.0" height="2.3" fill="#93c5fd" stroke="#60a5fa" stroke-width="0.5"/><rect x="185.0" y="361.2" width="24.0" height="2.8" fill="#93c5fd" stroke="#60a5fa" stroke-width="0.5"/><rect x="211.0" y="361.0" width="24.0" height="3.0" fill="#93c5fd" stroke="#60a5fa" stroke-width="0.5"/><rect x="237.0" y="362.6" width="24.0" height="1.4" fill="#93c5fd" stroke="#60a5fa" stroke-width="0.5"/><rect x="263.0" y="357.9" width="24.0" height="6.1" fill="#93c5fd" stroke="#60a5fa" stroke-width="0.5"/><rect x="289.0" y="360.4" width="24.0" height="3.6" fill="#93c5fd" stroke="#60a5fa" stroke-width="0.5"/><rect x="315.0" y="361.1" width="24.0" height="2.9" fill="#93c5fd" stroke="#60a5fa" stroke-width="0.5"/><rect x="341.0" y="360.7" width="24.0" height="3.3" fill="#93c5fd" stroke="#60a5fa" stroke-width="0.5"/><rect x="367.0" y="359.4" width="24.0" height="4.6" fill="#93c5fd" stroke="#60a5fa" stroke-width="0.5"/><rect x="393.0" y="359.7" width="24.0" height="4.3" fill="#93c5fd" stroke="#60a5fa" stroke-width="0.5"/><rect x="419.0" y="360.0" width="24.0" height="4.0" fill="#93c5fd" stroke="#60a5fa" stroke-width="0.5"/><rect x="445.0" y="358.9" width="24.0" height="5.1" fill="#93c5fd" stroke="#60a5fa" stroke-width="0.5"/><rect x="471.0" y="358.9" width="24.0" height="5.1" fill="#93c5fd" stroke="#60a5fa" stroke-width="0.5"/><rect x="497.0" y="359.7" width="24.0" height="4.3" fill="#93c5fd" stroke="#60a5fa" stroke-width="0.5"/><rect x="523.0" y="359.4" width="24.0" height="4.6" fill="#93c5fd" stroke="#60a5fa" stroke-width="0.5"/><rect x="549.0" y="359.3" width="24.0" height="4.7" fill="#93c5fd" stroke="#60a5fa" stroke-width="0.5"/><rect x="575.0" y="358.6" width="24.0" height="5.4" fill="#93c5fd" stroke="#60a5fa" stroke-width="0.5"/><rect x="601.0" y="358.7" width="24.0" height="5.3" fill="#93c5fd" stroke="#60a5fa" stroke-width="0.5"/><rect x="627.0" y="359.5" width="24.0" height="4.5" fill="#93c5fd" stroke="#60a5fa" stroke-width="0.5"/><rect x="653.0" y="358.2" width="24.0" height="5.8" fill="#93c5fd" stroke="#60a5fa" stroke-width="0.5"/><rect x="679.0" y="359.1" width="24.0" height="4.9" fill="#93c5fd" stroke="#60a5fa" stroke-width="0.5"/><rect x="705.0" y="359.1" width="24.0" height="4.9" fill="#93c5fd" stroke="#60a5fa" stroke-width="0.5"/><rect x="731.0" y="358.4" width="24.0" height="5.6" fill="#93c5fd" stroke="#60a5fa" stroke-width="0.5"/><rect x="757.0" y="358.0" width="24.0" height="6.0" fill="#93c5fd" stroke="#60a5fa" stroke-width="0.5"/><rect x="783.0" y="357.5" width="24.0" height="6.5" fill="#93c5fd" stroke="#60a5fa" stroke-width="0.5"/><rect x="809.0" y="359.8" width="24.0" height="4.2" fill="#93c5fd" stroke="#60a5fa" stroke-width="0.5"/><rect x="835.0" y="359.7" width="24.0" height="4.3" fill="#93c5fd" stroke="#60a5fa" stroke-width="0.5"/><rect x="861.0" y="358.9" width="24.0" height="5.1" fill="#93c5fd" stroke="#60a5fa" stroke-width="0.5"/><rect x="887.0" y="358.9" width="24.0" height="5.1" fill="#93c5fd" stroke="#60a5fa" stroke-width="0.5"/><rect x="913.0" y="359.5" width="24.0" height="4.5" fill="#93c5fd" stroke="#60a5fa" stroke-width="0.5"/><rect x="939.0" y="358.2" width="24.0" height="5.8" fill="#93c5fd" stroke="#60a5fa" stroke-width="0.5"/><rect x="965.0" y="358.4" width="24.0" height="5.6" fill="#93c5fd" stroke="#60a5fa" stroke-width="0.5"/><rect x="991.0" y="357.6" width="24.0" height="6.4" fill="#93c5fd" stroke="#60a5fa" stroke-width="0.5"/><rect x="1017.0" y="357.8" width="24.0" height="6.2" fill="#93c5fd" stroke="#60a5fa" stroke-width="0.5"/><rect x="1043.0" y="356.4" width="24.0" height="7.6" fill="#93c5fd" stroke="#60a5fa" stroke-width="0.5"/><rect x="1069.0" y="359.3" width="24.0" height="4.7" fill="#93c5fd" stroke="#60a5fa" stroke-width="0.5"/><rect x="1095.0" y="359.6" width="24.0" height="4.4" fill="#93c5fd" stroke="#60a5fa" stroke-width="0.5"/><rect x="1121.0" y="357.1" width="24.0" height="6.9" fill="#93c5fd" stroke="#60a5fa" stroke-width="0.5"/><rect x="1147.0" y="356.9" width="24.0" height="7.1" fill="#93c5fd" stroke="#60a5fa" stroke-width="0.5"/><rect x="1173.0" y="329.1" width="24.0" height="34.9" fill="#93c5fd" stroke="#60a5fa" stroke-width="0.5"/><polyline fill="none" stroke="#ef4444" stroke-width="2" points="93.0,354.0 119.0,351.0 145.0,176.9 171.0,175.6 197.0,174.0 223.0,172.4 249.0,171.6 275.0,168.2 301.0,166.2 327.0,164.6 353.0,162.8 379.0,160.2 405.0,157.8 431.0,155.6 457.0,152.8 483.0,149.9 509.0,147.5 535.0,145.0 561.0,142.3 587.0,139.3 613.0,136.4 639.0,133.9 665.0,130.6 691.0,127.9 717.0,125.1 743.0,122.0 769.0,118.7 795.0,115.0 821.0,112.7 847.0,110.3 873.0,107.4 899.0,104.6 925.0,102.0 951.0,98.8 977.0,95.7 1003.0,92.1 1029.0,88.6 1055.0,84.4 1081.0,81.7 1107.0,79.3 1133.0,75.4 1159.0,71.5 1185.0,52.0"/><line x1="93.0" y1="364.0" x2="93.0" y2="370.0" stroke="#111827" stroke-width="1"/><text x="95.0" y="386.0" font-size="11" text-anchor="end" transform="rotate(-35 95.0 386.0)" font-family="sans-serif" fill="#374151">2026-02-28</text><line x1="249.0" y1="364.0" x2="249.0" y2="370.0" stroke="#111827" stroke-width="1"/><text x="251.0" y="386.0" font-size="11" text-anchor="end" transform="rotate(-35 251.0 386.0)" font-family="sans-serif" fill="#374151">2026-03-08</text><line x1="405.0" y1="364.0" x2="405.0" y2="370.0" stroke="#111827" stroke-width="1"/><text x="407.0" y="386.0" font-size="11" text-anchor="end" transform="rotate(-35 407.0 386.0)" font-family="sans-serif" fill="#374151">2026-03-14</text><line x1="561.0" y1="364.0" x2="561.0" y2="370.0" stroke="#111827" stroke-width="1"/><text x="563.0" y="386.0" font-size="11" text-anchor="end" transform="rotate(-35 563.0 386.0)" font-family="sans-serif" fill="#374151">2026-03-20</text><line x1="717.0" y1="364.0" x2="717.0" y2="370.0" stroke="#111827" stroke-width="1"/><text x="719.0" y="386.0" font-size="11" text-anchor="end" transform="rotate(-35 719.0 386.0)" font-family="sans-serif" fill="#374151">2026-03-26</text><line x1="873.0" y1="364.0" x2="873.0" y2="370.0" stroke="#111827" stroke-width="1"/><text x="875.0" y="386.0" font-size="11" text-anchor="end" transform="rotate(-35 875.0 386.0)" font-family="sans-serif" fill="#374151">2026-04-01</text><line x1="1029.0" y1="364.0" x2="1029.0" y2="370.0" stroke="#111827" stroke-width="1"/><text x="1031.0" y="386.0" font-size="11" text-anchor="end" transform="rotate(-35 1031.0 386.0)" font-family="sans-serif" fill="#374151">2026-04-07</text><line x1="1185.0" y1="364.0" x2="1185.0" y2="370.0" stroke="#111827" stroke-width="1"/><text x="1187.0" y="386.0" font-size="11" text-anchor="end" transform="rotate(-35 1187.0 386.0)" font-family="sans-serif" fill="#374151">2026-04-13</text><text x="26" y="208.0" font-size="12" transform="rotate(-90 26 208.0)" text-anchor="middle" font-family="sans-serif" fill="#1f2937">구간별 수</text><text x="1256.0" y="208.0" font-size="12" transform="rotate(90 1256.0 208.0)" text-anchor="middle" font-family="sans-serif" fill="#1f2937">누적</text><text x="639.0" y="442.0" font-size="13" text-anchor="middle" font-family="sans-serif" fill="#111827">일</text></svg>