<svg xmlns="http://www.w3.org/2000/svg" width="1280" height="460" viewBox="0 0 1280 460"><rect x="0" y="0" width="100%" height="100%" fill="#ffffff"/><text x="640.0" y="28" font-size="20" text-anchor="middle" font-family="sans-serif" fill="#111827">마켓 / 최근 반영 시점 / 일별</text><line x1="80.0" y1="52.0" x2="1198.0" y2="52.0" stroke="#e5e7eb" stroke-width="1"/><text x="72.0" y="56.0" font-size="11" text-anchor="end" font-family="sans-serif" fill="#374151">493,407</text><text x="1206.0" y="56.0" font-size="11" text-anchor="start" font-family="sans-serif" fill="#374151">873,311</text><line x1="80.0" y1="114.4" x2="1198.0" y2="114.4" stroke="#e5e7eb" stroke-width="1"/><text x="72.0" y="118.4" font-size="11" text-anchor="end" font-family="sans-serif" fill="#374151">394,726</text><text x="1206.0" y="118.4" font-size="11" text-anchor="start" font-family="sans-serif" fill="#374151">698,649</text><line x1="80.0" y1="176.8" x2="1198.0" y2="176.8" stroke="#e5e7eb" stroke-width="1"/><text x="72.0" y="180.8" font-size="11" text-anchor="end" font-family="sans-serif" fill="#374151">296,044</text><text x="1206.0" y="180.8" font-size="11" text-anchor="start" font-family="sans-serif" fill="#374151">523,987</text><line x1="80.0" y1="239.2" x2="1198.0" y2="239.2" stroke="#e5e7eb" stroke-width="1"/><text x="72.0" y="243.2" font-size="11" text-anchor="end" font-family="sans-serif" fill="#374151">197,363</text><text x="1206.0" y="243.2" font-size="11" text-anchor="start" font-family="sans-serif" fill="#374151">349,324</text><line x1="80.0" y1="301.6" x2="1198.0" y2="301.6" stroke="#e5e7eb" stroke-width="1"/><text x="72.0" y="305.6" font-size="11" text-anchor="end" font-family="sans-serif" fill="#374151">98,681</text><text x="1206.0" y="305.6" font-size="11" text-anchor="start" font-family="sans-serif" fill="#374151">174,662</text><line x1="80.0" y1="364.0" x2="1198.0" y2="364.0" stroke="#e5e7eb" stroke-width="1"/><text x="72.0" y="368.0" font-size="11" text-anchor="end" font-family="sans-serif" fill="#374151">0</text><text x="1206.0" y="368.0" font-size="11" text-anchor="start" font-family="sans-serif" fill="#374151">0</text><line x1="80.0" y1="364.0" x2="1198.0" y2="364.0" stroke="#111827" stroke-width="1.2"/><line x1="80.0" y1="52.0" x2="80.0" y2="364.0" stroke="#111827" stroke-width="1.2"/><line x1="1198.0" y1="52.0" x2="1198.0" y2="364.0" stroke="#111827" stroke-width="1.2"/><rect x="81.0" y="346.1" width="24.6" height="17.9" fill="#93c5fd" stroke="#60a5fa" stroke-width="0.5"/><rect x="107.6" y="358.6" width="24.6" height="5.4" fill="#93c5fd" stroke="#60a5fa" stroke-width="0.5"/><rect x="134.2" y="52.0" width="24.6" height="312.0" fill="#93c5fd" stroke="#60a5fa" stroke-width="0.5"/><rect x="160.9" y="361.7" width="24.6" height="2.3" fill="#93c5fd" stroke="#60a5fa" stroke-width="0.5"/><rect x="187.5" y="361.2" width="24.6" height="2.8" fill="#93c5fd" stroke="#60a5fa" stroke-width="0.5"/><rect x="214.1" y="361.0" width="24.6" height="3.0" fill="#93c5fd" stroke="#60a5fa" stroke-width="0.5"/><rect x="240.7" y="362.6" width="24.6" height="1.4" fill="#93c5fd" stroke="#60a5fa" stroke-width="0.5"/><rect x="267.3" y="357.9" width="24.6" height="6.1" fill="#93c5fd" stroke="#60a5fa" stroke-width="0.5"/><rect x="294.0" y="360.4" width="24.6" height="3.6" fill="#93c5fd" stroke="#60a5fa" stroke-width="0.5"/><rect x="320.6" y="361.1" width="24.6" height="2.9" fill="#93c5fd" stroke="#60a5fa" stroke-width="0.5"/><rect x="347.2" y="360.7" width="24.6" height="3.3" fill="#93c5fd" stroke="#60a5fa" stroke-width="0.5"/><rect x="373.8" y="359.4" width="24.6" height="4.6" fill="#93c5fd" stroke="#60a5fa" stroke-width="0.5"/><rect x="400.4" y="359.7" width="24.6" height="4.3" fill="#93c5fd" stroke="#60a5fa" stroke-width="0.5"/><rect x="427.0" y="360.0" width="24.6" height="4.0" fill="#93c5fd" stroke="#60a5fa" stroke-width="0.5"/><rect x="453.7" y="358.9" width="24.6" height="5.1" fill="#93c5fd" stroke="#60a5fa" stroke-width="0.5"/><rect x="480.3" y="358.9" width="24.6" height="5.1" fill="#93c5fd" stroke="#60a5fa" stroke-width="0.5"/><rect x="506.9" y="359.7" width="24.6" height="4.3" fill="#93c5fd" stroke="#60a5fa" stroke-width="0.5"/><rect x="533.5" y="359.4" width="24.6" height="4.6" fill="#93c5fd" stroke="#60a5fa" stroke-width="0.5"/><rect x="560.1" y="359.3" width="24.6" height="4.7" fill="#93c5fd" stroke="#60a5fa" stroke-width="0.5"/><rect x="586.8" y="358.6" width="24.6" height="5.4" fill="#93c5fd" stroke="#60a5fa" stroke-width="0.5"/><rect x="613.4" y="358.7" width="24.6" height="5.3" fill="#93c5fd" stroke="#60a5fa" stroke-width="0.5"/><rect x="640.0" y="359.5" width="24.6" height="4.5" fill="#93c5fd" stroke="#60a5fa" stroke-width="0.5"/><rect x="666.6" y="358.2" width="24.6" height="5.8" fill="#93c5fd" stroke="#60a5fa" stroke-width="0.5"/><rect x="693.2" y="359.1" width="24.6" height="4.9" fill="#93c5fd" stroke="#60a5fa" stroke-width="0.5"/><rect x="719.9" y="359.1" width="24.6" height="4.9" fill="#93c5fd" stroke="#60a5fa" stroke-width="0.5"/><rect x="746.5" y="358.4" width="24.6" height="5.6" fill="#93c5fd" stroke="#60a5fa" stroke-width="0.5"/><rect x="773.1" y="358.0" width="24.6" height="6.0" fill="#93c5fd" stroke="#60a5fa" stroke-width="0.5"/><rect x="799.7" y="357.5" width="24.6" height="6.5" fill="#93c5fd" stroke="#60a5fa" stroke-width="0.5"/><rect x="826.3" y="359.8" width="24.6" height="4.2" fill="#93c5fd" stroke="#60a5fa" stroke-width="0.5"/><rect x="853.0" y="359.7" width="24.6" height="4.3" fill="#93c5fd" stroke="#60a5fa" stroke-width="0.5"/><rect x="879.6" y="358.9" width="24.6" height="5.1" fill="#93c5fd" stroke="#60a5fa" stroke-width="0.5"/><rect x="906.2" y="358.9" width="24.6" height="5.1" fill="#93c5fd" stroke="#60a5fa" stroke-width="0.5"/><rect x="932.8" y="359.5" width="24.6" height="4.5" fill="#93c5fd" stroke="#60a5fa" stroke-width="0.5"/><rect x="959.4" y="358.2" width="24.6" height="5.8" fill="#93c5fd" stroke="#60a5fa" stroke-width="0.5"/><rect x="986.0" y="358.4" width="24.6" height="5.6" fill="#93c5fd" stroke="#60a5fa" stroke-width="0.5"/><rect x="1012.7" y="357.6" width="24.6" height="6.4" fill="#93c5fd" stroke="#60a5fa" stroke-width="0.5"/><rect x="1039.3" y="357.8" width="24.6" height="6.2" fill="#93c5fd" stroke="#60a5fa" stroke-width="0.5"/><rect x="1065.9" y="356.4" width="24.6" height="7.6" fill="#93c5fd" stroke="#60a5fa" stroke-width="0.5"/><rect x="1092.5" y="359.3" width="24.6" height="4.7" fill="#93c5fd" stroke="#60a5fa" stroke-width="0.5"/><rect x="1119.1" y="359.6" width="24.6" height="4.4" fill="#93c5fd" stroke="#60a5fa" stroke-width="0.5"/><rect x="1145.8" y="357.1" width="24.6" height="6.9" fill="#93c5fd" stroke="#60a5fa" stroke-width="0.5"/><rect x="1172.4" y="329.0" width="24.6" height="35.0" fill="#93c5fd" stroke="#60a5fa" stroke-width="0.5"/><polyline fill="none" stroke="#ef4444" stroke-width="2" points="93.3,353.9 119.9,350.8 146.5,174.6 173.2,173.2 199.8,171.6 226.4,170.0 253.0,169.2 279.6,165.7 306.3,163.7 332.9,162.1 359.5,160.2 386.1,157.6 412.7,155.2 439.4,153.0 466.0,150.1 492.6,147.2 519.2,144.8 545.8,142.2 572.5,139.5 599.1,136.5 625.7,133.5 652.3,131.0 678.9,127.7 705.5,124.9 732.2,122.1 758.8,119.0 785.4,115.6 812.0,111.9 838.6,109.5 865.3,107.1 891.9,104.2 918.5,101.3 945.1,98.7 971.7,95.5 998.4,92.3 1025.0,88.7 1051.6,85.1 1078.2,80.9 1104.8,78.2 1131.5,75.7 1158.1,71.8 1184.7,52.0"/><line x1="93.3" y1="364.0" x2="93.3" y2="370.0" stroke="#111827" stroke-width="1"/><text x="95.3" y="386.0" font-size="11" text-anchor="end" transform="rotate(-35 95.3 386.0)" font-family="sans-serif" fill="#374151">2026-02-28</text><line x1="253.0" y1="364.0" x2="253.0" y2="370.0" stroke="#111827" stroke-width="1"/><text x="255.0" y="386.0" font-size="11" text-anchor="end" transform="rotate(-35 255.0 386.0)" font-family="sans-serif" fill="#374151">2026-03-08</text><line x1="412.7" y1="364.0" x2="412.7" y2="370.0" stroke="#111827" stroke-width="1"/><text x="414.7" y="386.0" font-size="11" text-anchor="end" transform="rotate(-35 414.7 386.0)" font-family="sans-serif" fill="#374151">2026-03-14</text><line x1="572.5" y1="364.0" x2="572.5" y2="370.0" stroke="#111827" stroke-width="1"/><text x="574.5" y="386.0" font-size="11" text-anchor="end" transform="rotate(-35 574.5 386.0)" font-family="sans-serif" fill="#374151">2026-03-20</text><line x1="705.5" y1="364.0" x2="705.5" y2="370.0" stroke="#111827" stroke-width="1"/><text x="707.5" y="386.0" font-size="11" text-anchor="end" transform="rotate(-35 707.5 386.0)" font-family="sans-serif" fill="#374151">2026-03-25</text><line x1="865.3" y1="364.0" x2="865.3" y2="370.0" stroke="#111827" stroke-width="1"/><text x="867.3" y="386.0" font-size="11" text-anchor="end" transform="rotate(-35 867.3 386.0)" font-family="sans-serif" fill="#374151">2026-03-31</text><line x1="1025.0" y1="364.0" x2="1025.0" y2="370.0" stroke="#111827" stroke-width="1"/><text x="1027.0" y="386.0" font-size="11" text-anchor="end" transform="rotate(-35 1027.0 386.0)" font-family="sans-serif" fill="#374151">2026-04-06</text><line x1="1184.7" y1="364.0" x2="1184.7" y2="370.0" stroke="#111827" stroke-width="1"/><text x="1186.7" y="386.0" font-size="11" text-anchor="end" transform="rotate(-35 1186.7 386.0)" font-family="sans-serif" fill="#374151">2026-04-12</text><text x="26" y="208.0" font-size="12" transform="rotate(-90 26 208.0)" text-anchor="middle" font-family="sans-serif" fill="#1f2937">구간별 수</text><text x="1256.0" y="208.0" font-size="12" transform="rotate(90 1256.0 208.0)" text-anchor="middle" font-family="sans-serif" fill="#1f2937">누적</text><text x="639.0" y="442.0" font-size="13" text-anchor="middle" font-family="sans-serif" fill="#111827">일</text></svg>