<svg xmlns="http://www.w3.org/2000/svg" width="1280" height="460" viewBox="0 0 1280 460"><rect x="0" y="0" width="100%" height="100%" fill="#ffffff"/><text x="640.0" y="28" font-size="20" text-anchor="middle" font-family="sans-serif" fill="#111827">마켓 / 최근 반영 시점 / 일별</text><line x1="80.0" y1="52.0" x2="1198.0" y2="52.0" stroke="#e5e7eb" stroke-width="1"/><text x="72.0" y="56.0" font-size="11" text-anchor="end" font-family="sans-serif" fill="#374151">493,407</text><text x="1206.0" y="56.0" font-size="11" text-anchor="start" font-family="sans-serif" fill="#374151">962,506</text><line x1="80.0" y1="114.4" x2="1198.0" y2="114.4" stroke="#e5e7eb" stroke-width="1"/><text x="72.0" y="118.4" font-size="11" text-anchor="end" font-family="sans-serif" fill="#374151">394,726</text><text x="1206.0" y="118.4" font-size="11" text-anchor="start" font-family="sans-serif" fill="#374151">770,005</text><line x1="80.0" y1="176.8" x2="1198.0" y2="176.8" stroke="#e5e7eb" stroke-width="1"/><text x="72.0" y="180.8" font-size="11" text-anchor="end" font-family="sans-serif" fill="#374151">296,044</text><text x="1206.0" y="180.8" font-size="11" text-anchor="start" font-family="sans-serif" fill="#374151">577,504</text><line x1="80.0" y1="239.2" x2="1198.0" y2="239.2" stroke="#e5e7eb" stroke-width="1"/><text x="72.0" y="243.2" font-size="11" text-anchor="end" font-family="sans-serif" fill="#374151">197,363</text><text x="1206.0" y="243.2" font-size="11" text-anchor="start" font-family="sans-serif" fill="#374151">385,002</text><line x1="80.0" y1="301.6" x2="1198.0" y2="301.6" stroke="#e5e7eb" stroke-width="1"/><text x="72.0" y="305.6" font-size="11" text-anchor="end" font-family="sans-serif" fill="#374151">98,681</text><text x="1206.0" y="305.6" font-size="11" text-anchor="start" font-family="sans-serif" fill="#374151">192,501</text><line x1="80.0" y1="364.0" x2="1198.0" y2="364.0" stroke="#e5e7eb" stroke-width="1"/><text x="72.0" y="368.0" font-size="11" text-anchor="end" font-family="sans-serif" fill="#374151">0</text><text x="1206.0" y="368.0" font-size="11" text-anchor="start" font-family="sans-serif" fill="#374151">0</text><line x1="80.0" y1="364.0" x2="1198.0" y2="364.0" stroke="#111827" stroke-width="1.2"/><line x1="80.0" y1="52.0" x2="80.0" y2="364.0" stroke="#111827" stroke-width="1.2"/><line x1="1198.0" y1="52.0" x2="1198.0" y2="364.0" stroke="#111827" stroke-width="1.2"/><rect x="81.0" y="346.1" width="19.1" height="17.9" fill="#93c5fd" stroke="#60a5fa" stroke-width="0.5"/><rect x="102.1" y="358.6" width="19.1" height="5.4" fill="#93c5fd" stroke="#60a5fa" stroke-width="0.5"/><rect x="123.2" y="52.0" width="19.1" height="312.0" fill="#93c5fd" stroke="#60a5fa" stroke-width="0.5"/><rect x="144.3" y="361.7" width="19.1" height="2.3" fill="#93c5fd" stroke="#60a5fa" stroke-width="0.5"/><rect x="165.4" y="361.2" width="19.1" height="2.8" fill="#93c5fd" stroke="#60a5fa" stroke-width="0.5"/><rect x="186.5" y="361.0" width="19.1" height="3.0" fill="#93c5fd" stroke="#60a5fa" stroke-width="0.5"/><rect x="207.6" y="362.6" width="19.1" height="1.4" fill="#93c5fd" stroke="#60a5fa" stroke-width="0.5"/><rect x="228.7" y="357.9" width="19.1" height="6.1" fill="#93c5fd" stroke="#60a5fa" stroke-width="0.5"/><rect x="249.8" y="360.4" width="19.1" height="3.6" fill="#93c5fd" stroke="#60a5fa" stroke-width="0.5"/><rect x="270.8" y="361.1" width="19.1" height="2.9" fill="#93c5fd" stroke="#60a5fa" stroke-width="0.5"/><rect x="291.9" y="360.7" width="19.1" height="3.3" fill="#93c5fd" stroke="#60a5fa" stroke-width="0.5"/><rect x="313.0" y="359.4" width="19.1" height="4.6" fill="#93c5fd" stroke="#60a5fa" stroke-width="0.5"/><rect x="334.1" y="359.7" width="19.1" height="4.3" fill="#93c5fd" stroke="#60a5fa" stroke-width="0.5"/><rect x="355.2" y="360.0" width="19.1" height="4.0" fill="#93c5fd" stroke="#60a5fa" stroke-width="0.5"/><rect x="376.3" y="358.9" width="19.1" height="5.1" fill="#93c5fd" stroke="#60a5fa" stroke-width="0.5"/><rect x="397.4" y="358.9" width="19.1" height="5.1" fill="#93c5fd" stroke="#60a5fa" stroke-width="0.5"/><rect x="418.5" y="359.7" width="19.1" height="4.3" fill="#93c5fd" stroke="#60a5fa" stroke-width="0.5"/><rect x="439.6" y="359.4" width="19.1" height="4.6" fill="#93c5fd" stroke="#60a5fa" stroke-width="0.5"/><rect x="460.7" y="359.3" width="19.1" height="4.7" fill="#93c5fd" stroke="#60a5fa" stroke-width="0.5"/><rect x="481.8" y="358.6" width="19.1" height="5.4" fill="#93c5fd" stroke="#60a5fa" stroke-width="0.5"/><rect x="502.9" y="358.7" width="19.1" height="5.3" fill="#93c5fd" stroke="#60a5fa" stroke-width="0.5"/><rect x="524.0" y="359.5" width="19.1" height="4.5" fill="#93c5fd" stroke="#60a5fa" stroke-width="0.5"/><rect x="545.1" y="358.2" width="19.1" height="5.8" fill="#93c5fd" stroke="#60a5fa" stroke-width="0.5"/><rect x="566.2" y="359.1" width="19.1" height="4.9" fill="#93c5fd" stroke="#60a5fa" stroke-width="0.5"/><rect x="587.3" y="359.1" width="19.1" height="4.9" fill="#93c5fd" stroke="#60a5fa" stroke-width="0.5"/><rect x="608.4" y="358.4" width="19.1" height="5.6" fill="#93c5fd" stroke="#60a5fa" stroke-width="0.5"/><rect x="629.5" y="358.0" width="19.1" height="6.0" fill="#93c5fd" stroke="#60a5fa" stroke-width="0.5"/><rect x="650.5" y="357.5" width="19.1" height="6.5" fill="#93c5fd" stroke="#60a5fa" stroke-width="0.5"/><rect x="671.6" y="359.8" width="19.1" height="4.2" fill="#93c5fd" stroke="#60a5fa" stroke-width="0.5"/><rect x="692.7" y="359.7" width="19.1" height="4.3" fill="#93c5fd" stroke="#60a5fa" stroke-width="0.5"/><rect x="713.8" y="358.9" width="19.1" height="5.1" fill="#93c5fd" stroke="#60a5fa" stroke-width="0.5"/><rect x="734.9" y="358.9" width="19.1" height="5.1" fill="#93c5fd" stroke="#60a5fa" stroke-width="0.5"/><rect x="756.0" y="359.5" width="19.1" height="4.5" fill="#93c5fd" stroke="#60a5fa" stroke-width="0.5"/><rect x="777.1" y="358.2" width="19.1" height="5.8" fill="#93c5fd" stroke="#60a5fa" stroke-width="0.5"/><rect x="798.2" y="358.4" width="19.1" height="5.6" fill="#93c5fd" stroke="#60a5fa" stroke-width="0.5"/><rect x="819.3" y="357.6" width="19.1" height="6.4" fill="#93c5fd" stroke="#60a5fa" stroke-width="0.5"/><rect x="840.4" y="357.8" width="19.1" height="6.2" fill="#93c5fd" stroke="#60a5fa" stroke-width="0.5"/><rect x="861.5" y="356.4" width="19.1" height="7.6" fill="#93c5fd" stroke="#60a5fa" stroke-width="0.5"/><rect x="882.6" y="359.3" width="19.1" height="4.7" fill="#93c5fd" stroke="#60a5fa" stroke-width="0.5"/><rect x="903.7" y="359.6" width="19.1" height="4.4" fill="#93c5fd" stroke="#60a5fa" stroke-width="0.5"/><rect x="924.8" y="357.1" width="19.1" height="6.9" fill="#93c5fd" stroke="#60a5fa" stroke-width="0.5"/><rect x="945.9" y="356.9" width="19.1" height="7.1" fill="#93c5fd" stroke="#60a5fa" stroke-width="0.5"/><rect x="967.0" y="358.8" width="19.1" height="5.2" fill="#93c5fd" stroke="#60a5fa" stroke-width="0.5"/><rect x="988.1" y="359.0" width="19.1" height="5.0" fill="#93c5fd" stroke="#60a5fa" stroke-width="0.5"/><rect x="1009.2" y="360.1" width="19.1" height="3.9" fill="#93c5fd" stroke="#60a5fa" stroke-width="0.5"/><rect x="1030.2" y="359.4" width="19.1" height="4.6" fill="#93c5fd" stroke="#60a5fa" stroke-width="0.5"/><rect x="1051.3" y="359.5" width="19.1" height="4.5" fill="#93c5fd" stroke="#60a5fa" stroke-width="0.5"/><rect x="1072.4" y="357.5" width="19.1" height="6.5" fill="#93c5fd" stroke="#60a5fa" stroke-width="0.5"/><rect x="1093.5" y="358.0" width="19.1" height="6.0" fill="#93c5fd" stroke="#60a5fa" stroke-width="0.5"/><rect x="1114.6" y="359.0" width="19.1" height="5.0" fill="#93c5fd" stroke="#60a5fa" stroke-width="0.5"/><rect x="1135.7" y="359.5" width="19.1" height="4.5" fill="#93c5fd" stroke="#60a5fa" stroke-width="0.5"/><rect x="1156.8" y="358.5" width="19.1" height="5.5" fill="#93c5fd" stroke="#60a5fa" stroke-width="0.5"/><rect x="1177.9" y="330.3" width="19.1" height="33.7" fill="#93c5fd" stroke="#60a5fa" stroke-width="0.5"/><polyline fill="none" stroke="#ef4444" stroke-width="2" points="90.5,354.8 111.6,352.1 132.7,192.1 153.8,190.9 174.9,189.5 196.0,188.0 217.1,187.3 238.2,184.1 259.3,182.3 280.4,180.8 301.5,179.1 322.6,176.8 343.7,174.6 364.8,172.5 385.9,169.9 407.0,167.3 428.1,165.1 449.2,162.8 470.2,160.3 491.3,157.6 512.4,154.9 533.5,152.6 554.6,149.6 575.7,147.1 596.8,144.6 617.9,141.7 639.0,138.6 660.1,135.3 681.2,133.1 702.3,130.9 723.4,128.3 744.5,125.7 765.6,123.3 786.7,120.4 807.8,117.5 828.8,114.2 849.9,111.0 871.0,107.1 892.1,104.7 913.2,102.4 934.3,98.9 955.4,95.3 976.5,92.6 997.6,90.1 1018.7,88.0 1039.8,85.7 1060.9,83.4 1082.0,80.1 1103.1,77.0 1124.2,74.4 1145.3,72.1 1166.4,69.3 1187.5,52.0"/><line x1="90.5" y1="364.0" x2="90.5" y2="370.0" stroke="#111827" stroke-width="1"/><text x="92.5" y="386.0" font-size="11" text-anchor="end" transform="rotate(-35 92.5 386.0)" font-family="sans-serif" fill="#374151">2026-02-28</text><line x1="238.2" y1="364.0" x2="238.2" y2="370.0" stroke="#111827" stroke-width="1"/><text x="240.2" y="386.0" font-size="11" text-anchor="end" transform="rotate(-35 240.2 386.0)" font-family="sans-serif" fill="#374151">2026-03-09</text><line x1="407.0" y1="364.0" x2="407.0" y2="370.0" stroke="#111827" stroke-width="1"/><text x="409.0" y="386.0" font-size="11" text-anchor="end" transform="rotate(-35 409.0 386.0)" font-family="sans-serif" fill="#374151">2026-03-17</text><line x1="554.6" y1="364.0" x2="554.6" y2="370.0" stroke="#111827" stroke-width="1"/><text x="556.6" y="386.0" font-size="11" text-anchor="end" transform="rotate(-35 556.6 386.0)" font-family="sans-serif" fill="#374151">2026-03-24</text><line x1="723.4" y1="364.0" x2="723.4" y2="370.0" stroke="#111827" stroke-width="1"/><text x="725.4" y="386.0" font-size="11" text-anchor="end" transform="rotate(-35 725.4 386.0)" font-family="sans-serif" fill="#374151">2026-04-01</text><line x1="871.0" y1="364.0" x2="871.0" y2="370.0" stroke="#111827" stroke-width="1"/><text x="873.0" y="386.0" font-size="11" text-anchor="end" transform="rotate(-35 873.0 386.0)" font-family="sans-serif" fill="#374151">2026-04-08</text><line x1="1039.8" y1="364.0" x2="1039.8" y2="370.0" stroke="#111827" stroke-width="1"/><text x="1041.8" y="386.0" font-size="11" text-anchor="end" transform="rotate(-35 1041.8 386.0)" font-family="sans-serif" fill="#374151">2026-04-16</text><line x1="1187.5" y1="364.0" x2="1187.5" y2="370.0" stroke="#111827" stroke-width="1"/><text x="1189.5" y="386.0" font-size="11" text-anchor="end" transform="rotate(-35 1189.5 386.0)" font-family="sans-serif" fill="#374151">2026-04-23</text><text x="26" y="208.0" font-size="12" transform="rotate(-90 26 208.0)" text-anchor="middle" font-family="sans-serif" fill="#1f2937">구간별 수</text><text x="1256.0" y="208.0" font-size="12" transform="rotate(90 1256.0 208.0)" text-anchor="middle" font-family="sans-serif" fill="#1f2937">누적</text><text x="639.0" y="442.0" font-size="13" text-anchor="middle" font-family="sans-serif" fill="#111827">일</text></svg>