<svg xmlns="http://www.w3.org/2000/svg" width="1280" height="460" viewBox="0 0 1280 460"><rect x="0" y="0" width="100%" height="100%" fill="#ffffff"/><text x="640.0" y="28" font-size="20" text-anchor="middle" font-family="sans-serif" fill="#111827">마켓 / 최근 반영 시점 / 일별</text><line x1="80.0" y1="52.0" x2="1198.0" y2="52.0" stroke="#e5e7eb" stroke-width="1"/><text x="72.0" y="56.0" font-size="11" text-anchor="end" font-family="sans-serif" fill="#374151">493,407</text><text x="1206.0" y="56.0" font-size="11" text-anchor="start" font-family="sans-serif" fill="#374151">963,996</text><line x1="80.0" y1="114.4" x2="1198.0" y2="114.4" stroke="#e5e7eb" stroke-width="1"/><text x="72.0" y="118.4" font-size="11" text-anchor="end" font-family="sans-serif" fill="#374151">394,726</text><text x="1206.0" y="118.4" font-size="11" text-anchor="start" font-family="sans-serif" fill="#374151">771,197</text><line x1="80.0" y1="176.8" x2="1198.0" y2="176.8" stroke="#e5e7eb" stroke-width="1"/><text x="72.0" y="180.8" font-size="11" text-anchor="end" font-family="sans-serif" fill="#374151">296,044</text><text x="1206.0" y="180.8" font-size="11" text-anchor="start" font-family="sans-serif" fill="#374151">578,398</text><line x1="80.0" y1="239.2" x2="1198.0" y2="239.2" stroke="#e5e7eb" stroke-width="1"/><text x="72.0" y="243.2" font-size="11" text-anchor="end" font-family="sans-serif" fill="#374151">197,363</text><text x="1206.0" y="243.2" font-size="11" text-anchor="start" font-family="sans-serif" fill="#374151">385,598</text><line x1="80.0" y1="301.6" x2="1198.0" y2="301.6" stroke="#e5e7eb" stroke-width="1"/><text x="72.0" y="305.6" font-size="11" text-anchor="end" font-family="sans-serif" fill="#374151">98,681</text><text x="1206.0" y="305.6" font-size="11" text-anchor="start" font-family="sans-serif" fill="#374151">192,799</text><line x1="80.0" y1="364.0" x2="1198.0" y2="364.0" stroke="#e5e7eb" stroke-width="1"/><text x="72.0" y="368.0" font-size="11" text-anchor="end" font-family="sans-serif" fill="#374151">0</text><text x="1206.0" y="368.0" font-size="11" text-anchor="start" font-family="sans-serif" fill="#374151">0</text><line x1="80.0" y1="364.0" x2="1198.0" y2="364.0" stroke="#111827" stroke-width="1.2"/><line x1="80.0" y1="52.0" x2="80.0" y2="364.0" stroke="#111827" stroke-width="1.2"/><line x1="1198.0" y1="52.0" x2="1198.0" y2="364.0" stroke="#111827" stroke-width="1.2"/><rect x="81.0" y="346.1" width="19.1" height="17.9" fill="#93c5fd" stroke="#60a5fa" stroke-width="0.5"/><rect x="102.1" y="358.6" width="19.1" height="5.4" fill="#93c5fd" stroke="#60a5fa" stroke-width="0.5"/><rect x="123.2" y="52.0" width="19.1" height="312.0" fill="#93c5fd" stroke="#60a5fa" stroke-width="0.5"/><rect x="144.3" y="361.7" width="19.1" height="2.3" fill="#93c5fd" stroke="#60a5fa" stroke-width="0.5"/><rect x="165.4" y="361.2" width="19.1" height="2.8" fill="#93c5fd" stroke="#60a5fa" stroke-width="0.5"/><rect x="186.5" y="361.0" width="19.1" height="3.0" fill="#93c5fd" stroke="#60a5fa" stroke-width="0.5"/><rect x="207.6" y="362.6" width="19.1" height="1.4" fill="#93c5fd" stroke="#60a5fa" stroke-width="0.5"/><rect x="228.7" y="357.9" width="19.1" height="6.1" fill="#93c5fd" stroke="#60a5fa" stroke-width="0.5"/><rect x="249.8" y="360.4" width="19.1" height="3.6" fill="#93c5fd" stroke="#60a5fa" stroke-width="0.5"/><rect x="270.8" y="361.1" width="19.1" height="2.9" fill="#93c5fd" stroke="#60a5fa" stroke-width="0.5"/><rect x="291.9" y="360.7" width="19.1" height="3.3" fill="#93c5fd" stroke="#60a5fa" stroke-width="0.5"/><rect x="313.0" y="359.4" width="19.1" height="4.6" fill="#93c5fd" stroke="#60a5fa" stroke-width="0.5"/><rect x="334.1" y="359.7" width="19.1" height="4.3" fill="#93c5fd" stroke="#60a5fa" stroke-width="0.5"/><rect x="355.2" y="360.0" width="19.1" height="4.0" fill="#93c5fd" stroke="#60a5fa" stroke-width="0.5"/><rect x="376.3" y="358.9" width="19.1" height="5.1" fill="#93c5fd" stroke="#60a5fa" stroke-width="0.5"/><rect x="397.4" y="358.9" width="19.1" height="5.1" fill="#93c5fd" stroke="#60a5fa" stroke-width="0.5"/><rect x="418.5" y="359.7" width="19.1" height="4.3" fill="#93c5fd" stroke="#60a5fa" stroke-width="0.5"/><rect x="439.6" y="359.4" width="19.1" height="4.6" fill="#93c5fd" stroke="#60a5fa" stroke-width="0.5"/><rect x="460.7" y="359.3" width="19.1" height="4.7" fill="#93c5fd" stroke="#60a5fa" stroke-width="0.5"/><rect x="481.8" y="358.6" width="19.1" height="5.4" fill="#93c5fd" stroke="#60a5fa" stroke-width="0.5"/><rect x="502.9" y="358.7" width="19.1" height="5.3" fill="#93c5fd" stroke="#60a5fa" stroke-width="0.5"/><rect x="524.0" y="359.5" width="19.1" height="4.5" fill="#93c5fd" stroke="#60a5fa" stroke-width="0.5"/><rect x="545.1" y="358.2" width="19.1" height="5.8" fill="#93c5fd" stroke="#60a5fa" stroke-width="0.5"/><rect x="566.2" y="359.1" width="19.1" height="4.9" fill="#93c5fd" stroke="#60a5fa" stroke-width="0.5"/><rect x="587.3" y="359.1" width="19.1" height="4.9" fill="#93c5fd" stroke="#60a5fa" stroke-width="0.5"/><rect x="608.4" y="358.4" width="19.1" height="5.6" fill="#93c5fd" stroke="#60a5fa" stroke-width="0.5"/><rect x="629.5" y="358.0" width="19.1" height="6.0" fill="#93c5fd" stroke="#60a5fa" stroke-width="0.5"/><rect x="650.5" y="357.5" width="19.1" height="6.5" fill="#93c5fd" stroke="#60a5fa" stroke-width="0.5"/><rect x="671.6" y="359.8" width="19.1" height="4.2" fill="#93c5fd" stroke="#60a5fa" stroke-width="0.5"/><rect x="692.7" y="359.7" width="19.1" height="4.3" fill="#93c5fd" stroke="#60a5fa" stroke-width="0.5"/><rect x="713.8" y="358.9" width="19.1" height="5.1" fill="#93c5fd" stroke="#60a5fa" stroke-width="0.5"/><rect x="734.9" y="358.9" width="19.1" height="5.1" fill="#93c5fd" stroke="#60a5fa" stroke-width="0.5"/><rect x="756.0" y="359.5" width="19.1" height="4.5" fill="#93c5fd" stroke="#60a5fa" stroke-width="0.5"/><rect x="777.1" y="358.2" width="19.1" height="5.8" fill="#93c5fd" stroke="#60a5fa" stroke-width="0.5"/><rect x="798.2" y="358.4" width="19.1" height="5.6" fill="#93c5fd" stroke="#60a5fa" stroke-width="0.5"/><rect x="819.3" y="357.6" width="19.1" height="6.4" fill="#93c5fd" stroke="#60a5fa" stroke-width="0.5"/><rect x="840.4" y="357.8" width="19.1" height="6.2" fill="#93c5fd" stroke="#60a5fa" stroke-width="0.5"/><rect x="861.5" y="356.4" width="19.1" height="7.6" fill="#93c5fd" stroke="#60a5fa" stroke-width="0.5"/><rect x="882.6" y="359.3" width="19.1" height="4.7" fill="#93c5fd" stroke="#60a5fa" stroke-width="0.5"/><rect x="903.7" y="359.6" width="19.1" height="4.4" fill="#93c5fd" stroke="#60a5fa" stroke-width="0.5"/><rect x="924.8" y="357.1" width="19.1" height="6.9" fill="#93c5fd" stroke="#60a5fa" stroke-width="0.5"/><rect x="945.9" y="356.9" width="19.1" height="7.1" fill="#93c5fd" stroke="#60a5fa" stroke-width="0.5"/><rect x="967.0" y="358.8" width="19.1" height="5.2" fill="#93c5fd" stroke="#60a5fa" stroke-width="0.5"/><rect x="988.1" y="359.0" width="19.1" height="5.0" fill="#93c5fd" stroke="#60a5fa" stroke-width="0.5"/><rect x="1009.2" y="360.1" width="19.1" height="3.9" fill="#93c5fd" stroke="#60a5fa" stroke-width="0.5"/><rect x="1030.2" y="359.4" width="19.1" height="4.6" fill="#93c5fd" stroke="#60a5fa" stroke-width="0.5"/><rect x="1051.3" y="359.5" width="19.1" height="4.5" fill="#93c5fd" stroke="#60a5fa" stroke-width="0.5"/><rect x="1072.4" y="357.5" width="19.1" height="6.5" fill="#93c5fd" stroke="#60a5fa" stroke-width="0.5"/><rect x="1093.5" y="358.0" width="19.1" height="6.0" fill="#93c5fd" stroke="#60a5fa" stroke-width="0.5"/><rect x="1114.6" y="359.0" width="19.1" height="5.0" fill="#93c5fd" stroke="#60a5fa" stroke-width="0.5"/><rect x="1135.7" y="359.5" width="19.1" height="4.5" fill="#93c5fd" stroke="#60a5fa" stroke-width="0.5"/><rect x="1156.8" y="358.7" width="19.1" height="5.3" fill="#93c5fd" stroke="#60a5fa" stroke-width="0.5"/><rect x="1177.9" y="329.2" width="19.1" height="34.8" fill="#93c5fd" stroke="#60a5fa" stroke-width="0.5"/><polyline fill="none" stroke="#ef4444" stroke-width="2" points="90.5,354.8 111.6,352.1 132.7,192.4 153.8,191.2 174.9,189.8 196.0,188.2 217.1,187.5 238.2,184.4 259.3,182.6 280.4,181.1 301.5,179.4 322.6,177.1 343.7,174.9 364.8,172.8 385.9,170.2 407.0,167.6 428.1,165.4 449.2,163.1 470.2,160.7 491.3,157.9 512.4,155.2 533.5,152.9 554.6,149.9 575.7,147.4 596.8,144.9 617.9,142.0 639.0,139.0 660.1,135.6 681.2,133.5 702.3,131.2 723.4,128.6 744.5,126.0 765.6,123.7 786.7,120.8 807.8,117.9 828.8,114.6 849.9,111.4 871.0,107.5 892.1,105.1 913.2,102.8 934.3,99.3 955.4,95.7 976.5,93.0 997.6,90.5 1018.7,88.5 1039.8,86.1 1060.9,83.8 1082.0,80.5 1103.1,77.4 1124.2,74.8 1145.3,72.5 1166.4,69.8 1187.5,52.0"/><line x1="90.5" y1="364.0" x2="90.5" y2="370.0" stroke="#111827" stroke-width="1"/><text x="92.5" y="386.0" font-size="11" text-anchor="end" transform="rotate(-35 92.5 386.0)" font-family="sans-serif" fill="#374151">2026-02-28</text><line x1="238.2" y1="364.0" x2="238.2" y2="370.0" stroke="#111827" stroke-width="1"/><text x="240.2" y="386.0" font-size="11" text-anchor="end" transform="rotate(-35 240.2 386.0)" font-family="sans-serif" fill="#374151">2026-03-09</text><line x1="407.0" y1="364.0" x2="407.0" y2="370.0" stroke="#111827" stroke-width="1"/><text x="409.0" y="386.0" font-size="11" text-anchor="end" transform="rotate(-35 409.0 386.0)" font-family="sans-serif" fill="#374151">2026-03-17</text><line x1="554.6" y1="364.0" x2="554.6" y2="370.0" stroke="#111827" stroke-width="1"/><text x="556.6" y="386.0" font-size="11" text-anchor="end" transform="rotate(-35 556.6 386.0)" font-family="sans-serif" fill="#374151">2026-03-24</text><line x1="723.4" y1="364.0" x2="723.4" y2="370.0" stroke="#111827" stroke-width="1"/><text x="725.4" y="386.0" font-size="11" text-anchor="end" transform="rotate(-35 725.4 386.0)" font-family="sans-serif" fill="#374151">2026-04-01</text><line x1="871.0" y1="364.0" x2="871.0" y2="370.0" stroke="#111827" stroke-width="1"/><text x="873.0" y="386.0" font-size="11" text-anchor="end" transform="rotate(-35 873.0 386.0)" font-family="sans-serif" fill="#374151">2026-04-08</text><line x1="1039.8" y1="364.0" x2="1039.8" y2="370.0" stroke="#111827" stroke-width="1"/><text x="1041.8" y="386.0" font-size="11" text-anchor="end" transform="rotate(-35 1041.8 386.0)" font-family="sans-serif" fill="#374151">2026-04-16</text><line x1="1187.5" y1="364.0" x2="1187.5" y2="370.0" stroke="#111827" stroke-width="1"/><text x="1189.5" y="386.0" font-size="11" text-anchor="end" transform="rotate(-35 1189.5 386.0)" font-family="sans-serif" fill="#374151">2026-04-23</text><text x="26" y="208.0" font-size="12" transform="rotate(-90 26 208.0)" text-anchor="middle" font-family="sans-serif" fill="#1f2937">구간별 수</text><text x="1256.0" y="208.0" font-size="12" transform="rotate(90 1256.0 208.0)" text-anchor="middle" font-family="sans-serif" fill="#1f2937">누적</text><text x="639.0" y="442.0" font-size="13" text-anchor="middle" font-family="sans-serif" fill="#111827">일</text></svg>