<svg xmlns="http://www.w3.org/2000/svg" width="1280" height="460" viewBox="0 0 1280 460"><rect x="0" y="0" width="100%" height="100%" fill="#ffffff"/><text x="640.0" y="28" font-size="20" text-anchor="middle" font-family="sans-serif" fill="#111827">시리즈 / 생성 시점 / 일별</text><line x1="80.0" y1="52.0" x2="1198.0" y2="52.0" stroke="#e5e7eb" stroke-width="1"/><text x="72.0" y="56.0" font-size="11" text-anchor="end" font-family="sans-serif" fill="#374151">70</text><text x="1206.0" y="56.0" font-size="11" text-anchor="start" font-family="sans-serif" fill="#374151">1,446</text><line x1="80.0" y1="114.4" x2="1198.0" y2="114.4" stroke="#e5e7eb" stroke-width="1"/><text x="72.0" y="118.4" font-size="11" text-anchor="end" font-family="sans-serif" fill="#374151">56</text><text x="1206.0" y="118.4" font-size="11" text-anchor="start" font-family="sans-serif" fill="#374151">1,157</text><line x1="80.0" y1="176.8" x2="1198.0" y2="176.8" stroke="#e5e7eb" stroke-width="1"/><text x="72.0" y="180.8" font-size="11" text-anchor="end" font-family="sans-serif" fill="#374151">42</text><text x="1206.0" y="180.8" font-size="11" text-anchor="start" font-family="sans-serif" fill="#374151">868</text><line x1="80.0" y1="239.2" x2="1198.0" y2="239.2" stroke="#e5e7eb" stroke-width="1"/><text x="72.0" y="243.2" font-size="11" text-anchor="end" font-family="sans-serif" fill="#374151">28</text><text x="1206.0" y="243.2" font-size="11" text-anchor="start" font-family="sans-serif" fill="#374151">578</text><line x1="80.0" y1="301.6" x2="1198.0" y2="301.6" stroke="#e5e7eb" stroke-width="1"/><text x="72.0" y="305.6" font-size="11" text-anchor="end" font-family="sans-serif" fill="#374151">14</text><text x="1206.0" y="305.6" font-size="11" text-anchor="start" font-family="sans-serif" fill="#374151">289</text><line x1="80.0" y1="364.0" x2="1198.0" y2="364.0" stroke="#e5e7eb" stroke-width="1"/><text x="72.0" y="368.0" font-size="11" text-anchor="end" font-family="sans-serif" fill="#374151">0</text><text x="1206.0" y="368.0" font-size="11" text-anchor="start" font-family="sans-serif" fill="#374151">0</text><line x1="80.0" y1="364.0" x2="1198.0" y2="364.0" stroke="#111827" stroke-width="1.2"/><line x1="80.0" y1="52.0" x2="80.0" y2="364.0" stroke="#111827" stroke-width="1.2"/><line x1="1198.0" y1="52.0" x2="1198.0" y2="364.0" stroke="#111827" stroke-width="1.2"/><rect x="80.0" y="346.2" width="4.2" height="17.8" fill="#93c5fd" stroke="#60a5fa" stroke-width="0.5"/><rect x="84.2" y="359.5" width="4.2" height="4.5" fill="#93c5fd" stroke="#60a5fa" stroke-width="0.5"/><rect x="88.5" y="359.5" width="4.2" height="4.5" fill="#93c5fd" stroke="#60a5fa" stroke-width="0.5"/><rect x="92.7" y="355.1" width="4.2" height="8.9" fill="#93c5fd" stroke="#60a5fa" stroke-width="0.5"/><rect x="96.9" y="359.5" width="4.2" height="4.5" fill="#93c5fd" stroke="#60a5fa" stroke-width="0.5"/><rect x="101.2" y="350.6" width="4.2" height="13.4" fill="#93c5fd" stroke="#60a5fa" stroke-width="0.5"/><rect x="105.4" y="359.5" width="4.2" height="4.5" fill="#93c5fd" stroke="#60a5fa" stroke-width="0.5"/><rect x="109.6" y="359.5" width="4.2" height="4.5" fill="#93c5fd" stroke="#60a5fa" stroke-width="0.5"/><rect x="113.9" y="359.5" width="4.2" height="4.5" fill="#93c5fd" stroke="#60a5fa" stroke-width="0.5"/><rect x="118.1" y="359.5" width="4.2" height="4.5" fill="#93c5fd" stroke="#60a5fa" stroke-width="0.5"/><rect x="122.3" y="359.5" width="4.2" height="4.5" fill="#93c5fd" stroke="#60a5fa" stroke-width="0.5"/><rect x="126.6" y="359.5" width="4.2" height="4.5" fill="#93c5fd" stroke="#60a5fa" stroke-width="0.5"/><rect x="130.8" y="359.5" width="4.2" height="4.5" fill="#93c5fd" stroke="#60a5fa" stroke-width="0.5"/><rect x="135.1" y="355.1" width="4.2" height="8.9" fill="#93c5fd" stroke="#60a5fa" stroke-width="0.5"/><rect x="139.3" y="346.2" width="4.2" height="17.8" fill="#93c5fd" stroke="#60a5fa" stroke-width="0.5"/><rect x="143.5" y="359.5" width="4.2" height="4.5" fill="#93c5fd" stroke="#60a5fa" stroke-width="0.5"/><rect x="147.8" y="359.5" width="4.2" height="4.5" fill="#93c5fd" stroke="#60a5fa" stroke-width="0.5"/><rect x="152.0" y="350.6" width="4.2" height="13.4" fill="#93c5fd" stroke="#60a5fa" stroke-width="0.5"/><rect x="156.2" y="341.7" width="4.2" height="22.3" fill="#93c5fd" stroke="#60a5fa" stroke-width="0.5"/><rect x="160.5" y="306.1" width="4.2" height="57.9" fill="#93c5fd" stroke="#60a5fa" stroke-width="0.5"/><rect x="164.7" y="355.1" width="4.2" height="8.9" fill="#93c5fd" stroke="#60a5fa" stroke-width="0.5"/><rect x="168.9" y="350.6" width="4.2" height="13.4" fill="#93c5fd" stroke="#60a5fa" stroke-width="0.5"/><rect x="173.2" y="359.5" width="4.2" height="4.5" fill="#93c5fd" stroke="#60a5fa" stroke-width="0.5"/><rect x="177.4" y="350.6" width="4.2" height="13.4" fill="#93c5fd" stroke="#60a5fa" stroke-width="0.5"/><rect x="181.6" y="359.5" width="4.2" height="4.5" fill="#93c5fd" stroke="#60a5fa" stroke-width="0.5"/><rect x="185.9" y="341.7" width="4.2" height="22.3" fill="#93c5fd" stroke="#60a5fa" stroke-width="0.5"/><rect x="190.1" y="359.5" width="4.2" height="4.5" fill="#93c5fd" stroke="#60a5fa" stroke-width="0.5"/><rect x="194.3" y="359.5" width="4.2" height="4.5" fill="#93c5fd" stroke="#60a5fa" stroke-width="0.5"/><rect x="198.6" y="359.5" width="4.2" height="4.5" fill="#93c5fd" stroke="#60a5fa" stroke-width="0.5"/><rect x="202.8" y="359.5" width="4.2" height="4.5" fill="#93c5fd" stroke="#60a5fa" stroke-width="0.5"/><rect x="207.0" y="359.5" width="4.2" height="4.5" fill="#93c5fd" stroke="#60a5fa" stroke-width="0.5"/><rect x="211.3" y="359.5" width="4.2" height="4.5" fill="#93c5fd" stroke="#60a5fa" stroke-width="0.5"/><rect x="215.5" y="359.5" width="4.2" height="4.5" fill="#93c5fd" stroke="#60a5fa" stroke-width="0.5"/><rect x="219.8" y="359.5" width="4.2" height="4.5" fill="#93c5fd" stroke="#60a5fa" stroke-width="0.5"/><rect x="224.0" y="359.5" width="4.2" height="4.5" fill="#93c5fd" stroke="#60a5fa" stroke-width="0.5"/><rect x="228.2" y="359.5" width="4.2" height="4.5" fill="#93c5fd" stroke="#60a5fa" stroke-width="0.5"/><rect x="232.5" y="359.5" width="4.2" height="4.5" fill="#93c5fd" stroke="#60a5fa" stroke-width="0.5"/><rect x="236.7" y="359.5" width="4.2" height="4.5" fill="#93c5fd" stroke="#60a5fa" stroke-width="0.5"/><rect x="240.9" y="359.5" width="4.2" height="4.5" fill="#93c5fd" stroke="#60a5fa" stroke-width="0.5"/><rect x="245.2" y="359.5" width="4.2" height="4.5" fill="#93c5fd" stroke="#60a5fa" stroke-width="0.5"/><rect x="249.4" y="350.6" width="4.2" height="13.4" fill="#93c5fd" stroke="#60a5fa" stroke-width="0.5"/><rect x="253.6" y="359.5" width="4.2" height="4.5" fill="#93c5fd" stroke="#60a5fa" stroke-width="0.5"/><rect x="257.9" y="359.5" width="4.2" height="4.5" fill="#93c5fd" stroke="#60a5fa" stroke-width="0.5"/><rect x="262.1" y="315.0" width="4.2" height="49.0" fill="#93c5fd" stroke="#60a5fa" stroke-width="0.5"/><rect x="266.3" y="359.5" width="4.2" height="4.5" fill="#93c5fd" stroke="#60a5fa" stroke-width="0.5"/><rect x="270.6" y="337.3" width="4.2" height="26.7" fill="#93c5fd" stroke="#60a5fa" stroke-width="0.5"/><rect x="274.8" y="328.3" width="4.2" height="35.7" fill="#93c5fd" stroke="#60a5fa" stroke-width="0.5"/><rect x="279.0" y="359.5" width="4.2" height="4.5" fill="#93c5fd" stroke="#60a5fa" stroke-width="0.5"/><rect x="283.3" y="355.1" width="4.2" height="8.9" fill="#93c5fd" stroke="#60a5fa" stroke-width="0.5"/><rect x="287.5" y="350.6" width="4.2" height="13.4" fill="#93c5fd" stroke="#60a5fa" stroke-width="0.5"/><rect x="291.7" y="355.1" width="4.2" height="8.9" fill="#93c5fd" stroke="#60a5fa" stroke-width="0.5"/><rect x="296.0" y="355.1" width="4.2" height="8.9" fill="#93c5fd" stroke="#60a5fa" stroke-width="0.5"/><rect x="300.2" y="350.6" width="4.2" height="13.4" fill="#93c5fd" stroke="#60a5fa" stroke-width="0.5"/><rect x="304.4" y="359.5" width="4.2" height="4.5" fill="#93c5fd" stroke="#60a5fa" stroke-width="0.5"/><rect x="308.7" y="359.5" width="4.2" height="4.5" fill="#93c5fd" stroke="#60a5fa" stroke-width="0.5"/><rect x="312.9" y="359.5" width="4.2" height="4.5" fill="#93c5fd" stroke="#60a5fa" stroke-width="0.5"/><rect x="317.2" y="359.5" width="4.2" height="4.5" fill="#93c5fd" stroke="#60a5fa" stroke-width="0.5"/><rect x="321.4" y="350.6" width="4.2" height="13.4" fill="#93c5fd" stroke="#60a5fa" stroke-width="0.5"/><rect x="325.6" y="359.5" width="4.2" height="4.5" fill="#93c5fd" stroke="#60a5fa" stroke-width="0.5"/><rect x="329.9" y="328.3" width="4.2" height="35.7" fill="#93c5fd" stroke="#60a5fa" stroke-width="0.5"/><rect x="334.1" y="359.5" width="4.2" height="4.5" fill="#93c5fd" stroke="#60a5fa" stroke-width="0.5"/><rect x="338.3" y="359.5" width="4.2" height="4.5" fill="#93c5fd" stroke="#60a5fa" stroke-width="0.5"/><rect x="342.6" y="359.5" width="4.2" height="4.5" fill="#93c5fd" stroke="#60a5fa" stroke-width="0.5"/><rect x="346.8" y="350.6" width="4.2" height="13.4" fill="#93c5fd" stroke="#60a5fa" stroke-width="0.5"/><rect x="351.0" y="359.5" width="4.2" height="4.5" fill="#93c5fd" stroke="#60a5fa" stroke-width="0.5"/><rect x="355.3" y="359.5" width="4.2" height="4.5" fill="#93c5fd" stroke="#60a5fa" stroke-width="0.5"/><rect x="359.5" y="355.1" width="4.2" height="8.9" fill="#93c5fd" stroke="#60a5fa" stroke-width="0.5"/><rect x="363.7" y="350.6" width="4.2" height="13.4" fill="#93c5fd" stroke="#60a5fa" stroke-width="0.5"/><rect x="368.0" y="359.5" width="4.2" height="4.5" fill="#93c5fd" stroke="#60a5fa" stroke-width="0.5"/><rect x="372.2" y="350.6" width="4.2" height="13.4" fill="#93c5fd" stroke="#60a5fa" stroke-width="0.5"/><rect x="376.4" y="355.1" width="4.2" height="8.9" fill="#93c5fd" stroke="#60a5fa" stroke-width="0.5"/><rect x="380.7" y="350.6" width="4.2" height="13.4" fill="#93c5fd" stroke="#60a5fa" stroke-width="0.5"/><rect x="384.9" y="359.5" width="4.2" height="4.5" fill="#93c5fd" stroke="#60a5fa" stroke-width="0.5"/><rect x="389.1" y="319.4" width="4.2" height="44.6" fill="#93c5fd" stroke="#60a5fa" stroke-width="0.5"/><rect x="393.4" y="346.2" width="4.2" height="17.8" fill="#93c5fd" stroke="#60a5fa" stroke-width="0.5"/><rect x="397.6" y="346.2" width="4.2" height="17.8" fill="#93c5fd" stroke="#60a5fa" stroke-width="0.5"/><rect x="401.8" y="359.5" width="4.2" height="4.5" fill="#93c5fd" stroke="#60a5fa" stroke-width="0.5"/><rect x="406.1" y="359.5" width="4.2" height="4.5" fill="#93c5fd" stroke="#60a5fa" stroke-width="0.5"/><rect x="410.3" y="359.5" width="4.2" height="4.5" fill="#93c5fd" stroke="#60a5fa" stroke-width="0.5"/><rect x="414.6" y="355.1" width="4.2" height="8.9" fill="#93c5fd" stroke="#60a5fa" stroke-width="0.5"/><rect x="418.8" y="355.1" width="4.2" height="8.9" fill="#93c5fd" stroke="#60a5fa" stroke-width="0.5"/><rect x="423.0" y="350.6" width="4.2" height="13.4" fill="#93c5fd" stroke="#60a5fa" stroke-width="0.5"/><rect x="427.3" y="355.1" width="4.2" height="8.9" fill="#93c5fd" stroke="#60a5fa" stroke-width="0.5"/><rect x="431.5" y="350.6" width="4.2" height="13.4" fill="#93c5fd" stroke="#60a5fa" stroke-width="0.5"/><rect x="435.7" y="359.5" width="4.2" height="4.5" fill="#93c5fd" stroke="#60a5fa" stroke-width="0.5"/><rect x="440.0" y="355.1" width="4.2" height="8.9" fill="#93c5fd" stroke="#60a5fa" stroke-width="0.5"/><rect x="444.2" y="359.5" width="4.2" height="4.5" fill="#93c5fd" stroke="#60a5fa" stroke-width="0.5"/><rect x="448.4" y="337.3" width="4.2" height="26.7" fill="#93c5fd" stroke="#60a5fa" stroke-width="0.5"/><rect x="452.7" y="359.5" width="4.2" height="4.5" fill="#93c5fd" stroke="#60a5fa" stroke-width="0.5"/><rect x="456.9" y="359.5" width="4.2" height="4.5" fill="#93c5fd" stroke="#60a5fa" stroke-width="0.5"/><rect x="461.1" y="359.5" width="4.2" height="4.5" fill="#93c5fd" stroke="#60a5fa" stroke-width="0.5"/><rect x="465.4" y="359.5" width="4.2" height="4.5" fill="#93c5fd" stroke="#60a5fa" stroke-width="0.5"/><rect x="469.6" y="359.5" width="4.2" height="4.5" fill="#93c5fd" stroke="#60a5fa" stroke-width="0.5"/><rect x="473.8" y="337.3" width="4.2" height="26.7" fill="#93c5fd" stroke="#60a5fa" stroke-width="0.5"/><rect x="478.1" y="359.5" width="4.2" height="4.5" fill="#93c5fd" stroke="#60a5fa" stroke-width="0.5"/><rect x="482.3" y="346.2" width="4.2" height="17.8" fill="#93c5fd" stroke="#60a5fa" stroke-width="0.5"/><rect x="486.5" y="319.4" width="4.2" height="44.6" fill="#93c5fd" stroke="#60a5fa" stroke-width="0.5"/><rect x="490.8" y="328.3" width="4.2" height="35.7" fill="#93c5fd" stroke="#60a5fa" stroke-width="0.5"/><rect x="495.0" y="355.1" width="4.2" height="8.9" fill="#93c5fd" stroke="#60a5fa" stroke-width="0.5"/><rect x="499.2" y="355.1" width="4.2" height="8.9" fill="#93c5fd" stroke="#60a5fa" stroke-width="0.5"/><rect x="503.5" y="355.1" width="4.2" height="8.9" fill="#93c5fd" stroke="#60a5fa" stroke-width="0.5"/><rect x="507.7" y="355.1" width="4.2" height="8.9" fill="#93c5fd" stroke="#60a5fa" stroke-width="0.5"/><rect x="512.0" y="350.6" width="4.2" height="13.4" fill="#93c5fd" stroke="#60a5fa" stroke-width="0.5"/><rect x="516.2" y="341.7" width="4.2" height="22.3" fill="#93c5fd" stroke="#60a5fa" stroke-width="0.5"/><rect x="520.4" y="359.5" width="4.2" height="4.5" fill="#93c5fd" stroke="#60a5fa" stroke-width="0.5"/><rect x="524.7" y="323.9" width="4.2" height="40.1" fill="#93c5fd" stroke="#60a5fa" stroke-width="0.5"/><rect x="528.9" y="355.1" width="4.2" height="8.9" fill="#93c5fd" stroke="#60a5fa" stroke-width="0.5"/><rect x="533.1" y="346.2" width="4.2" height="17.8" fill="#93c5fd" stroke="#60a5fa" stroke-width="0.5"/><rect x="537.4" y="355.1" width="4.2" height="8.9" fill="#93c5fd" stroke="#60a5fa" stroke-width="0.5"/><rect x="541.6" y="359.5" width="4.2" height="4.5" fill="#93c5fd" stroke="#60a5fa" stroke-width="0.5"/><rect x="545.8" y="359.5" width="4.2" height="4.5" fill="#93c5fd" stroke="#60a5fa" stroke-width="0.5"/><rect x="550.1" y="355.1" width="4.2" height="8.9" fill="#93c5fd" stroke="#60a5fa" stroke-width="0.5"/><rect x="554.3" y="350.6" width="4.2" height="13.4" fill="#93c5fd" stroke="#60a5fa" stroke-width="0.5"/><rect x="558.5" y="355.1" width="4.2" height="8.9" fill="#93c5fd" stroke="#60a5fa" stroke-width="0.5"/><rect x="562.8" y="315.0" width="4.2" height="49.0" fill="#93c5fd" stroke="#60a5fa" stroke-width="0.5"/><rect x="567.0" y="319.4" width="4.2" height="44.6" fill="#93c5fd" stroke="#60a5fa" stroke-width="0.5"/><rect x="571.2" y="346.2" width="4.2" height="17.8" fill="#93c5fd" stroke="#60a5fa" stroke-width="0.5"/><rect x="575.5" y="359.5" width="4.2" height="4.5" fill="#93c5fd" stroke="#60a5fa" stroke-width="0.5"/><rect x="579.7" y="328.3" width="4.2" height="35.7" fill="#93c5fd" stroke="#60a5fa" stroke-width="0.5"/><rect x="583.9" y="328.3" width="4.2" height="35.7" fill="#93c5fd" stroke="#60a5fa" stroke-width="0.5"/><rect x="588.2" y="257.0" width="4.2" height="107.0" fill="#93c5fd" stroke="#60a5fa" stroke-width="0.5"/><rect x="592.4" y="355.1" width="4.2" height="8.9" fill="#93c5fd" stroke="#60a5fa" stroke-width="0.5"/><rect x="596.7" y="341.7" width="4.2" height="22.3" fill="#93c5fd" stroke="#60a5fa" stroke-width="0.5"/><rect x="600.9" y="350.6" width="4.2" height="13.4" fill="#93c5fd" stroke="#60a5fa" stroke-width="0.5"/><rect x="605.1" y="306.1" width="4.2" height="57.9" fill="#93c5fd" stroke="#60a5fa" stroke-width="0.5"/><rect x="609.4" y="337.3" width="4.2" height="26.7" fill="#93c5fd" stroke="#60a5fa" stroke-width="0.5"/><rect x="613.6" y="301.6" width="4.2" height="62.4" fill="#93c5fd" stroke="#60a5fa" stroke-width="0.5"/><rect x="617.8" y="319.4" width="4.2" height="44.6" fill="#93c5fd" stroke="#60a5fa" stroke-width="0.5"/><rect x="622.1" y="355.1" width="4.2" height="8.9" fill="#93c5fd" stroke="#60a5fa" stroke-width="0.5"/><rect x="626.3" y="359.5" width="4.2" height="4.5" fill="#93c5fd" stroke="#60a5fa" stroke-width="0.5"/><rect x="630.5" y="341.7" width="4.2" height="22.3" fill="#93c5fd" stroke="#60a5fa" stroke-width="0.5"/><rect x="634.8" y="306.1" width="4.2" height="57.9" fill="#93c5fd" stroke="#60a5fa" stroke-width="0.5"/><rect x="639.0" y="346.2" width="4.2" height="17.8" fill="#93c5fd" stroke="#60a5fa" stroke-width="0.5"/><rect x="643.2" y="257.0" width="4.2" height="107.0" fill="#93c5fd" stroke="#60a5fa" stroke-width="0.5"/><rect x="647.5" y="341.7" width="4.2" height="22.3" fill="#93c5fd" stroke="#60a5fa" stroke-width="0.5"/><rect x="651.7" y="52.0" width="4.2" height="312.0" fill="#93c5fd" stroke="#60a5fa" stroke-width="0.5"/><rect x="655.9" y="288.2" width="4.2" height="75.8" fill="#93c5fd" stroke="#60a5fa" stroke-width="0.5"/><rect x="660.2" y="350.6" width="4.2" height="13.4" fill="#93c5fd" stroke="#60a5fa" stroke-width="0.5"/><rect x="664.4" y="355.1" width="4.2" height="8.9" fill="#93c5fd" stroke="#60a5fa" stroke-width="0.5"/><rect x="668.6" y="181.3" width="4.2" height="182.7" fill="#93c5fd" stroke="#60a5fa" stroke-width="0.5"/><rect x="672.9" y="337.3" width="4.2" height="26.7" fill="#93c5fd" stroke="#60a5fa" stroke-width="0.5"/><rect x="677.1" y="350.6" width="4.2" height="13.4" fill="#93c5fd" stroke="#60a5fa" stroke-width="0.5"/><rect x="681.3" y="355.1" width="4.2" height="8.9" fill="#93c5fd" stroke="#60a5fa" stroke-width="0.5"/><rect x="685.6" y="346.2" width="4.2" height="17.8" fill="#93c5fd" stroke="#60a5fa" stroke-width="0.5"/><rect x="689.8" y="328.3" width="4.2" height="35.7" fill="#93c5fd" stroke="#60a5fa" stroke-width="0.5"/><rect x="694.1" y="359.5" width="4.2" height="4.5" fill="#93c5fd" stroke="#60a5fa" stroke-width="0.5"/><rect x="698.3" y="359.5" width="4.2" height="4.5" fill="#93c5fd" stroke="#60a5fa" stroke-width="0.5"/><rect x="702.5" y="346.2" width="4.2" height="17.8" fill="#93c5fd" stroke="#60a5fa" stroke-width="0.5"/><rect x="706.8" y="341.7" width="4.2" height="22.3" fill="#93c5fd" stroke="#60a5fa" stroke-width="0.5"/><rect x="711.0" y="337.3" width="4.2" height="26.7" fill="#93c5fd" stroke="#60a5fa" stroke-width="0.5"/><rect x="715.2" y="337.3" width="4.2" height="26.7" fill="#93c5fd" stroke="#60a5fa" stroke-width="0.5"/><rect x="719.5" y="359.5" width="4.2" height="4.5" fill="#93c5fd" stroke="#60a5fa" stroke-width="0.5"/><rect x="723.7" y="341.7" width="4.2" height="22.3" fill="#93c5fd" stroke="#60a5fa" stroke-width="0.5"/><rect x="727.9" y="332.8" width="4.2" height="31.2" fill="#93c5fd" stroke="#60a5fa" stroke-width="0.5"/><rect x="732.2" y="332.8" width="4.2" height="31.2" fill="#93c5fd" stroke="#60a5fa" stroke-width="0.5"/><rect x="736.4" y="328.3" width="4.2" height="35.7" fill="#93c5fd" stroke="#60a5fa" stroke-width="0.5"/><rect x="740.6" y="323.9" width="4.2" height="40.1" fill="#93c5fd" stroke="#60a5fa" stroke-width="0.5"/><rect x="744.9" y="332.8" width="4.2" height="31.2" fill="#93c5fd" stroke="#60a5fa" stroke-width="0.5"/><rect x="749.1" y="346.2" width="4.2" height="17.8" fill="#93c5fd" stroke="#60a5fa" stroke-width="0.5"/><rect x="753.3" y="350.6" width="4.2" height="13.4" fill="#93c5fd" stroke="#60a5fa" stroke-width="0.5"/><rect x="757.6" y="350.6" width="4.2" height="13.4" fill="#93c5fd" stroke="#60a5fa" stroke-width="0.5"/><rect x="761.8" y="332.8" width="4.2" height="31.2" fill="#93c5fd" stroke="#60a5fa" stroke-width="0.5"/><rect x="766.0" y="359.5" width="4.2" height="4.5" fill="#93c5fd" stroke="#60a5fa" stroke-width="0.5"/><rect x="770.3" y="350.6" width="4.2" height="13.4" fill="#93c5fd" stroke="#60a5fa" stroke-width="0.5"/><rect x="774.5" y="355.1" width="4.2" height="8.9" fill="#93c5fd" stroke="#60a5fa" stroke-width="0.5"/><rect x="778.7" y="355.1" width="4.2" height="8.9" fill="#93c5fd" stroke="#60a5fa" stroke-width="0.5"/><rect x="783.0" y="355.1" width="4.2" height="8.9" fill="#93c5fd" stroke="#60a5fa" stroke-width="0.5"/><rect x="787.2" y="355.1" width="4.2" height="8.9" fill="#93c5fd" stroke="#60a5fa" stroke-width="0.5"/><rect x="791.5" y="359.5" width="4.2" height="4.5" fill="#93c5fd" stroke="#60a5fa" stroke-width="0.5"/><rect x="795.7" y="359.5" width="4.2" height="4.5" fill="#93c5fd" stroke="#60a5fa" stroke-width="0.5"/><rect x="799.9" y="337.3" width="4.2" height="26.7" fill="#93c5fd" stroke="#60a5fa" stroke-width="0.5"/><rect x="804.2" y="355.1" width="4.2" height="8.9" fill="#93c5fd" stroke="#60a5fa" stroke-width="0.5"/><rect x="808.4" y="328.3" width="4.2" height="35.7" fill="#93c5fd" stroke="#60a5fa" stroke-width="0.5"/><rect x="812.6" y="350.6" width="4.2" height="13.4" fill="#93c5fd" stroke="#60a5fa" stroke-width="0.5"/><rect x="816.9" y="328.3" width="4.2" height="35.7" fill="#93c5fd" stroke="#60a5fa" stroke-width="0.5"/><rect x="821.1" y="332.8" width="4.2" height="31.2" fill="#93c5fd" stroke="#60a5fa" stroke-width="0.5"/><rect x="825.3" y="328.3" width="4.2" height="35.7" fill="#93c5fd" stroke="#60a5fa" stroke-width="0.5"/><rect x="829.6" y="341.7" width="4.2" height="22.3" fill="#93c5fd" stroke="#60a5fa" stroke-width="0.5"/><rect x="833.8" y="355.1" width="4.2" height="8.9" fill="#93c5fd" stroke="#60a5fa" stroke-width="0.5"/><rect x="838.0" y="355.1" width="4.2" height="8.9" fill="#93c5fd" stroke="#60a5fa" stroke-width="0.5"/><rect x="842.3" y="319.4" width="4.2" height="44.6" fill="#93c5fd" stroke="#60a5fa" stroke-width="0.5"/><rect x="846.5" y="315.0" width="4.2" height="49.0" fill="#93c5fd" stroke="#60a5fa" stroke-width="0.5"/><rect x="850.7" y="328.3" width="4.2" height="35.7" fill="#93c5fd" stroke="#60a5fa" stroke-width="0.5"/><rect x="855.0" y="323.9" width="4.2" height="40.1" fill="#93c5fd" stroke="#60a5fa" stroke-width="0.5"/><rect x="859.2" y="341.7" width="4.2" height="22.3" fill="#93c5fd" stroke="#60a5fa" stroke-width="0.5"/><rect x="863.4" y="359.5" width="4.2" height="4.5" fill="#93c5fd" stroke="#60a5fa" stroke-width="0.5"/><rect x="867.7" y="350.6" width="4.2" height="13.4" fill="#93c5fd" stroke="#60a5fa" stroke-width="0.5"/><rect x="871.9" y="359.5" width="4.2" height="4.5" fill="#93c5fd" stroke="#60a5fa" stroke-width="0.5"/><rect x="876.2" y="346.2" width="4.2" height="17.8" fill="#93c5fd" stroke="#60a5fa" stroke-width="0.5"/><rect x="880.4" y="346.2" width="4.2" height="17.8" fill="#93c5fd" stroke="#60a5fa" stroke-width="0.5"/><rect x="884.6" y="341.7" width="4.2" height="22.3" fill="#93c5fd" stroke="#60a5fa" stroke-width="0.5"/><rect x="888.9" y="359.5" width="4.2" height="4.5" fill="#93c5fd" stroke="#60a5fa" stroke-width="0.5"/><rect x="893.1" y="359.5" width="4.2" height="4.5" fill="#93c5fd" stroke="#60a5fa" stroke-width="0.5"/><rect x="897.3" y="315.0" width="4.2" height="49.0" fill="#93c5fd" stroke="#60a5fa" stroke-width="0.5"/><rect x="901.6" y="230.3" width="4.2" height="133.7" fill="#93c5fd" stroke="#60a5fa" stroke-width="0.5"/><rect x="905.8" y="297.1" width="4.2" height="66.9" fill="#93c5fd" stroke="#60a5fa" stroke-width="0.5"/><rect x="910.0" y="359.5" width="4.2" height="4.5" fill="#93c5fd" stroke="#60a5fa" stroke-width="0.5"/><rect x="914.3" y="319.4" width="4.2" height="44.6" fill="#93c5fd" stroke="#60a5fa" stroke-width="0.5"/><rect x="918.5" y="355.1" width="4.2" height="8.9" fill="#93c5fd" stroke="#60a5fa" stroke-width="0.5"/><rect x="922.7" y="341.7" width="4.2" height="22.3" fill="#93c5fd" stroke="#60a5fa" stroke-width="0.5"/><rect x="927.0" y="315.0" width="4.2" height="49.0" fill="#93c5fd" stroke="#60a5fa" stroke-width="0.5"/><rect x="931.2" y="350.6" width="4.2" height="13.4" fill="#93c5fd" stroke="#60a5fa" stroke-width="0.5"/><rect x="935.4" y="279.3" width="4.2" height="84.7" fill="#93c5fd" stroke="#60a5fa" stroke-width="0.5"/><rect x="939.7" y="132.2" width="4.2" height="231.8" fill="#93c5fd" stroke="#60a5fa" stroke-width="0.5"/><rect x="943.9" y="359.5" width="4.2" height="4.5" fill="#93c5fd" stroke="#60a5fa" stroke-width="0.5"/><rect x="948.1" y="212.5" width="4.2" height="151.5" fill="#93c5fd" stroke="#60a5fa" stroke-width="0.5"/><rect x="952.4" y="355.1" width="4.2" height="8.9" fill="#93c5fd" stroke="#60a5fa" stroke-width="0.5"/><rect x="956.6" y="252.6" width="4.2" height="111.4" fill="#93c5fd" stroke="#60a5fa" stroke-width="0.5"/><rect x="960.8" y="359.5" width="4.2" height="4.5" fill="#93c5fd" stroke="#60a5fa" stroke-width="0.5"/><rect x="965.1" y="337.3" width="4.2" height="26.7" fill="#93c5fd" stroke="#60a5fa" stroke-width="0.5"/><rect x="969.3" y="355.1" width="4.2" height="8.9" fill="#93c5fd" stroke="#60a5fa" stroke-width="0.5"/><rect x="973.6" y="306.1" width="4.2" height="57.9" fill="#93c5fd" stroke="#60a5fa" stroke-width="0.5"/><rect x="977.8" y="332.8" width="4.2" height="31.2" fill="#93c5fd" stroke="#60a5fa" stroke-width="0.5"/><rect x="982.0" y="355.1" width="4.2" height="8.9" fill="#93c5fd" stroke="#60a5fa" stroke-width="0.5"/><rect x="986.3" y="252.6" width="4.2" height="111.4" fill="#93c5fd" stroke="#60a5fa" stroke-width="0.5"/><rect x="990.5" y="346.2" width="4.2" height="17.8" fill="#93c5fd" stroke="#60a5fa" stroke-width="0.5"/><rect x="994.7" y="328.3" width="4.2" height="35.7" fill="#93c5fd" stroke="#60a5fa" stroke-width="0.5"/><rect x="999.0" y="350.6" width="4.2" height="13.4" fill="#93c5fd" stroke="#60a5fa" stroke-width="0.5"/><rect x="1003.2" y="319.4" width="4.2" height="44.6" fill="#93c5fd" stroke="#60a5fa" stroke-width="0.5"/><rect x="1007.4" y="359.5" width="4.2" height="4.5" fill="#93c5fd" stroke="#60a5fa" stroke-width="0.5"/><rect x="1011.7" y="292.7" width="4.2" height="71.3" fill="#93c5fd" stroke="#60a5fa" stroke-width="0.5"/><rect x="1015.9" y="323.9" width="4.2" height="40.1" fill="#93c5fd" stroke="#60a5fa" stroke-width="0.5"/><rect x="1020.1" y="350.6" width="4.2" height="13.4" fill="#93c5fd" stroke="#60a5fa" stroke-width="0.5"/><rect x="1024.4" y="301.6" width="4.2" height="62.4" fill="#93c5fd" stroke="#60a5fa" stroke-width="0.5"/><rect x="1028.6" y="355.1" width="4.2" height="8.9" fill="#93c5fd" stroke="#60a5fa" stroke-width="0.5"/><rect x="1032.8" y="359.5" width="4.2" height="4.5" fill="#93c5fd" stroke="#60a5fa" stroke-width="0.5"/><rect x="1037.1" y="355.1" width="4.2" height="8.9" fill="#93c5fd" stroke="#60a5fa" stroke-width="0.5"/><rect x="1041.3" y="350.6" width="4.2" height="13.4" fill="#93c5fd" stroke="#60a5fa" stroke-width="0.5"/><rect x="1045.5" y="310.5" width="4.2" height="53.5" fill="#93c5fd" stroke="#60a5fa" stroke-width="0.5"/><rect x="1049.8" y="341.7" width="4.2" height="22.3" fill="#93c5fd" stroke="#60a5fa" stroke-width="0.5"/><rect x="1054.0" y="355.1" width="4.2" height="8.9" fill="#93c5fd" stroke="#60a5fa" stroke-width="0.5"/><rect x="1058.2" y="359.5" width="4.2" height="4.5" fill="#93c5fd" stroke="#60a5fa" stroke-width="0.5"/><rect x="1062.5" y="350.6" width="4.2" height="13.4" fill="#93c5fd" stroke="#60a5fa" stroke-width="0.5"/><rect x="1066.7" y="355.1" width="4.2" height="8.9" fill="#93c5fd" stroke="#60a5fa" stroke-width="0.5"/><rect x="1071.0" y="265.9" width="4.2" height="98.1" fill="#93c5fd" stroke="#60a5fa" stroke-width="0.5"/><rect x="1075.2" y="323.9" width="4.2" height="40.1" fill="#93c5fd" stroke="#60a5fa" stroke-width="0.5"/><rect x="1079.4" y="332.8" width="4.2" height="31.2" fill="#93c5fd" stroke="#60a5fa" stroke-width="0.5"/><rect x="1083.7" y="359.5" width="4.2" height="4.5" fill="#93c5fd" stroke="#60a5fa" stroke-width="0.5"/><rect x="1087.9" y="328.3" width="4.2" height="35.7" fill="#93c5fd" stroke="#60a5fa" stroke-width="0.5"/><rect x="1092.1" y="350.6" width="4.2" height="13.4" fill="#93c5fd" stroke="#60a5fa" stroke-width="0.5"/><rect x="1096.4" y="301.6" width="4.2" height="62.4" fill="#93c5fd" stroke="#60a5fa" stroke-width="0.5"/><rect x="1100.6" y="212.5" width="4.2" height="151.5" fill="#93c5fd" stroke="#60a5fa" stroke-width="0.5"/><rect x="1104.8" y="346.2" width="4.2" height="17.8" fill="#93c5fd" stroke="#60a5fa" stroke-width="0.5"/><rect x="1109.1" y="279.3" width="4.2" height="84.7" fill="#93c5fd" stroke="#60a5fa" stroke-width="0.5"/><rect x="1113.3" y="359.5" width="4.2" height="4.5" fill="#93c5fd" stroke="#60a5fa" stroke-width="0.5"/><rect x="1117.5" y="190.2" width="4.2" height="173.8" fill="#93c5fd" stroke="#60a5fa" stroke-width="0.5"/><rect x="1121.8" y="310.5" width="4.2" height="53.5" fill="#93c5fd" stroke="#60a5fa" stroke-width="0.5"/><rect x="1126.0" y="306.1" width="4.2" height="57.9" fill="#93c5fd" stroke="#60a5fa" stroke-width="0.5"/><rect x="1130.2" y="355.1" width="4.2" height="8.9" fill="#93c5fd" stroke="#60a5fa" stroke-width="0.5"/><rect x="1134.5" y="323.9" width="4.2" height="40.1" fill="#93c5fd" stroke="#60a5fa" stroke-width="0.5"/><rect x="1138.7" y="346.2" width="4.2" height="17.8" fill="#93c5fd" stroke="#60a5fa" stroke-width="0.5"/><rect x="1142.9" y="328.3" width="4.2" height="35.7" fill="#93c5fd" stroke="#60a5fa" stroke-width="0.5"/><rect x="1147.2" y="350.6" width="4.2" height="13.4" fill="#93c5fd" stroke="#60a5fa" stroke-width="0.5"/><rect x="1151.4" y="359.5" width="4.2" height="4.5" fill="#93c5fd" stroke="#60a5fa" stroke-width="0.5"/><rect x="1155.7" y="346.2" width="4.2" height="17.8" fill="#93c5fd" stroke="#60a5fa" stroke-width="0.5"/><rect x="1159.9" y="359.5" width="4.2" height="4.5" fill="#93c5fd" stroke="#60a5fa" stroke-width="0.5"/><rect x="1164.1" y="359.5" width="4.2" height="4.5" fill="#93c5fd" stroke="#60a5fa" stroke-width="0.5"/><rect x="1168.4" y="315.0" width="4.2" height="49.0" fill="#93c5fd" stroke="#60a5fa" stroke-width="0.5"/><rect x="1172.6" y="355.1" width="4.2" height="8.9" fill="#93c5fd" stroke="#60a5fa" stroke-width="0.5"/><rect x="1176.8" y="350.6" width="4.2" height="13.4" fill="#93c5fd" stroke="#60a5fa" stroke-width="0.5"/><rect x="1181.1" y="355.1" width="4.2" height="8.9" fill="#93c5fd" stroke="#60a5fa" stroke-width="0.5"/><rect x="1185.3" y="346.2" width="4.2" height="17.8" fill="#93c5fd" stroke="#60a5fa" stroke-width="0.5"/><rect x="1189.5" y="346.2" width="4.2" height="17.8" fill="#93c5fd" stroke="#60a5fa" stroke-width="0.5"/><rect x="1193.8" y="355.1" width="4.2" height="8.9" fill="#93c5fd" stroke="#60a5fa" stroke-width="0.5"/><polyline fill="none" stroke="#ef4444" stroke-width="2" points="82.1,363.1 86.4,362.9 90.6,362.7 94.8,362.3 99.1,362.1 103.3,361.4 107.5,361.2 111.8,361.0 116.0,360.8 120.2,360.5 124.5,360.3 128.7,360.1 132.9,359.9 137.2,359.5 141.4,358.6 145.6,358.4 149.9,358.2 154.1,357.5 158.3,356.4 162.6,353.6 166.8,353.2 171.0,352.6 175.3,352.3 179.5,351.7 183.8,351.5 188.0,350.4 192.2,350.2 196.5,350.0 200.7,349.8 204.9,349.5 209.2,349.3 213.4,349.1 217.6,348.9 221.9,348.7 226.1,348.5 230.3,348.2 234.6,348.0 238.8,347.8 243.0,347.6 247.3,347.4 251.5,346.7 255.7,346.5 260.0,346.3 264.2,343.9 268.5,343.7 272.7,342.4 276.9,340.7 281.2,340.5 285.4,340.0 289.6,339.4 293.9,339.0 298.1,338.5 302.3,337.9 306.6,337.7 310.8,337.5 315.0,337.2 319.3,337.0 323.5,336.4 327.7,336.2 332.0,334.4 336.2,334.2 340.4,334.0 344.7,333.8 348.9,333.1 353.1,332.9 357.4,332.7 361.6,332.3 365.9,331.6 370.1,331.4 374.3,330.8 378.6,330.3 382.8,329.7 387.0,329.5 391.3,327.3 395.5,326.5 399.7,325.6 404.0,325.4 408.2,325.2 412.4,324.9 416.7,324.5 420.9,324.1 425.1,323.4 429.4,323.0 433.6,322.4 437.8,322.1 442.1,321.7 446.3,321.5 450.5,320.2 454.8,320.0 459.0,319.8 463.3,319.6 467.5,319.3 471.7,319.1 476.0,317.8 480.2,317.6 484.4,316.7 488.7,314.6 492.9,312.9 497.1,312.4 501.4,312.0 505.6,311.6 509.8,311.1 514.1,310.5 518.3,309.4 522.5,309.2 526.8,307.3 531.0,306.8 535.2,306.0 539.5,305.5 543.7,305.3 548.0,305.1 552.2,304.7 556.4,304.0 560.7,303.6 564.9,301.2 569.1,299.1 573.4,298.2 577.6,298.0 581.8,296.2 586.1,294.5 590.3,289.3 594.5,288.9 598.8,287.8 603.0,287.2 607.2,284.4 611.5,283.1 615.7,280.1 619.9,277.9 624.2,277.5 628.4,277.3 632.6,276.2 636.9,273.4 641.1,272.5 645.4,267.3 649.6,266.3 653.8,251.2 658.1,247.5 662.3,246.8 666.5,246.4 670.8,237.6 675.0,236.3 679.2,235.6 683.5,235.2 687.7,234.3 691.9,232.6 696.2,232.4 700.4,232.2 704.6,231.3 708.9,230.2 713.1,228.9 717.3,227.6 721.6,227.4 725.8,226.3 730.0,224.8 734.3,223.3 738.5,221.6 742.8,219.7 747.0,218.1 751.2,217.3 755.5,216.6 759.7,216.0 763.9,214.5 768.2,214.3 772.4,213.6 776.6,213.2 780.9,212.7 785.1,212.3 789.3,211.9 793.6,211.7 797.8,211.5 802.0,210.2 806.3,209.7 810.5,208.0 814.7,207.4 819.0,205.6 823.2,204.1 827.5,202.4 831.7,201.3 835.9,200.9 840.2,200.4 844.4,198.3 848.6,195.9 852.9,194.2 857.1,192.2 861.3,191.2 865.6,191.0 869.8,190.3 874.0,190.1 878.3,189.2 882.5,188.4 886.7,187.3 891.0,187.1 895.2,186.9 899.4,184.5 903.7,178.0 907.9,174.8 912.1,174.6 916.4,172.4 920.6,172.0 924.9,170.9 929.1,168.5 933.3,167.9 937.6,163.8 941.8,152.5 946.0,152.3 950.3,145.0 954.5,144.6 958.7,139.2 963.0,139.0 967.2,137.7 971.4,137.2 975.7,134.4 979.9,132.9 984.1,132.5 988.4,127.1 992.6,126.2 996.8,124.5 1001.1,123.9 1005.3,121.7 1009.5,121.5 1013.8,118.0 1018.0,116.1 1022.3,115.4 1026.5,112.4 1030.7,112.0 1035.0,111.8 1039.2,111.3 1043.4,110.7 1047.7,108.1 1051.9,107.0 1056.1,106.6 1060.4,106.4 1064.6,105.7 1068.8,105.3 1073.1,100.5 1077.3,98.6 1081.5,97.1 1085.8,96.9 1090.0,95.2 1094.2,94.5 1098.5,91.5 1102.7,84.1 1107.0,83.3 1111.2,79.2 1115.4,79.0 1119.7,70.6 1123.9,68.0 1128.1,65.2 1132.4,64.7 1136.6,62.8 1140.8,61.9 1145.1,60.2 1149.3,59.6 1153.5,59.3 1157.8,58.5 1162.0,58.3 1166.2,58.0 1170.5,55.7 1174.7,55.2 1178.9,54.6 1183.2,54.2 1187.4,53.3 1191.6,52.4 1195.9,52.0"/><line x1="82.1" y1="364.0" x2="82.1" y2="370.0" stroke="#111827" stroke-width="1"/><text x="84.1" y="386.0" font-size="11" text-anchor="end" transform="rotate(-35 84.1 386.0)" font-family="sans-serif" fill="#374151">2022-10-13</text><line x1="243.0" y1="364.0" x2="243.0" y2="370.0" stroke="#111827" stroke-width="1"/><text x="245.0" y="386.0" font-size="11" text-anchor="end" transform="rotate(-35 245.0 386.0)" font-family="sans-serif" fill="#374151">2025-03-28</text><line x1="399.7" y1="364.0" x2="399.7" y2="370.0" stroke="#111827" stroke-width="1"/><text x="401.7" y="386.0" font-size="11" text-anchor="end" transform="rotate(-35 401.7 386.0)" font-family="sans-serif" fill="#374151">2025-07-25</text><line x1="560.7" y1="364.0" x2="560.7" y2="370.0" stroke="#111827" stroke-width="1"/><text x="562.7" y="386.0" font-size="11" text-anchor="end" transform="rotate(-35 562.7 386.0)" font-family="sans-serif" fill="#374151">2025-10-02</text><line x1="717.3" y1="364.0" x2="717.3" y2="370.0" stroke="#111827" stroke-width="1"/><text x="719.3" y="386.0" font-size="11" text-anchor="end" transform="rotate(-35 719.3 386.0)" font-family="sans-serif" fill="#374151">2025-11-26</text><line x1="878.3" y1="364.0" x2="878.3" y2="370.0" stroke="#111827" stroke-width="1"/><text x="880.3" y="386.0" font-size="11" text-anchor="end" transform="rotate(-35 880.3 386.0)" font-family="sans-serif" fill="#374151">2026-01-14</text><line x1="1035.0" y1="364.0" x2="1035.0" y2="370.0" stroke="#111827" stroke-width="1"/><text x="1037.0" y="386.0" font-size="11" text-anchor="end" transform="rotate(-35 1037.0 386.0)" font-family="sans-serif" fill="#374151">2026-02-27</text><line x1="1195.9" y1="364.0" x2="1195.9" y2="370.0" stroke="#111827" stroke-width="1"/><text x="1197.9" y="386.0" font-size="11" text-anchor="end" transform="rotate(-35 1197.9 386.0)" font-family="sans-serif" fill="#374151">2026-04-24</text><text x="26" y="208.0" font-size="12" transform="rotate(-90 26 208.0)" text-anchor="middle" font-family="sans-serif" fill="#1f2937">구간별 수</text><text x="1256.0" y="208.0" font-size="12" transform="rotate(90 1256.0 208.0)" text-anchor="middle" font-family="sans-serif" fill="#1f2937">누적</text><text x="639.0" y="442.0" font-size="13" text-anchor="middle" font-family="sans-serif" fill="#111827">일</text></svg>