<svg xmlns="http://www.w3.org/2000/svg" width="1280" height="460" viewBox="0 0 1280 460"><rect x="0" y="0" width="100%" height="100%" fill="#ffffff"/><text x="640.0" y="28" font-size="20" text-anchor="middle" font-family="sans-serif" fill="#111827">시리즈 / 최근 반영 시점 / 시간별</text><line x1="80.0" y1="52.0" x2="1198.0" y2="52.0" stroke="#e5e7eb" stroke-width="1"/><text x="72.0" y="56.0" font-size="11" text-anchor="end" font-family="sans-serif" fill="#374151">1,086</text><text x="1206.0" y="56.0" font-size="11" text-anchor="start" font-family="sans-serif" fill="#374151">1,447</text><line x1="80.0" y1="114.4" x2="1198.0" y2="114.4" stroke="#e5e7eb" stroke-width="1"/><text x="72.0" y="118.4" font-size="11" text-anchor="end" font-family="sans-serif" fill="#374151">869</text><text x="1206.0" y="118.4" font-size="11" text-anchor="start" font-family="sans-serif" fill="#374151">1,158</text><line x1="80.0" y1="176.8" x2="1198.0" y2="176.8" stroke="#e5e7eb" stroke-width="1"/><text x="72.0" y="180.8" font-size="11" text-anchor="end" font-family="sans-serif" fill="#374151">652</text><text x="1206.0" y="180.8" font-size="11" text-anchor="start" font-family="sans-serif" fill="#374151">868</text><line x1="80.0" y1="239.2" x2="1198.0" y2="239.2" stroke="#e5e7eb" stroke-width="1"/><text x="72.0" y="243.2" font-size="11" text-anchor="end" font-family="sans-serif" fill="#374151">434</text><text x="1206.0" y="243.2" font-size="11" text-anchor="start" font-family="sans-serif" fill="#374151">579</text><line x1="80.0" y1="301.6" x2="1198.0" y2="301.6" stroke="#e5e7eb" stroke-width="1"/><text x="72.0" y="305.6" font-size="11" text-anchor="end" font-family="sans-serif" fill="#374151">217</text><text x="1206.0" y="305.6" font-size="11" text-anchor="start" font-family="sans-serif" fill="#374151">289</text><line x1="80.0" y1="364.0" x2="1198.0" y2="364.0" stroke="#e5e7eb" stroke-width="1"/><text x="72.0" y="368.0" font-size="11" text-anchor="end" font-family="sans-serif" fill="#374151">0</text><text x="1206.0" y="368.0" font-size="11" text-anchor="start" font-family="sans-serif" fill="#374151">0</text><line x1="80.0" y1="364.0" x2="1198.0" y2="364.0" stroke="#111827" stroke-width="1.2"/><line x1="80.0" y1="52.0" x2="80.0" y2="364.0" stroke="#111827" stroke-width="1.2"/><line x1="1198.0" y1="52.0" x2="1198.0" y2="364.0" stroke="#111827" stroke-width="1.2"/><rect x="81.0" y="363.7" width="30.9" height="0.3" fill="#93c5fd" stroke="#60a5fa" stroke-width="0.5"/><rect x="113.9" y="363.1" width="30.9" height="0.9" fill="#93c5fd" stroke="#60a5fa" stroke-width="0.5"/><rect x="146.8" y="360.3" width="30.9" height="3.7" fill="#93c5fd" stroke="#60a5fa" stroke-width="0.5"/><rect x="179.6" y="363.7" width="30.9" height="0.3" fill="#93c5fd" stroke="#60a5fa" stroke-width="0.5"/><rect x="212.5" y="363.7" width="30.9" height="0.3" fill="#93c5fd" stroke="#60a5fa" stroke-width="0.5"/><rect x="245.4" y="363.7" width="30.9" height="0.3" fill="#93c5fd" stroke="#60a5fa" stroke-width="0.5"/><rect x="278.3" y="363.7" width="30.9" height="0.3" fill="#93c5fd" stroke="#60a5fa" stroke-width="0.5"/><rect x="311.2" y="363.7" width="30.9" height="0.3" fill="#93c5fd" stroke="#60a5fa" stroke-width="0.5"/><rect x="344.1" y="363.7" width="30.9" height="0.3" fill="#93c5fd" stroke="#60a5fa" stroke-width="0.5"/><rect x="376.9" y="363.7" width="30.9" height="0.3" fill="#93c5fd" stroke="#60a5fa" stroke-width="0.5"/><rect x="409.8" y="363.4" width="30.9" height="0.6" fill="#93c5fd" stroke="#60a5fa" stroke-width="0.5"/><rect x="442.7" y="363.4" width="30.9" height="0.6" fill="#93c5fd" stroke="#60a5fa" stroke-width="0.5"/><rect x="475.6" y="363.7" width="30.9" height="0.3" fill="#93c5fd" stroke="#60a5fa" stroke-width="0.5"/><rect x="508.5" y="363.7" width="30.9" height="0.3" fill="#93c5fd" stroke="#60a5fa" stroke-width="0.5"/><rect x="541.4" y="363.7" width="30.9" height="0.3" fill="#93c5fd" stroke="#60a5fa" stroke-width="0.5"/><rect x="574.2" y="363.7" width="30.9" height="0.3" fill="#93c5fd" stroke="#60a5fa" stroke-width="0.5"/><rect x="607.1" y="363.7" width="30.9" height="0.3" fill="#93c5fd" stroke="#60a5fa" stroke-width="0.5"/><rect x="640.0" y="363.4" width="30.9" height="0.6" fill="#93c5fd" stroke="#60a5fa" stroke-width="0.5"/><rect x="672.9" y="363.4" width="30.9" height="0.6" fill="#93c5fd" stroke="#60a5fa" stroke-width="0.5"/><rect x="705.8" y="362.9" width="30.9" height="1.1" fill="#93c5fd" stroke="#60a5fa" stroke-width="0.5"/><rect x="738.6" y="362.9" width="30.9" height="1.1" fill="#93c5fd" stroke="#60a5fa" stroke-width="0.5"/><rect x="771.5" y="362.3" width="30.9" height="1.7" fill="#93c5fd" stroke="#60a5fa" stroke-width="0.5"/><rect x="804.4" y="52.0" width="30.9" height="312.0" fill="#93c5fd" stroke="#60a5fa" stroke-width="0.5"/><rect x="837.3" y="349.6" width="30.9" height="14.4" fill="#93c5fd" stroke="#60a5fa" stroke-width="0.5"/><rect x="870.2" y="363.4" width="30.9" height="0.6" fill="#93c5fd" stroke="#60a5fa" stroke-width="0.5"/><rect x="903.1" y="349.6" width="30.9" height="14.4" fill="#93c5fd" stroke="#60a5fa" stroke-width="0.5"/><rect x="935.9" y="349.6" width="30.9" height="14.4" fill="#93c5fd" stroke="#60a5fa" stroke-width="0.5"/><rect x="968.8" y="363.4" width="30.9" height="0.6" fill="#93c5fd" stroke="#60a5fa" stroke-width="0.5"/><rect x="1001.7" y="349.6" width="30.9" height="14.4" fill="#93c5fd" stroke="#60a5fa" stroke-width="0.5"/><rect x="1034.6" y="363.7" width="30.9" height="0.3" fill="#93c5fd" stroke="#60a5fa" stroke-width="0.5"/><rect x="1067.5" y="349.6" width="30.9" height="14.4" fill="#93c5fd" stroke="#60a5fa" stroke-width="0.5"/><rect x="1100.4" y="363.7" width="30.9" height="0.3" fill="#93c5fd" stroke="#60a5fa" stroke-width="0.5"/><rect x="1133.2" y="362.9" width="30.9" height="1.1" fill="#93c5fd" stroke="#60a5fa" stroke-width="0.5"/><rect x="1166.1" y="349.6" width="30.9" height="14.4" fill="#93c5fd" stroke="#60a5fa" stroke-width="0.5"/><polyline fill="none" stroke="#ef4444" stroke-width="2" points="96.4,363.8 129.3,363.1 162.2,360.3 195.1,360.1 228.0,359.9 260.9,359.7 293.7,359.5 326.6,359.3 359.5,359.0 392.4,358.8 425.3,358.4 458.1,358.0 491.0,357.7 523.9,357.5 556.8,357.3 589.7,357.1 622.6,356.9 655.4,356.5 688.3,356.0 721.2,355.2 754.1,354.3 787.0,353.0 819.9,118.8 852.7,108.1 885.6,107.6 918.5,96.8 951.4,86.1 984.3,85.6 1017.1,74.9 1050.0,74.6 1082.9,63.9 1115.8,63.6 1148.7,62.8 1181.6,52.0"/><line x1="96.4" y1="364.0" x2="96.4" y2="370.0" stroke="#111827" stroke-width="1"/><text x="98.4" y="386.0" font-size="11" text-anchor="end" transform="rotate(-35 98.4 386.0)" font-family="sans-serif" fill="#374151">2026-04-16 23:00</text><line x1="260.9" y1="364.0" x2="260.9" y2="370.0" stroke="#111827" stroke-width="1"/><text x="262.9" y="386.0" font-size="11" text-anchor="end" transform="rotate(-35 262.9 386.0)" font-family="sans-serif" fill="#374151">2026-04-19 18:00</text><line x1="392.4" y1="364.0" x2="392.4" y2="370.0" stroke="#111827" stroke-width="1"/><text x="394.4" y="386.0" font-size="11" text-anchor="end" transform="rotate(-35 394.4 386.0)" font-family="sans-serif" fill="#374151">2026-04-20 12:00</text><line x1="556.8" y1="364.0" x2="556.8" y2="370.0" stroke="#111827" stroke-width="1"/><text x="558.8" y="386.0" font-size="11" text-anchor="end" transform="rotate(-35 558.8 386.0)" font-family="sans-serif" fill="#374151">2026-04-21 03:00</text><line x1="721.2" y1="364.0" x2="721.2" y2="370.0" stroke="#111827" stroke-width="1"/><text x="723.2" y="386.0" font-size="11" text-anchor="end" transform="rotate(-35 723.2 386.0)" font-family="sans-serif" fill="#374151">2026-04-22 08:00</text><line x1="885.6" y1="364.0" x2="885.6" y2="370.0" stroke="#111827" stroke-width="1"/><text x="887.6" y="386.0" font-size="11" text-anchor="end" transform="rotate(-35 887.6 386.0)" font-family="sans-serif" fill="#374151">2026-04-24 14:00</text><line x1="1017.1" y1="364.0" x2="1017.1" y2="370.0" stroke="#111827" stroke-width="1"/><text x="1019.1" y="386.0" font-size="11" text-anchor="end" transform="rotate(-35 1019.1 386.0)" font-family="sans-serif" fill="#374151">2026-04-25 06:00</text><line x1="1181.6" y1="364.0" x2="1181.6" y2="370.0" stroke="#111827" stroke-width="1"/><text x="1183.6" y="386.0" font-size="11" text-anchor="end" transform="rotate(-35 1183.6 386.0)" font-family="sans-serif" fill="#374151">2026-04-26 12:00</text><text x="26" y="208.0" font-size="12" transform="rotate(-90 26 208.0)" text-anchor="middle" font-family="sans-serif" fill="#1f2937">구간별 수</text><text x="1256.0" y="208.0" font-size="12" transform="rotate(90 1256.0 208.0)" text-anchor="middle" font-family="sans-serif" fill="#1f2937">누적</text><text x="639.0" y="442.0" font-size="13" text-anchor="middle" font-family="sans-serif" fill="#111827">시간</text></svg>