<svg xmlns="http://www.w3.org/2000/svg" width="1280" height="460" viewBox="0 0 1280 460"><rect x="0" y="0" width="100%" height="100%" fill="#ffffff"/><text x="640.0" y="28" font-size="20" text-anchor="middle" font-family="sans-serif" fill="#111827">시리즈 / 최근 반영 시점 / 시간별</text><line x1="80.0" y1="52.0" x2="1198.0" y2="52.0" stroke="#e5e7eb" stroke-width="1"/><text x="72.0" y="56.0" font-size="11" text-anchor="end" font-family="sans-serif" fill="#374151">1,132</text><text x="1206.0" y="56.0" font-size="11" text-anchor="start" font-family="sans-serif" fill="#374151">1,436</text><line x1="80.0" y1="114.4" x2="1198.0" y2="114.4" stroke="#e5e7eb" stroke-width="1"/><text x="72.0" y="118.4" font-size="11" text-anchor="end" font-family="sans-serif" fill="#374151">906</text><text x="1206.0" y="118.4" font-size="11" text-anchor="start" font-family="sans-serif" fill="#374151">1,149</text><line x1="80.0" y1="176.8" x2="1198.0" y2="176.8" stroke="#e5e7eb" stroke-width="1"/><text x="72.0" y="180.8" font-size="11" text-anchor="end" font-family="sans-serif" fill="#374151">679</text><text x="1206.0" y="180.8" font-size="11" text-anchor="start" font-family="sans-serif" fill="#374151">862</text><line x1="80.0" y1="239.2" x2="1198.0" y2="239.2" stroke="#e5e7eb" stroke-width="1"/><text x="72.0" y="243.2" font-size="11" text-anchor="end" font-family="sans-serif" fill="#374151">453</text><text x="1206.0" y="243.2" font-size="11" text-anchor="start" font-family="sans-serif" fill="#374151">574</text><line x1="80.0" y1="301.6" x2="1198.0" y2="301.6" stroke="#e5e7eb" stroke-width="1"/><text x="72.0" y="305.6" font-size="11" text-anchor="end" font-family="sans-serif" fill="#374151">226</text><text x="1206.0" y="305.6" font-size="11" text-anchor="start" font-family="sans-serif" fill="#374151">287</text><line x1="80.0" y1="364.0" x2="1198.0" y2="364.0" stroke="#e5e7eb" stroke-width="1"/><text x="72.0" y="368.0" font-size="11" text-anchor="end" font-family="sans-serif" fill="#374151">0</text><text x="1206.0" y="368.0" font-size="11" text-anchor="start" font-family="sans-serif" fill="#374151">0</text><line x1="80.0" y1="364.0" x2="1198.0" y2="364.0" stroke="#111827" stroke-width="1.2"/><line x1="80.0" y1="52.0" x2="80.0" y2="364.0" stroke="#111827" stroke-width="1.2"/><line x1="1198.0" y1="52.0" x2="1198.0" y2="364.0" stroke="#111827" stroke-width="1.2"/><rect x="81.0" y="363.7" width="63.8" height="0.3" fill="#93c5fd" stroke="#60a5fa" stroke-width="0.5"/><rect x="146.8" y="362.3" width="63.8" height="1.7" fill="#93c5fd" stroke="#60a5fa" stroke-width="0.5"/><rect x="212.5" y="356.0" width="63.8" height="8.0" fill="#93c5fd" stroke="#60a5fa" stroke-width="0.5"/><rect x="278.3" y="363.7" width="63.8" height="0.3" fill="#93c5fd" stroke="#60a5fa" stroke-width="0.5"/><rect x="344.1" y="363.7" width="63.8" height="0.3" fill="#93c5fd" stroke="#60a5fa" stroke-width="0.5"/><rect x="409.8" y="355.7" width="63.8" height="8.3" fill="#93c5fd" stroke="#60a5fa" stroke-width="0.5"/><rect x="475.6" y="363.7" width="63.8" height="0.3" fill="#93c5fd" stroke="#60a5fa" stroke-width="0.5"/><rect x="541.4" y="363.7" width="63.8" height="0.3" fill="#93c5fd" stroke="#60a5fa" stroke-width="0.5"/><rect x="607.1" y="363.7" width="63.8" height="0.3" fill="#93c5fd" stroke="#60a5fa" stroke-width="0.5"/><rect x="672.9" y="363.4" width="63.8" height="0.6" fill="#93c5fd" stroke="#60a5fa" stroke-width="0.5"/><rect x="738.6" y="363.4" width="63.8" height="0.6" fill="#93c5fd" stroke="#60a5fa" stroke-width="0.5"/><rect x="804.4" y="362.6" width="63.8" height="1.4" fill="#93c5fd" stroke="#60a5fa" stroke-width="0.5"/><rect x="870.2" y="363.4" width="63.8" height="0.6" fill="#93c5fd" stroke="#60a5fa" stroke-width="0.5"/><rect x="935.9" y="362.9" width="63.8" height="1.1" fill="#93c5fd" stroke="#60a5fa" stroke-width="0.5"/><rect x="1001.7" y="363.2" width="63.8" height="0.8" fill="#93c5fd" stroke="#60a5fa" stroke-width="0.5"/><rect x="1067.5" y="304.7" width="63.8" height="59.3" fill="#93c5fd" stroke="#60a5fa" stroke-width="0.5"/><rect x="1133.2" y="52.0" width="63.8" height="312.0" fill="#93c5fd" stroke="#60a5fa" stroke-width="0.5"/><polyline fill="none" stroke="#ef4444" stroke-width="2" points="112.9,363.8 178.6,362.5 244.4,356.2 310.2,356.0 375.9,355.7 441.7,349.2 507.5,349.0 573.2,348.8 639.0,348.6 704.8,348.1 770.5,347.7 836.3,346.6 902.1,346.2 967.8,345.3 1033.6,344.7 1099.4,297.9 1165.1,52.0"/><line x1="112.9" y1="364.0" x2="112.9" y2="370.0" stroke="#111827" stroke-width="1"/><text x="114.9" y="386.0" font-size="11" text-anchor="end" transform="rotate(-35 114.9 386.0)" font-family="sans-serif" fill="#374151">2026-04-16 23:00</text><line x1="244.4" y1="364.0" x2="244.4" y2="370.0" stroke="#111827" stroke-width="1"/><text x="246.4" y="386.0" font-size="11" text-anchor="end" transform="rotate(-35 246.4 386.0)" font-family="sans-serif" fill="#374151">2026-04-17 10:00</text><line x1="441.7" y1="364.0" x2="441.7" y2="370.0" stroke="#111827" stroke-width="1"/><text x="443.7" y="386.0" font-size="11" text-anchor="end" transform="rotate(-35 443.7 386.0)" font-family="sans-serif" fill="#374151">2026-04-18 09:00</text><line x1="573.2" y1="364.0" x2="573.2" y2="370.0" stroke="#111827" stroke-width="1"/><text x="575.2" y="386.0" font-size="11" text-anchor="end" transform="rotate(-35 575.2 386.0)" font-family="sans-serif" fill="#374151">2026-04-18 15:00</text><line x1="704.8" y1="364.0" x2="704.8" y2="370.0" stroke="#111827" stroke-width="1"/><text x="706.8" y="386.0" font-size="11" text-anchor="end" transform="rotate(-35 706.8 386.0)" font-family="sans-serif" fill="#374151">2026-04-19 11:00</text><line x1="836.3" y1="364.0" x2="836.3" y2="370.0" stroke="#111827" stroke-width="1"/><text x="838.3" y="386.0" font-size="11" text-anchor="end" transform="rotate(-35 838.3 386.0)" font-family="sans-serif" fill="#374151">2026-04-19 13:00</text><line x1="1033.6" y1="364.0" x2="1033.6" y2="370.0" stroke="#111827" stroke-width="1"/><text x="1035.6" y="386.0" font-size="11" text-anchor="end" transform="rotate(-35 1035.6 386.0)" font-family="sans-serif" fill="#374151">2026-04-19 22:00</text><line x1="1165.1" y1="364.0" x2="1165.1" y2="370.0" stroke="#111827" stroke-width="1"/><text x="1167.1" y="386.0" font-size="11" text-anchor="end" transform="rotate(-35 1167.1 386.0)" font-family="sans-serif" fill="#374151">2026-04-20 00:00</text><text x="26" y="208.0" font-size="12" transform="rotate(-90 26 208.0)" text-anchor="middle" font-family="sans-serif" fill="#1f2937">구간별 수</text><text x="1256.0" y="208.0" font-size="12" transform="rotate(90 1256.0 208.0)" text-anchor="middle" font-family="sans-serif" fill="#1f2937">누적</text><text x="639.0" y="442.0" font-size="13" text-anchor="middle" font-family="sans-serif" fill="#111827">시간</text></svg>