<svg xmlns="http://www.w3.org/2000/svg" width="1280" height="460" viewBox="0 0 1280 460"><rect x="0" y="0" width="100%" height="100%" fill="#ffffff"/><text x="640.0" y="28" font-size="20" text-anchor="middle" font-family="sans-serif" fill="#111827">시리즈 / 생성 시점 / 일별</text><line x1="80.0" y1="52.0" x2="1198.0" y2="52.0" stroke="#e5e7eb" stroke-width="1"/><text x="72.0" y="56.0" font-size="11" text-anchor="end" font-family="sans-serif" fill="#374151">70</text><text x="1206.0" y="56.0" font-size="11" text-anchor="start" font-family="sans-serif" fill="#374151">1,382</text><line x1="80.0" y1="114.4" x2="1198.0" y2="114.4" stroke="#e5e7eb" stroke-width="1"/><text x="72.0" y="118.4" font-size="11" text-anchor="end" font-family="sans-serif" fill="#374151">56</text><text x="1206.0" y="118.4" font-size="11" text-anchor="start" font-family="sans-serif" fill="#374151">1,106</text><line x1="80.0" y1="176.8" x2="1198.0" y2="176.8" stroke="#e5e7eb" stroke-width="1"/><text x="72.0" y="180.8" font-size="11" text-anchor="end" font-family="sans-serif" fill="#374151">42</text><text x="1206.0" y="180.8" font-size="11" text-anchor="start" font-family="sans-serif" fill="#374151">829</text><line x1="80.0" y1="239.2" x2="1198.0" y2="239.2" stroke="#e5e7eb" stroke-width="1"/><text x="72.0" y="243.2" font-size="11" text-anchor="end" font-family="sans-serif" fill="#374151">28</text><text x="1206.0" y="243.2" font-size="11" text-anchor="start" font-family="sans-serif" fill="#374151">553</text><line x1="80.0" y1="301.6" x2="1198.0" y2="301.6" stroke="#e5e7eb" stroke-width="1"/><text x="72.0" y="305.6" font-size="11" text-anchor="end" font-family="sans-serif" fill="#374151">14</text><text x="1206.0" y="305.6" font-size="11" text-anchor="start" font-family="sans-serif" fill="#374151">276</text><line x1="80.0" y1="364.0" x2="1198.0" y2="364.0" stroke="#e5e7eb" stroke-width="1"/><text x="72.0" y="368.0" font-size="11" text-anchor="end" font-family="sans-serif" fill="#374151">0</text><text x="1206.0" y="368.0" font-size="11" text-anchor="start" font-family="sans-serif" fill="#374151">0</text><line x1="80.0" y1="364.0" x2="1198.0" y2="364.0" stroke="#111827" stroke-width="1.2"/><line x1="80.0" y1="52.0" x2="80.0" y2="364.0" stroke="#111827" stroke-width="1.2"/><line x1="1198.0" y1="52.0" x2="1198.0" y2="364.0" stroke="#111827" stroke-width="1.2"/><rect x="81.0" y="346.2" width="2.5" height="17.8" fill="#93c5fd" stroke="#60a5fa" stroke-width="0.5"/><rect x="85.5" y="359.5" width="2.5" height="4.5" fill="#93c5fd" stroke="#60a5fa" stroke-width="0.5"/><rect x="90.0" y="359.5" width="2.5" height="4.5" fill="#93c5fd" stroke="#60a5fa" stroke-width="0.5"/><rect x="94.5" y="355.1" width="2.5" height="8.9" fill="#93c5fd" stroke="#60a5fa" stroke-width="0.5"/><rect x="99.0" y="359.5" width="2.5" height="4.5" fill="#93c5fd" stroke="#60a5fa" stroke-width="0.5"/><rect x="103.5" y="350.6" width="2.5" height="13.4" fill="#93c5fd" stroke="#60a5fa" stroke-width="0.5"/><rect x="108.0" y="359.5" width="2.5" height="4.5" fill="#93c5fd" stroke="#60a5fa" stroke-width="0.5"/><rect x="112.6" y="359.5" width="2.5" height="4.5" fill="#93c5fd" stroke="#60a5fa" stroke-width="0.5"/><rect x="117.1" y="359.5" width="2.5" height="4.5" fill="#93c5fd" stroke="#60a5fa" stroke-width="0.5"/><rect x="121.6" y="359.5" width="2.5" height="4.5" fill="#93c5fd" stroke="#60a5fa" stroke-width="0.5"/><rect x="126.1" y="359.5" width="2.5" height="4.5" fill="#93c5fd" stroke="#60a5fa" stroke-width="0.5"/><rect x="130.6" y="359.5" width="2.5" height="4.5" fill="#93c5fd" stroke="#60a5fa" stroke-width="0.5"/><rect x="135.1" y="359.5" width="2.5" height="4.5" fill="#93c5fd" stroke="#60a5fa" stroke-width="0.5"/><rect x="139.6" y="355.1" width="2.5" height="8.9" fill="#93c5fd" stroke="#60a5fa" stroke-width="0.5"/><rect x="144.1" y="346.2" width="2.5" height="17.8" fill="#93c5fd" stroke="#60a5fa" stroke-width="0.5"/><rect x="148.6" y="359.5" width="2.5" height="4.5" fill="#93c5fd" stroke="#60a5fa" stroke-width="0.5"/><rect x="153.1" y="359.5" width="2.5" height="4.5" fill="#93c5fd" stroke="#60a5fa" stroke-width="0.5"/><rect x="157.6" y="350.6" width="2.5" height="13.4" fill="#93c5fd" stroke="#60a5fa" stroke-width="0.5"/><rect x="162.1" y="341.7" width="2.5" height="22.3" fill="#93c5fd" stroke="#60a5fa" stroke-width="0.5"/><rect x="166.7" y="306.1" width="2.5" height="57.9" fill="#93c5fd" stroke="#60a5fa" stroke-width="0.5"/><rect x="171.2" y="355.1" width="2.5" height="8.9" fill="#93c5fd" stroke="#60a5fa" stroke-width="0.5"/><rect x="175.7" y="350.6" width="2.5" height="13.4" fill="#93c5fd" stroke="#60a5fa" stroke-width="0.5"/><rect x="180.2" y="359.5" width="2.5" height="4.5" fill="#93c5fd" stroke="#60a5fa" stroke-width="0.5"/><rect x="184.7" y="350.6" width="2.5" height="13.4" fill="#93c5fd" stroke="#60a5fa" stroke-width="0.5"/><rect x="189.2" y="359.5" width="2.5" height="4.5" fill="#93c5fd" stroke="#60a5fa" stroke-width="0.5"/><rect x="193.7" y="341.7" width="2.5" height="22.3" fill="#93c5fd" stroke="#60a5fa" stroke-width="0.5"/><rect x="198.2" y="359.5" width="2.5" height="4.5" fill="#93c5fd" stroke="#60a5fa" stroke-width="0.5"/><rect x="202.7" y="359.5" width="2.5" height="4.5" fill="#93c5fd" stroke="#60a5fa" stroke-width="0.5"/><rect x="207.2" y="359.5" width="2.5" height="4.5" fill="#93c5fd" stroke="#60a5fa" stroke-width="0.5"/><rect x="211.7" y="359.5" width="2.5" height="4.5" fill="#93c5fd" stroke="#60a5fa" stroke-width="0.5"/><rect x="216.2" y="359.5" width="2.5" height="4.5" fill="#93c5fd" stroke="#60a5fa" stroke-width="0.5"/><rect x="220.8" y="359.5" width="2.5" height="4.5" fill="#93c5fd" stroke="#60a5fa" stroke-width="0.5"/><rect x="225.3" y="359.5" width="2.5" height="4.5" fill="#93c5fd" stroke="#60a5fa" stroke-width="0.5"/><rect x="229.8" y="359.5" width="2.5" height="4.5" fill="#93c5fd" stroke="#60a5fa" stroke-width="0.5"/><rect x="234.3" y="359.5" width="2.5" height="4.5" fill="#93c5fd" stroke="#60a5fa" stroke-width="0.5"/><rect x="238.8" y="359.5" width="2.5" height="4.5" fill="#93c5fd" stroke="#60a5fa" stroke-width="0.5"/><rect x="243.3" y="359.5" width="2.5" height="4.5" fill="#93c5fd" stroke="#60a5fa" stroke-width="0.5"/><rect x="247.8" y="359.5" width="2.5" height="4.5" fill="#93c5fd" stroke="#60a5fa" stroke-width="0.5"/><rect x="252.3" y="359.5" width="2.5" height="4.5" fill="#93c5fd" stroke="#60a5fa" stroke-width="0.5"/><rect x="256.8" y="359.5" width="2.5" height="4.5" fill="#93c5fd" stroke="#60a5fa" stroke-width="0.5"/><rect x="261.3" y="350.6" width="2.5" height="13.4" fill="#93c5fd" stroke="#60a5fa" stroke-width="0.5"/><rect x="265.8" y="359.5" width="2.5" height="4.5" fill="#93c5fd" stroke="#60a5fa" stroke-width="0.5"/><rect x="270.3" y="359.5" width="2.5" height="4.5" fill="#93c5fd" stroke="#60a5fa" stroke-width="0.5"/><rect x="274.8" y="315.0" width="2.5" height="49.0" fill="#93c5fd" stroke="#60a5fa" stroke-width="0.5"/><rect x="279.4" y="359.5" width="2.5" height="4.5" fill="#93c5fd" stroke="#60a5fa" stroke-width="0.5"/><rect x="283.9" y="337.3" width="2.5" height="26.7" fill="#93c5fd" stroke="#60a5fa" stroke-width="0.5"/><rect x="288.4" y="328.3" width="2.5" height="35.7" fill="#93c5fd" stroke="#60a5fa" stroke-width="0.5"/><rect x="292.9" y="359.5" width="2.5" height="4.5" fill="#93c5fd" stroke="#60a5fa" stroke-width="0.5"/><rect x="297.4" y="355.1" width="2.5" height="8.9" fill="#93c5fd" stroke="#60a5fa" stroke-width="0.5"/><rect x="301.9" y="350.6" width="2.5" height="13.4" fill="#93c5fd" stroke="#60a5fa" stroke-width="0.5"/><rect x="306.4" y="355.1" width="2.5" height="8.9" fill="#93c5fd" stroke="#60a5fa" stroke-width="0.5"/><rect x="310.9" y="355.1" width="2.5" height="8.9" fill="#93c5fd" stroke="#60a5fa" stroke-width="0.5"/><rect x="315.4" y="350.6" width="2.5" height="13.4" fill="#93c5fd" stroke="#60a5fa" stroke-width="0.5"/><rect x="319.9" y="359.5" width="2.5" height="4.5" fill="#93c5fd" stroke="#60a5fa" stroke-width="0.5"/><rect x="324.4" y="359.5" width="2.5" height="4.5" fill="#93c5fd" stroke="#60a5fa" stroke-width="0.5"/><rect x="328.9" y="359.5" width="2.5" height="4.5" fill="#93c5fd" stroke="#60a5fa" stroke-width="0.5"/><rect x="333.5" y="359.5" width="2.5" height="4.5" fill="#93c5fd" stroke="#60a5fa" stroke-width="0.5"/><rect x="338.0" y="350.6" width="2.5" height="13.4" fill="#93c5fd" stroke="#60a5fa" stroke-width="0.5"/><rect x="342.5" y="359.5" width="2.5" height="4.5" fill="#93c5fd" stroke="#60a5fa" stroke-width="0.5"/><rect x="347.0" y="328.3" width="2.5" height="35.7" fill="#93c5fd" stroke="#60a5fa" stroke-width="0.5"/><rect x="351.5" y="359.5" width="2.5" height="4.5" fill="#93c5fd" stroke="#60a5fa" stroke-width="0.5"/><rect x="356.0" y="359.5" width="2.5" height="4.5" fill="#93c5fd" stroke="#60a5fa" stroke-width="0.5"/><rect x="360.5" y="359.5" width="2.5" height="4.5" fill="#93c5fd" stroke="#60a5fa" stroke-width="0.5"/><rect x="365.0" y="350.6" width="2.5" height="13.4" fill="#93c5fd" stroke="#60a5fa" stroke-width="0.5"/><rect x="369.5" y="359.5" width="2.5" height="4.5" fill="#93c5fd" stroke="#60a5fa" stroke-width="0.5"/><rect x="374.0" y="359.5" width="2.5" height="4.5" fill="#93c5fd" stroke="#60a5fa" stroke-width="0.5"/><rect x="378.5" y="355.1" width="2.5" height="8.9" fill="#93c5fd" stroke="#60a5fa" stroke-width="0.5"/><rect x="383.0" y="350.6" width="2.5" height="13.4" fill="#93c5fd" stroke="#60a5fa" stroke-width="0.5"/><rect x="387.5" y="359.5" width="2.5" height="4.5" fill="#93c5fd" stroke="#60a5fa" stroke-width="0.5"/><rect x="392.1" y="350.6" width="2.5" height="13.4" fill="#93c5fd" stroke="#60a5fa" stroke-width="0.5"/><rect x="396.6" y="355.1" width="2.5" height="8.9" fill="#93c5fd" stroke="#60a5fa" stroke-width="0.5"/><rect x="401.1" y="350.6" width="2.5" height="13.4" fill="#93c5fd" stroke="#60a5fa" stroke-width="0.5"/><rect x="405.6" y="359.5" width="2.5" height="4.5" fill="#93c5fd" stroke="#60a5fa" stroke-width="0.5"/><rect x="410.1" y="319.4" width="2.5" height="44.6" fill="#93c5fd" stroke="#60a5fa" stroke-width="0.5"/><rect x="414.6" y="346.2" width="2.5" height="17.8" fill="#93c5fd" stroke="#60a5fa" stroke-width="0.5"/><rect x="419.1" y="346.2" width="2.5" height="17.8" fill="#93c5fd" stroke="#60a5fa" stroke-width="0.5"/><rect x="423.6" y="359.5" width="2.5" height="4.5" fill="#93c5fd" stroke="#60a5fa" stroke-width="0.5"/><rect x="428.1" y="359.5" width="2.5" height="4.5" fill="#93c5fd" stroke="#60a5fa" stroke-width="0.5"/><rect x="432.6" y="359.5" width="2.5" height="4.5" fill="#93c5fd" stroke="#60a5fa" stroke-width="0.5"/><rect x="437.1" y="355.1" width="2.5" height="8.9" fill="#93c5fd" stroke="#60a5fa" stroke-width="0.5"/><rect x="441.6" y="355.1" width="2.5" height="8.9" fill="#93c5fd" stroke="#60a5fa" stroke-width="0.5"/><rect x="446.2" y="350.6" width="2.5" height="13.4" fill="#93c5fd" stroke="#60a5fa" stroke-width="0.5"/><rect x="450.7" y="355.1" width="2.5" height="8.9" fill="#93c5fd" stroke="#60a5fa" stroke-width="0.5"/><rect x="455.2" y="350.6" width="2.5" height="13.4" fill="#93c5fd" stroke="#60a5fa" stroke-width="0.5"/><rect x="459.7" y="359.5" width="2.5" height="4.5" fill="#93c5fd" stroke="#60a5fa" stroke-width="0.5"/><rect x="464.2" y="355.1" width="2.5" height="8.9" fill="#93c5fd" stroke="#60a5fa" stroke-width="0.5"/><rect x="468.7" y="359.5" width="2.5" height="4.5" fill="#93c5fd" stroke="#60a5fa" stroke-width="0.5"/><rect x="473.2" y="337.3" width="2.5" height="26.7" fill="#93c5fd" stroke="#60a5fa" stroke-width="0.5"/><rect x="477.7" y="359.5" width="2.5" height="4.5" fill="#93c5fd" stroke="#60a5fa" stroke-width="0.5"/><rect x="482.2" y="359.5" width="2.5" height="4.5" fill="#93c5fd" stroke="#60a5fa" stroke-width="0.5"/><rect x="486.7" y="359.5" width="2.5" height="4.5" fill="#93c5fd" stroke="#60a5fa" stroke-width="0.5"/><rect x="491.2" y="359.5" width="2.5" height="4.5" fill="#93c5fd" stroke="#60a5fa" stroke-width="0.5"/><rect x="495.7" y="359.5" width="2.5" height="4.5" fill="#93c5fd" stroke="#60a5fa" stroke-width="0.5"/><rect x="500.2" y="337.3" width="2.5" height="26.7" fill="#93c5fd" stroke="#60a5fa" stroke-width="0.5"/><rect x="504.8" y="359.5" width="2.5" height="4.5" fill="#93c5fd" stroke="#60a5fa" stroke-width="0.5"/><rect x="509.3" y="346.2" width="2.5" height="17.8" fill="#93c5fd" stroke="#60a5fa" stroke-width="0.5"/><rect x="513.8" y="319.4" width="2.5" height="44.6" fill="#93c5fd" stroke="#60a5fa" stroke-width="0.5"/><rect x="518.3" y="328.3" width="2.5" height="35.7" fill="#93c5fd" stroke="#60a5fa" stroke-width="0.5"/><rect x="522.8" y="355.1" width="2.5" height="8.9" fill="#93c5fd" stroke="#60a5fa" stroke-width="0.5"/><rect x="527.3" y="355.1" width="2.5" height="8.9" fill="#93c5fd" stroke="#60a5fa" stroke-width="0.5"/><rect x="531.8" y="355.1" width="2.5" height="8.9" fill="#93c5fd" stroke="#60a5fa" stroke-width="0.5"/><rect x="536.3" y="355.1" width="2.5" height="8.9" fill="#93c5fd" stroke="#60a5fa" stroke-width="0.5"/><rect x="540.8" y="350.6" width="2.5" height="13.4" fill="#93c5fd" stroke="#60a5fa" stroke-width="0.5"/><rect x="545.3" y="341.7" width="2.5" height="22.3" fill="#93c5fd" stroke="#60a5fa" stroke-width="0.5"/><rect x="549.8" y="359.5" width="2.5" height="4.5" fill="#93c5fd" stroke="#60a5fa" stroke-width="0.5"/><rect x="554.3" y="323.9" width="2.5" height="40.1" fill="#93c5fd" stroke="#60a5fa" stroke-width="0.5"/><rect x="558.9" y="355.1" width="2.5" height="8.9" fill="#93c5fd" stroke="#60a5fa" stroke-width="0.5"/><rect x="563.4" y="346.2" width="2.5" height="17.8" fill="#93c5fd" stroke="#60a5fa" stroke-width="0.5"/><rect x="567.9" y="355.1" width="2.5" height="8.9" fill="#93c5fd" stroke="#60a5fa" stroke-width="0.5"/><rect x="572.4" y="359.5" width="2.5" height="4.5" fill="#93c5fd" stroke="#60a5fa" stroke-width="0.5"/><rect x="576.9" y="359.5" width="2.5" height="4.5" fill="#93c5fd" stroke="#60a5fa" stroke-width="0.5"/><rect x="581.4" y="355.1" width="2.5" height="8.9" fill="#93c5fd" stroke="#60a5fa" stroke-width="0.5"/><rect x="585.9" y="350.6" width="2.5" height="13.4" fill="#93c5fd" stroke="#60a5fa" stroke-width="0.5"/><rect x="590.4" y="355.1" width="2.5" height="8.9" fill="#93c5fd" stroke="#60a5fa" stroke-width="0.5"/><rect x="594.9" y="315.0" width="2.5" height="49.0" fill="#93c5fd" stroke="#60a5fa" stroke-width="0.5"/><rect x="599.4" y="319.4" width="2.5" height="44.6" fill="#93c5fd" stroke="#60a5fa" stroke-width="0.5"/><rect x="603.9" y="346.2" width="2.5" height="17.8" fill="#93c5fd" stroke="#60a5fa" stroke-width="0.5"/><rect x="608.4" y="359.5" width="2.5" height="4.5" fill="#93c5fd" stroke="#60a5fa" stroke-width="0.5"/><rect x="613.0" y="328.3" width="2.5" height="35.7" fill="#93c5fd" stroke="#60a5fa" stroke-width="0.5"/><rect x="617.5" y="328.3" width="2.5" height="35.7" fill="#93c5fd" stroke="#60a5fa" stroke-width="0.5"/><rect x="622.0" y="257.0" width="2.5" height="107.0" fill="#93c5fd" stroke="#60a5fa" stroke-width="0.5"/><rect x="626.5" y="355.1" width="2.5" height="8.9" fill="#93c5fd" stroke="#60a5fa" stroke-width="0.5"/><rect x="631.0" y="341.7" width="2.5" height="22.3" fill="#93c5fd" stroke="#60a5fa" stroke-width="0.5"/><rect x="635.5" y="350.6" width="2.5" height="13.4" fill="#93c5fd" stroke="#60a5fa" stroke-width="0.5"/><rect x="640.0" y="306.1" width="2.5" height="57.9" fill="#93c5fd" stroke="#60a5fa" stroke-width="0.5"/><rect x="644.5" y="337.3" width="2.5" height="26.7" fill="#93c5fd" stroke="#60a5fa" stroke-width="0.5"/><rect x="649.0" y="301.6" width="2.5" height="62.4" fill="#93c5fd" stroke="#60a5fa" stroke-width="0.5"/><rect x="653.5" y="319.4" width="2.5" height="44.6" fill="#93c5fd" stroke="#60a5fa" stroke-width="0.5"/><rect x="658.0" y="355.1" width="2.5" height="8.9" fill="#93c5fd" stroke="#60a5fa" stroke-width="0.5"/><rect x="662.5" y="359.5" width="2.5" height="4.5" fill="#93c5fd" stroke="#60a5fa" stroke-width="0.5"/><rect x="667.0" y="341.7" width="2.5" height="22.3" fill="#93c5fd" stroke="#60a5fa" stroke-width="0.5"/><rect x="671.6" y="306.1" width="2.5" height="57.9" fill="#93c5fd" stroke="#60a5fa" stroke-width="0.5"/><rect x="676.1" y="346.2" width="2.5" height="17.8" fill="#93c5fd" stroke="#60a5fa" stroke-width="0.5"/><rect x="680.6" y="257.0" width="2.5" height="107.0" fill="#93c5fd" stroke="#60a5fa" stroke-width="0.5"/><rect x="685.1" y="341.7" width="2.5" height="22.3" fill="#93c5fd" stroke="#60a5fa" stroke-width="0.5"/><rect x="689.6" y="52.0" width="2.5" height="312.0" fill="#93c5fd" stroke="#60a5fa" stroke-width="0.5"/><rect x="694.1" y="288.2" width="2.5" height="75.8" fill="#93c5fd" stroke="#60a5fa" stroke-width="0.5"/><rect x="698.6" y="350.6" width="2.5" height="13.4" fill="#93c5fd" stroke="#60a5fa" stroke-width="0.5"/><rect x="703.1" y="355.1" width="2.5" height="8.9" fill="#93c5fd" stroke="#60a5fa" stroke-width="0.5"/><rect x="707.6" y="181.3" width="2.5" height="182.7" fill="#93c5fd" stroke="#60a5fa" stroke-width="0.5"/><rect x="712.1" y="337.3" width="2.5" height="26.7" fill="#93c5fd" stroke="#60a5fa" stroke-width="0.5"/><rect x="716.6" y="350.6" width="2.5" height="13.4" fill="#93c5fd" stroke="#60a5fa" stroke-width="0.5"/><rect x="721.1" y="355.1" width="2.5" height="8.9" fill="#93c5fd" stroke="#60a5fa" stroke-width="0.5"/><rect x="725.7" y="346.2" width="2.5" height="17.8" fill="#93c5fd" stroke="#60a5fa" stroke-width="0.5"/><rect x="730.2" y="328.3" width="2.5" height="35.7" fill="#93c5fd" stroke="#60a5fa" stroke-width="0.5"/><rect x="734.7" y="359.5" width="2.5" height="4.5" fill="#93c5fd" stroke="#60a5fa" stroke-width="0.5"/><rect x="739.2" y="359.5" width="2.5" height="4.5" fill="#93c5fd" stroke="#60a5fa" stroke-width="0.5"/><rect x="743.7" y="346.2" width="2.5" height="17.8" fill="#93c5fd" stroke="#60a5fa" stroke-width="0.5"/><rect x="748.2" y="341.7" width="2.5" height="22.3" fill="#93c5fd" stroke="#60a5fa" stroke-width="0.5"/><rect x="752.7" y="337.3" width="2.5" height="26.7" fill="#93c5fd" stroke="#60a5fa" stroke-width="0.5"/><rect x="757.2" y="337.3" width="2.5" height="26.7" fill="#93c5fd" stroke="#60a5fa" stroke-width="0.5"/><rect x="761.7" y="359.5" width="2.5" height="4.5" fill="#93c5fd" stroke="#60a5fa" stroke-width="0.5"/><rect x="766.2" y="341.7" width="2.5" height="22.3" fill="#93c5fd" stroke="#60a5fa" stroke-width="0.5"/><rect x="770.7" y="332.8" width="2.5" height="31.2" fill="#93c5fd" stroke="#60a5fa" stroke-width="0.5"/><rect x="775.2" y="332.8" width="2.5" height="31.2" fill="#93c5fd" stroke="#60a5fa" stroke-width="0.5"/><rect x="779.8" y="328.3" width="2.5" height="35.7" fill="#93c5fd" stroke="#60a5fa" stroke-width="0.5"/><rect x="784.3" y="323.9" width="2.5" height="40.1" fill="#93c5fd" stroke="#60a5fa" stroke-width="0.5"/><rect x="788.8" y="332.8" width="2.5" height="31.2" fill="#93c5fd" stroke="#60a5fa" stroke-width="0.5"/><rect x="793.3" y="346.2" width="2.5" height="17.8" fill="#93c5fd" stroke="#60a5fa" stroke-width="0.5"/><rect x="797.8" y="350.6" width="2.5" height="13.4" fill="#93c5fd" stroke="#60a5fa" stroke-width="0.5"/><rect x="802.3" y="350.6" width="2.5" height="13.4" fill="#93c5fd" stroke="#60a5fa" stroke-width="0.5"/><rect x="806.8" y="332.8" width="2.5" height="31.2" fill="#93c5fd" stroke="#60a5fa" stroke-width="0.5"/><rect x="811.3" y="359.5" width="2.5" height="4.5" fill="#93c5fd" stroke="#60a5fa" stroke-width="0.5"/><rect x="815.8" y="350.6" width="2.5" height="13.4" fill="#93c5fd" stroke="#60a5fa" stroke-width="0.5"/><rect x="820.3" y="355.1" width="2.5" height="8.9" fill="#93c5fd" stroke="#60a5fa" stroke-width="0.5"/><rect x="824.8" y="355.1" width="2.5" height="8.9" fill="#93c5fd" stroke="#60a5fa" stroke-width="0.5"/><rect x="829.3" y="355.1" width="2.5" height="8.9" fill="#93c5fd" stroke="#60a5fa" stroke-width="0.5"/><rect x="833.8" y="355.1" width="2.5" height="8.9" fill="#93c5fd" stroke="#60a5fa" stroke-width="0.5"/><rect x="838.4" y="359.5" width="2.5" height="4.5" fill="#93c5fd" stroke="#60a5fa" stroke-width="0.5"/><rect x="842.9" y="359.5" width="2.5" height="4.5" fill="#93c5fd" stroke="#60a5fa" stroke-width="0.5"/><rect x="847.4" y="337.3" width="2.5" height="26.7" fill="#93c5fd" stroke="#60a5fa" stroke-width="0.5"/><rect x="851.9" y="355.1" width="2.5" height="8.9" fill="#93c5fd" stroke="#60a5fa" stroke-width="0.5"/><rect x="856.4" y="328.3" width="2.5" height="35.7" fill="#93c5fd" stroke="#60a5fa" stroke-width="0.5"/><rect x="860.9" y="350.6" width="2.5" height="13.4" fill="#93c5fd" stroke="#60a5fa" stroke-width="0.5"/><rect x="865.4" y="328.3" width="2.5" height="35.7" fill="#93c5fd" stroke="#60a5fa" stroke-width="0.5"/><rect x="869.9" y="332.8" width="2.5" height="31.2" fill="#93c5fd" stroke="#60a5fa" stroke-width="0.5"/><rect x="874.4" y="328.3" width="2.5" height="35.7" fill="#93c5fd" stroke="#60a5fa" stroke-width="0.5"/><rect x="878.9" y="341.7" width="2.5" height="22.3" fill="#93c5fd" stroke="#60a5fa" stroke-width="0.5"/><rect x="883.4" y="355.1" width="2.5" height="8.9" fill="#93c5fd" stroke="#60a5fa" stroke-width="0.5"/><rect x="887.9" y="355.1" width="2.5" height="8.9" fill="#93c5fd" stroke="#60a5fa" stroke-width="0.5"/><rect x="892.5" y="319.4" width="2.5" height="44.6" fill="#93c5fd" stroke="#60a5fa" stroke-width="0.5"/><rect x="897.0" y="315.0" width="2.5" height="49.0" fill="#93c5fd" stroke="#60a5fa" stroke-width="0.5"/><rect x="901.5" y="328.3" width="2.5" height="35.7" fill="#93c5fd" stroke="#60a5fa" stroke-width="0.5"/><rect x="906.0" y="323.9" width="2.5" height="40.1" fill="#93c5fd" stroke="#60a5fa" stroke-width="0.5"/><rect x="910.5" y="341.7" width="2.5" height="22.3" fill="#93c5fd" stroke="#60a5fa" stroke-width="0.5"/><rect x="915.0" y="359.5" width="2.5" height="4.5" fill="#93c5fd" stroke="#60a5fa" stroke-width="0.5"/><rect x="919.5" y="350.6" width="2.5" height="13.4" fill="#93c5fd" stroke="#60a5fa" stroke-width="0.5"/><rect x="924.0" y="359.5" width="2.5" height="4.5" fill="#93c5fd" stroke="#60a5fa" stroke-width="0.5"/><rect x="928.5" y="346.2" width="2.5" height="17.8" fill="#93c5fd" stroke="#60a5fa" stroke-width="0.5"/><rect x="933.0" y="346.2" width="2.5" height="17.8" fill="#93c5fd" stroke="#60a5fa" stroke-width="0.5"/><rect x="937.5" y="341.7" width="2.5" height="22.3" fill="#93c5fd" stroke="#60a5fa" stroke-width="0.5"/><rect x="942.0" y="359.5" width="2.5" height="4.5" fill="#93c5fd" stroke="#60a5fa" stroke-width="0.5"/><rect x="946.5" y="359.5" width="2.5" height="4.5" fill="#93c5fd" stroke="#60a5fa" stroke-width="0.5"/><rect x="951.1" y="315.0" width="2.5" height="49.0" fill="#93c5fd" stroke="#60a5fa" stroke-width="0.5"/><rect x="955.6" y="230.3" width="2.5" height="133.7" fill="#93c5fd" stroke="#60a5fa" stroke-width="0.5"/><rect x="960.1" y="297.1" width="2.5" height="66.9" fill="#93c5fd" stroke="#60a5fa" stroke-width="0.5"/><rect x="964.6" y="359.5" width="2.5" height="4.5" fill="#93c5fd" stroke="#60a5fa" stroke-width="0.5"/><rect x="969.1" y="319.4" width="2.5" height="44.6" fill="#93c5fd" stroke="#60a5fa" stroke-width="0.5"/><rect x="973.6" y="355.1" width="2.5" height="8.9" fill="#93c5fd" stroke="#60a5fa" stroke-width="0.5"/><rect x="978.1" y="341.7" width="2.5" height="22.3" fill="#93c5fd" stroke="#60a5fa" stroke-width="0.5"/><rect x="982.6" y="315.0" width="2.5" height="49.0" fill="#93c5fd" stroke="#60a5fa" stroke-width="0.5"/><rect x="987.1" y="350.6" width="2.5" height="13.4" fill="#93c5fd" stroke="#60a5fa" stroke-width="0.5"/><rect x="991.6" y="279.3" width="2.5" height="84.7" fill="#93c5fd" stroke="#60a5fa" stroke-width="0.5"/><rect x="996.1" y="132.2" width="2.5" height="231.8" fill="#93c5fd" stroke="#60a5fa" stroke-width="0.5"/><rect x="1000.6" y="359.5" width="2.5" height="4.5" fill="#93c5fd" stroke="#60a5fa" stroke-width="0.5"/><rect x="1005.2" y="212.5" width="2.5" height="151.5" fill="#93c5fd" stroke="#60a5fa" stroke-width="0.5"/><rect x="1009.7" y="355.1" width="2.5" height="8.9" fill="#93c5fd" stroke="#60a5fa" stroke-width="0.5"/><rect x="1014.2" y="252.6" width="2.5" height="111.4" fill="#93c5fd" stroke="#60a5fa" stroke-width="0.5"/><rect x="1018.7" y="359.5" width="2.5" height="4.5" fill="#93c5fd" stroke="#60a5fa" stroke-width="0.5"/><rect x="1023.2" y="337.3" width="2.5" height="26.7" fill="#93c5fd" stroke="#60a5fa" stroke-width="0.5"/><rect x="1027.7" y="355.1" width="2.5" height="8.9" fill="#93c5fd" stroke="#60a5fa" stroke-width="0.5"/><rect x="1032.2" y="306.1" width="2.5" height="57.9" fill="#93c5fd" stroke="#60a5fa" stroke-width="0.5"/><rect x="1036.7" y="332.8" width="2.5" height="31.2" fill="#93c5fd" stroke="#60a5fa" stroke-width="0.5"/><rect x="1041.2" y="355.1" width="2.5" height="8.9" fill="#93c5fd" stroke="#60a5fa" stroke-width="0.5"/><rect x="1045.7" y="252.6" width="2.5" height="111.4" fill="#93c5fd" stroke="#60a5fa" stroke-width="0.5"/><rect x="1050.2" y="346.2" width="2.5" height="17.8" fill="#93c5fd" stroke="#60a5fa" stroke-width="0.5"/><rect x="1054.7" y="328.3" width="2.5" height="35.7" fill="#93c5fd" stroke="#60a5fa" stroke-width="0.5"/><rect x="1059.2" y="350.6" width="2.5" height="13.4" fill="#93c5fd" stroke="#60a5fa" stroke-width="0.5"/><rect x="1063.8" y="319.4" width="2.5" height="44.6" fill="#93c5fd" stroke="#60a5fa" stroke-width="0.5"/><rect x="1068.3" y="359.5" width="2.5" height="4.5" fill="#93c5fd" stroke="#60a5fa" stroke-width="0.5"/><rect x="1072.8" y="292.7" width="2.5" height="71.3" fill="#93c5fd" stroke="#60a5fa" stroke-width="0.5"/><rect x="1077.3" y="323.9" width="2.5" height="40.1" fill="#93c5fd" stroke="#60a5fa" stroke-width="0.5"/><rect x="1081.8" y="350.6" width="2.5" height="13.4" fill="#93c5fd" stroke="#60a5fa" stroke-width="0.5"/><rect x="1086.3" y="301.6" width="2.5" height="62.4" fill="#93c5fd" stroke="#60a5fa" stroke-width="0.5"/><rect x="1090.8" y="355.1" width="2.5" height="8.9" fill="#93c5fd" stroke="#60a5fa" stroke-width="0.5"/><rect x="1095.3" y="359.5" width="2.5" height="4.5" fill="#93c5fd" stroke="#60a5fa" stroke-width="0.5"/><rect x="1099.8" y="355.1" width="2.5" height="8.9" fill="#93c5fd" stroke="#60a5fa" stroke-width="0.5"/><rect x="1104.3" y="350.6" width="2.5" height="13.4" fill="#93c5fd" stroke="#60a5fa" stroke-width="0.5"/><rect x="1108.8" y="310.5" width="2.5" height="53.5" fill="#93c5fd" stroke="#60a5fa" stroke-width="0.5"/><rect x="1113.3" y="341.7" width="2.5" height="22.3" fill="#93c5fd" stroke="#60a5fa" stroke-width="0.5"/><rect x="1117.9" y="355.1" width="2.5" height="8.9" fill="#93c5fd" stroke="#60a5fa" stroke-width="0.5"/><rect x="1122.4" y="359.5" width="2.5" height="4.5" fill="#93c5fd" stroke="#60a5fa" stroke-width="0.5"/><rect x="1126.9" y="350.6" width="2.5" height="13.4" fill="#93c5fd" stroke="#60a5fa" stroke-width="0.5"/><rect x="1131.4" y="355.1" width="2.5" height="8.9" fill="#93c5fd" stroke="#60a5fa" stroke-width="0.5"/><rect x="1135.9" y="265.9" width="2.5" height="98.1" fill="#93c5fd" stroke="#60a5fa" stroke-width="0.5"/><rect x="1140.4" y="323.9" width="2.5" height="40.1" fill="#93c5fd" stroke="#60a5fa" stroke-width="0.5"/><rect x="1144.9" y="332.8" width="2.5" height="31.2" fill="#93c5fd" stroke="#60a5fa" stroke-width="0.5"/><rect x="1149.4" y="359.5" width="2.5" height="4.5" fill="#93c5fd" stroke="#60a5fa" stroke-width="0.5"/><rect x="1153.9" y="328.3" width="2.5" height="35.7" fill="#93c5fd" stroke="#60a5fa" stroke-width="0.5"/><rect x="1158.4" y="350.6" width="2.5" height="13.4" fill="#93c5fd" stroke="#60a5fa" stroke-width="0.5"/><rect x="1162.9" y="301.6" width="2.5" height="62.4" fill="#93c5fd" stroke="#60a5fa" stroke-width="0.5"/><rect x="1167.4" y="212.5" width="2.5" height="151.5" fill="#93c5fd" stroke="#60a5fa" stroke-width="0.5"/><rect x="1172.0" y="346.2" width="2.5" height="17.8" fill="#93c5fd" stroke="#60a5fa" stroke-width="0.5"/><rect x="1176.5" y="279.3" width="2.5" height="84.7" fill="#93c5fd" stroke="#60a5fa" stroke-width="0.5"/><rect x="1181.0" y="359.5" width="2.5" height="4.5" fill="#93c5fd" stroke="#60a5fa" stroke-width="0.5"/><rect x="1185.5" y="190.2" width="2.5" height="173.8" fill="#93c5fd" stroke="#60a5fa" stroke-width="0.5"/><rect x="1190.0" y="310.5" width="2.5" height="53.5" fill="#93c5fd" stroke="#60a5fa" stroke-width="0.5"/><rect x="1194.5" y="319.4" width="2.5" height="44.6" fill="#93c5fd" stroke="#60a5fa" stroke-width="0.5"/><polyline fill="none" stroke="#ef4444" stroke-width="2" points="82.3,363.1 86.8,362.9 91.3,362.6 95.8,362.2 100.3,362.0 104.8,361.3 109.3,361.1 113.8,360.8 118.3,360.6 122.8,360.4 127.3,360.2 131.8,359.9 136.4,359.7 140.9,359.3 145.4,358.4 149.9,358.1 154.4,357.9 158.9,357.2 163.4,356.1 167.9,353.2 172.4,352.7 176.9,352.0 181.4,351.8 185.9,351.1 190.4,350.9 195.0,349.8 199.5,349.6 204.0,349.3 208.5,349.1 213.0,348.9 217.5,348.6 222.0,348.4 226.5,348.2 231.0,348.0 235.5,347.7 240.0,347.5 244.5,347.3 249.1,347.1 253.6,346.8 258.1,346.6 262.6,345.9 267.1,345.7 271.6,345.5 276.1,343.0 280.6,342.8 285.1,341.4 289.6,339.6 294.1,339.4 298.6,338.9 303.1,338.3 307.7,337.8 312.2,337.4 316.7,336.7 321.2,336.5 325.7,336.2 330.2,336.0 334.7,335.8 339.2,335.1 343.7,334.9 348.2,333.1 352.7,332.8 357.2,332.6 361.8,332.4 366.3,331.7 370.8,331.5 375.3,331.3 379.8,330.8 384.3,330.1 388.8,329.9 393.3,329.2 397.8,328.8 402.3,328.1 406.8,327.9 411.3,325.6 415.9,324.7 420.4,323.8 424.9,323.6 429.4,323.4 433.9,323.1 438.4,322.7 442.9,322.2 447.4,321.6 451.9,321.1 456.4,320.4 460.9,320.2 465.4,319.8 469.9,319.5 474.5,318.2 479.0,317.9 483.5,317.7 488.0,317.5 492.5,317.3 497.0,317.0 501.5,315.7 506.0,315.5 510.5,314.6 515.0,312.3 519.5,310.5 524.0,310.0 528.6,309.6 533.1,309.1 537.6,308.7 542.1,308.0 546.6,306.9 551.1,306.7 555.6,304.6 560.1,304.2 564.6,303.3 569.1,302.8 573.6,302.6 578.1,302.4 582.6,301.9 587.2,301.2 591.7,300.8 596.2,298.3 600.7,296.0 605.2,295.1 609.7,294.9 614.2,293.1 618.7,291.3 623.2,285.9 627.7,285.4 632.2,284.3 636.7,283.6 641.3,280.7 645.8,279.3 650.3,276.2 654.8,273.9 659.3,273.5 663.8,273.2 668.3,272.1 672.8,269.2 677.3,268.3 681.8,262.9 686.3,261.7 690.8,245.9 695.4,242.1 699.9,241.4 704.4,241.0 708.9,231.7 713.4,230.4 717.9,229.7 722.4,229.2 726.9,228.3 731.4,226.5 735.9,226.3 740.4,226.1 744.9,225.2 749.4,224.0 754.0,222.7 758.5,221.3 763.0,221.1 767.5,220.0 772.0,218.4 776.5,216.8 781.0,215.0 785.5,213.0 790.0,211.4 794.5,210.5 799.0,209.8 803.5,209.1 808.1,207.5 812.6,207.3 817.1,206.6 821.6,206.2 826.1,205.7 830.6,205.3 835.1,204.8 839.6,204.6 844.1,204.4 848.6,203.0 853.1,202.6 857.6,200.8 862.1,200.1 866.7,198.3 871.2,196.7 875.7,194.9 880.2,193.8 884.7,193.3 889.2,192.9 893.7,190.6 898.2,188.1 902.7,186.3 907.2,184.3 911.7,183.2 916.2,182.9 920.8,182.3 925.3,182.0 929.8,181.1 934.3,180.2 938.8,179.1 943.3,178.9 947.8,178.7 952.3,176.2 956.8,169.4 961.3,166.0 965.8,165.8 970.3,163.5 974.9,163.1 979.4,161.9 983.9,159.5 988.4,158.8 992.9,154.5 997.4,142.8 1001.9,142.5 1006.4,134.9 1010.9,134.4 1015.4,128.8 1019.9,128.5 1024.4,127.2 1028.9,126.7 1033.5,123.8 1038.0,122.2 1042.5,121.8 1047.0,116.1 1051.5,115.2 1056.0,113.4 1060.5,112.7 1065.0,110.5 1069.5,110.2 1074.0,106.6 1078.5,104.6 1083.0,103.9 1087.6,100.8 1092.1,100.3 1096.6,100.1 1101.1,99.6 1105.6,99.0 1110.1,96.2 1114.6,95.1 1119.1,94.7 1123.6,94.4 1128.1,93.8 1132.6,93.3 1137.1,88.3 1141.6,86.3 1146.2,84.7 1150.7,84.5 1155.2,82.7 1159.7,82.0 1164.2,78.9 1168.7,71.2 1173.2,70.3 1177.7,66.0 1182.2,65.8 1186.7,57.0 1191.2,54.3 1195.7,52.0"/><line x1="82.3" y1="364.0" x2="82.3" y2="370.0" stroke="#111827" stroke-width="1"/><text x="84.3" y="386.0" font-size="11" text-anchor="end" transform="rotate(-35 84.3 386.0)" font-family="sans-serif" fill="#374151">2022-10-13</text><line x1="240.0" y1="364.0" x2="240.0" y2="370.0" stroke="#111827" stroke-width="1"/><text x="242.0" y="386.0" font-size="11" text-anchor="end" transform="rotate(-35 242.0 386.0)" font-family="sans-serif" fill="#374151">2025-03-19</text><line x1="402.3" y1="364.0" x2="402.3" y2="370.0" stroke="#111827" stroke-width="1"/><text x="404.3" y="386.0" font-size="11" text-anchor="end" transform="rotate(-35 404.3 386.0)" font-family="sans-serif" fill="#374151">2025-07-16</text><line x1="560.1" y1="364.0" x2="560.1" y2="370.0" stroke="#111827" stroke-width="1"/><text x="562.1" y="386.0" font-size="11" text-anchor="end" transform="rotate(-35 562.1 386.0)" font-family="sans-serif" fill="#374151">2025-09-23</text><line x1="717.9" y1="364.0" x2="717.9" y2="370.0" stroke="#111827" stroke-width="1"/><text x="719.9" y="386.0" font-size="11" text-anchor="end" transform="rotate(-35 719.9 386.0)" font-family="sans-serif" fill="#374151">2025-11-13</text><line x1="875.7" y1="364.0" x2="875.7" y2="370.0" stroke="#111827" stroke-width="1"/><text x="877.7" y="386.0" font-size="11" text-anchor="end" transform="rotate(-35 877.7 386.0)" font-family="sans-serif" fill="#374151">2025-12-31</text><line x1="1038.0" y1="364.0" x2="1038.0" y2="370.0" stroke="#111827" stroke-width="1"/><text x="1040.0" y="386.0" font-size="11" text-anchor="end" transform="rotate(-35 1040.0 386.0)" font-family="sans-serif" fill="#374151">2026-02-10</text><line x1="1195.7" y1="364.0" x2="1195.7" y2="370.0" stroke="#111827" stroke-width="1"/><text x="1197.7" y="386.0" font-size="11" text-anchor="end" transform="rotate(-35 1197.7 386.0)" font-family="sans-serif" fill="#374151">2026-03-30</text><text x="26" y="208.0" font-size="12" transform="rotate(-90 26 208.0)" text-anchor="middle" font-family="sans-serif" fill="#1f2937">구간별 수</text><text x="1256.0" y="208.0" font-size="12" transform="rotate(90 1256.0 208.0)" text-anchor="middle" font-family="sans-serif" fill="#1f2937">누적</text><text x="639.0" y="442.0" font-size="13" text-anchor="middle" font-family="sans-serif" fill="#111827">일</text></svg>