<svg xmlns="http://www.w3.org/2000/svg" width="1280" height="460" viewBox="0 0 1280 460"><rect x="0" y="0" width="100%" height="100%" fill="#ffffff"/><text x="640.0" y="28" font-size="20" text-anchor="middle" font-family="sans-serif" fill="#111827">시리즈 / 최근 반영 시점 / 시간별</text><line x1="80.0" y1="52.0" x2="1198.0" y2="52.0" stroke="#e5e7eb" stroke-width="1"/><text x="72.0" y="56.0" font-size="11" text-anchor="end" font-family="sans-serif" fill="#374151">1,314</text><text x="1206.0" y="56.0" font-size="11" text-anchor="start" font-family="sans-serif" fill="#374151">1,418</text><line x1="80.0" y1="114.4" x2="1198.0" y2="114.4" stroke="#e5e7eb" stroke-width="1"/><text x="72.0" y="118.4" font-size="11" text-anchor="end" font-family="sans-serif" fill="#374151">1,051</text><text x="1206.0" y="118.4" font-size="11" text-anchor="start" font-family="sans-serif" fill="#374151">1,134</text><line x1="80.0" y1="176.8" x2="1198.0" y2="176.8" stroke="#e5e7eb" stroke-width="1"/><text x="72.0" y="180.8" font-size="11" text-anchor="end" font-family="sans-serif" fill="#374151">788</text><text x="1206.0" y="180.8" font-size="11" text-anchor="start" font-family="sans-serif" fill="#374151">851</text><line x1="80.0" y1="239.2" x2="1198.0" y2="239.2" stroke="#e5e7eb" stroke-width="1"/><text x="72.0" y="243.2" font-size="11" text-anchor="end" font-family="sans-serif" fill="#374151">526</text><text x="1206.0" y="243.2" font-size="11" text-anchor="start" font-family="sans-serif" fill="#374151">567</text><line x1="80.0" y1="301.6" x2="1198.0" y2="301.6" stroke="#e5e7eb" stroke-width="1"/><text x="72.0" y="305.6" font-size="11" text-anchor="end" font-family="sans-serif" fill="#374151">263</text><text x="1206.0" y="305.6" font-size="11" text-anchor="start" font-family="sans-serif" fill="#374151">284</text><line x1="80.0" y1="364.0" x2="1198.0" y2="364.0" stroke="#e5e7eb" stroke-width="1"/><text x="72.0" y="368.0" font-size="11" text-anchor="end" font-family="sans-serif" fill="#374151">0</text><text x="1206.0" y="368.0" font-size="11" text-anchor="start" font-family="sans-serif" fill="#374151">0</text><line x1="80.0" y1="364.0" x2="1198.0" y2="364.0" stroke="#111827" stroke-width="1.2"/><line x1="80.0" y1="52.0" x2="80.0" y2="364.0" stroke="#111827" stroke-width="1.2"/><line x1="1198.0" y1="52.0" x2="1198.0" y2="364.0" stroke="#111827" stroke-width="1.2"/><rect x="81.0" y="363.8" width="41.0" height="0.2" fill="#93c5fd" stroke="#60a5fa" stroke-width="0.5"/><rect x="124.0" y="363.8" width="41.0" height="0.2" fill="#93c5fd" stroke="#60a5fa" stroke-width="0.5"/><rect x="167.0" y="363.5" width="41.0" height="0.5" fill="#93c5fd" stroke="#60a5fa" stroke-width="0.5"/><rect x="210.0" y="363.1" width="41.0" height="0.9" fill="#93c5fd" stroke="#60a5fa" stroke-width="0.5"/><rect x="253.0" y="363.8" width="41.0" height="0.2" fill="#93c5fd" stroke="#60a5fa" stroke-width="0.5"/><rect x="296.0" y="354.0" width="41.0" height="10.0" fill="#93c5fd" stroke="#60a5fa" stroke-width="0.5"/><rect x="339.0" y="363.8" width="41.0" height="0.2" fill="#93c5fd" stroke="#60a5fa" stroke-width="0.5"/><rect x="382.0" y="363.8" width="41.0" height="0.2" fill="#93c5fd" stroke="#60a5fa" stroke-width="0.5"/><rect x="425.0" y="363.8" width="41.0" height="0.2" fill="#93c5fd" stroke="#60a5fa" stroke-width="0.5"/><rect x="468.0" y="363.5" width="41.0" height="0.5" fill="#93c5fd" stroke="#60a5fa" stroke-width="0.5"/><rect x="511.0" y="363.8" width="41.0" height="0.2" fill="#93c5fd" stroke="#60a5fa" stroke-width="0.5"/><rect x="554.0" y="363.8" width="41.0" height="0.2" fill="#93c5fd" stroke="#60a5fa" stroke-width="0.5"/><rect x="597.0" y="363.8" width="41.0" height="0.2" fill="#93c5fd" stroke="#60a5fa" stroke-width="0.5"/><rect x="640.0" y="363.3" width="41.0" height="0.7" fill="#93c5fd" stroke="#60a5fa" stroke-width="0.5"/><rect x="683.0" y="362.8" width="41.0" height="1.2" fill="#93c5fd" stroke="#60a5fa" stroke-width="0.5"/><rect x="726.0" y="363.1" width="41.0" height="0.9" fill="#93c5fd" stroke="#60a5fa" stroke-width="0.5"/><rect x="769.0" y="363.8" width="41.0" height="0.2" fill="#93c5fd" stroke="#60a5fa" stroke-width="0.5"/><rect x="812.0" y="363.5" width="41.0" height="0.5" fill="#93c5fd" stroke="#60a5fa" stroke-width="0.5"/><rect x="855.0" y="363.5" width="41.0" height="0.5" fill="#93c5fd" stroke="#60a5fa" stroke-width="0.5"/><rect x="898.0" y="363.5" width="41.0" height="0.5" fill="#93c5fd" stroke="#60a5fa" stroke-width="0.5"/><rect x="941.0" y="362.6" width="41.0" height="1.4" fill="#93c5fd" stroke="#60a5fa" stroke-width="0.5"/><rect x="984.0" y="363.3" width="41.0" height="0.7" fill="#93c5fd" stroke="#60a5fa" stroke-width="0.5"/><rect x="1027.0" y="362.6" width="41.0" height="1.4" fill="#93c5fd" stroke="#60a5fa" stroke-width="0.5"/><rect x="1070.0" y="363.5" width="41.0" height="0.5" fill="#93c5fd" stroke="#60a5fa" stroke-width="0.5"/><rect x="1113.0" y="361.9" width="41.0" height="2.1" fill="#93c5fd" stroke="#60a5fa" stroke-width="0.5"/><rect x="1156.0" y="52.0" width="41.0" height="312.0" fill="#93c5fd" stroke="#60a5fa" stroke-width="0.5"/><polyline fill="none" stroke="#ef4444" stroke-width="2" points="101.5,363.8 144.5,363.6 187.5,363.1 230.5,362.2 273.5,362.0 316.5,352.8 359.5,352.6 402.5,352.3 445.5,352.1 488.5,351.7 531.5,351.5 574.5,351.2 617.5,351.0 660.5,350.4 703.5,349.3 746.5,348.4 789.5,348.2 832.5,347.7 875.5,347.3 918.5,346.8 961.5,345.5 1004.5,344.9 1047.5,343.5 1090.5,343.1 1133.5,341.1 1176.5,52.0"/><line x1="101.5" y1="364.0" x2="101.5" y2="370.0" stroke="#111827" stroke-width="1"/><text x="103.5" y="386.0" font-size="11" text-anchor="end" transform="rotate(-35 103.5 386.0)" font-family="sans-serif" fill="#374151">2026-04-10 02:00</text><line x1="273.5" y1="364.0" x2="273.5" y2="370.0" stroke="#111827" stroke-width="1"/><text x="275.5" y="386.0" font-size="11" text-anchor="end" transform="rotate(-35 275.5 386.0)" font-family="sans-serif" fill="#374151">2026-04-10 17:00</text><line x1="402.5" y1="364.0" x2="402.5" y2="370.0" stroke="#111827" stroke-width="1"/><text x="404.5" y="386.0" font-size="11" text-anchor="end" transform="rotate(-35 404.5 386.0)" font-family="sans-serif" fill="#374151">2026-04-11 05:00</text><line x1="574.5" y1="364.0" x2="574.5" y2="370.0" stroke="#111827" stroke-width="1"/><text x="576.5" y="386.0" font-size="11" text-anchor="end" transform="rotate(-35 576.5 386.0)" font-family="sans-serif" fill="#374151">2026-04-12 09:00</text><line x1="703.5" y1="364.0" x2="703.5" y2="370.0" stroke="#111827" stroke-width="1"/><text x="705.5" y="386.0" font-size="11" text-anchor="end" transform="rotate(-35 705.5 386.0)" font-family="sans-serif" fill="#374151">2026-04-12 16:00</text><line x1="875.5" y1="364.0" x2="875.5" y2="370.0" stroke="#111827" stroke-width="1"/><text x="877.5" y="386.0" font-size="11" text-anchor="end" transform="rotate(-35 877.5 386.0)" font-family="sans-serif" fill="#374151">2026-04-12 21:00</text><line x1="1004.5" y1="364.0" x2="1004.5" y2="370.0" stroke="#111827" stroke-width="1"/><text x="1006.5" y="386.0" font-size="11" text-anchor="end" transform="rotate(-35 1006.5 386.0)" font-family="sans-serif" fill="#374151">2026-04-13 04:00</text><line x1="1176.5" y1="364.0" x2="1176.5" y2="370.0" stroke="#111827" stroke-width="1"/><text x="1178.5" y="386.0" font-size="11" text-anchor="end" transform="rotate(-35 1178.5 386.0)" font-family="sans-serif" fill="#374151">2026-04-13 12:00</text><text x="26" y="208.0" font-size="12" transform="rotate(-90 26 208.0)" text-anchor="middle" font-family="sans-serif" fill="#1f2937">구간별 수</text><text x="1256.0" y="208.0" font-size="12" transform="rotate(90 1256.0 208.0)" text-anchor="middle" font-family="sans-serif" fill="#1f2937">누적</text><text x="639.0" y="442.0" font-size="13" text-anchor="middle" font-family="sans-serif" fill="#111827">시간</text></svg>