<svg xmlns="http://www.w3.org/2000/svg" width="1280" height="460" viewBox="0 0 1280 460"><rect x="0" y="0" width="100%" height="100%" fill="#ffffff"/><text x="640.0" y="28" font-size="20" text-anchor="middle" font-family="sans-serif" fill="#111827">시리즈 / 최근 반영 시점 / 시간별</text><line x1="80.0" y1="52.0" x2="1198.0" y2="52.0" stroke="#e5e7eb" stroke-width="1"/><text x="72.0" y="56.0" font-size="11" text-anchor="end" font-family="sans-serif" fill="#374151">1,270</text><text x="1206.0" y="56.0" font-size="11" text-anchor="start" font-family="sans-serif" fill="#374151">1,440</text><line x1="80.0" y1="114.4" x2="1198.0" y2="114.4" stroke="#e5e7eb" stroke-width="1"/><text x="72.0" y="118.4" font-size="11" text-anchor="end" font-family="sans-serif" fill="#374151">1,016</text><text x="1206.0" y="118.4" font-size="11" text-anchor="start" font-family="sans-serif" fill="#374151">1,152</text><line x1="80.0" y1="176.8" x2="1198.0" y2="176.8" stroke="#e5e7eb" stroke-width="1"/><text x="72.0" y="180.8" font-size="11" text-anchor="end" font-family="sans-serif" fill="#374151">762</text><text x="1206.0" y="180.8" font-size="11" text-anchor="start" font-family="sans-serif" fill="#374151">864</text><line x1="80.0" y1="239.2" x2="1198.0" y2="239.2" stroke="#e5e7eb" stroke-width="1"/><text x="72.0" y="243.2" font-size="11" text-anchor="end" font-family="sans-serif" fill="#374151">508</text><text x="1206.0" y="243.2" font-size="11" text-anchor="start" font-family="sans-serif" fill="#374151">576</text><line x1="80.0" y1="301.6" x2="1198.0" y2="301.6" stroke="#e5e7eb" stroke-width="1"/><text x="72.0" y="305.6" font-size="11" text-anchor="end" font-family="sans-serif" fill="#374151">254</text><text x="1206.0" y="305.6" font-size="11" text-anchor="start" font-family="sans-serif" fill="#374151">288</text><line x1="80.0" y1="364.0" x2="1198.0" y2="364.0" stroke="#e5e7eb" stroke-width="1"/><text x="72.0" y="368.0" font-size="11" text-anchor="end" font-family="sans-serif" fill="#374151">0</text><text x="1206.0" y="368.0" font-size="11" text-anchor="start" font-family="sans-serif" fill="#374151">0</text><line x1="80.0" y1="364.0" x2="1198.0" y2="364.0" stroke="#111827" stroke-width="1.2"/><line x1="80.0" y1="52.0" x2="80.0" y2="364.0" stroke="#111827" stroke-width="1.2"/><line x1="1198.0" y1="52.0" x2="1198.0" y2="364.0" stroke="#111827" stroke-width="1.2"/><rect x="81.0" y="363.8" width="51.2" height="0.2" fill="#93c5fd" stroke="#60a5fa" stroke-width="0.5"/><rect x="134.2" y="363.3" width="51.2" height="0.7" fill="#93c5fd" stroke="#60a5fa" stroke-width="0.5"/><rect x="187.5" y="356.9" width="51.2" height="7.1" fill="#93c5fd" stroke="#60a5fa" stroke-width="0.5"/><rect x="240.7" y="357.4" width="51.2" height="6.6" fill="#93c5fd" stroke="#60a5fa" stroke-width="0.5"/><rect x="294.0" y="363.8" width="51.2" height="0.2" fill="#93c5fd" stroke="#60a5fa" stroke-width="0.5"/><rect x="347.2" y="363.5" width="51.2" height="0.5" fill="#93c5fd" stroke="#60a5fa" stroke-width="0.5"/><rect x="400.4" y="363.8" width="51.2" height="0.2" fill="#93c5fd" stroke="#60a5fa" stroke-width="0.5"/><rect x="453.7" y="363.8" width="51.2" height="0.2" fill="#93c5fd" stroke="#60a5fa" stroke-width="0.5"/><rect x="506.9" y="363.8" width="51.2" height="0.2" fill="#93c5fd" stroke="#60a5fa" stroke-width="0.5"/><rect x="560.1" y="363.8" width="51.2" height="0.2" fill="#93c5fd" stroke="#60a5fa" stroke-width="0.5"/><rect x="613.4" y="363.8" width="51.2" height="0.2" fill="#93c5fd" stroke="#60a5fa" stroke-width="0.5"/><rect x="666.6" y="363.5" width="51.2" height="0.5" fill="#93c5fd" stroke="#60a5fa" stroke-width="0.5"/><rect x="719.9" y="363.5" width="51.2" height="0.5" fill="#93c5fd" stroke="#60a5fa" stroke-width="0.5"/><rect x="773.1" y="363.8" width="51.2" height="0.2" fill="#93c5fd" stroke="#60a5fa" stroke-width="0.5"/><rect x="826.3" y="363.0" width="51.2" height="1.0" fill="#93c5fd" stroke="#60a5fa" stroke-width="0.5"/><rect x="879.6" y="363.0" width="51.2" height="1.0" fill="#93c5fd" stroke="#60a5fa" stroke-width="0.5"/><rect x="932.8" y="363.0" width="51.2" height="1.0" fill="#93c5fd" stroke="#60a5fa" stroke-width="0.5"/><rect x="986.0" y="362.5" width="51.2" height="1.5" fill="#93c5fd" stroke="#60a5fa" stroke-width="0.5"/><rect x="1039.3" y="362.3" width="51.2" height="1.7" fill="#93c5fd" stroke="#60a5fa" stroke-width="0.5"/><rect x="1092.5" y="346.3" width="51.2" height="17.7" fill="#93c5fd" stroke="#60a5fa" stroke-width="0.5"/><rect x="1145.8" y="52.0" width="51.2" height="312.0" fill="#93c5fd" stroke="#60a5fa" stroke-width="0.5"/><polyline fill="none" stroke="#ef4444" stroke-width="2" points="106.6,363.8 159.9,363.1 213.1,356.9 266.3,351.0 319.6,350.8 372.8,350.4 426.0,350.1 479.3,349.9 532.5,349.7 585.8,349.5 639.0,349.3 692.2,348.8 745.5,348.4 798.7,348.2 852.0,347.3 905.2,346.4 958.4,345.6 1011.7,344.3 1064.9,342.8 1118.1,327.2 1171.4,52.0"/><line x1="106.6" y1="364.0" x2="106.6" y2="370.0" stroke="#111827" stroke-width="1"/><text x="108.6" y="386.0" font-size="11" text-anchor="end" transform="rotate(-35 108.6 386.0)" font-family="sans-serif" fill="#374151">2026-04-16 23:00</text><line x1="266.3" y1="364.0" x2="266.3" y2="370.0" stroke="#111827" stroke-width="1"/><text x="268.3" y="386.0" font-size="11" text-anchor="end" transform="rotate(-35 268.3 386.0)" font-family="sans-serif" fill="#374151">2026-04-18 09:00</text><line x1="426.0" y1="364.0" x2="426.0" y2="370.0" stroke="#111827" stroke-width="1"/><text x="428.0" y="386.0" font-size="11" text-anchor="end" transform="rotate(-35 428.0 386.0)" font-family="sans-serif" fill="#374151">2026-04-19 12:00</text><line x1="585.8" y1="364.0" x2="585.8" y2="370.0" stroke="#111827" stroke-width="1"/><text x="587.8" y="386.0" font-size="11" text-anchor="end" transform="rotate(-35 587.8 386.0)" font-family="sans-serif" fill="#374151">2026-04-19 18:00</text><line x1="692.2" y1="364.0" x2="692.2" y2="370.0" stroke="#111827" stroke-width="1"/><text x="694.2" y="386.0" font-size="11" text-anchor="end" transform="rotate(-35 694.2 386.0)" font-family="sans-serif" fill="#374151">2026-04-20 00:00</text><line x1="852.0" y1="364.0" x2="852.0" y2="370.0" stroke="#111827" stroke-width="1"/><text x="854.0" y="386.0" font-size="11" text-anchor="end" transform="rotate(-35 854.0 386.0)" font-family="sans-serif" fill="#374151">2026-04-20 12:00</text><line x1="1011.7" y1="364.0" x2="1011.7" y2="370.0" stroke="#111827" stroke-width="1"/><text x="1013.7" y="386.0" font-size="11" text-anchor="end" transform="rotate(-35 1013.7 386.0)" font-family="sans-serif" fill="#374151">2026-04-20 21:00</text><line x1="1171.4" y1="364.0" x2="1171.4" y2="370.0" stroke="#111827" stroke-width="1"/><text x="1173.4" y="386.0" font-size="11" text-anchor="end" transform="rotate(-35 1173.4 386.0)" font-family="sans-serif" fill="#374151">2026-04-21 00:00</text><text x="26" y="208.0" font-size="12" transform="rotate(-90 26 208.0)" text-anchor="middle" font-family="sans-serif" fill="#1f2937">구간별 수</text><text x="1256.0" y="208.0" font-size="12" transform="rotate(90 1256.0 208.0)" text-anchor="middle" font-family="sans-serif" fill="#1f2937">누적</text><text x="639.0" y="442.0" font-size="13" text-anchor="middle" font-family="sans-serif" fill="#111827">시간</text></svg>