<svg xmlns="http://www.w3.org/2000/svg" width="1280" height="460" viewBox="0 0 1280 460"><rect x="0" y="0" width="100%" height="100%" fill="#ffffff"/><text x="640.0" y="28" font-size="20" text-anchor="middle" font-family="sans-serif" fill="#111827">시리즈 / 최근 반영 시점 / 시간별</text><line x1="80.0" y1="52.0" x2="1198.0" y2="52.0" stroke="#e5e7eb" stroke-width="1"/><text x="72.0" y="56.0" font-size="11" text-anchor="end" font-family="sans-serif" fill="#374151">1,184</text><text x="1206.0" y="56.0" font-size="11" text-anchor="start" font-family="sans-serif" fill="#374151">1,446</text><line x1="80.0" y1="114.4" x2="1198.0" y2="114.4" stroke="#e5e7eb" stroke-width="1"/><text x="72.0" y="118.4" font-size="11" text-anchor="end" font-family="sans-serif" fill="#374151">947</text><text x="1206.0" y="118.4" font-size="11" text-anchor="start" font-family="sans-serif" fill="#374151">1,157</text><line x1="80.0" y1="176.8" x2="1198.0" y2="176.8" stroke="#e5e7eb" stroke-width="1"/><text x="72.0" y="180.8" font-size="11" text-anchor="end" font-family="sans-serif" fill="#374151">710</text><text x="1206.0" y="180.8" font-size="11" text-anchor="start" font-family="sans-serif" fill="#374151">868</text><line x1="80.0" y1="239.2" x2="1198.0" y2="239.2" stroke="#e5e7eb" stroke-width="1"/><text x="72.0" y="243.2" font-size="11" text-anchor="end" font-family="sans-serif" fill="#374151">474</text><text x="1206.0" y="243.2" font-size="11" text-anchor="start" font-family="sans-serif" fill="#374151">578</text><line x1="80.0" y1="301.6" x2="1198.0" y2="301.6" stroke="#e5e7eb" stroke-width="1"/><text x="72.0" y="305.6" font-size="11" text-anchor="end" font-family="sans-serif" fill="#374151">237</text><text x="1206.0" y="305.6" font-size="11" text-anchor="start" font-family="sans-serif" fill="#374151">289</text><line x1="80.0" y1="364.0" x2="1198.0" y2="364.0" stroke="#e5e7eb" stroke-width="1"/><text x="72.0" y="368.0" font-size="11" text-anchor="end" font-family="sans-serif" fill="#374151">0</text><text x="1206.0" y="368.0" font-size="11" text-anchor="start" font-family="sans-serif" fill="#374151">0</text><line x1="80.0" y1="364.0" x2="1198.0" y2="364.0" stroke="#111827" stroke-width="1.2"/><line x1="80.0" y1="52.0" x2="80.0" y2="364.0" stroke="#111827" stroke-width="1.2"/><line x1="1198.0" y1="52.0" x2="1198.0" y2="364.0" stroke="#111827" stroke-width="1.2"/><rect x="81.0" y="363.7" width="32.9" height="0.3" fill="#93c5fd" stroke="#60a5fa" stroke-width="0.5"/><rect x="115.9" y="363.2" width="32.9" height="0.8" fill="#93c5fd" stroke="#60a5fa" stroke-width="0.5"/><rect x="150.9" y="360.6" width="32.9" height="3.4" fill="#93c5fd" stroke="#60a5fa" stroke-width="0.5"/><rect x="185.8" y="363.7" width="32.9" height="0.3" fill="#93c5fd" stroke="#60a5fa" stroke-width="0.5"/><rect x="220.8" y="363.7" width="32.9" height="0.3" fill="#93c5fd" stroke="#60a5fa" stroke-width="0.5"/><rect x="255.7" y="363.7" width="32.9" height="0.3" fill="#93c5fd" stroke="#60a5fa" stroke-width="0.5"/><rect x="290.6" y="363.7" width="32.9" height="0.3" fill="#93c5fd" stroke="#60a5fa" stroke-width="0.5"/><rect x="325.6" y="363.7" width="32.9" height="0.3" fill="#93c5fd" stroke="#60a5fa" stroke-width="0.5"/><rect x="360.5" y="363.7" width="32.9" height="0.3" fill="#93c5fd" stroke="#60a5fa" stroke-width="0.5"/><rect x="395.4" y="363.7" width="32.9" height="0.3" fill="#93c5fd" stroke="#60a5fa" stroke-width="0.5"/><rect x="430.4" y="363.5" width="32.9" height="0.5" fill="#93c5fd" stroke="#60a5fa" stroke-width="0.5"/><rect x="465.3" y="363.5" width="32.9" height="0.5" fill="#93c5fd" stroke="#60a5fa" stroke-width="0.5"/><rect x="500.2" y="363.7" width="32.9" height="0.3" fill="#93c5fd" stroke="#60a5fa" stroke-width="0.5"/><rect x="535.2" y="363.7" width="32.9" height="0.3" fill="#93c5fd" stroke="#60a5fa" stroke-width="0.5"/><rect x="570.1" y="363.7" width="32.9" height="0.3" fill="#93c5fd" stroke="#60a5fa" stroke-width="0.5"/><rect x="605.1" y="363.7" width="32.9" height="0.3" fill="#93c5fd" stroke="#60a5fa" stroke-width="0.5"/><rect x="640.0" y="363.7" width="32.9" height="0.3" fill="#93c5fd" stroke="#60a5fa" stroke-width="0.5"/><rect x="674.9" y="363.5" width="32.9" height="0.5" fill="#93c5fd" stroke="#60a5fa" stroke-width="0.5"/><rect x="709.9" y="363.5" width="32.9" height="0.5" fill="#93c5fd" stroke="#60a5fa" stroke-width="0.5"/><rect x="744.8" y="362.9" width="32.9" height="1.1" fill="#93c5fd" stroke="#60a5fa" stroke-width="0.5"/><rect x="779.8" y="362.9" width="32.9" height="1.1" fill="#93c5fd" stroke="#60a5fa" stroke-width="0.5"/><rect x="814.7" y="362.2" width="32.9" height="1.8" fill="#93c5fd" stroke="#60a5fa" stroke-width="0.5"/><rect x="849.6" y="52.0" width="32.9" height="312.0" fill="#93c5fd" stroke="#60a5fa" stroke-width="0.5"/><rect x="884.6" y="350.8" width="32.9" height="13.2" fill="#93c5fd" stroke="#60a5fa" stroke-width="0.5"/><rect x="919.5" y="363.2" width="32.9" height="0.8" fill="#93c5fd" stroke="#60a5fa" stroke-width="0.5"/><rect x="954.4" y="350.8" width="32.9" height="13.2" fill="#93c5fd" stroke="#60a5fa" stroke-width="0.5"/><rect x="989.4" y="350.8" width="32.9" height="13.2" fill="#93c5fd" stroke="#60a5fa" stroke-width="0.5"/><rect x="1024.3" y="363.7" width="32.9" height="0.3" fill="#93c5fd" stroke="#60a5fa" stroke-width="0.5"/><rect x="1059.2" y="363.2" width="32.9" height="0.8" fill="#93c5fd" stroke="#60a5fa" stroke-width="0.5"/><rect x="1094.2" y="363.5" width="32.9" height="0.5" fill="#93c5fd" stroke="#60a5fa" stroke-width="0.5"/><rect x="1129.1" y="363.7" width="32.9" height="0.3" fill="#93c5fd" stroke="#60a5fa" stroke-width="0.5"/><rect x="1164.1" y="350.8" width="32.9" height="13.2" fill="#93c5fd" stroke="#60a5fa" stroke-width="0.5"/><polyline fill="none" stroke="#ef4444" stroke-width="2" points="97.5,363.8 132.4,363.1 167.3,360.3 202.3,360.1 237.2,359.9 272.2,359.7 307.1,359.5 342.0,359.3 377.0,359.0 411.9,358.8 446.8,358.4 481.8,358.0 516.7,357.7 551.7,357.5 586.6,357.3 621.5,357.1 656.5,356.9 691.4,356.4 726.3,356.0 761.3,355.2 796.2,354.3 831.2,352.8 866.1,97.3 901.0,86.5 936.0,85.9 970.9,75.1 1005.8,64.3 1040.8,64.1 1075.7,63.4 1110.7,63.0 1145.6,62.8 1180.5,52.0"/><line x1="97.5" y1="364.0" x2="97.5" y2="370.0" stroke="#111827" stroke-width="1"/><text x="99.5" y="386.0" font-size="11" text-anchor="end" transform="rotate(-35 99.5 386.0)" font-family="sans-serif" fill="#374151">2026-04-16 23:00</text><line x1="237.2" y1="364.0" x2="237.2" y2="370.0" stroke="#111827" stroke-width="1"/><text x="239.2" y="386.0" font-size="11" text-anchor="end" transform="rotate(-35 239.2 386.0)" font-family="sans-serif" fill="#374151">2026-04-19 16:00</text><line x1="411.9" y1="364.0" x2="411.9" y2="370.0" stroke="#111827" stroke-width="1"/><text x="413.9" y="386.0" font-size="11" text-anchor="end" transform="rotate(-35 413.9 386.0)" font-family="sans-serif" fill="#374151">2026-04-20 12:00</text><line x1="551.7" y1="364.0" x2="551.7" y2="370.0" stroke="#111827" stroke-width="1"/><text x="553.7" y="386.0" font-size="11" text-anchor="end" transform="rotate(-35 553.7 386.0)" font-family="sans-serif" fill="#374151">2026-04-21 02:00</text><line x1="726.3" y1="364.0" x2="726.3" y2="370.0" stroke="#111827" stroke-width="1"/><text x="728.3" y="386.0" font-size="11" text-anchor="end" transform="rotate(-35 728.3 386.0)" font-family="sans-serif" fill="#374151">2026-04-22 00:00</text><line x1="866.1" y1="364.0" x2="866.1" y2="370.0" stroke="#111827" stroke-width="1"/><text x="868.1" y="386.0" font-size="11" text-anchor="end" transform="rotate(-35 868.1 386.0)" font-family="sans-serif" fill="#374151">2026-04-22 14:00</text><line x1="1040.8" y1="364.0" x2="1040.8" y2="370.0" stroke="#111827" stroke-width="1"/><text x="1042.8" y="386.0" font-size="11" text-anchor="end" transform="rotate(-35 1042.8 386.0)" font-family="sans-serif" fill="#374151">2026-04-24 21:00</text><line x1="1180.5" y1="364.0" x2="1180.5" y2="370.0" stroke="#111827" stroke-width="1"/><text x="1182.5" y="386.0" font-size="11" text-anchor="end" transform="rotate(-35 1182.5 386.0)" font-family="sans-serif" fill="#374151">2026-04-25 03:00</text><text x="26" y="208.0" font-size="12" transform="rotate(-90 26 208.0)" text-anchor="middle" font-family="sans-serif" fill="#1f2937">구간별 수</text><text x="1256.0" y="208.0" font-size="12" transform="rotate(90 1256.0 208.0)" text-anchor="middle" font-family="sans-serif" fill="#1f2937">누적</text><text x="639.0" y="442.0" font-size="13" text-anchor="middle" font-family="sans-serif" fill="#111827">시간</text></svg>