<svg xmlns="http://www.w3.org/2000/svg" width="1280" height="460" viewBox="0 0 1280 460"><rect x="0" y="0" width="100%" height="100%" fill="#ffffff"/><text x="640.0" y="28" font-size="20" text-anchor="middle" font-family="sans-serif" fill="#111827">시리즈 / 최근 반영 시점 / 시간별</text><line x1="80.0" y1="52.0" x2="1198.0" y2="52.0" stroke="#e5e7eb" stroke-width="1"/><text x="72.0" y="56.0" font-size="11" text-anchor="end" font-family="sans-serif" fill="#374151">1,332</text><text x="1206.0" y="56.0" font-size="11" text-anchor="start" font-family="sans-serif" fill="#374151">1,434</text><line x1="80.0" y1="114.4" x2="1198.0" y2="114.4" stroke="#e5e7eb" stroke-width="1"/><text x="72.0" y="118.4" font-size="11" text-anchor="end" font-family="sans-serif" fill="#374151">1,066</text><text x="1206.0" y="118.4" font-size="11" text-anchor="start" font-family="sans-serif" fill="#374151">1,147</text><line x1="80.0" y1="176.8" x2="1198.0" y2="176.8" stroke="#e5e7eb" stroke-width="1"/><text x="72.0" y="180.8" font-size="11" text-anchor="end" font-family="sans-serif" fill="#374151">799</text><text x="1206.0" y="180.8" font-size="11" text-anchor="start" font-family="sans-serif" fill="#374151">860</text><line x1="80.0" y1="239.2" x2="1198.0" y2="239.2" stroke="#e5e7eb" stroke-width="1"/><text x="72.0" y="243.2" font-size="11" text-anchor="end" font-family="sans-serif" fill="#374151">533</text><text x="1206.0" y="243.2" font-size="11" text-anchor="start" font-family="sans-serif" fill="#374151">574</text><line x1="80.0" y1="301.6" x2="1198.0" y2="301.6" stroke="#e5e7eb" stroke-width="1"/><text x="72.0" y="305.6" font-size="11" text-anchor="end" font-family="sans-serif" fill="#374151">266</text><text x="1206.0" y="305.6" font-size="11" text-anchor="start" font-family="sans-serif" fill="#374151">287</text><line x1="80.0" y1="364.0" x2="1198.0" y2="364.0" stroke="#e5e7eb" stroke-width="1"/><text x="72.0" y="368.0" font-size="11" text-anchor="end" font-family="sans-serif" fill="#374151">0</text><text x="1206.0" y="368.0" font-size="11" text-anchor="start" font-family="sans-serif" fill="#374151">0</text><line x1="80.0" y1="364.0" x2="1198.0" y2="364.0" stroke="#111827" stroke-width="1.2"/><line x1="80.0" y1="52.0" x2="80.0" y2="364.0" stroke="#111827" stroke-width="1.2"/><line x1="1198.0" y1="52.0" x2="1198.0" y2="364.0" stroke="#111827" stroke-width="1.2"/><rect x="81.0" y="363.8" width="122.2" height="0.2" fill="#93c5fd" stroke="#60a5fa" stroke-width="0.5"/><rect x="205.2" y="361.7" width="122.2" height="2.3" fill="#93c5fd" stroke="#60a5fa" stroke-width="0.5"/><rect x="329.4" y="363.3" width="122.2" height="0.7" fill="#93c5fd" stroke="#60a5fa" stroke-width="0.5"/><rect x="453.7" y="363.8" width="122.2" height="0.2" fill="#93c5fd" stroke="#60a5fa" stroke-width="0.5"/><rect x="577.9" y="363.1" width="122.2" height="0.9" fill="#93c5fd" stroke="#60a5fa" stroke-width="0.5"/><rect x="702.1" y="363.8" width="122.2" height="0.2" fill="#93c5fd" stroke="#60a5fa" stroke-width="0.5"/><rect x="826.3" y="347.8" width="122.2" height="16.2" fill="#93c5fd" stroke="#60a5fa" stroke-width="0.5"/><rect x="950.6" y="361.0" width="122.2" height="3.0" fill="#93c5fd" stroke="#60a5fa" stroke-width="0.5"/><rect x="1074.8" y="52.0" width="122.2" height="312.0" fill="#93c5fd" stroke="#60a5fa" stroke-width="0.5"/><polyline fill="none" stroke="#ef4444" stroke-width="2" points="142.1,363.8 266.3,361.6 390.6,361.0 514.8,360.7 639.0,359.9 763.2,359.6 887.4,344.6 1011.7,341.8 1135.9,52.0"/><line x1="142.1" y1="364.0" x2="142.1" y2="370.0" stroke="#111827" stroke-width="1"/><text x="144.1" y="386.0" font-size="11" text-anchor="end" transform="rotate(-35 144.1 386.0)" font-family="sans-serif" fill="#374151">2026-04-16 23:00</text><line x1="266.3" y1="364.0" x2="266.3" y2="370.0" stroke="#111827" stroke-width="1"/><text x="268.3" y="386.0" font-size="11" text-anchor="end" transform="rotate(-35 268.3 386.0)" font-family="sans-serif" fill="#374151">2026-04-17 00:00</text><line x1="390.6" y1="364.0" x2="390.6" y2="370.0" stroke="#111827" stroke-width="1"/><text x="392.6" y="386.0" font-size="11" text-anchor="end" transform="rotate(-35 392.6 386.0)" font-family="sans-serif" fill="#374151">2026-04-17 02:00</text><line x1="514.8" y1="364.0" x2="514.8" y2="370.0" stroke="#111827" stroke-width="1"/><text x="516.8" y="386.0" font-size="11" text-anchor="end" transform="rotate(-35 516.8 386.0)" font-family="sans-serif" fill="#374151">2026-04-17 04:00</text><line x1="763.2" y1="364.0" x2="763.2" y2="370.0" stroke="#111827" stroke-width="1"/><text x="765.2" y="386.0" font-size="11" text-anchor="end" transform="rotate(-35 765.2 386.0)" font-family="sans-serif" fill="#374151">2026-04-17 08:00</text><line x1="887.4" y1="364.0" x2="887.4" y2="370.0" stroke="#111827" stroke-width="1"/><text x="889.4" y="386.0" font-size="11" text-anchor="end" transform="rotate(-35 889.4 386.0)" font-family="sans-serif" fill="#374151">2026-04-17 10:00</text><line x1="1011.7" y1="364.0" x2="1011.7" y2="370.0" stroke="#111827" stroke-width="1"/><text x="1013.7" y="386.0" font-size="11" text-anchor="end" transform="rotate(-35 1013.7 386.0)" font-family="sans-serif" fill="#374151">2026-04-17 11:00</text><line x1="1135.9" y1="364.0" x2="1135.9" y2="370.0" stroke="#111827" stroke-width="1"/><text x="1137.9" y="386.0" font-size="11" text-anchor="end" transform="rotate(-35 1137.9 386.0)" font-family="sans-serif" fill="#374151">2026-04-17 12:00</text><text x="26" y="208.0" font-size="12" transform="rotate(-90 26 208.0)" text-anchor="middle" font-family="sans-serif" fill="#1f2937">구간별 수</text><text x="1256.0" y="208.0" font-size="12" transform="rotate(90 1256.0 208.0)" text-anchor="middle" font-family="sans-serif" fill="#1f2937">누적</text><text x="639.0" y="442.0" font-size="13" text-anchor="middle" font-family="sans-serif" fill="#111827">시간</text></svg>