<svg xmlns="http://www.w3.org/2000/svg" width="1280" height="460" viewBox="0 0 1280 460"><rect x="0" y="0" width="100%" height="100%" fill="#ffffff"/><text x="640.0" y="28" font-size="20" text-anchor="middle" font-family="sans-serif" fill="#111827">시리즈 / 최근 반영 시점 / 시간별</text><line x1="80.0" y1="52.0" x2="1198.0" y2="52.0" stroke="#e5e7eb" stroke-width="1"/><text x="72.0" y="56.0" font-size="11" text-anchor="end" font-family="sans-serif" fill="#374151">1,396</text><text x="1206.0" y="56.0" font-size="11" text-anchor="start" font-family="sans-serif" fill="#374151">1,434</text><line x1="80.0" y1="114.4" x2="1198.0" y2="114.4" stroke="#e5e7eb" stroke-width="1"/><text x="72.0" y="118.4" font-size="11" text-anchor="end" font-family="sans-serif" fill="#374151">1,117</text><text x="1206.0" y="118.4" font-size="11" text-anchor="start" font-family="sans-serif" fill="#374151">1,147</text><line x1="80.0" y1="176.8" x2="1198.0" y2="176.8" stroke="#e5e7eb" stroke-width="1"/><text x="72.0" y="180.8" font-size="11" text-anchor="end" font-family="sans-serif" fill="#374151">838</text><text x="1206.0" y="180.8" font-size="11" text-anchor="start" font-family="sans-serif" fill="#374151">860</text><line x1="80.0" y1="239.2" x2="1198.0" y2="239.2" stroke="#e5e7eb" stroke-width="1"/><text x="72.0" y="243.2" font-size="11" text-anchor="end" font-family="sans-serif" fill="#374151">558</text><text x="1206.0" y="243.2" font-size="11" text-anchor="start" font-family="sans-serif" fill="#374151">574</text><line x1="80.0" y1="301.6" x2="1198.0" y2="301.6" stroke="#e5e7eb" stroke-width="1"/><text x="72.0" y="305.6" font-size="11" text-anchor="end" font-family="sans-serif" fill="#374151">279</text><text x="1206.0" y="305.6" font-size="11" text-anchor="start" font-family="sans-serif" fill="#374151">287</text><line x1="80.0" y1="364.0" x2="1198.0" y2="364.0" stroke="#e5e7eb" stroke-width="1"/><text x="72.0" y="368.0" font-size="11" text-anchor="end" font-family="sans-serif" fill="#374151">0</text><text x="1206.0" y="368.0" font-size="11" text-anchor="start" font-family="sans-serif" fill="#374151">0</text><line x1="80.0" y1="364.0" x2="1198.0" y2="364.0" stroke="#111827" stroke-width="1.2"/><line x1="80.0" y1="52.0" x2="80.0" y2="364.0" stroke="#111827" stroke-width="1.2"/><line x1="1198.0" y1="52.0" x2="1198.0" y2="364.0" stroke="#111827" stroke-width="1.2"/><rect x="81.0" y="363.8" width="157.7" height="0.2" fill="#93c5fd" stroke="#60a5fa" stroke-width="0.5"/><rect x="240.7" y="360.6" width="157.7" height="3.4" fill="#93c5fd" stroke="#60a5fa" stroke-width="0.5"/><rect x="400.4" y="363.3" width="157.7" height="0.7" fill="#93c5fd" stroke="#60a5fa" stroke-width="0.5"/><rect x="560.1" y="363.8" width="157.7" height="0.2" fill="#93c5fd" stroke="#60a5fa" stroke-width="0.5"/><rect x="719.9" y="362.7" width="157.7" height="1.3" fill="#93c5fd" stroke="#60a5fa" stroke-width="0.5"/><rect x="879.6" y="361.3" width="157.7" height="2.7" fill="#93c5fd" stroke="#60a5fa" stroke-width="0.5"/><rect x="1039.3" y="52.0" width="157.7" height="312.0" fill="#93c5fd" stroke="#60a5fa" stroke-width="0.5"/><polyline fill="none" stroke="#ef4444" stroke-width="2" points="159.9,363.8 319.6,360.5 479.3,359.9 639.0,359.6 798.7,358.3 958.4,355.7 1118.1,52.0"/><line x1="159.9" y1="364.0" x2="159.9" y2="370.0" stroke="#111827" stroke-width="1"/><text x="161.9" y="386.0" font-size="11" text-anchor="end" transform="rotate(-35 161.9 386.0)" font-family="sans-serif" fill="#374151">2026-04-16 23:00</text><line x1="319.6" y1="364.0" x2="319.6" y2="370.0" stroke="#111827" stroke-width="1"/><text x="321.6" y="386.0" font-size="11" text-anchor="end" transform="rotate(-35 321.6 386.0)" font-family="sans-serif" fill="#374151">2026-04-17 00:00</text><line x1="479.3" y1="364.0" x2="479.3" y2="370.0" stroke="#111827" stroke-width="1"/><text x="481.3" y="386.0" font-size="11" text-anchor="end" transform="rotate(-35 481.3 386.0)" font-family="sans-serif" fill="#374151">2026-04-17 02:00</text><line x1="639.0" y1="364.0" x2="639.0" y2="370.0" stroke="#111827" stroke-width="1"/><text x="641.0" y="386.0" font-size="11" text-anchor="end" transform="rotate(-35 641.0 386.0)" font-family="sans-serif" fill="#374151">2026-04-17 04:00</text><line x1="798.7" y1="364.0" x2="798.7" y2="370.0" stroke="#111827" stroke-width="1"/><text x="800.7" y="386.0" font-size="11" text-anchor="end" transform="rotate(-35 800.7 386.0)" font-family="sans-serif" fill="#374151">2026-04-17 06:00</text><line x1="958.4" y1="364.0" x2="958.4" y2="370.0" stroke="#111827" stroke-width="1"/><text x="960.4" y="386.0" font-size="11" text-anchor="end" transform="rotate(-35 960.4 386.0)" font-family="sans-serif" fill="#374151">2026-04-17 08:00</text><line x1="1118.1" y1="364.0" x2="1118.1" y2="370.0" stroke="#111827" stroke-width="1"/><text x="1120.1" y="386.0" font-size="11" text-anchor="end" transform="rotate(-35 1120.1 386.0)" font-family="sans-serif" fill="#374151">2026-04-17 10:00</text><text x="26" y="208.0" font-size="12" transform="rotate(-90 26 208.0)" text-anchor="middle" font-family="sans-serif" fill="#1f2937">구간별 수</text><text x="1256.0" y="208.0" font-size="12" transform="rotate(90 1256.0 208.0)" text-anchor="middle" font-family="sans-serif" fill="#1f2937">누적</text><text x="639.0" y="442.0" font-size="13" text-anchor="middle" font-family="sans-serif" fill="#111827">시간</text></svg>