<svg xmlns="http://www.w3.org/2000/svg" width="1280" height="460" viewBox="0 0 1280 460"><rect x="0" y="0" width="100%" height="100%" fill="#ffffff"/><text x="640.0" y="28" font-size="20" text-anchor="middle" font-family="sans-serif" fill="#111827">시리즈 / 생성 시점 / 일별</text><line x1="80.0" y1="52.0" x2="1198.0" y2="52.0" stroke="#e5e7eb" stroke-width="1"/><text x="72.0" y="56.0" font-size="11" text-anchor="end" font-family="sans-serif" fill="#374151">70</text><text x="1206.0" y="56.0" font-size="11" text-anchor="start" font-family="sans-serif" fill="#374151">1,448</text><line x1="80.0" y1="114.4" x2="1198.0" y2="114.4" stroke="#e5e7eb" stroke-width="1"/><text x="72.0" y="118.4" font-size="11" text-anchor="end" font-family="sans-serif" fill="#374151">56</text><text x="1206.0" y="118.4" font-size="11" text-anchor="start" font-family="sans-serif" fill="#374151">1,158</text><line x1="80.0" y1="176.8" x2="1198.0" y2="176.8" stroke="#e5e7eb" stroke-width="1"/><text x="72.0" y="180.8" font-size="11" text-anchor="end" font-family="sans-serif" fill="#374151">42</text><text x="1206.0" y="180.8" font-size="11" text-anchor="start" font-family="sans-serif" fill="#374151">869</text><line x1="80.0" y1="239.2" x2="1198.0" y2="239.2" stroke="#e5e7eb" stroke-width="1"/><text x="72.0" y="243.2" font-size="11" text-anchor="end" font-family="sans-serif" fill="#374151">28</text><text x="1206.0" y="243.2" font-size="11" text-anchor="start" font-family="sans-serif" fill="#374151">579</text><line x1="80.0" y1="301.6" x2="1198.0" y2="301.6" stroke="#e5e7eb" stroke-width="1"/><text x="72.0" y="305.6" font-size="11" text-anchor="end" font-family="sans-serif" fill="#374151">14</text><text x="1206.0" y="305.6" font-size="11" text-anchor="start" font-family="sans-serif" fill="#374151">290</text><line x1="80.0" y1="364.0" x2="1198.0" y2="364.0" stroke="#e5e7eb" stroke-width="1"/><text x="72.0" y="368.0" font-size="11" text-anchor="end" font-family="sans-serif" fill="#374151">0</text><text x="1206.0" y="368.0" font-size="11" text-anchor="start" font-family="sans-serif" fill="#374151">0</text><line x1="80.0" y1="364.0" x2="1198.0" y2="364.0" stroke="#111827" stroke-width="1.2"/><line x1="80.0" y1="52.0" x2="80.0" y2="364.0" stroke="#111827" stroke-width="1.2"/><line x1="1198.0" y1="52.0" x2="1198.0" y2="364.0" stroke="#111827" stroke-width="1.2"/><rect x="80.0" y="346.2" width="4.2" height="17.8" fill="#93c5fd" stroke="#60a5fa" stroke-width="0.5"/><rect x="84.2" y="359.5" width="4.2" height="4.5" fill="#93c5fd" stroke="#60a5fa" stroke-width="0.5"/><rect x="88.4" y="359.5" width="4.2" height="4.5" fill="#93c5fd" stroke="#60a5fa" stroke-width="0.5"/><rect x="92.6" y="355.1" width="4.2" height="8.9" fill="#93c5fd" stroke="#60a5fa" stroke-width="0.5"/><rect x="96.8" y="359.5" width="4.2" height="4.5" fill="#93c5fd" stroke="#60a5fa" stroke-width="0.5"/><rect x="101.0" y="350.6" width="4.2" height="13.4" fill="#93c5fd" stroke="#60a5fa" stroke-width="0.5"/><rect x="105.2" y="359.5" width="4.2" height="4.5" fill="#93c5fd" stroke="#60a5fa" stroke-width="0.5"/><rect x="109.4" y="359.5" width="4.2" height="4.5" fill="#93c5fd" stroke="#60a5fa" stroke-width="0.5"/><rect x="113.6" y="359.5" width="4.2" height="4.5" fill="#93c5fd" stroke="#60a5fa" stroke-width="0.5"/><rect x="117.8" y="359.5" width="4.2" height="4.5" fill="#93c5fd" stroke="#60a5fa" stroke-width="0.5"/><rect x="122.0" y="359.5" width="4.2" height="4.5" fill="#93c5fd" stroke="#60a5fa" stroke-width="0.5"/><rect x="126.2" y="359.5" width="4.2" height="4.5" fill="#93c5fd" stroke="#60a5fa" stroke-width="0.5"/><rect x="130.4" y="359.5" width="4.2" height="4.5" fill="#93c5fd" stroke="#60a5fa" stroke-width="0.5"/><rect x="134.6" y="355.1" width="4.2" height="8.9" fill="#93c5fd" stroke="#60a5fa" stroke-width="0.5"/><rect x="138.8" y="346.2" width="4.2" height="17.8" fill="#93c5fd" stroke="#60a5fa" stroke-width="0.5"/><rect x="143.0" y="359.5" width="4.2" height="4.5" fill="#93c5fd" stroke="#60a5fa" stroke-width="0.5"/><rect x="147.2" y="359.5" width="4.2" height="4.5" fill="#93c5fd" stroke="#60a5fa" stroke-width="0.5"/><rect x="151.5" y="350.6" width="4.2" height="13.4" fill="#93c5fd" stroke="#60a5fa" stroke-width="0.5"/><rect x="155.7" y="341.7" width="4.2" height="22.3" fill="#93c5fd" stroke="#60a5fa" stroke-width="0.5"/><rect x="159.9" y="306.1" width="4.2" height="57.9" fill="#93c5fd" stroke="#60a5fa" stroke-width="0.5"/><rect x="164.1" y="355.1" width="4.2" height="8.9" fill="#93c5fd" stroke="#60a5fa" stroke-width="0.5"/><rect x="168.3" y="350.6" width="4.2" height="13.4" fill="#93c5fd" stroke="#60a5fa" stroke-width="0.5"/><rect x="172.5" y="359.5" width="4.2" height="4.5" fill="#93c5fd" stroke="#60a5fa" stroke-width="0.5"/><rect x="176.7" y="350.6" width="4.2" height="13.4" fill="#93c5fd" stroke="#60a5fa" stroke-width="0.5"/><rect x="180.9" y="359.5" width="4.2" height="4.5" fill="#93c5fd" stroke="#60a5fa" stroke-width="0.5"/><rect x="185.1" y="341.7" width="4.2" height="22.3" fill="#93c5fd" stroke="#60a5fa" stroke-width="0.5"/><rect x="189.3" y="359.5" width="4.2" height="4.5" fill="#93c5fd" stroke="#60a5fa" stroke-width="0.5"/><rect x="193.5" y="359.5" width="4.2" height="4.5" fill="#93c5fd" stroke="#60a5fa" stroke-width="0.5"/><rect x="197.7" y="359.5" width="4.2" height="4.5" fill="#93c5fd" stroke="#60a5fa" stroke-width="0.5"/><rect x="201.9" y="359.5" width="4.2" height="4.5" fill="#93c5fd" stroke="#60a5fa" stroke-width="0.5"/><rect x="206.1" y="359.5" width="4.2" height="4.5" fill="#93c5fd" stroke="#60a5fa" stroke-width="0.5"/><rect x="210.3" y="359.5" width="4.2" height="4.5" fill="#93c5fd" stroke="#60a5fa" stroke-width="0.5"/><rect x="214.5" y="359.5" width="4.2" height="4.5" fill="#93c5fd" stroke="#60a5fa" stroke-width="0.5"/><rect x="218.7" y="359.5" width="4.2" height="4.5" fill="#93c5fd" stroke="#60a5fa" stroke-width="0.5"/><rect x="222.9" y="359.5" width="4.2" height="4.5" fill="#93c5fd" stroke="#60a5fa" stroke-width="0.5"/><rect x="227.1" y="359.5" width="4.2" height="4.5" fill="#93c5fd" stroke="#60a5fa" stroke-width="0.5"/><rect x="231.3" y="359.5" width="4.2" height="4.5" fill="#93c5fd" stroke="#60a5fa" stroke-width="0.5"/><rect x="235.5" y="359.5" width="4.2" height="4.5" fill="#93c5fd" stroke="#60a5fa" stroke-width="0.5"/><rect x="239.7" y="359.5" width="4.2" height="4.5" fill="#93c5fd" stroke="#60a5fa" stroke-width="0.5"/><rect x="243.9" y="359.5" width="4.2" height="4.5" fill="#93c5fd" stroke="#60a5fa" stroke-width="0.5"/><rect x="248.1" y="350.6" width="4.2" height="13.4" fill="#93c5fd" stroke="#60a5fa" stroke-width="0.5"/><rect x="252.3" y="359.5" width="4.2" height="4.5" fill="#93c5fd" stroke="#60a5fa" stroke-width="0.5"/><rect x="256.5" y="359.5" width="4.2" height="4.5" fill="#93c5fd" stroke="#60a5fa" stroke-width="0.5"/><rect x="260.7" y="315.0" width="4.2" height="49.0" fill="#93c5fd" stroke="#60a5fa" stroke-width="0.5"/><rect x="264.9" y="359.5" width="4.2" height="4.5" fill="#93c5fd" stroke="#60a5fa" stroke-width="0.5"/><rect x="269.1" y="337.3" width="4.2" height="26.7" fill="#93c5fd" stroke="#60a5fa" stroke-width="0.5"/><rect x="273.3" y="328.3" width="4.2" height="35.7" fill="#93c5fd" stroke="#60a5fa" stroke-width="0.5"/><rect x="277.5" y="359.5" width="4.2" height="4.5" fill="#93c5fd" stroke="#60a5fa" stroke-width="0.5"/><rect x="281.7" y="355.1" width="4.2" height="8.9" fill="#93c5fd" stroke="#60a5fa" stroke-width="0.5"/><rect x="285.9" y="350.6" width="4.2" height="13.4" fill="#93c5fd" stroke="#60a5fa" stroke-width="0.5"/><rect x="290.2" y="355.1" width="4.2" height="8.9" fill="#93c5fd" stroke="#60a5fa" stroke-width="0.5"/><rect x="294.4" y="355.1" width="4.2" height="8.9" fill="#93c5fd" stroke="#60a5fa" stroke-width="0.5"/><rect x="298.6" y="350.6" width="4.2" height="13.4" fill="#93c5fd" stroke="#60a5fa" stroke-width="0.5"/><rect x="302.8" y="359.5" width="4.2" height="4.5" fill="#93c5fd" stroke="#60a5fa" stroke-width="0.5"/><rect x="307.0" y="359.5" width="4.2" height="4.5" fill="#93c5fd" stroke="#60a5fa" stroke-width="0.5"/><rect x="311.2" y="359.5" width="4.2" height="4.5" fill="#93c5fd" stroke="#60a5fa" stroke-width="0.5"/><rect x="315.4" y="359.5" width="4.2" height="4.5" fill="#93c5fd" stroke="#60a5fa" stroke-width="0.5"/><rect x="319.6" y="350.6" width="4.2" height="13.4" fill="#93c5fd" stroke="#60a5fa" stroke-width="0.5"/><rect x="323.8" y="359.5" width="4.2" height="4.5" fill="#93c5fd" stroke="#60a5fa" stroke-width="0.5"/><rect x="328.0" y="328.3" width="4.2" height="35.7" fill="#93c5fd" stroke="#60a5fa" stroke-width="0.5"/><rect x="332.2" y="359.5" width="4.2" height="4.5" fill="#93c5fd" stroke="#60a5fa" stroke-width="0.5"/><rect x="336.4" y="359.5" width="4.2" height="4.5" fill="#93c5fd" stroke="#60a5fa" stroke-width="0.5"/><rect x="340.6" y="359.5" width="4.2" height="4.5" fill="#93c5fd" stroke="#60a5fa" stroke-width="0.5"/><rect x="344.8" y="350.6" width="4.2" height="13.4" fill="#93c5fd" stroke="#60a5fa" stroke-width="0.5"/><rect x="349.0" y="359.5" width="4.2" height="4.5" fill="#93c5fd" stroke="#60a5fa" stroke-width="0.5"/><rect x="353.2" y="359.5" width="4.2" height="4.5" fill="#93c5fd" stroke="#60a5fa" stroke-width="0.5"/><rect x="357.4" y="355.1" width="4.2" height="8.9" fill="#93c5fd" stroke="#60a5fa" stroke-width="0.5"/><rect x="361.6" y="350.6" width="4.2" height="13.4" fill="#93c5fd" stroke="#60a5fa" stroke-width="0.5"/><rect x="365.8" y="359.5" width="4.2" height="4.5" fill="#93c5fd" stroke="#60a5fa" stroke-width="0.5"/><rect x="370.0" y="350.6" width="4.2" height="13.4" fill="#93c5fd" stroke="#60a5fa" stroke-width="0.5"/><rect x="374.2" y="355.1" width="4.2" height="8.9" fill="#93c5fd" stroke="#60a5fa" stroke-width="0.5"/><rect x="378.4" y="350.6" width="4.2" height="13.4" fill="#93c5fd" stroke="#60a5fa" stroke-width="0.5"/><rect x="382.6" y="359.5" width="4.2" height="4.5" fill="#93c5fd" stroke="#60a5fa" stroke-width="0.5"/><rect x="386.8" y="319.4" width="4.2" height="44.6" fill="#93c5fd" stroke="#60a5fa" stroke-width="0.5"/><rect x="391.0" y="346.2" width="4.2" height="17.8" fill="#93c5fd" stroke="#60a5fa" stroke-width="0.5"/><rect x="395.2" y="346.2" width="4.2" height="17.8" fill="#93c5fd" stroke="#60a5fa" stroke-width="0.5"/><rect x="399.4" y="359.5" width="4.2" height="4.5" fill="#93c5fd" stroke="#60a5fa" stroke-width="0.5"/><rect x="403.6" y="359.5" width="4.2" height="4.5" fill="#93c5fd" stroke="#60a5fa" stroke-width="0.5"/><rect x="407.8" y="359.5" width="4.2" height="4.5" fill="#93c5fd" stroke="#60a5fa" stroke-width="0.5"/><rect x="412.0" y="355.1" width="4.2" height="8.9" fill="#93c5fd" stroke="#60a5fa" stroke-width="0.5"/><rect x="416.2" y="355.1" width="4.2" height="8.9" fill="#93c5fd" stroke="#60a5fa" stroke-width="0.5"/><rect x="420.4" y="350.6" width="4.2" height="13.4" fill="#93c5fd" stroke="#60a5fa" stroke-width="0.5"/><rect x="424.6" y="355.1" width="4.2" height="8.9" fill="#93c5fd" stroke="#60a5fa" stroke-width="0.5"/><rect x="428.8" y="350.6" width="4.2" height="13.4" fill="#93c5fd" stroke="#60a5fa" stroke-width="0.5"/><rect x="433.1" y="359.5" width="4.2" height="4.5" fill="#93c5fd" stroke="#60a5fa" stroke-width="0.5"/><rect x="437.3" y="355.1" width="4.2" height="8.9" fill="#93c5fd" stroke="#60a5fa" stroke-width="0.5"/><rect x="441.5" y="359.5" width="4.2" height="4.5" fill="#93c5fd" stroke="#60a5fa" stroke-width="0.5"/><rect x="445.7" y="337.3" width="4.2" height="26.7" fill="#93c5fd" stroke="#60a5fa" stroke-width="0.5"/><rect x="449.9" y="359.5" width="4.2" height="4.5" fill="#93c5fd" stroke="#60a5fa" stroke-width="0.5"/><rect x="454.1" y="359.5" width="4.2" height="4.5" fill="#93c5fd" stroke="#60a5fa" stroke-width="0.5"/><rect x="458.3" y="359.5" width="4.2" height="4.5" fill="#93c5fd" stroke="#60a5fa" stroke-width="0.5"/><rect x="462.5" y="359.5" width="4.2" height="4.5" fill="#93c5fd" stroke="#60a5fa" stroke-width="0.5"/><rect x="466.7" y="359.5" width="4.2" height="4.5" fill="#93c5fd" stroke="#60a5fa" stroke-width="0.5"/><rect x="470.9" y="337.3" width="4.2" height="26.7" fill="#93c5fd" stroke="#60a5fa" stroke-width="0.5"/><rect x="475.1" y="359.5" width="4.2" height="4.5" fill="#93c5fd" stroke="#60a5fa" stroke-width="0.5"/><rect x="479.3" y="346.2" width="4.2" height="17.8" fill="#93c5fd" stroke="#60a5fa" stroke-width="0.5"/><rect x="483.5" y="319.4" width="4.2" height="44.6" fill="#93c5fd" stroke="#60a5fa" stroke-width="0.5"/><rect x="487.7" y="328.3" width="4.2" height="35.7" fill="#93c5fd" stroke="#60a5fa" stroke-width="0.5"/><rect x="491.9" y="355.1" width="4.2" height="8.9" fill="#93c5fd" stroke="#60a5fa" stroke-width="0.5"/><rect x="496.1" y="355.1" width="4.2" height="8.9" fill="#93c5fd" stroke="#60a5fa" stroke-width="0.5"/><rect x="500.3" y="355.1" width="4.2" height="8.9" fill="#93c5fd" stroke="#60a5fa" stroke-width="0.5"/><rect x="504.5" y="355.1" width="4.2" height="8.9" fill="#93c5fd" stroke="#60a5fa" stroke-width="0.5"/><rect x="508.7" y="350.6" width="4.2" height="13.4" fill="#93c5fd" stroke="#60a5fa" stroke-width="0.5"/><rect x="512.9" y="341.7" width="4.2" height="22.3" fill="#93c5fd" stroke="#60a5fa" stroke-width="0.5"/><rect x="517.1" y="359.5" width="4.2" height="4.5" fill="#93c5fd" stroke="#60a5fa" stroke-width="0.5"/><rect x="521.3" y="323.9" width="4.2" height="40.1" fill="#93c5fd" stroke="#60a5fa" stroke-width="0.5"/><rect x="525.5" y="355.1" width="4.2" height="8.9" fill="#93c5fd" stroke="#60a5fa" stroke-width="0.5"/><rect x="529.7" y="346.2" width="4.2" height="17.8" fill="#93c5fd" stroke="#60a5fa" stroke-width="0.5"/><rect x="533.9" y="355.1" width="4.2" height="8.9" fill="#93c5fd" stroke="#60a5fa" stroke-width="0.5"/><rect x="538.1" y="359.5" width="4.2" height="4.5" fill="#93c5fd" stroke="#60a5fa" stroke-width="0.5"/><rect x="542.3" y="359.5" width="4.2" height="4.5" fill="#93c5fd" stroke="#60a5fa" stroke-width="0.5"/><rect x="546.5" y="355.1" width="4.2" height="8.9" fill="#93c5fd" stroke="#60a5fa" stroke-width="0.5"/><rect x="550.7" y="350.6" width="4.2" height="13.4" fill="#93c5fd" stroke="#60a5fa" stroke-width="0.5"/><rect x="554.9" y="355.1" width="4.2" height="8.9" fill="#93c5fd" stroke="#60a5fa" stroke-width="0.5"/><rect x="559.1" y="315.0" width="4.2" height="49.0" fill="#93c5fd" stroke="#60a5fa" stroke-width="0.5"/><rect x="563.3" y="319.4" width="4.2" height="44.6" fill="#93c5fd" stroke="#60a5fa" stroke-width="0.5"/><rect x="567.5" y="346.2" width="4.2" height="17.8" fill="#93c5fd" stroke="#60a5fa" stroke-width="0.5"/><rect x="571.8" y="359.5" width="4.2" height="4.5" fill="#93c5fd" stroke="#60a5fa" stroke-width="0.5"/><rect x="576.0" y="328.3" width="4.2" height="35.7" fill="#93c5fd" stroke="#60a5fa" stroke-width="0.5"/><rect x="580.2" y="328.3" width="4.2" height="35.7" fill="#93c5fd" stroke="#60a5fa" stroke-width="0.5"/><rect x="584.4" y="257.0" width="4.2" height="107.0" fill="#93c5fd" stroke="#60a5fa" stroke-width="0.5"/><rect x="588.6" y="355.1" width="4.2" height="8.9" fill="#93c5fd" stroke="#60a5fa" stroke-width="0.5"/><rect x="592.8" y="341.7" width="4.2" height="22.3" fill="#93c5fd" stroke="#60a5fa" stroke-width="0.5"/><rect x="597.0" y="350.6" width="4.2" height="13.4" fill="#93c5fd" stroke="#60a5fa" stroke-width="0.5"/><rect x="601.2" y="306.1" width="4.2" height="57.9" fill="#93c5fd" stroke="#60a5fa" stroke-width="0.5"/><rect x="605.4" y="337.3" width="4.2" height="26.7" fill="#93c5fd" stroke="#60a5fa" stroke-width="0.5"/><rect x="609.6" y="301.6" width="4.2" height="62.4" fill="#93c5fd" stroke="#60a5fa" stroke-width="0.5"/><rect x="613.8" y="319.4" width="4.2" height="44.6" fill="#93c5fd" stroke="#60a5fa" stroke-width="0.5"/><rect x="618.0" y="355.1" width="4.2" height="8.9" fill="#93c5fd" stroke="#60a5fa" stroke-width="0.5"/><rect x="622.2" y="359.5" width="4.2" height="4.5" fill="#93c5fd" stroke="#60a5fa" stroke-width="0.5"/><rect x="626.4" y="341.7" width="4.2" height="22.3" fill="#93c5fd" stroke="#60a5fa" stroke-width="0.5"/><rect x="630.6" y="306.1" width="4.2" height="57.9" fill="#93c5fd" stroke="#60a5fa" stroke-width="0.5"/><rect x="634.8" y="346.2" width="4.2" height="17.8" fill="#93c5fd" stroke="#60a5fa" stroke-width="0.5"/><rect x="639.0" y="257.0" width="4.2" height="107.0" fill="#93c5fd" stroke="#60a5fa" stroke-width="0.5"/><rect x="643.2" y="341.7" width="4.2" height="22.3" fill="#93c5fd" stroke="#60a5fa" stroke-width="0.5"/><rect x="647.4" y="52.0" width="4.2" height="312.0" fill="#93c5fd" stroke="#60a5fa" stroke-width="0.5"/><rect x="651.6" y="288.2" width="4.2" height="75.8" fill="#93c5fd" stroke="#60a5fa" stroke-width="0.5"/><rect x="655.8" y="350.6" width="4.2" height="13.4" fill="#93c5fd" stroke="#60a5fa" stroke-width="0.5"/><rect x="660.0" y="355.1" width="4.2" height="8.9" fill="#93c5fd" stroke="#60a5fa" stroke-width="0.5"/><rect x="664.2" y="181.3" width="4.2" height="182.7" fill="#93c5fd" stroke="#60a5fa" stroke-width="0.5"/><rect x="668.4" y="337.3" width="4.2" height="26.7" fill="#93c5fd" stroke="#60a5fa" stroke-width="0.5"/><rect x="672.6" y="350.6" width="4.2" height="13.4" fill="#93c5fd" stroke="#60a5fa" stroke-width="0.5"/><rect x="676.8" y="355.1" width="4.2" height="8.9" fill="#93c5fd" stroke="#60a5fa" stroke-width="0.5"/><rect x="681.0" y="346.2" width="4.2" height="17.8" fill="#93c5fd" stroke="#60a5fa" stroke-width="0.5"/><rect x="685.2" y="328.3" width="4.2" height="35.7" fill="#93c5fd" stroke="#60a5fa" stroke-width="0.5"/><rect x="689.4" y="359.5" width="4.2" height="4.5" fill="#93c5fd" stroke="#60a5fa" stroke-width="0.5"/><rect x="693.6" y="359.5" width="4.2" height="4.5" fill="#93c5fd" stroke="#60a5fa" stroke-width="0.5"/><rect x="697.8" y="346.2" width="4.2" height="17.8" fill="#93c5fd" stroke="#60a5fa" stroke-width="0.5"/><rect x="702.0" y="341.7" width="4.2" height="22.3" fill="#93c5fd" stroke="#60a5fa" stroke-width="0.5"/><rect x="706.2" y="337.3" width="4.2" height="26.7" fill="#93c5fd" stroke="#60a5fa" stroke-width="0.5"/><rect x="710.5" y="337.3" width="4.2" height="26.7" fill="#93c5fd" stroke="#60a5fa" stroke-width="0.5"/><rect x="714.7" y="359.5" width="4.2" height="4.5" fill="#93c5fd" stroke="#60a5fa" stroke-width="0.5"/><rect x="718.9" y="341.7" width="4.2" height="22.3" fill="#93c5fd" stroke="#60a5fa" stroke-width="0.5"/><rect x="723.1" y="332.8" width="4.2" height="31.2" fill="#93c5fd" stroke="#60a5fa" stroke-width="0.5"/><rect x="727.3" y="332.8" width="4.2" height="31.2" fill="#93c5fd" stroke="#60a5fa" stroke-width="0.5"/><rect x="731.5" y="328.3" width="4.2" height="35.7" fill="#93c5fd" stroke="#60a5fa" stroke-width="0.5"/><rect x="735.7" y="323.9" width="4.2" height="40.1" fill="#93c5fd" stroke="#60a5fa" stroke-width="0.5"/><rect x="739.9" y="332.8" width="4.2" height="31.2" fill="#93c5fd" stroke="#60a5fa" stroke-width="0.5"/><rect x="744.1" y="346.2" width="4.2" height="17.8" fill="#93c5fd" stroke="#60a5fa" stroke-width="0.5"/><rect x="748.3" y="350.6" width="4.2" height="13.4" fill="#93c5fd" stroke="#60a5fa" stroke-width="0.5"/><rect x="752.5" y="350.6" width="4.2" height="13.4" fill="#93c5fd" stroke="#60a5fa" stroke-width="0.5"/><rect x="756.7" y="332.8" width="4.2" height="31.2" fill="#93c5fd" stroke="#60a5fa" stroke-width="0.5"/><rect x="760.9" y="359.5" width="4.2" height="4.5" fill="#93c5fd" stroke="#60a5fa" stroke-width="0.5"/><rect x="765.1" y="350.6" width="4.2" height="13.4" fill="#93c5fd" stroke="#60a5fa" stroke-width="0.5"/><rect x="769.3" y="355.1" width="4.2" height="8.9" fill="#93c5fd" stroke="#60a5fa" stroke-width="0.5"/><rect x="773.5" y="355.1" width="4.2" height="8.9" fill="#93c5fd" stroke="#60a5fa" stroke-width="0.5"/><rect x="777.7" y="355.1" width="4.2" height="8.9" fill="#93c5fd" stroke="#60a5fa" stroke-width="0.5"/><rect x="781.9" y="355.1" width="4.2" height="8.9" fill="#93c5fd" stroke="#60a5fa" stroke-width="0.5"/><rect x="786.1" y="359.5" width="4.2" height="4.5" fill="#93c5fd" stroke="#60a5fa" stroke-width="0.5"/><rect x="790.3" y="359.5" width="4.2" height="4.5" fill="#93c5fd" stroke="#60a5fa" stroke-width="0.5"/><rect x="794.5" y="337.3" width="4.2" height="26.7" fill="#93c5fd" stroke="#60a5fa" stroke-width="0.5"/><rect x="798.7" y="355.1" width="4.2" height="8.9" fill="#93c5fd" stroke="#60a5fa" stroke-width="0.5"/><rect x="802.9" y="328.3" width="4.2" height="35.7" fill="#93c5fd" stroke="#60a5fa" stroke-width="0.5"/><rect x="807.1" y="350.6" width="4.2" height="13.4" fill="#93c5fd" stroke="#60a5fa" stroke-width="0.5"/><rect x="811.3" y="328.3" width="4.2" height="35.7" fill="#93c5fd" stroke="#60a5fa" stroke-width="0.5"/><rect x="815.5" y="332.8" width="4.2" height="31.2" fill="#93c5fd" stroke="#60a5fa" stroke-width="0.5"/><rect x="819.7" y="328.3" width="4.2" height="35.7" fill="#93c5fd" stroke="#60a5fa" stroke-width="0.5"/><rect x="823.9" y="341.7" width="4.2" height="22.3" fill="#93c5fd" stroke="#60a5fa" stroke-width="0.5"/><rect x="828.1" y="355.1" width="4.2" height="8.9" fill="#93c5fd" stroke="#60a5fa" stroke-width="0.5"/><rect x="832.3" y="355.1" width="4.2" height="8.9" fill="#93c5fd" stroke="#60a5fa" stroke-width="0.5"/><rect x="836.5" y="319.4" width="4.2" height="44.6" fill="#93c5fd" stroke="#60a5fa" stroke-width="0.5"/><rect x="840.7" y="315.0" width="4.2" height="49.0" fill="#93c5fd" stroke="#60a5fa" stroke-width="0.5"/><rect x="844.9" y="328.3" width="4.2" height="35.7" fill="#93c5fd" stroke="#60a5fa" stroke-width="0.5"/><rect x="849.2" y="323.9" width="4.2" height="40.1" fill="#93c5fd" stroke="#60a5fa" stroke-width="0.5"/><rect x="853.4" y="341.7" width="4.2" height="22.3" fill="#93c5fd" stroke="#60a5fa" stroke-width="0.5"/><rect x="857.6" y="359.5" width="4.2" height="4.5" fill="#93c5fd" stroke="#60a5fa" stroke-width="0.5"/><rect x="861.8" y="350.6" width="4.2" height="13.4" fill="#93c5fd" stroke="#60a5fa" stroke-width="0.5"/><rect x="866.0" y="359.5" width="4.2" height="4.5" fill="#93c5fd" stroke="#60a5fa" stroke-width="0.5"/><rect x="870.2" y="346.2" width="4.2" height="17.8" fill="#93c5fd" stroke="#60a5fa" stroke-width="0.5"/><rect x="874.4" y="346.2" width="4.2" height="17.8" fill="#93c5fd" stroke="#60a5fa" stroke-width="0.5"/><rect x="878.6" y="341.7" width="4.2" height="22.3" fill="#93c5fd" stroke="#60a5fa" stroke-width="0.5"/><rect x="882.8" y="359.5" width="4.2" height="4.5" fill="#93c5fd" stroke="#60a5fa" stroke-width="0.5"/><rect x="887.0" y="359.5" width="4.2" height="4.5" fill="#93c5fd" stroke="#60a5fa" stroke-width="0.5"/><rect x="891.2" y="315.0" width="4.2" height="49.0" fill="#93c5fd" stroke="#60a5fa" stroke-width="0.5"/><rect x="895.4" y="230.3" width="4.2" height="133.7" fill="#93c5fd" stroke="#60a5fa" stroke-width="0.5"/><rect x="899.6" y="297.1" width="4.2" height="66.9" fill="#93c5fd" stroke="#60a5fa" stroke-width="0.5"/><rect x="903.8" y="359.5" width="4.2" height="4.5" fill="#93c5fd" stroke="#60a5fa" stroke-width="0.5"/><rect x="908.0" y="319.4" width="4.2" height="44.6" fill="#93c5fd" stroke="#60a5fa" stroke-width="0.5"/><rect x="912.2" y="355.1" width="4.2" height="8.9" fill="#93c5fd" stroke="#60a5fa" stroke-width="0.5"/><rect x="916.4" y="341.7" width="4.2" height="22.3" fill="#93c5fd" stroke="#60a5fa" stroke-width="0.5"/><rect x="920.6" y="315.0" width="4.2" height="49.0" fill="#93c5fd" stroke="#60a5fa" stroke-width="0.5"/><rect x="924.8" y="350.6" width="4.2" height="13.4" fill="#93c5fd" stroke="#60a5fa" stroke-width="0.5"/><rect x="929.0" y="279.3" width="4.2" height="84.7" fill="#93c5fd" stroke="#60a5fa" stroke-width="0.5"/><rect x="933.2" y="132.2" width="4.2" height="231.8" fill="#93c5fd" stroke="#60a5fa" stroke-width="0.5"/><rect x="937.4" y="359.5" width="4.2" height="4.5" fill="#93c5fd" stroke="#60a5fa" stroke-width="0.5"/><rect x="941.6" y="212.5" width="4.2" height="151.5" fill="#93c5fd" stroke="#60a5fa" stroke-width="0.5"/><rect x="945.8" y="355.1" width="4.2" height="8.9" fill="#93c5fd" stroke="#60a5fa" stroke-width="0.5"/><rect x="950.0" y="252.6" width="4.2" height="111.4" fill="#93c5fd" stroke="#60a5fa" stroke-width="0.5"/><rect x="954.2" y="359.5" width="4.2" height="4.5" fill="#93c5fd" stroke="#60a5fa" stroke-width="0.5"/><rect x="958.4" y="337.3" width="4.2" height="26.7" fill="#93c5fd" stroke="#60a5fa" stroke-width="0.5"/><rect x="962.6" y="355.1" width="4.2" height="8.9" fill="#93c5fd" stroke="#60a5fa" stroke-width="0.5"/><rect x="966.8" y="306.1" width="4.2" height="57.9" fill="#93c5fd" stroke="#60a5fa" stroke-width="0.5"/><rect x="971.0" y="332.8" width="4.2" height="31.2" fill="#93c5fd" stroke="#60a5fa" stroke-width="0.5"/><rect x="975.2" y="355.1" width="4.2" height="8.9" fill="#93c5fd" stroke="#60a5fa" stroke-width="0.5"/><rect x="979.4" y="252.6" width="4.2" height="111.4" fill="#93c5fd" stroke="#60a5fa" stroke-width="0.5"/><rect x="983.6" y="346.2" width="4.2" height="17.8" fill="#93c5fd" stroke="#60a5fa" stroke-width="0.5"/><rect x="987.8" y="328.3" width="4.2" height="35.7" fill="#93c5fd" stroke="#60a5fa" stroke-width="0.5"/><rect x="992.1" y="350.6" width="4.2" height="13.4" fill="#93c5fd" stroke="#60a5fa" stroke-width="0.5"/><rect x="996.3" y="319.4" width="4.2" height="44.6" fill="#93c5fd" stroke="#60a5fa" stroke-width="0.5"/><rect x="1000.5" y="359.5" width="4.2" height="4.5" fill="#93c5fd" stroke="#60a5fa" stroke-width="0.5"/><rect x="1004.7" y="292.7" width="4.2" height="71.3" fill="#93c5fd" stroke="#60a5fa" stroke-width="0.5"/><rect x="1008.9" y="323.9" width="4.2" height="40.1" fill="#93c5fd" stroke="#60a5fa" stroke-width="0.5"/><rect x="1013.1" y="350.6" width="4.2" height="13.4" fill="#93c5fd" stroke="#60a5fa" stroke-width="0.5"/><rect x="1017.3" y="301.6" width="4.2" height="62.4" fill="#93c5fd" stroke="#60a5fa" stroke-width="0.5"/><rect x="1021.5" y="355.1" width="4.2" height="8.9" fill="#93c5fd" stroke="#60a5fa" stroke-width="0.5"/><rect x="1025.7" y="359.5" width="4.2" height="4.5" fill="#93c5fd" stroke="#60a5fa" stroke-width="0.5"/><rect x="1029.9" y="355.1" width="4.2" height="8.9" fill="#93c5fd" stroke="#60a5fa" stroke-width="0.5"/><rect x="1034.1" y="350.6" width="4.2" height="13.4" fill="#93c5fd" stroke="#60a5fa" stroke-width="0.5"/><rect x="1038.3" y="310.5" width="4.2" height="53.5" fill="#93c5fd" stroke="#60a5fa" stroke-width="0.5"/><rect x="1042.5" y="341.7" width="4.2" height="22.3" fill="#93c5fd" stroke="#60a5fa" stroke-width="0.5"/><rect x="1046.7" y="355.1" width="4.2" height="8.9" fill="#93c5fd" stroke="#60a5fa" stroke-width="0.5"/><rect x="1050.9" y="359.5" width="4.2" height="4.5" fill="#93c5fd" stroke="#60a5fa" stroke-width="0.5"/><rect x="1055.1" y="350.6" width="4.2" height="13.4" fill="#93c5fd" stroke="#60a5fa" stroke-width="0.5"/><rect x="1059.3" y="355.1" width="4.2" height="8.9" fill="#93c5fd" stroke="#60a5fa" stroke-width="0.5"/><rect x="1063.5" y="265.9" width="4.2" height="98.1" fill="#93c5fd" stroke="#60a5fa" stroke-width="0.5"/><rect x="1067.7" y="323.9" width="4.2" height="40.1" fill="#93c5fd" stroke="#60a5fa" stroke-width="0.5"/><rect x="1071.9" y="332.8" width="4.2" height="31.2" fill="#93c5fd" stroke="#60a5fa" stroke-width="0.5"/><rect x="1076.1" y="359.5" width="4.2" height="4.5" fill="#93c5fd" stroke="#60a5fa" stroke-width="0.5"/><rect x="1080.3" y="328.3" width="4.2" height="35.7" fill="#93c5fd" stroke="#60a5fa" stroke-width="0.5"/><rect x="1084.5" y="350.6" width="4.2" height="13.4" fill="#93c5fd" stroke="#60a5fa" stroke-width="0.5"/><rect x="1088.7" y="301.6" width="4.2" height="62.4" fill="#93c5fd" stroke="#60a5fa" stroke-width="0.5"/><rect x="1092.9" y="212.5" width="4.2" height="151.5" fill="#93c5fd" stroke="#60a5fa" stroke-width="0.5"/><rect x="1097.1" y="346.2" width="4.2" height="17.8" fill="#93c5fd" stroke="#60a5fa" stroke-width="0.5"/><rect x="1101.3" y="279.3" width="4.2" height="84.7" fill="#93c5fd" stroke="#60a5fa" stroke-width="0.5"/><rect x="1105.5" y="359.5" width="4.2" height="4.5" fill="#93c5fd" stroke="#60a5fa" stroke-width="0.5"/><rect x="1109.7" y="190.2" width="4.2" height="173.8" fill="#93c5fd" stroke="#60a5fa" stroke-width="0.5"/><rect x="1113.9" y="310.5" width="4.2" height="53.5" fill="#93c5fd" stroke="#60a5fa" stroke-width="0.5"/><rect x="1118.1" y="306.1" width="4.2" height="57.9" fill="#93c5fd" stroke="#60a5fa" stroke-width="0.5"/><rect x="1122.3" y="355.1" width="4.2" height="8.9" fill="#93c5fd" stroke="#60a5fa" stroke-width="0.5"/><rect x="1126.5" y="323.9" width="4.2" height="40.1" fill="#93c5fd" stroke="#60a5fa" stroke-width="0.5"/><rect x="1130.8" y="346.2" width="4.2" height="17.8" fill="#93c5fd" stroke="#60a5fa" stroke-width="0.5"/><rect x="1135.0" y="328.3" width="4.2" height="35.7" fill="#93c5fd" stroke="#60a5fa" stroke-width="0.5"/><rect x="1139.2" y="350.6" width="4.2" height="13.4" fill="#93c5fd" stroke="#60a5fa" stroke-width="0.5"/><rect x="1143.4" y="359.5" width="4.2" height="4.5" fill="#93c5fd" stroke="#60a5fa" stroke-width="0.5"/><rect x="1147.6" y="346.2" width="4.2" height="17.8" fill="#93c5fd" stroke="#60a5fa" stroke-width="0.5"/><rect x="1151.8" y="359.5" width="4.2" height="4.5" fill="#93c5fd" stroke="#60a5fa" stroke-width="0.5"/><rect x="1156.0" y="359.5" width="4.2" height="4.5" fill="#93c5fd" stroke="#60a5fa" stroke-width="0.5"/><rect x="1160.2" y="315.0" width="4.2" height="49.0" fill="#93c5fd" stroke="#60a5fa" stroke-width="0.5"/><rect x="1164.4" y="355.1" width="4.2" height="8.9" fill="#93c5fd" stroke="#60a5fa" stroke-width="0.5"/><rect x="1168.6" y="350.6" width="4.2" height="13.4" fill="#93c5fd" stroke="#60a5fa" stroke-width="0.5"/><rect x="1172.8" y="355.1" width="4.2" height="8.9" fill="#93c5fd" stroke="#60a5fa" stroke-width="0.5"/><rect x="1177.0" y="346.2" width="4.2" height="17.8" fill="#93c5fd" stroke="#60a5fa" stroke-width="0.5"/><rect x="1181.2" y="346.2" width="4.2" height="17.8" fill="#93c5fd" stroke="#60a5fa" stroke-width="0.5"/><rect x="1185.4" y="359.5" width="4.2" height="4.5" fill="#93c5fd" stroke="#60a5fa" stroke-width="0.5"/><rect x="1189.6" y="355.1" width="4.2" height="8.9" fill="#93c5fd" stroke="#60a5fa" stroke-width="0.5"/><rect x="1193.8" y="359.5" width="4.2" height="4.5" fill="#93c5fd" stroke="#60a5fa" stroke-width="0.5"/><polyline fill="none" stroke="#ef4444" stroke-width="2" points="82.1,363.1 86.3,362.9 90.5,362.7 94.7,362.3 98.9,362.1 103.1,361.4 107.3,361.2 111.5,361.0 115.7,360.8 119.9,360.6 124.1,360.3 128.3,360.1 132.5,359.9 136.7,359.5 140.9,358.6 145.1,358.4 149.3,358.2 153.6,357.5 157.8,356.5 162.0,353.7 166.2,353.2 170.4,352.6 174.6,352.4 178.8,351.7 183.0,351.5 187.2,350.4 191.4,350.2 195.6,350.0 199.8,349.8 204.0,349.6 208.2,349.3 212.4,349.1 216.6,348.9 220.8,348.7 225.0,348.5 229.2,348.3 233.4,348.1 237.6,347.8 241.8,347.6 246.0,347.4 250.2,346.8 254.4,346.5 258.6,346.3 262.8,344.0 267.0,343.7 271.2,342.5 275.4,340.7 279.6,340.5 283.8,340.1 288.0,339.4 292.3,339.0 296.5,338.6 300.7,337.9 304.9,337.7 309.1,337.5 313.3,337.3 317.5,337.1 321.7,336.4 325.9,336.2 330.1,334.5 334.3,334.3 338.5,334.0 342.7,333.8 346.9,333.2 351.1,333.0 355.3,332.8 359.5,332.3 363.7,331.7 367.9,331.5 372.1,330.8 376.3,330.4 380.5,329.7 384.7,329.5 388.9,327.4 393.1,326.5 397.3,325.6 401.5,325.4 405.7,325.2 409.9,325.0 414.1,324.6 418.3,324.1 422.5,323.5 426.7,323.1 431.0,322.4 435.2,322.2 439.4,321.8 443.6,321.6 447.8,320.3 452.0,320.0 456.2,319.8 460.4,319.6 464.6,319.4 468.8,319.2 473.0,317.9 477.2,317.7 481.4,316.8 485.6,314.7 489.8,312.9 494.0,312.5 498.2,312.1 502.4,311.6 506.6,311.2 510.8,310.6 515.0,309.5 519.2,309.3 523.4,307.3 527.6,306.9 531.8,306.0 536.0,305.6 540.2,305.4 544.4,305.2 548.6,304.7 552.8,304.1 557.0,303.7 561.2,301.3 565.4,299.1 569.7,298.3 573.9,298.1 578.1,296.3 582.3,294.6 586.5,289.4 590.7,289.0 594.9,287.9 599.1,287.3 603.3,284.5 607.5,283.2 611.7,280.2 615.9,278.0 620.1,277.6 624.3,277.4 628.5,276.3 632.7,273.5 636.9,272.6 641.1,267.5 645.3,266.4 649.5,251.3 653.7,247.6 657.9,247.0 662.1,246.6 666.3,237.7 670.5,236.4 674.7,235.8 678.9,235.4 683.1,234.5 687.3,232.8 691.5,232.6 695.7,232.3 699.9,231.5 704.1,230.4 708.3,229.1 712.6,227.8 716.8,227.6 721.0,226.5 725.2,225.0 729.4,223.5 733.6,221.8 737.8,219.9 742.0,218.3 746.2,217.5 750.4,216.8 754.6,216.2 758.8,214.7 763.0,214.5 767.2,213.8 771.4,213.4 775.6,213.0 779.8,212.5 784.0,212.1 788.2,211.9 792.4,211.7 796.6,210.4 800.8,209.9 805.0,208.2 809.2,207.6 813.4,205.8 817.6,204.3 821.8,202.6 826.0,201.5 830.2,201.1 834.4,200.7 838.6,198.5 842.8,196.1 847.0,194.4 851.3,192.5 855.5,191.4 859.7,191.2 863.9,190.5 868.1,190.3 872.3,189.5 876.5,188.6 880.7,187.5 884.9,187.3 889.1,187.1 893.3,184.7 897.5,178.3 901.7,175.0 905.9,174.8 910.1,172.7 914.3,172.2 918.5,171.2 922.7,168.8 926.9,168.1 931.1,164.0 935.3,152.8 939.5,152.6 943.7,145.3 947.9,144.9 952.1,139.5 956.3,139.3 960.5,138.0 964.7,137.5 968.9,134.7 973.1,133.2 977.3,132.8 981.5,127.4 985.7,126.6 990.0,124.8 994.2,124.2 998.4,122.0 1002.6,121.8 1006.8,118.4 1011.0,116.4 1015.2,115.8 1019.4,112.8 1023.6,112.3 1027.8,112.1 1032.0,111.7 1036.2,111.0 1040.4,108.5 1044.6,107.4 1048.8,106.9 1053.0,106.7 1057.2,106.1 1061.4,105.7 1065.6,100.9 1069.8,99.0 1074.0,97.5 1078.2,97.2 1082.4,95.5 1086.6,94.9 1090.8,91.9 1095.0,84.5 1099.2,83.7 1103.4,79.6 1107.6,79.4 1111.8,71.0 1116.0,68.4 1120.2,65.6 1124.4,65.1 1128.7,63.2 1132.9,62.3 1137.1,60.6 1141.3,60.0 1145.5,59.8 1149.7,58.9 1153.9,58.7 1158.1,58.5 1162.3,56.1 1166.5,55.7 1170.7,55.0 1174.9,54.6 1179.1,53.7 1183.3,52.9 1187.5,52.6 1191.7,52.2 1195.9,52.0"/><line x1="82.1" y1="364.0" x2="82.1" y2="370.0" stroke="#111827" stroke-width="1"/><text x="84.1" y="386.0" font-size="11" text-anchor="end" transform="rotate(-35 84.1 386.0)" font-family="sans-serif" fill="#374151">2022-10-13</text><line x1="241.8" y1="364.0" x2="241.8" y2="370.0" stroke="#111827" stroke-width="1"/><text x="243.8" y="386.0" font-size="11" text-anchor="end" transform="rotate(-35 243.8 386.0)" font-family="sans-serif" fill="#374151">2025-03-28</text><line x1="401.5" y1="364.0" x2="401.5" y2="370.0" stroke="#111827" stroke-width="1"/><text x="403.5" y="386.0" font-size="11" text-anchor="end" transform="rotate(-35 403.5 386.0)" font-family="sans-serif" fill="#374151">2025-07-29</text><line x1="561.2" y1="364.0" x2="561.2" y2="370.0" stroke="#111827" stroke-width="1"/><text x="563.2" y="386.0" font-size="11" text-anchor="end" transform="rotate(-35 563.2 386.0)" font-family="sans-serif" fill="#374151">2025-10-06</text><line x1="716.8" y1="364.0" x2="716.8" y2="370.0" stroke="#111827" stroke-width="1"/><text x="718.8" y="386.0" font-size="11" text-anchor="end" transform="rotate(-35 718.8 386.0)" font-family="sans-serif" fill="#374151">2025-11-27</text><line x1="876.5" y1="364.0" x2="876.5" y2="370.0" stroke="#111827" stroke-width="1"/><text x="878.5" y="386.0" font-size="11" text-anchor="end" transform="rotate(-35 878.5 386.0)" font-family="sans-serif" fill="#374151">2026-01-15</text><line x1="1036.2" y1="364.0" x2="1036.2" y2="370.0" stroke="#111827" stroke-width="1"/><text x="1038.2" y="386.0" font-size="11" text-anchor="end" transform="rotate(-35 1038.2 386.0)" font-family="sans-serif" fill="#374151">2026-03-02</text><line x1="1195.9" y1="364.0" x2="1195.9" y2="370.0" stroke="#111827" stroke-width="1"/><text x="1197.9" y="386.0" font-size="11" text-anchor="end" transform="rotate(-35 1197.9 386.0)" font-family="sans-serif" fill="#374151">2026-04-27</text><text x="26" y="208.0" font-size="12" transform="rotate(-90 26 208.0)" text-anchor="middle" font-family="sans-serif" fill="#1f2937">구간별 수</text><text x="1256.0" y="208.0" font-size="12" transform="rotate(90 1256.0 208.0)" text-anchor="middle" font-family="sans-serif" fill="#1f2937">누적</text><text x="639.0" y="442.0" font-size="13" text-anchor="middle" font-family="sans-serif" fill="#111827">일</text></svg>