<svg xmlns="http://www.w3.org/2000/svg" width="1280" height="460" viewBox="0 0 1280 460"><rect x="0" y="0" width="100%" height="100%" fill="#ffffff"/><text x="640.0" y="28" font-size="20" text-anchor="middle" font-family="sans-serif" fill="#111827">시리즈 / 생성 시점 / 일별</text><line x1="80.0" y1="52.0" x2="1198.0" y2="52.0" stroke="#e5e7eb" stroke-width="1"/><text x="72.0" y="56.0" font-size="11" text-anchor="end" font-family="sans-serif" fill="#374151">70</text><text x="1206.0" y="56.0" font-size="11" text-anchor="start" font-family="sans-serif" fill="#374151">1,373</text><line x1="80.0" y1="114.4" x2="1198.0" y2="114.4" stroke="#e5e7eb" stroke-width="1"/><text x="72.0" y="118.4" font-size="11" text-anchor="end" font-family="sans-serif" fill="#374151">56</text><text x="1206.0" y="118.4" font-size="11" text-anchor="start" font-family="sans-serif" fill="#374151">1,098</text><line x1="80.0" y1="176.8" x2="1198.0" y2="176.8" stroke="#e5e7eb" stroke-width="1"/><text x="72.0" y="180.8" font-size="11" text-anchor="end" font-family="sans-serif" fill="#374151">42</text><text x="1206.0" y="180.8" font-size="11" text-anchor="start" font-family="sans-serif" fill="#374151">824</text><line x1="80.0" y1="239.2" x2="1198.0" y2="239.2" stroke="#e5e7eb" stroke-width="1"/><text x="72.0" y="243.2" font-size="11" text-anchor="end" font-family="sans-serif" fill="#374151">28</text><text x="1206.0" y="243.2" font-size="11" text-anchor="start" font-family="sans-serif" fill="#374151">549</text><line x1="80.0" y1="301.6" x2="1198.0" y2="301.6" stroke="#e5e7eb" stroke-width="1"/><text x="72.0" y="305.6" font-size="11" text-anchor="end" font-family="sans-serif" fill="#374151">14</text><text x="1206.0" y="305.6" font-size="11" text-anchor="start" font-family="sans-serif" fill="#374151">275</text><line x1="80.0" y1="364.0" x2="1198.0" y2="364.0" stroke="#e5e7eb" stroke-width="1"/><text x="72.0" y="368.0" font-size="11" text-anchor="end" font-family="sans-serif" fill="#374151">0</text><text x="1206.0" y="368.0" font-size="11" text-anchor="start" font-family="sans-serif" fill="#374151">0</text><line x1="80.0" y1="364.0" x2="1198.0" y2="364.0" stroke="#111827" stroke-width="1.2"/><line x1="80.0" y1="52.0" x2="80.0" y2="364.0" stroke="#111827" stroke-width="1.2"/><line x1="1198.0" y1="52.0" x2="1198.0" y2="364.0" stroke="#111827" stroke-width="1.2"/><rect x="81.0" y="346.2" width="2.5" height="17.8" fill="#93c5fd" stroke="#60a5fa" stroke-width="0.5"/><rect x="85.5" y="359.5" width="2.5" height="4.5" fill="#93c5fd" stroke="#60a5fa" stroke-width="0.5"/><rect x="90.0" y="359.5" width="2.5" height="4.5" fill="#93c5fd" stroke="#60a5fa" stroke-width="0.5"/><rect x="94.5" y="355.1" width="2.5" height="8.9" fill="#93c5fd" stroke="#60a5fa" stroke-width="0.5"/><rect x="99.0" y="359.5" width="2.5" height="4.5" fill="#93c5fd" stroke="#60a5fa" stroke-width="0.5"/><rect x="103.5" y="350.6" width="2.5" height="13.4" fill="#93c5fd" stroke="#60a5fa" stroke-width="0.5"/><rect x="108.0" y="359.5" width="2.5" height="4.5" fill="#93c5fd" stroke="#60a5fa" stroke-width="0.5"/><rect x="112.6" y="359.5" width="2.5" height="4.5" fill="#93c5fd" stroke="#60a5fa" stroke-width="0.5"/><rect x="117.1" y="359.5" width="2.5" height="4.5" fill="#93c5fd" stroke="#60a5fa" stroke-width="0.5"/><rect x="121.6" y="359.5" width="2.5" height="4.5" fill="#93c5fd" stroke="#60a5fa" stroke-width="0.5"/><rect x="126.1" y="359.5" width="2.5" height="4.5" fill="#93c5fd" stroke="#60a5fa" stroke-width="0.5"/><rect x="130.6" y="359.5" width="2.5" height="4.5" fill="#93c5fd" stroke="#60a5fa" stroke-width="0.5"/><rect x="135.1" y="359.5" width="2.5" height="4.5" fill="#93c5fd" stroke="#60a5fa" stroke-width="0.5"/><rect x="139.6" y="355.1" width="2.5" height="8.9" fill="#93c5fd" stroke="#60a5fa" stroke-width="0.5"/><rect x="144.1" y="346.2" width="2.5" height="17.8" fill="#93c5fd" stroke="#60a5fa" stroke-width="0.5"/><rect x="148.6" y="359.5" width="2.5" height="4.5" fill="#93c5fd" stroke="#60a5fa" stroke-width="0.5"/><rect x="153.1" y="359.5" width="2.5" height="4.5" fill="#93c5fd" stroke="#60a5fa" stroke-width="0.5"/><rect x="157.6" y="350.6" width="2.5" height="13.4" fill="#93c5fd" stroke="#60a5fa" stroke-width="0.5"/><rect x="162.1" y="341.7" width="2.5" height="22.3" fill="#93c5fd" stroke="#60a5fa" stroke-width="0.5"/><rect x="166.7" y="306.1" width="2.5" height="57.9" fill="#93c5fd" stroke="#60a5fa" stroke-width="0.5"/><rect x="171.2" y="355.1" width="2.5" height="8.9" fill="#93c5fd" stroke="#60a5fa" stroke-width="0.5"/><rect x="175.7" y="350.6" width="2.5" height="13.4" fill="#93c5fd" stroke="#60a5fa" stroke-width="0.5"/><rect x="180.2" y="359.5" width="2.5" height="4.5" fill="#93c5fd" stroke="#60a5fa" stroke-width="0.5"/><rect x="184.7" y="350.6" width="2.5" height="13.4" fill="#93c5fd" stroke="#60a5fa" stroke-width="0.5"/><rect x="189.2" y="359.5" width="2.5" height="4.5" fill="#93c5fd" stroke="#60a5fa" stroke-width="0.5"/><rect x="193.7" y="341.7" width="2.5" height="22.3" fill="#93c5fd" stroke="#60a5fa" stroke-width="0.5"/><rect x="198.2" y="359.5" width="2.5" height="4.5" fill="#93c5fd" stroke="#60a5fa" stroke-width="0.5"/><rect x="202.7" y="359.5" width="2.5" height="4.5" fill="#93c5fd" stroke="#60a5fa" stroke-width="0.5"/><rect x="207.2" y="359.5" width="2.5" height="4.5" fill="#93c5fd" stroke="#60a5fa" stroke-width="0.5"/><rect x="211.7" y="359.5" width="2.5" height="4.5" fill="#93c5fd" stroke="#60a5fa" stroke-width="0.5"/><rect x="216.2" y="359.5" width="2.5" height="4.5" fill="#93c5fd" stroke="#60a5fa" stroke-width="0.5"/><rect x="220.8" y="359.5" width="2.5" height="4.5" fill="#93c5fd" stroke="#60a5fa" stroke-width="0.5"/><rect x="225.3" y="359.5" width="2.5" height="4.5" fill="#93c5fd" stroke="#60a5fa" stroke-width="0.5"/><rect x="229.8" y="359.5" width="2.5" height="4.5" fill="#93c5fd" stroke="#60a5fa" stroke-width="0.5"/><rect x="234.3" y="359.5" width="2.5" height="4.5" fill="#93c5fd" stroke="#60a5fa" stroke-width="0.5"/><rect x="238.8" y="359.5" width="2.5" height="4.5" fill="#93c5fd" stroke="#60a5fa" stroke-width="0.5"/><rect x="243.3" y="359.5" width="2.5" height="4.5" fill="#93c5fd" stroke="#60a5fa" stroke-width="0.5"/><rect x="247.8" y="359.5" width="2.5" height="4.5" fill="#93c5fd" stroke="#60a5fa" stroke-width="0.5"/><rect x="252.3" y="359.5" width="2.5" height="4.5" fill="#93c5fd" stroke="#60a5fa" stroke-width="0.5"/><rect x="256.8" y="359.5" width="2.5" height="4.5" fill="#93c5fd" stroke="#60a5fa" stroke-width="0.5"/><rect x="261.3" y="350.6" width="2.5" height="13.4" fill="#93c5fd" stroke="#60a5fa" stroke-width="0.5"/><rect x="265.8" y="359.5" width="2.5" height="4.5" fill="#93c5fd" stroke="#60a5fa" stroke-width="0.5"/><rect x="270.3" y="359.5" width="2.5" height="4.5" fill="#93c5fd" stroke="#60a5fa" stroke-width="0.5"/><rect x="274.8" y="315.0" width="2.5" height="49.0" fill="#93c5fd" stroke="#60a5fa" stroke-width="0.5"/><rect x="279.4" y="359.5" width="2.5" height="4.5" fill="#93c5fd" stroke="#60a5fa" stroke-width="0.5"/><rect x="283.9" y="337.3" width="2.5" height="26.7" fill="#93c5fd" stroke="#60a5fa" stroke-width="0.5"/><rect x="288.4" y="328.3" width="2.5" height="35.7" fill="#93c5fd" stroke="#60a5fa" stroke-width="0.5"/><rect x="292.9" y="359.5" width="2.5" height="4.5" fill="#93c5fd" stroke="#60a5fa" stroke-width="0.5"/><rect x="297.4" y="355.1" width="2.5" height="8.9" fill="#93c5fd" stroke="#60a5fa" stroke-width="0.5"/><rect x="301.9" y="350.6" width="2.5" height="13.4" fill="#93c5fd" stroke="#60a5fa" stroke-width="0.5"/><rect x="306.4" y="355.1" width="2.5" height="8.9" fill="#93c5fd" stroke="#60a5fa" stroke-width="0.5"/><rect x="310.9" y="355.1" width="2.5" height="8.9" fill="#93c5fd" stroke="#60a5fa" stroke-width="0.5"/><rect x="315.4" y="350.6" width="2.5" height="13.4" fill="#93c5fd" stroke="#60a5fa" stroke-width="0.5"/><rect x="319.9" y="359.5" width="2.5" height="4.5" fill="#93c5fd" stroke="#60a5fa" stroke-width="0.5"/><rect x="324.4" y="359.5" width="2.5" height="4.5" fill="#93c5fd" stroke="#60a5fa" stroke-width="0.5"/><rect x="328.9" y="359.5" width="2.5" height="4.5" fill="#93c5fd" stroke="#60a5fa" stroke-width="0.5"/><rect x="333.5" y="359.5" width="2.5" height="4.5" fill="#93c5fd" stroke="#60a5fa" stroke-width="0.5"/><rect x="338.0" y="350.6" width="2.5" height="13.4" fill="#93c5fd" stroke="#60a5fa" stroke-width="0.5"/><rect x="342.5" y="359.5" width="2.5" height="4.5" fill="#93c5fd" stroke="#60a5fa" stroke-width="0.5"/><rect x="347.0" y="328.3" width="2.5" height="35.7" fill="#93c5fd" stroke="#60a5fa" stroke-width="0.5"/><rect x="351.5" y="359.5" width="2.5" height="4.5" fill="#93c5fd" stroke="#60a5fa" stroke-width="0.5"/><rect x="356.0" y="359.5" width="2.5" height="4.5" fill="#93c5fd" stroke="#60a5fa" stroke-width="0.5"/><rect x="360.5" y="359.5" width="2.5" height="4.5" fill="#93c5fd" stroke="#60a5fa" stroke-width="0.5"/><rect x="365.0" y="350.6" width="2.5" height="13.4" fill="#93c5fd" stroke="#60a5fa" stroke-width="0.5"/><rect x="369.5" y="359.5" width="2.5" height="4.5" fill="#93c5fd" stroke="#60a5fa" stroke-width="0.5"/><rect x="374.0" y="359.5" width="2.5" height="4.5" fill="#93c5fd" stroke="#60a5fa" stroke-width="0.5"/><rect x="378.5" y="355.1" width="2.5" height="8.9" fill="#93c5fd" stroke="#60a5fa" stroke-width="0.5"/><rect x="383.0" y="350.6" width="2.5" height="13.4" fill="#93c5fd" stroke="#60a5fa" stroke-width="0.5"/><rect x="387.5" y="359.5" width="2.5" height="4.5" fill="#93c5fd" stroke="#60a5fa" stroke-width="0.5"/><rect x="392.1" y="350.6" width="2.5" height="13.4" fill="#93c5fd" stroke="#60a5fa" stroke-width="0.5"/><rect x="396.6" y="355.1" width="2.5" height="8.9" fill="#93c5fd" stroke="#60a5fa" stroke-width="0.5"/><rect x="401.1" y="350.6" width="2.5" height="13.4" fill="#93c5fd" stroke="#60a5fa" stroke-width="0.5"/><rect x="405.6" y="359.5" width="2.5" height="4.5" fill="#93c5fd" stroke="#60a5fa" stroke-width="0.5"/><rect x="410.1" y="319.4" width="2.5" height="44.6" fill="#93c5fd" stroke="#60a5fa" stroke-width="0.5"/><rect x="414.6" y="346.2" width="2.5" height="17.8" fill="#93c5fd" stroke="#60a5fa" stroke-width="0.5"/><rect x="419.1" y="346.2" width="2.5" height="17.8" fill="#93c5fd" stroke="#60a5fa" stroke-width="0.5"/><rect x="423.6" y="359.5" width="2.5" height="4.5" fill="#93c5fd" stroke="#60a5fa" stroke-width="0.5"/><rect x="428.1" y="359.5" width="2.5" height="4.5" fill="#93c5fd" stroke="#60a5fa" stroke-width="0.5"/><rect x="432.6" y="359.5" width="2.5" height="4.5" fill="#93c5fd" stroke="#60a5fa" stroke-width="0.5"/><rect x="437.1" y="355.1" width="2.5" height="8.9" fill="#93c5fd" stroke="#60a5fa" stroke-width="0.5"/><rect x="441.6" y="355.1" width="2.5" height="8.9" fill="#93c5fd" stroke="#60a5fa" stroke-width="0.5"/><rect x="446.2" y="350.6" width="2.5" height="13.4" fill="#93c5fd" stroke="#60a5fa" stroke-width="0.5"/><rect x="450.7" y="355.1" width="2.5" height="8.9" fill="#93c5fd" stroke="#60a5fa" stroke-width="0.5"/><rect x="455.2" y="350.6" width="2.5" height="13.4" fill="#93c5fd" stroke="#60a5fa" stroke-width="0.5"/><rect x="459.7" y="359.5" width="2.5" height="4.5" fill="#93c5fd" stroke="#60a5fa" stroke-width="0.5"/><rect x="464.2" y="355.1" width="2.5" height="8.9" fill="#93c5fd" stroke="#60a5fa" stroke-width="0.5"/><rect x="468.7" y="359.5" width="2.5" height="4.5" fill="#93c5fd" stroke="#60a5fa" stroke-width="0.5"/><rect x="473.2" y="337.3" width="2.5" height="26.7" fill="#93c5fd" stroke="#60a5fa" stroke-width="0.5"/><rect x="477.7" y="359.5" width="2.5" height="4.5" fill="#93c5fd" stroke="#60a5fa" stroke-width="0.5"/><rect x="482.2" y="359.5" width="2.5" height="4.5" fill="#93c5fd" stroke="#60a5fa" stroke-width="0.5"/><rect x="486.7" y="359.5" width="2.5" height="4.5" fill="#93c5fd" stroke="#60a5fa" stroke-width="0.5"/><rect x="491.2" y="359.5" width="2.5" height="4.5" fill="#93c5fd" stroke="#60a5fa" stroke-width="0.5"/><rect x="495.7" y="359.5" width="2.5" height="4.5" fill="#93c5fd" stroke="#60a5fa" stroke-width="0.5"/><rect x="500.2" y="337.3" width="2.5" height="26.7" fill="#93c5fd" stroke="#60a5fa" stroke-width="0.5"/><rect x="504.8" y="359.5" width="2.5" height="4.5" fill="#93c5fd" stroke="#60a5fa" stroke-width="0.5"/><rect x="509.3" y="346.2" width="2.5" height="17.8" fill="#93c5fd" stroke="#60a5fa" stroke-width="0.5"/><rect x="513.8" y="319.4" width="2.5" height="44.6" fill="#93c5fd" stroke="#60a5fa" stroke-width="0.5"/><rect x="518.3" y="328.3" width="2.5" height="35.7" fill="#93c5fd" stroke="#60a5fa" stroke-width="0.5"/><rect x="522.8" y="355.1" width="2.5" height="8.9" fill="#93c5fd" stroke="#60a5fa" stroke-width="0.5"/><rect x="527.3" y="355.1" width="2.5" height="8.9" fill="#93c5fd" stroke="#60a5fa" stroke-width="0.5"/><rect x="531.8" y="355.1" width="2.5" height="8.9" fill="#93c5fd" stroke="#60a5fa" stroke-width="0.5"/><rect x="536.3" y="355.1" width="2.5" height="8.9" fill="#93c5fd" stroke="#60a5fa" stroke-width="0.5"/><rect x="540.8" y="350.6" width="2.5" height="13.4" fill="#93c5fd" stroke="#60a5fa" stroke-width="0.5"/><rect x="545.3" y="341.7" width="2.5" height="22.3" fill="#93c5fd" stroke="#60a5fa" stroke-width="0.5"/><rect x="549.8" y="359.5" width="2.5" height="4.5" fill="#93c5fd" stroke="#60a5fa" stroke-width="0.5"/><rect x="554.3" y="323.9" width="2.5" height="40.1" fill="#93c5fd" stroke="#60a5fa" stroke-width="0.5"/><rect x="558.9" y="355.1" width="2.5" height="8.9" fill="#93c5fd" stroke="#60a5fa" stroke-width="0.5"/><rect x="563.4" y="346.2" width="2.5" height="17.8" fill="#93c5fd" stroke="#60a5fa" stroke-width="0.5"/><rect x="567.9" y="355.1" width="2.5" height="8.9" fill="#93c5fd" stroke="#60a5fa" stroke-width="0.5"/><rect x="572.4" y="359.5" width="2.5" height="4.5" fill="#93c5fd" stroke="#60a5fa" stroke-width="0.5"/><rect x="576.9" y="359.5" width="2.5" height="4.5" fill="#93c5fd" stroke="#60a5fa" stroke-width="0.5"/><rect x="581.4" y="355.1" width="2.5" height="8.9" fill="#93c5fd" stroke="#60a5fa" stroke-width="0.5"/><rect x="585.9" y="350.6" width="2.5" height="13.4" fill="#93c5fd" stroke="#60a5fa" stroke-width="0.5"/><rect x="590.4" y="355.1" width="2.5" height="8.9" fill="#93c5fd" stroke="#60a5fa" stroke-width="0.5"/><rect x="594.9" y="315.0" width="2.5" height="49.0" fill="#93c5fd" stroke="#60a5fa" stroke-width="0.5"/><rect x="599.4" y="319.4" width="2.5" height="44.6" fill="#93c5fd" stroke="#60a5fa" stroke-width="0.5"/><rect x="603.9" y="346.2" width="2.5" height="17.8" fill="#93c5fd" stroke="#60a5fa" stroke-width="0.5"/><rect x="608.4" y="359.5" width="2.5" height="4.5" fill="#93c5fd" stroke="#60a5fa" stroke-width="0.5"/><rect x="613.0" y="328.3" width="2.5" height="35.7" fill="#93c5fd" stroke="#60a5fa" stroke-width="0.5"/><rect x="617.5" y="328.3" width="2.5" height="35.7" fill="#93c5fd" stroke="#60a5fa" stroke-width="0.5"/><rect x="622.0" y="257.0" width="2.5" height="107.0" fill="#93c5fd" stroke="#60a5fa" stroke-width="0.5"/><rect x="626.5" y="355.1" width="2.5" height="8.9" fill="#93c5fd" stroke="#60a5fa" stroke-width="0.5"/><rect x="631.0" y="341.7" width="2.5" height="22.3" fill="#93c5fd" stroke="#60a5fa" stroke-width="0.5"/><rect x="635.5" y="350.6" width="2.5" height="13.4" fill="#93c5fd" stroke="#60a5fa" stroke-width="0.5"/><rect x="640.0" y="306.1" width="2.5" height="57.9" fill="#93c5fd" stroke="#60a5fa" stroke-width="0.5"/><rect x="644.5" y="337.3" width="2.5" height="26.7" fill="#93c5fd" stroke="#60a5fa" stroke-width="0.5"/><rect x="649.0" y="301.6" width="2.5" height="62.4" fill="#93c5fd" stroke="#60a5fa" stroke-width="0.5"/><rect x="653.5" y="319.4" width="2.5" height="44.6" fill="#93c5fd" stroke="#60a5fa" stroke-width="0.5"/><rect x="658.0" y="355.1" width="2.5" height="8.9" fill="#93c5fd" stroke="#60a5fa" stroke-width="0.5"/><rect x="662.5" y="359.5" width="2.5" height="4.5" fill="#93c5fd" stroke="#60a5fa" stroke-width="0.5"/><rect x="667.0" y="341.7" width="2.5" height="22.3" fill="#93c5fd" stroke="#60a5fa" stroke-width="0.5"/><rect x="671.6" y="306.1" width="2.5" height="57.9" fill="#93c5fd" stroke="#60a5fa" stroke-width="0.5"/><rect x="676.1" y="346.2" width="2.5" height="17.8" fill="#93c5fd" stroke="#60a5fa" stroke-width="0.5"/><rect x="680.6" y="257.0" width="2.5" height="107.0" fill="#93c5fd" stroke="#60a5fa" stroke-width="0.5"/><rect x="685.1" y="341.7" width="2.5" height="22.3" fill="#93c5fd" stroke="#60a5fa" stroke-width="0.5"/><rect x="689.6" y="52.0" width="2.5" height="312.0" fill="#93c5fd" stroke="#60a5fa" stroke-width="0.5"/><rect x="694.1" y="288.2" width="2.5" height="75.8" fill="#93c5fd" stroke="#60a5fa" stroke-width="0.5"/><rect x="698.6" y="350.6" width="2.5" height="13.4" fill="#93c5fd" stroke="#60a5fa" stroke-width="0.5"/><rect x="703.1" y="355.1" width="2.5" height="8.9" fill="#93c5fd" stroke="#60a5fa" stroke-width="0.5"/><rect x="707.6" y="181.3" width="2.5" height="182.7" fill="#93c5fd" stroke="#60a5fa" stroke-width="0.5"/><rect x="712.1" y="337.3" width="2.5" height="26.7" fill="#93c5fd" stroke="#60a5fa" stroke-width="0.5"/><rect x="716.6" y="350.6" width="2.5" height="13.4" fill="#93c5fd" stroke="#60a5fa" stroke-width="0.5"/><rect x="721.1" y="355.1" width="2.5" height="8.9" fill="#93c5fd" stroke="#60a5fa" stroke-width="0.5"/><rect x="725.7" y="346.2" width="2.5" height="17.8" fill="#93c5fd" stroke="#60a5fa" stroke-width="0.5"/><rect x="730.2" y="328.3" width="2.5" height="35.7" fill="#93c5fd" stroke="#60a5fa" stroke-width="0.5"/><rect x="734.7" y="359.5" width="2.5" height="4.5" fill="#93c5fd" stroke="#60a5fa" stroke-width="0.5"/><rect x="739.2" y="359.5" width="2.5" height="4.5" fill="#93c5fd" stroke="#60a5fa" stroke-width="0.5"/><rect x="743.7" y="346.2" width="2.5" height="17.8" fill="#93c5fd" stroke="#60a5fa" stroke-width="0.5"/><rect x="748.2" y="341.7" width="2.5" height="22.3" fill="#93c5fd" stroke="#60a5fa" stroke-width="0.5"/><rect x="752.7" y="337.3" width="2.5" height="26.7" fill="#93c5fd" stroke="#60a5fa" stroke-width="0.5"/><rect x="757.2" y="337.3" width="2.5" height="26.7" fill="#93c5fd" stroke="#60a5fa" stroke-width="0.5"/><rect x="761.7" y="359.5" width="2.5" height="4.5" fill="#93c5fd" stroke="#60a5fa" stroke-width="0.5"/><rect x="766.2" y="341.7" width="2.5" height="22.3" fill="#93c5fd" stroke="#60a5fa" stroke-width="0.5"/><rect x="770.7" y="332.8" width="2.5" height="31.2" fill="#93c5fd" stroke="#60a5fa" stroke-width="0.5"/><rect x="775.2" y="332.8" width="2.5" height="31.2" fill="#93c5fd" stroke="#60a5fa" stroke-width="0.5"/><rect x="779.8" y="328.3" width="2.5" height="35.7" fill="#93c5fd" stroke="#60a5fa" stroke-width="0.5"/><rect x="784.3" y="323.9" width="2.5" height="40.1" fill="#93c5fd" stroke="#60a5fa" stroke-width="0.5"/><rect x="788.8" y="332.8" width="2.5" height="31.2" fill="#93c5fd" stroke="#60a5fa" stroke-width="0.5"/><rect x="793.3" y="346.2" width="2.5" height="17.8" fill="#93c5fd" stroke="#60a5fa" stroke-width="0.5"/><rect x="797.8" y="350.6" width="2.5" height="13.4" fill="#93c5fd" stroke="#60a5fa" stroke-width="0.5"/><rect x="802.3" y="350.6" width="2.5" height="13.4" fill="#93c5fd" stroke="#60a5fa" stroke-width="0.5"/><rect x="806.8" y="332.8" width="2.5" height="31.2" fill="#93c5fd" stroke="#60a5fa" stroke-width="0.5"/><rect x="811.3" y="359.5" width="2.5" height="4.5" fill="#93c5fd" stroke="#60a5fa" stroke-width="0.5"/><rect x="815.8" y="350.6" width="2.5" height="13.4" fill="#93c5fd" stroke="#60a5fa" stroke-width="0.5"/><rect x="820.3" y="355.1" width="2.5" height="8.9" fill="#93c5fd" stroke="#60a5fa" stroke-width="0.5"/><rect x="824.8" y="355.1" width="2.5" height="8.9" fill="#93c5fd" stroke="#60a5fa" stroke-width="0.5"/><rect x="829.3" y="355.1" width="2.5" height="8.9" fill="#93c5fd" stroke="#60a5fa" stroke-width="0.5"/><rect x="833.8" y="355.1" width="2.5" height="8.9" fill="#93c5fd" stroke="#60a5fa" stroke-width="0.5"/><rect x="838.4" y="359.5" width="2.5" height="4.5" fill="#93c5fd" stroke="#60a5fa" stroke-width="0.5"/><rect x="842.9" y="359.5" width="2.5" height="4.5" fill="#93c5fd" stroke="#60a5fa" stroke-width="0.5"/><rect x="847.4" y="337.3" width="2.5" height="26.7" fill="#93c5fd" stroke="#60a5fa" stroke-width="0.5"/><rect x="851.9" y="355.1" width="2.5" height="8.9" fill="#93c5fd" stroke="#60a5fa" stroke-width="0.5"/><rect x="856.4" y="328.3" width="2.5" height="35.7" fill="#93c5fd" stroke="#60a5fa" stroke-width="0.5"/><rect x="860.9" y="350.6" width="2.5" height="13.4" fill="#93c5fd" stroke="#60a5fa" stroke-width="0.5"/><rect x="865.4" y="328.3" width="2.5" height="35.7" fill="#93c5fd" stroke="#60a5fa" stroke-width="0.5"/><rect x="869.9" y="332.8" width="2.5" height="31.2" fill="#93c5fd" stroke="#60a5fa" stroke-width="0.5"/><rect x="874.4" y="328.3" width="2.5" height="35.7" fill="#93c5fd" stroke="#60a5fa" stroke-width="0.5"/><rect x="878.9" y="341.7" width="2.5" height="22.3" fill="#93c5fd" stroke="#60a5fa" stroke-width="0.5"/><rect x="883.4" y="355.1" width="2.5" height="8.9" fill="#93c5fd" stroke="#60a5fa" stroke-width="0.5"/><rect x="887.9" y="355.1" width="2.5" height="8.9" fill="#93c5fd" stroke="#60a5fa" stroke-width="0.5"/><rect x="892.5" y="319.4" width="2.5" height="44.6" fill="#93c5fd" stroke="#60a5fa" stroke-width="0.5"/><rect x="897.0" y="315.0" width="2.5" height="49.0" fill="#93c5fd" stroke="#60a5fa" stroke-width="0.5"/><rect x="901.5" y="328.3" width="2.5" height="35.7" fill="#93c5fd" stroke="#60a5fa" stroke-width="0.5"/><rect x="906.0" y="323.9" width="2.5" height="40.1" fill="#93c5fd" stroke="#60a5fa" stroke-width="0.5"/><rect x="910.5" y="341.7" width="2.5" height="22.3" fill="#93c5fd" stroke="#60a5fa" stroke-width="0.5"/><rect x="915.0" y="359.5" width="2.5" height="4.5" fill="#93c5fd" stroke="#60a5fa" stroke-width="0.5"/><rect x="919.5" y="350.6" width="2.5" height="13.4" fill="#93c5fd" stroke="#60a5fa" stroke-width="0.5"/><rect x="924.0" y="359.5" width="2.5" height="4.5" fill="#93c5fd" stroke="#60a5fa" stroke-width="0.5"/><rect x="928.5" y="346.2" width="2.5" height="17.8" fill="#93c5fd" stroke="#60a5fa" stroke-width="0.5"/><rect x="933.0" y="346.2" width="2.5" height="17.8" fill="#93c5fd" stroke="#60a5fa" stroke-width="0.5"/><rect x="937.5" y="341.7" width="2.5" height="22.3" fill="#93c5fd" stroke="#60a5fa" stroke-width="0.5"/><rect x="942.0" y="359.5" width="2.5" height="4.5" fill="#93c5fd" stroke="#60a5fa" stroke-width="0.5"/><rect x="946.5" y="359.5" width="2.5" height="4.5" fill="#93c5fd" stroke="#60a5fa" stroke-width="0.5"/><rect x="951.1" y="315.0" width="2.5" height="49.0" fill="#93c5fd" stroke="#60a5fa" stroke-width="0.5"/><rect x="955.6" y="230.3" width="2.5" height="133.7" fill="#93c5fd" stroke="#60a5fa" stroke-width="0.5"/><rect x="960.1" y="297.1" width="2.5" height="66.9" fill="#93c5fd" stroke="#60a5fa" stroke-width="0.5"/><rect x="964.6" y="359.5" width="2.5" height="4.5" fill="#93c5fd" stroke="#60a5fa" stroke-width="0.5"/><rect x="969.1" y="319.4" width="2.5" height="44.6" fill="#93c5fd" stroke="#60a5fa" stroke-width="0.5"/><rect x="973.6" y="355.1" width="2.5" height="8.9" fill="#93c5fd" stroke="#60a5fa" stroke-width="0.5"/><rect x="978.1" y="341.7" width="2.5" height="22.3" fill="#93c5fd" stroke="#60a5fa" stroke-width="0.5"/><rect x="982.6" y="315.0" width="2.5" height="49.0" fill="#93c5fd" stroke="#60a5fa" stroke-width="0.5"/><rect x="987.1" y="350.6" width="2.5" height="13.4" fill="#93c5fd" stroke="#60a5fa" stroke-width="0.5"/><rect x="991.6" y="279.3" width="2.5" height="84.7" fill="#93c5fd" stroke="#60a5fa" stroke-width="0.5"/><rect x="996.1" y="132.2" width="2.5" height="231.8" fill="#93c5fd" stroke="#60a5fa" stroke-width="0.5"/><rect x="1000.6" y="359.5" width="2.5" height="4.5" fill="#93c5fd" stroke="#60a5fa" stroke-width="0.5"/><rect x="1005.2" y="212.5" width="2.5" height="151.5" fill="#93c5fd" stroke="#60a5fa" stroke-width="0.5"/><rect x="1009.7" y="355.1" width="2.5" height="8.9" fill="#93c5fd" stroke="#60a5fa" stroke-width="0.5"/><rect x="1014.2" y="252.6" width="2.5" height="111.4" fill="#93c5fd" stroke="#60a5fa" stroke-width="0.5"/><rect x="1018.7" y="359.5" width="2.5" height="4.5" fill="#93c5fd" stroke="#60a5fa" stroke-width="0.5"/><rect x="1023.2" y="337.3" width="2.5" height="26.7" fill="#93c5fd" stroke="#60a5fa" stroke-width="0.5"/><rect x="1027.7" y="355.1" width="2.5" height="8.9" fill="#93c5fd" stroke="#60a5fa" stroke-width="0.5"/><rect x="1032.2" y="306.1" width="2.5" height="57.9" fill="#93c5fd" stroke="#60a5fa" stroke-width="0.5"/><rect x="1036.7" y="332.8" width="2.5" height="31.2" fill="#93c5fd" stroke="#60a5fa" stroke-width="0.5"/><rect x="1041.2" y="355.1" width="2.5" height="8.9" fill="#93c5fd" stroke="#60a5fa" stroke-width="0.5"/><rect x="1045.7" y="252.6" width="2.5" height="111.4" fill="#93c5fd" stroke="#60a5fa" stroke-width="0.5"/><rect x="1050.2" y="346.2" width="2.5" height="17.8" fill="#93c5fd" stroke="#60a5fa" stroke-width="0.5"/><rect x="1054.7" y="328.3" width="2.5" height="35.7" fill="#93c5fd" stroke="#60a5fa" stroke-width="0.5"/><rect x="1059.2" y="350.6" width="2.5" height="13.4" fill="#93c5fd" stroke="#60a5fa" stroke-width="0.5"/><rect x="1063.8" y="319.4" width="2.5" height="44.6" fill="#93c5fd" stroke="#60a5fa" stroke-width="0.5"/><rect x="1068.3" y="359.5" width="2.5" height="4.5" fill="#93c5fd" stroke="#60a5fa" stroke-width="0.5"/><rect x="1072.8" y="292.7" width="2.5" height="71.3" fill="#93c5fd" stroke="#60a5fa" stroke-width="0.5"/><rect x="1077.3" y="323.9" width="2.5" height="40.1" fill="#93c5fd" stroke="#60a5fa" stroke-width="0.5"/><rect x="1081.8" y="350.6" width="2.5" height="13.4" fill="#93c5fd" stroke="#60a5fa" stroke-width="0.5"/><rect x="1086.3" y="301.6" width="2.5" height="62.4" fill="#93c5fd" stroke="#60a5fa" stroke-width="0.5"/><rect x="1090.8" y="355.1" width="2.5" height="8.9" fill="#93c5fd" stroke="#60a5fa" stroke-width="0.5"/><rect x="1095.3" y="359.5" width="2.5" height="4.5" fill="#93c5fd" stroke="#60a5fa" stroke-width="0.5"/><rect x="1099.8" y="355.1" width="2.5" height="8.9" fill="#93c5fd" stroke="#60a5fa" stroke-width="0.5"/><rect x="1104.3" y="350.6" width="2.5" height="13.4" fill="#93c5fd" stroke="#60a5fa" stroke-width="0.5"/><rect x="1108.8" y="310.5" width="2.5" height="53.5" fill="#93c5fd" stroke="#60a5fa" stroke-width="0.5"/><rect x="1113.3" y="341.7" width="2.5" height="22.3" fill="#93c5fd" stroke="#60a5fa" stroke-width="0.5"/><rect x="1117.9" y="355.1" width="2.5" height="8.9" fill="#93c5fd" stroke="#60a5fa" stroke-width="0.5"/><rect x="1122.4" y="359.5" width="2.5" height="4.5" fill="#93c5fd" stroke="#60a5fa" stroke-width="0.5"/><rect x="1126.9" y="350.6" width="2.5" height="13.4" fill="#93c5fd" stroke="#60a5fa" stroke-width="0.5"/><rect x="1131.4" y="355.1" width="2.5" height="8.9" fill="#93c5fd" stroke="#60a5fa" stroke-width="0.5"/><rect x="1135.9" y="265.9" width="2.5" height="98.1" fill="#93c5fd" stroke="#60a5fa" stroke-width="0.5"/><rect x="1140.4" y="323.9" width="2.5" height="40.1" fill="#93c5fd" stroke="#60a5fa" stroke-width="0.5"/><rect x="1144.9" y="332.8" width="2.5" height="31.2" fill="#93c5fd" stroke="#60a5fa" stroke-width="0.5"/><rect x="1149.4" y="359.5" width="2.5" height="4.5" fill="#93c5fd" stroke="#60a5fa" stroke-width="0.5"/><rect x="1153.9" y="328.3" width="2.5" height="35.7" fill="#93c5fd" stroke="#60a5fa" stroke-width="0.5"/><rect x="1158.4" y="350.6" width="2.5" height="13.4" fill="#93c5fd" stroke="#60a5fa" stroke-width="0.5"/><rect x="1162.9" y="301.6" width="2.5" height="62.4" fill="#93c5fd" stroke="#60a5fa" stroke-width="0.5"/><rect x="1167.4" y="212.5" width="2.5" height="151.5" fill="#93c5fd" stroke="#60a5fa" stroke-width="0.5"/><rect x="1172.0" y="346.2" width="2.5" height="17.8" fill="#93c5fd" stroke="#60a5fa" stroke-width="0.5"/><rect x="1176.5" y="279.3" width="2.5" height="84.7" fill="#93c5fd" stroke="#60a5fa" stroke-width="0.5"/><rect x="1181.0" y="359.5" width="2.5" height="4.5" fill="#93c5fd" stroke="#60a5fa" stroke-width="0.5"/><rect x="1185.5" y="190.2" width="2.5" height="173.8" fill="#93c5fd" stroke="#60a5fa" stroke-width="0.5"/><rect x="1190.0" y="310.5" width="2.5" height="53.5" fill="#93c5fd" stroke="#60a5fa" stroke-width="0.5"/><rect x="1194.5" y="359.5" width="2.5" height="4.5" fill="#93c5fd" stroke="#60a5fa" stroke-width="0.5"/><polyline fill="none" stroke="#ef4444" stroke-width="2" points="82.3,363.1 86.8,362.9 91.3,362.6 95.8,362.2 100.3,362.0 104.8,361.3 109.3,361.0 113.8,360.8 118.3,360.6 122.8,360.4 127.3,360.1 131.8,359.9 136.4,359.7 140.9,359.2 145.4,358.3 149.9,358.1 154.4,357.9 158.9,357.2 163.4,356.0 167.9,353.1 172.4,352.6 176.9,352.0 181.4,351.7 185.9,351.0 190.4,350.8 195.0,349.7 199.5,349.5 204.0,349.2 208.5,349.0 213.0,348.8 217.5,348.5 222.0,348.3 226.5,348.1 231.0,347.9 235.5,347.6 240.0,347.4 244.5,347.2 249.1,347.0 253.6,346.7 258.1,346.5 262.6,345.8 267.1,345.6 271.6,345.4 276.1,342.9 280.6,342.6 285.1,341.3 289.6,339.5 294.1,339.2 298.6,338.8 303.1,338.1 307.7,337.6 312.2,337.2 316.7,336.5 321.2,336.3 325.7,336.0 330.2,335.8 334.7,335.6 339.2,334.9 343.7,334.7 348.2,332.9 352.7,332.6 357.2,332.4 361.8,332.2 366.3,331.5 370.8,331.3 375.3,331.1 379.8,330.6 384.3,329.9 388.8,329.7 393.3,329.0 397.8,328.6 402.3,327.9 406.8,327.6 411.3,325.4 415.9,324.5 420.4,323.6 424.9,323.3 429.4,323.1 433.9,322.9 438.4,322.4 442.9,322.0 447.4,321.3 451.9,320.8 456.4,320.1 460.9,319.9 465.4,319.5 469.9,319.2 474.5,317.9 479.0,317.6 483.5,317.4 488.0,317.2 492.5,317.0 497.0,316.7 501.5,315.4 506.0,315.1 510.5,314.2 515.0,312.0 519.5,310.1 524.0,309.7 528.6,309.2 533.1,308.8 537.6,308.3 542.1,307.6 546.6,306.5 551.1,306.3 555.6,304.2 560.1,303.8 564.6,302.9 569.1,302.4 573.6,302.2 578.1,302.0 582.6,301.5 587.2,300.8 591.7,300.4 596.2,297.9 600.7,295.6 605.2,294.7 609.7,294.5 614.2,292.6 618.7,290.8 623.2,285.4 627.7,284.9 632.2,283.8 636.7,283.1 641.3,280.1 645.8,278.8 650.3,275.6 654.8,273.3 659.3,272.9 663.8,272.6 668.3,271.5 672.8,268.6 677.3,267.7 681.8,262.2 686.3,261.1 690.8,245.2 695.4,241.3 699.9,240.6 704.4,240.2 708.9,230.8 713.4,229.5 717.9,228.8 722.4,228.3 726.9,227.4 731.4,225.6 735.9,225.4 740.4,225.2 744.9,224.2 749.4,223.1 754.0,221.7 758.5,220.4 763.0,220.2 767.5,219.0 772.0,217.4 776.5,215.8 781.0,214.0 785.5,212.0 790.0,210.4 794.5,209.5 799.0,208.8 803.5,208.1 808.1,206.5 812.6,206.3 817.1,205.6 821.6,205.2 826.1,204.7 830.6,204.3 835.1,203.8 839.6,203.6 844.1,203.3 848.6,202.0 853.1,201.5 857.6,199.7 862.1,199.0 866.7,197.2 871.2,195.6 875.7,193.8 880.2,192.7 884.7,192.2 889.2,191.8 893.7,189.5 898.2,187.0 902.7,185.2 907.2,183.1 911.7,182.0 916.2,181.8 920.8,181.1 925.3,180.8 929.8,179.9 934.3,179.0 938.8,177.9 943.3,177.7 947.8,177.4 952.3,174.9 956.8,168.1 961.3,164.7 965.8,164.5 970.3,162.2 974.9,161.8 979.4,160.6 983.9,158.1 988.4,157.4 992.9,153.1 997.4,141.3 1001.9,141.1 1006.4,133.4 1010.9,132.9 1015.4,127.2 1019.9,127.0 1024.4,125.6 1028.9,125.2 1033.5,122.2 1038.0,120.6 1042.5,120.2 1047.0,114.5 1051.5,113.6 1056.0,111.8 1060.5,111.1 1065.0,108.8 1069.5,108.6 1074.0,104.9 1078.5,102.9 1083.0,102.2 1087.6,99.0 1092.1,98.6 1096.6,98.4 1101.1,97.9 1105.6,97.2 1110.1,94.5 1114.6,93.4 1119.1,92.9 1123.6,92.7 1128.1,92.0 1132.6,91.5 1137.1,86.5 1141.6,84.5 1146.2,82.9 1150.7,82.7 1155.2,80.9 1159.7,80.2 1164.2,77.0 1168.7,69.3 1173.2,68.4 1177.7,64.0 1182.2,63.8 1186.7,55.0 1191.2,52.2 1195.7,52.0"/><line x1="82.3" y1="364.0" x2="82.3" y2="370.0" stroke="#111827" stroke-width="1"/><text x="84.3" y="386.0" font-size="11" text-anchor="end" transform="rotate(-35 84.3 386.0)" font-family="sans-serif" fill="#374151">2022-10-13</text><line x1="240.0" y1="364.0" x2="240.0" y2="370.0" stroke="#111827" stroke-width="1"/><text x="242.0" y="386.0" font-size="11" text-anchor="end" transform="rotate(-35 242.0 386.0)" font-family="sans-serif" fill="#374151">2025-03-19</text><line x1="402.3" y1="364.0" x2="402.3" y2="370.0" stroke="#111827" stroke-width="1"/><text x="404.3" y="386.0" font-size="11" text-anchor="end" transform="rotate(-35 404.3 386.0)" font-family="sans-serif" fill="#374151">2025-07-16</text><line x1="560.1" y1="364.0" x2="560.1" y2="370.0" stroke="#111827" stroke-width="1"/><text x="562.1" y="386.0" font-size="11" text-anchor="end" transform="rotate(-35 562.1 386.0)" font-family="sans-serif" fill="#374151">2025-09-23</text><line x1="717.9" y1="364.0" x2="717.9" y2="370.0" stroke="#111827" stroke-width="1"/><text x="719.9" y="386.0" font-size="11" text-anchor="end" transform="rotate(-35 719.9 386.0)" font-family="sans-serif" fill="#374151">2025-11-13</text><line x1="875.7" y1="364.0" x2="875.7" y2="370.0" stroke="#111827" stroke-width="1"/><text x="877.7" y="386.0" font-size="11" text-anchor="end" transform="rotate(-35 877.7 386.0)" font-family="sans-serif" fill="#374151">2025-12-31</text><line x1="1038.0" y1="364.0" x2="1038.0" y2="370.0" stroke="#111827" stroke-width="1"/><text x="1040.0" y="386.0" font-size="11" text-anchor="end" transform="rotate(-35 1040.0 386.0)" font-family="sans-serif" fill="#374151">2026-02-10</text><line x1="1195.7" y1="364.0" x2="1195.7" y2="370.0" stroke="#111827" stroke-width="1"/><text x="1197.7" y="386.0" font-size="11" text-anchor="end" transform="rotate(-35 1197.7 386.0)" font-family="sans-serif" fill="#374151">2026-03-30</text><text x="26" y="208.0" font-size="12" transform="rotate(-90 26 208.0)" text-anchor="middle" font-family="sans-serif" fill="#1f2937">구간별 수</text><text x="1256.0" y="208.0" font-size="12" transform="rotate(90 1256.0 208.0)" text-anchor="middle" font-family="sans-serif" fill="#1f2937">누적</text><text x="639.0" y="442.0" font-size="13" text-anchor="middle" font-family="sans-serif" fill="#111827">일</text></svg>