<svg xmlns="http://www.w3.org/2000/svg" width="1280" height="460" viewBox="0 0 1280 460"><rect x="0" y="0" width="100%" height="100%" fill="#ffffff"/><text x="640.0" y="28" font-size="20" text-anchor="middle" font-family="sans-serif" fill="#111827">시리즈 / 최근 반영 시점 / 시간별</text><line x1="80.0" y1="52.0" x2="1198.0" y2="52.0" stroke="#e5e7eb" stroke-width="1"/><text x="72.0" y="56.0" font-size="11" text-anchor="end" font-family="sans-serif" fill="#374151">1,086</text><text x="1206.0" y="56.0" font-size="11" text-anchor="start" font-family="sans-serif" fill="#374151">1,447</text><line x1="80.0" y1="114.4" x2="1198.0" y2="114.4" stroke="#e5e7eb" stroke-width="1"/><text x="72.0" y="118.4" font-size="11" text-anchor="end" font-family="sans-serif" fill="#374151">869</text><text x="1206.0" y="118.4" font-size="11" text-anchor="start" font-family="sans-serif" fill="#374151">1,158</text><line x1="80.0" y1="176.8" x2="1198.0" y2="176.8" stroke="#e5e7eb" stroke-width="1"/><text x="72.0" y="180.8" font-size="11" text-anchor="end" font-family="sans-serif" fill="#374151">652</text><text x="1206.0" y="180.8" font-size="11" text-anchor="start" font-family="sans-serif" fill="#374151">868</text><line x1="80.0" y1="239.2" x2="1198.0" y2="239.2" stroke="#e5e7eb" stroke-width="1"/><text x="72.0" y="243.2" font-size="11" text-anchor="end" font-family="sans-serif" fill="#374151">434</text><text x="1206.0" y="243.2" font-size="11" text-anchor="start" font-family="sans-serif" fill="#374151">579</text><line x1="80.0" y1="301.6" x2="1198.0" y2="301.6" stroke="#e5e7eb" stroke-width="1"/><text x="72.0" y="305.6" font-size="11" text-anchor="end" font-family="sans-serif" fill="#374151">217</text><text x="1206.0" y="305.6" font-size="11" text-anchor="start" font-family="sans-serif" fill="#374151">289</text><line x1="80.0" y1="364.0" x2="1198.0" y2="364.0" stroke="#e5e7eb" stroke-width="1"/><text x="72.0" y="368.0" font-size="11" text-anchor="end" font-family="sans-serif" fill="#374151">0</text><text x="1206.0" y="368.0" font-size="11" text-anchor="start" font-family="sans-serif" fill="#374151">0</text><line x1="80.0" y1="364.0" x2="1198.0" y2="364.0" stroke="#111827" stroke-width="1.2"/><line x1="80.0" y1="52.0" x2="80.0" y2="364.0" stroke="#111827" stroke-width="1.2"/><line x1="1198.0" y1="52.0" x2="1198.0" y2="364.0" stroke="#111827" stroke-width="1.2"/><rect x="81.0" y="363.7" width="34.1" height="0.3" fill="#93c5fd" stroke="#60a5fa" stroke-width="0.5"/><rect x="117.1" y="363.1" width="34.1" height="0.9" fill="#93c5fd" stroke="#60a5fa" stroke-width="0.5"/><rect x="153.1" y="361.4" width="34.1" height="2.6" fill="#93c5fd" stroke="#60a5fa" stroke-width="0.5"/><rect x="189.2" y="363.7" width="34.1" height="0.3" fill="#93c5fd" stroke="#60a5fa" stroke-width="0.5"/><rect x="225.3" y="363.7" width="34.1" height="0.3" fill="#93c5fd" stroke="#60a5fa" stroke-width="0.5"/><rect x="261.3" y="363.7" width="34.1" height="0.3" fill="#93c5fd" stroke="#60a5fa" stroke-width="0.5"/><rect x="297.4" y="363.4" width="34.1" height="0.6" fill="#93c5fd" stroke="#60a5fa" stroke-width="0.5"/><rect x="333.5" y="363.4" width="34.1" height="0.6" fill="#93c5fd" stroke="#60a5fa" stroke-width="0.5"/><rect x="369.5" y="363.7" width="34.1" height="0.3" fill="#93c5fd" stroke="#60a5fa" stroke-width="0.5"/><rect x="405.6" y="363.7" width="34.1" height="0.3" fill="#93c5fd" stroke="#60a5fa" stroke-width="0.5"/><rect x="441.6" y="363.7" width="34.1" height="0.3" fill="#93c5fd" stroke="#60a5fa" stroke-width="0.5"/><rect x="477.7" y="363.7" width="34.1" height="0.3" fill="#93c5fd" stroke="#60a5fa" stroke-width="0.5"/><rect x="513.8" y="363.7" width="34.1" height="0.3" fill="#93c5fd" stroke="#60a5fa" stroke-width="0.5"/><rect x="549.8" y="363.7" width="34.1" height="0.3" fill="#93c5fd" stroke="#60a5fa" stroke-width="0.5"/><rect x="585.9" y="363.4" width="34.1" height="0.6" fill="#93c5fd" stroke="#60a5fa" stroke-width="0.5"/><rect x="622.0" y="362.9" width="34.1" height="1.1" fill="#93c5fd" stroke="#60a5fa" stroke-width="0.5"/><rect x="658.0" y="362.9" width="34.1" height="1.1" fill="#93c5fd" stroke="#60a5fa" stroke-width="0.5"/><rect x="694.1" y="362.3" width="34.1" height="1.7" fill="#93c5fd" stroke="#60a5fa" stroke-width="0.5"/><rect x="730.2" y="52.0" width="34.1" height="312.0" fill="#93c5fd" stroke="#60a5fa" stroke-width="0.5"/><rect x="766.2" y="349.6" width="34.1" height="14.4" fill="#93c5fd" stroke="#60a5fa" stroke-width="0.5"/><rect x="802.3" y="349.6" width="34.1" height="14.4" fill="#93c5fd" stroke="#60a5fa" stroke-width="0.5"/><rect x="838.4" y="349.6" width="34.1" height="14.4" fill="#93c5fd" stroke="#60a5fa" stroke-width="0.5"/><rect x="874.4" y="363.4" width="34.1" height="0.6" fill="#93c5fd" stroke="#60a5fa" stroke-width="0.5"/><rect x="910.5" y="349.6" width="34.1" height="14.4" fill="#93c5fd" stroke="#60a5fa" stroke-width="0.5"/><rect x="946.5" y="349.6" width="34.1" height="14.4" fill="#93c5fd" stroke="#60a5fa" stroke-width="0.5"/><rect x="982.6" y="363.4" width="34.1" height="0.6" fill="#93c5fd" stroke="#60a5fa" stroke-width="0.5"/><rect x="1018.7" y="361.1" width="34.1" height="2.9" fill="#93c5fd" stroke="#60a5fa" stroke-width="0.5"/><rect x="1054.7" y="363.7" width="34.1" height="0.3" fill="#93c5fd" stroke="#60a5fa" stroke-width="0.5"/><rect x="1090.8" y="363.1" width="34.1" height="0.9" fill="#93c5fd" stroke="#60a5fa" stroke-width="0.5"/><rect x="1126.9" y="363.7" width="34.1" height="0.3" fill="#93c5fd" stroke="#60a5fa" stroke-width="0.5"/><rect x="1162.9" y="349.6" width="34.1" height="14.4" fill="#93c5fd" stroke="#60a5fa" stroke-width="0.5"/><polyline fill="none" stroke="#ef4444" stroke-width="2" points="98.0,363.8 134.1,363.1 170.2,361.2 206.2,361.0 242.3,360.8 278.4,360.6 314.4,360.1 350.5,359.7 386.5,359.5 422.6,359.3 458.7,359.0 494.7,358.8 530.8,358.6 566.9,358.4 602.9,358.0 639.0,357.1 675.1,356.2 711.1,354.9 747.2,120.8 783.3,110.0 819.3,99.2 855.4,88.4 891.5,88.0 927.5,77.2 963.6,66.4 999.6,66.0 1035.7,63.9 1071.8,63.6 1107.8,63.0 1143.9,62.8 1180.0,52.0"/><line x1="98.0" y1="364.0" x2="98.0" y2="370.0" stroke="#111827" stroke-width="1"/><text x="100.0" y="386.0" font-size="11" text-anchor="end" transform="rotate(-35 100.0 386.0)" font-family="sans-serif" fill="#374151">2026-04-16 23:00</text><line x1="242.3" y1="364.0" x2="242.3" y2="370.0" stroke="#111827" stroke-width="1"/><text x="244.3" y="386.0" font-size="11" text-anchor="end" transform="rotate(-35 244.3 386.0)" font-family="sans-serif" fill="#374151">2026-04-19 18:00</text><line x1="422.6" y1="364.0" x2="422.6" y2="370.0" stroke="#111827" stroke-width="1"/><text x="424.6" y="386.0" font-size="11" text-anchor="end" transform="rotate(-35 424.6 386.0)" font-family="sans-serif" fill="#374151">2026-04-21 02:00</text><line x1="566.9" y1="364.0" x2="566.9" y2="370.0" stroke="#111827" stroke-width="1"/><text x="568.9" y="386.0" font-size="11" text-anchor="end" transform="rotate(-35 568.9 386.0)" font-family="sans-serif" fill="#374151">2026-04-21 23:00</text><line x1="711.1" y1="364.0" x2="711.1" y2="370.0" stroke="#111827" stroke-width="1"/><text x="713.1" y="386.0" font-size="11" text-anchor="end" transform="rotate(-35 713.1 386.0)" font-family="sans-serif" fill="#374151">2026-04-22 11:00</text><line x1="855.4" y1="364.0" x2="855.4" y2="370.0" stroke="#111827" stroke-width="1"/><text x="857.4" y="386.0" font-size="11" text-anchor="end" transform="rotate(-35 857.4 386.0)" font-family="sans-serif" fill="#374151">2026-04-24 19:00</text><line x1="1035.7" y1="364.0" x2="1035.7" y2="370.0" stroke="#111827" stroke-width="1"/><text x="1037.7" y="386.0" font-size="11" text-anchor="end" transform="rotate(-35 1037.7 386.0)" font-family="sans-serif" fill="#374151">2026-04-28 12:00</text><line x1="1180.0" y1="364.0" x2="1180.0" y2="370.0" stroke="#111827" stroke-width="1"/><text x="1182.0" y="386.0" font-size="11" text-anchor="end" transform="rotate(-35 1182.0 386.0)" font-family="sans-serif" fill="#374151">2026-04-28 21:00</text><text x="26" y="208.0" font-size="12" transform="rotate(-90 26 208.0)" text-anchor="middle" font-family="sans-serif" fill="#1f2937">구간별 수</text><text x="1256.0" y="208.0" font-size="12" transform="rotate(90 1256.0 208.0)" text-anchor="middle" font-family="sans-serif" fill="#1f2937">누적</text><text x="639.0" y="442.0" font-size="13" text-anchor="middle" font-family="sans-serif" fill="#111827">시간</text></svg>