<svg xmlns="http://www.w3.org/2000/svg" width="1280" height="460" viewBox="0 0 1280 460"><rect x="0" y="0" width="100%" height="100%" fill="#ffffff"/><text x="640.0" y="28" font-size="20" text-anchor="middle" font-family="sans-serif" fill="#111827">시리즈 / 최근 반영 시점 / 일별</text><line x1="80.0" y1="52.0" x2="1198.0" y2="52.0" stroke="#e5e7eb" stroke-width="1"/><text x="72.0" y="56.0" font-size="11" text-anchor="end" font-family="sans-serif" fill="#374151">1,302</text><text x="1206.0" y="56.0" font-size="11" text-anchor="start" font-family="sans-serif" fill="#374151">1,444</text><line x1="80.0" y1="114.4" x2="1198.0" y2="114.4" stroke="#e5e7eb" stroke-width="1"/><text x="72.0" y="118.4" font-size="11" text-anchor="end" font-family="sans-serif" fill="#374151">1,042</text><text x="1206.0" y="118.4" font-size="11" text-anchor="start" font-family="sans-serif" fill="#374151">1,155</text><line x1="80.0" y1="176.8" x2="1198.0" y2="176.8" stroke="#e5e7eb" stroke-width="1"/><text x="72.0" y="180.8" font-size="11" text-anchor="end" font-family="sans-serif" fill="#374151">781</text><text x="1206.0" y="180.8" font-size="11" text-anchor="start" font-family="sans-serif" fill="#374151">866</text><line x1="80.0" y1="239.2" x2="1198.0" y2="239.2" stroke="#e5e7eb" stroke-width="1"/><text x="72.0" y="243.2" font-size="11" text-anchor="end" font-family="sans-serif" fill="#374151">521</text><text x="1206.0" y="243.2" font-size="11" text-anchor="start" font-family="sans-serif" fill="#374151">578</text><line x1="80.0" y1="301.6" x2="1198.0" y2="301.6" stroke="#e5e7eb" stroke-width="1"/><text x="72.0" y="305.6" font-size="11" text-anchor="end" font-family="sans-serif" fill="#374151">260</text><text x="1206.0" y="305.6" font-size="11" text-anchor="start" font-family="sans-serif" fill="#374151">289</text><line x1="80.0" y1="364.0" x2="1198.0" y2="364.0" stroke="#e5e7eb" stroke-width="1"/><text x="72.0" y="368.0" font-size="11" text-anchor="end" font-family="sans-serif" fill="#374151">0</text><text x="1206.0" y="368.0" font-size="11" text-anchor="start" font-family="sans-serif" fill="#374151">0</text><line x1="80.0" y1="364.0" x2="1198.0" y2="364.0" stroke="#111827" stroke-width="1.2"/><line x1="80.0" y1="52.0" x2="80.0" y2="364.0" stroke="#111827" stroke-width="1.2"/><line x1="1198.0" y1="52.0" x2="1198.0" y2="364.0" stroke="#111827" stroke-width="1.2"/><rect x="81.0" y="363.8" width="137.8" height="0.2" fill="#93c5fd" stroke="#60a5fa" stroke-width="0.5"/><rect x="220.8" y="359.9" width="137.8" height="4.1" fill="#93c5fd" stroke="#60a5fa" stroke-width="0.5"/><rect x="360.5" y="363.0" width="137.8" height="1.0" fill="#93c5fd" stroke="#60a5fa" stroke-width="0.5"/><rect x="500.2" y="362.1" width="137.8" height="1.9" fill="#93c5fd" stroke="#60a5fa" stroke-width="0.5"/><rect x="640.0" y="362.6" width="137.8" height="1.4" fill="#93c5fd" stroke="#60a5fa" stroke-width="0.5"/><rect x="779.8" y="52.0" width="137.8" height="312.0" fill="#93c5fd" stroke="#60a5fa" stroke-width="0.5"/><rect x="919.5" y="363.5" width="137.8" height="0.5" fill="#93c5fd" stroke="#60a5fa" stroke-width="0.5"/><rect x="1059.2" y="339.1" width="137.8" height="24.9" fill="#93c5fd" stroke="#60a5fa" stroke-width="0.5"/><polyline fill="none" stroke="#ef4444" stroke-width="2" points="149.9,363.8 289.6,360.1 429.4,359.2 569.1,357.5 708.9,356.2 848.6,74.9 988.4,74.5 1128.1,52.0"/><line x1="149.9" y1="364.0" x2="149.9" y2="370.0" stroke="#111827" stroke-width="1"/><text x="151.9" y="386.0" font-size="11" text-anchor="end" transform="rotate(-35 151.9 386.0)" font-family="sans-serif" fill="#374151">2026-04-16</text><line x1="289.6" y1="364.0" x2="289.6" y2="370.0" stroke="#111827" stroke-width="1"/><text x="291.6" y="386.0" font-size="11" text-anchor="end" transform="rotate(-35 291.6 386.0)" font-family="sans-serif" fill="#374151">2026-04-17</text><line x1="429.4" y1="364.0" x2="429.4" y2="370.0" stroke="#111827" stroke-width="1"/><text x="431.4" y="386.0" font-size="11" text-anchor="end" transform="rotate(-35 431.4 386.0)" font-family="sans-serif" fill="#374151">2026-04-19</text><line x1="569.1" y1="364.0" x2="569.1" y2="370.0" stroke="#111827" stroke-width="1"/><text x="571.1" y="386.0" font-size="11" text-anchor="end" transform="rotate(-35 571.1 386.0)" font-family="sans-serif" fill="#374151">2026-04-20</text><line x1="708.9" y1="364.0" x2="708.9" y2="370.0" stroke="#111827" stroke-width="1"/><text x="710.9" y="386.0" font-size="11" text-anchor="end" transform="rotate(-35 710.9 386.0)" font-family="sans-serif" fill="#374151">2026-04-21</text><line x1="848.6" y1="364.0" x2="848.6" y2="370.0" stroke="#111827" stroke-width="1"/><text x="850.6" y="386.0" font-size="11" text-anchor="end" transform="rotate(-35 850.6 386.0)" font-family="sans-serif" fill="#374151">2026-04-22</text><line x1="988.4" y1="364.0" x2="988.4" y2="370.0" stroke="#111827" stroke-width="1"/><text x="990.4" y="386.0" font-size="11" text-anchor="end" transform="rotate(-35 990.4 386.0)" font-family="sans-serif" fill="#374151">2026-04-23</text><line x1="1128.1" y1="364.0" x2="1128.1" y2="370.0" stroke="#111827" stroke-width="1"/><text x="1130.1" y="386.0" font-size="11" text-anchor="end" transform="rotate(-35 1130.1 386.0)" font-family="sans-serif" fill="#374151">2026-04-24</text><text x="26" y="208.0" font-size="12" transform="rotate(-90 26 208.0)" text-anchor="middle" font-family="sans-serif" fill="#1f2937">구간별 수</text><text x="1256.0" y="208.0" font-size="12" transform="rotate(90 1256.0 208.0)" text-anchor="middle" font-family="sans-serif" fill="#1f2937">누적</text><text x="639.0" y="442.0" font-size="13" text-anchor="middle" font-family="sans-serif" fill="#111827">일</text></svg>