<svg xmlns="http://www.w3.org/2000/svg" width="1280" height="460" viewBox="0 0 1280 460"><rect x="0" y="0" width="100%" height="100%" fill="#ffffff"/><text x="640.0" y="28" font-size="20" text-anchor="middle" font-family="sans-serif" fill="#111827">시리즈 / 생성 시점 / 일별</text><line x1="80.0" y1="52.0" x2="1198.0" y2="52.0" stroke="#e5e7eb" stroke-width="1"/><text x="72.0" y="56.0" font-size="11" text-anchor="end" font-family="sans-serif" fill="#374151">70</text><text x="1206.0" y="56.0" font-size="11" text-anchor="start" font-family="sans-serif" fill="#374151">1,447</text><line x1="80.0" y1="114.4" x2="1198.0" y2="114.4" stroke="#e5e7eb" stroke-width="1"/><text x="72.0" y="118.4" font-size="11" text-anchor="end" font-family="sans-serif" fill="#374151">56</text><text x="1206.0" y="118.4" font-size="11" text-anchor="start" font-family="sans-serif" fill="#374151">1,158</text><line x1="80.0" y1="176.8" x2="1198.0" y2="176.8" stroke="#e5e7eb" stroke-width="1"/><text x="72.0" y="180.8" font-size="11" text-anchor="end" font-family="sans-serif" fill="#374151">42</text><text x="1206.0" y="180.8" font-size="11" text-anchor="start" font-family="sans-serif" fill="#374151">868</text><line x1="80.0" y1="239.2" x2="1198.0" y2="239.2" stroke="#e5e7eb" stroke-width="1"/><text x="72.0" y="243.2" font-size="11" text-anchor="end" font-family="sans-serif" fill="#374151">28</text><text x="1206.0" y="243.2" font-size="11" text-anchor="start" font-family="sans-serif" fill="#374151">579</text><line x1="80.0" y1="301.6" x2="1198.0" y2="301.6" stroke="#e5e7eb" stroke-width="1"/><text x="72.0" y="305.6" font-size="11" text-anchor="end" font-family="sans-serif" fill="#374151">14</text><text x="1206.0" y="305.6" font-size="11" text-anchor="start" font-family="sans-serif" fill="#374151">289</text><line x1="80.0" y1="364.0" x2="1198.0" y2="364.0" stroke="#e5e7eb" stroke-width="1"/><text x="72.0" y="368.0" font-size="11" text-anchor="end" font-family="sans-serif" fill="#374151">0</text><text x="1206.0" y="368.0" font-size="11" text-anchor="start" font-family="sans-serif" fill="#374151">0</text><line x1="80.0" y1="364.0" x2="1198.0" y2="364.0" stroke="#111827" stroke-width="1.2"/><line x1="80.0" y1="52.0" x2="80.0" y2="364.0" stroke="#111827" stroke-width="1.2"/><line x1="1198.0" y1="52.0" x2="1198.0" y2="364.0" stroke="#111827" stroke-width="1.2"/><rect x="80.0" y="346.2" width="4.2" height="17.8" fill="#93c5fd" stroke="#60a5fa" stroke-width="0.5"/><rect x="84.2" y="359.5" width="4.2" height="4.5" fill="#93c5fd" stroke="#60a5fa" stroke-width="0.5"/><rect x="88.4" y="359.5" width="4.2" height="4.5" fill="#93c5fd" stroke="#60a5fa" stroke-width="0.5"/><rect x="92.7" y="355.1" width="4.2" height="8.9" fill="#93c5fd" stroke="#60a5fa" stroke-width="0.5"/><rect x="96.9" y="359.5" width="4.2" height="4.5" fill="#93c5fd" stroke="#60a5fa" stroke-width="0.5"/><rect x="101.1" y="350.6" width="4.2" height="13.4" fill="#93c5fd" stroke="#60a5fa" stroke-width="0.5"/><rect x="105.3" y="359.5" width="4.2" height="4.5" fill="#93c5fd" stroke="#60a5fa" stroke-width="0.5"/><rect x="109.5" y="359.5" width="4.2" height="4.5" fill="#93c5fd" stroke="#60a5fa" stroke-width="0.5"/><rect x="113.8" y="359.5" width="4.2" height="4.5" fill="#93c5fd" stroke="#60a5fa" stroke-width="0.5"/><rect x="118.0" y="359.5" width="4.2" height="4.5" fill="#93c5fd" stroke="#60a5fa" stroke-width="0.5"/><rect x="122.2" y="359.5" width="4.2" height="4.5" fill="#93c5fd" stroke="#60a5fa" stroke-width="0.5"/><rect x="126.4" y="359.5" width="4.2" height="4.5" fill="#93c5fd" stroke="#60a5fa" stroke-width="0.5"/><rect x="130.6" y="359.5" width="4.2" height="4.5" fill="#93c5fd" stroke="#60a5fa" stroke-width="0.5"/><rect x="134.8" y="355.1" width="4.2" height="8.9" fill="#93c5fd" stroke="#60a5fa" stroke-width="0.5"/><rect x="139.1" y="346.2" width="4.2" height="17.8" fill="#93c5fd" stroke="#60a5fa" stroke-width="0.5"/><rect x="143.3" y="359.5" width="4.2" height="4.5" fill="#93c5fd" stroke="#60a5fa" stroke-width="0.5"/><rect x="147.5" y="359.5" width="4.2" height="4.5" fill="#93c5fd" stroke="#60a5fa" stroke-width="0.5"/><rect x="151.7" y="350.6" width="4.2" height="13.4" fill="#93c5fd" stroke="#60a5fa" stroke-width="0.5"/><rect x="155.9" y="341.7" width="4.2" height="22.3" fill="#93c5fd" stroke="#60a5fa" stroke-width="0.5"/><rect x="160.2" y="306.1" width="4.2" height="57.9" fill="#93c5fd" stroke="#60a5fa" stroke-width="0.5"/><rect x="164.4" y="355.1" width="4.2" height="8.9" fill="#93c5fd" stroke="#60a5fa" stroke-width="0.5"/><rect x="168.6" y="350.6" width="4.2" height="13.4" fill="#93c5fd" stroke="#60a5fa" stroke-width="0.5"/><rect x="172.8" y="359.5" width="4.2" height="4.5" fill="#93c5fd" stroke="#60a5fa" stroke-width="0.5"/><rect x="177.0" y="350.6" width="4.2" height="13.4" fill="#93c5fd" stroke="#60a5fa" stroke-width="0.5"/><rect x="181.3" y="359.5" width="4.2" height="4.5" fill="#93c5fd" stroke="#60a5fa" stroke-width="0.5"/><rect x="185.5" y="341.7" width="4.2" height="22.3" fill="#93c5fd" stroke="#60a5fa" stroke-width="0.5"/><rect x="189.7" y="359.5" width="4.2" height="4.5" fill="#93c5fd" stroke="#60a5fa" stroke-width="0.5"/><rect x="193.9" y="359.5" width="4.2" height="4.5" fill="#93c5fd" stroke="#60a5fa" stroke-width="0.5"/><rect x="198.1" y="359.5" width="4.2" height="4.5" fill="#93c5fd" stroke="#60a5fa" stroke-width="0.5"/><rect x="202.3" y="359.5" width="4.2" height="4.5" fill="#93c5fd" stroke="#60a5fa" stroke-width="0.5"/><rect x="206.6" y="359.5" width="4.2" height="4.5" fill="#93c5fd" stroke="#60a5fa" stroke-width="0.5"/><rect x="210.8" y="359.5" width="4.2" height="4.5" fill="#93c5fd" stroke="#60a5fa" stroke-width="0.5"/><rect x="215.0" y="359.5" width="4.2" height="4.5" fill="#93c5fd" stroke="#60a5fa" stroke-width="0.5"/><rect x="219.2" y="359.5" width="4.2" height="4.5" fill="#93c5fd" stroke="#60a5fa" stroke-width="0.5"/><rect x="223.4" y="359.5" width="4.2" height="4.5" fill="#93c5fd" stroke="#60a5fa" stroke-width="0.5"/><rect x="227.7" y="359.5" width="4.2" height="4.5" fill="#93c5fd" stroke="#60a5fa" stroke-width="0.5"/><rect x="231.9" y="359.5" width="4.2" height="4.5" fill="#93c5fd" stroke="#60a5fa" stroke-width="0.5"/><rect x="236.1" y="359.5" width="4.2" height="4.5" fill="#93c5fd" stroke="#60a5fa" stroke-width="0.5"/><rect x="240.3" y="359.5" width="4.2" height="4.5" fill="#93c5fd" stroke="#60a5fa" stroke-width="0.5"/><rect x="244.5" y="359.5" width="4.2" height="4.5" fill="#93c5fd" stroke="#60a5fa" stroke-width="0.5"/><rect x="248.8" y="350.6" width="4.2" height="13.4" fill="#93c5fd" stroke="#60a5fa" stroke-width="0.5"/><rect x="253.0" y="359.5" width="4.2" height="4.5" fill="#93c5fd" stroke="#60a5fa" stroke-width="0.5"/><rect x="257.2" y="359.5" width="4.2" height="4.5" fill="#93c5fd" stroke="#60a5fa" stroke-width="0.5"/><rect x="261.4" y="315.0" width="4.2" height="49.0" fill="#93c5fd" stroke="#60a5fa" stroke-width="0.5"/><rect x="265.6" y="359.5" width="4.2" height="4.5" fill="#93c5fd" stroke="#60a5fa" stroke-width="0.5"/><rect x="269.8" y="337.3" width="4.2" height="26.7" fill="#93c5fd" stroke="#60a5fa" stroke-width="0.5"/><rect x="274.1" y="328.3" width="4.2" height="35.7" fill="#93c5fd" stroke="#60a5fa" stroke-width="0.5"/><rect x="278.3" y="359.5" width="4.2" height="4.5" fill="#93c5fd" stroke="#60a5fa" stroke-width="0.5"/><rect x="282.5" y="355.1" width="4.2" height="8.9" fill="#93c5fd" stroke="#60a5fa" stroke-width="0.5"/><rect x="286.7" y="350.6" width="4.2" height="13.4" fill="#93c5fd" stroke="#60a5fa" stroke-width="0.5"/><rect x="290.9" y="355.1" width="4.2" height="8.9" fill="#93c5fd" stroke="#60a5fa" stroke-width="0.5"/><rect x="295.2" y="355.1" width="4.2" height="8.9" fill="#93c5fd" stroke="#60a5fa" stroke-width="0.5"/><rect x="299.4" y="350.6" width="4.2" height="13.4" fill="#93c5fd" stroke="#60a5fa" stroke-width="0.5"/><rect x="303.6" y="359.5" width="4.2" height="4.5" fill="#93c5fd" stroke="#60a5fa" stroke-width="0.5"/><rect x="307.8" y="359.5" width="4.2" height="4.5" fill="#93c5fd" stroke="#60a5fa" stroke-width="0.5"/><rect x="312.0" y="359.5" width="4.2" height="4.5" fill="#93c5fd" stroke="#60a5fa" stroke-width="0.5"/><rect x="316.3" y="359.5" width="4.2" height="4.5" fill="#93c5fd" stroke="#60a5fa" stroke-width="0.5"/><rect x="320.5" y="350.6" width="4.2" height="13.4" fill="#93c5fd" stroke="#60a5fa" stroke-width="0.5"/><rect x="324.7" y="359.5" width="4.2" height="4.5" fill="#93c5fd" stroke="#60a5fa" stroke-width="0.5"/><rect x="328.9" y="328.3" width="4.2" height="35.7" fill="#93c5fd" stroke="#60a5fa" stroke-width="0.5"/><rect x="333.1" y="359.5" width="4.2" height="4.5" fill="#93c5fd" stroke="#60a5fa" stroke-width="0.5"/><rect x="337.4" y="359.5" width="4.2" height="4.5" fill="#93c5fd" stroke="#60a5fa" stroke-width="0.5"/><rect x="341.6" y="359.5" width="4.2" height="4.5" fill="#93c5fd" stroke="#60a5fa" stroke-width="0.5"/><rect x="345.8" y="350.6" width="4.2" height="13.4" fill="#93c5fd" stroke="#60a5fa" stroke-width="0.5"/><rect x="350.0" y="359.5" width="4.2" height="4.5" fill="#93c5fd" stroke="#60a5fa" stroke-width="0.5"/><rect x="354.2" y="359.5" width="4.2" height="4.5" fill="#93c5fd" stroke="#60a5fa" stroke-width="0.5"/><rect x="358.4" y="355.1" width="4.2" height="8.9" fill="#93c5fd" stroke="#60a5fa" stroke-width="0.5"/><rect x="362.7" y="350.6" width="4.2" height="13.4" fill="#93c5fd" stroke="#60a5fa" stroke-width="0.5"/><rect x="366.9" y="359.5" width="4.2" height="4.5" fill="#93c5fd" stroke="#60a5fa" stroke-width="0.5"/><rect x="371.1" y="350.6" width="4.2" height="13.4" fill="#93c5fd" stroke="#60a5fa" stroke-width="0.5"/><rect x="375.3" y="355.1" width="4.2" height="8.9" fill="#93c5fd" stroke="#60a5fa" stroke-width="0.5"/><rect x="379.5" y="350.6" width="4.2" height="13.4" fill="#93c5fd" stroke="#60a5fa" stroke-width="0.5"/><rect x="383.8" y="359.5" width="4.2" height="4.5" fill="#93c5fd" stroke="#60a5fa" stroke-width="0.5"/><rect x="388.0" y="319.4" width="4.2" height="44.6" fill="#93c5fd" stroke="#60a5fa" stroke-width="0.5"/><rect x="392.2" y="346.2" width="4.2" height="17.8" fill="#93c5fd" stroke="#60a5fa" stroke-width="0.5"/><rect x="396.4" y="346.2" width="4.2" height="17.8" fill="#93c5fd" stroke="#60a5fa" stroke-width="0.5"/><rect x="400.6" y="359.5" width="4.2" height="4.5" fill="#93c5fd" stroke="#60a5fa" stroke-width="0.5"/><rect x="404.9" y="359.5" width="4.2" height="4.5" fill="#93c5fd" stroke="#60a5fa" stroke-width="0.5"/><rect x="409.1" y="359.5" width="4.2" height="4.5" fill="#93c5fd" stroke="#60a5fa" stroke-width="0.5"/><rect x="413.3" y="355.1" width="4.2" height="8.9" fill="#93c5fd" stroke="#60a5fa" stroke-width="0.5"/><rect x="417.5" y="355.1" width="4.2" height="8.9" fill="#93c5fd" stroke="#60a5fa" stroke-width="0.5"/><rect x="421.7" y="350.6" width="4.2" height="13.4" fill="#93c5fd" stroke="#60a5fa" stroke-width="0.5"/><rect x="425.9" y="355.1" width="4.2" height="8.9" fill="#93c5fd" stroke="#60a5fa" stroke-width="0.5"/><rect x="430.2" y="350.6" width="4.2" height="13.4" fill="#93c5fd" stroke="#60a5fa" stroke-width="0.5"/><rect x="434.4" y="359.5" width="4.2" height="4.5" fill="#93c5fd" stroke="#60a5fa" stroke-width="0.5"/><rect x="438.6" y="355.1" width="4.2" height="8.9" fill="#93c5fd" stroke="#60a5fa" stroke-width="0.5"/><rect x="442.8" y="359.5" width="4.2" height="4.5" fill="#93c5fd" stroke="#60a5fa" stroke-width="0.5"/><rect x="447.0" y="337.3" width="4.2" height="26.7" fill="#93c5fd" stroke="#60a5fa" stroke-width="0.5"/><rect x="451.3" y="359.5" width="4.2" height="4.5" fill="#93c5fd" stroke="#60a5fa" stroke-width="0.5"/><rect x="455.5" y="359.5" width="4.2" height="4.5" fill="#93c5fd" stroke="#60a5fa" stroke-width="0.5"/><rect x="459.7" y="359.5" width="4.2" height="4.5" fill="#93c5fd" stroke="#60a5fa" stroke-width="0.5"/><rect x="463.9" y="359.5" width="4.2" height="4.5" fill="#93c5fd" stroke="#60a5fa" stroke-width="0.5"/><rect x="468.1" y="359.5" width="4.2" height="4.5" fill="#93c5fd" stroke="#60a5fa" stroke-width="0.5"/><rect x="472.4" y="337.3" width="4.2" height="26.7" fill="#93c5fd" stroke="#60a5fa" stroke-width="0.5"/><rect x="476.6" y="359.5" width="4.2" height="4.5" fill="#93c5fd" stroke="#60a5fa" stroke-width="0.5"/><rect x="480.8" y="346.2" width="4.2" height="17.8" fill="#93c5fd" stroke="#60a5fa" stroke-width="0.5"/><rect x="485.0" y="319.4" width="4.2" height="44.6" fill="#93c5fd" stroke="#60a5fa" stroke-width="0.5"/><rect x="489.2" y="328.3" width="4.2" height="35.7" fill="#93c5fd" stroke="#60a5fa" stroke-width="0.5"/><rect x="493.4" y="355.1" width="4.2" height="8.9" fill="#93c5fd" stroke="#60a5fa" stroke-width="0.5"/><rect x="497.7" y="355.1" width="4.2" height="8.9" fill="#93c5fd" stroke="#60a5fa" stroke-width="0.5"/><rect x="501.9" y="355.1" width="4.2" height="8.9" fill="#93c5fd" stroke="#60a5fa" stroke-width="0.5"/><rect x="506.1" y="355.1" width="4.2" height="8.9" fill="#93c5fd" stroke="#60a5fa" stroke-width="0.5"/><rect x="510.3" y="350.6" width="4.2" height="13.4" fill="#93c5fd" stroke="#60a5fa" stroke-width="0.5"/><rect x="514.5" y="341.7" width="4.2" height="22.3" fill="#93c5fd" stroke="#60a5fa" stroke-width="0.5"/><rect x="518.8" y="359.5" width="4.2" height="4.5" fill="#93c5fd" stroke="#60a5fa" stroke-width="0.5"/><rect x="523.0" y="323.9" width="4.2" height="40.1" fill="#93c5fd" stroke="#60a5fa" stroke-width="0.5"/><rect x="527.2" y="355.1" width="4.2" height="8.9" fill="#93c5fd" stroke="#60a5fa" stroke-width="0.5"/><rect x="531.4" y="346.2" width="4.2" height="17.8" fill="#93c5fd" stroke="#60a5fa" stroke-width="0.5"/><rect x="535.6" y="355.1" width="4.2" height="8.9" fill="#93c5fd" stroke="#60a5fa" stroke-width="0.5"/><rect x="539.9" y="359.5" width="4.2" height="4.5" fill="#93c5fd" stroke="#60a5fa" stroke-width="0.5"/><rect x="544.1" y="359.5" width="4.2" height="4.5" fill="#93c5fd" stroke="#60a5fa" stroke-width="0.5"/><rect x="548.3" y="355.1" width="4.2" height="8.9" fill="#93c5fd" stroke="#60a5fa" stroke-width="0.5"/><rect x="552.5" y="350.6" width="4.2" height="13.4" fill="#93c5fd" stroke="#60a5fa" stroke-width="0.5"/><rect x="556.7" y="355.1" width="4.2" height="8.9" fill="#93c5fd" stroke="#60a5fa" stroke-width="0.5"/><rect x="561.0" y="315.0" width="4.2" height="49.0" fill="#93c5fd" stroke="#60a5fa" stroke-width="0.5"/><rect x="565.2" y="319.4" width="4.2" height="44.6" fill="#93c5fd" stroke="#60a5fa" stroke-width="0.5"/><rect x="569.4" y="346.2" width="4.2" height="17.8" fill="#93c5fd" stroke="#60a5fa" stroke-width="0.5"/><rect x="573.6" y="359.5" width="4.2" height="4.5" fill="#93c5fd" stroke="#60a5fa" stroke-width="0.5"/><rect x="577.8" y="328.3" width="4.2" height="35.7" fill="#93c5fd" stroke="#60a5fa" stroke-width="0.5"/><rect x="582.0" y="328.3" width="4.2" height="35.7" fill="#93c5fd" stroke="#60a5fa" stroke-width="0.5"/><rect x="586.3" y="257.0" width="4.2" height="107.0" fill="#93c5fd" stroke="#60a5fa" stroke-width="0.5"/><rect x="590.5" y="355.1" width="4.2" height="8.9" fill="#93c5fd" stroke="#60a5fa" stroke-width="0.5"/><rect x="594.7" y="341.7" width="4.2" height="22.3" fill="#93c5fd" stroke="#60a5fa" stroke-width="0.5"/><rect x="598.9" y="350.6" width="4.2" height="13.4" fill="#93c5fd" stroke="#60a5fa" stroke-width="0.5"/><rect x="603.1" y="306.1" width="4.2" height="57.9" fill="#93c5fd" stroke="#60a5fa" stroke-width="0.5"/><rect x="607.4" y="337.3" width="4.2" height="26.7" fill="#93c5fd" stroke="#60a5fa" stroke-width="0.5"/><rect x="611.6" y="301.6" width="4.2" height="62.4" fill="#93c5fd" stroke="#60a5fa" stroke-width="0.5"/><rect x="615.8" y="319.4" width="4.2" height="44.6" fill="#93c5fd" stroke="#60a5fa" stroke-width="0.5"/><rect x="620.0" y="355.1" width="4.2" height="8.9" fill="#93c5fd" stroke="#60a5fa" stroke-width="0.5"/><rect x="624.2" y="359.5" width="4.2" height="4.5" fill="#93c5fd" stroke="#60a5fa" stroke-width="0.5"/><rect x="628.5" y="341.7" width="4.2" height="22.3" fill="#93c5fd" stroke="#60a5fa" stroke-width="0.5"/><rect x="632.7" y="306.1" width="4.2" height="57.9" fill="#93c5fd" stroke="#60a5fa" stroke-width="0.5"/><rect x="636.9" y="346.2" width="4.2" height="17.8" fill="#93c5fd" stroke="#60a5fa" stroke-width="0.5"/><rect x="641.1" y="257.0" width="4.2" height="107.0" fill="#93c5fd" stroke="#60a5fa" stroke-width="0.5"/><rect x="645.3" y="341.7" width="4.2" height="22.3" fill="#93c5fd" stroke="#60a5fa" stroke-width="0.5"/><rect x="649.5" y="52.0" width="4.2" height="312.0" fill="#93c5fd" stroke="#60a5fa" stroke-width="0.5"/><rect x="653.8" y="288.2" width="4.2" height="75.8" fill="#93c5fd" stroke="#60a5fa" stroke-width="0.5"/><rect x="658.0" y="350.6" width="4.2" height="13.4" fill="#93c5fd" stroke="#60a5fa" stroke-width="0.5"/><rect x="662.2" y="355.1" width="4.2" height="8.9" fill="#93c5fd" stroke="#60a5fa" stroke-width="0.5"/><rect x="666.4" y="181.3" width="4.2" height="182.7" fill="#93c5fd" stroke="#60a5fa" stroke-width="0.5"/><rect x="670.6" y="337.3" width="4.2" height="26.7" fill="#93c5fd" stroke="#60a5fa" stroke-width="0.5"/><rect x="674.9" y="350.6" width="4.2" height="13.4" fill="#93c5fd" stroke="#60a5fa" stroke-width="0.5"/><rect x="679.1" y="355.1" width="4.2" height="8.9" fill="#93c5fd" stroke="#60a5fa" stroke-width="0.5"/><rect x="683.3" y="346.2" width="4.2" height="17.8" fill="#93c5fd" stroke="#60a5fa" stroke-width="0.5"/><rect x="687.5" y="328.3" width="4.2" height="35.7" fill="#93c5fd" stroke="#60a5fa" stroke-width="0.5"/><rect x="691.7" y="359.5" width="4.2" height="4.5" fill="#93c5fd" stroke="#60a5fa" stroke-width="0.5"/><rect x="696.0" y="359.5" width="4.2" height="4.5" fill="#93c5fd" stroke="#60a5fa" stroke-width="0.5"/><rect x="700.2" y="346.2" width="4.2" height="17.8" fill="#93c5fd" stroke="#60a5fa" stroke-width="0.5"/><rect x="704.4" y="341.7" width="4.2" height="22.3" fill="#93c5fd" stroke="#60a5fa" stroke-width="0.5"/><rect x="708.6" y="337.3" width="4.2" height="26.7" fill="#93c5fd" stroke="#60a5fa" stroke-width="0.5"/><rect x="712.8" y="337.3" width="4.2" height="26.7" fill="#93c5fd" stroke="#60a5fa" stroke-width="0.5"/><rect x="717.0" y="359.5" width="4.2" height="4.5" fill="#93c5fd" stroke="#60a5fa" stroke-width="0.5"/><rect x="721.3" y="341.7" width="4.2" height="22.3" fill="#93c5fd" stroke="#60a5fa" stroke-width="0.5"/><rect x="725.5" y="332.8" width="4.2" height="31.2" fill="#93c5fd" stroke="#60a5fa" stroke-width="0.5"/><rect x="729.7" y="332.8" width="4.2" height="31.2" fill="#93c5fd" stroke="#60a5fa" stroke-width="0.5"/><rect x="733.9" y="328.3" width="4.2" height="35.7" fill="#93c5fd" stroke="#60a5fa" stroke-width="0.5"/><rect x="738.1" y="323.9" width="4.2" height="40.1" fill="#93c5fd" stroke="#60a5fa" stroke-width="0.5"/><rect x="742.4" y="332.8" width="4.2" height="31.2" fill="#93c5fd" stroke="#60a5fa" stroke-width="0.5"/><rect x="746.6" y="346.2" width="4.2" height="17.8" fill="#93c5fd" stroke="#60a5fa" stroke-width="0.5"/><rect x="750.8" y="350.6" width="4.2" height="13.4" fill="#93c5fd" stroke="#60a5fa" stroke-width="0.5"/><rect x="755.0" y="350.6" width="4.2" height="13.4" fill="#93c5fd" stroke="#60a5fa" stroke-width="0.5"/><rect x="759.2" y="332.8" width="4.2" height="31.2" fill="#93c5fd" stroke="#60a5fa" stroke-width="0.5"/><rect x="763.5" y="359.5" width="4.2" height="4.5" fill="#93c5fd" stroke="#60a5fa" stroke-width="0.5"/><rect x="767.7" y="350.6" width="4.2" height="13.4" fill="#93c5fd" stroke="#60a5fa" stroke-width="0.5"/><rect x="771.9" y="355.1" width="4.2" height="8.9" fill="#93c5fd" stroke="#60a5fa" stroke-width="0.5"/><rect x="776.1" y="355.1" width="4.2" height="8.9" fill="#93c5fd" stroke="#60a5fa" stroke-width="0.5"/><rect x="780.3" y="355.1" width="4.2" height="8.9" fill="#93c5fd" stroke="#60a5fa" stroke-width="0.5"/><rect x="784.6" y="355.1" width="4.2" height="8.9" fill="#93c5fd" stroke="#60a5fa" stroke-width="0.5"/><rect x="788.8" y="359.5" width="4.2" height="4.5" fill="#93c5fd" stroke="#60a5fa" stroke-width="0.5"/><rect x="793.0" y="359.5" width="4.2" height="4.5" fill="#93c5fd" stroke="#60a5fa" stroke-width="0.5"/><rect x="797.2" y="337.3" width="4.2" height="26.7" fill="#93c5fd" stroke="#60a5fa" stroke-width="0.5"/><rect x="801.4" y="355.1" width="4.2" height="8.9" fill="#93c5fd" stroke="#60a5fa" stroke-width="0.5"/><rect x="805.6" y="328.3" width="4.2" height="35.7" fill="#93c5fd" stroke="#60a5fa" stroke-width="0.5"/><rect x="809.9" y="350.6" width="4.2" height="13.4" fill="#93c5fd" stroke="#60a5fa" stroke-width="0.5"/><rect x="814.1" y="328.3" width="4.2" height="35.7" fill="#93c5fd" stroke="#60a5fa" stroke-width="0.5"/><rect x="818.3" y="332.8" width="4.2" height="31.2" fill="#93c5fd" stroke="#60a5fa" stroke-width="0.5"/><rect x="822.5" y="328.3" width="4.2" height="35.7" fill="#93c5fd" stroke="#60a5fa" stroke-width="0.5"/><rect x="826.7" y="341.7" width="4.2" height="22.3" fill="#93c5fd" stroke="#60a5fa" stroke-width="0.5"/><rect x="831.0" y="355.1" width="4.2" height="8.9" fill="#93c5fd" stroke="#60a5fa" stroke-width="0.5"/><rect x="835.2" y="355.1" width="4.2" height="8.9" fill="#93c5fd" stroke="#60a5fa" stroke-width="0.5"/><rect x="839.4" y="319.4" width="4.2" height="44.6" fill="#93c5fd" stroke="#60a5fa" stroke-width="0.5"/><rect x="843.6" y="315.0" width="4.2" height="49.0" fill="#93c5fd" stroke="#60a5fa" stroke-width="0.5"/><rect x="847.8" y="328.3" width="4.2" height="35.7" fill="#93c5fd" stroke="#60a5fa" stroke-width="0.5"/><rect x="852.1" y="323.9" width="4.2" height="40.1" fill="#93c5fd" stroke="#60a5fa" stroke-width="0.5"/><rect x="856.3" y="341.7" width="4.2" height="22.3" fill="#93c5fd" stroke="#60a5fa" stroke-width="0.5"/><rect x="860.5" y="359.5" width="4.2" height="4.5" fill="#93c5fd" stroke="#60a5fa" stroke-width="0.5"/><rect x="864.7" y="350.6" width="4.2" height="13.4" fill="#93c5fd" stroke="#60a5fa" stroke-width="0.5"/><rect x="868.9" y="359.5" width="4.2" height="4.5" fill="#93c5fd" stroke="#60a5fa" stroke-width="0.5"/><rect x="873.1" y="346.2" width="4.2" height="17.8" fill="#93c5fd" stroke="#60a5fa" stroke-width="0.5"/><rect x="877.4" y="346.2" width="4.2" height="17.8" fill="#93c5fd" stroke="#60a5fa" stroke-width="0.5"/><rect x="881.6" y="341.7" width="4.2" height="22.3" fill="#93c5fd" stroke="#60a5fa" stroke-width="0.5"/><rect x="885.8" y="359.5" width="4.2" height="4.5" fill="#93c5fd" stroke="#60a5fa" stroke-width="0.5"/><rect x="890.0" y="359.5" width="4.2" height="4.5" fill="#93c5fd" stroke="#60a5fa" stroke-width="0.5"/><rect x="894.2" y="315.0" width="4.2" height="49.0" fill="#93c5fd" stroke="#60a5fa" stroke-width="0.5"/><rect x="898.5" y="230.3" width="4.2" height="133.7" fill="#93c5fd" stroke="#60a5fa" stroke-width="0.5"/><rect x="902.7" y="297.1" width="4.2" height="66.9" fill="#93c5fd" stroke="#60a5fa" stroke-width="0.5"/><rect x="906.9" y="359.5" width="4.2" height="4.5" fill="#93c5fd" stroke="#60a5fa" stroke-width="0.5"/><rect x="911.1" y="319.4" width="4.2" height="44.6" fill="#93c5fd" stroke="#60a5fa" stroke-width="0.5"/><rect x="915.3" y="355.1" width="4.2" height="8.9" fill="#93c5fd" stroke="#60a5fa" stroke-width="0.5"/><rect x="919.6" y="341.7" width="4.2" height="22.3" fill="#93c5fd" stroke="#60a5fa" stroke-width="0.5"/><rect x="923.8" y="315.0" width="4.2" height="49.0" fill="#93c5fd" stroke="#60a5fa" stroke-width="0.5"/><rect x="928.0" y="350.6" width="4.2" height="13.4" fill="#93c5fd" stroke="#60a5fa" stroke-width="0.5"/><rect x="932.2" y="279.3" width="4.2" height="84.7" fill="#93c5fd" stroke="#60a5fa" stroke-width="0.5"/><rect x="936.4" y="132.2" width="4.2" height="231.8" fill="#93c5fd" stroke="#60a5fa" stroke-width="0.5"/><rect x="940.6" y="359.5" width="4.2" height="4.5" fill="#93c5fd" stroke="#60a5fa" stroke-width="0.5"/><rect x="944.9" y="212.5" width="4.2" height="151.5" fill="#93c5fd" stroke="#60a5fa" stroke-width="0.5"/><rect x="949.1" y="355.1" width="4.2" height="8.9" fill="#93c5fd" stroke="#60a5fa" stroke-width="0.5"/><rect x="953.3" y="252.6" width="4.2" height="111.4" fill="#93c5fd" stroke="#60a5fa" stroke-width="0.5"/><rect x="957.5" y="359.5" width="4.2" height="4.5" fill="#93c5fd" stroke="#60a5fa" stroke-width="0.5"/><rect x="961.7" y="337.3" width="4.2" height="26.7" fill="#93c5fd" stroke="#60a5fa" stroke-width="0.5"/><rect x="966.0" y="355.1" width="4.2" height="8.9" fill="#93c5fd" stroke="#60a5fa" stroke-width="0.5"/><rect x="970.2" y="306.1" width="4.2" height="57.9" fill="#93c5fd" stroke="#60a5fa" stroke-width="0.5"/><rect x="974.4" y="332.8" width="4.2" height="31.2" fill="#93c5fd" stroke="#60a5fa" stroke-width="0.5"/><rect x="978.6" y="355.1" width="4.2" height="8.9" fill="#93c5fd" stroke="#60a5fa" stroke-width="0.5"/><rect x="982.8" y="252.6" width="4.2" height="111.4" fill="#93c5fd" stroke="#60a5fa" stroke-width="0.5"/><rect x="987.1" y="346.2" width="4.2" height="17.8" fill="#93c5fd" stroke="#60a5fa" stroke-width="0.5"/><rect x="991.3" y="328.3" width="4.2" height="35.7" fill="#93c5fd" stroke="#60a5fa" stroke-width="0.5"/><rect x="995.5" y="350.6" width="4.2" height="13.4" fill="#93c5fd" stroke="#60a5fa" stroke-width="0.5"/><rect x="999.7" y="319.4" width="4.2" height="44.6" fill="#93c5fd" stroke="#60a5fa" stroke-width="0.5"/><rect x="1003.9" y="359.5" width="4.2" height="4.5" fill="#93c5fd" stroke="#60a5fa" stroke-width="0.5"/><rect x="1008.2" y="292.7" width="4.2" height="71.3" fill="#93c5fd" stroke="#60a5fa" stroke-width="0.5"/><rect x="1012.4" y="323.9" width="4.2" height="40.1" fill="#93c5fd" stroke="#60a5fa" stroke-width="0.5"/><rect x="1016.6" y="350.6" width="4.2" height="13.4" fill="#93c5fd" stroke="#60a5fa" stroke-width="0.5"/><rect x="1020.8" y="301.6" width="4.2" height="62.4" fill="#93c5fd" stroke="#60a5fa" stroke-width="0.5"/><rect x="1025.0" y="355.1" width="4.2" height="8.9" fill="#93c5fd" stroke="#60a5fa" stroke-width="0.5"/><rect x="1029.2" y="359.5" width="4.2" height="4.5" fill="#93c5fd" stroke="#60a5fa" stroke-width="0.5"/><rect x="1033.5" y="355.1" width="4.2" height="8.9" fill="#93c5fd" stroke="#60a5fa" stroke-width="0.5"/><rect x="1037.7" y="350.6" width="4.2" height="13.4" fill="#93c5fd" stroke="#60a5fa" stroke-width="0.5"/><rect x="1041.9" y="310.5" width="4.2" height="53.5" fill="#93c5fd" stroke="#60a5fa" stroke-width="0.5"/><rect x="1046.1" y="341.7" width="4.2" height="22.3" fill="#93c5fd" stroke="#60a5fa" stroke-width="0.5"/><rect x="1050.3" y="355.1" width="4.2" height="8.9" fill="#93c5fd" stroke="#60a5fa" stroke-width="0.5"/><rect x="1054.6" y="359.5" width="4.2" height="4.5" fill="#93c5fd" stroke="#60a5fa" stroke-width="0.5"/><rect x="1058.8" y="350.6" width="4.2" height="13.4" fill="#93c5fd" stroke="#60a5fa" stroke-width="0.5"/><rect x="1063.0" y="355.1" width="4.2" height="8.9" fill="#93c5fd" stroke="#60a5fa" stroke-width="0.5"/><rect x="1067.2" y="265.9" width="4.2" height="98.1" fill="#93c5fd" stroke="#60a5fa" stroke-width="0.5"/><rect x="1071.4" y="323.9" width="4.2" height="40.1" fill="#93c5fd" stroke="#60a5fa" stroke-width="0.5"/><rect x="1075.7" y="332.8" width="4.2" height="31.2" fill="#93c5fd" stroke="#60a5fa" stroke-width="0.5"/><rect x="1079.9" y="359.5" width="4.2" height="4.5" fill="#93c5fd" stroke="#60a5fa" stroke-width="0.5"/><rect x="1084.1" y="328.3" width="4.2" height="35.7" fill="#93c5fd" stroke="#60a5fa" stroke-width="0.5"/><rect x="1088.3" y="350.6" width="4.2" height="13.4" fill="#93c5fd" stroke="#60a5fa" stroke-width="0.5"/><rect x="1092.5" y="301.6" width="4.2" height="62.4" fill="#93c5fd" stroke="#60a5fa" stroke-width="0.5"/><rect x="1096.7" y="212.5" width="4.2" height="151.5" fill="#93c5fd" stroke="#60a5fa" stroke-width="0.5"/><rect x="1101.0" y="346.2" width="4.2" height="17.8" fill="#93c5fd" stroke="#60a5fa" stroke-width="0.5"/><rect x="1105.2" y="279.3" width="4.2" height="84.7" fill="#93c5fd" stroke="#60a5fa" stroke-width="0.5"/><rect x="1109.4" y="359.5" width="4.2" height="4.5" fill="#93c5fd" stroke="#60a5fa" stroke-width="0.5"/><rect x="1113.6" y="190.2" width="4.2" height="173.8" fill="#93c5fd" stroke="#60a5fa" stroke-width="0.5"/><rect x="1117.8" y="310.5" width="4.2" height="53.5" fill="#93c5fd" stroke="#60a5fa" stroke-width="0.5"/><rect x="1122.1" y="306.1" width="4.2" height="57.9" fill="#93c5fd" stroke="#60a5fa" stroke-width="0.5"/><rect x="1126.3" y="355.1" width="4.2" height="8.9" fill="#93c5fd" stroke="#60a5fa" stroke-width="0.5"/><rect x="1130.5" y="323.9" width="4.2" height="40.1" fill="#93c5fd" stroke="#60a5fa" stroke-width="0.5"/><rect x="1134.7" y="346.2" width="4.2" height="17.8" fill="#93c5fd" stroke="#60a5fa" stroke-width="0.5"/><rect x="1138.9" y="328.3" width="4.2" height="35.7" fill="#93c5fd" stroke="#60a5fa" stroke-width="0.5"/><rect x="1143.2" y="350.6" width="4.2" height="13.4" fill="#93c5fd" stroke="#60a5fa" stroke-width="0.5"/><rect x="1147.4" y="359.5" width="4.2" height="4.5" fill="#93c5fd" stroke="#60a5fa" stroke-width="0.5"/><rect x="1151.6" y="346.2" width="4.2" height="17.8" fill="#93c5fd" stroke="#60a5fa" stroke-width="0.5"/><rect x="1155.8" y="359.5" width="4.2" height="4.5" fill="#93c5fd" stroke="#60a5fa" stroke-width="0.5"/><rect x="1160.0" y="359.5" width="4.2" height="4.5" fill="#93c5fd" stroke="#60a5fa" stroke-width="0.5"/><rect x="1164.2" y="315.0" width="4.2" height="49.0" fill="#93c5fd" stroke="#60a5fa" stroke-width="0.5"/><rect x="1168.5" y="355.1" width="4.2" height="8.9" fill="#93c5fd" stroke="#60a5fa" stroke-width="0.5"/><rect x="1172.7" y="350.6" width="4.2" height="13.4" fill="#93c5fd" stroke="#60a5fa" stroke-width="0.5"/><rect x="1176.9" y="355.1" width="4.2" height="8.9" fill="#93c5fd" stroke="#60a5fa" stroke-width="0.5"/><rect x="1181.1" y="346.2" width="4.2" height="17.8" fill="#93c5fd" stroke="#60a5fa" stroke-width="0.5"/><rect x="1185.3" y="346.2" width="4.2" height="17.8" fill="#93c5fd" stroke="#60a5fa" stroke-width="0.5"/><rect x="1189.6" y="359.5" width="4.2" height="4.5" fill="#93c5fd" stroke="#60a5fa" stroke-width="0.5"/><rect x="1193.8" y="355.1" width="4.2" height="8.9" fill="#93c5fd" stroke="#60a5fa" stroke-width="0.5"/><polyline fill="none" stroke="#ef4444" stroke-width="2" points="82.1,363.1 86.3,362.9 90.5,362.7 94.8,362.3 99.0,362.1 103.2,361.4 107.4,361.2 111.6,361.0 115.9,360.8 120.1,360.6 124.3,360.3 128.5,360.1 132.7,359.9 137.0,359.5 141.2,358.6 145.4,358.4 149.6,358.2 153.8,357.5 158.0,356.5 162.3,353.7 166.5,353.2 170.7,352.6 174.9,352.4 179.1,351.7 183.4,351.5 187.6,350.4 191.8,350.2 196.0,350.0 200.2,349.8 204.5,349.6 208.7,349.3 212.9,349.1 217.1,348.9 221.3,348.7 225.6,348.5 229.8,348.3 234.0,348.0 238.2,347.8 242.4,347.6 246.6,347.4 250.9,346.8 255.1,346.5 259.3,346.3 263.5,343.9 267.7,343.7 272.0,342.4 276.2,340.7 280.4,340.5 284.6,340.1 288.8,339.4 293.1,339.0 297.3,338.6 301.5,337.9 305.7,337.7 309.9,337.5 314.1,337.3 318.4,337.0 322.6,336.4 326.8,336.2 331.0,334.5 335.2,334.2 339.5,334.0 343.7,333.8 347.9,333.2 352.1,333.0 356.3,332.7 360.6,332.3 364.8,331.7 369.0,331.4 373.2,330.8 377.4,330.4 381.6,329.7 385.9,329.5 390.1,327.3 394.3,326.5 398.5,325.6 402.7,325.4 407.0,325.2 411.2,325.0 415.4,324.5 419.6,324.1 423.8,323.5 428.1,323.0 432.3,322.4 436.5,322.2 440.7,321.7 444.9,321.5 449.2,320.2 453.4,320.0 457.6,319.8 461.8,319.6 466.0,319.4 470.2,319.2 474.5,317.9 478.7,317.6 482.9,316.8 487.1,314.6 491.3,312.9 495.6,312.5 499.8,312.0 504.0,311.6 508.2,311.2 512.4,310.5 516.7,309.4 520.9,309.2 525.1,307.3 529.3,306.9 533.5,306.0 537.7,305.6 542.0,305.4 546.2,305.1 550.4,304.7 554.6,304.1 558.8,303.6 563.1,301.3 567.3,299.1 571.5,298.2 575.7,298.0 579.9,296.3 584.2,294.6 588.4,289.4 592.6,289.0 596.8,287.9 601.0,287.2 605.2,284.4 609.5,283.1 613.7,280.1 617.9,278.0 622.1,277.5 626.3,277.3 630.6,276.2 634.8,273.4 639.0,272.6 643.2,267.4 647.4,266.3 651.7,251.2 655.9,247.6 660.1,246.9 664.3,246.5 668.5,237.6 672.8,236.4 677.0,235.7 681.2,235.3 685.4,234.4 689.6,232.7 693.8,232.5 698.1,232.3 702.3,231.4 706.5,230.3 710.7,229.0 714.9,227.7 719.2,227.5 723.4,226.4 727.6,224.9 731.8,223.4 736.0,221.7 740.3,219.8 744.5,218.2 748.7,217.4 752.9,216.7 757.1,216.1 761.3,214.6 765.6,214.4 769.8,213.7 774.0,213.3 778.2,212.9 782.4,212.4 786.7,212.0 790.9,211.8 795.1,211.6 799.3,210.3 803.5,209.8 807.8,208.1 812.0,207.5 816.2,205.7 820.4,204.2 824.6,202.5 828.8,201.4 833.1,201.0 837.3,200.6 841.5,198.4 845.7,196.0 849.9,194.3 854.2,192.4 858.4,191.3 862.6,191.1 866.8,190.4 871.0,190.2 875.3,189.3 879.5,188.5 883.7,187.4 887.9,187.2 892.1,187.0 896.4,184.6 900.6,178.1 904.8,174.9 909.0,174.7 913.2,172.5 917.4,172.1 921.7,171.0 925.9,168.6 930.1,168.0 934.3,163.9 938.5,152.7 942.8,152.5 947.0,145.1 951.2,144.7 955.4,139.3 959.6,139.1 963.9,137.8 968.1,137.4 972.3,134.6 976.5,133.1 980.7,132.6 984.9,127.3 989.2,126.4 993.4,124.7 997.6,124.0 1001.8,121.9 1006.0,121.6 1010.3,118.2 1014.5,116.3 1018.7,115.6 1022.9,112.6 1027.1,112.2 1031.4,111.9 1035.6,111.5 1039.8,110.9 1044.0,108.3 1048.2,107.2 1052.4,106.8 1056.7,106.6 1060.9,105.9 1065.1,105.5 1069.3,100.7 1073.5,98.8 1077.8,97.3 1082.0,97.1 1086.2,95.3 1090.4,94.7 1094.6,91.7 1098.9,84.3 1103.1,83.5 1107.3,79.4 1111.5,79.2 1115.7,70.8 1120.0,68.2 1124.2,65.4 1128.4,64.9 1132.6,63.0 1136.8,62.1 1141.0,60.4 1145.3,59.8 1149.5,59.5 1153.7,58.7 1157.9,58.5 1162.1,58.3 1166.4,55.9 1170.6,55.4 1174.8,54.8 1179.0,54.4 1183.2,53.5 1187.5,52.6 1191.7,52.4 1195.9,52.0"/><line x1="82.1" y1="364.0" x2="82.1" y2="370.0" stroke="#111827" stroke-width="1"/><text x="84.1" y="386.0" font-size="11" text-anchor="end" transform="rotate(-35 84.1 386.0)" font-family="sans-serif" fill="#374151">2022-10-13</text><line x1="242.4" y1="364.0" x2="242.4" y2="370.0" stroke="#111827" stroke-width="1"/><text x="244.4" y="386.0" font-size="11" text-anchor="end" transform="rotate(-35 244.4 386.0)" font-family="sans-serif" fill="#374151">2025-03-28</text><line x1="398.5" y1="364.0" x2="398.5" y2="370.0" stroke="#111827" stroke-width="1"/><text x="400.5" y="386.0" font-size="11" text-anchor="end" transform="rotate(-35 400.5 386.0)" font-family="sans-serif" fill="#374151">2025-07-25</text><line x1="558.8" y1="364.0" x2="558.8" y2="370.0" stroke="#111827" stroke-width="1"/><text x="560.8" y="386.0" font-size="11" text-anchor="end" transform="rotate(-35 560.8 386.0)" font-family="sans-serif" fill="#374151">2025-10-02</text><line x1="719.2" y1="364.0" x2="719.2" y2="370.0" stroke="#111827" stroke-width="1"/><text x="721.2" y="386.0" font-size="11" text-anchor="end" transform="rotate(-35 721.2 386.0)" font-family="sans-serif" fill="#374151">2025-11-27</text><line x1="879.5" y1="364.0" x2="879.5" y2="370.0" stroke="#111827" stroke-width="1"/><text x="881.5" y="386.0" font-size="11" text-anchor="end" transform="rotate(-35 881.5 386.0)" font-family="sans-serif" fill="#374151">2026-01-15</text><line x1="1035.6" y1="364.0" x2="1035.6" y2="370.0" stroke="#111827" stroke-width="1"/><text x="1037.6" y="386.0" font-size="11" text-anchor="end" transform="rotate(-35 1037.6 386.0)" font-family="sans-serif" fill="#374151">2026-02-28</text><line x1="1195.9" y1="364.0" x2="1195.9" y2="370.0" stroke="#111827" stroke-width="1"/><text x="1197.9" y="386.0" font-size="11" text-anchor="end" transform="rotate(-35 1197.9 386.0)" font-family="sans-serif" fill="#374151">2026-04-24</text><text x="26" y="208.0" font-size="12" transform="rotate(-90 26 208.0)" text-anchor="middle" font-family="sans-serif" fill="#1f2937">구간별 수</text><text x="1256.0" y="208.0" font-size="12" transform="rotate(90 1256.0 208.0)" text-anchor="middle" font-family="sans-serif" fill="#1f2937">누적</text><text x="639.0" y="442.0" font-size="13" text-anchor="middle" font-family="sans-serif" fill="#111827">일</text></svg>