<svg xmlns="http://www.w3.org/2000/svg" width="1280" height="460" viewBox="0 0 1280 460"><rect x="0" y="0" width="100%" height="100%" fill="#ffffff"/><text x="640.0" y="28" font-size="20" text-anchor="middle" font-family="sans-serif" fill="#111827">시리즈 / 최근 반영 시점 / 시간별</text><line x1="80.0" y1="52.0" x2="1198.0" y2="52.0" stroke="#e5e7eb" stroke-width="1"/><text x="72.0" y="56.0" font-size="11" text-anchor="end" font-family="sans-serif" fill="#374151">1,325</text><text x="1206.0" y="56.0" font-size="11" text-anchor="start" font-family="sans-serif" fill="#374151">1,436</text><line x1="80.0" y1="114.4" x2="1198.0" y2="114.4" stroke="#e5e7eb" stroke-width="1"/><text x="72.0" y="118.4" font-size="11" text-anchor="end" font-family="sans-serif" fill="#374151">1,060</text><text x="1206.0" y="118.4" font-size="11" text-anchor="start" font-family="sans-serif" fill="#374151">1,149</text><line x1="80.0" y1="176.8" x2="1198.0" y2="176.8" stroke="#e5e7eb" stroke-width="1"/><text x="72.0" y="180.8" font-size="11" text-anchor="end" font-family="sans-serif" fill="#374151">795</text><text x="1206.0" y="180.8" font-size="11" text-anchor="start" font-family="sans-serif" fill="#374151">862</text><line x1="80.0" y1="239.2" x2="1198.0" y2="239.2" stroke="#e5e7eb" stroke-width="1"/><text x="72.0" y="243.2" font-size="11" text-anchor="end" font-family="sans-serif" fill="#374151">530</text><text x="1206.0" y="243.2" font-size="11" text-anchor="start" font-family="sans-serif" fill="#374151">574</text><line x1="80.0" y1="301.6" x2="1198.0" y2="301.6" stroke="#e5e7eb" stroke-width="1"/><text x="72.0" y="305.6" font-size="11" text-anchor="end" font-family="sans-serif" fill="#374151">265</text><text x="1206.0" y="305.6" font-size="11" text-anchor="start" font-family="sans-serif" fill="#374151">287</text><line x1="80.0" y1="364.0" x2="1198.0" y2="364.0" stroke="#e5e7eb" stroke-width="1"/><text x="72.0" y="368.0" font-size="11" text-anchor="end" font-family="sans-serif" fill="#374151">0</text><text x="1206.0" y="368.0" font-size="11" text-anchor="start" font-family="sans-serif" fill="#374151">0</text><line x1="80.0" y1="364.0" x2="1198.0" y2="364.0" stroke="#111827" stroke-width="1.2"/><line x1="80.0" y1="52.0" x2="80.0" y2="364.0" stroke="#111827" stroke-width="1.2"/><line x1="1198.0" y1="52.0" x2="1198.0" y2="364.0" stroke="#111827" stroke-width="1.2"/><rect x="81.0" y="363.8" width="53.9" height="0.2" fill="#93c5fd" stroke="#60a5fa" stroke-width="0.5"/><rect x="136.9" y="362.4" width="53.9" height="1.6" fill="#93c5fd" stroke="#60a5fa" stroke-width="0.5"/><rect x="192.8" y="363.5" width="53.9" height="0.5" fill="#93c5fd" stroke="#60a5fa" stroke-width="0.5"/><rect x="248.7" y="356.2" width="53.9" height="7.8" fill="#93c5fd" stroke="#60a5fa" stroke-width="0.5"/><rect x="304.6" y="363.5" width="53.9" height="0.5" fill="#93c5fd" stroke="#60a5fa" stroke-width="0.5"/><rect x="360.5" y="363.8" width="53.9" height="0.2" fill="#93c5fd" stroke="#60a5fa" stroke-width="0.5"/><rect x="416.4" y="363.8" width="53.9" height="0.2" fill="#93c5fd" stroke="#60a5fa" stroke-width="0.5"/><rect x="472.3" y="363.8" width="53.9" height="0.2" fill="#93c5fd" stroke="#60a5fa" stroke-width="0.5"/><rect x="528.2" y="363.8" width="53.9" height="0.2" fill="#93c5fd" stroke="#60a5fa" stroke-width="0.5"/><rect x="584.1" y="363.8" width="53.9" height="0.2" fill="#93c5fd" stroke="#60a5fa" stroke-width="0.5"/><rect x="640.0" y="363.8" width="53.9" height="0.2" fill="#93c5fd" stroke="#60a5fa" stroke-width="0.5"/><rect x="695.9" y="363.8" width="53.9" height="0.2" fill="#93c5fd" stroke="#60a5fa" stroke-width="0.5"/><rect x="751.8" y="363.8" width="53.9" height="0.2" fill="#93c5fd" stroke="#60a5fa" stroke-width="0.5"/><rect x="807.7" y="363.8" width="53.9" height="0.2" fill="#93c5fd" stroke="#60a5fa" stroke-width="0.5"/><rect x="863.6" y="356.7" width="53.9" height="7.3" fill="#93c5fd" stroke="#60a5fa" stroke-width="0.5"/><rect x="919.5" y="363.3" width="53.9" height="0.7" fill="#93c5fd" stroke="#60a5fa" stroke-width="0.5"/><rect x="975.4" y="363.3" width="53.9" height="0.7" fill="#93c5fd" stroke="#60a5fa" stroke-width="0.5"/><rect x="1031.3" y="363.1" width="53.9" height="0.9" fill="#93c5fd" stroke="#60a5fa" stroke-width="0.5"/><rect x="1087.2" y="360.2" width="53.9" height="3.8" fill="#93c5fd" stroke="#60a5fa" stroke-width="0.5"/><rect x="1143.1" y="52.0" width="53.9" height="312.0" fill="#93c5fd" stroke="#60a5fa" stroke-width="0.5"/><polyline fill="none" stroke="#ef4444" stroke-width="2" points="108.0,363.8 163.8,362.3 219.8,361.8 275.6,354.7 331.6,354.2 387.4,354.0 443.3,353.8 499.2,353.6 555.2,353.4 611.0,353.1 667.0,352.9 722.9,352.7 778.8,352.5 834.6,352.3 890.6,345.5 946.5,344.9 1002.4,344.2 1058.2,343.4 1114.1,339.9 1170.0,52.0"/><line x1="108.0" y1="364.0" x2="108.0" y2="370.0" stroke="#111827" stroke-width="1"/><text x="110.0" y="386.0" font-size="11" text-anchor="end" transform="rotate(-35 110.0 386.0)" font-family="sans-serif" fill="#374151">2026-04-16 23:00</text><line x1="275.6" y1="364.0" x2="275.6" y2="370.0" stroke="#111827" stroke-width="1"/><text x="277.6" y="386.0" font-size="11" text-anchor="end" transform="rotate(-35 277.6 386.0)" font-family="sans-serif" fill="#374151">2026-04-17 10:00</text><line x1="387.4" y1="364.0" x2="387.4" y2="370.0" stroke="#111827" stroke-width="1"/><text x="389.4" y="386.0" font-size="11" text-anchor="end" transform="rotate(-35 389.4 386.0)" font-family="sans-serif" fill="#374151">2026-04-17 14:00</text><line x1="555.2" y1="364.0" x2="555.2" y2="370.0" stroke="#111827" stroke-width="1"/><text x="557.2" y="386.0" font-size="11" text-anchor="end" transform="rotate(-35 557.2 386.0)" font-family="sans-serif" fill="#374151">2026-04-17 19:00</text><line x1="722.9" y1="364.0" x2="722.9" y2="370.0" stroke="#111827" stroke-width="1"/><text x="724.9" y="386.0" font-size="11" text-anchor="end" transform="rotate(-35 724.9 386.0)" font-family="sans-serif" fill="#374151">2026-04-18 00:00</text><line x1="890.6" y1="364.0" x2="890.6" y2="370.0" stroke="#111827" stroke-width="1"/><text x="892.6" y="386.0" font-size="11" text-anchor="end" transform="rotate(-35 892.6 386.0)" font-family="sans-serif" fill="#374151">2026-04-18 09:00</text><line x1="1002.4" y1="364.0" x2="1002.4" y2="370.0" stroke="#111827" stroke-width="1"/><text x="1004.4" y="386.0" font-size="11" text-anchor="end" transform="rotate(-35 1004.4 386.0)" font-family="sans-serif" fill="#374151">2026-04-18 12:00</text><line x1="1170.0" y1="364.0" x2="1170.0" y2="370.0" stroke="#111827" stroke-width="1"/><text x="1172.0" y="386.0" font-size="11" text-anchor="end" transform="rotate(-35 1172.0 386.0)" font-family="sans-serif" fill="#374151">2026-04-18 16:00</text><text x="26" y="208.0" font-size="12" transform="rotate(-90 26 208.0)" text-anchor="middle" font-family="sans-serif" fill="#1f2937">구간별 수</text><text x="1256.0" y="208.0" font-size="12" transform="rotate(90 1256.0 208.0)" text-anchor="middle" font-family="sans-serif" fill="#1f2937">누적</text><text x="639.0" y="442.0" font-size="13" text-anchor="middle" font-family="sans-serif" fill="#111827">시간</text></svg>