<svg xmlns="http://www.w3.org/2000/svg" width="1280" height="460" viewBox="0 0 1280 460"><rect x="0" y="0" width="100%" height="100%" fill="#ffffff"/><text x="640.0" y="28" font-size="20" text-anchor="middle" font-family="sans-serif" fill="#111827">시리즈 / 최근 반영 시점 / 시간별</text><line x1="80.0" y1="52.0" x2="1198.0" y2="52.0" stroke="#e5e7eb" stroke-width="1"/><text x="72.0" y="56.0" font-size="11" text-anchor="end" font-family="sans-serif" fill="#374151">1,223</text><text x="1206.0" y="56.0" font-size="11" text-anchor="start" font-family="sans-serif" fill="#374151">1,417</text><line x1="80.0" y1="114.4" x2="1198.0" y2="114.4" stroke="#e5e7eb" stroke-width="1"/><text x="72.0" y="118.4" font-size="11" text-anchor="end" font-family="sans-serif" fill="#374151">978</text><text x="1206.0" y="118.4" font-size="11" text-anchor="start" font-family="sans-serif" fill="#374151">1,134</text><line x1="80.0" y1="176.8" x2="1198.0" y2="176.8" stroke="#e5e7eb" stroke-width="1"/><text x="72.0" y="180.8" font-size="11" text-anchor="end" font-family="sans-serif" fill="#374151">734</text><text x="1206.0" y="180.8" font-size="11" text-anchor="start" font-family="sans-serif" fill="#374151">850</text><line x1="80.0" y1="239.2" x2="1198.0" y2="239.2" stroke="#e5e7eb" stroke-width="1"/><text x="72.0" y="243.2" font-size="11" text-anchor="end" font-family="sans-serif" fill="#374151">489</text><text x="1206.0" y="243.2" font-size="11" text-anchor="start" font-family="sans-serif" fill="#374151">567</text><line x1="80.0" y1="301.6" x2="1198.0" y2="301.6" stroke="#e5e7eb" stroke-width="1"/><text x="72.0" y="305.6" font-size="11" text-anchor="end" font-family="sans-serif" fill="#374151">245</text><text x="1206.0" y="305.6" font-size="11" text-anchor="start" font-family="sans-serif" fill="#374151">283</text><line x1="80.0" y1="364.0" x2="1198.0" y2="364.0" stroke="#e5e7eb" stroke-width="1"/><text x="72.0" y="368.0" font-size="11" text-anchor="end" font-family="sans-serif" fill="#374151">0</text><text x="1206.0" y="368.0" font-size="11" text-anchor="start" font-family="sans-serif" fill="#374151">0</text><line x1="80.0" y1="364.0" x2="1198.0" y2="364.0" stroke="#111827" stroke-width="1.2"/><line x1="80.0" y1="52.0" x2="80.0" y2="364.0" stroke="#111827" stroke-width="1.2"/><line x1="1198.0" y1="52.0" x2="1198.0" y2="364.0" stroke="#111827" stroke-width="1.2"/><rect x="81.0" y="363.7" width="51.2" height="0.3" fill="#93c5fd" stroke="#60a5fa" stroke-width="0.5"/><rect x="134.2" y="363.7" width="51.2" height="0.3" fill="#93c5fd" stroke="#60a5fa" stroke-width="0.5"/><rect x="187.5" y="363.0" width="51.2" height="1.0" fill="#93c5fd" stroke="#60a5fa" stroke-width="0.5"/><rect x="240.7" y="362.2" width="51.2" height="1.8" fill="#93c5fd" stroke="#60a5fa" stroke-width="0.5"/><rect x="294.0" y="363.7" width="51.2" height="0.3" fill="#93c5fd" stroke="#60a5fa" stroke-width="0.5"/><rect x="347.2" y="353.3" width="51.2" height="10.7" fill="#93c5fd" stroke="#60a5fa" stroke-width="0.5"/><rect x="400.4" y="363.7" width="51.2" height="0.3" fill="#93c5fd" stroke="#60a5fa" stroke-width="0.5"/><rect x="453.7" y="363.7" width="51.2" height="0.3" fill="#93c5fd" stroke="#60a5fa" stroke-width="0.5"/><rect x="506.9" y="363.7" width="51.2" height="0.3" fill="#93c5fd" stroke="#60a5fa" stroke-width="0.5"/><rect x="560.1" y="363.2" width="51.2" height="0.8" fill="#93c5fd" stroke="#60a5fa" stroke-width="0.5"/><rect x="613.4" y="363.7" width="51.2" height="0.3" fill="#93c5fd" stroke="#60a5fa" stroke-width="0.5"/><rect x="666.6" y="363.7" width="51.2" height="0.3" fill="#93c5fd" stroke="#60a5fa" stroke-width="0.5"/><rect x="719.9" y="363.2" width="51.2" height="0.8" fill="#93c5fd" stroke="#60a5fa" stroke-width="0.5"/><rect x="773.1" y="363.7" width="51.2" height="0.3" fill="#93c5fd" stroke="#60a5fa" stroke-width="0.5"/><rect x="826.3" y="363.2" width="51.2" height="0.8" fill="#93c5fd" stroke="#60a5fa" stroke-width="0.5"/><rect x="879.6" y="363.7" width="51.2" height="0.3" fill="#93c5fd" stroke="#60a5fa" stroke-width="0.5"/><rect x="932.8" y="362.7" width="51.2" height="1.3" fill="#93c5fd" stroke="#60a5fa" stroke-width="0.5"/><rect x="986.0" y="362.7" width="51.2" height="1.3" fill="#93c5fd" stroke="#60a5fa" stroke-width="0.5"/><rect x="1039.3" y="363.0" width="51.2" height="1.0" fill="#93c5fd" stroke="#60a5fa" stroke-width="0.5"/><rect x="1092.5" y="336.4" width="51.2" height="27.6" fill="#93c5fd" stroke="#60a5fa" stroke-width="0.5"/><rect x="1145.8" y="52.0" width="51.2" height="312.0" fill="#93c5fd" stroke="#60a5fa" stroke-width="0.5"/><polyline fill="none" stroke="#ef4444" stroke-width="2" points="106.6,363.8 159.9,363.6 213.1,362.7 266.3,361.1 319.6,360.9 372.8,351.7 426.0,351.4 479.3,351.2 532.5,351.0 585.8,350.3 639.0,350.1 692.2,349.9 745.5,349.2 798.7,349.0 852.0,348.4 905.2,348.1 958.4,347.0 1011.7,345.9 1064.9,345.1 1118.1,321.3 1171.4,52.0"/><line x1="106.6" y1="364.0" x2="106.6" y2="370.0" stroke="#111827" stroke-width="1"/><text x="108.6" y="386.0" font-size="11" text-anchor="end" transform="rotate(-35 108.6 386.0)" font-family="sans-serif" fill="#374151">2026-04-10 02:00</text><line x1="266.3" y1="364.0" x2="266.3" y2="370.0" stroke="#111827" stroke-width="1"/><text x="268.3" y="386.0" font-size="11" text-anchor="end" transform="rotate(-35 268.3 386.0)" font-family="sans-serif" fill="#374151">2026-04-10 16:00</text><line x1="426.0" y1="364.0" x2="426.0" y2="370.0" stroke="#111827" stroke-width="1"/><text x="428.0" y="386.0" font-size="11" text-anchor="end" transform="rotate(-35 428.0 386.0)" font-family="sans-serif" fill="#374151">2026-04-10 19:00</text><line x1="585.8" y1="364.0" x2="585.8" y2="370.0" stroke="#111827" stroke-width="1"/><text x="587.8" y="386.0" font-size="11" text-anchor="end" transform="rotate(-35 587.8 386.0)" font-family="sans-serif" fill="#374151">2026-04-11 03:00</text><line x1="692.2" y1="364.0" x2="692.2" y2="370.0" stroke="#111827" stroke-width="1"/><text x="694.2" y="386.0" font-size="11" text-anchor="end" transform="rotate(-35 694.2 386.0)" font-family="sans-serif" fill="#374151">2026-04-11 09:00</text><line x1="852.0" y1="364.0" x2="852.0" y2="370.0" stroke="#111827" stroke-width="1"/><text x="854.0" y="386.0" font-size="11" text-anchor="end" transform="rotate(-35 854.0 386.0)" font-family="sans-serif" fill="#374151">2026-04-11 19:00</text><line x1="1011.7" y1="364.0" x2="1011.7" y2="370.0" stroke="#111827" stroke-width="1"/><text x="1013.7" y="386.0" font-size="11" text-anchor="end" transform="rotate(-35 1013.7 386.0)" font-family="sans-serif" fill="#374151">2026-04-11 23:00</text><line x1="1171.4" y1="364.0" x2="1171.4" y2="370.0" stroke="#111827" stroke-width="1"/><text x="1173.4" y="386.0" font-size="11" text-anchor="end" transform="rotate(-35 1173.4 386.0)" font-family="sans-serif" fill="#374151">2026-04-12 06:00</text><text x="26" y="208.0" font-size="12" transform="rotate(-90 26 208.0)" text-anchor="middle" font-family="sans-serif" fill="#1f2937">구간별 수</text><text x="1256.0" y="208.0" font-size="12" transform="rotate(90 1256.0 208.0)" text-anchor="middle" font-family="sans-serif" fill="#1f2937">누적</text><text x="639.0" y="442.0" font-size="13" text-anchor="middle" font-family="sans-serif" fill="#111827">시간</text></svg>