<svg xmlns="http://www.w3.org/2000/svg" width="1280" height="460" viewBox="0 0 1280 460"><rect x="0" y="0" width="100%" height="100%" fill="#ffffff"/><text x="640.0" y="28" font-size="20" text-anchor="middle" font-family="sans-serif" fill="#111827">시리즈 / 최근 반영 시점 / 시간별</text><line x1="80.0" y1="52.0" x2="1198.0" y2="52.0" stroke="#e5e7eb" stroke-width="1"/><text x="72.0" y="56.0" font-size="11" text-anchor="end" font-family="sans-serif" fill="#374151">1,242</text><text x="1206.0" y="56.0" font-size="11" text-anchor="start" font-family="sans-serif" fill="#374151">1,440</text><line x1="80.0" y1="114.4" x2="1198.0" y2="114.4" stroke="#e5e7eb" stroke-width="1"/><text x="72.0" y="118.4" font-size="11" text-anchor="end" font-family="sans-serif" fill="#374151">994</text><text x="1206.0" y="118.4" font-size="11" text-anchor="start" font-family="sans-serif" fill="#374151">1,152</text><line x1="80.0" y1="176.8" x2="1198.0" y2="176.8" stroke="#e5e7eb" stroke-width="1"/><text x="72.0" y="180.8" font-size="11" text-anchor="end" font-family="sans-serif" fill="#374151">745</text><text x="1206.0" y="180.8" font-size="11" text-anchor="start" font-family="sans-serif" fill="#374151">864</text><line x1="80.0" y1="239.2" x2="1198.0" y2="239.2" stroke="#e5e7eb" stroke-width="1"/><text x="72.0" y="243.2" font-size="11" text-anchor="end" font-family="sans-serif" fill="#374151">497</text><text x="1206.0" y="243.2" font-size="11" text-anchor="start" font-family="sans-serif" fill="#374151">576</text><line x1="80.0" y1="301.6" x2="1198.0" y2="301.6" stroke="#e5e7eb" stroke-width="1"/><text x="72.0" y="305.6" font-size="11" text-anchor="end" font-family="sans-serif" fill="#374151">248</text><text x="1206.0" y="305.6" font-size="11" text-anchor="start" font-family="sans-serif" fill="#374151">288</text><line x1="80.0" y1="364.0" x2="1198.0" y2="364.0" stroke="#e5e7eb" stroke-width="1"/><text x="72.0" y="368.0" font-size="11" text-anchor="end" font-family="sans-serif" fill="#374151">0</text><text x="1206.0" y="368.0" font-size="11" text-anchor="start" font-family="sans-serif" fill="#374151">0</text><line x1="80.0" y1="364.0" x2="1198.0" y2="364.0" stroke="#111827" stroke-width="1.2"/><line x1="80.0" y1="52.0" x2="80.0" y2="364.0" stroke="#111827" stroke-width="1.2"/><line x1="1198.0" y1="52.0" x2="1198.0" y2="364.0" stroke="#111827" stroke-width="1.2"/><rect x="81.0" y="363.7" width="44.6" height="0.3" fill="#93c5fd" stroke="#60a5fa" stroke-width="0.5"/><rect x="127.6" y="363.2" width="44.6" height="0.8" fill="#93c5fd" stroke="#60a5fa" stroke-width="0.5"/><rect x="174.2" y="357.2" width="44.6" height="6.8" fill="#93c5fd" stroke="#60a5fa" stroke-width="0.5"/><rect x="220.8" y="357.2" width="44.6" height="6.8" fill="#93c5fd" stroke="#60a5fa" stroke-width="0.5"/><rect x="267.3" y="363.7" width="44.6" height="0.3" fill="#93c5fd" stroke="#60a5fa" stroke-width="0.5"/><rect x="313.9" y="363.5" width="44.6" height="0.5" fill="#93c5fd" stroke="#60a5fa" stroke-width="0.5"/><rect x="360.5" y="363.7" width="44.6" height="0.3" fill="#93c5fd" stroke="#60a5fa" stroke-width="0.5"/><rect x="407.1" y="363.7" width="44.6" height="0.3" fill="#93c5fd" stroke="#60a5fa" stroke-width="0.5"/><rect x="453.7" y="363.7" width="44.6" height="0.3" fill="#93c5fd" stroke="#60a5fa" stroke-width="0.5"/><rect x="500.2" y="363.7" width="44.6" height="0.3" fill="#93c5fd" stroke="#60a5fa" stroke-width="0.5"/><rect x="546.8" y="363.7" width="44.6" height="0.3" fill="#93c5fd" stroke="#60a5fa" stroke-width="0.5"/><rect x="593.4" y="363.5" width="44.6" height="0.5" fill="#93c5fd" stroke="#60a5fa" stroke-width="0.5"/><rect x="640.0" y="363.7" width="44.6" height="0.3" fill="#93c5fd" stroke="#60a5fa" stroke-width="0.5"/><rect x="686.6" y="363.0" width="44.6" height="1.0" fill="#93c5fd" stroke="#60a5fa" stroke-width="0.5"/><rect x="733.2" y="363.2" width="44.6" height="0.8" fill="#93c5fd" stroke="#60a5fa" stroke-width="0.5"/><rect x="779.8" y="363.7" width="44.6" height="0.3" fill="#93c5fd" stroke="#60a5fa" stroke-width="0.5"/><rect x="826.3" y="363.0" width="44.6" height="1.0" fill="#93c5fd" stroke="#60a5fa" stroke-width="0.5"/><rect x="872.9" y="363.5" width="44.6" height="0.5" fill="#93c5fd" stroke="#60a5fa" stroke-width="0.5"/><rect x="919.5" y="363.5" width="44.6" height="0.5" fill="#93c5fd" stroke="#60a5fa" stroke-width="0.5"/><rect x="966.1" y="362.0" width="44.6" height="2.0" fill="#93c5fd" stroke="#60a5fa" stroke-width="0.5"/><rect x="1012.7" y="362.7" width="44.6" height="1.3" fill="#93c5fd" stroke="#60a5fa" stroke-width="0.5"/><rect x="1059.2" y="346.4" width="44.6" height="17.6" fill="#93c5fd" stroke="#60a5fa" stroke-width="0.5"/><rect x="1105.8" y="356.5" width="44.6" height="7.5" fill="#93c5fd" stroke="#60a5fa" stroke-width="0.5"/><rect x="1152.4" y="52.0" width="44.6" height="312.0" fill="#93c5fd" stroke="#60a5fa" stroke-width="0.5"/><polyline fill="none" stroke="#ef4444" stroke-width="2" points="103.3,363.8 149.9,363.1 196.5,357.3 243.0,351.4 289.6,351.2 336.2,350.8 382.8,350.6 429.4,350.4 476.0,350.1 522.5,349.9 569.1,349.7 615.7,349.3 662.3,349.1 708.9,348.2 755.5,347.5 802.0,347.3 848.6,346.4 895.2,346.0 941.8,345.6 988.4,343.9 1035.0,342.8 1081.5,327.6 1128.1,321.1 1174.7,52.0"/><line x1="103.3" y1="364.0" x2="103.3" y2="370.0" stroke="#111827" stroke-width="1"/><text x="105.3" y="386.0" font-size="11" text-anchor="end" transform="rotate(-35 105.3 386.0)" font-family="sans-serif" fill="#374151">2026-04-16 23:00</text><line x1="243.0" y1="364.0" x2="243.0" y2="370.0" stroke="#111827" stroke-width="1"/><text x="245.0" y="386.0" font-size="11" text-anchor="end" transform="rotate(-35 245.0 386.0)" font-family="sans-serif" fill="#374151">2026-04-18 09:00</text><line x1="429.4" y1="364.0" x2="429.4" y2="370.0" stroke="#111827" stroke-width="1"/><text x="431.4" y="386.0" font-size="11" text-anchor="end" transform="rotate(-35 431.4 386.0)" font-family="sans-serif" fill="#374151">2026-04-19 13:00</text><line x1="569.1" y1="364.0" x2="569.1" y2="370.0" stroke="#111827" stroke-width="1"/><text x="571.1" y="386.0" font-size="11" text-anchor="end" transform="rotate(-35 571.1 386.0)" font-family="sans-serif" fill="#374151">2026-04-19 23:00</text><line x1="708.9" y1="364.0" x2="708.9" y2="370.0" stroke="#111827" stroke-width="1"/><text x="710.9" y="386.0" font-size="11" text-anchor="end" transform="rotate(-35 710.9 386.0)" font-family="sans-serif" fill="#374151">2026-04-20 12:00</text><line x1="848.6" y1="364.0" x2="848.6" y2="370.0" stroke="#111827" stroke-width="1"/><text x="850.6" y="386.0" font-size="11" text-anchor="end" transform="rotate(-35 850.6 386.0)" font-family="sans-serif" fill="#374151">2026-04-20 21:00</text><line x1="1035.0" y1="364.0" x2="1035.0" y2="370.0" stroke="#111827" stroke-width="1"/><text x="1037.0" y="386.0" font-size="11" text-anchor="end" transform="rotate(-35 1037.0 386.0)" font-family="sans-serif" fill="#374151">2026-04-21 03:00</text><line x1="1174.7" y1="364.0" x2="1174.7" y2="370.0" stroke="#111827" stroke-width="1"/><text x="1176.7" y="386.0" font-size="11" text-anchor="end" transform="rotate(-35 1176.7 386.0)" font-family="sans-serif" fill="#374151">2026-04-21 06:00</text><text x="26" y="208.0" font-size="12" transform="rotate(-90 26 208.0)" text-anchor="middle" font-family="sans-serif" fill="#1f2937">구간별 수</text><text x="1256.0" y="208.0" font-size="12" transform="rotate(90 1256.0 208.0)" text-anchor="middle" font-family="sans-serif" fill="#1f2937">누적</text><text x="639.0" y="442.0" font-size="13" text-anchor="middle" font-family="sans-serif" fill="#111827">시간</text></svg>