<svg xmlns="http://www.w3.org/2000/svg" width="1280" height="460" viewBox="0 0 1280 460"><rect x="0" y="0" width="100%" height="100%" fill="#ffffff"/><text x="640.0" y="28" font-size="20" text-anchor="middle" font-family="sans-serif" fill="#111827">시리즈 / 최근 반영 시점 / 시간별</text><line x1="80.0" y1="52.0" x2="1198.0" y2="52.0" stroke="#e5e7eb" stroke-width="1"/><text x="72.0" y="56.0" font-size="11" text-anchor="end" font-family="sans-serif" fill="#374151">1,303</text><text x="1206.0" y="56.0" font-size="11" text-anchor="start" font-family="sans-serif" fill="#374151">1,417</text><line x1="80.0" y1="114.4" x2="1198.0" y2="114.4" stroke="#e5e7eb" stroke-width="1"/><text x="72.0" y="118.4" font-size="11" text-anchor="end" font-family="sans-serif" fill="#374151">1,042</text><text x="1206.0" y="118.4" font-size="11" text-anchor="start" font-family="sans-serif" fill="#374151">1,134</text><line x1="80.0" y1="176.8" x2="1198.0" y2="176.8" stroke="#e5e7eb" stroke-width="1"/><text x="72.0" y="180.8" font-size="11" text-anchor="end" font-family="sans-serif" fill="#374151">782</text><text x="1206.0" y="180.8" font-size="11" text-anchor="start" font-family="sans-serif" fill="#374151">850</text><line x1="80.0" y1="239.2" x2="1198.0" y2="239.2" stroke="#e5e7eb" stroke-width="1"/><text x="72.0" y="243.2" font-size="11" text-anchor="end" font-family="sans-serif" fill="#374151">521</text><text x="1206.0" y="243.2" font-size="11" text-anchor="start" font-family="sans-serif" fill="#374151">567</text><line x1="80.0" y1="301.6" x2="1198.0" y2="301.6" stroke="#e5e7eb" stroke-width="1"/><text x="72.0" y="305.6" font-size="11" text-anchor="end" font-family="sans-serif" fill="#374151">261</text><text x="1206.0" y="305.6" font-size="11" text-anchor="start" font-family="sans-serif" fill="#374151">283</text><line x1="80.0" y1="364.0" x2="1198.0" y2="364.0" stroke="#e5e7eb" stroke-width="1"/><text x="72.0" y="368.0" font-size="11" text-anchor="end" font-family="sans-serif" fill="#374151">0</text><text x="1206.0" y="368.0" font-size="11" text-anchor="start" font-family="sans-serif" fill="#374151">0</text><line x1="80.0" y1="364.0" x2="1198.0" y2="364.0" stroke="#111827" stroke-width="1.2"/><line x1="80.0" y1="52.0" x2="80.0" y2="364.0" stroke="#111827" stroke-width="1.2"/><line x1="1198.0" y1="52.0" x2="1198.0" y2="364.0" stroke="#111827" stroke-width="1.2"/><rect x="81.0" y="363.8" width="60.1" height="0.2" fill="#93c5fd" stroke="#60a5fa" stroke-width="0.5"/><rect x="143.1" y="363.8" width="60.1" height="0.2" fill="#93c5fd" stroke="#60a5fa" stroke-width="0.5"/><rect x="205.2" y="363.0" width="60.1" height="1.0" fill="#93c5fd" stroke="#60a5fa" stroke-width="0.5"/><rect x="267.3" y="362.3" width="60.1" height="1.7" fill="#93c5fd" stroke="#60a5fa" stroke-width="0.5"/><rect x="329.4" y="363.8" width="60.1" height="0.2" fill="#93c5fd" stroke="#60a5fa" stroke-width="0.5"/><rect x="391.6" y="353.0" width="60.1" height="11.0" fill="#93c5fd" stroke="#60a5fa" stroke-width="0.5"/><rect x="453.7" y="363.3" width="60.1" height="0.7" fill="#93c5fd" stroke="#60a5fa" stroke-width="0.5"/><rect x="515.8" y="363.5" width="60.1" height="0.5" fill="#93c5fd" stroke="#60a5fa" stroke-width="0.5"/><rect x="577.9" y="363.5" width="60.1" height="0.5" fill="#93c5fd" stroke="#60a5fa" stroke-width="0.5"/><rect x="640.0" y="363.5" width="60.1" height="0.5" fill="#93c5fd" stroke="#60a5fa" stroke-width="0.5"/><rect x="702.1" y="362.6" width="60.1" height="1.4" fill="#93c5fd" stroke="#60a5fa" stroke-width="0.5"/><rect x="764.2" y="363.8" width="60.1" height="0.2" fill="#93c5fd" stroke="#60a5fa" stroke-width="0.5"/><rect x="826.3" y="363.8" width="60.1" height="0.2" fill="#93c5fd" stroke="#60a5fa" stroke-width="0.5"/><rect x="888.4" y="363.3" width="60.1" height="0.7" fill="#93c5fd" stroke="#60a5fa" stroke-width="0.5"/><rect x="950.6" y="363.8" width="60.1" height="0.2" fill="#93c5fd" stroke="#60a5fa" stroke-width="0.5"/><rect x="1012.7" y="360.9" width="60.1" height="3.1" fill="#93c5fd" stroke="#60a5fa" stroke-width="0.5"/><rect x="1074.8" y="359.2" width="60.1" height="4.8" fill="#93c5fd" stroke="#60a5fa" stroke-width="0.5"/><rect x="1136.9" y="52.0" width="60.1" height="312.0" fill="#93c5fd" stroke="#60a5fa" stroke-width="0.5"/><polyline fill="none" stroke="#ef4444" stroke-width="2" points="111.1,363.8 173.2,363.6 235.3,362.7 297.4,361.1 359.5,360.9 421.6,350.8 483.7,350.1 545.8,349.7 607.9,349.2 670.1,348.8 732.2,347.5 794.3,347.3 856.4,347.0 918.5,346.4 980.6,346.2 1042.7,343.3 1104.8,338.9 1166.9,52.0"/><line x1="111.1" y1="364.0" x2="111.1" y2="370.0" stroke="#111827" stroke-width="1"/><text x="113.1" y="386.0" font-size="11" text-anchor="end" transform="rotate(-35 113.1 386.0)" font-family="sans-serif" fill="#374151">2026-04-10 02:00</text><line x1="235.3" y1="364.0" x2="235.3" y2="370.0" stroke="#111827" stroke-width="1"/><text x="237.3" y="386.0" font-size="11" text-anchor="end" transform="rotate(-35 237.3 386.0)" font-family="sans-serif" fill="#374151">2026-04-10 15:00</text><line x1="421.6" y1="364.0" x2="421.6" y2="370.0" stroke="#111827" stroke-width="1"/><text x="423.6" y="386.0" font-size="11" text-anchor="end" transform="rotate(-35 423.6 386.0)" font-family="sans-serif" fill="#374151">2026-04-10 18:00</text><line x1="545.8" y1="364.0" x2="545.8" y2="370.0" stroke="#111827" stroke-width="1"/><text x="547.8" y="386.0" font-size="11" text-anchor="end" transform="rotate(-35 547.8 386.0)" font-family="sans-serif" fill="#374151">2026-04-10 21:00</text><line x1="732.2" y1="364.0" x2="732.2" y2="370.0" stroke="#111827" stroke-width="1"/><text x="734.2" y="386.0" font-size="11" text-anchor="end" transform="rotate(-35 734.2 386.0)" font-family="sans-serif" fill="#374151">2026-04-11 03:00</text><line x1="856.4" y1="364.0" x2="856.4" y2="370.0" stroke="#111827" stroke-width="1"/><text x="858.4" y="386.0" font-size="11" text-anchor="end" transform="rotate(-35 858.4 386.0)" font-family="sans-serif" fill="#374151">2026-04-11 06:00</text><line x1="1042.7" y1="364.0" x2="1042.7" y2="370.0" stroke="#111827" stroke-width="1"/><text x="1044.7" y="386.0" font-size="11" text-anchor="end" transform="rotate(-35 1044.7 386.0)" font-family="sans-serif" fill="#374151">2026-04-11 11:00</text><line x1="1166.9" y1="364.0" x2="1166.9" y2="370.0" stroke="#111827" stroke-width="1"/><text x="1168.9" y="386.0" font-size="11" text-anchor="end" transform="rotate(-35 1168.9 386.0)" font-family="sans-serif" fill="#374151">2026-04-11 13:00</text><text x="26" y="208.0" font-size="12" transform="rotate(-90 26 208.0)" text-anchor="middle" font-family="sans-serif" fill="#1f2937">구간별 수</text><text x="1256.0" y="208.0" font-size="12" transform="rotate(90 1256.0 208.0)" text-anchor="middle" font-family="sans-serif" fill="#1f2937">누적</text><text x="639.0" y="442.0" font-size="13" text-anchor="middle" font-family="sans-serif" fill="#111827">시간</text></svg>