<svg xmlns="http://www.w3.org/2000/svg" width="1280" height="460" viewBox="0 0 1280 460"><rect x="0" y="0" width="100%" height="100%" fill="#ffffff"/><text x="640.0" y="28" font-size="20" text-anchor="middle" font-family="sans-serif" fill="#111827">시리즈 / 최근 반영 시점 / 시간별</text><line x1="80.0" y1="52.0" x2="1198.0" y2="52.0" stroke="#e5e7eb" stroke-width="1"/><text x="72.0" y="56.0" font-size="11" text-anchor="end" font-family="sans-serif" fill="#374151">820</text><text x="1206.0" y="56.0" font-size="11" text-anchor="start" font-family="sans-serif" fill="#374151">1,421</text><line x1="80.0" y1="114.4" x2="1198.0" y2="114.4" stroke="#e5e7eb" stroke-width="1"/><text x="72.0" y="118.4" font-size="11" text-anchor="end" font-family="sans-serif" fill="#374151">656</text><text x="1206.0" y="118.4" font-size="11" text-anchor="start" font-family="sans-serif" fill="#374151">1,137</text><line x1="80.0" y1="176.8" x2="1198.0" y2="176.8" stroke="#e5e7eb" stroke-width="1"/><text x="72.0" y="180.8" font-size="11" text-anchor="end" font-family="sans-serif" fill="#374151">492</text><text x="1206.0" y="180.8" font-size="11" text-anchor="start" font-family="sans-serif" fill="#374151">853</text><line x1="80.0" y1="239.2" x2="1198.0" y2="239.2" stroke="#e5e7eb" stroke-width="1"/><text x="72.0" y="243.2" font-size="11" text-anchor="end" font-family="sans-serif" fill="#374151">328</text><text x="1206.0" y="243.2" font-size="11" text-anchor="start" font-family="sans-serif" fill="#374151">568</text><line x1="80.0" y1="301.6" x2="1198.0" y2="301.6" stroke="#e5e7eb" stroke-width="1"/><text x="72.0" y="305.6" font-size="11" text-anchor="end" font-family="sans-serif" fill="#374151">164</text><text x="1206.0" y="305.6" font-size="11" text-anchor="start" font-family="sans-serif" fill="#374151">284</text><line x1="80.0" y1="364.0" x2="1198.0" y2="364.0" stroke="#e5e7eb" stroke-width="1"/><text x="72.0" y="368.0" font-size="11" text-anchor="end" font-family="sans-serif" fill="#374151">0</text><text x="1206.0" y="368.0" font-size="11" text-anchor="start" font-family="sans-serif" fill="#374151">0</text><line x1="80.0" y1="364.0" x2="1198.0" y2="364.0" stroke="#111827" stroke-width="1.2"/><line x1="80.0" y1="52.0" x2="80.0" y2="364.0" stroke="#111827" stroke-width="1.2"/><line x1="1198.0" y1="52.0" x2="1198.0" y2="364.0" stroke="#111827" stroke-width="1.2"/><rect x="81.0" y="363.6" width="37.9" height="0.4" fill="#93c5fd" stroke="#60a5fa" stroke-width="0.5"/><rect x="120.9" y="363.6" width="37.9" height="0.4" fill="#93c5fd" stroke="#60a5fa" stroke-width="0.5"/><rect x="160.9" y="363.2" width="37.9" height="0.8" fill="#93c5fd" stroke="#60a5fa" stroke-width="0.5"/><rect x="200.8" y="362.5" width="37.9" height="1.5" fill="#93c5fd" stroke="#60a5fa" stroke-width="0.5"/><rect x="240.7" y="363.6" width="37.9" height="0.4" fill="#93c5fd" stroke="#60a5fa" stroke-width="0.5"/><rect x="280.6" y="348.0" width="37.9" height="16.0" fill="#93c5fd" stroke="#60a5fa" stroke-width="0.5"/><rect x="320.6" y="363.6" width="37.9" height="0.4" fill="#93c5fd" stroke="#60a5fa" stroke-width="0.5"/><rect x="360.5" y="363.6" width="37.9" height="0.4" fill="#93c5fd" stroke="#60a5fa" stroke-width="0.5"/><rect x="400.4" y="363.6" width="37.9" height="0.4" fill="#93c5fd" stroke="#60a5fa" stroke-width="0.5"/><rect x="440.4" y="363.2" width="37.9" height="0.8" fill="#93c5fd" stroke="#60a5fa" stroke-width="0.5"/><rect x="480.3" y="363.6" width="37.9" height="0.4" fill="#93c5fd" stroke="#60a5fa" stroke-width="0.5"/><rect x="520.2" y="363.6" width="37.9" height="0.4" fill="#93c5fd" stroke="#60a5fa" stroke-width="0.5"/><rect x="560.1" y="363.6" width="37.9" height="0.4" fill="#93c5fd" stroke="#60a5fa" stroke-width="0.5"/><rect x="600.1" y="362.9" width="37.9" height="1.1" fill="#93c5fd" stroke="#60a5fa" stroke-width="0.5"/><rect x="640.0" y="363.2" width="37.9" height="0.8" fill="#93c5fd" stroke="#60a5fa" stroke-width="0.5"/><rect x="679.9" y="363.6" width="37.9" height="0.4" fill="#93c5fd" stroke="#60a5fa" stroke-width="0.5"/><rect x="719.9" y="363.6" width="37.9" height="0.4" fill="#93c5fd" stroke="#60a5fa" stroke-width="0.5"/><rect x="759.8" y="363.6" width="37.9" height="0.4" fill="#93c5fd" stroke="#60a5fa" stroke-width="0.5"/><rect x="799.7" y="362.1" width="37.9" height="1.9" fill="#93c5fd" stroke="#60a5fa" stroke-width="0.5"/><rect x="839.6" y="362.9" width="37.9" height="1.1" fill="#93c5fd" stroke="#60a5fa" stroke-width="0.5"/><rect x="879.6" y="362.5" width="37.9" height="1.5" fill="#93c5fd" stroke="#60a5fa" stroke-width="0.5"/><rect x="919.5" y="363.6" width="37.9" height="0.4" fill="#93c5fd" stroke="#60a5fa" stroke-width="0.5"/><rect x="959.4" y="362.9" width="37.9" height="1.1" fill="#93c5fd" stroke="#60a5fa" stroke-width="0.5"/><rect x="999.4" y="362.5" width="37.9" height="1.5" fill="#93c5fd" stroke="#60a5fa" stroke-width="0.5"/><rect x="1039.3" y="361.0" width="37.9" height="3.0" fill="#93c5fd" stroke="#60a5fa" stroke-width="0.5"/><rect x="1079.2" y="361.7" width="37.9" height="2.3" fill="#93c5fd" stroke="#60a5fa" stroke-width="0.5"/><rect x="1119.1" y="173.8" width="37.9" height="190.2" fill="#93c5fd" stroke="#60a5fa" stroke-width="0.5"/><rect x="1159.1" y="52.0" width="37.9" height="312.0" fill="#93c5fd" stroke="#60a5fa" stroke-width="0.5"/><polyline fill="none" stroke="#ef4444" stroke-width="2" points="100.0,363.8 139.9,363.6 179.8,363.1 219.8,362.2 259.7,362.0 299.6,352.8 339.5,352.6 379.5,352.4 419.4,352.1 459.3,351.7 499.3,351.5 539.2,351.3 579.1,351.0 619.0,350.4 659.0,349.9 698.9,349.7 738.8,349.5 778.8,349.3 818.7,348.2 858.6,347.5 898.5,346.7 938.5,346.4 978.4,345.8 1018.3,344.9 1058.2,343.1 1098.2,341.8 1138.1,232.0 1178.0,52.0"/><line x1="100.0" y1="364.0" x2="100.0" y2="370.0" stroke="#111827" stroke-width="1"/><text x="102.0" y="386.0" font-size="11" text-anchor="end" transform="rotate(-35 102.0 386.0)" font-family="sans-serif" fill="#374151">2026-04-10 02:00</text><line x1="259.7" y1="364.0" x2="259.7" y2="370.0" stroke="#111827" stroke-width="1"/><text x="261.7" y="386.0" font-size="11" text-anchor="end" transform="rotate(-35 261.7 386.0)" font-family="sans-serif" fill="#374151">2026-04-10 17:00</text><line x1="419.4" y1="364.0" x2="419.4" y2="370.0" stroke="#111827" stroke-width="1"/><text x="421.4" y="386.0" font-size="11" text-anchor="end" transform="rotate(-35 421.4 386.0)" font-family="sans-serif" fill="#374151">2026-04-11 13:00</text><line x1="579.1" y1="364.0" x2="579.1" y2="370.0" stroke="#111827" stroke-width="1"/><text x="581.1" y="386.0" font-size="11" text-anchor="end" transform="rotate(-35 581.1 386.0)" font-family="sans-serif" fill="#374151">2026-04-12 11:00</text><line x1="698.9" y1="364.0" x2="698.9" y2="370.0" stroke="#111827" stroke-width="1"/><text x="700.9" y="386.0" font-size="11" text-anchor="end" transform="rotate(-35 700.9 386.0)" font-family="sans-serif" fill="#374151">2026-04-12 18:00</text><line x1="858.6" y1="364.0" x2="858.6" y2="370.0" stroke="#111827" stroke-width="1"/><text x="860.6" y="386.0" font-size="11" text-anchor="end" transform="rotate(-35 860.6 386.0)" font-family="sans-serif" fill="#374151">2026-04-13 04:00</text><line x1="1018.3" y1="364.0" x2="1018.3" y2="370.0" stroke="#111827" stroke-width="1"/><text x="1020.3" y="386.0" font-size="11" text-anchor="end" transform="rotate(-35 1020.3 386.0)" font-family="sans-serif" fill="#374151">2026-04-13 12:00</text><line x1="1178.0" y1="364.0" x2="1178.0" y2="370.0" stroke="#111827" stroke-width="1"/><text x="1180.0" y="386.0" font-size="11" text-anchor="end" transform="rotate(-35 1180.0 386.0)" font-family="sans-serif" fill="#374151">2026-04-13 20:00</text><text x="26" y="208.0" font-size="12" transform="rotate(-90 26 208.0)" text-anchor="middle" font-family="sans-serif" fill="#1f2937">구간별 수</text><text x="1256.0" y="208.0" font-size="12" transform="rotate(90 1256.0 208.0)" text-anchor="middle" font-family="sans-serif" fill="#1f2937">누적</text><text x="639.0" y="442.0" font-size="13" text-anchor="middle" font-family="sans-serif" fill="#111827">시간</text></svg>