<svg xmlns="http://www.w3.org/2000/svg" width="1280" height="460" viewBox="0 0 1280 460"><rect x="0" y="0" width="100%" height="100%" fill="#ffffff"/><text x="640.0" y="28" font-size="20" text-anchor="middle" font-family="sans-serif" fill="#111827">시리즈 / 생성 시점 / 일별</text><line x1="80.0" y1="52.0" x2="1198.0" y2="52.0" stroke="#e5e7eb" stroke-width="1"/><text x="72.0" y="56.0" font-size="11" text-anchor="end" font-family="sans-serif" fill="#374151">70</text><text x="1206.0" y="56.0" font-size="11" text-anchor="start" font-family="sans-serif" fill="#374151">1,408</text><line x1="80.0" y1="114.4" x2="1198.0" y2="114.4" stroke="#e5e7eb" stroke-width="1"/><text x="72.0" y="118.4" font-size="11" text-anchor="end" font-family="sans-serif" fill="#374151">56</text><text x="1206.0" y="118.4" font-size="11" text-anchor="start" font-family="sans-serif" fill="#374151">1,126</text><line x1="80.0" y1="176.8" x2="1198.0" y2="176.8" stroke="#e5e7eb" stroke-width="1"/><text x="72.0" y="180.8" font-size="11" text-anchor="end" font-family="sans-serif" fill="#374151">42</text><text x="1206.0" y="180.8" font-size="11" text-anchor="start" font-family="sans-serif" fill="#374151">845</text><line x1="80.0" y1="239.2" x2="1198.0" y2="239.2" stroke="#e5e7eb" stroke-width="1"/><text x="72.0" y="243.2" font-size="11" text-anchor="end" font-family="sans-serif" fill="#374151">28</text><text x="1206.0" y="243.2" font-size="11" text-anchor="start" font-family="sans-serif" fill="#374151">563</text><line x1="80.0" y1="301.6" x2="1198.0" y2="301.6" stroke="#e5e7eb" stroke-width="1"/><text x="72.0" y="305.6" font-size="11" text-anchor="end" font-family="sans-serif" fill="#374151">14</text><text x="1206.0" y="305.6" font-size="11" text-anchor="start" font-family="sans-serif" fill="#374151">282</text><line x1="80.0" y1="364.0" x2="1198.0" y2="364.0" stroke="#e5e7eb" stroke-width="1"/><text x="72.0" y="368.0" font-size="11" text-anchor="end" font-family="sans-serif" fill="#374151">0</text><text x="1206.0" y="368.0" font-size="11" text-anchor="start" font-family="sans-serif" fill="#374151">0</text><line x1="80.0" y1="364.0" x2="1198.0" y2="364.0" stroke="#111827" stroke-width="1.2"/><line x1="80.0" y1="52.0" x2="80.0" y2="364.0" stroke="#111827" stroke-width="1.2"/><line x1="1198.0" y1="52.0" x2="1198.0" y2="364.0" stroke="#111827" stroke-width="1.2"/><rect x="80.0" y="346.2" width="4.4" height="17.8" fill="#93c5fd" stroke="#60a5fa" stroke-width="0.5"/><rect x="84.4" y="359.5" width="4.4" height="4.5" fill="#93c5fd" stroke="#60a5fa" stroke-width="0.5"/><rect x="88.9" y="359.5" width="4.4" height="4.5" fill="#93c5fd" stroke="#60a5fa" stroke-width="0.5"/><rect x="93.3" y="355.1" width="4.4" height="8.9" fill="#93c5fd" stroke="#60a5fa" stroke-width="0.5"/><rect x="97.7" y="359.5" width="4.4" height="4.5" fill="#93c5fd" stroke="#60a5fa" stroke-width="0.5"/><rect x="102.2" y="350.6" width="4.4" height="13.4" fill="#93c5fd" stroke="#60a5fa" stroke-width="0.5"/><rect x="106.6" y="359.5" width="4.4" height="4.5" fill="#93c5fd" stroke="#60a5fa" stroke-width="0.5"/><rect x="111.1" y="359.5" width="4.4" height="4.5" fill="#93c5fd" stroke="#60a5fa" stroke-width="0.5"/><rect x="115.5" y="359.5" width="4.4" height="4.5" fill="#93c5fd" stroke="#60a5fa" stroke-width="0.5"/><rect x="119.9" y="359.5" width="4.4" height="4.5" fill="#93c5fd" stroke="#60a5fa" stroke-width="0.5"/><rect x="124.4" y="359.5" width="4.4" height="4.5" fill="#93c5fd" stroke="#60a5fa" stroke-width="0.5"/><rect x="128.8" y="359.5" width="4.4" height="4.5" fill="#93c5fd" stroke="#60a5fa" stroke-width="0.5"/><rect x="133.2" y="359.5" width="4.4" height="4.5" fill="#93c5fd" stroke="#60a5fa" stroke-width="0.5"/><rect x="137.7" y="355.1" width="4.4" height="8.9" fill="#93c5fd" stroke="#60a5fa" stroke-width="0.5"/><rect x="142.1" y="346.2" width="4.4" height="17.8" fill="#93c5fd" stroke="#60a5fa" stroke-width="0.5"/><rect x="146.5" y="359.5" width="4.4" height="4.5" fill="#93c5fd" stroke="#60a5fa" stroke-width="0.5"/><rect x="151.0" y="359.5" width="4.4" height="4.5" fill="#93c5fd" stroke="#60a5fa" stroke-width="0.5"/><rect x="155.4" y="350.6" width="4.4" height="13.4" fill="#93c5fd" stroke="#60a5fa" stroke-width="0.5"/><rect x="159.9" y="341.7" width="4.4" height="22.3" fill="#93c5fd" stroke="#60a5fa" stroke-width="0.5"/><rect x="164.3" y="306.1" width="4.4" height="57.9" fill="#93c5fd" stroke="#60a5fa" stroke-width="0.5"/><rect x="168.7" y="355.1" width="4.4" height="8.9" fill="#93c5fd" stroke="#60a5fa" stroke-width="0.5"/><rect x="173.2" y="350.6" width="4.4" height="13.4" fill="#93c5fd" stroke="#60a5fa" stroke-width="0.5"/><rect x="177.6" y="359.5" width="4.4" height="4.5" fill="#93c5fd" stroke="#60a5fa" stroke-width="0.5"/><rect x="182.0" y="350.6" width="4.4" height="13.4" fill="#93c5fd" stroke="#60a5fa" stroke-width="0.5"/><rect x="186.5" y="359.5" width="4.4" height="4.5" fill="#93c5fd" stroke="#60a5fa" stroke-width="0.5"/><rect x="190.9" y="341.7" width="4.4" height="22.3" fill="#93c5fd" stroke="#60a5fa" stroke-width="0.5"/><rect x="195.3" y="359.5" width="4.4" height="4.5" fill="#93c5fd" stroke="#60a5fa" stroke-width="0.5"/><rect x="199.8" y="359.5" width="4.4" height="4.5" fill="#93c5fd" stroke="#60a5fa" stroke-width="0.5"/><rect x="204.2" y="359.5" width="4.4" height="4.5" fill="#93c5fd" stroke="#60a5fa" stroke-width="0.5"/><rect x="208.7" y="359.5" width="4.4" height="4.5" fill="#93c5fd" stroke="#60a5fa" stroke-width="0.5"/><rect x="213.1" y="359.5" width="4.4" height="4.5" fill="#93c5fd" stroke="#60a5fa" stroke-width="0.5"/><rect x="217.5" y="359.5" width="4.4" height="4.5" fill="#93c5fd" stroke="#60a5fa" stroke-width="0.5"/><rect x="222.0" y="359.5" width="4.4" height="4.5" fill="#93c5fd" stroke="#60a5fa" stroke-width="0.5"/><rect x="226.4" y="359.5" width="4.4" height="4.5" fill="#93c5fd" stroke="#60a5fa" stroke-width="0.5"/><rect x="230.8" y="359.5" width="4.4" height="4.5" fill="#93c5fd" stroke="#60a5fa" stroke-width="0.5"/><rect x="235.3" y="359.5" width="4.4" height="4.5" fill="#93c5fd" stroke="#60a5fa" stroke-width="0.5"/><rect x="239.7" y="359.5" width="4.4" height="4.5" fill="#93c5fd" stroke="#60a5fa" stroke-width="0.5"/><rect x="244.2" y="359.5" width="4.4" height="4.5" fill="#93c5fd" stroke="#60a5fa" stroke-width="0.5"/><rect x="248.6" y="359.5" width="4.4" height="4.5" fill="#93c5fd" stroke="#60a5fa" stroke-width="0.5"/><rect x="253.0" y="359.5" width="4.4" height="4.5" fill="#93c5fd" stroke="#60a5fa" stroke-width="0.5"/><rect x="257.5" y="350.6" width="4.4" height="13.4" fill="#93c5fd" stroke="#60a5fa" stroke-width="0.5"/><rect x="261.9" y="359.5" width="4.4" height="4.5" fill="#93c5fd" stroke="#60a5fa" stroke-width="0.5"/><rect x="266.3" y="359.5" width="4.4" height="4.5" fill="#93c5fd" stroke="#60a5fa" stroke-width="0.5"/><rect x="270.8" y="315.0" width="4.4" height="49.0" fill="#93c5fd" stroke="#60a5fa" stroke-width="0.5"/><rect x="275.2" y="359.5" width="4.4" height="4.5" fill="#93c5fd" stroke="#60a5fa" stroke-width="0.5"/><rect x="279.6" y="337.3" width="4.4" height="26.7" fill="#93c5fd" stroke="#60a5fa" stroke-width="0.5"/><rect x="284.1" y="328.3" width="4.4" height="35.7" fill="#93c5fd" stroke="#60a5fa" stroke-width="0.5"/><rect x="288.5" y="359.5" width="4.4" height="4.5" fill="#93c5fd" stroke="#60a5fa" stroke-width="0.5"/><rect x="293.0" y="355.1" width="4.4" height="8.9" fill="#93c5fd" stroke="#60a5fa" stroke-width="0.5"/><rect x="297.4" y="350.6" width="4.4" height="13.4" fill="#93c5fd" stroke="#60a5fa" stroke-width="0.5"/><rect x="301.8" y="355.1" width="4.4" height="8.9" fill="#93c5fd" stroke="#60a5fa" stroke-width="0.5"/><rect x="306.3" y="355.1" width="4.4" height="8.9" fill="#93c5fd" stroke="#60a5fa" stroke-width="0.5"/><rect x="310.7" y="350.6" width="4.4" height="13.4" fill="#93c5fd" stroke="#60a5fa" stroke-width="0.5"/><rect x="315.1" y="359.5" width="4.4" height="4.5" fill="#93c5fd" stroke="#60a5fa" stroke-width="0.5"/><rect x="319.6" y="359.5" width="4.4" height="4.5" fill="#93c5fd" stroke="#60a5fa" stroke-width="0.5"/><rect x="324.0" y="359.5" width="4.4" height="4.5" fill="#93c5fd" stroke="#60a5fa" stroke-width="0.5"/><rect x="328.4" y="359.5" width="4.4" height="4.5" fill="#93c5fd" stroke="#60a5fa" stroke-width="0.5"/><rect x="332.9" y="350.6" width="4.4" height="13.4" fill="#93c5fd" stroke="#60a5fa" stroke-width="0.5"/><rect x="337.3" y="359.5" width="4.4" height="4.5" fill="#93c5fd" stroke="#60a5fa" stroke-width="0.5"/><rect x="341.8" y="328.3" width="4.4" height="35.7" fill="#93c5fd" stroke="#60a5fa" stroke-width="0.5"/><rect x="346.2" y="359.5" width="4.4" height="4.5" fill="#93c5fd" stroke="#60a5fa" stroke-width="0.5"/><rect x="350.6" y="359.5" width="4.4" height="4.5" fill="#93c5fd" stroke="#60a5fa" stroke-width="0.5"/><rect x="355.1" y="359.5" width="4.4" height="4.5" fill="#93c5fd" stroke="#60a5fa" stroke-width="0.5"/><rect x="359.5" y="350.6" width="4.4" height="13.4" fill="#93c5fd" stroke="#60a5fa" stroke-width="0.5"/><rect x="363.9" y="359.5" width="4.4" height="4.5" fill="#93c5fd" stroke="#60a5fa" stroke-width="0.5"/><rect x="368.4" y="359.5" width="4.4" height="4.5" fill="#93c5fd" stroke="#60a5fa" stroke-width="0.5"/><rect x="372.8" y="355.1" width="4.4" height="8.9" fill="#93c5fd" stroke="#60a5fa" stroke-width="0.5"/><rect x="377.2" y="350.6" width="4.4" height="13.4" fill="#93c5fd" stroke="#60a5fa" stroke-width="0.5"/><rect x="381.7" y="359.5" width="4.4" height="4.5" fill="#93c5fd" stroke="#60a5fa" stroke-width="0.5"/><rect x="386.1" y="350.6" width="4.4" height="13.4" fill="#93c5fd" stroke="#60a5fa" stroke-width="0.5"/><rect x="390.6" y="355.1" width="4.4" height="8.9" fill="#93c5fd" stroke="#60a5fa" stroke-width="0.5"/><rect x="395.0" y="350.6" width="4.4" height="13.4" fill="#93c5fd" stroke="#60a5fa" stroke-width="0.5"/><rect x="399.4" y="359.5" width="4.4" height="4.5" fill="#93c5fd" stroke="#60a5fa" stroke-width="0.5"/><rect x="403.9" y="319.4" width="4.4" height="44.6" fill="#93c5fd" stroke="#60a5fa" stroke-width="0.5"/><rect x="408.3" y="346.2" width="4.4" height="17.8" fill="#93c5fd" stroke="#60a5fa" stroke-width="0.5"/><rect x="412.7" y="346.2" width="4.4" height="17.8" fill="#93c5fd" stroke="#60a5fa" stroke-width="0.5"/><rect x="417.2" y="359.5" width="4.4" height="4.5" fill="#93c5fd" stroke="#60a5fa" stroke-width="0.5"/><rect x="421.6" y="359.5" width="4.4" height="4.5" fill="#93c5fd" stroke="#60a5fa" stroke-width="0.5"/><rect x="426.0" y="359.5" width="4.4" height="4.5" fill="#93c5fd" stroke="#60a5fa" stroke-width="0.5"/><rect x="430.5" y="355.1" width="4.4" height="8.9" fill="#93c5fd" stroke="#60a5fa" stroke-width="0.5"/><rect x="434.9" y="355.1" width="4.4" height="8.9" fill="#93c5fd" stroke="#60a5fa" stroke-width="0.5"/><rect x="439.4" y="350.6" width="4.4" height="13.4" fill="#93c5fd" stroke="#60a5fa" stroke-width="0.5"/><rect x="443.8" y="355.1" width="4.4" height="8.9" fill="#93c5fd" stroke="#60a5fa" stroke-width="0.5"/><rect x="448.2" y="350.6" width="4.4" height="13.4" fill="#93c5fd" stroke="#60a5fa" stroke-width="0.5"/><rect x="452.7" y="359.5" width="4.4" height="4.5" fill="#93c5fd" stroke="#60a5fa" stroke-width="0.5"/><rect x="457.1" y="355.1" width="4.4" height="8.9" fill="#93c5fd" stroke="#60a5fa" stroke-width="0.5"/><rect x="461.5" y="359.5" width="4.4" height="4.5" fill="#93c5fd" stroke="#60a5fa" stroke-width="0.5"/><rect x="466.0" y="337.3" width="4.4" height="26.7" fill="#93c5fd" stroke="#60a5fa" stroke-width="0.5"/><rect x="470.4" y="359.5" width="4.4" height="4.5" fill="#93c5fd" stroke="#60a5fa" stroke-width="0.5"/><rect x="474.8" y="359.5" width="4.4" height="4.5" fill="#93c5fd" stroke="#60a5fa" stroke-width="0.5"/><rect x="479.3" y="359.5" width="4.4" height="4.5" fill="#93c5fd" stroke="#60a5fa" stroke-width="0.5"/><rect x="483.7" y="359.5" width="4.4" height="4.5" fill="#93c5fd" stroke="#60a5fa" stroke-width="0.5"/><rect x="488.2" y="359.5" width="4.4" height="4.5" fill="#93c5fd" stroke="#60a5fa" stroke-width="0.5"/><rect x="492.6" y="337.3" width="4.4" height="26.7" fill="#93c5fd" stroke="#60a5fa" stroke-width="0.5"/><rect x="497.0" y="359.5" width="4.4" height="4.5" fill="#93c5fd" stroke="#60a5fa" stroke-width="0.5"/><rect x="501.5" y="346.2" width="4.4" height="17.8" fill="#93c5fd" stroke="#60a5fa" stroke-width="0.5"/><rect x="505.9" y="319.4" width="4.4" height="44.6" fill="#93c5fd" stroke="#60a5fa" stroke-width="0.5"/><rect x="510.3" y="328.3" width="4.4" height="35.7" fill="#93c5fd" stroke="#60a5fa" stroke-width="0.5"/><rect x="514.8" y="355.1" width="4.4" height="8.9" fill="#93c5fd" stroke="#60a5fa" stroke-width="0.5"/><rect x="519.2" y="355.1" width="4.4" height="8.9" fill="#93c5fd" stroke="#60a5fa" stroke-width="0.5"/><rect x="523.7" y="355.1" width="4.4" height="8.9" fill="#93c5fd" stroke="#60a5fa" stroke-width="0.5"/><rect x="528.1" y="355.1" width="4.4" height="8.9" fill="#93c5fd" stroke="#60a5fa" stroke-width="0.5"/><rect x="532.5" y="350.6" width="4.4" height="13.4" fill="#93c5fd" stroke="#60a5fa" stroke-width="0.5"/><rect x="537.0" y="341.7" width="4.4" height="22.3" fill="#93c5fd" stroke="#60a5fa" stroke-width="0.5"/><rect x="541.4" y="359.5" width="4.4" height="4.5" fill="#93c5fd" stroke="#60a5fa" stroke-width="0.5"/><rect x="545.8" y="323.9" width="4.4" height="40.1" fill="#93c5fd" stroke="#60a5fa" stroke-width="0.5"/><rect x="550.3" y="355.1" width="4.4" height="8.9" fill="#93c5fd" stroke="#60a5fa" stroke-width="0.5"/><rect x="554.7" y="346.2" width="4.4" height="17.8" fill="#93c5fd" stroke="#60a5fa" stroke-width="0.5"/><rect x="559.1" y="355.1" width="4.4" height="8.9" fill="#93c5fd" stroke="#60a5fa" stroke-width="0.5"/><rect x="563.6" y="359.5" width="4.4" height="4.5" fill="#93c5fd" stroke="#60a5fa" stroke-width="0.5"/><rect x="568.0" y="359.5" width="4.4" height="4.5" fill="#93c5fd" stroke="#60a5fa" stroke-width="0.5"/><rect x="572.5" y="355.1" width="4.4" height="8.9" fill="#93c5fd" stroke="#60a5fa" stroke-width="0.5"/><rect x="576.9" y="350.6" width="4.4" height="13.4" fill="#93c5fd" stroke="#60a5fa" stroke-width="0.5"/><rect x="581.3" y="355.1" width="4.4" height="8.9" fill="#93c5fd" stroke="#60a5fa" stroke-width="0.5"/><rect x="585.8" y="315.0" width="4.4" height="49.0" fill="#93c5fd" stroke="#60a5fa" stroke-width="0.5"/><rect x="590.2" y="319.4" width="4.4" height="44.6" fill="#93c5fd" stroke="#60a5fa" stroke-width="0.5"/><rect x="594.6" y="346.2" width="4.4" height="17.8" fill="#93c5fd" stroke="#60a5fa" stroke-width="0.5"/><rect x="599.1" y="359.5" width="4.4" height="4.5" fill="#93c5fd" stroke="#60a5fa" stroke-width="0.5"/><rect x="603.5" y="328.3" width="4.4" height="35.7" fill="#93c5fd" stroke="#60a5fa" stroke-width="0.5"/><rect x="607.9" y="328.3" width="4.4" height="35.7" fill="#93c5fd" stroke="#60a5fa" stroke-width="0.5"/><rect x="612.4" y="257.0" width="4.4" height="107.0" fill="#93c5fd" stroke="#60a5fa" stroke-width="0.5"/><rect x="616.8" y="355.1" width="4.4" height="8.9" fill="#93c5fd" stroke="#60a5fa" stroke-width="0.5"/><rect x="621.3" y="341.7" width="4.4" height="22.3" fill="#93c5fd" stroke="#60a5fa" stroke-width="0.5"/><rect x="625.7" y="350.6" width="4.4" height="13.4" fill="#93c5fd" stroke="#60a5fa" stroke-width="0.5"/><rect x="630.1" y="306.1" width="4.4" height="57.9" fill="#93c5fd" stroke="#60a5fa" stroke-width="0.5"/><rect x="634.6" y="337.3" width="4.4" height="26.7" fill="#93c5fd" stroke="#60a5fa" stroke-width="0.5"/><rect x="639.0" y="301.6" width="4.4" height="62.4" fill="#93c5fd" stroke="#60a5fa" stroke-width="0.5"/><rect x="643.4" y="319.4" width="4.4" height="44.6" fill="#93c5fd" stroke="#60a5fa" stroke-width="0.5"/><rect x="647.9" y="355.1" width="4.4" height="8.9" fill="#93c5fd" stroke="#60a5fa" stroke-width="0.5"/><rect x="652.3" y="359.5" width="4.4" height="4.5" fill="#93c5fd" stroke="#60a5fa" stroke-width="0.5"/><rect x="656.7" y="341.7" width="4.4" height="22.3" fill="#93c5fd" stroke="#60a5fa" stroke-width="0.5"/><rect x="661.2" y="306.1" width="4.4" height="57.9" fill="#93c5fd" stroke="#60a5fa" stroke-width="0.5"/><rect x="665.6" y="346.2" width="4.4" height="17.8" fill="#93c5fd" stroke="#60a5fa" stroke-width="0.5"/><rect x="670.1" y="257.0" width="4.4" height="107.0" fill="#93c5fd" stroke="#60a5fa" stroke-width="0.5"/><rect x="674.5" y="341.7" width="4.4" height="22.3" fill="#93c5fd" stroke="#60a5fa" stroke-width="0.5"/><rect x="678.9" y="52.0" width="4.4" height="312.0" fill="#93c5fd" stroke="#60a5fa" stroke-width="0.5"/><rect x="683.4" y="288.2" width="4.4" height="75.8" fill="#93c5fd" stroke="#60a5fa" stroke-width="0.5"/><rect x="687.8" y="350.6" width="4.4" height="13.4" fill="#93c5fd" stroke="#60a5fa" stroke-width="0.5"/><rect x="692.2" y="355.1" width="4.4" height="8.9" fill="#93c5fd" stroke="#60a5fa" stroke-width="0.5"/><rect x="696.7" y="181.3" width="4.4" height="182.7" fill="#93c5fd" stroke="#60a5fa" stroke-width="0.5"/><rect x="701.1" y="337.3" width="4.4" height="26.7" fill="#93c5fd" stroke="#60a5fa" stroke-width="0.5"/><rect x="705.5" y="350.6" width="4.4" height="13.4" fill="#93c5fd" stroke="#60a5fa" stroke-width="0.5"/><rect x="710.0" y="355.1" width="4.4" height="8.9" fill="#93c5fd" stroke="#60a5fa" stroke-width="0.5"/><rect x="714.4" y="346.2" width="4.4" height="17.8" fill="#93c5fd" stroke="#60a5fa" stroke-width="0.5"/><rect x="718.9" y="328.3" width="4.4" height="35.7" fill="#93c5fd" stroke="#60a5fa" stroke-width="0.5"/><rect x="723.3" y="359.5" width="4.4" height="4.5" fill="#93c5fd" stroke="#60a5fa" stroke-width="0.5"/><rect x="727.7" y="359.5" width="4.4" height="4.5" fill="#93c5fd" stroke="#60a5fa" stroke-width="0.5"/><rect x="732.2" y="346.2" width="4.4" height="17.8" fill="#93c5fd" stroke="#60a5fa" stroke-width="0.5"/><rect x="736.6" y="341.7" width="4.4" height="22.3" fill="#93c5fd" stroke="#60a5fa" stroke-width="0.5"/><rect x="741.0" y="337.3" width="4.4" height="26.7" fill="#93c5fd" stroke="#60a5fa" stroke-width="0.5"/><rect x="745.5" y="337.3" width="4.4" height="26.7" fill="#93c5fd" stroke="#60a5fa" stroke-width="0.5"/><rect x="749.9" y="359.5" width="4.4" height="4.5" fill="#93c5fd" stroke="#60a5fa" stroke-width="0.5"/><rect x="754.3" y="341.7" width="4.4" height="22.3" fill="#93c5fd" stroke="#60a5fa" stroke-width="0.5"/><rect x="758.8" y="332.8" width="4.4" height="31.2" fill="#93c5fd" stroke="#60a5fa" stroke-width="0.5"/><rect x="763.2" y="332.8" width="4.4" height="31.2" fill="#93c5fd" stroke="#60a5fa" stroke-width="0.5"/><rect x="767.7" y="328.3" width="4.4" height="35.7" fill="#93c5fd" stroke="#60a5fa" stroke-width="0.5"/><rect x="772.1" y="323.9" width="4.4" height="40.1" fill="#93c5fd" stroke="#60a5fa" stroke-width="0.5"/><rect x="776.5" y="332.8" width="4.4" height="31.2" fill="#93c5fd" stroke="#60a5fa" stroke-width="0.5"/><rect x="781.0" y="346.2" width="4.4" height="17.8" fill="#93c5fd" stroke="#60a5fa" stroke-width="0.5"/><rect x="785.4" y="350.6" width="4.4" height="13.4" fill="#93c5fd" stroke="#60a5fa" stroke-width="0.5"/><rect x="789.8" y="350.6" width="4.4" height="13.4" fill="#93c5fd" stroke="#60a5fa" stroke-width="0.5"/><rect x="794.3" y="332.8" width="4.4" height="31.2" fill="#93c5fd" stroke="#60a5fa" stroke-width="0.5"/><rect x="798.7" y="359.5" width="4.4" height="4.5" fill="#93c5fd" stroke="#60a5fa" stroke-width="0.5"/><rect x="803.2" y="350.6" width="4.4" height="13.4" fill="#93c5fd" stroke="#60a5fa" stroke-width="0.5"/><rect x="807.6" y="355.1" width="4.4" height="8.9" fill="#93c5fd" stroke="#60a5fa" stroke-width="0.5"/><rect x="812.0" y="355.1" width="4.4" height="8.9" fill="#93c5fd" stroke="#60a5fa" stroke-width="0.5"/><rect x="816.5" y="355.1" width="4.4" height="8.9" fill="#93c5fd" stroke="#60a5fa" stroke-width="0.5"/><rect x="820.9" y="355.1" width="4.4" height="8.9" fill="#93c5fd" stroke="#60a5fa" stroke-width="0.5"/><rect x="825.3" y="359.5" width="4.4" height="4.5" fill="#93c5fd" stroke="#60a5fa" stroke-width="0.5"/><rect x="829.8" y="359.5" width="4.4" height="4.5" fill="#93c5fd" stroke="#60a5fa" stroke-width="0.5"/><rect x="834.2" y="337.3" width="4.4" height="26.7" fill="#93c5fd" stroke="#60a5fa" stroke-width="0.5"/><rect x="838.6" y="355.1" width="4.4" height="8.9" fill="#93c5fd" stroke="#60a5fa" stroke-width="0.5"/><rect x="843.1" y="328.3" width="4.4" height="35.7" fill="#93c5fd" stroke="#60a5fa" stroke-width="0.5"/><rect x="847.5" y="350.6" width="4.4" height="13.4" fill="#93c5fd" stroke="#60a5fa" stroke-width="0.5"/><rect x="852.0" y="328.3" width="4.4" height="35.7" fill="#93c5fd" stroke="#60a5fa" stroke-width="0.5"/><rect x="856.4" y="332.8" width="4.4" height="31.2" fill="#93c5fd" stroke="#60a5fa" stroke-width="0.5"/><rect x="860.8" y="328.3" width="4.4" height="35.7" fill="#93c5fd" stroke="#60a5fa" stroke-width="0.5"/><rect x="865.3" y="341.7" width="4.4" height="22.3" fill="#93c5fd" stroke="#60a5fa" stroke-width="0.5"/><rect x="869.7" y="355.1" width="4.4" height="8.9" fill="#93c5fd" stroke="#60a5fa" stroke-width="0.5"/><rect x="874.1" y="355.1" width="4.4" height="8.9" fill="#93c5fd" stroke="#60a5fa" stroke-width="0.5"/><rect x="878.6" y="319.4" width="4.4" height="44.6" fill="#93c5fd" stroke="#60a5fa" stroke-width="0.5"/><rect x="883.0" y="315.0" width="4.4" height="49.0" fill="#93c5fd" stroke="#60a5fa" stroke-width="0.5"/><rect x="887.4" y="328.3" width="4.4" height="35.7" fill="#93c5fd" stroke="#60a5fa" stroke-width="0.5"/><rect x="891.9" y="323.9" width="4.4" height="40.1" fill="#93c5fd" stroke="#60a5fa" stroke-width="0.5"/><rect x="896.3" y="341.7" width="4.4" height="22.3" fill="#93c5fd" stroke="#60a5fa" stroke-width="0.5"/><rect x="900.8" y="359.5" width="4.4" height="4.5" fill="#93c5fd" stroke="#60a5fa" stroke-width="0.5"/><rect x="905.2" y="350.6" width="4.4" height="13.4" fill="#93c5fd" stroke="#60a5fa" stroke-width="0.5"/><rect x="909.6" y="359.5" width="4.4" height="4.5" fill="#93c5fd" stroke="#60a5fa" stroke-width="0.5"/><rect x="914.1" y="346.2" width="4.4" height="17.8" fill="#93c5fd" stroke="#60a5fa" stroke-width="0.5"/><rect x="918.5" y="346.2" width="4.4" height="17.8" fill="#93c5fd" stroke="#60a5fa" stroke-width="0.5"/><rect x="922.9" y="341.7" width="4.4" height="22.3" fill="#93c5fd" stroke="#60a5fa" stroke-width="0.5"/><rect x="927.4" y="359.5" width="4.4" height="4.5" fill="#93c5fd" stroke="#60a5fa" stroke-width="0.5"/><rect x="931.8" y="359.5" width="4.4" height="4.5" fill="#93c5fd" stroke="#60a5fa" stroke-width="0.5"/><rect x="936.2" y="315.0" width="4.4" height="49.0" fill="#93c5fd" stroke="#60a5fa" stroke-width="0.5"/><rect x="940.7" y="230.3" width="4.4" height="133.7" fill="#93c5fd" stroke="#60a5fa" stroke-width="0.5"/><rect x="945.1" y="297.1" width="4.4" height="66.9" fill="#93c5fd" stroke="#60a5fa" stroke-width="0.5"/><rect x="949.6" y="359.5" width="4.4" height="4.5" fill="#93c5fd" stroke="#60a5fa" stroke-width="0.5"/><rect x="954.0" y="319.4" width="4.4" height="44.6" fill="#93c5fd" stroke="#60a5fa" stroke-width="0.5"/><rect x="958.4" y="355.1" width="4.4" height="8.9" fill="#93c5fd" stroke="#60a5fa" stroke-width="0.5"/><rect x="962.9" y="341.7" width="4.4" height="22.3" fill="#93c5fd" stroke="#60a5fa" stroke-width="0.5"/><rect x="967.3" y="315.0" width="4.4" height="49.0" fill="#93c5fd" stroke="#60a5fa" stroke-width="0.5"/><rect x="971.7" y="350.6" width="4.4" height="13.4" fill="#93c5fd" stroke="#60a5fa" stroke-width="0.5"/><rect x="976.2" y="279.3" width="4.4" height="84.7" fill="#93c5fd" stroke="#60a5fa" stroke-width="0.5"/><rect x="980.6" y="132.2" width="4.4" height="231.8" fill="#93c5fd" stroke="#60a5fa" stroke-width="0.5"/><rect x="985.0" y="359.5" width="4.4" height="4.5" fill="#93c5fd" stroke="#60a5fa" stroke-width="0.5"/><rect x="989.5" y="212.5" width="4.4" height="151.5" fill="#93c5fd" stroke="#60a5fa" stroke-width="0.5"/><rect x="993.9" y="355.1" width="4.4" height="8.9" fill="#93c5fd" stroke="#60a5fa" stroke-width="0.5"/><rect x="998.4" y="252.6" width="4.4" height="111.4" fill="#93c5fd" stroke="#60a5fa" stroke-width="0.5"/><rect x="1002.8" y="359.5" width="4.4" height="4.5" fill="#93c5fd" stroke="#60a5fa" stroke-width="0.5"/><rect x="1007.2" y="337.3" width="4.4" height="26.7" fill="#93c5fd" stroke="#60a5fa" stroke-width="0.5"/><rect x="1011.7" y="355.1" width="4.4" height="8.9" fill="#93c5fd" stroke="#60a5fa" stroke-width="0.5"/><rect x="1016.1" y="306.1" width="4.4" height="57.9" fill="#93c5fd" stroke="#60a5fa" stroke-width="0.5"/><rect x="1020.5" y="332.8" width="4.4" height="31.2" fill="#93c5fd" stroke="#60a5fa" stroke-width="0.5"/><rect x="1025.0" y="355.1" width="4.4" height="8.9" fill="#93c5fd" stroke="#60a5fa" stroke-width="0.5"/><rect x="1029.4" y="252.6" width="4.4" height="111.4" fill="#93c5fd" stroke="#60a5fa" stroke-width="0.5"/><rect x="1033.8" y="346.2" width="4.4" height="17.8" fill="#93c5fd" stroke="#60a5fa" stroke-width="0.5"/><rect x="1038.3" y="328.3" width="4.4" height="35.7" fill="#93c5fd" stroke="#60a5fa" stroke-width="0.5"/><rect x="1042.7" y="350.6" width="4.4" height="13.4" fill="#93c5fd" stroke="#60a5fa" stroke-width="0.5"/><rect x="1047.2" y="319.4" width="4.4" height="44.6" fill="#93c5fd" stroke="#60a5fa" stroke-width="0.5"/><rect x="1051.6" y="359.5" width="4.4" height="4.5" fill="#93c5fd" stroke="#60a5fa" stroke-width="0.5"/><rect x="1056.0" y="292.7" width="4.4" height="71.3" fill="#93c5fd" stroke="#60a5fa" stroke-width="0.5"/><rect x="1060.5" y="323.9" width="4.4" height="40.1" fill="#93c5fd" stroke="#60a5fa" stroke-width="0.5"/><rect x="1064.9" y="350.6" width="4.4" height="13.4" fill="#93c5fd" stroke="#60a5fa" stroke-width="0.5"/><rect x="1069.3" y="301.6" width="4.4" height="62.4" fill="#93c5fd" stroke="#60a5fa" stroke-width="0.5"/><rect x="1073.8" y="355.1" width="4.4" height="8.9" fill="#93c5fd" stroke="#60a5fa" stroke-width="0.5"/><rect x="1078.2" y="359.5" width="4.4" height="4.5" fill="#93c5fd" stroke="#60a5fa" stroke-width="0.5"/><rect x="1082.7" y="355.1" width="4.4" height="8.9" fill="#93c5fd" stroke="#60a5fa" stroke-width="0.5"/><rect x="1087.1" y="350.6" width="4.4" height="13.4" fill="#93c5fd" stroke="#60a5fa" stroke-width="0.5"/><rect x="1091.5" y="310.5" width="4.4" height="53.5" fill="#93c5fd" stroke="#60a5fa" stroke-width="0.5"/><rect x="1096.0" y="341.7" width="4.4" height="22.3" fill="#93c5fd" stroke="#60a5fa" stroke-width="0.5"/><rect x="1100.4" y="355.1" width="4.4" height="8.9" fill="#93c5fd" stroke="#60a5fa" stroke-width="0.5"/><rect x="1104.8" y="359.5" width="4.4" height="4.5" fill="#93c5fd" stroke="#60a5fa" stroke-width="0.5"/><rect x="1109.3" y="350.6" width="4.4" height="13.4" fill="#93c5fd" stroke="#60a5fa" stroke-width="0.5"/><rect x="1113.7" y="355.1" width="4.4" height="8.9" fill="#93c5fd" stroke="#60a5fa" stroke-width="0.5"/><rect x="1118.1" y="265.9" width="4.4" height="98.1" fill="#93c5fd" stroke="#60a5fa" stroke-width="0.5"/><rect x="1122.6" y="323.9" width="4.4" height="40.1" fill="#93c5fd" stroke="#60a5fa" stroke-width="0.5"/><rect x="1127.0" y="332.8" width="4.4" height="31.2" fill="#93c5fd" stroke="#60a5fa" stroke-width="0.5"/><rect x="1131.5" y="359.5" width="4.4" height="4.5" fill="#93c5fd" stroke="#60a5fa" stroke-width="0.5"/><rect x="1135.9" y="328.3" width="4.4" height="35.7" fill="#93c5fd" stroke="#60a5fa" stroke-width="0.5"/><rect x="1140.3" y="350.6" width="4.4" height="13.4" fill="#93c5fd" stroke="#60a5fa" stroke-width="0.5"/><rect x="1144.8" y="301.6" width="4.4" height="62.4" fill="#93c5fd" stroke="#60a5fa" stroke-width="0.5"/><rect x="1149.2" y="212.5" width="4.4" height="151.5" fill="#93c5fd" stroke="#60a5fa" stroke-width="0.5"/><rect x="1153.6" y="346.2" width="4.4" height="17.8" fill="#93c5fd" stroke="#60a5fa" stroke-width="0.5"/><rect x="1158.1" y="279.3" width="4.4" height="84.7" fill="#93c5fd" stroke="#60a5fa" stroke-width="0.5"/><rect x="1162.5" y="359.5" width="4.4" height="4.5" fill="#93c5fd" stroke="#60a5fa" stroke-width="0.5"/><rect x="1166.9" y="190.2" width="4.4" height="173.8" fill="#93c5fd" stroke="#60a5fa" stroke-width="0.5"/><rect x="1171.4" y="310.5" width="4.4" height="53.5" fill="#93c5fd" stroke="#60a5fa" stroke-width="0.5"/><rect x="1175.8" y="306.1" width="4.4" height="57.9" fill="#93c5fd" stroke="#60a5fa" stroke-width="0.5"/><rect x="1180.3" y="355.1" width="4.4" height="8.9" fill="#93c5fd" stroke="#60a5fa" stroke-width="0.5"/><rect x="1184.7" y="323.9" width="4.4" height="40.1" fill="#93c5fd" stroke="#60a5fa" stroke-width="0.5"/><rect x="1189.1" y="346.2" width="4.4" height="17.8" fill="#93c5fd" stroke="#60a5fa" stroke-width="0.5"/><rect x="1193.6" y="328.3" width="4.4" height="35.7" fill="#93c5fd" stroke="#60a5fa" stroke-width="0.5"/><polyline fill="none" stroke="#ef4444" stroke-width="2" points="82.2,363.1 86.7,362.9 91.1,362.7 95.5,362.2 100.0,362.0 104.4,361.3 108.8,361.1 113.3,360.9 117.7,360.7 122.1,360.5 126.6,360.2 131.0,360.0 135.5,359.8 139.9,359.3 144.3,358.5 148.8,358.2 153.2,358.0 157.6,357.4 162.1,356.2 166.5,353.4 170.9,352.9 175.4,352.3 179.8,352.0 184.3,351.4 188.7,351.1 193.1,350.0 197.6,349.8 202.0,349.6 206.4,349.4 210.9,349.2 215.3,348.9 219.8,348.7 224.2,348.5 228.6,348.3 233.1,348.0 237.5,347.8 241.9,347.6 246.4,347.4 250.8,347.2 255.2,346.9 259.7,346.3 264.1,346.1 268.6,345.8 273.0,343.4 277.4,343.2 281.9,341.8 286.3,340.1 290.7,339.8 295.2,339.4 299.6,338.7 304.0,338.3 308.5,337.9 312.9,337.2 317.4,337.0 321.8,336.7 326.2,336.5 330.7,336.3 335.1,335.6 339.5,335.4 344.0,333.6 348.4,333.4 352.8,333.2 357.3,333.0 361.7,332.3 366.2,332.1 370.6,331.9 375.0,331.4 379.5,330.8 383.9,330.5 388.3,329.9 392.8,329.4 397.2,328.8 401.6,328.5 406.1,326.3 410.5,325.4 415.0,324.6 419.4,324.3 423.8,324.1 428.3,323.9 432.7,323.4 437.1,323.0 441.6,322.3 446.0,321.9 450.4,321.2 454.9,321.0 459.3,320.6 463.8,320.3 468.2,319.0 472.6,318.8 477.1,318.6 481.5,318.4 485.9,318.1 490.4,317.9 494.8,316.6 499.2,316.4 503.7,315.5 508.1,313.3 512.6,311.5 517.0,311.0 521.4,310.6 525.9,310.2 530.3,309.7 534.7,309.0 539.2,307.9 543.6,307.7 548.1,305.7 552.5,305.3 556.9,304.4 561.4,303.9 565.8,303.7 570.2,303.5 574.7,303.1 579.1,302.4 583.5,302.0 588.0,299.5 592.4,297.3 596.9,296.4 601.3,296.2 605.7,294.4 610.2,292.6 614.6,287.3 619.0,286.9 623.5,285.8 627.9,285.1 632.3,282.2 636.8,280.9 641.2,277.8 645.7,275.6 650.1,275.1 654.5,274.9 659.0,273.8 663.4,270.9 667.8,270.0 672.3,264.7 676.7,263.6 681.1,248.1 685.6,244.3 690.0,243.7 694.5,243.2 698.9,234.1 703.3,232.8 707.8,232.2 712.2,231.7 716.6,230.8 721.1,229.1 725.5,228.8 729.9,228.6 734.4,227.7 738.8,226.6 743.3,225.3 747.7,224.0 752.1,223.7 756.6,222.6 761.0,221.1 765.4,219.5 769.9,217.8 774.3,215.8 778.8,214.2 783.2,213.3 787.6,212.7 792.1,212.0 796.5,210.4 800.9,210.2 805.4,209.6 809.8,209.1 814.2,208.7 818.7,208.2 823.1,207.8 827.6,207.6 832.0,207.3 836.4,206.0 840.9,205.6 845.3,203.8 849.7,203.1 854.2,201.4 858.6,199.8 863.0,198.0 867.5,196.9 871.9,196.5 876.4,196.0 880.8,193.8 885.2,191.4 889.7,189.6 894.1,187.6 898.5,186.5 903.0,186.3 907.4,185.6 911.8,185.4 916.3,184.5 920.7,183.6 925.2,182.5 929.6,182.3 934.0,182.1 938.5,179.6 942.9,173.0 947.3,169.7 951.8,169.4 956.2,167.2 960.6,166.8 965.1,165.7 969.5,163.2 974.0,162.6 978.4,158.4 982.8,146.8 987.3,146.6 991.7,139.1 996.1,138.6 1000.6,133.1 1005.0,132.9 1009.4,131.6 1013.9,131.1 1018.3,128.2 1022.8,126.7 1027.2,126.2 1031.6,120.7 1036.1,119.8 1040.5,118.0 1044.9,117.4 1049.4,115.2 1053.8,114.9 1058.2,111.4 1062.7,109.4 1067.1,108.7 1071.6,105.6 1076.0,105.2 1080.4,105.0 1084.9,104.5 1089.3,103.9 1093.7,101.2 1098.2,100.1 1102.6,99.6 1107.1,99.4 1111.5,98.8 1115.9,98.3 1120.4,93.4 1124.8,91.4 1129.2,89.9 1133.7,89.7 1138.1,87.9 1142.5,87.2 1147.0,84.1 1151.4,76.6 1155.9,75.7 1160.3,71.5 1164.7,71.3 1169.2,62.6 1173.6,60.0 1178.0,57.1 1182.5,56.7 1186.9,54.7 1191.3,53.8 1195.8,52.0"/><line x1="82.2" y1="364.0" x2="82.2" y2="370.0" stroke="#111827" stroke-width="1"/><text x="84.2" y="386.0" font-size="11" text-anchor="end" transform="rotate(-35 84.2 386.0)" font-family="sans-serif" fill="#374151">2022-10-13</text><line x1="241.9" y1="364.0" x2="241.9" y2="370.0" stroke="#111827" stroke-width="1"/><text x="243.9" y="386.0" font-size="11" text-anchor="end" transform="rotate(-35 243.9 386.0)" font-family="sans-serif" fill="#374151">2025-03-24</text><line x1="401.6" y1="364.0" x2="401.6" y2="370.0" stroke="#111827" stroke-width="1"/><text x="403.6" y="386.0" font-size="11" text-anchor="end" transform="rotate(-35 403.6 386.0)" font-family="sans-serif" fill="#374151">2025-07-17</text><line x1="561.4" y1="364.0" x2="561.4" y2="370.0" stroke="#111827" stroke-width="1"/><text x="563.4" y="386.0" font-size="11" text-anchor="end" transform="rotate(-35 563.4 386.0)" font-family="sans-serif" fill="#374151">2025-09-25</text><line x1="716.6" y1="364.0" x2="716.6" y2="370.0" stroke="#111827" stroke-width="1"/><text x="718.6" y="386.0" font-size="11" text-anchor="end" transform="rotate(-35 718.6 386.0)" font-family="sans-serif" fill="#374151">2025-11-17</text><line x1="876.4" y1="364.0" x2="876.4" y2="370.0" stroke="#111827" stroke-width="1"/><text x="878.4" y="386.0" font-size="11" text-anchor="end" transform="rotate(-35 878.4 386.0)" font-family="sans-serif" fill="#374151">2026-01-04</text><line x1="1036.1" y1="364.0" x2="1036.1" y2="370.0" stroke="#111827" stroke-width="1"/><text x="1038.1" y="386.0" font-size="11" text-anchor="end" transform="rotate(-35 1038.1 386.0)" font-family="sans-serif" fill="#374151">2026-02-13</text><line x1="1195.8" y1="364.0" x2="1195.8" y2="370.0" stroke="#111827" stroke-width="1"/><text x="1197.8" y="386.0" font-size="11" text-anchor="end" transform="rotate(-35 1197.8 386.0)" font-family="sans-serif" fill="#374151">2026-04-03</text><text x="26" y="208.0" font-size="12" transform="rotate(-90 26 208.0)" text-anchor="middle" font-family="sans-serif" fill="#1f2937">구간별 수</text><text x="1256.0" y="208.0" font-size="12" transform="rotate(90 1256.0 208.0)" text-anchor="middle" font-family="sans-serif" fill="#1f2937">누적</text><text x="639.0" y="442.0" font-size="13" text-anchor="middle" font-family="sans-serif" fill="#111827">일</text></svg>