<svg xmlns="http://www.w3.org/2000/svg" width="1280" height="460" viewBox="0 0 1280 460"><rect x="0" y="0" width="100%" height="100%" fill="#ffffff"/><text x="640.0" y="28" font-size="20" text-anchor="middle" font-family="sans-serif" fill="#111827">시리즈 / 최근 반영 시점 / 시간별</text><line x1="80.0" y1="52.0" x2="1198.0" y2="52.0" stroke="#e5e7eb" stroke-width="1"/><text x="72.0" y="56.0" font-size="11" text-anchor="end" font-family="sans-serif" fill="#374151">836</text><text x="1206.0" y="56.0" font-size="11" text-anchor="start" font-family="sans-serif" fill="#374151">1,436</text><line x1="80.0" y1="114.4" x2="1198.0" y2="114.4" stroke="#e5e7eb" stroke-width="1"/><text x="72.0" y="118.4" font-size="11" text-anchor="end" font-family="sans-serif" fill="#374151">669</text><text x="1206.0" y="118.4" font-size="11" text-anchor="start" font-family="sans-serif" fill="#374151">1,149</text><line x1="80.0" y1="176.8" x2="1198.0" y2="176.8" stroke="#e5e7eb" stroke-width="1"/><text x="72.0" y="180.8" font-size="11" text-anchor="end" font-family="sans-serif" fill="#374151">502</text><text x="1206.0" y="180.8" font-size="11" text-anchor="start" font-family="sans-serif" fill="#374151">862</text><line x1="80.0" y1="239.2" x2="1198.0" y2="239.2" stroke="#e5e7eb" stroke-width="1"/><text x="72.0" y="243.2" font-size="11" text-anchor="end" font-family="sans-serif" fill="#374151">334</text><text x="1206.0" y="243.2" font-size="11" text-anchor="start" font-family="sans-serif" fill="#374151">574</text><line x1="80.0" y1="301.6" x2="1198.0" y2="301.6" stroke="#e5e7eb" stroke-width="1"/><text x="72.0" y="305.6" font-size="11" text-anchor="end" font-family="sans-serif" fill="#374151">167</text><text x="1206.0" y="305.6" font-size="11" text-anchor="start" font-family="sans-serif" fill="#374151">287</text><line x1="80.0" y1="364.0" x2="1198.0" y2="364.0" stroke="#e5e7eb" stroke-width="1"/><text x="72.0" y="368.0" font-size="11" text-anchor="end" font-family="sans-serif" fill="#374151">0</text><text x="1206.0" y="368.0" font-size="11" text-anchor="start" font-family="sans-serif" fill="#374151">0</text><line x1="80.0" y1="364.0" x2="1198.0" y2="364.0" stroke="#111827" stroke-width="1.2"/><line x1="80.0" y1="52.0" x2="80.0" y2="364.0" stroke="#111827" stroke-width="1.2"/><line x1="1198.0" y1="52.0" x2="1198.0" y2="364.0" stroke="#111827" stroke-width="1.2"/><rect x="81.0" y="363.6" width="51.2" height="0.4" fill="#93c5fd" stroke="#60a5fa" stroke-width="0.5"/><rect x="134.2" y="361.8" width="51.2" height="2.2" fill="#93c5fd" stroke="#60a5fa" stroke-width="0.5"/><rect x="187.5" y="352.4" width="51.2" height="11.6" fill="#93c5fd" stroke="#60a5fa" stroke-width="0.5"/><rect x="240.7" y="363.3" width="51.2" height="0.7" fill="#93c5fd" stroke="#60a5fa" stroke-width="0.5"/><rect x="294.0" y="363.6" width="51.2" height="0.4" fill="#93c5fd" stroke="#60a5fa" stroke-width="0.5"/><rect x="347.2" y="363.6" width="51.2" height="0.4" fill="#93c5fd" stroke="#60a5fa" stroke-width="0.5"/><rect x="400.4" y="363.6" width="51.2" height="0.4" fill="#93c5fd" stroke="#60a5fa" stroke-width="0.5"/><rect x="453.7" y="363.6" width="51.2" height="0.4" fill="#93c5fd" stroke="#60a5fa" stroke-width="0.5"/><rect x="506.9" y="352.8" width="51.2" height="11.2" fill="#93c5fd" stroke="#60a5fa" stroke-width="0.5"/><rect x="560.1" y="363.6" width="51.2" height="0.4" fill="#93c5fd" stroke="#60a5fa" stroke-width="0.5"/><rect x="613.4" y="363.6" width="51.2" height="0.4" fill="#93c5fd" stroke="#60a5fa" stroke-width="0.5"/><rect x="666.6" y="363.3" width="51.2" height="0.7" fill="#93c5fd" stroke="#60a5fa" stroke-width="0.5"/><rect x="719.9" y="363.6" width="51.2" height="0.4" fill="#93c5fd" stroke="#60a5fa" stroke-width="0.5"/><rect x="773.1" y="363.6" width="51.2" height="0.4" fill="#93c5fd" stroke="#60a5fa" stroke-width="0.5"/><rect x="826.3" y="363.3" width="51.2" height="0.7" fill="#93c5fd" stroke="#60a5fa" stroke-width="0.5"/><rect x="879.6" y="363.3" width="51.2" height="0.7" fill="#93c5fd" stroke="#60a5fa" stroke-width="0.5"/><rect x="932.8" y="362.5" width="51.2" height="1.5" fill="#93c5fd" stroke="#60a5fa" stroke-width="0.5"/><rect x="986.0" y="362.5" width="51.2" height="1.5" fill="#93c5fd" stroke="#60a5fa" stroke-width="0.5"/><rect x="1039.3" y="361.0" width="51.2" height="3.0" fill="#93c5fd" stroke="#60a5fa" stroke-width="0.5"/><rect x="1092.5" y="52.0" width="51.2" height="312.0" fill="#93c5fd" stroke="#60a5fa" stroke-width="0.5"/><rect x="1145.8" y="177.4" width="51.2" height="186.6" fill="#93c5fd" stroke="#60a5fa" stroke-width="0.5"/><polyline fill="none" stroke="#ef4444" stroke-width="2" points="106.6,363.8 159.9,362.5 213.1,355.7 266.3,355.3 319.6,355.1 372.8,354.9 426.0,354.7 479.3,354.4 532.5,347.9 585.8,347.7 639.0,347.5 692.2,347.1 745.5,346.8 798.7,346.6 852.0,346.2 905.2,345.7 958.4,344.9 1011.7,344.0 1064.9,342.3 1118.1,160.6 1171.4,52.0"/><line x1="106.6" y1="364.0" x2="106.6" y2="370.0" stroke="#111827" stroke-width="1"/><text x="108.6" y="386.0" font-size="11" text-anchor="end" transform="rotate(-35 108.6 386.0)" font-family="sans-serif" fill="#374151">2026-04-16 23:00</text><line x1="266.3" y1="364.0" x2="266.3" y2="370.0" stroke="#111827" stroke-width="1"/><text x="268.3" y="386.0" font-size="11" text-anchor="end" transform="rotate(-35 268.3 386.0)" font-family="sans-serif" fill="#374151">2026-04-17 11:00</text><line x1="426.0" y1="364.0" x2="426.0" y2="370.0" stroke="#111827" stroke-width="1"/><text x="428.0" y="386.0" font-size="11" text-anchor="end" transform="rotate(-35 428.0 386.0)" font-family="sans-serif" fill="#374151">2026-04-18 06:00</text><line x1="585.8" y1="364.0" x2="585.8" y2="370.0" stroke="#111827" stroke-width="1"/><text x="587.8" y="386.0" font-size="11" text-anchor="end" transform="rotate(-35 587.8 386.0)" font-family="sans-serif" fill="#374151">2026-04-18 12:00</text><line x1="692.2" y1="364.0" x2="692.2" y2="370.0" stroke="#111827" stroke-width="1"/><text x="694.2" y="386.0" font-size="11" text-anchor="end" transform="rotate(-35 694.2 386.0)" font-family="sans-serif" fill="#374151">2026-04-18 15:00</text><line x1="852.0" y1="364.0" x2="852.0" y2="370.0" stroke="#111827" stroke-width="1"/><text x="854.0" y="386.0" font-size="11" text-anchor="end" transform="rotate(-35 854.0 386.0)" font-family="sans-serif" fill="#374151">2026-04-18 20:00</text><line x1="1011.7" y1="364.0" x2="1011.7" y2="370.0" stroke="#111827" stroke-width="1"/><text x="1013.7" y="386.0" font-size="11" text-anchor="end" transform="rotate(-35 1013.7 386.0)" font-family="sans-serif" fill="#374151">2026-04-19 00:00</text><line x1="1171.4" y1="364.0" x2="1171.4" y2="370.0" stroke="#111827" stroke-width="1"/><text x="1173.4" y="386.0" font-size="11" text-anchor="end" transform="rotate(-35 1173.4 386.0)" font-family="sans-serif" fill="#374151">2026-04-19 09:00</text><text x="26" y="208.0" font-size="12" transform="rotate(-90 26 208.0)" text-anchor="middle" font-family="sans-serif" fill="#1f2937">구간별 수</text><text x="1256.0" y="208.0" font-size="12" transform="rotate(90 1256.0 208.0)" text-anchor="middle" font-family="sans-serif" fill="#1f2937">누적</text><text x="639.0" y="442.0" font-size="13" text-anchor="middle" font-family="sans-serif" fill="#111827">시간</text></svg>