<svg xmlns="http://www.w3.org/2000/svg" width="1280" height="460" viewBox="0 0 1280 460"><rect x="0" y="0" width="100%" height="100%" fill="#ffffff"/><text x="640.0" y="28" font-size="20" text-anchor="middle" font-family="sans-serif" fill="#111827">시리즈 / 최근 반영 시점 / 시간별</text><line x1="80.0" y1="52.0" x2="1198.0" y2="52.0" stroke="#e5e7eb" stroke-width="1"/><text x="72.0" y="56.0" font-size="11" text-anchor="end" font-family="sans-serif" fill="#374151">1,334</text><text x="1206.0" y="56.0" font-size="11" text-anchor="start" font-family="sans-serif" fill="#374151">1,444</text><line x1="80.0" y1="114.4" x2="1198.0" y2="114.4" stroke="#e5e7eb" stroke-width="1"/><text x="72.0" y="118.4" font-size="11" text-anchor="end" font-family="sans-serif" fill="#374151">1,067</text><text x="1206.0" y="118.4" font-size="11" text-anchor="start" font-family="sans-serif" fill="#374151">1,155</text><line x1="80.0" y1="176.8" x2="1198.0" y2="176.8" stroke="#e5e7eb" stroke-width="1"/><text x="72.0" y="180.8" font-size="11" text-anchor="end" font-family="sans-serif" fill="#374151">800</text><text x="1206.0" y="180.8" font-size="11" text-anchor="start" font-family="sans-serif" fill="#374151">866</text><line x1="80.0" y1="239.2" x2="1198.0" y2="239.2" stroke="#e5e7eb" stroke-width="1"/><text x="72.0" y="243.2" font-size="11" text-anchor="end" font-family="sans-serif" fill="#374151">534</text><text x="1206.0" y="243.2" font-size="11" text-anchor="start" font-family="sans-serif" fill="#374151">578</text><line x1="80.0" y1="301.6" x2="1198.0" y2="301.6" stroke="#e5e7eb" stroke-width="1"/><text x="72.0" y="305.6" font-size="11" text-anchor="end" font-family="sans-serif" fill="#374151">267</text><text x="1206.0" y="305.6" font-size="11" text-anchor="start" font-family="sans-serif" fill="#374151">289</text><line x1="80.0" y1="364.0" x2="1198.0" y2="364.0" stroke="#e5e7eb" stroke-width="1"/><text x="72.0" y="368.0" font-size="11" text-anchor="end" font-family="sans-serif" fill="#374151">0</text><text x="1206.0" y="368.0" font-size="11" text-anchor="start" font-family="sans-serif" fill="#374151">0</text><line x1="80.0" y1="364.0" x2="1198.0" y2="364.0" stroke="#111827" stroke-width="1.2"/><line x1="80.0" y1="52.0" x2="80.0" y2="364.0" stroke="#111827" stroke-width="1.2"/><line x1="1198.0" y1="52.0" x2="1198.0" y2="364.0" stroke="#111827" stroke-width="1.2"/><rect x="81.0" y="363.8" width="35.3" height="0.2" fill="#93c5fd" stroke="#60a5fa" stroke-width="0.5"/><rect x="118.3" y="363.3" width="35.3" height="0.7" fill="#93c5fd" stroke="#60a5fa" stroke-width="0.5"/><rect x="155.5" y="360.7" width="35.3" height="3.3" fill="#93c5fd" stroke="#60a5fa" stroke-width="0.5"/><rect x="192.8" y="363.8" width="35.3" height="0.2" fill="#93c5fd" stroke="#60a5fa" stroke-width="0.5"/><rect x="230.1" y="363.8" width="35.3" height="0.2" fill="#93c5fd" stroke="#60a5fa" stroke-width="0.5"/><rect x="267.3" y="363.8" width="35.3" height="0.2" fill="#93c5fd" stroke="#60a5fa" stroke-width="0.5"/><rect x="304.6" y="363.8" width="35.3" height="0.2" fill="#93c5fd" stroke="#60a5fa" stroke-width="0.5"/><rect x="341.9" y="363.8" width="35.3" height="0.2" fill="#93c5fd" stroke="#60a5fa" stroke-width="0.5"/><rect x="379.1" y="363.8" width="35.3" height="0.2" fill="#93c5fd" stroke="#60a5fa" stroke-width="0.5"/><rect x="416.4" y="363.8" width="35.3" height="0.2" fill="#93c5fd" stroke="#60a5fa" stroke-width="0.5"/><rect x="453.7" y="363.5" width="35.3" height="0.5" fill="#93c5fd" stroke="#60a5fa" stroke-width="0.5"/><rect x="490.9" y="363.5" width="35.3" height="0.5" fill="#93c5fd" stroke="#60a5fa" stroke-width="0.5"/><rect x="528.2" y="363.8" width="35.3" height="0.2" fill="#93c5fd" stroke="#60a5fa" stroke-width="0.5"/><rect x="565.5" y="363.8" width="35.3" height="0.2" fill="#93c5fd" stroke="#60a5fa" stroke-width="0.5"/><rect x="602.7" y="363.8" width="35.3" height="0.2" fill="#93c5fd" stroke="#60a5fa" stroke-width="0.5"/><rect x="640.0" y="363.8" width="35.3" height="0.2" fill="#93c5fd" stroke="#60a5fa" stroke-width="0.5"/><rect x="677.3" y="363.8" width="35.3" height="0.2" fill="#93c5fd" stroke="#60a5fa" stroke-width="0.5"/><rect x="714.5" y="363.5" width="35.3" height="0.5" fill="#93c5fd" stroke="#60a5fa" stroke-width="0.5"/><rect x="751.8" y="363.5" width="35.3" height="0.5" fill="#93c5fd" stroke="#60a5fa" stroke-width="0.5"/><rect x="789.1" y="363.1" width="35.3" height="0.9" fill="#93c5fd" stroke="#60a5fa" stroke-width="0.5"/><rect x="826.3" y="363.1" width="35.3" height="0.9" fill="#93c5fd" stroke="#60a5fa" stroke-width="0.5"/><rect x="863.6" y="362.4" width="35.3" height="1.6" fill="#93c5fd" stroke="#60a5fa" stroke-width="0.5"/><rect x="900.9" y="52.0" width="35.3" height="312.0" fill="#93c5fd" stroke="#60a5fa" stroke-width="0.5"/><rect x="938.1" y="363.8" width="35.3" height="0.2" fill="#93c5fd" stroke="#60a5fa" stroke-width="0.5"/><rect x="975.4" y="363.8" width="35.3" height="0.2" fill="#93c5fd" stroke="#60a5fa" stroke-width="0.5"/><rect x="1012.7" y="363.8" width="35.3" height="0.2" fill="#93c5fd" stroke="#60a5fa" stroke-width="0.5"/><rect x="1049.9" y="363.8" width="35.3" height="0.2" fill="#93c5fd" stroke="#60a5fa" stroke-width="0.5"/><rect x="1087.2" y="363.8" width="35.3" height="0.2" fill="#93c5fd" stroke="#60a5fa" stroke-width="0.5"/><rect x="1124.5" y="363.8" width="35.3" height="0.2" fill="#93c5fd" stroke="#60a5fa" stroke-width="0.5"/><rect x="1161.7" y="352.1" width="35.3" height="11.9" fill="#93c5fd" stroke="#60a5fa" stroke-width="0.5"/><polyline fill="none" stroke="#ef4444" stroke-width="2" points="98.6,363.8 135.9,363.1 173.2,360.1 210.4,359.9 247.7,359.7 285.0,359.5 322.2,359.2 359.5,359.0 396.8,358.8 434.0,358.6 471.3,358.2 508.6,357.7 545.8,357.5 583.1,357.3 620.4,357.1 657.6,356.9 694.9,356.7 732.2,356.2 769.4,355.8 806.7,354.9 844.0,354.1 881.2,352.5 918.5,64.3 955.8,64.1 993.0,63.9 1030.3,63.7 1067.6,63.5 1104.8,63.2 1142.1,63.0 1179.4,52.0"/><line x1="98.6" y1="364.0" x2="98.6" y2="370.0" stroke="#111827" stroke-width="1"/><text x="100.6" y="386.0" font-size="11" text-anchor="end" transform="rotate(-35 100.6 386.0)" font-family="sans-serif" fill="#374151">2026-04-16 23:00</text><line x1="247.7" y1="364.0" x2="247.7" y2="370.0" stroke="#111827" stroke-width="1"/><text x="249.7" y="386.0" font-size="11" text-anchor="end" transform="rotate(-35 249.7 386.0)" font-family="sans-serif" fill="#374151">2026-04-19 16:00</text><line x1="396.8" y1="364.0" x2="396.8" y2="370.0" stroke="#111827" stroke-width="1"/><text x="398.8" y="386.0" font-size="11" text-anchor="end" transform="rotate(-35 398.8 386.0)" font-family="sans-serif" fill="#374151">2026-04-20 04:00</text><line x1="545.8" y1="364.0" x2="545.8" y2="370.0" stroke="#111827" stroke-width="1"/><text x="547.8" y="386.0" font-size="11" text-anchor="end" transform="rotate(-35 547.8 386.0)" font-family="sans-serif" fill="#374151">2026-04-20 22:00</text><line x1="732.2" y1="364.0" x2="732.2" y2="370.0" stroke="#111827" stroke-width="1"/><text x="734.2" y="386.0" font-size="11" text-anchor="end" transform="rotate(-35 734.2 386.0)" font-family="sans-serif" fill="#374151">2026-04-21 23:00</text><line x1="881.2" y1="364.0" x2="881.2" y2="370.0" stroke="#111827" stroke-width="1"/><text x="883.2" y="386.0" font-size="11" text-anchor="end" transform="rotate(-35 883.2 386.0)" font-family="sans-serif" fill="#374151">2026-04-22 11:00</text><line x1="1030.3" y1="364.0" x2="1030.3" y2="370.0" stroke="#111827" stroke-width="1"/><text x="1032.3" y="386.0" font-size="11" text-anchor="end" transform="rotate(-35 1032.3 386.0)" font-family="sans-serif" fill="#374151">2026-04-23 09:00</text><line x1="1179.4" y1="364.0" x2="1179.4" y2="370.0" stroke="#111827" stroke-width="1"/><text x="1181.4" y="386.0" font-size="11" text-anchor="end" transform="rotate(-35 1181.4 386.0)" font-family="sans-serif" fill="#374151">2026-04-23 16:00</text><text x="26" y="208.0" font-size="12" transform="rotate(-90 26 208.0)" text-anchor="middle" font-family="sans-serif" fill="#1f2937">구간별 수</text><text x="1256.0" y="208.0" font-size="12" transform="rotate(90 1256.0 208.0)" text-anchor="middle" font-family="sans-serif" fill="#1f2937">누적</text><text x="639.0" y="442.0" font-size="13" text-anchor="middle" font-family="sans-serif" fill="#111827">시간</text></svg>