<svg xmlns="http://www.w3.org/2000/svg" width="1280" height="460" viewBox="0 0 1280 460"><rect x="0" y="0" width="100%" height="100%" fill="#ffffff"/><text x="640.0" y="28" font-size="20" text-anchor="middle" font-family="sans-serif" fill="#111827">시리즈 / 최근 반영 시점 / 시간별</text><line x1="80.0" y1="52.0" x2="1198.0" y2="52.0" stroke="#e5e7eb" stroke-width="1"/><text x="72.0" y="56.0" font-size="11" text-anchor="end" font-family="sans-serif" fill="#374151">1,336</text><text x="1206.0" y="56.0" font-size="11" text-anchor="start" font-family="sans-serif" fill="#374151">1,436</text><line x1="80.0" y1="114.4" x2="1198.0" y2="114.4" stroke="#e5e7eb" stroke-width="1"/><text x="72.0" y="118.4" font-size="11" text-anchor="end" font-family="sans-serif" fill="#374151">1,069</text><text x="1206.0" y="118.4" font-size="11" text-anchor="start" font-family="sans-serif" fill="#374151">1,149</text><line x1="80.0" y1="176.8" x2="1198.0" y2="176.8" stroke="#e5e7eb" stroke-width="1"/><text x="72.0" y="180.8" font-size="11" text-anchor="end" font-family="sans-serif" fill="#374151">802</text><text x="1206.0" y="180.8" font-size="11" text-anchor="start" font-family="sans-serif" fill="#374151">862</text><line x1="80.0" y1="239.2" x2="1198.0" y2="239.2" stroke="#e5e7eb" stroke-width="1"/><text x="72.0" y="243.2" font-size="11" text-anchor="end" font-family="sans-serif" fill="#374151">534</text><text x="1206.0" y="243.2" font-size="11" text-anchor="start" font-family="sans-serif" fill="#374151">574</text><line x1="80.0" y1="301.6" x2="1198.0" y2="301.6" stroke="#e5e7eb" stroke-width="1"/><text x="72.0" y="305.6" font-size="11" text-anchor="end" font-family="sans-serif" fill="#374151">267</text><text x="1206.0" y="305.6" font-size="11" text-anchor="start" font-family="sans-serif" fill="#374151">287</text><line x1="80.0" y1="364.0" x2="1198.0" y2="364.0" stroke="#e5e7eb" stroke-width="1"/><text x="72.0" y="368.0" font-size="11" text-anchor="end" font-family="sans-serif" fill="#374151">0</text><text x="1206.0" y="368.0" font-size="11" text-anchor="start" font-family="sans-serif" fill="#374151">0</text><line x1="80.0" y1="364.0" x2="1198.0" y2="364.0" stroke="#111827" stroke-width="1.2"/><line x1="80.0" y1="52.0" x2="80.0" y2="364.0" stroke="#111827" stroke-width="1.2"/><line x1="1198.0" y1="52.0" x2="1198.0" y2="364.0" stroke="#111827" stroke-width="1.2"/><rect x="81.0" y="363.8" width="48.8" height="0.2" fill="#93c5fd" stroke="#60a5fa" stroke-width="0.5"/><rect x="131.8" y="362.6" width="48.8" height="1.4" fill="#93c5fd" stroke="#60a5fa" stroke-width="0.5"/><rect x="182.6" y="356.8" width="48.8" height="7.2" fill="#93c5fd" stroke="#60a5fa" stroke-width="0.5"/><rect x="233.5" y="363.5" width="48.8" height="0.5" fill="#93c5fd" stroke="#60a5fa" stroke-width="0.5"/><rect x="284.3" y="363.8" width="48.8" height="0.2" fill="#93c5fd" stroke="#60a5fa" stroke-width="0.5"/><rect x="335.1" y="363.8" width="48.8" height="0.2" fill="#93c5fd" stroke="#60a5fa" stroke-width="0.5"/><rect x="385.9" y="363.8" width="48.8" height="0.2" fill="#93c5fd" stroke="#60a5fa" stroke-width="0.5"/><rect x="436.7" y="363.8" width="48.8" height="0.2" fill="#93c5fd" stroke="#60a5fa" stroke-width="0.5"/><rect x="487.5" y="363.8" width="48.8" height="0.2" fill="#93c5fd" stroke="#60a5fa" stroke-width="0.5"/><rect x="538.4" y="363.8" width="48.8" height="0.2" fill="#93c5fd" stroke="#60a5fa" stroke-width="0.5"/><rect x="589.2" y="357.0" width="48.8" height="7.0" fill="#93c5fd" stroke="#60a5fa" stroke-width="0.5"/><rect x="640.0" y="363.8" width="48.8" height="0.2" fill="#93c5fd" stroke="#60a5fa" stroke-width="0.5"/><rect x="690.8" y="363.8" width="48.8" height="0.2" fill="#93c5fd" stroke="#60a5fa" stroke-width="0.5"/><rect x="741.6" y="363.8" width="48.8" height="0.2" fill="#93c5fd" stroke="#60a5fa" stroke-width="0.5"/><rect x="792.5" y="363.5" width="48.8" height="0.5" fill="#93c5fd" stroke="#60a5fa" stroke-width="0.5"/><rect x="843.3" y="363.8" width="48.8" height="0.2" fill="#93c5fd" stroke="#60a5fa" stroke-width="0.5"/><rect x="894.1" y="363.8" width="48.8" height="0.2" fill="#93c5fd" stroke="#60a5fa" stroke-width="0.5"/><rect x="944.9" y="363.5" width="48.8" height="0.5" fill="#93c5fd" stroke="#60a5fa" stroke-width="0.5"/><rect x="995.7" y="363.3" width="48.8" height="0.7" fill="#93c5fd" stroke="#60a5fa" stroke-width="0.5"/><rect x="1046.5" y="363.1" width="48.8" height="0.9" fill="#93c5fd" stroke="#60a5fa" stroke-width="0.5"/><rect x="1097.4" y="362.1" width="48.8" height="1.9" fill="#93c5fd" stroke="#60a5fa" stroke-width="0.5"/><rect x="1148.2" y="52.0" width="48.8" height="312.0" fill="#93c5fd" stroke="#60a5fa" stroke-width="0.5"/><polyline fill="none" stroke="#ef4444" stroke-width="2" points="105.4,363.8 156.2,362.5 207.0,355.7 257.9,355.3 308.7,355.1 359.5,354.9 410.3,354.7 461.1,354.4 512.0,354.2 562.8,354.0 613.6,347.5 664.4,347.3 715.2,347.1 766.0,346.8 816.9,346.4 867.7,346.2 918.5,346.0 969.3,345.5 1020.1,344.9 1071.0,344.0 1121.8,342.3 1172.6,52.0"/><line x1="105.4" y1="364.0" x2="105.4" y2="370.0" stroke="#111827" stroke-width="1"/><text x="107.4" y="386.0" font-size="11" text-anchor="end" transform="rotate(-35 107.4 386.0)" font-family="sans-serif" fill="#374151">2026-04-16 23:00</text><line x1="257.9" y1="364.0" x2="257.9" y2="370.0" stroke="#111827" stroke-width="1"/><text x="259.9" y="386.0" font-size="11" text-anchor="end" transform="rotate(-35 259.9 386.0)" font-family="sans-serif" fill="#374151">2026-04-17 11:00</text><line x1="410.3" y1="364.0" x2="410.3" y2="370.0" stroke="#111827" stroke-width="1"/><text x="412.3" y="386.0" font-size="11" text-anchor="end" transform="rotate(-35 412.3 386.0)" font-family="sans-serif" fill="#374151">2026-04-17 21:00</text><line x1="562.8" y1="364.0" x2="562.8" y2="370.0" stroke="#111827" stroke-width="1"/><text x="564.8" y="386.0" font-size="11" text-anchor="end" transform="rotate(-35 564.8 386.0)" font-family="sans-serif" fill="#374151">2026-04-18 07:00</text><line x1="715.2" y1="364.0" x2="715.2" y2="370.0" stroke="#111827" stroke-width="1"/><text x="717.2" y="386.0" font-size="11" text-anchor="end" transform="rotate(-35 717.2 386.0)" font-family="sans-serif" fill="#374151">2026-04-18 12:00</text><line x1="867.7" y1="364.0" x2="867.7" y2="370.0" stroke="#111827" stroke-width="1"/><text x="869.7" y="386.0" font-size="11" text-anchor="end" transform="rotate(-35 869.7 386.0)" font-family="sans-serif" fill="#374151">2026-04-18 16:00</text><line x1="1020.1" y1="364.0" x2="1020.1" y2="370.0" stroke="#111827" stroke-width="1"/><text x="1022.1" y="386.0" font-size="11" text-anchor="end" transform="rotate(-35 1022.1 386.0)" font-family="sans-serif" fill="#374151">2026-04-18 20:00</text><line x1="1172.6" y1="364.0" x2="1172.6" y2="370.0" stroke="#111827" stroke-width="1"/><text x="1174.6" y="386.0" font-size="11" text-anchor="end" transform="rotate(-35 1174.6 386.0)" font-family="sans-serif" fill="#374151">2026-04-19 00:00</text><text x="26" y="208.0" font-size="12" transform="rotate(-90 26 208.0)" text-anchor="middle" font-family="sans-serif" fill="#1f2937">구간별 수</text><text x="1256.0" y="208.0" font-size="12" transform="rotate(90 1256.0 208.0)" text-anchor="middle" font-family="sans-serif" fill="#1f2937">누적</text><text x="639.0" y="442.0" font-size="13" text-anchor="middle" font-family="sans-serif" fill="#111827">시간</text></svg>