<svg xmlns="http://www.w3.org/2000/svg" width="1280" height="460" viewBox="0 0 1280 460"><rect x="0" y="0" width="100%" height="100%" fill="#ffffff"/><text x="640.0" y="28" font-size="20" text-anchor="middle" font-family="sans-serif" fill="#111827">시리즈 / 최근 반영 시점 / 시간별</text><line x1="80.0" y1="52.0" x2="1198.0" y2="52.0" stroke="#e5e7eb" stroke-width="1"/><text x="72.0" y="56.0" font-size="11" text-anchor="end" font-family="sans-serif" fill="#374151">1,314</text><text x="1206.0" y="56.0" font-size="11" text-anchor="start" font-family="sans-serif" fill="#374151">1,417</text><line x1="80.0" y1="114.4" x2="1198.0" y2="114.4" stroke="#e5e7eb" stroke-width="1"/><text x="72.0" y="118.4" font-size="11" text-anchor="end" font-family="sans-serif" fill="#374151">1,051</text><text x="1206.0" y="118.4" font-size="11" text-anchor="start" font-family="sans-serif" fill="#374151">1,134</text><line x1="80.0" y1="176.8" x2="1198.0" y2="176.8" stroke="#e5e7eb" stroke-width="1"/><text x="72.0" y="180.8" font-size="11" text-anchor="end" font-family="sans-serif" fill="#374151">788</text><text x="1206.0" y="180.8" font-size="11" text-anchor="start" font-family="sans-serif" fill="#374151">850</text><line x1="80.0" y1="239.2" x2="1198.0" y2="239.2" stroke="#e5e7eb" stroke-width="1"/><text x="72.0" y="243.2" font-size="11" text-anchor="end" font-family="sans-serif" fill="#374151">526</text><text x="1206.0" y="243.2" font-size="11" text-anchor="start" font-family="sans-serif" fill="#374151">567</text><line x1="80.0" y1="301.6" x2="1198.0" y2="301.6" stroke="#e5e7eb" stroke-width="1"/><text x="72.0" y="305.6" font-size="11" text-anchor="end" font-family="sans-serif" fill="#374151">263</text><text x="1206.0" y="305.6" font-size="11" text-anchor="start" font-family="sans-serif" fill="#374151">283</text><line x1="80.0" y1="364.0" x2="1198.0" y2="364.0" stroke="#e5e7eb" stroke-width="1"/><text x="72.0" y="368.0" font-size="11" text-anchor="end" font-family="sans-serif" fill="#374151">0</text><text x="1206.0" y="368.0" font-size="11" text-anchor="start" font-family="sans-serif" fill="#374151">0</text><line x1="80.0" y1="364.0" x2="1198.0" y2="364.0" stroke="#111827" stroke-width="1.2"/><line x1="80.0" y1="52.0" x2="80.0" y2="364.0" stroke="#111827" stroke-width="1.2"/><line x1="1198.0" y1="52.0" x2="1198.0" y2="364.0" stroke="#111827" stroke-width="1.2"/><rect x="81.0" y="363.8" width="63.8" height="0.2" fill="#93c5fd" stroke="#60a5fa" stroke-width="0.5"/><rect x="146.8" y="363.8" width="63.8" height="0.2" fill="#93c5fd" stroke="#60a5fa" stroke-width="0.5"/><rect x="212.5" y="362.8" width="63.8" height="1.2" fill="#93c5fd" stroke="#60a5fa" stroke-width="0.5"/><rect x="278.3" y="362.3" width="63.8" height="1.7" fill="#93c5fd" stroke="#60a5fa" stroke-width="0.5"/><rect x="344.1" y="363.8" width="63.8" height="0.2" fill="#93c5fd" stroke="#60a5fa" stroke-width="0.5"/><rect x="409.8" y="352.6" width="63.8" height="11.4" fill="#93c5fd" stroke="#60a5fa" stroke-width="0.5"/><rect x="475.6" y="362.8" width="63.8" height="1.2" fill="#93c5fd" stroke="#60a5fa" stroke-width="0.5"/><rect x="541.4" y="363.5" width="63.8" height="0.5" fill="#93c5fd" stroke="#60a5fa" stroke-width="0.5"/><rect x="607.1" y="363.8" width="63.8" height="0.2" fill="#93c5fd" stroke="#60a5fa" stroke-width="0.5"/><rect x="672.9" y="363.3" width="63.8" height="0.7" fill="#93c5fd" stroke="#60a5fa" stroke-width="0.5"/><rect x="738.6" y="363.1" width="63.8" height="0.9" fill="#93c5fd" stroke="#60a5fa" stroke-width="0.5"/><rect x="804.4" y="362.1" width="63.8" height="1.9" fill="#93c5fd" stroke="#60a5fa" stroke-width="0.5"/><rect x="870.2" y="363.8" width="63.8" height="0.2" fill="#93c5fd" stroke="#60a5fa" stroke-width="0.5"/><rect x="935.9" y="363.8" width="63.8" height="0.2" fill="#93c5fd" stroke="#60a5fa" stroke-width="0.5"/><rect x="1001.7" y="362.8" width="63.8" height="1.2" fill="#93c5fd" stroke="#60a5fa" stroke-width="0.5"/><rect x="1067.5" y="361.6" width="63.8" height="2.4" fill="#93c5fd" stroke="#60a5fa" stroke-width="0.5"/><rect x="1133.2" y="52.0" width="63.8" height="312.0" fill="#93c5fd" stroke="#60a5fa" stroke-width="0.5"/><polyline fill="none" stroke="#ef4444" stroke-width="2" points="112.9,363.8 178.6,363.6 244.4,362.5 310.2,360.9 375.9,360.7 441.7,350.1 507.5,349.0 573.2,348.6 639.0,348.4 704.8,347.7 770.5,346.8 836.3,345.1 902.1,344.8 967.8,344.6 1033.6,343.5 1099.4,341.3 1165.1,52.0"/><line x1="112.9" y1="364.0" x2="112.9" y2="370.0" stroke="#111827" stroke-width="1"/><text x="114.9" y="386.0" font-size="11" text-anchor="end" transform="rotate(-35 114.9 386.0)" font-family="sans-serif" fill="#374151">2026-04-10 02:00</text><line x1="244.4" y1="364.0" x2="244.4" y2="370.0" stroke="#111827" stroke-width="1"/><text x="246.4" y="386.0" font-size="11" text-anchor="end" transform="rotate(-35 246.4 386.0)" font-family="sans-serif" fill="#374151">2026-04-10 15:00</text><line x1="441.7" y1="364.0" x2="441.7" y2="370.0" stroke="#111827" stroke-width="1"/><text x="443.7" y="386.0" font-size="11" text-anchor="end" transform="rotate(-35 443.7 386.0)" font-family="sans-serif" fill="#374151">2026-04-10 18:00</text><line x1="573.2" y1="364.0" x2="573.2" y2="370.0" stroke="#111827" stroke-width="1"/><text x="575.2" y="386.0" font-size="11" text-anchor="end" transform="rotate(-35 575.2 386.0)" font-family="sans-serif" fill="#374151">2026-04-10 21:00</text><line x1="704.8" y1="364.0" x2="704.8" y2="370.0" stroke="#111827" stroke-width="1"/><text x="706.8" y="386.0" font-size="11" text-anchor="end" transform="rotate(-35 706.8 386.0)" font-family="sans-serif" fill="#374151">2026-04-10 23:00</text><line x1="836.3" y1="364.0" x2="836.3" y2="370.0" stroke="#111827" stroke-width="1"/><text x="838.3" y="386.0" font-size="11" text-anchor="end" transform="rotate(-35 838.3 386.0)" font-family="sans-serif" fill="#374151">2026-04-11 03:00</text><line x1="1033.6" y1="364.0" x2="1033.6" y2="370.0" stroke="#111827" stroke-width="1"/><text x="1035.6" y="386.0" font-size="11" text-anchor="end" transform="rotate(-35 1035.6 386.0)" font-family="sans-serif" fill="#374151">2026-04-11 08:00</text><line x1="1165.1" y1="364.0" x2="1165.1" y2="370.0" stroke="#111827" stroke-width="1"/><text x="1167.1" y="386.0" font-size="11" text-anchor="end" transform="rotate(-35 1167.1 386.0)" font-family="sans-serif" fill="#374151">2026-04-11 10:00</text><text x="26" y="208.0" font-size="12" transform="rotate(-90 26 208.0)" text-anchor="middle" font-family="sans-serif" fill="#1f2937">구간별 수</text><text x="1256.0" y="208.0" font-size="12" transform="rotate(90 1256.0 208.0)" text-anchor="middle" font-family="sans-serif" fill="#1f2937">누적</text><text x="639.0" y="442.0" font-size="13" text-anchor="middle" font-family="sans-serif" fill="#111827">시간</text></svg>