<svg xmlns="http://www.w3.org/2000/svg" width="1280" height="460" viewBox="0 0 1280 460"><rect x="0" y="0" width="100%" height="100%" fill="#ffffff"/><text x="640.0" y="28" font-size="20" text-anchor="middle" font-family="sans-serif" fill="#111827">시리즈 / 최근 반영 시점 / 시간별</text><line x1="80.0" y1="52.0" x2="1198.0" y2="52.0" stroke="#e5e7eb" stroke-width="1"/><text x="72.0" y="56.0" font-size="11" text-anchor="end" font-family="sans-serif" fill="#374151">1,334</text><text x="1206.0" y="56.0" font-size="11" text-anchor="start" font-family="sans-serif" fill="#374151">1,444</text><line x1="80.0" y1="114.4" x2="1198.0" y2="114.4" stroke="#e5e7eb" stroke-width="1"/><text x="72.0" y="118.4" font-size="11" text-anchor="end" font-family="sans-serif" fill="#374151">1,067</text><text x="1206.0" y="118.4" font-size="11" text-anchor="start" font-family="sans-serif" fill="#374151">1,155</text><line x1="80.0" y1="176.8" x2="1198.0" y2="176.8" stroke="#e5e7eb" stroke-width="1"/><text x="72.0" y="180.8" font-size="11" text-anchor="end" font-family="sans-serif" fill="#374151">800</text><text x="1206.0" y="180.8" font-size="11" text-anchor="start" font-family="sans-serif" fill="#374151">866</text><line x1="80.0" y1="239.2" x2="1198.0" y2="239.2" stroke="#e5e7eb" stroke-width="1"/><text x="72.0" y="243.2" font-size="11" text-anchor="end" font-family="sans-serif" fill="#374151">534</text><text x="1206.0" y="243.2" font-size="11" text-anchor="start" font-family="sans-serif" fill="#374151">578</text><line x1="80.0" y1="301.6" x2="1198.0" y2="301.6" stroke="#e5e7eb" stroke-width="1"/><text x="72.0" y="305.6" font-size="11" text-anchor="end" font-family="sans-serif" fill="#374151">267</text><text x="1206.0" y="305.6" font-size="11" text-anchor="start" font-family="sans-serif" fill="#374151">289</text><line x1="80.0" y1="364.0" x2="1198.0" y2="364.0" stroke="#e5e7eb" stroke-width="1"/><text x="72.0" y="368.0" font-size="11" text-anchor="end" font-family="sans-serif" fill="#374151">0</text><text x="1206.0" y="368.0" font-size="11" text-anchor="start" font-family="sans-serif" fill="#374151">0</text><line x1="80.0" y1="364.0" x2="1198.0" y2="364.0" stroke="#111827" stroke-width="1.2"/><line x1="80.0" y1="52.0" x2="80.0" y2="364.0" stroke="#111827" stroke-width="1.2"/><line x1="1198.0" y1="52.0" x2="1198.0" y2="364.0" stroke="#111827" stroke-width="1.2"/><rect x="81.0" y="363.8" width="41.0" height="0.2" fill="#93c5fd" stroke="#60a5fa" stroke-width="0.5"/><rect x="124.0" y="363.3" width="41.0" height="0.7" fill="#93c5fd" stroke="#60a5fa" stroke-width="0.5"/><rect x="167.0" y="360.7" width="41.0" height="3.3" fill="#93c5fd" stroke="#60a5fa" stroke-width="0.5"/><rect x="210.0" y="363.8" width="41.0" height="0.2" fill="#93c5fd" stroke="#60a5fa" stroke-width="0.5"/><rect x="253.0" y="363.8" width="41.0" height="0.2" fill="#93c5fd" stroke="#60a5fa" stroke-width="0.5"/><rect x="296.0" y="363.8" width="41.0" height="0.2" fill="#93c5fd" stroke="#60a5fa" stroke-width="0.5"/><rect x="339.0" y="363.8" width="41.0" height="0.2" fill="#93c5fd" stroke="#60a5fa" stroke-width="0.5"/><rect x="382.0" y="363.8" width="41.0" height="0.2" fill="#93c5fd" stroke="#60a5fa" stroke-width="0.5"/><rect x="425.0" y="363.8" width="41.0" height="0.2" fill="#93c5fd" stroke="#60a5fa" stroke-width="0.5"/><rect x="468.0" y="363.8" width="41.0" height="0.2" fill="#93c5fd" stroke="#60a5fa" stroke-width="0.5"/><rect x="511.0" y="363.5" width="41.0" height="0.5" fill="#93c5fd" stroke="#60a5fa" stroke-width="0.5"/><rect x="554.0" y="363.5" width="41.0" height="0.5" fill="#93c5fd" stroke="#60a5fa" stroke-width="0.5"/><rect x="597.0" y="363.8" width="41.0" height="0.2" fill="#93c5fd" stroke="#60a5fa" stroke-width="0.5"/><rect x="640.0" y="363.8" width="41.0" height="0.2" fill="#93c5fd" stroke="#60a5fa" stroke-width="0.5"/><rect x="683.0" y="363.8" width="41.0" height="0.2" fill="#93c5fd" stroke="#60a5fa" stroke-width="0.5"/><rect x="726.0" y="363.8" width="41.0" height="0.2" fill="#93c5fd" stroke="#60a5fa" stroke-width="0.5"/><rect x="769.0" y="363.8" width="41.0" height="0.2" fill="#93c5fd" stroke="#60a5fa" stroke-width="0.5"/><rect x="812.0" y="363.8" width="41.0" height="0.2" fill="#93c5fd" stroke="#60a5fa" stroke-width="0.5"/><rect x="855.0" y="363.5" width="41.0" height="0.5" fill="#93c5fd" stroke="#60a5fa" stroke-width="0.5"/><rect x="898.0" y="363.5" width="41.0" height="0.5" fill="#93c5fd" stroke="#60a5fa" stroke-width="0.5"/><rect x="941.0" y="363.1" width="41.0" height="0.9" fill="#93c5fd" stroke="#60a5fa" stroke-width="0.5"/><rect x="984.0" y="363.1" width="41.0" height="0.9" fill="#93c5fd" stroke="#60a5fa" stroke-width="0.5"/><rect x="1027.0" y="362.4" width="41.0" height="1.6" fill="#93c5fd" stroke="#60a5fa" stroke-width="0.5"/><rect x="1070.0" y="52.0" width="41.0" height="312.0" fill="#93c5fd" stroke="#60a5fa" stroke-width="0.5"/><rect x="1113.0" y="363.5" width="41.0" height="0.5" fill="#93c5fd" stroke="#60a5fa" stroke-width="0.5"/><rect x="1156.0" y="351.4" width="41.0" height="12.6" fill="#93c5fd" stroke="#60a5fa" stroke-width="0.5"/><polyline fill="none" stroke="#ef4444" stroke-width="2" points="101.5,363.8 144.5,363.1 187.5,360.1 230.5,359.9 273.5,359.7 316.5,359.5 359.5,359.2 402.5,359.0 445.5,358.8 488.5,358.6 531.5,358.2 574.5,357.7 617.5,357.5 660.5,357.3 703.5,357.1 746.5,356.9 789.5,356.7 832.5,356.4 875.5,356.0 918.5,355.6 961.5,354.7 1004.5,353.8 1047.5,352.3 1090.5,64.1 1133.5,63.7 1176.5,52.0"/><line x1="101.5" y1="364.0" x2="101.5" y2="370.0" stroke="#111827" stroke-width="1"/><text x="103.5" y="386.0" font-size="11" text-anchor="end" transform="rotate(-35 103.5 386.0)" font-family="sans-serif" fill="#374151">2026-04-16 23:00</text><line x1="273.5" y1="364.0" x2="273.5" y2="370.0" stroke="#111827" stroke-width="1"/><text x="275.5" y="386.0" font-size="11" text-anchor="end" transform="rotate(-35 275.5 386.0)" font-family="sans-serif" fill="#374151">2026-04-19 16:00</text><line x1="402.5" y1="364.0" x2="402.5" y2="370.0" stroke="#111827" stroke-width="1"/><text x="404.5" y="386.0" font-size="11" text-anchor="end" transform="rotate(-35 404.5 386.0)" font-family="sans-serif" fill="#374151">2026-04-20 00:00</text><line x1="574.5" y1="364.0" x2="574.5" y2="370.0" stroke="#111827" stroke-width="1"/><text x="576.5" y="386.0" font-size="11" text-anchor="end" transform="rotate(-35 576.5 386.0)" font-family="sans-serif" fill="#374151">2026-04-20 21:00</text><line x1="703.5" y1="364.0" x2="703.5" y2="370.0" stroke="#111827" stroke-width="1"/><text x="705.5" y="386.0" font-size="11" text-anchor="end" transform="rotate(-35 705.5 386.0)" font-family="sans-serif" fill="#374151">2026-04-21 03:00</text><line x1="875.5" y1="364.0" x2="875.5" y2="370.0" stroke="#111827" stroke-width="1"/><text x="877.5" y="386.0" font-size="11" text-anchor="end" transform="rotate(-35 877.5 386.0)" font-family="sans-serif" fill="#374151">2026-04-21 23:00</text><line x1="1004.5" y1="364.0" x2="1004.5" y2="370.0" stroke="#111827" stroke-width="1"/><text x="1006.5" y="386.0" font-size="11" text-anchor="end" transform="rotate(-35 1006.5 386.0)" font-family="sans-serif" fill="#374151">2026-04-22 10:00</text><line x1="1176.5" y1="364.0" x2="1176.5" y2="370.0" stroke="#111827" stroke-width="1"/><text x="1178.5" y="386.0" font-size="11" text-anchor="end" transform="rotate(-35 1178.5 386.0)" font-family="sans-serif" fill="#374151">2026-04-22 21:00</text><text x="26" y="208.0" font-size="12" transform="rotate(-90 26 208.0)" text-anchor="middle" font-family="sans-serif" fill="#1f2937">구간별 수</text><text x="1256.0" y="208.0" font-size="12" transform="rotate(90 1256.0 208.0)" text-anchor="middle" font-family="sans-serif" fill="#1f2937">누적</text><text x="639.0" y="442.0" font-size="13" text-anchor="middle" font-family="sans-serif" fill="#111827">시간</text></svg>