<svg xmlns="http://www.w3.org/2000/svg" width="1280" height="460" viewBox="0 0 1280 460"><rect x="0" y="0" width="100%" height="100%" fill="#ffffff"/><text x="640.0" y="28" font-size="20" text-anchor="middle" font-family="sans-serif" fill="#111827">시리즈 / 생성 시점 / 일별</text><line x1="80.0" y1="52.0" x2="1198.0" y2="52.0" stroke="#e5e7eb" stroke-width="1"/><text x="72.0" y="56.0" font-size="11" text-anchor="end" font-family="sans-serif" fill="#374151">70</text><text x="1206.0" y="56.0" font-size="11" text-anchor="start" font-family="sans-serif" fill="#374151">1,419</text><line x1="80.0" y1="114.4" x2="1198.0" y2="114.4" stroke="#e5e7eb" stroke-width="1"/><text x="72.0" y="118.4" font-size="11" text-anchor="end" font-family="sans-serif" fill="#374151">56</text><text x="1206.0" y="118.4" font-size="11" text-anchor="start" font-family="sans-serif" fill="#374151">1,135</text><line x1="80.0" y1="176.8" x2="1198.0" y2="176.8" stroke="#e5e7eb" stroke-width="1"/><text x="72.0" y="180.8" font-size="11" text-anchor="end" font-family="sans-serif" fill="#374151">42</text><text x="1206.0" y="180.8" font-size="11" text-anchor="start" font-family="sans-serif" fill="#374151">851</text><line x1="80.0" y1="239.2" x2="1198.0" y2="239.2" stroke="#e5e7eb" stroke-width="1"/><text x="72.0" y="243.2" font-size="11" text-anchor="end" font-family="sans-serif" fill="#374151">28</text><text x="1206.0" y="243.2" font-size="11" text-anchor="start" font-family="sans-serif" fill="#374151">568</text><line x1="80.0" y1="301.6" x2="1198.0" y2="301.6" stroke="#e5e7eb" stroke-width="1"/><text x="72.0" y="305.6" font-size="11" text-anchor="end" font-family="sans-serif" fill="#374151">14</text><text x="1206.0" y="305.6" font-size="11" text-anchor="start" font-family="sans-serif" fill="#374151">284</text><line x1="80.0" y1="364.0" x2="1198.0" y2="364.0" stroke="#e5e7eb" stroke-width="1"/><text x="72.0" y="368.0" font-size="11" text-anchor="end" font-family="sans-serif" fill="#374151">0</text><text x="1206.0" y="368.0" font-size="11" text-anchor="start" font-family="sans-serif" fill="#374151">0</text><line x1="80.0" y1="364.0" x2="1198.0" y2="364.0" stroke="#111827" stroke-width="1.2"/><line x1="80.0" y1="52.0" x2="80.0" y2="364.0" stroke="#111827" stroke-width="1.2"/><line x1="1198.0" y1="52.0" x2="1198.0" y2="364.0" stroke="#111827" stroke-width="1.2"/><rect x="80.0" y="346.2" width="4.3" height="17.8" fill="#93c5fd" stroke="#60a5fa" stroke-width="0.5"/><rect x="84.3" y="359.5" width="4.3" height="4.5" fill="#93c5fd" stroke="#60a5fa" stroke-width="0.5"/><rect x="88.7" y="359.5" width="4.3" height="4.5" fill="#93c5fd" stroke="#60a5fa" stroke-width="0.5"/><rect x="93.0" y="355.1" width="4.3" height="8.9" fill="#93c5fd" stroke="#60a5fa" stroke-width="0.5"/><rect x="97.3" y="359.5" width="4.3" height="4.5" fill="#93c5fd" stroke="#60a5fa" stroke-width="0.5"/><rect x="101.7" y="350.6" width="4.3" height="13.4" fill="#93c5fd" stroke="#60a5fa" stroke-width="0.5"/><rect x="106.0" y="359.5" width="4.3" height="4.5" fill="#93c5fd" stroke="#60a5fa" stroke-width="0.5"/><rect x="110.3" y="359.5" width="4.3" height="4.5" fill="#93c5fd" stroke="#60a5fa" stroke-width="0.5"/><rect x="114.7" y="359.5" width="4.3" height="4.5" fill="#93c5fd" stroke="#60a5fa" stroke-width="0.5"/><rect x="119.0" y="359.5" width="4.3" height="4.5" fill="#93c5fd" stroke="#60a5fa" stroke-width="0.5"/><rect x="123.3" y="359.5" width="4.3" height="4.5" fill="#93c5fd" stroke="#60a5fa" stroke-width="0.5"/><rect x="127.7" y="359.5" width="4.3" height="4.5" fill="#93c5fd" stroke="#60a5fa" stroke-width="0.5"/><rect x="132.0" y="359.5" width="4.3" height="4.5" fill="#93c5fd" stroke="#60a5fa" stroke-width="0.5"/><rect x="136.3" y="355.1" width="4.3" height="8.9" fill="#93c5fd" stroke="#60a5fa" stroke-width="0.5"/><rect x="140.7" y="346.2" width="4.3" height="17.8" fill="#93c5fd" stroke="#60a5fa" stroke-width="0.5"/><rect x="145.0" y="359.5" width="4.3" height="4.5" fill="#93c5fd" stroke="#60a5fa" stroke-width="0.5"/><rect x="149.3" y="359.5" width="4.3" height="4.5" fill="#93c5fd" stroke="#60a5fa" stroke-width="0.5"/><rect x="153.7" y="350.6" width="4.3" height="13.4" fill="#93c5fd" stroke="#60a5fa" stroke-width="0.5"/><rect x="158.0" y="341.7" width="4.3" height="22.3" fill="#93c5fd" stroke="#60a5fa" stroke-width="0.5"/><rect x="162.3" y="306.1" width="4.3" height="57.9" fill="#93c5fd" stroke="#60a5fa" stroke-width="0.5"/><rect x="166.7" y="355.1" width="4.3" height="8.9" fill="#93c5fd" stroke="#60a5fa" stroke-width="0.5"/><rect x="171.0" y="350.6" width="4.3" height="13.4" fill="#93c5fd" stroke="#60a5fa" stroke-width="0.5"/><rect x="175.3" y="359.5" width="4.3" height="4.5" fill="#93c5fd" stroke="#60a5fa" stroke-width="0.5"/><rect x="179.7" y="350.6" width="4.3" height="13.4" fill="#93c5fd" stroke="#60a5fa" stroke-width="0.5"/><rect x="184.0" y="359.5" width="4.3" height="4.5" fill="#93c5fd" stroke="#60a5fa" stroke-width="0.5"/><rect x="188.3" y="341.7" width="4.3" height="22.3" fill="#93c5fd" stroke="#60a5fa" stroke-width="0.5"/><rect x="192.7" y="359.5" width="4.3" height="4.5" fill="#93c5fd" stroke="#60a5fa" stroke-width="0.5"/><rect x="197.0" y="359.5" width="4.3" height="4.5" fill="#93c5fd" stroke="#60a5fa" stroke-width="0.5"/><rect x="201.3" y="359.5" width="4.3" height="4.5" fill="#93c5fd" stroke="#60a5fa" stroke-width="0.5"/><rect x="205.7" y="359.5" width="4.3" height="4.5" fill="#93c5fd" stroke="#60a5fa" stroke-width="0.5"/><rect x="210.0" y="359.5" width="4.3" height="4.5" fill="#93c5fd" stroke="#60a5fa" stroke-width="0.5"/><rect x="214.3" y="359.5" width="4.3" height="4.5" fill="#93c5fd" stroke="#60a5fa" stroke-width="0.5"/><rect x="218.7" y="359.5" width="4.3" height="4.5" fill="#93c5fd" stroke="#60a5fa" stroke-width="0.5"/><rect x="223.0" y="359.5" width="4.3" height="4.5" fill="#93c5fd" stroke="#60a5fa" stroke-width="0.5"/><rect x="227.3" y="359.5" width="4.3" height="4.5" fill="#93c5fd" stroke="#60a5fa" stroke-width="0.5"/><rect x="231.7" y="359.5" width="4.3" height="4.5" fill="#93c5fd" stroke="#60a5fa" stroke-width="0.5"/><rect x="236.0" y="359.5" width="4.3" height="4.5" fill="#93c5fd" stroke="#60a5fa" stroke-width="0.5"/><rect x="240.3" y="359.5" width="4.3" height="4.5" fill="#93c5fd" stroke="#60a5fa" stroke-width="0.5"/><rect x="244.7" y="359.5" width="4.3" height="4.5" fill="#93c5fd" stroke="#60a5fa" stroke-width="0.5"/><rect x="249.0" y="359.5" width="4.3" height="4.5" fill="#93c5fd" stroke="#60a5fa" stroke-width="0.5"/><rect x="253.3" y="350.6" width="4.3" height="13.4" fill="#93c5fd" stroke="#60a5fa" stroke-width="0.5"/><rect x="257.7" y="359.5" width="4.3" height="4.5" fill="#93c5fd" stroke="#60a5fa" stroke-width="0.5"/><rect x="262.0" y="359.5" width="4.3" height="4.5" fill="#93c5fd" stroke="#60a5fa" stroke-width="0.5"/><rect x="266.3" y="315.0" width="4.3" height="49.0" fill="#93c5fd" stroke="#60a5fa" stroke-width="0.5"/><rect x="270.7" y="359.5" width="4.3" height="4.5" fill="#93c5fd" stroke="#60a5fa" stroke-width="0.5"/><rect x="275.0" y="337.3" width="4.3" height="26.7" fill="#93c5fd" stroke="#60a5fa" stroke-width="0.5"/><rect x="279.3" y="328.3" width="4.3" height="35.7" fill="#93c5fd" stroke="#60a5fa" stroke-width="0.5"/><rect x="283.7" y="359.5" width="4.3" height="4.5" fill="#93c5fd" stroke="#60a5fa" stroke-width="0.5"/><rect x="288.0" y="355.1" width="4.3" height="8.9" fill="#93c5fd" stroke="#60a5fa" stroke-width="0.5"/><rect x="292.3" y="350.6" width="4.3" height="13.4" fill="#93c5fd" stroke="#60a5fa" stroke-width="0.5"/><rect x="296.7" y="355.1" width="4.3" height="8.9" fill="#93c5fd" stroke="#60a5fa" stroke-width="0.5"/><rect x="301.0" y="355.1" width="4.3" height="8.9" fill="#93c5fd" stroke="#60a5fa" stroke-width="0.5"/><rect x="305.3" y="350.6" width="4.3" height="13.4" fill="#93c5fd" stroke="#60a5fa" stroke-width="0.5"/><rect x="309.7" y="359.5" width="4.3" height="4.5" fill="#93c5fd" stroke="#60a5fa" stroke-width="0.5"/><rect x="314.0" y="359.5" width="4.3" height="4.5" fill="#93c5fd" stroke="#60a5fa" stroke-width="0.5"/><rect x="318.3" y="359.5" width="4.3" height="4.5" fill="#93c5fd" stroke="#60a5fa" stroke-width="0.5"/><rect x="322.7" y="359.5" width="4.3" height="4.5" fill="#93c5fd" stroke="#60a5fa" stroke-width="0.5"/><rect x="327.0" y="350.6" width="4.3" height="13.4" fill="#93c5fd" stroke="#60a5fa" stroke-width="0.5"/><rect x="331.3" y="359.5" width="4.3" height="4.5" fill="#93c5fd" stroke="#60a5fa" stroke-width="0.5"/><rect x="335.7" y="328.3" width="4.3" height="35.7" fill="#93c5fd" stroke="#60a5fa" stroke-width="0.5"/><rect x="340.0" y="359.5" width="4.3" height="4.5" fill="#93c5fd" stroke="#60a5fa" stroke-width="0.5"/><rect x="344.3" y="359.5" width="4.3" height="4.5" fill="#93c5fd" stroke="#60a5fa" stroke-width="0.5"/><rect x="348.7" y="359.5" width="4.3" height="4.5" fill="#93c5fd" stroke="#60a5fa" stroke-width="0.5"/><rect x="353.0" y="350.6" width="4.3" height="13.4" fill="#93c5fd" stroke="#60a5fa" stroke-width="0.5"/><rect x="357.3" y="359.5" width="4.3" height="4.5" fill="#93c5fd" stroke="#60a5fa" stroke-width="0.5"/><rect x="361.7" y="359.5" width="4.3" height="4.5" fill="#93c5fd" stroke="#60a5fa" stroke-width="0.5"/><rect x="366.0" y="355.1" width="4.3" height="8.9" fill="#93c5fd" stroke="#60a5fa" stroke-width="0.5"/><rect x="370.3" y="350.6" width="4.3" height="13.4" fill="#93c5fd" stroke="#60a5fa" stroke-width="0.5"/><rect x="374.7" y="359.5" width="4.3" height="4.5" fill="#93c5fd" stroke="#60a5fa" stroke-width="0.5"/><rect x="379.0" y="350.6" width="4.3" height="13.4" fill="#93c5fd" stroke="#60a5fa" stroke-width="0.5"/><rect x="383.3" y="355.1" width="4.3" height="8.9" fill="#93c5fd" stroke="#60a5fa" stroke-width="0.5"/><rect x="387.7" y="350.6" width="4.3" height="13.4" fill="#93c5fd" stroke="#60a5fa" stroke-width="0.5"/><rect x="392.0" y="359.5" width="4.3" height="4.5" fill="#93c5fd" stroke="#60a5fa" stroke-width="0.5"/><rect x="396.3" y="319.4" width="4.3" height="44.6" fill="#93c5fd" stroke="#60a5fa" stroke-width="0.5"/><rect x="400.7" y="346.2" width="4.3" height="17.8" fill="#93c5fd" stroke="#60a5fa" stroke-width="0.5"/><rect x="405.0" y="346.2" width="4.3" height="17.8" fill="#93c5fd" stroke="#60a5fa" stroke-width="0.5"/><rect x="409.3" y="359.5" width="4.3" height="4.5" fill="#93c5fd" stroke="#60a5fa" stroke-width="0.5"/><rect x="413.7" y="359.5" width="4.3" height="4.5" fill="#93c5fd" stroke="#60a5fa" stroke-width="0.5"/><rect x="418.0" y="359.5" width="4.3" height="4.5" fill="#93c5fd" stroke="#60a5fa" stroke-width="0.5"/><rect x="422.3" y="355.1" width="4.3" height="8.9" fill="#93c5fd" stroke="#60a5fa" stroke-width="0.5"/><rect x="426.7" y="355.1" width="4.3" height="8.9" fill="#93c5fd" stroke="#60a5fa" stroke-width="0.5"/><rect x="431.0" y="350.6" width="4.3" height="13.4" fill="#93c5fd" stroke="#60a5fa" stroke-width="0.5"/><rect x="435.3" y="355.1" width="4.3" height="8.9" fill="#93c5fd" stroke="#60a5fa" stroke-width="0.5"/><rect x="439.7" y="350.6" width="4.3" height="13.4" fill="#93c5fd" stroke="#60a5fa" stroke-width="0.5"/><rect x="444.0" y="359.5" width="4.3" height="4.5" fill="#93c5fd" stroke="#60a5fa" stroke-width="0.5"/><rect x="448.3" y="355.1" width="4.3" height="8.9" fill="#93c5fd" stroke="#60a5fa" stroke-width="0.5"/><rect x="452.7" y="359.5" width="4.3" height="4.5" fill="#93c5fd" stroke="#60a5fa" stroke-width="0.5"/><rect x="457.0" y="337.3" width="4.3" height="26.7" fill="#93c5fd" stroke="#60a5fa" stroke-width="0.5"/><rect x="461.3" y="359.5" width="4.3" height="4.5" fill="#93c5fd" stroke="#60a5fa" stroke-width="0.5"/><rect x="465.7" y="359.5" width="4.3" height="4.5" fill="#93c5fd" stroke="#60a5fa" stroke-width="0.5"/><rect x="470.0" y="359.5" width="4.3" height="4.5" fill="#93c5fd" stroke="#60a5fa" stroke-width="0.5"/><rect x="474.3" y="359.5" width="4.3" height="4.5" fill="#93c5fd" stroke="#60a5fa" stroke-width="0.5"/><rect x="478.7" y="359.5" width="4.3" height="4.5" fill="#93c5fd" stroke="#60a5fa" stroke-width="0.5"/><rect x="483.0" y="337.3" width="4.3" height="26.7" fill="#93c5fd" stroke="#60a5fa" stroke-width="0.5"/><rect x="487.3" y="359.5" width="4.3" height="4.5" fill="#93c5fd" stroke="#60a5fa" stroke-width="0.5"/><rect x="491.7" y="346.2" width="4.3" height="17.8" fill="#93c5fd" stroke="#60a5fa" stroke-width="0.5"/><rect x="496.0" y="319.4" width="4.3" height="44.6" fill="#93c5fd" stroke="#60a5fa" stroke-width="0.5"/><rect x="500.3" y="328.3" width="4.3" height="35.7" fill="#93c5fd" stroke="#60a5fa" stroke-width="0.5"/><rect x="504.7" y="355.1" width="4.3" height="8.9" fill="#93c5fd" stroke="#60a5fa" stroke-width="0.5"/><rect x="509.0" y="355.1" width="4.3" height="8.9" fill="#93c5fd" stroke="#60a5fa" stroke-width="0.5"/><rect x="513.3" y="355.1" width="4.3" height="8.9" fill="#93c5fd" stroke="#60a5fa" stroke-width="0.5"/><rect x="517.7" y="355.1" width="4.3" height="8.9" fill="#93c5fd" stroke="#60a5fa" stroke-width="0.5"/><rect x="522.0" y="350.6" width="4.3" height="13.4" fill="#93c5fd" stroke="#60a5fa" stroke-width="0.5"/><rect x="526.3" y="341.7" width="4.3" height="22.3" fill="#93c5fd" stroke="#60a5fa" stroke-width="0.5"/><rect x="530.7" y="359.5" width="4.3" height="4.5" fill="#93c5fd" stroke="#60a5fa" stroke-width="0.5"/><rect x="535.0" y="323.9" width="4.3" height="40.1" fill="#93c5fd" stroke="#60a5fa" stroke-width="0.5"/><rect x="539.3" y="355.1" width="4.3" height="8.9" fill="#93c5fd" stroke="#60a5fa" stroke-width="0.5"/><rect x="543.7" y="346.2" width="4.3" height="17.8" fill="#93c5fd" stroke="#60a5fa" stroke-width="0.5"/><rect x="548.0" y="355.1" width="4.3" height="8.9" fill="#93c5fd" stroke="#60a5fa" stroke-width="0.5"/><rect x="552.3" y="359.5" width="4.3" height="4.5" fill="#93c5fd" stroke="#60a5fa" stroke-width="0.5"/><rect x="556.7" y="359.5" width="4.3" height="4.5" fill="#93c5fd" stroke="#60a5fa" stroke-width="0.5"/><rect x="561.0" y="355.1" width="4.3" height="8.9" fill="#93c5fd" stroke="#60a5fa" stroke-width="0.5"/><rect x="565.3" y="350.6" width="4.3" height="13.4" fill="#93c5fd" stroke="#60a5fa" stroke-width="0.5"/><rect x="569.7" y="355.1" width="4.3" height="8.9" fill="#93c5fd" stroke="#60a5fa" stroke-width="0.5"/><rect x="574.0" y="315.0" width="4.3" height="49.0" fill="#93c5fd" stroke="#60a5fa" stroke-width="0.5"/><rect x="578.3" y="319.4" width="4.3" height="44.6" fill="#93c5fd" stroke="#60a5fa" stroke-width="0.5"/><rect x="582.7" y="346.2" width="4.3" height="17.8" fill="#93c5fd" stroke="#60a5fa" stroke-width="0.5"/><rect x="587.0" y="359.5" width="4.3" height="4.5" fill="#93c5fd" stroke="#60a5fa" stroke-width="0.5"/><rect x="591.3" y="328.3" width="4.3" height="35.7" fill="#93c5fd" stroke="#60a5fa" stroke-width="0.5"/><rect x="595.7" y="328.3" width="4.3" height="35.7" fill="#93c5fd" stroke="#60a5fa" stroke-width="0.5"/><rect x="600.0" y="257.0" width="4.3" height="107.0" fill="#93c5fd" stroke="#60a5fa" stroke-width="0.5"/><rect x="604.3" y="355.1" width="4.3" height="8.9" fill="#93c5fd" stroke="#60a5fa" stroke-width="0.5"/><rect x="608.7" y="341.7" width="4.3" height="22.3" fill="#93c5fd" stroke="#60a5fa" stroke-width="0.5"/><rect x="613.0" y="350.6" width="4.3" height="13.4" fill="#93c5fd" stroke="#60a5fa" stroke-width="0.5"/><rect x="617.3" y="306.1" width="4.3" height="57.9" fill="#93c5fd" stroke="#60a5fa" stroke-width="0.5"/><rect x="621.7" y="337.3" width="4.3" height="26.7" fill="#93c5fd" stroke="#60a5fa" stroke-width="0.5"/><rect x="626.0" y="301.6" width="4.3" height="62.4" fill="#93c5fd" stroke="#60a5fa" stroke-width="0.5"/><rect x="630.3" y="319.4" width="4.3" height="44.6" fill="#93c5fd" stroke="#60a5fa" stroke-width="0.5"/><rect x="634.7" y="355.1" width="4.3" height="8.9" fill="#93c5fd" stroke="#60a5fa" stroke-width="0.5"/><rect x="639.0" y="359.5" width="4.3" height="4.5" fill="#93c5fd" stroke="#60a5fa" stroke-width="0.5"/><rect x="643.3" y="341.7" width="4.3" height="22.3" fill="#93c5fd" stroke="#60a5fa" stroke-width="0.5"/><rect x="647.7" y="306.1" width="4.3" height="57.9" fill="#93c5fd" stroke="#60a5fa" stroke-width="0.5"/><rect x="652.0" y="346.2" width="4.3" height="17.8" fill="#93c5fd" stroke="#60a5fa" stroke-width="0.5"/><rect x="656.3" y="257.0" width="4.3" height="107.0" fill="#93c5fd" stroke="#60a5fa" stroke-width="0.5"/><rect x="660.7" y="341.7" width="4.3" height="22.3" fill="#93c5fd" stroke="#60a5fa" stroke-width="0.5"/><rect x="665.0" y="52.0" width="4.3" height="312.0" fill="#93c5fd" stroke="#60a5fa" stroke-width="0.5"/><rect x="669.3" y="288.2" width="4.3" height="75.8" fill="#93c5fd" stroke="#60a5fa" stroke-width="0.5"/><rect x="673.7" y="350.6" width="4.3" height="13.4" fill="#93c5fd" stroke="#60a5fa" stroke-width="0.5"/><rect x="678.0" y="355.1" width="4.3" height="8.9" fill="#93c5fd" stroke="#60a5fa" stroke-width="0.5"/><rect x="682.3" y="181.3" width="4.3" height="182.7" fill="#93c5fd" stroke="#60a5fa" stroke-width="0.5"/><rect x="686.7" y="337.3" width="4.3" height="26.7" fill="#93c5fd" stroke="#60a5fa" stroke-width="0.5"/><rect x="691.0" y="350.6" width="4.3" height="13.4" fill="#93c5fd" stroke="#60a5fa" stroke-width="0.5"/><rect x="695.3" y="355.1" width="4.3" height="8.9" fill="#93c5fd" stroke="#60a5fa" stroke-width="0.5"/><rect x="699.7" y="346.2" width="4.3" height="17.8" fill="#93c5fd" stroke="#60a5fa" stroke-width="0.5"/><rect x="704.0" y="328.3" width="4.3" height="35.7" fill="#93c5fd" stroke="#60a5fa" stroke-width="0.5"/><rect x="708.3" y="359.5" width="4.3" height="4.5" fill="#93c5fd" stroke="#60a5fa" stroke-width="0.5"/><rect x="712.7" y="359.5" width="4.3" height="4.5" fill="#93c5fd" stroke="#60a5fa" stroke-width="0.5"/><rect x="717.0" y="346.2" width="4.3" height="17.8" fill="#93c5fd" stroke="#60a5fa" stroke-width="0.5"/><rect x="721.3" y="341.7" width="4.3" height="22.3" fill="#93c5fd" stroke="#60a5fa" stroke-width="0.5"/><rect x="725.7" y="337.3" width="4.3" height="26.7" fill="#93c5fd" stroke="#60a5fa" stroke-width="0.5"/><rect x="730.0" y="337.3" width="4.3" height="26.7" fill="#93c5fd" stroke="#60a5fa" stroke-width="0.5"/><rect x="734.3" y="359.5" width="4.3" height="4.5" fill="#93c5fd" stroke="#60a5fa" stroke-width="0.5"/><rect x="738.7" y="341.7" width="4.3" height="22.3" fill="#93c5fd" stroke="#60a5fa" stroke-width="0.5"/><rect x="743.0" y="332.8" width="4.3" height="31.2" fill="#93c5fd" stroke="#60a5fa" stroke-width="0.5"/><rect x="747.3" y="332.8" width="4.3" height="31.2" fill="#93c5fd" stroke="#60a5fa" stroke-width="0.5"/><rect x="751.7" y="328.3" width="4.3" height="35.7" fill="#93c5fd" stroke="#60a5fa" stroke-width="0.5"/><rect x="756.0" y="323.9" width="4.3" height="40.1" fill="#93c5fd" stroke="#60a5fa" stroke-width="0.5"/><rect x="760.3" y="332.8" width="4.3" height="31.2" fill="#93c5fd" stroke="#60a5fa" stroke-width="0.5"/><rect x="764.7" y="346.2" width="4.3" height="17.8" fill="#93c5fd" stroke="#60a5fa" stroke-width="0.5"/><rect x="769.0" y="350.6" width="4.3" height="13.4" fill="#93c5fd" stroke="#60a5fa" stroke-width="0.5"/><rect x="773.3" y="350.6" width="4.3" height="13.4" fill="#93c5fd" stroke="#60a5fa" stroke-width="0.5"/><rect x="777.7" y="332.8" width="4.3" height="31.2" fill="#93c5fd" stroke="#60a5fa" stroke-width="0.5"/><rect x="782.0" y="359.5" width="4.3" height="4.5" fill="#93c5fd" stroke="#60a5fa" stroke-width="0.5"/><rect x="786.3" y="350.6" width="4.3" height="13.4" fill="#93c5fd" stroke="#60a5fa" stroke-width="0.5"/><rect x="790.7" y="355.1" width="4.3" height="8.9" fill="#93c5fd" stroke="#60a5fa" stroke-width="0.5"/><rect x="795.0" y="355.1" width="4.3" height="8.9" fill="#93c5fd" stroke="#60a5fa" stroke-width="0.5"/><rect x="799.3" y="355.1" width="4.3" height="8.9" fill="#93c5fd" stroke="#60a5fa" stroke-width="0.5"/><rect x="803.7" y="355.1" width="4.3" height="8.9" fill="#93c5fd" stroke="#60a5fa" stroke-width="0.5"/><rect x="808.0" y="359.5" width="4.3" height="4.5" fill="#93c5fd" stroke="#60a5fa" stroke-width="0.5"/><rect x="812.3" y="359.5" width="4.3" height="4.5" fill="#93c5fd" stroke="#60a5fa" stroke-width="0.5"/><rect x="816.7" y="337.3" width="4.3" height="26.7" fill="#93c5fd" stroke="#60a5fa" stroke-width="0.5"/><rect x="821.0" y="355.1" width="4.3" height="8.9" fill="#93c5fd" stroke="#60a5fa" stroke-width="0.5"/><rect x="825.3" y="328.3" width="4.3" height="35.7" fill="#93c5fd" stroke="#60a5fa" stroke-width="0.5"/><rect x="829.7" y="350.6" width="4.3" height="13.4" fill="#93c5fd" stroke="#60a5fa" stroke-width="0.5"/><rect x="834.0" y="328.3" width="4.3" height="35.7" fill="#93c5fd" stroke="#60a5fa" stroke-width="0.5"/><rect x="838.3" y="332.8" width="4.3" height="31.2" fill="#93c5fd" stroke="#60a5fa" stroke-width="0.5"/><rect x="842.7" y="328.3" width="4.3" height="35.7" fill="#93c5fd" stroke="#60a5fa" stroke-width="0.5"/><rect x="847.0" y="341.7" width="4.3" height="22.3" fill="#93c5fd" stroke="#60a5fa" stroke-width="0.5"/><rect x="851.3" y="355.1" width="4.3" height="8.9" fill="#93c5fd" stroke="#60a5fa" stroke-width="0.5"/><rect x="855.7" y="355.1" width="4.3" height="8.9" fill="#93c5fd" stroke="#60a5fa" stroke-width="0.5"/><rect x="860.0" y="319.4" width="4.3" height="44.6" fill="#93c5fd" stroke="#60a5fa" stroke-width="0.5"/><rect x="864.3" y="315.0" width="4.3" height="49.0" fill="#93c5fd" stroke="#60a5fa" stroke-width="0.5"/><rect x="868.7" y="328.3" width="4.3" height="35.7" fill="#93c5fd" stroke="#60a5fa" stroke-width="0.5"/><rect x="873.0" y="323.9" width="4.3" height="40.1" fill="#93c5fd" stroke="#60a5fa" stroke-width="0.5"/><rect x="877.3" y="341.7" width="4.3" height="22.3" fill="#93c5fd" stroke="#60a5fa" stroke-width="0.5"/><rect x="881.7" y="359.5" width="4.3" height="4.5" fill="#93c5fd" stroke="#60a5fa" stroke-width="0.5"/><rect x="886.0" y="350.6" width="4.3" height="13.4" fill="#93c5fd" stroke="#60a5fa" stroke-width="0.5"/><rect x="890.3" y="359.5" width="4.3" height="4.5" fill="#93c5fd" stroke="#60a5fa" stroke-width="0.5"/><rect x="894.7" y="346.2" width="4.3" height="17.8" fill="#93c5fd" stroke="#60a5fa" stroke-width="0.5"/><rect x="899.0" y="346.2" width="4.3" height="17.8" fill="#93c5fd" stroke="#60a5fa" stroke-width="0.5"/><rect x="903.3" y="341.7" width="4.3" height="22.3" fill="#93c5fd" stroke="#60a5fa" stroke-width="0.5"/><rect x="907.7" y="359.5" width="4.3" height="4.5" fill="#93c5fd" stroke="#60a5fa" stroke-width="0.5"/><rect x="912.0" y="359.5" width="4.3" height="4.5" fill="#93c5fd" stroke="#60a5fa" stroke-width="0.5"/><rect x="916.3" y="315.0" width="4.3" height="49.0" fill="#93c5fd" stroke="#60a5fa" stroke-width="0.5"/><rect x="920.7" y="230.3" width="4.3" height="133.7" fill="#93c5fd" stroke="#60a5fa" stroke-width="0.5"/><rect x="925.0" y="297.1" width="4.3" height="66.9" fill="#93c5fd" stroke="#60a5fa" stroke-width="0.5"/><rect x="929.3" y="359.5" width="4.3" height="4.5" fill="#93c5fd" stroke="#60a5fa" stroke-width="0.5"/><rect x="933.7" y="319.4" width="4.3" height="44.6" fill="#93c5fd" stroke="#60a5fa" stroke-width="0.5"/><rect x="938.0" y="355.1" width="4.3" height="8.9" fill="#93c5fd" stroke="#60a5fa" stroke-width="0.5"/><rect x="942.3" y="341.7" width="4.3" height="22.3" fill="#93c5fd" stroke="#60a5fa" stroke-width="0.5"/><rect x="946.7" y="315.0" width="4.3" height="49.0" fill="#93c5fd" stroke="#60a5fa" stroke-width="0.5"/><rect x="951.0" y="350.6" width="4.3" height="13.4" fill="#93c5fd" stroke="#60a5fa" stroke-width="0.5"/><rect x="955.3" y="279.3" width="4.3" height="84.7" fill="#93c5fd" stroke="#60a5fa" stroke-width="0.5"/><rect x="959.7" y="132.2" width="4.3" height="231.8" fill="#93c5fd" stroke="#60a5fa" stroke-width="0.5"/><rect x="964.0" y="359.5" width="4.3" height="4.5" fill="#93c5fd" stroke="#60a5fa" stroke-width="0.5"/><rect x="968.3" y="212.5" width="4.3" height="151.5" fill="#93c5fd" stroke="#60a5fa" stroke-width="0.5"/><rect x="972.7" y="355.1" width="4.3" height="8.9" fill="#93c5fd" stroke="#60a5fa" stroke-width="0.5"/><rect x="977.0" y="252.6" width="4.3" height="111.4" fill="#93c5fd" stroke="#60a5fa" stroke-width="0.5"/><rect x="981.3" y="359.5" width="4.3" height="4.5" fill="#93c5fd" stroke="#60a5fa" stroke-width="0.5"/><rect x="985.7" y="337.3" width="4.3" height="26.7" fill="#93c5fd" stroke="#60a5fa" stroke-width="0.5"/><rect x="990.0" y="355.1" width="4.3" height="8.9" fill="#93c5fd" stroke="#60a5fa" stroke-width="0.5"/><rect x="994.3" y="306.1" width="4.3" height="57.9" fill="#93c5fd" stroke="#60a5fa" stroke-width="0.5"/><rect x="998.7" y="332.8" width="4.3" height="31.2" fill="#93c5fd" stroke="#60a5fa" stroke-width="0.5"/><rect x="1003.0" y="355.1" width="4.3" height="8.9" fill="#93c5fd" stroke="#60a5fa" stroke-width="0.5"/><rect x="1007.3" y="252.6" width="4.3" height="111.4" fill="#93c5fd" stroke="#60a5fa" stroke-width="0.5"/><rect x="1011.7" y="346.2" width="4.3" height="17.8" fill="#93c5fd" stroke="#60a5fa" stroke-width="0.5"/><rect x="1016.0" y="328.3" width="4.3" height="35.7" fill="#93c5fd" stroke="#60a5fa" stroke-width="0.5"/><rect x="1020.3" y="350.6" width="4.3" height="13.4" fill="#93c5fd" stroke="#60a5fa" stroke-width="0.5"/><rect x="1024.7" y="319.4" width="4.3" height="44.6" fill="#93c5fd" stroke="#60a5fa" stroke-width="0.5"/><rect x="1029.0" y="359.5" width="4.3" height="4.5" fill="#93c5fd" stroke="#60a5fa" stroke-width="0.5"/><rect x="1033.3" y="292.7" width="4.3" height="71.3" fill="#93c5fd" stroke="#60a5fa" stroke-width="0.5"/><rect x="1037.7" y="323.9" width="4.3" height="40.1" fill="#93c5fd" stroke="#60a5fa" stroke-width="0.5"/><rect x="1042.0" y="350.6" width="4.3" height="13.4" fill="#93c5fd" stroke="#60a5fa" stroke-width="0.5"/><rect x="1046.3" y="301.6" width="4.3" height="62.4" fill="#93c5fd" stroke="#60a5fa" stroke-width="0.5"/><rect x="1050.7" y="355.1" width="4.3" height="8.9" fill="#93c5fd" stroke="#60a5fa" stroke-width="0.5"/><rect x="1055.0" y="359.5" width="4.3" height="4.5" fill="#93c5fd" stroke="#60a5fa" stroke-width="0.5"/><rect x="1059.3" y="355.1" width="4.3" height="8.9" fill="#93c5fd" stroke="#60a5fa" stroke-width="0.5"/><rect x="1063.7" y="350.6" width="4.3" height="13.4" fill="#93c5fd" stroke="#60a5fa" stroke-width="0.5"/><rect x="1068.0" y="310.5" width="4.3" height="53.5" fill="#93c5fd" stroke="#60a5fa" stroke-width="0.5"/><rect x="1072.3" y="341.7" width="4.3" height="22.3" fill="#93c5fd" stroke="#60a5fa" stroke-width="0.5"/><rect x="1076.7" y="355.1" width="4.3" height="8.9" fill="#93c5fd" stroke="#60a5fa" stroke-width="0.5"/><rect x="1081.0" y="359.5" width="4.3" height="4.5" fill="#93c5fd" stroke="#60a5fa" stroke-width="0.5"/><rect x="1085.3" y="350.6" width="4.3" height="13.4" fill="#93c5fd" stroke="#60a5fa" stroke-width="0.5"/><rect x="1089.7" y="355.1" width="4.3" height="8.9" fill="#93c5fd" stroke="#60a5fa" stroke-width="0.5"/><rect x="1094.0" y="265.9" width="4.3" height="98.1" fill="#93c5fd" stroke="#60a5fa" stroke-width="0.5"/><rect x="1098.3" y="323.9" width="4.3" height="40.1" fill="#93c5fd" stroke="#60a5fa" stroke-width="0.5"/><rect x="1102.7" y="332.8" width="4.3" height="31.2" fill="#93c5fd" stroke="#60a5fa" stroke-width="0.5"/><rect x="1107.0" y="359.5" width="4.3" height="4.5" fill="#93c5fd" stroke="#60a5fa" stroke-width="0.5"/><rect x="1111.3" y="328.3" width="4.3" height="35.7" fill="#93c5fd" stroke="#60a5fa" stroke-width="0.5"/><rect x="1115.7" y="350.6" width="4.3" height="13.4" fill="#93c5fd" stroke="#60a5fa" stroke-width="0.5"/><rect x="1120.0" y="301.6" width="4.3" height="62.4" fill="#93c5fd" stroke="#60a5fa" stroke-width="0.5"/><rect x="1124.3" y="212.5" width="4.3" height="151.5" fill="#93c5fd" stroke="#60a5fa" stroke-width="0.5"/><rect x="1128.7" y="346.2" width="4.3" height="17.8" fill="#93c5fd" stroke="#60a5fa" stroke-width="0.5"/><rect x="1133.0" y="279.3" width="4.3" height="84.7" fill="#93c5fd" stroke="#60a5fa" stroke-width="0.5"/><rect x="1137.3" y="359.5" width="4.3" height="4.5" fill="#93c5fd" stroke="#60a5fa" stroke-width="0.5"/><rect x="1141.7" y="190.2" width="4.3" height="173.8" fill="#93c5fd" stroke="#60a5fa" stroke-width="0.5"/><rect x="1146.0" y="310.5" width="4.3" height="53.5" fill="#93c5fd" stroke="#60a5fa" stroke-width="0.5"/><rect x="1150.3" y="306.1" width="4.3" height="57.9" fill="#93c5fd" stroke="#60a5fa" stroke-width="0.5"/><rect x="1154.7" y="355.1" width="4.3" height="8.9" fill="#93c5fd" stroke="#60a5fa" stroke-width="0.5"/><rect x="1159.0" y="323.9" width="4.3" height="40.1" fill="#93c5fd" stroke="#60a5fa" stroke-width="0.5"/><rect x="1163.3" y="346.2" width="4.3" height="17.8" fill="#93c5fd" stroke="#60a5fa" stroke-width="0.5"/><rect x="1167.7" y="328.3" width="4.3" height="35.7" fill="#93c5fd" stroke="#60a5fa" stroke-width="0.5"/><rect x="1172.0" y="350.6" width="4.3" height="13.4" fill="#93c5fd" stroke="#60a5fa" stroke-width="0.5"/><rect x="1176.3" y="359.5" width="4.3" height="4.5" fill="#93c5fd" stroke="#60a5fa" stroke-width="0.5"/><rect x="1180.7" y="346.2" width="4.3" height="17.8" fill="#93c5fd" stroke="#60a5fa" stroke-width="0.5"/><rect x="1185.0" y="359.5" width="4.3" height="4.5" fill="#93c5fd" stroke="#60a5fa" stroke-width="0.5"/><rect x="1189.3" y="359.5" width="4.3" height="4.5" fill="#93c5fd" stroke="#60a5fa" stroke-width="0.5"/><rect x="1193.7" y="359.5" width="4.3" height="4.5" fill="#93c5fd" stroke="#60a5fa" stroke-width="0.5"/><polyline fill="none" stroke="#ef4444" stroke-width="2" points="82.2,363.1 86.5,362.9 90.8,362.7 95.2,362.2 99.5,362.0 103.8,361.4 108.2,361.1 112.5,360.9 116.8,360.7 121.2,360.5 125.5,360.3 129.8,360.0 134.2,359.8 138.5,359.4 142.8,358.5 147.2,358.3 151.5,358.1 155.8,357.4 160.2,356.3 164.5,353.4 168.8,353.0 173.2,352.3 177.5,352.1 181.8,351.5 186.2,351.2 190.5,350.1 194.8,349.9 199.2,349.7 203.5,349.5 207.8,349.3 212.2,349.0 216.5,348.8 220.8,348.6 225.2,348.4 229.5,348.2 233.8,347.9 238.2,347.7 242.5,347.5 246.8,347.3 251.2,347.1 255.5,346.4 259.8,346.2 264.2,346.0 268.5,343.6 272.8,343.3 277.2,342.0 281.5,340.3 285.8,340.0 290.2,339.6 294.5,338.9 298.8,338.5 303.2,338.1 307.5,337.4 311.8,337.2 316.2,337.0 320.5,336.7 324.8,336.5 329.2,335.9 333.5,335.6 337.8,333.9 342.2,333.7 346.5,333.4 350.8,333.2 355.2,332.6 359.5,332.3 363.8,332.1 368.2,331.7 372.5,331.0 376.8,330.8 381.2,330.1 385.5,329.7 389.8,329.0 394.2,328.8 398.5,326.6 402.8,325.7 407.2,324.9 411.5,324.6 415.8,324.4 420.2,324.2 424.5,323.8 428.8,323.3 433.2,322.7 437.5,322.2 441.8,321.6 446.2,321.3 450.5,320.9 454.8,320.7 459.2,319.4 463.5,319.1 467.8,318.9 472.2,318.7 476.5,318.5 480.8,318.3 485.2,316.9 489.5,316.7 493.8,315.8 498.2,313.6 502.5,311.9 506.8,311.5 511.2,311.0 515.5,310.6 519.8,310.1 524.2,309.5 528.5,308.4 532.8,308.2 537.2,306.2 541.5,305.7 545.8,304.9 550.2,304.4 554.5,304.2 558.8,304.0 563.2,303.5 567.5,302.9 571.8,302.4 576.2,300.0 580.5,297.8 584.8,296.9 589.2,296.7 593.5,295.0 597.8,293.2 602.2,287.9 606.5,287.5 610.8,286.4 615.2,285.7 619.5,282.9 623.8,281.5 628.2,278.5 632.5,276.3 636.8,275.8 641.2,275.6 645.5,274.5 649.8,271.7 654.2,270.8 658.5,265.5 662.8,264.4 667.2,249.0 671.5,245.3 675.8,244.6 680.2,244.2 684.5,235.2 688.8,233.8 693.2,233.2 697.5,232.7 701.8,231.9 706.2,230.1 710.5,229.9 714.8,229.7 719.2,228.8 723.5,227.7 727.8,226.4 732.2,225.0 736.5,224.8 740.8,223.7 745.2,222.2 749.5,220.6 753.8,218.9 758.2,216.9 762.5,215.4 766.8,214.5 771.2,213.8 775.5,213.2 779.8,211.6 784.2,211.4 788.5,210.7 792.8,210.3 797.2,209.9 801.5,209.4 805.8,209.0 810.2,208.8 814.5,208.5 818.8,207.2 823.2,206.8 827.5,205.0 831.8,204.4 836.2,202.6 840.5,201.1 844.8,199.3 849.2,198.2 853.5,197.8 857.8,197.3 862.2,195.1 866.5,192.7 870.8,191.0 875.2,189.0 879.5,187.9 883.8,187.7 888.2,187.0 892.5,186.8 896.8,185.9 901.2,185.0 905.5,183.9 909.8,183.7 914.2,183.5 918.5,181.1 922.8,174.5 927.2,171.2 931.5,171.0 935.8,168.8 940.2,168.3 944.5,167.2 948.8,164.8 953.2,164.1 957.5,160.0 961.8,148.5 966.2,148.3 970.5,140.8 974.8,140.4 979.2,134.9 983.5,134.7 987.8,133.4 992.2,132.9 996.5,130.1 1000.8,128.5 1005.2,128.1 1009.5,122.6 1013.8,121.7 1018.2,119.9 1022.5,119.3 1026.8,117.1 1031.2,116.9 1035.5,113.3 1039.8,111.4 1044.2,110.7 1048.5,107.6 1052.8,107.2 1057.2,107.0 1061.5,106.5 1065.8,105.9 1070.2,103.2 1074.5,102.1 1078.8,101.7 1083.2,101.5 1087.5,100.8 1091.8,100.4 1096.2,95.5 1100.5,93.6 1104.8,92.0 1109.2,91.8 1113.5,90.0 1117.8,89.4 1122.2,86.3 1126.5,78.8 1130.8,77.9 1135.2,73.8 1139.5,73.5 1143.8,65.0 1148.2,62.3 1152.5,59.5 1156.8,59.0 1161.2,57.1 1165.5,56.2 1169.8,54.4 1174.2,53.8 1178.5,53.5 1182.8,52.7 1187.2,52.4 1191.5,52.2 1195.8,52.0"/><line x1="82.2" y1="364.0" x2="82.2" y2="370.0" stroke="#111827" stroke-width="1"/><text x="84.2" y="386.0" font-size="11" text-anchor="end" transform="rotate(-35 84.2 386.0)" font-family="sans-serif" fill="#374151">2022-10-13</text><line x1="242.5" y1="364.0" x2="242.5" y2="370.0" stroke="#111827" stroke-width="1"/><text x="244.5" y="386.0" font-size="11" text-anchor="end" transform="rotate(-35 244.5 386.0)" font-family="sans-serif" fill="#374151">2025-03-27</text><line x1="398.5" y1="364.0" x2="398.5" y2="370.0" stroke="#111827" stroke-width="1"/><text x="400.5" y="386.0" font-size="11" text-anchor="end" transform="rotate(-35 400.5 386.0)" font-family="sans-serif" fill="#374151">2025-07-21</text><line x1="558.8" y1="364.0" x2="558.8" y2="370.0" stroke="#111827" stroke-width="1"/><text x="560.8" y="386.0" font-size="11" text-anchor="end" transform="rotate(-35 560.8 386.0)" font-family="sans-serif" fill="#374151">2025-09-28</text><line x1="719.2" y1="364.0" x2="719.2" y2="370.0" stroke="#111827" stroke-width="1"/><text x="721.2" y="386.0" font-size="11" text-anchor="end" transform="rotate(-35 721.2 386.0)" font-family="sans-serif" fill="#374151">2025-11-21</text><line x1="879.5" y1="364.0" x2="879.5" y2="370.0" stroke="#111827" stroke-width="1"/><text x="881.5" y="386.0" font-size="11" text-anchor="end" transform="rotate(-35 881.5 386.0)" font-family="sans-serif" fill="#374151">2026-01-10</text><line x1="1035.5" y1="364.0" x2="1035.5" y2="370.0" stroke="#111827" stroke-width="1"/><text x="1037.5" y="386.0" font-size="11" text-anchor="end" transform="rotate(-35 1037.5 386.0)" font-family="sans-serif" fill="#374151">2026-02-20</text><line x1="1195.8" y1="364.0" x2="1195.8" y2="370.0" stroke="#111827" stroke-width="1"/><text x="1197.8" y="386.0" font-size="11" text-anchor="end" transform="rotate(-35 1197.8 386.0)" font-family="sans-serif" fill="#374151">2026-04-13</text><text x="26" y="208.0" font-size="12" transform="rotate(-90 26 208.0)" text-anchor="middle" font-family="sans-serif" fill="#1f2937">구간별 수</text><text x="1256.0" y="208.0" font-size="12" transform="rotate(90 1256.0 208.0)" text-anchor="middle" font-family="sans-serif" fill="#1f2937">누적</text><text x="639.0" y="442.0" font-size="13" text-anchor="middle" font-family="sans-serif" fill="#111827">일</text></svg>