<svg xmlns="http://www.w3.org/2000/svg" width="1280" height="460" viewBox="0 0 1280 460"><rect x="0" y="0" width="100%" height="100%" fill="#ffffff"/><text x="640.0" y="28" font-size="20" text-anchor="middle" font-family="sans-serif" fill="#111827">시리즈 / 최근 반영 시점 / 시간별</text><line x1="80.0" y1="52.0" x2="1198.0" y2="52.0" stroke="#e5e7eb" stroke-width="1"/><text x="72.0" y="56.0" font-size="11" text-anchor="end" font-family="sans-serif" fill="#374151">1,214</text><text x="1206.0" y="56.0" font-size="11" text-anchor="start" font-family="sans-serif" fill="#374151">1,417</text><line x1="80.0" y1="114.4" x2="1198.0" y2="114.4" stroke="#e5e7eb" stroke-width="1"/><text x="72.0" y="118.4" font-size="11" text-anchor="end" font-family="sans-serif" fill="#374151">971</text><text x="1206.0" y="118.4" font-size="11" text-anchor="start" font-family="sans-serif" fill="#374151">1,134</text><line x1="80.0" y1="176.8" x2="1198.0" y2="176.8" stroke="#e5e7eb" stroke-width="1"/><text x="72.0" y="180.8" font-size="11" text-anchor="end" font-family="sans-serif" fill="#374151">728</text><text x="1206.0" y="180.8" font-size="11" text-anchor="start" font-family="sans-serif" fill="#374151">850</text><line x1="80.0" y1="239.2" x2="1198.0" y2="239.2" stroke="#e5e7eb" stroke-width="1"/><text x="72.0" y="243.2" font-size="11" text-anchor="end" font-family="sans-serif" fill="#374151">486</text><text x="1206.0" y="243.2" font-size="11" text-anchor="start" font-family="sans-serif" fill="#374151">567</text><line x1="80.0" y1="301.6" x2="1198.0" y2="301.6" stroke="#e5e7eb" stroke-width="1"/><text x="72.0" y="305.6" font-size="11" text-anchor="end" font-family="sans-serif" fill="#374151">243</text><text x="1206.0" y="305.6" font-size="11" text-anchor="start" font-family="sans-serif" fill="#374151">283</text><line x1="80.0" y1="364.0" x2="1198.0" y2="364.0" stroke="#e5e7eb" stroke-width="1"/><text x="72.0" y="368.0" font-size="11" text-anchor="end" font-family="sans-serif" fill="#374151">0</text><text x="1206.0" y="368.0" font-size="11" text-anchor="start" font-family="sans-serif" fill="#374151">0</text><line x1="80.0" y1="364.0" x2="1198.0" y2="364.0" stroke="#111827" stroke-width="1.2"/><line x1="80.0" y1="52.0" x2="80.0" y2="364.0" stroke="#111827" stroke-width="1.2"/><line x1="1198.0" y1="52.0" x2="1198.0" y2="364.0" stroke="#111827" stroke-width="1.2"/><rect x="81.0" y="363.7" width="77.9" height="0.3" fill="#93c5fd" stroke="#60a5fa" stroke-width="0.5"/><rect x="160.9" y="363.7" width="77.9" height="0.3" fill="#93c5fd" stroke="#60a5fa" stroke-width="0.5"/><rect x="240.7" y="362.7" width="77.9" height="1.3" fill="#93c5fd" stroke="#60a5fa" stroke-width="0.5"/><rect x="320.6" y="362.2" width="77.9" height="1.8" fill="#93c5fd" stroke="#60a5fa" stroke-width="0.5"/><rect x="400.4" y="363.7" width="77.9" height="0.3" fill="#93c5fd" stroke="#60a5fa" stroke-width="0.5"/><rect x="480.3" y="351.4" width="77.9" height="12.6" fill="#93c5fd" stroke="#60a5fa" stroke-width="0.5"/><rect x="560.1" y="362.2" width="77.9" height="1.8" fill="#93c5fd" stroke="#60a5fa" stroke-width="0.5"/><rect x="640.0" y="363.5" width="77.9" height="0.5" fill="#93c5fd" stroke="#60a5fa" stroke-width="0.5"/><rect x="719.9" y="363.7" width="77.9" height="0.3" fill="#93c5fd" stroke="#60a5fa" stroke-width="0.5"/><rect x="799.7" y="363.0" width="77.9" height="1.0" fill="#93c5fd" stroke="#60a5fa" stroke-width="0.5"/><rect x="879.6" y="363.0" width="77.9" height="1.0" fill="#93c5fd" stroke="#60a5fa" stroke-width="0.5"/><rect x="959.4" y="359.9" width="77.9" height="4.1" fill="#93c5fd" stroke="#60a5fa" stroke-width="0.5"/><rect x="1039.3" y="337.0" width="77.9" height="27.0" fill="#93c5fd" stroke="#60a5fa" stroke-width="0.5"/><rect x="1119.1" y="52.0" width="77.9" height="312.0" fill="#93c5fd" stroke="#60a5fa" stroke-width="0.5"/><polyline fill="none" stroke="#ef4444" stroke-width="2" points="119.9,363.8 199.8,363.6 279.6,362.5 359.5,360.9 439.4,360.7 519.2,349.9 599.1,348.4 678.9,347.9 758.8,347.7 838.6,346.8 918.5,345.9 998.4,342.4 1078.2,319.3 1158.1,52.0"/><line x1="119.9" y1="364.0" x2="119.9" y2="370.0" stroke="#111827" stroke-width="1"/><text x="121.9" y="386.0" font-size="11" text-anchor="end" transform="rotate(-35 121.9 386.0)" font-family="sans-serif" fill="#374151">2026-04-10 02:00</text><line x1="279.6" y1="364.0" x2="279.6" y2="370.0" stroke="#111827" stroke-width="1"/><text x="281.6" y="386.0" font-size="11" text-anchor="end" transform="rotate(-35 281.6 386.0)" font-family="sans-serif" fill="#374151">2026-04-10 15:00</text><line x1="439.4" y1="364.0" x2="439.4" y2="370.0" stroke="#111827" stroke-width="1"/><text x="441.4" y="386.0" font-size="11" text-anchor="end" transform="rotate(-35 441.4 386.0)" font-family="sans-serif" fill="#374151">2026-04-10 17:00</text><line x1="599.1" y1="364.0" x2="599.1" y2="370.0" stroke="#111827" stroke-width="1"/><text x="601.1" y="386.0" font-size="11" text-anchor="end" transform="rotate(-35 601.1 386.0)" font-family="sans-serif" fill="#374151">2026-04-10 19:00</text><line x1="678.9" y1="364.0" x2="678.9" y2="370.0" stroke="#111827" stroke-width="1"/><text x="680.9" y="386.0" font-size="11" text-anchor="end" transform="rotate(-35 680.9 386.0)" font-family="sans-serif" fill="#374151">2026-04-10 21:00</text><line x1="838.6" y1="364.0" x2="838.6" y2="370.0" stroke="#111827" stroke-width="1"/><text x="840.6" y="386.0" font-size="11" text-anchor="end" transform="rotate(-35 840.6 386.0)" font-family="sans-serif" fill="#374151">2026-04-10 23:00</text><line x1="998.4" y1="364.0" x2="998.4" y2="370.0" stroke="#111827" stroke-width="1"/><text x="1000.4" y="386.0" font-size="11" text-anchor="end" transform="rotate(-35 1000.4 386.0)" font-family="sans-serif" fill="#374151">2026-04-11 03:00</text><line x1="1158.1" y1="364.0" x2="1158.1" y2="370.0" stroke="#111827" stroke-width="1"/><text x="1160.1" y="386.0" font-size="11" text-anchor="end" transform="rotate(-35 1160.1 386.0)" font-family="sans-serif" fill="#374151">2026-04-11 06:00</text><text x="26" y="208.0" font-size="12" transform="rotate(-90 26 208.0)" text-anchor="middle" font-family="sans-serif" fill="#1f2937">구간별 수</text><text x="1256.0" y="208.0" font-size="12" transform="rotate(90 1256.0 208.0)" text-anchor="middle" font-family="sans-serif" fill="#1f2937">누적</text><text x="639.0" y="442.0" font-size="13" text-anchor="middle" font-family="sans-serif" fill="#111827">시간</text></svg>