<svg xmlns="http://www.w3.org/2000/svg" width="1280" height="460" viewBox="0 0 1280 460"><rect x="0" y="0" width="100%" height="100%" fill="#ffffff"/><text x="640.0" y="28" font-size="20" text-anchor="middle" font-family="sans-serif" fill="#111827">시리즈 / 생성 시점 / 월별</text><line x1="80.0" y1="52.0" x2="1198.0" y2="52.0" stroke="#e5e7eb" stroke-width="1"/><text x="72.0" y="56.0" font-size="11" text-anchor="end" font-family="sans-serif" fill="#374151">231</text><text x="1206.0" y="56.0" font-size="11" text-anchor="start" font-family="sans-serif" fill="#374151">1,384</text><line x1="80.0" y1="114.4" x2="1198.0" y2="114.4" stroke="#e5e7eb" stroke-width="1"/><text x="72.0" y="118.4" font-size="11" text-anchor="end" font-family="sans-serif" fill="#374151">185</text><text x="1206.0" y="118.4" font-size="11" text-anchor="start" font-family="sans-serif" fill="#374151">1,107</text><line x1="80.0" y1="176.8" x2="1198.0" y2="176.8" stroke="#e5e7eb" stroke-width="1"/><text x="72.0" y="180.8" font-size="11" text-anchor="end" font-family="sans-serif" fill="#374151">139</text><text x="1206.0" y="180.8" font-size="11" text-anchor="start" font-family="sans-serif" fill="#374151">830</text><line x1="80.0" y1="239.2" x2="1198.0" y2="239.2" stroke="#e5e7eb" stroke-width="1"/><text x="72.0" y="243.2" font-size="11" text-anchor="end" font-family="sans-serif" fill="#374151">92</text><text x="1206.0" y="243.2" font-size="11" text-anchor="start" font-family="sans-serif" fill="#374151">554</text><line x1="80.0" y1="301.6" x2="1198.0" y2="301.6" stroke="#e5e7eb" stroke-width="1"/><text x="72.0" y="305.6" font-size="11" text-anchor="end" font-family="sans-serif" fill="#374151">46</text><text x="1206.0" y="305.6" font-size="11" text-anchor="start" font-family="sans-serif" fill="#374151">277</text><line x1="80.0" y1="364.0" x2="1198.0" y2="364.0" stroke="#e5e7eb" stroke-width="1"/><text x="72.0" y="368.0" font-size="11" text-anchor="end" font-family="sans-serif" fill="#374151">0</text><text x="1206.0" y="368.0" font-size="11" text-anchor="start" font-family="sans-serif" fill="#374151">0</text><line x1="80.0" y1="364.0" x2="1198.0" y2="364.0" stroke="#111827" stroke-width="1.2"/><line x1="80.0" y1="52.0" x2="80.0" y2="364.0" stroke="#111827" stroke-width="1.2"/><line x1="1198.0" y1="52.0" x2="1198.0" y2="364.0" stroke="#111827" stroke-width="1.2"/><rect x="81.0" y="358.6" width="44.6" height="5.4" fill="#93c5fd" stroke="#60a5fa" stroke-width="0.5"/><rect x="127.6" y="362.6" width="44.6" height="1.4" fill="#93c5fd" stroke="#60a5fa" stroke-width="0.5"/><rect x="174.2" y="359.9" width="44.6" height="4.1" fill="#93c5fd" stroke="#60a5fa" stroke-width="0.5"/><rect x="220.8" y="354.5" width="44.6" height="9.5" fill="#93c5fd" stroke="#60a5fa" stroke-width="0.5"/><rect x="267.3" y="362.6" width="44.6" height="1.4" fill="#93c5fd" stroke="#60a5fa" stroke-width="0.5"/><rect x="313.9" y="362.6" width="44.6" height="1.4" fill="#93c5fd" stroke="#60a5fa" stroke-width="0.5"/><rect x="360.5" y="362.6" width="44.6" height="1.4" fill="#93c5fd" stroke="#60a5fa" stroke-width="0.5"/><rect x="407.1" y="362.6" width="44.6" height="1.4" fill="#93c5fd" stroke="#60a5fa" stroke-width="0.5"/><rect x="453.7" y="361.3" width="44.6" height="2.7" fill="#93c5fd" stroke="#60a5fa" stroke-width="0.5"/><rect x="500.2" y="345.1" width="44.6" height="18.9" fill="#93c5fd" stroke="#60a5fa" stroke-width="0.5"/><rect x="546.8" y="318.1" width="44.6" height="45.9" fill="#93c5fd" stroke="#60a5fa" stroke-width="0.5"/><rect x="593.4" y="354.5" width="44.6" height="9.5" fill="#93c5fd" stroke="#60a5fa" stroke-width="0.5"/><rect x="640.0" y="341.0" width="44.6" height="23.0" fill="#93c5fd" stroke="#60a5fa" stroke-width="0.5"/><rect x="686.6" y="322.1" width="44.6" height="41.9" fill="#93c5fd" stroke="#60a5fa" stroke-width="0.5"/><rect x="733.2" y="327.5" width="44.6" height="36.5" fill="#93c5fd" stroke="#60a5fa" stroke-width="0.5"/><rect x="779.8" y="323.5" width="44.6" height="40.5" fill="#93c5fd" stroke="#60a5fa" stroke-width="0.5"/><rect x="826.3" y="318.1" width="44.6" height="45.9" fill="#93c5fd" stroke="#60a5fa" stroke-width="0.5"/><rect x="872.9" y="278.9" width="44.6" height="85.1" fill="#93c5fd" stroke="#60a5fa" stroke-width="0.5"/><rect x="919.5" y="166.8" width="44.6" height="197.2" fill="#93c5fd" stroke="#60a5fa" stroke-width="0.5"/><rect x="966.1" y="81.7" width="44.6" height="282.3" fill="#93c5fd" stroke="#60a5fa" stroke-width="0.5"/><rect x="1012.7" y="207.3" width="44.6" height="156.7" fill="#93c5fd" stroke="#60a5fa" stroke-width="0.5"/><rect x="1059.2" y="52.0" width="44.6" height="312.0" fill="#93c5fd" stroke="#60a5fa" stroke-width="0.5"/><rect x="1105.8" y="106.0" width="44.6" height="258.0" fill="#93c5fd" stroke="#60a5fa" stroke-width="0.5"/><rect x="1152.4" y="76.3" width="44.6" height="287.7" fill="#93c5fd" stroke="#60a5fa" stroke-width="0.5"/><polyline fill="none" stroke="#ef4444" stroke-width="2" points="103.3,363.1 149.9,362.9 196.5,362.2 243.0,360.6 289.6,360.4 336.2,360.2 382.8,359.9 429.4,359.7 476.0,359.3 522.5,356.1 569.1,348.4 615.7,346.9 662.3,343.0 708.9,336.0 755.5,330.0 802.0,323.2 848.6,315.5 895.2,301.3 941.8,268.4 988.4,221.3 1035.0,195.2 1081.5,143.1 1128.1,100.0 1174.7,52.0"/><line x1="103.3" y1="364.0" x2="103.3" y2="370.0" stroke="#111827" stroke-width="1"/><text x="105.3" y="386.0" font-size="11" text-anchor="end" transform="rotate(-35 105.3 386.0)" font-family="sans-serif" fill="#374151">2022-10</text><line x1="243.0" y1="364.0" x2="243.0" y2="370.0" stroke="#111827" stroke-width="1"/><text x="245.0" y="386.0" font-size="11" text-anchor="end" transform="rotate(-35 245.0 386.0)" font-family="sans-serif" fill="#374151">2023-03</text><line x1="429.4" y1="364.0" x2="429.4" y2="370.0" stroke="#111827" stroke-width="1"/><text x="431.4" y="386.0" font-size="11" text-anchor="end" transform="rotate(-35 431.4 386.0)" font-family="sans-serif" fill="#374151">2024-09</text><line x1="569.1" y1="364.0" x2="569.1" y2="370.0" stroke="#111827" stroke-width="1"/><text x="571.1" y="386.0" font-size="11" text-anchor="end" transform="rotate(-35 571.1 386.0)" font-family="sans-serif" fill="#374151">2025-02</text><line x1="708.9" y1="364.0" x2="708.9" y2="370.0" stroke="#111827" stroke-width="1"/><text x="710.9" y="386.0" font-size="11" text-anchor="end" transform="rotate(-35 710.9 386.0)" font-family="sans-serif" fill="#374151">2025-05</text><line x1="848.6" y1="364.0" x2="848.6" y2="370.0" stroke="#111827" stroke-width="1"/><text x="850.6" y="386.0" font-size="11" text-anchor="end" transform="rotate(-35 850.6 386.0)" font-family="sans-serif" fill="#374151">2025-08</text><line x1="1035.0" y1="364.0" x2="1035.0" y2="370.0" stroke="#111827" stroke-width="1"/><text x="1037.0" y="386.0" font-size="11" text-anchor="end" transform="rotate(-35 1037.0 386.0)" font-family="sans-serif" fill="#374151">2025-12</text><line x1="1174.7" y1="364.0" x2="1174.7" y2="370.0" stroke="#111827" stroke-width="1"/><text x="1176.7" y="386.0" font-size="11" text-anchor="end" transform="rotate(-35 1176.7 386.0)" font-family="sans-serif" fill="#374151">2026-03</text><text x="26" y="208.0" font-size="12" transform="rotate(-90 26 208.0)" text-anchor="middle" font-family="sans-serif" fill="#1f2937">구간별 수</text><text x="1256.0" y="208.0" font-size="12" transform="rotate(90 1256.0 208.0)" text-anchor="middle" font-family="sans-serif" fill="#1f2937">누적</text><text x="639.0" y="442.0" font-size="13" text-anchor="middle" font-family="sans-serif" fill="#111827">월</text></svg>