<svg xmlns="http://www.w3.org/2000/svg" width="1280" height="460" viewBox="0 0 1280 460"><rect x="0" y="0" width="100%" height="100%" fill="#ffffff"/><text x="640.0" y="28" font-size="20" text-anchor="middle" font-family="sans-serif" fill="#111827">시리즈 / 생성 시점 / 일별</text><line x1="80.0" y1="52.0" x2="1198.0" y2="52.0" stroke="#e5e7eb" stroke-width="1"/><text x="72.0" y="56.0" font-size="11" text-anchor="end" font-family="sans-serif" fill="#374151">70</text><text x="1206.0" y="56.0" font-size="11" text-anchor="start" font-family="sans-serif" fill="#374151">1,398</text><line x1="80.0" y1="114.4" x2="1198.0" y2="114.4" stroke="#e5e7eb" stroke-width="1"/><text x="72.0" y="118.4" font-size="11" text-anchor="end" font-family="sans-serif" fill="#374151">56</text><text x="1206.0" y="118.4" font-size="11" text-anchor="start" font-family="sans-serif" fill="#374151">1,118</text><line x1="80.0" y1="176.8" x2="1198.0" y2="176.8" stroke="#e5e7eb" stroke-width="1"/><text x="72.0" y="180.8" font-size="11" text-anchor="end" font-family="sans-serif" fill="#374151">42</text><text x="1206.0" y="180.8" font-size="11" text-anchor="start" font-family="sans-serif" fill="#374151">839</text><line x1="80.0" y1="239.2" x2="1198.0" y2="239.2" stroke="#e5e7eb" stroke-width="1"/><text x="72.0" y="243.2" font-size="11" text-anchor="end" font-family="sans-serif" fill="#374151">28</text><text x="1206.0" y="243.2" font-size="11" text-anchor="start" font-family="sans-serif" fill="#374151">559</text><line x1="80.0" y1="301.6" x2="1198.0" y2="301.6" stroke="#e5e7eb" stroke-width="1"/><text x="72.0" y="305.6" font-size="11" text-anchor="end" font-family="sans-serif" fill="#374151">14</text><text x="1206.0" y="305.6" font-size="11" text-anchor="start" font-family="sans-serif" fill="#374151">280</text><line x1="80.0" y1="364.0" x2="1198.0" y2="364.0" stroke="#e5e7eb" stroke-width="1"/><text x="72.0" y="368.0" font-size="11" text-anchor="end" font-family="sans-serif" fill="#374151">0</text><text x="1206.0" y="368.0" font-size="11" text-anchor="start" font-family="sans-serif" fill="#374151">0</text><line x1="80.0" y1="364.0" x2="1198.0" y2="364.0" stroke="#111827" stroke-width="1.2"/><line x1="80.0" y1="52.0" x2="80.0" y2="364.0" stroke="#111827" stroke-width="1.2"/><line x1="1198.0" y1="52.0" x2="1198.0" y2="364.0" stroke="#111827" stroke-width="1.2"/><rect x="80.0" y="346.2" width="4.5" height="17.8" fill="#93c5fd" stroke="#60a5fa" stroke-width="0.5"/><rect x="84.5" y="359.5" width="4.5" height="4.5" fill="#93c5fd" stroke="#60a5fa" stroke-width="0.5"/><rect x="88.9" y="359.5" width="4.5" height="4.5" fill="#93c5fd" stroke="#60a5fa" stroke-width="0.5"/><rect x="93.4" y="355.1" width="4.5" height="8.9" fill="#93c5fd" stroke="#60a5fa" stroke-width="0.5"/><rect x="97.8" y="359.5" width="4.5" height="4.5" fill="#93c5fd" stroke="#60a5fa" stroke-width="0.5"/><rect x="102.3" y="350.6" width="4.5" height="13.4" fill="#93c5fd" stroke="#60a5fa" stroke-width="0.5"/><rect x="106.7" y="359.5" width="4.5" height="4.5" fill="#93c5fd" stroke="#60a5fa" stroke-width="0.5"/><rect x="111.2" y="359.5" width="4.5" height="4.5" fill="#93c5fd" stroke="#60a5fa" stroke-width="0.5"/><rect x="115.6" y="359.5" width="4.5" height="4.5" fill="#93c5fd" stroke="#60a5fa" stroke-width="0.5"/><rect x="120.1" y="359.5" width="4.5" height="4.5" fill="#93c5fd" stroke="#60a5fa" stroke-width="0.5"/><rect x="124.5" y="359.5" width="4.5" height="4.5" fill="#93c5fd" stroke="#60a5fa" stroke-width="0.5"/><rect x="129.0" y="359.5" width="4.5" height="4.5" fill="#93c5fd" stroke="#60a5fa" stroke-width="0.5"/><rect x="133.5" y="359.5" width="4.5" height="4.5" fill="#93c5fd" stroke="#60a5fa" stroke-width="0.5"/><rect x="137.9" y="355.1" width="4.5" height="8.9" fill="#93c5fd" stroke="#60a5fa" stroke-width="0.5"/><rect x="142.4" y="346.2" width="4.5" height="17.8" fill="#93c5fd" stroke="#60a5fa" stroke-width="0.5"/><rect x="146.8" y="359.5" width="4.5" height="4.5" fill="#93c5fd" stroke="#60a5fa" stroke-width="0.5"/><rect x="151.3" y="359.5" width="4.5" height="4.5" fill="#93c5fd" stroke="#60a5fa" stroke-width="0.5"/><rect x="155.7" y="350.6" width="4.5" height="13.4" fill="#93c5fd" stroke="#60a5fa" stroke-width="0.5"/><rect x="160.2" y="341.7" width="4.5" height="22.3" fill="#93c5fd" stroke="#60a5fa" stroke-width="0.5"/><rect x="164.6" y="306.1" width="4.5" height="57.9" fill="#93c5fd" stroke="#60a5fa" stroke-width="0.5"/><rect x="169.1" y="355.1" width="4.5" height="8.9" fill="#93c5fd" stroke="#60a5fa" stroke-width="0.5"/><rect x="173.5" y="350.6" width="4.5" height="13.4" fill="#93c5fd" stroke="#60a5fa" stroke-width="0.5"/><rect x="178.0" y="359.5" width="4.5" height="4.5" fill="#93c5fd" stroke="#60a5fa" stroke-width="0.5"/><rect x="182.4" y="350.6" width="4.5" height="13.4" fill="#93c5fd" stroke="#60a5fa" stroke-width="0.5"/><rect x="186.9" y="359.5" width="4.5" height="4.5" fill="#93c5fd" stroke="#60a5fa" stroke-width="0.5"/><rect x="191.4" y="341.7" width="4.5" height="22.3" fill="#93c5fd" stroke="#60a5fa" stroke-width="0.5"/><rect x="195.8" y="359.5" width="4.5" height="4.5" fill="#93c5fd" stroke="#60a5fa" stroke-width="0.5"/><rect x="200.3" y="359.5" width="4.5" height="4.5" fill="#93c5fd" stroke="#60a5fa" stroke-width="0.5"/><rect x="204.7" y="359.5" width="4.5" height="4.5" fill="#93c5fd" stroke="#60a5fa" stroke-width="0.5"/><rect x="209.2" y="359.5" width="4.5" height="4.5" fill="#93c5fd" stroke="#60a5fa" stroke-width="0.5"/><rect x="213.6" y="359.5" width="4.5" height="4.5" fill="#93c5fd" stroke="#60a5fa" stroke-width="0.5"/><rect x="218.1" y="359.5" width="4.5" height="4.5" fill="#93c5fd" stroke="#60a5fa" stroke-width="0.5"/><rect x="222.5" y="359.5" width="4.5" height="4.5" fill="#93c5fd" stroke="#60a5fa" stroke-width="0.5"/><rect x="227.0" y="359.5" width="4.5" height="4.5" fill="#93c5fd" stroke="#60a5fa" stroke-width="0.5"/><rect x="231.4" y="359.5" width="4.5" height="4.5" fill="#93c5fd" stroke="#60a5fa" stroke-width="0.5"/><rect x="235.9" y="359.5" width="4.5" height="4.5" fill="#93c5fd" stroke="#60a5fa" stroke-width="0.5"/><rect x="240.4" y="359.5" width="4.5" height="4.5" fill="#93c5fd" stroke="#60a5fa" stroke-width="0.5"/><rect x="244.8" y="359.5" width="4.5" height="4.5" fill="#93c5fd" stroke="#60a5fa" stroke-width="0.5"/><rect x="249.3" y="359.5" width="4.5" height="4.5" fill="#93c5fd" stroke="#60a5fa" stroke-width="0.5"/><rect x="253.7" y="359.5" width="4.5" height="4.5" fill="#93c5fd" stroke="#60a5fa" stroke-width="0.5"/><rect x="258.2" y="350.6" width="4.5" height="13.4" fill="#93c5fd" stroke="#60a5fa" stroke-width="0.5"/><rect x="262.6" y="359.5" width="4.5" height="4.5" fill="#93c5fd" stroke="#60a5fa" stroke-width="0.5"/><rect x="267.1" y="359.5" width="4.5" height="4.5" fill="#93c5fd" stroke="#60a5fa" stroke-width="0.5"/><rect x="271.5" y="315.0" width="4.5" height="49.0" fill="#93c5fd" stroke="#60a5fa" stroke-width="0.5"/><rect x="276.0" y="359.5" width="4.5" height="4.5" fill="#93c5fd" stroke="#60a5fa" stroke-width="0.5"/><rect x="280.4" y="337.3" width="4.5" height="26.7" fill="#93c5fd" stroke="#60a5fa" stroke-width="0.5"/><rect x="284.9" y="328.3" width="4.5" height="35.7" fill="#93c5fd" stroke="#60a5fa" stroke-width="0.5"/><rect x="289.3" y="359.5" width="4.5" height="4.5" fill="#93c5fd" stroke="#60a5fa" stroke-width="0.5"/><rect x="293.8" y="355.1" width="4.5" height="8.9" fill="#93c5fd" stroke="#60a5fa" stroke-width="0.5"/><rect x="298.3" y="350.6" width="4.5" height="13.4" fill="#93c5fd" stroke="#60a5fa" stroke-width="0.5"/><rect x="302.7" y="355.1" width="4.5" height="8.9" fill="#93c5fd" stroke="#60a5fa" stroke-width="0.5"/><rect x="307.2" y="355.1" width="4.5" height="8.9" fill="#93c5fd" stroke="#60a5fa" stroke-width="0.5"/><rect x="311.6" y="350.6" width="4.5" height="13.4" fill="#93c5fd" stroke="#60a5fa" stroke-width="0.5"/><rect x="316.1" y="359.5" width="4.5" height="4.5" fill="#93c5fd" stroke="#60a5fa" stroke-width="0.5"/><rect x="320.5" y="359.5" width="4.5" height="4.5" fill="#93c5fd" stroke="#60a5fa" stroke-width="0.5"/><rect x="325.0" y="359.5" width="4.5" height="4.5" fill="#93c5fd" stroke="#60a5fa" stroke-width="0.5"/><rect x="329.4" y="359.5" width="4.5" height="4.5" fill="#93c5fd" stroke="#60a5fa" stroke-width="0.5"/><rect x="333.9" y="350.6" width="4.5" height="13.4" fill="#93c5fd" stroke="#60a5fa" stroke-width="0.5"/><rect x="338.3" y="359.5" width="4.5" height="4.5" fill="#93c5fd" stroke="#60a5fa" stroke-width="0.5"/><rect x="342.8" y="328.3" width="4.5" height="35.7" fill="#93c5fd" stroke="#60a5fa" stroke-width="0.5"/><rect x="347.3" y="359.5" width="4.5" height="4.5" fill="#93c5fd" stroke="#60a5fa" stroke-width="0.5"/><rect x="351.7" y="359.5" width="4.5" height="4.5" fill="#93c5fd" stroke="#60a5fa" stroke-width="0.5"/><rect x="356.2" y="359.5" width="4.5" height="4.5" fill="#93c5fd" stroke="#60a5fa" stroke-width="0.5"/><rect x="360.6" y="350.6" width="4.5" height="13.4" fill="#93c5fd" stroke="#60a5fa" stroke-width="0.5"/><rect x="365.1" y="359.5" width="4.5" height="4.5" fill="#93c5fd" stroke="#60a5fa" stroke-width="0.5"/><rect x="369.5" y="359.5" width="4.5" height="4.5" fill="#93c5fd" stroke="#60a5fa" stroke-width="0.5"/><rect x="374.0" y="355.1" width="4.5" height="8.9" fill="#93c5fd" stroke="#60a5fa" stroke-width="0.5"/><rect x="378.4" y="350.6" width="4.5" height="13.4" fill="#93c5fd" stroke="#60a5fa" stroke-width="0.5"/><rect x="382.9" y="359.5" width="4.5" height="4.5" fill="#93c5fd" stroke="#60a5fa" stroke-width="0.5"/><rect x="387.3" y="350.6" width="4.5" height="13.4" fill="#93c5fd" stroke="#60a5fa" stroke-width="0.5"/><rect x="391.8" y="355.1" width="4.5" height="8.9" fill="#93c5fd" stroke="#60a5fa" stroke-width="0.5"/><rect x="396.2" y="350.6" width="4.5" height="13.4" fill="#93c5fd" stroke="#60a5fa" stroke-width="0.5"/><rect x="400.7" y="359.5" width="4.5" height="4.5" fill="#93c5fd" stroke="#60a5fa" stroke-width="0.5"/><rect x="405.2" y="319.4" width="4.5" height="44.6" fill="#93c5fd" stroke="#60a5fa" stroke-width="0.5"/><rect x="409.6" y="346.2" width="4.5" height="17.8" fill="#93c5fd" stroke="#60a5fa" stroke-width="0.5"/><rect x="414.1" y="346.2" width="4.5" height="17.8" fill="#93c5fd" stroke="#60a5fa" stroke-width="0.5"/><rect x="418.5" y="359.5" width="4.5" height="4.5" fill="#93c5fd" stroke="#60a5fa" stroke-width="0.5"/><rect x="423.0" y="359.5" width="4.5" height="4.5" fill="#93c5fd" stroke="#60a5fa" stroke-width="0.5"/><rect x="427.4" y="359.5" width="4.5" height="4.5" fill="#93c5fd" stroke="#60a5fa" stroke-width="0.5"/><rect x="431.9" y="355.1" width="4.5" height="8.9" fill="#93c5fd" stroke="#60a5fa" stroke-width="0.5"/><rect x="436.3" y="355.1" width="4.5" height="8.9" fill="#93c5fd" stroke="#60a5fa" stroke-width="0.5"/><rect x="440.8" y="350.6" width="4.5" height="13.4" fill="#93c5fd" stroke="#60a5fa" stroke-width="0.5"/><rect x="445.2" y="355.1" width="4.5" height="8.9" fill="#93c5fd" stroke="#60a5fa" stroke-width="0.5"/><rect x="449.7" y="350.6" width="4.5" height="13.4" fill="#93c5fd" stroke="#60a5fa" stroke-width="0.5"/><rect x="454.2" y="359.5" width="4.5" height="4.5" fill="#93c5fd" stroke="#60a5fa" stroke-width="0.5"/><rect x="458.6" y="355.1" width="4.5" height="8.9" fill="#93c5fd" stroke="#60a5fa" stroke-width="0.5"/><rect x="463.1" y="359.5" width="4.5" height="4.5" fill="#93c5fd" stroke="#60a5fa" stroke-width="0.5"/><rect x="467.5" y="337.3" width="4.5" height="26.7" fill="#93c5fd" stroke="#60a5fa" stroke-width="0.5"/><rect x="472.0" y="359.5" width="4.5" height="4.5" fill="#93c5fd" stroke="#60a5fa" stroke-width="0.5"/><rect x="476.4" y="359.5" width="4.5" height="4.5" fill="#93c5fd" stroke="#60a5fa" stroke-width="0.5"/><rect x="480.9" y="359.5" width="4.5" height="4.5" fill="#93c5fd" stroke="#60a5fa" stroke-width="0.5"/><rect x="485.3" y="359.5" width="4.5" height="4.5" fill="#93c5fd" stroke="#60a5fa" stroke-width="0.5"/><rect x="489.8" y="359.5" width="4.5" height="4.5" fill="#93c5fd" stroke="#60a5fa" stroke-width="0.5"/><rect x="494.2" y="337.3" width="4.5" height="26.7" fill="#93c5fd" stroke="#60a5fa" stroke-width="0.5"/><rect x="498.7" y="359.5" width="4.5" height="4.5" fill="#93c5fd" stroke="#60a5fa" stroke-width="0.5"/><rect x="503.1" y="346.2" width="4.5" height="17.8" fill="#93c5fd" stroke="#60a5fa" stroke-width="0.5"/><rect x="507.6" y="319.4" width="4.5" height="44.6" fill="#93c5fd" stroke="#60a5fa" stroke-width="0.5"/><rect x="512.1" y="328.3" width="4.5" height="35.7" fill="#93c5fd" stroke="#60a5fa" stroke-width="0.5"/><rect x="516.5" y="355.1" width="4.5" height="8.9" fill="#93c5fd" stroke="#60a5fa" stroke-width="0.5"/><rect x="521.0" y="355.1" width="4.5" height="8.9" fill="#93c5fd" stroke="#60a5fa" stroke-width="0.5"/><rect x="525.4" y="355.1" width="4.5" height="8.9" fill="#93c5fd" stroke="#60a5fa" stroke-width="0.5"/><rect x="529.9" y="355.1" width="4.5" height="8.9" fill="#93c5fd" stroke="#60a5fa" stroke-width="0.5"/><rect x="534.3" y="350.6" width="4.5" height="13.4" fill="#93c5fd" stroke="#60a5fa" stroke-width="0.5"/><rect x="538.8" y="341.7" width="4.5" height="22.3" fill="#93c5fd" stroke="#60a5fa" stroke-width="0.5"/><rect x="543.2" y="359.5" width="4.5" height="4.5" fill="#93c5fd" stroke="#60a5fa" stroke-width="0.5"/><rect x="547.7" y="323.9" width="4.5" height="40.1" fill="#93c5fd" stroke="#60a5fa" stroke-width="0.5"/><rect x="552.1" y="355.1" width="4.5" height="8.9" fill="#93c5fd" stroke="#60a5fa" stroke-width="0.5"/><rect x="556.6" y="346.2" width="4.5" height="17.8" fill="#93c5fd" stroke="#60a5fa" stroke-width="0.5"/><rect x="561.1" y="355.1" width="4.5" height="8.9" fill="#93c5fd" stroke="#60a5fa" stroke-width="0.5"/><rect x="565.5" y="359.5" width="4.5" height="4.5" fill="#93c5fd" stroke="#60a5fa" stroke-width="0.5"/><rect x="570.0" y="359.5" width="4.5" height="4.5" fill="#93c5fd" stroke="#60a5fa" stroke-width="0.5"/><rect x="574.4" y="355.1" width="4.5" height="8.9" fill="#93c5fd" stroke="#60a5fa" stroke-width="0.5"/><rect x="578.9" y="350.6" width="4.5" height="13.4" fill="#93c5fd" stroke="#60a5fa" stroke-width="0.5"/><rect x="583.3" y="355.1" width="4.5" height="8.9" fill="#93c5fd" stroke="#60a5fa" stroke-width="0.5"/><rect x="587.8" y="315.0" width="4.5" height="49.0" fill="#93c5fd" stroke="#60a5fa" stroke-width="0.5"/><rect x="592.2" y="319.4" width="4.5" height="44.6" fill="#93c5fd" stroke="#60a5fa" stroke-width="0.5"/><rect x="596.7" y="346.2" width="4.5" height="17.8" fill="#93c5fd" stroke="#60a5fa" stroke-width="0.5"/><rect x="601.1" y="359.5" width="4.5" height="4.5" fill="#93c5fd" stroke="#60a5fa" stroke-width="0.5"/><rect x="605.6" y="328.3" width="4.5" height="35.7" fill="#93c5fd" stroke="#60a5fa" stroke-width="0.5"/><rect x="610.0" y="328.3" width="4.5" height="35.7" fill="#93c5fd" stroke="#60a5fa" stroke-width="0.5"/><rect x="614.5" y="257.0" width="4.5" height="107.0" fill="#93c5fd" stroke="#60a5fa" stroke-width="0.5"/><rect x="619.0" y="355.1" width="4.5" height="8.9" fill="#93c5fd" stroke="#60a5fa" stroke-width="0.5"/><rect x="623.4" y="341.7" width="4.5" height="22.3" fill="#93c5fd" stroke="#60a5fa" stroke-width="0.5"/><rect x="627.9" y="350.6" width="4.5" height="13.4" fill="#93c5fd" stroke="#60a5fa" stroke-width="0.5"/><rect x="632.3" y="306.1" width="4.5" height="57.9" fill="#93c5fd" stroke="#60a5fa" stroke-width="0.5"/><rect x="636.8" y="337.3" width="4.5" height="26.7" fill="#93c5fd" stroke="#60a5fa" stroke-width="0.5"/><rect x="641.2" y="301.6" width="4.5" height="62.4" fill="#93c5fd" stroke="#60a5fa" stroke-width="0.5"/><rect x="645.7" y="319.4" width="4.5" height="44.6" fill="#93c5fd" stroke="#60a5fa" stroke-width="0.5"/><rect x="650.1" y="355.1" width="4.5" height="8.9" fill="#93c5fd" stroke="#60a5fa" stroke-width="0.5"/><rect x="654.6" y="359.5" width="4.5" height="4.5" fill="#93c5fd" stroke="#60a5fa" stroke-width="0.5"/><rect x="659.0" y="341.7" width="4.5" height="22.3" fill="#93c5fd" stroke="#60a5fa" stroke-width="0.5"/><rect x="663.5" y="306.1" width="4.5" height="57.9" fill="#93c5fd" stroke="#60a5fa" stroke-width="0.5"/><rect x="668.0" y="346.2" width="4.5" height="17.8" fill="#93c5fd" stroke="#60a5fa" stroke-width="0.5"/><rect x="672.4" y="257.0" width="4.5" height="107.0" fill="#93c5fd" stroke="#60a5fa" stroke-width="0.5"/><rect x="676.9" y="341.7" width="4.5" height="22.3" fill="#93c5fd" stroke="#60a5fa" stroke-width="0.5"/><rect x="681.3" y="52.0" width="4.5" height="312.0" fill="#93c5fd" stroke="#60a5fa" stroke-width="0.5"/><rect x="685.8" y="288.2" width="4.5" height="75.8" fill="#93c5fd" stroke="#60a5fa" stroke-width="0.5"/><rect x="690.2" y="350.6" width="4.5" height="13.4" fill="#93c5fd" stroke="#60a5fa" stroke-width="0.5"/><rect x="694.7" y="355.1" width="4.5" height="8.9" fill="#93c5fd" stroke="#60a5fa" stroke-width="0.5"/><rect x="699.1" y="181.3" width="4.5" height="182.7" fill="#93c5fd" stroke="#60a5fa" stroke-width="0.5"/><rect x="703.6" y="337.3" width="4.5" height="26.7" fill="#93c5fd" stroke="#60a5fa" stroke-width="0.5"/><rect x="708.0" y="350.6" width="4.5" height="13.4" fill="#93c5fd" stroke="#60a5fa" stroke-width="0.5"/><rect x="712.5" y="355.1" width="4.5" height="8.9" fill="#93c5fd" stroke="#60a5fa" stroke-width="0.5"/><rect x="716.9" y="346.2" width="4.5" height="17.8" fill="#93c5fd" stroke="#60a5fa" stroke-width="0.5"/><rect x="721.4" y="328.3" width="4.5" height="35.7" fill="#93c5fd" stroke="#60a5fa" stroke-width="0.5"/><rect x="725.9" y="359.5" width="4.5" height="4.5" fill="#93c5fd" stroke="#60a5fa" stroke-width="0.5"/><rect x="730.3" y="359.5" width="4.5" height="4.5" fill="#93c5fd" stroke="#60a5fa" stroke-width="0.5"/><rect x="734.8" y="346.2" width="4.5" height="17.8" fill="#93c5fd" stroke="#60a5fa" stroke-width="0.5"/><rect x="739.2" y="341.7" width="4.5" height="22.3" fill="#93c5fd" stroke="#60a5fa" stroke-width="0.5"/><rect x="743.7" y="337.3" width="4.5" height="26.7" fill="#93c5fd" stroke="#60a5fa" stroke-width="0.5"/><rect x="748.1" y="337.3" width="4.5" height="26.7" fill="#93c5fd" stroke="#60a5fa" stroke-width="0.5"/><rect x="752.6" y="359.5" width="4.5" height="4.5" fill="#93c5fd" stroke="#60a5fa" stroke-width="0.5"/><rect x="757.0" y="341.7" width="4.5" height="22.3" fill="#93c5fd" stroke="#60a5fa" stroke-width="0.5"/><rect x="761.5" y="332.8" width="4.5" height="31.2" fill="#93c5fd" stroke="#60a5fa" stroke-width="0.5"/><rect x="765.9" y="332.8" width="4.5" height="31.2" fill="#93c5fd" stroke="#60a5fa" stroke-width="0.5"/><rect x="770.4" y="328.3" width="4.5" height="35.7" fill="#93c5fd" stroke="#60a5fa" stroke-width="0.5"/><rect x="774.9" y="323.9" width="4.5" height="40.1" fill="#93c5fd" stroke="#60a5fa" stroke-width="0.5"/><rect x="779.3" y="332.8" width="4.5" height="31.2" fill="#93c5fd" stroke="#60a5fa" stroke-width="0.5"/><rect x="783.8" y="346.2" width="4.5" height="17.8" fill="#93c5fd" stroke="#60a5fa" stroke-width="0.5"/><rect x="788.2" y="350.6" width="4.5" height="13.4" fill="#93c5fd" stroke="#60a5fa" stroke-width="0.5"/><rect x="792.7" y="350.6" width="4.5" height="13.4" fill="#93c5fd" stroke="#60a5fa" stroke-width="0.5"/><rect x="797.1" y="332.8" width="4.5" height="31.2" fill="#93c5fd" stroke="#60a5fa" stroke-width="0.5"/><rect x="801.6" y="359.5" width="4.5" height="4.5" fill="#93c5fd" stroke="#60a5fa" stroke-width="0.5"/><rect x="806.0" y="350.6" width="4.5" height="13.4" fill="#93c5fd" stroke="#60a5fa" stroke-width="0.5"/><rect x="810.5" y="355.1" width="4.5" height="8.9" fill="#93c5fd" stroke="#60a5fa" stroke-width="0.5"/><rect x="814.9" y="355.1" width="4.5" height="8.9" fill="#93c5fd" stroke="#60a5fa" stroke-width="0.5"/><rect x="819.4" y="355.1" width="4.5" height="8.9" fill="#93c5fd" stroke="#60a5fa" stroke-width="0.5"/><rect x="823.8" y="355.1" width="4.5" height="8.9" fill="#93c5fd" stroke="#60a5fa" stroke-width="0.5"/><rect x="828.3" y="359.5" width="4.5" height="4.5" fill="#93c5fd" stroke="#60a5fa" stroke-width="0.5"/><rect x="832.8" y="359.5" width="4.5" height="4.5" fill="#93c5fd" stroke="#60a5fa" stroke-width="0.5"/><rect x="837.2" y="337.3" width="4.5" height="26.7" fill="#93c5fd" stroke="#60a5fa" stroke-width="0.5"/><rect x="841.7" y="355.1" width="4.5" height="8.9" fill="#93c5fd" stroke="#60a5fa" stroke-width="0.5"/><rect x="846.1" y="328.3" width="4.5" height="35.7" fill="#93c5fd" stroke="#60a5fa" stroke-width="0.5"/><rect x="850.6" y="350.6" width="4.5" height="13.4" fill="#93c5fd" stroke="#60a5fa" stroke-width="0.5"/><rect x="855.0" y="328.3" width="4.5" height="35.7" fill="#93c5fd" stroke="#60a5fa" stroke-width="0.5"/><rect x="859.5" y="332.8" width="4.5" height="31.2" fill="#93c5fd" stroke="#60a5fa" stroke-width="0.5"/><rect x="863.9" y="328.3" width="4.5" height="35.7" fill="#93c5fd" stroke="#60a5fa" stroke-width="0.5"/><rect x="868.4" y="341.7" width="4.5" height="22.3" fill="#93c5fd" stroke="#60a5fa" stroke-width="0.5"/><rect x="872.8" y="355.1" width="4.5" height="8.9" fill="#93c5fd" stroke="#60a5fa" stroke-width="0.5"/><rect x="877.3" y="355.1" width="4.5" height="8.9" fill="#93c5fd" stroke="#60a5fa" stroke-width="0.5"/><rect x="881.8" y="319.4" width="4.5" height="44.6" fill="#93c5fd" stroke="#60a5fa" stroke-width="0.5"/><rect x="886.2" y="315.0" width="4.5" height="49.0" fill="#93c5fd" stroke="#60a5fa" stroke-width="0.5"/><rect x="890.7" y="328.3" width="4.5" height="35.7" fill="#93c5fd" stroke="#60a5fa" stroke-width="0.5"/><rect x="895.1" y="323.9" width="4.5" height="40.1" fill="#93c5fd" stroke="#60a5fa" stroke-width="0.5"/><rect x="899.6" y="341.7" width="4.5" height="22.3" fill="#93c5fd" stroke="#60a5fa" stroke-width="0.5"/><rect x="904.0" y="359.5" width="4.5" height="4.5" fill="#93c5fd" stroke="#60a5fa" stroke-width="0.5"/><rect x="908.5" y="350.6" width="4.5" height="13.4" fill="#93c5fd" stroke="#60a5fa" stroke-width="0.5"/><rect x="912.9" y="359.5" width="4.5" height="4.5" fill="#93c5fd" stroke="#60a5fa" stroke-width="0.5"/><rect x="917.4" y="346.2" width="4.5" height="17.8" fill="#93c5fd" stroke="#60a5fa" stroke-width="0.5"/><rect x="921.8" y="346.2" width="4.5" height="17.8" fill="#93c5fd" stroke="#60a5fa" stroke-width="0.5"/><rect x="926.3" y="341.7" width="4.5" height="22.3" fill="#93c5fd" stroke="#60a5fa" stroke-width="0.5"/><rect x="930.7" y="359.5" width="4.5" height="4.5" fill="#93c5fd" stroke="#60a5fa" stroke-width="0.5"/><rect x="935.2" y="359.5" width="4.5" height="4.5" fill="#93c5fd" stroke="#60a5fa" stroke-width="0.5"/><rect x="939.7" y="315.0" width="4.5" height="49.0" fill="#93c5fd" stroke="#60a5fa" stroke-width="0.5"/><rect x="944.1" y="230.3" width="4.5" height="133.7" fill="#93c5fd" stroke="#60a5fa" stroke-width="0.5"/><rect x="948.6" y="297.1" width="4.5" height="66.9" fill="#93c5fd" stroke="#60a5fa" stroke-width="0.5"/><rect x="953.0" y="359.5" width="4.5" height="4.5" fill="#93c5fd" stroke="#60a5fa" stroke-width="0.5"/><rect x="957.5" y="319.4" width="4.5" height="44.6" fill="#93c5fd" stroke="#60a5fa" stroke-width="0.5"/><rect x="961.9" y="355.1" width="4.5" height="8.9" fill="#93c5fd" stroke="#60a5fa" stroke-width="0.5"/><rect x="966.4" y="341.7" width="4.5" height="22.3" fill="#93c5fd" stroke="#60a5fa" stroke-width="0.5"/><rect x="970.8" y="315.0" width="4.5" height="49.0" fill="#93c5fd" stroke="#60a5fa" stroke-width="0.5"/><rect x="975.3" y="350.6" width="4.5" height="13.4" fill="#93c5fd" stroke="#60a5fa" stroke-width="0.5"/><rect x="979.7" y="279.3" width="4.5" height="84.7" fill="#93c5fd" stroke="#60a5fa" stroke-width="0.5"/><rect x="984.2" y="132.2" width="4.5" height="231.8" fill="#93c5fd" stroke="#60a5fa" stroke-width="0.5"/><rect x="988.7" y="359.5" width="4.5" height="4.5" fill="#93c5fd" stroke="#60a5fa" stroke-width="0.5"/><rect x="993.1" y="212.5" width="4.5" height="151.5" fill="#93c5fd" stroke="#60a5fa" stroke-width="0.5"/><rect x="997.6" y="355.1" width="4.5" height="8.9" fill="#93c5fd" stroke="#60a5fa" stroke-width="0.5"/><rect x="1002.0" y="252.6" width="4.5" height="111.4" fill="#93c5fd" stroke="#60a5fa" stroke-width="0.5"/><rect x="1006.5" y="359.5" width="4.5" height="4.5" fill="#93c5fd" stroke="#60a5fa" stroke-width="0.5"/><rect x="1010.9" y="337.3" width="4.5" height="26.7" fill="#93c5fd" stroke="#60a5fa" stroke-width="0.5"/><rect x="1015.4" y="355.1" width="4.5" height="8.9" fill="#93c5fd" stroke="#60a5fa" stroke-width="0.5"/><rect x="1019.8" y="306.1" width="4.5" height="57.9" fill="#93c5fd" stroke="#60a5fa" stroke-width="0.5"/><rect x="1024.3" y="332.8" width="4.5" height="31.2" fill="#93c5fd" stroke="#60a5fa" stroke-width="0.5"/><rect x="1028.7" y="355.1" width="4.5" height="8.9" fill="#93c5fd" stroke="#60a5fa" stroke-width="0.5"/><rect x="1033.2" y="252.6" width="4.5" height="111.4" fill="#93c5fd" stroke="#60a5fa" stroke-width="0.5"/><rect x="1037.6" y="346.2" width="4.5" height="17.8" fill="#93c5fd" stroke="#60a5fa" stroke-width="0.5"/><rect x="1042.1" y="328.3" width="4.5" height="35.7" fill="#93c5fd" stroke="#60a5fa" stroke-width="0.5"/><rect x="1046.6" y="350.6" width="4.5" height="13.4" fill="#93c5fd" stroke="#60a5fa" stroke-width="0.5"/><rect x="1051.0" y="319.4" width="4.5" height="44.6" fill="#93c5fd" stroke="#60a5fa" stroke-width="0.5"/><rect x="1055.5" y="359.5" width="4.5" height="4.5" fill="#93c5fd" stroke="#60a5fa" stroke-width="0.5"/><rect x="1059.9" y="292.7" width="4.5" height="71.3" fill="#93c5fd" stroke="#60a5fa" stroke-width="0.5"/><rect x="1064.4" y="323.9" width="4.5" height="40.1" fill="#93c5fd" stroke="#60a5fa" stroke-width="0.5"/><rect x="1068.8" y="350.6" width="4.5" height="13.4" fill="#93c5fd" stroke="#60a5fa" stroke-width="0.5"/><rect x="1073.3" y="301.6" width="4.5" height="62.4" fill="#93c5fd" stroke="#60a5fa" stroke-width="0.5"/><rect x="1077.7" y="355.1" width="4.5" height="8.9" fill="#93c5fd" stroke="#60a5fa" stroke-width="0.5"/><rect x="1082.2" y="359.5" width="4.5" height="4.5" fill="#93c5fd" stroke="#60a5fa" stroke-width="0.5"/><rect x="1086.6" y="355.1" width="4.5" height="8.9" fill="#93c5fd" stroke="#60a5fa" stroke-width="0.5"/><rect x="1091.1" y="350.6" width="4.5" height="13.4" fill="#93c5fd" stroke="#60a5fa" stroke-width="0.5"/><rect x="1095.6" y="310.5" width="4.5" height="53.5" fill="#93c5fd" stroke="#60a5fa" stroke-width="0.5"/><rect x="1100.0" y="341.7" width="4.5" height="22.3" fill="#93c5fd" stroke="#60a5fa" stroke-width="0.5"/><rect x="1104.5" y="355.1" width="4.5" height="8.9" fill="#93c5fd" stroke="#60a5fa" stroke-width="0.5"/><rect x="1108.9" y="359.5" width="4.5" height="4.5" fill="#93c5fd" stroke="#60a5fa" stroke-width="0.5"/><rect x="1113.4" y="350.6" width="4.5" height="13.4" fill="#93c5fd" stroke="#60a5fa" stroke-width="0.5"/><rect x="1117.8" y="355.1" width="4.5" height="8.9" fill="#93c5fd" stroke="#60a5fa" stroke-width="0.5"/><rect x="1122.3" y="265.9" width="4.5" height="98.1" fill="#93c5fd" stroke="#60a5fa" stroke-width="0.5"/><rect x="1126.7" y="323.9" width="4.5" height="40.1" fill="#93c5fd" stroke="#60a5fa" stroke-width="0.5"/><rect x="1131.2" y="332.8" width="4.5" height="31.2" fill="#93c5fd" stroke="#60a5fa" stroke-width="0.5"/><rect x="1135.6" y="359.5" width="4.5" height="4.5" fill="#93c5fd" stroke="#60a5fa" stroke-width="0.5"/><rect x="1140.1" y="328.3" width="4.5" height="35.7" fill="#93c5fd" stroke="#60a5fa" stroke-width="0.5"/><rect x="1144.5" y="350.6" width="4.5" height="13.4" fill="#93c5fd" stroke="#60a5fa" stroke-width="0.5"/><rect x="1149.0" y="301.6" width="4.5" height="62.4" fill="#93c5fd" stroke="#60a5fa" stroke-width="0.5"/><rect x="1153.5" y="212.5" width="4.5" height="151.5" fill="#93c5fd" stroke="#60a5fa" stroke-width="0.5"/><rect x="1157.9" y="346.2" width="4.5" height="17.8" fill="#93c5fd" stroke="#60a5fa" stroke-width="0.5"/><rect x="1162.4" y="279.3" width="4.5" height="84.7" fill="#93c5fd" stroke="#60a5fa" stroke-width="0.5"/><rect x="1166.8" y="359.5" width="4.5" height="4.5" fill="#93c5fd" stroke="#60a5fa" stroke-width="0.5"/><rect x="1171.3" y="190.2" width="4.5" height="173.8" fill="#93c5fd" stroke="#60a5fa" stroke-width="0.5"/><rect x="1175.7" y="310.5" width="4.5" height="53.5" fill="#93c5fd" stroke="#60a5fa" stroke-width="0.5"/><rect x="1180.2" y="306.1" width="4.5" height="57.9" fill="#93c5fd" stroke="#60a5fa" stroke-width="0.5"/><rect x="1184.6" y="355.1" width="4.5" height="8.9" fill="#93c5fd" stroke="#60a5fa" stroke-width="0.5"/><rect x="1189.1" y="323.9" width="4.5" height="40.1" fill="#93c5fd" stroke="#60a5fa" stroke-width="0.5"/><rect x="1193.5" y="355.1" width="4.5" height="8.9" fill="#93c5fd" stroke="#60a5fa" stroke-width="0.5"/><polyline fill="none" stroke="#ef4444" stroke-width="2" points="82.2,363.1 86.7,362.9 91.1,362.7 95.6,362.2 100.0,362.0 104.5,361.3 109.0,361.1 113.4,360.9 117.9,360.7 122.3,360.4 126.8,360.2 131.2,360.0 135.7,359.8 140.1,359.3 144.6,358.4 149.0,358.2 153.5,358.0 157.9,357.3 162.4,356.2 166.9,353.3 171.3,352.8 175.8,352.2 180.2,351.9 184.7,351.3 189.1,351.1 193.6,349.9 198.0,349.7 202.5,349.5 206.9,349.3 211.4,349.0 215.9,348.8 220.3,348.6 224.8,348.4 229.2,348.2 233.7,347.9 238.1,347.7 242.6,347.5 247.0,347.3 251.5,347.0 255.9,346.8 260.4,346.1 264.8,345.9 269.3,345.7 273.8,343.2 278.2,343.0 282.7,341.7 287.1,339.9 291.6,339.7 296.0,339.2 300.5,338.6 304.9,338.1 309.4,337.7 313.8,337.0 318.3,336.8 322.8,336.5 327.2,336.3 331.7,336.1 336.1,335.4 340.6,335.2 345.0,333.4 349.5,333.2 353.9,333.0 358.4,332.8 362.8,332.1 367.3,331.9 371.7,331.6 376.2,331.2 380.7,330.5 385.1,330.3 389.6,329.6 394.0,329.2 398.5,328.5 402.9,328.3 407.4,326.1 411.8,325.2 416.3,324.3 420.7,324.1 425.2,323.8 429.7,323.6 434.1,323.2 438.6,322.7 443.0,322.0 447.5,321.6 451.9,320.9 456.4,320.7 460.8,320.3 465.3,320.0 469.7,318.7 474.2,318.5 478.6,318.2 483.1,318.0 487.6,317.8 492.0,317.6 496.5,316.2 500.9,316.0 505.4,315.1 509.8,312.9 514.3,311.1 518.7,310.7 523.2,310.2 527.6,309.8 532.1,309.3 536.6,308.7 541.0,307.5 545.5,307.3 549.9,305.3 554.4,304.9 558.8,304.0 563.3,303.5 567.7,303.3 572.2,303.1 576.6,302.6 581.1,302.0 585.5,301.5 590.0,299.1 594.5,296.8 598.9,295.9 603.4,295.7 607.8,293.9 612.3,292.1 616.7,286.8 621.2,286.3 625.6,285.2 630.1,284.5 634.5,281.6 639.0,280.3 643.5,277.2 647.9,275.0 652.4,274.5 656.8,274.3 661.3,273.2 665.7,270.3 670.2,269.4 674.6,264.0 679.1,262.9 683.5,247.3 688.0,243.5 692.5,242.8 696.9,242.4 701.4,233.2 705.8,231.9 710.3,231.2 714.7,230.8 719.2,229.9 723.6,228.1 728.1,227.9 732.5,227.6 737.0,226.7 741.4,225.6 745.9,224.3 750.4,223.0 754.8,222.7 759.3,221.6 763.7,220.1 768.2,218.5 772.6,216.7 777.1,214.7 781.5,213.1 786.0,212.2 790.4,211.6 794.9,210.9 799.4,209.3 803.8,209.1 808.3,208.4 812.7,208.0 817.2,207.6 821.6,207.1 826.1,206.7 830.5,206.4 835.0,206.2 839.4,204.9 843.9,204.4 848.3,202.6 852.8,202.0 857.3,200.2 861.7,198.6 866.2,196.8 870.6,195.7 875.1,195.3 879.5,194.8 884.0,192.6 888.4,190.1 892.9,188.4 897.3,186.4 901.8,185.2 906.3,185.0 910.7,184.3 915.2,184.1 919.6,183.2 924.1,182.3 928.5,181.2 933.0,181.0 937.4,180.8 941.9,178.3 946.3,171.6 950.8,168.3 955.2,168.1 959.7,165.8 964.2,165.4 968.6,164.3 973.1,161.8 977.5,161.1 982.0,156.9 986.4,145.3 990.9,145.1 995.3,137.5 999.8,137.0 1004.2,131.5 1008.7,131.2 1013.2,129.9 1017.6,129.4 1022.1,126.5 1026.5,125.0 1031.0,124.5 1035.4,119.0 1039.9,118.1 1044.3,116.3 1048.8,115.6 1053.2,113.4 1057.7,113.2 1062.1,109.6 1066.6,107.6 1071.1,106.9 1075.5,103.8 1080.0,103.3 1084.4,103.1 1088.9,102.7 1093.3,102.0 1097.8,99.3 1102.2,98.2 1106.7,97.8 1111.1,97.5 1115.6,96.9 1120.1,96.4 1124.5,91.5 1129.0,89.5 1133.4,87.9 1137.9,87.7 1142.3,85.9 1146.8,85.3 1151.2,82.1 1155.7,74.5 1160.1,73.6 1164.6,69.4 1169.0,69.2 1173.5,60.5 1178.0,57.8 1182.4,54.9 1186.9,54.5 1191.3,52.4 1195.8,52.0"/><line x1="82.2" y1="364.0" x2="82.2" y2="370.0" stroke="#111827" stroke-width="1"/><text x="84.2" y="386.0" font-size="11" text-anchor="end" transform="rotate(-35 84.2 386.0)" font-family="sans-serif" fill="#374151">2022-10-13</text><line x1="242.6" y1="364.0" x2="242.6" y2="370.0" stroke="#111827" stroke-width="1"/><text x="244.6" y="386.0" font-size="11" text-anchor="end" transform="rotate(-35 244.6 386.0)" font-family="sans-serif" fill="#374151">2025-03-24</text><line x1="398.5" y1="364.0" x2="398.5" y2="370.0" stroke="#111827" stroke-width="1"/><text x="400.5" y="386.0" font-size="11" text-anchor="end" transform="rotate(-35 400.5 386.0)" font-family="sans-serif" fill="#374151">2025-07-16</text><line x1="558.8" y1="364.0" x2="558.8" y2="370.0" stroke="#111827" stroke-width="1"/><text x="560.8" y="386.0" font-size="11" text-anchor="end" transform="rotate(-35 560.8 386.0)" font-family="sans-serif" fill="#374151">2025-09-24</text><line x1="719.2" y1="364.0" x2="719.2" y2="370.0" stroke="#111827" stroke-width="1"/><text x="721.2" y="386.0" font-size="11" text-anchor="end" transform="rotate(-35 721.2 386.0)" font-family="sans-serif" fill="#374151">2025-11-17</text><line x1="879.5" y1="364.0" x2="879.5" y2="370.0" stroke="#111827" stroke-width="1"/><text x="881.5" y="386.0" font-size="11" text-anchor="end" transform="rotate(-35 881.5 386.0)" font-family="sans-serif" fill="#374151">2026-01-04</text><line x1="1035.4" y1="364.0" x2="1035.4" y2="370.0" stroke="#111827" stroke-width="1"/><text x="1037.4" y="386.0" font-size="11" text-anchor="end" transform="rotate(-35 1037.4 386.0)" font-family="sans-serif" fill="#374151">2026-02-12</text><line x1="1195.8" y1="364.0" x2="1195.8" y2="370.0" stroke="#111827" stroke-width="1"/><text x="1197.8" y="386.0" font-size="11" text-anchor="end" transform="rotate(-35 1197.8 386.0)" font-family="sans-serif" fill="#374151">2026-04-02</text><text x="26" y="208.0" font-size="12" transform="rotate(-90 26 208.0)" text-anchor="middle" font-family="sans-serif" fill="#1f2937">구간별 수</text><text x="1256.0" y="208.0" font-size="12" transform="rotate(90 1256.0 208.0)" text-anchor="middle" font-family="sans-serif" fill="#1f2937">누적</text><text x="639.0" y="442.0" font-size="13" text-anchor="middle" font-family="sans-serif" fill="#111827">일</text></svg>