<svg xmlns="http://www.w3.org/2000/svg" width="1280" height="460" viewBox="0 0 1280 460"><rect x="0" y="0" width="100%" height="100%" fill="#ffffff"/><text x="640.0" y="28" font-size="20" text-anchor="middle" font-family="sans-serif" fill="#111827">시리즈 / 최근 반영 시점 / 시간별</text><line x1="80.0" y1="52.0" x2="1198.0" y2="52.0" stroke="#e5e7eb" stroke-width="1"/><text x="72.0" y="56.0" font-size="11" text-anchor="end" font-family="sans-serif" fill="#374151">1,135</text><text x="1206.0" y="56.0" font-size="11" text-anchor="start" font-family="sans-serif" fill="#374151">1,446</text><line x1="80.0" y1="114.4" x2="1198.0" y2="114.4" stroke="#e5e7eb" stroke-width="1"/><text x="72.0" y="118.4" font-size="11" text-anchor="end" font-family="sans-serif" fill="#374151">908</text><text x="1206.0" y="118.4" font-size="11" text-anchor="start" font-family="sans-serif" fill="#374151">1,157</text><line x1="80.0" y1="176.8" x2="1198.0" y2="176.8" stroke="#e5e7eb" stroke-width="1"/><text x="72.0" y="180.8" font-size="11" text-anchor="end" font-family="sans-serif" fill="#374151">681</text><text x="1206.0" y="180.8" font-size="11" text-anchor="start" font-family="sans-serif" fill="#374151">868</text><line x1="80.0" y1="239.2" x2="1198.0" y2="239.2" stroke="#e5e7eb" stroke-width="1"/><text x="72.0" y="243.2" font-size="11" text-anchor="end" font-family="sans-serif" fill="#374151">454</text><text x="1206.0" y="243.2" font-size="11" text-anchor="start" font-family="sans-serif" fill="#374151">578</text><line x1="80.0" y1="301.6" x2="1198.0" y2="301.6" stroke="#e5e7eb" stroke-width="1"/><text x="72.0" y="305.6" font-size="11" text-anchor="end" font-family="sans-serif" fill="#374151">227</text><text x="1206.0" y="305.6" font-size="11" text-anchor="start" font-family="sans-serif" fill="#374151">289</text><line x1="80.0" y1="364.0" x2="1198.0" y2="364.0" stroke="#e5e7eb" stroke-width="1"/><text x="72.0" y="368.0" font-size="11" text-anchor="end" font-family="sans-serif" fill="#374151">0</text><text x="1206.0" y="368.0" font-size="11" text-anchor="start" font-family="sans-serif" fill="#374151">0</text><line x1="80.0" y1="364.0" x2="1198.0" y2="364.0" stroke="#111827" stroke-width="1.2"/><line x1="80.0" y1="52.0" x2="80.0" y2="364.0" stroke="#111827" stroke-width="1.2"/><line x1="1198.0" y1="52.0" x2="1198.0" y2="364.0" stroke="#111827" stroke-width="1.2"/><rect x="81.0" y="363.7" width="29.9" height="0.3" fill="#93c5fd" stroke="#60a5fa" stroke-width="0.5"/><rect x="112.9" y="363.2" width="29.9" height="0.8" fill="#93c5fd" stroke="#60a5fa" stroke-width="0.5"/><rect x="144.9" y="360.4" width="29.9" height="3.6" fill="#93c5fd" stroke="#60a5fa" stroke-width="0.5"/><rect x="176.8" y="363.7" width="29.9" height="0.3" fill="#93c5fd" stroke="#60a5fa" stroke-width="0.5"/><rect x="208.8" y="363.7" width="29.9" height="0.3" fill="#93c5fd" stroke="#60a5fa" stroke-width="0.5"/><rect x="240.7" y="363.7" width="29.9" height="0.3" fill="#93c5fd" stroke="#60a5fa" stroke-width="0.5"/><rect x="272.7" y="363.7" width="29.9" height="0.3" fill="#93c5fd" stroke="#60a5fa" stroke-width="0.5"/><rect x="304.6" y="363.7" width="29.9" height="0.3" fill="#93c5fd" stroke="#60a5fa" stroke-width="0.5"/><rect x="336.5" y="363.7" width="29.9" height="0.3" fill="#93c5fd" stroke="#60a5fa" stroke-width="0.5"/><rect x="368.5" y="363.7" width="29.9" height="0.3" fill="#93c5fd" stroke="#60a5fa" stroke-width="0.5"/><rect x="400.4" y="363.5" width="29.9" height="0.5" fill="#93c5fd" stroke="#60a5fa" stroke-width="0.5"/><rect x="432.4" y="363.5" width="29.9" height="0.5" fill="#93c5fd" stroke="#60a5fa" stroke-width="0.5"/><rect x="464.3" y="363.7" width="29.9" height="0.3" fill="#93c5fd" stroke="#60a5fa" stroke-width="0.5"/><rect x="496.3" y="363.7" width="29.9" height="0.3" fill="#93c5fd" stroke="#60a5fa" stroke-width="0.5"/><rect x="528.2" y="363.7" width="29.9" height="0.3" fill="#93c5fd" stroke="#60a5fa" stroke-width="0.5"/><rect x="560.1" y="363.7" width="29.9" height="0.3" fill="#93c5fd" stroke="#60a5fa" stroke-width="0.5"/><rect x="592.1" y="363.7" width="29.9" height="0.3" fill="#93c5fd" stroke="#60a5fa" stroke-width="0.5"/><rect x="624.0" y="363.5" width="29.9" height="0.5" fill="#93c5fd" stroke="#60a5fa" stroke-width="0.5"/><rect x="656.0" y="363.5" width="29.9" height="0.5" fill="#93c5fd" stroke="#60a5fa" stroke-width="0.5"/><rect x="687.9" y="362.9" width="29.9" height="1.1" fill="#93c5fd" stroke="#60a5fa" stroke-width="0.5"/><rect x="719.9" y="362.9" width="29.9" height="1.1" fill="#93c5fd" stroke="#60a5fa" stroke-width="0.5"/><rect x="751.8" y="362.4" width="29.9" height="1.6" fill="#93c5fd" stroke="#60a5fa" stroke-width="0.5"/><rect x="783.7" y="52.0" width="29.9" height="312.0" fill="#93c5fd" stroke="#60a5fa" stroke-width="0.5"/><rect x="815.7" y="350.3" width="29.9" height="13.7" fill="#93c5fd" stroke="#60a5fa" stroke-width="0.5"/><rect x="847.6" y="363.5" width="29.9" height="0.5" fill="#93c5fd" stroke="#60a5fa" stroke-width="0.5"/><rect x="879.6" y="350.3" width="29.9" height="13.7" fill="#93c5fd" stroke="#60a5fa" stroke-width="0.5"/><rect x="911.5" y="350.3" width="29.9" height="13.7" fill="#93c5fd" stroke="#60a5fa" stroke-width="0.5"/><rect x="943.5" y="363.5" width="29.9" height="0.5" fill="#93c5fd" stroke="#60a5fa" stroke-width="0.5"/><rect x="975.4" y="350.3" width="29.9" height="13.7" fill="#93c5fd" stroke="#60a5fa" stroke-width="0.5"/><rect x="1007.3" y="363.7" width="29.9" height="0.3" fill="#93c5fd" stroke="#60a5fa" stroke-width="0.5"/><rect x="1039.3" y="363.7" width="29.9" height="0.3" fill="#93c5fd" stroke="#60a5fa" stroke-width="0.5"/><rect x="1071.2" y="363.7" width="29.9" height="0.3" fill="#93c5fd" stroke="#60a5fa" stroke-width="0.5"/><rect x="1103.2" y="363.7" width="29.9" height="0.3" fill="#93c5fd" stroke="#60a5fa" stroke-width="0.5"/><rect x="1135.1" y="363.5" width="29.9" height="0.5" fill="#93c5fd" stroke="#60a5fa" stroke-width="0.5"/><rect x="1167.1" y="350.3" width="29.9" height="13.7" fill="#93c5fd" stroke="#60a5fa" stroke-width="0.5"/><polyline fill="none" stroke="#ef4444" stroke-width="2" points="96.0,363.8 127.9,363.1 159.9,360.3 191.8,360.1 223.7,359.9 255.7,359.7 287.6,359.5 319.6,359.3 351.5,359.0 383.5,358.8 415.4,358.4 447.3,358.0 479.3,357.7 511.2,357.5 543.2,357.3 575.1,357.1 607.1,356.9 639.0,356.4 670.9,356.0 702.9,355.2 734.8,354.3 766.8,353.0 798.7,108.1 830.7,97.3 862.6,96.9 894.5,86.1 926.5,75.3 958.4,74.9 990.4,64.1 1022.3,63.9 1054.3,63.7 1086.2,63.4 1118.1,63.2 1150.1,62.8 1182.0,52.0"/><line x1="96.0" y1="364.0" x2="96.0" y2="370.0" stroke="#111827" stroke-width="1"/><text x="98.0" y="386.0" font-size="11" text-anchor="end" transform="rotate(-35 98.0 386.0)" font-family="sans-serif" fill="#374151">2026-04-16 23:00</text><line x1="255.7" y1="364.0" x2="255.7" y2="370.0" stroke="#111827" stroke-width="1"/><text x="257.7" y="386.0" font-size="11" text-anchor="end" transform="rotate(-35 257.7 386.0)" font-family="sans-serif" fill="#374151">2026-04-19 18:00</text><line x1="415.4" y1="364.0" x2="415.4" y2="370.0" stroke="#111827" stroke-width="1"/><text x="417.4" y="386.0" font-size="11" text-anchor="end" transform="rotate(-35 417.4 386.0)" font-family="sans-serif" fill="#374151">2026-04-20 16:00</text><line x1="575.1" y1="364.0" x2="575.1" y2="370.0" stroke="#111827" stroke-width="1"/><text x="577.1" y="386.0" font-size="11" text-anchor="end" transform="rotate(-35 577.1 386.0)" font-family="sans-serif" fill="#374151">2026-04-21 05:00</text><line x1="702.9" y1="364.0" x2="702.9" y2="370.0" stroke="#111827" stroke-width="1"/><text x="704.9" y="386.0" font-size="11" text-anchor="end" transform="rotate(-35 704.9 386.0)" font-family="sans-serif" fill="#374151">2026-04-22 08:00</text><line x1="862.6" y1="364.0" x2="862.6" y2="370.0" stroke="#111827" stroke-width="1"/><text x="864.6" y="386.0" font-size="11" text-anchor="end" transform="rotate(-35 864.6 386.0)" font-family="sans-serif" fill="#374151">2026-04-24 14:00</text><line x1="1022.3" y1="364.0" x2="1022.3" y2="370.0" stroke="#111827" stroke-width="1"/><text x="1024.3" y="386.0" font-size="11" text-anchor="end" transform="rotate(-35 1024.3 386.0)" font-family="sans-serif" fill="#374151">2026-04-25 10:00</text><line x1="1182.0" y1="364.0" x2="1182.0" y2="370.0" stroke="#111827" stroke-width="1"/><text x="1184.0" y="386.0" font-size="11" text-anchor="end" transform="rotate(-35 1184.0 386.0)" font-family="sans-serif" fill="#374151">2026-04-25 19:00</text><text x="26" y="208.0" font-size="12" transform="rotate(-90 26 208.0)" text-anchor="middle" font-family="sans-serif" fill="#1f2937">구간별 수</text><text x="1256.0" y="208.0" font-size="12" transform="rotate(90 1256.0 208.0)" text-anchor="middle" font-family="sans-serif" fill="#1f2937">누적</text><text x="639.0" y="442.0" font-size="13" text-anchor="middle" font-family="sans-serif" fill="#111827">시간</text></svg>