<svg xmlns="http://www.w3.org/2000/svg" width="1280" height="460" viewBox="0 0 1280 460"><rect x="0" y="0" width="100%" height="100%" fill="#ffffff"/><text x="640.0" y="28" font-size="20" text-anchor="middle" font-family="sans-serif" fill="#111827">시리즈 / 최근 반영 시점 / 시간별</text><line x1="80.0" y1="52.0" x2="1198.0" y2="52.0" stroke="#e5e7eb" stroke-width="1"/><text x="72.0" y="56.0" font-size="11" text-anchor="end" font-family="sans-serif" fill="#374151">1,317</text><text x="1206.0" y="56.0" font-size="11" text-anchor="start" font-family="sans-serif" fill="#374151">1,440</text><line x1="80.0" y1="114.4" x2="1198.0" y2="114.4" stroke="#e5e7eb" stroke-width="1"/><text x="72.0" y="118.4" font-size="11" text-anchor="end" font-family="sans-serif" fill="#374151">1,054</text><text x="1206.0" y="118.4" font-size="11" text-anchor="start" font-family="sans-serif" fill="#374151">1,152</text><line x1="80.0" y1="176.8" x2="1198.0" y2="176.8" stroke="#e5e7eb" stroke-width="1"/><text x="72.0" y="180.8" font-size="11" text-anchor="end" font-family="sans-serif" fill="#374151">790</text><text x="1206.0" y="180.8" font-size="11" text-anchor="start" font-family="sans-serif" fill="#374151">864</text><line x1="80.0" y1="239.2" x2="1198.0" y2="239.2" stroke="#e5e7eb" stroke-width="1"/><text x="72.0" y="243.2" font-size="11" text-anchor="end" font-family="sans-serif" fill="#374151">527</text><text x="1206.0" y="243.2" font-size="11" text-anchor="start" font-family="sans-serif" fill="#374151">576</text><line x1="80.0" y1="301.6" x2="1198.0" y2="301.6" stroke="#e5e7eb" stroke-width="1"/><text x="72.0" y="305.6" font-size="11" text-anchor="end" font-family="sans-serif" fill="#374151">263</text><text x="1206.0" y="305.6" font-size="11" text-anchor="start" font-family="sans-serif" fill="#374151">288</text><line x1="80.0" y1="364.0" x2="1198.0" y2="364.0" stroke="#e5e7eb" stroke-width="1"/><text x="72.0" y="368.0" font-size="11" text-anchor="end" font-family="sans-serif" fill="#374151">0</text><text x="1206.0" y="368.0" font-size="11" text-anchor="start" font-family="sans-serif" fill="#374151">0</text><line x1="80.0" y1="364.0" x2="1198.0" y2="364.0" stroke="#111827" stroke-width="1.2"/><line x1="80.0" y1="52.0" x2="80.0" y2="364.0" stroke="#111827" stroke-width="1.2"/><line x1="1198.0" y1="52.0" x2="1198.0" y2="364.0" stroke="#111827" stroke-width="1.2"/><rect x="81.0" y="363.8" width="42.7" height="0.2" fill="#93c5fd" stroke="#60a5fa" stroke-width="0.5"/><rect x="125.7" y="363.3" width="42.7" height="0.7" fill="#93c5fd" stroke="#60a5fa" stroke-width="0.5"/><rect x="170.4" y="357.6" width="42.7" height="6.4" fill="#93c5fd" stroke="#60a5fa" stroke-width="0.5"/><rect x="215.2" y="357.6" width="42.7" height="6.4" fill="#93c5fd" stroke="#60a5fa" stroke-width="0.5"/><rect x="259.9" y="363.8" width="42.7" height="0.2" fill="#93c5fd" stroke="#60a5fa" stroke-width="0.5"/><rect x="304.6" y="363.8" width="42.7" height="0.2" fill="#93c5fd" stroke="#60a5fa" stroke-width="0.5"/><rect x="349.3" y="363.8" width="42.7" height="0.2" fill="#93c5fd" stroke="#60a5fa" stroke-width="0.5"/><rect x="394.0" y="363.8" width="42.7" height="0.2" fill="#93c5fd" stroke="#60a5fa" stroke-width="0.5"/><rect x="438.8" y="363.8" width="42.7" height="0.2" fill="#93c5fd" stroke="#60a5fa" stroke-width="0.5"/><rect x="483.5" y="363.8" width="42.7" height="0.2" fill="#93c5fd" stroke="#60a5fa" stroke-width="0.5"/><rect x="528.2" y="363.5" width="42.7" height="0.5" fill="#93c5fd" stroke="#60a5fa" stroke-width="0.5"/><rect x="572.9" y="363.8" width="42.7" height="0.2" fill="#93c5fd" stroke="#60a5fa" stroke-width="0.5"/><rect x="617.6" y="363.3" width="42.7" height="0.7" fill="#93c5fd" stroke="#60a5fa" stroke-width="0.5"/><rect x="662.4" y="363.5" width="42.7" height="0.5" fill="#93c5fd" stroke="#60a5fa" stroke-width="0.5"/><rect x="707.1" y="363.5" width="42.7" height="0.5" fill="#93c5fd" stroke="#60a5fa" stroke-width="0.5"/><rect x="751.8" y="363.5" width="42.7" height="0.5" fill="#93c5fd" stroke="#60a5fa" stroke-width="0.5"/><rect x="796.5" y="363.8" width="42.7" height="0.2" fill="#93c5fd" stroke="#60a5fa" stroke-width="0.5"/><rect x="841.2" y="363.5" width="42.7" height="0.5" fill="#93c5fd" stroke="#60a5fa" stroke-width="0.5"/><rect x="886.0" y="363.8" width="42.7" height="0.2" fill="#93c5fd" stroke="#60a5fa" stroke-width="0.5"/><rect x="930.7" y="363.5" width="42.7" height="0.5" fill="#93c5fd" stroke="#60a5fa" stroke-width="0.5"/><rect x="975.4" y="362.8" width="42.7" height="1.2" fill="#93c5fd" stroke="#60a5fa" stroke-width="0.5"/><rect x="1020.1" y="362.1" width="42.7" height="1.9" fill="#93c5fd" stroke="#60a5fa" stroke-width="0.5"/><rect x="1064.8" y="361.4" width="42.7" height="2.6" fill="#93c5fd" stroke="#60a5fa" stroke-width="0.5"/><rect x="1109.6" y="360.0" width="42.7" height="4.0" fill="#93c5fd" stroke="#60a5fa" stroke-width="0.5"/><rect x="1154.3" y="52.0" width="42.7" height="312.0" fill="#93c5fd" stroke="#60a5fa" stroke-width="0.5"/><polyline fill="none" stroke="#ef4444" stroke-width="2" points="102.4,363.8 147.1,363.1 191.8,357.3 236.5,351.4 281.2,351.2 326.0,351.0 370.7,350.8 415.4,350.6 460.1,350.4 504.8,350.1 549.6,349.7 594.3,349.5 639.0,348.8 683.7,348.4 728.4,348.0 773.2,347.5 817.9,347.3 862.6,346.9 907.3,346.7 952.0,346.2 996.8,345.1 1041.5,343.4 1086.2,341.0 1130.9,337.4 1175.6,52.0"/><line x1="102.4" y1="364.0" x2="102.4" y2="370.0" stroke="#111827" stroke-width="1"/><text x="104.4" y="386.0" font-size="11" text-anchor="end" transform="rotate(-35 104.4 386.0)" font-family="sans-serif" fill="#374151">2026-04-16 23:00</text><line x1="236.5" y1="364.0" x2="236.5" y2="370.0" stroke="#111827" stroke-width="1"/><text x="238.5" y="386.0" font-size="11" text-anchor="end" transform="rotate(-35 238.5 386.0)" font-family="sans-serif" fill="#374151">2026-04-18 09:00</text><line x1="415.4" y1="364.0" x2="415.4" y2="370.0" stroke="#111827" stroke-width="1"/><text x="417.4" y="386.0" font-size="11" text-anchor="end" transform="rotate(-35 417.4 386.0)" font-family="sans-serif" fill="#374151">2026-04-19 16:00</text><line x1="549.6" y1="364.0" x2="549.6" y2="370.0" stroke="#111827" stroke-width="1"/><text x="551.6" y="386.0" font-size="11" text-anchor="end" transform="rotate(-35 551.6 386.0)" font-family="sans-serif" fill="#374151">2026-04-20 00:00</text><line x1="728.4" y1="364.0" x2="728.4" y2="370.0" stroke="#111827" stroke-width="1"/><text x="730.4" y="386.0" font-size="11" text-anchor="end" transform="rotate(-35 730.4 386.0)" font-family="sans-serif" fill="#374151">2026-04-20 21:00</text><line x1="862.6" y1="364.0" x2="862.6" y2="370.0" stroke="#111827" stroke-width="1"/><text x="864.6" y="386.0" font-size="11" text-anchor="end" transform="rotate(-35 864.6 386.0)" font-family="sans-serif" fill="#374151">2026-04-21 02:00</text><line x1="1041.5" y1="364.0" x2="1041.5" y2="370.0" stroke="#111827" stroke-width="1"/><text x="1043.5" y="386.0" font-size="11" text-anchor="end" transform="rotate(-35 1043.5 386.0)" font-family="sans-serif" fill="#374151">2026-04-21 10:00</text><line x1="1175.6" y1="364.0" x2="1175.6" y2="370.0" stroke="#111827" stroke-width="1"/><text x="1177.6" y="386.0" font-size="11" text-anchor="end" transform="rotate(-35 1177.6 386.0)" font-family="sans-serif" fill="#374151">2026-04-21 14:00</text><text x="26" y="208.0" font-size="12" transform="rotate(-90 26 208.0)" text-anchor="middle" font-family="sans-serif" fill="#1f2937">구간별 수</text><text x="1256.0" y="208.0" font-size="12" transform="rotate(90 1256.0 208.0)" text-anchor="middle" font-family="sans-serif" fill="#1f2937">누적</text><text x="639.0" y="442.0" font-size="13" text-anchor="middle" font-family="sans-serif" fill="#111827">시간</text></svg>