<svg xmlns="http://www.w3.org/2000/svg" width="1280" height="460" viewBox="0 0 1280 460"><rect x="0" y="0" width="100%" height="100%" fill="#ffffff"/><text x="640.0" y="28" font-size="20" text-anchor="middle" font-family="sans-serif" fill="#111827">시리즈 / 최근 반영 시점 / 시간별</text><line x1="80.0" y1="52.0" x2="1198.0" y2="52.0" stroke="#e5e7eb" stroke-width="1"/><text x="72.0" y="56.0" font-size="11" text-anchor="end" font-family="sans-serif" fill="#374151">1,336</text><text x="1206.0" y="56.0" font-size="11" text-anchor="start" font-family="sans-serif" fill="#374151">1,436</text><line x1="80.0" y1="114.4" x2="1198.0" y2="114.4" stroke="#e5e7eb" stroke-width="1"/><text x="72.0" y="118.4" font-size="11" text-anchor="end" font-family="sans-serif" fill="#374151">1,069</text><text x="1206.0" y="118.4" font-size="11" text-anchor="start" font-family="sans-serif" fill="#374151">1,149</text><line x1="80.0" y1="176.8" x2="1198.0" y2="176.8" stroke="#e5e7eb" stroke-width="1"/><text x="72.0" y="180.8" font-size="11" text-anchor="end" font-family="sans-serif" fill="#374151">802</text><text x="1206.0" y="180.8" font-size="11" text-anchor="start" font-family="sans-serif" fill="#374151">862</text><line x1="80.0" y1="239.2" x2="1198.0" y2="239.2" stroke="#e5e7eb" stroke-width="1"/><text x="72.0" y="243.2" font-size="11" text-anchor="end" font-family="sans-serif" fill="#374151">534</text><text x="1206.0" y="243.2" font-size="11" text-anchor="start" font-family="sans-serif" fill="#374151">574</text><line x1="80.0" y1="301.6" x2="1198.0" y2="301.6" stroke="#e5e7eb" stroke-width="1"/><text x="72.0" y="305.6" font-size="11" text-anchor="end" font-family="sans-serif" fill="#374151">267</text><text x="1206.0" y="305.6" font-size="11" text-anchor="start" font-family="sans-serif" fill="#374151">287</text><line x1="80.0" y1="364.0" x2="1198.0" y2="364.0" stroke="#e5e7eb" stroke-width="1"/><text x="72.0" y="368.0" font-size="11" text-anchor="end" font-family="sans-serif" fill="#374151">0</text><text x="1206.0" y="368.0" font-size="11" text-anchor="start" font-family="sans-serif" fill="#374151">0</text><line x1="80.0" y1="364.0" x2="1198.0" y2="364.0" stroke="#111827" stroke-width="1.2"/><line x1="80.0" y1="52.0" x2="80.0" y2="364.0" stroke="#111827" stroke-width="1.2"/><line x1="1198.0" y1="52.0" x2="1198.0" y2="364.0" stroke="#111827" stroke-width="1.2"/><rect x="81.0" y="363.8" width="67.9" height="0.2" fill="#93c5fd" stroke="#60a5fa" stroke-width="0.5"/><rect x="150.9" y="362.6" width="67.9" height="1.4" fill="#93c5fd" stroke="#60a5fa" stroke-width="0.5"/><rect x="220.8" y="357.2" width="67.9" height="6.8" fill="#93c5fd" stroke="#60a5fa" stroke-width="0.5"/><rect x="290.6" y="363.8" width="67.9" height="0.2" fill="#93c5fd" stroke="#60a5fa" stroke-width="0.5"/><rect x="360.5" y="363.8" width="67.9" height="0.2" fill="#93c5fd" stroke="#60a5fa" stroke-width="0.5"/><rect x="430.4" y="357.0" width="67.9" height="7.0" fill="#93c5fd" stroke="#60a5fa" stroke-width="0.5"/><rect x="500.2" y="363.8" width="67.9" height="0.2" fill="#93c5fd" stroke="#60a5fa" stroke-width="0.5"/><rect x="570.1" y="363.8" width="67.9" height="0.2" fill="#93c5fd" stroke="#60a5fa" stroke-width="0.5"/><rect x="640.0" y="363.8" width="67.9" height="0.2" fill="#93c5fd" stroke="#60a5fa" stroke-width="0.5"/><rect x="709.9" y="363.5" width="67.9" height="0.5" fill="#93c5fd" stroke="#60a5fa" stroke-width="0.5"/><rect x="779.8" y="362.6" width="67.9" height="1.4" fill="#93c5fd" stroke="#60a5fa" stroke-width="0.5"/><rect x="849.6" y="363.5" width="67.9" height="0.5" fill="#93c5fd" stroke="#60a5fa" stroke-width="0.5"/><rect x="919.5" y="362.6" width="67.9" height="1.4" fill="#93c5fd" stroke="#60a5fa" stroke-width="0.5"/><rect x="989.4" y="362.8" width="67.9" height="1.2" fill="#93c5fd" stroke="#60a5fa" stroke-width="0.5"/><rect x="1059.2" y="362.1" width="67.9" height="1.9" fill="#93c5fd" stroke="#60a5fa" stroke-width="0.5"/><rect x="1129.1" y="52.0" width="67.9" height="312.0" fill="#93c5fd" stroke="#60a5fa" stroke-width="0.5"/><polyline fill="none" stroke="#ef4444" stroke-width="2" points="114.9,363.8 184.8,362.5 254.7,356.2 324.6,356.0 394.4,355.7 464.3,349.2 534.2,349.0 604.1,348.8 673.9,348.6 743.8,348.1 813.7,346.8 883.6,346.4 953.4,345.1 1023.3,344.0 1093.2,342.3 1163.1,52.0"/><line x1="114.9" y1="364.0" x2="114.9" y2="370.0" stroke="#111827" stroke-width="1"/><text x="116.9" y="386.0" font-size="11" text-anchor="end" transform="rotate(-35 116.9 386.0)" font-family="sans-serif" fill="#374151">2026-04-16 23:00</text><line x1="254.7" y1="364.0" x2="254.7" y2="370.0" stroke="#111827" stroke-width="1"/><text x="256.7" y="386.0" font-size="11" text-anchor="end" transform="rotate(-35 256.7 386.0)" font-family="sans-serif" fill="#374151">2026-04-17 10:00</text><line x1="394.4" y1="364.0" x2="394.4" y2="370.0" stroke="#111827" stroke-width="1"/><text x="396.4" y="386.0" font-size="11" text-anchor="end" transform="rotate(-35 396.4 386.0)" font-family="sans-serif" fill="#374151">2026-04-18 07:00</text><line x1="534.2" y1="364.0" x2="534.2" y2="370.0" stroke="#111827" stroke-width="1"/><text x="536.2" y="386.0" font-size="11" text-anchor="end" transform="rotate(-35 536.2 386.0)" font-family="sans-serif" fill="#374151">2026-04-18 12:00</text><line x1="743.8" y1="364.0" x2="743.8" y2="370.0" stroke="#111827" stroke-width="1"/><text x="745.8" y="386.0" font-size="11" text-anchor="end" transform="rotate(-35 745.8 386.0)" font-family="sans-serif" fill="#374151">2026-04-18 22:00</text><line x1="883.6" y1="364.0" x2="883.6" y2="370.0" stroke="#111827" stroke-width="1"/><text x="885.6" y="386.0" font-size="11" text-anchor="end" transform="rotate(-35 885.6 386.0)" font-family="sans-serif" fill="#374151">2026-04-19 12:00</text><line x1="1023.3" y1="364.0" x2="1023.3" y2="370.0" stroke="#111827" stroke-width="1"/><text x="1025.3" y="386.0" font-size="11" text-anchor="end" transform="rotate(-35 1025.3 386.0)" font-family="sans-serif" fill="#374151">2026-04-19 16:00</text><line x1="1163.1" y1="364.0" x2="1163.1" y2="370.0" stroke="#111827" stroke-width="1"/><text x="1165.1" y="386.0" font-size="11" text-anchor="end" transform="rotate(-35 1165.1 386.0)" font-family="sans-serif" fill="#374151">2026-04-19 20:00</text><text x="26" y="208.0" font-size="12" transform="rotate(-90 26 208.0)" text-anchor="middle" font-family="sans-serif" fill="#1f2937">구간별 수</text><text x="1256.0" y="208.0" font-size="12" transform="rotate(90 1256.0 208.0)" text-anchor="middle" font-family="sans-serif" fill="#1f2937">누적</text><text x="639.0" y="442.0" font-size="13" text-anchor="middle" font-family="sans-serif" fill="#111827">시간</text></svg>