<svg xmlns="http://www.w3.org/2000/svg" width="1280" height="460" viewBox="0 0 1280 460"><rect x="0" y="0" width="100%" height="100%" fill="#ffffff"/><text x="640.0" y="28" font-size="20" text-anchor="middle" font-family="sans-serif" fill="#111827">시리즈 / 최근 반영 시점 / 시간별</text><line x1="80.0" y1="52.0" x2="1198.0" y2="52.0" stroke="#e5e7eb" stroke-width="1"/><text x="72.0" y="56.0" font-size="11" text-anchor="end" font-family="sans-serif" fill="#374151">1,325</text><text x="1206.0" y="56.0" font-size="11" text-anchor="start" font-family="sans-serif" fill="#374151">1,434</text><line x1="80.0" y1="114.4" x2="1198.0" y2="114.4" stroke="#e5e7eb" stroke-width="1"/><text x="72.0" y="118.4" font-size="11" text-anchor="end" font-family="sans-serif" fill="#374151">1,060</text><text x="1206.0" y="118.4" font-size="11" text-anchor="start" font-family="sans-serif" fill="#374151">1,147</text><line x1="80.0" y1="176.8" x2="1198.0" y2="176.8" stroke="#e5e7eb" stroke-width="1"/><text x="72.0" y="180.8" font-size="11" text-anchor="end" font-family="sans-serif" fill="#374151">795</text><text x="1206.0" y="180.8" font-size="11" text-anchor="start" font-family="sans-serif" fill="#374151">860</text><line x1="80.0" y1="239.2" x2="1198.0" y2="239.2" stroke="#e5e7eb" stroke-width="1"/><text x="72.0" y="243.2" font-size="11" text-anchor="end" font-family="sans-serif" fill="#374151">530</text><text x="1206.0" y="243.2" font-size="11" text-anchor="start" font-family="sans-serif" fill="#374151">574</text><line x1="80.0" y1="301.6" x2="1198.0" y2="301.6" stroke="#e5e7eb" stroke-width="1"/><text x="72.0" y="305.6" font-size="11" text-anchor="end" font-family="sans-serif" fill="#374151">265</text><text x="1206.0" y="305.6" font-size="11" text-anchor="start" font-family="sans-serif" fill="#374151">287</text><line x1="80.0" y1="364.0" x2="1198.0" y2="364.0" stroke="#e5e7eb" stroke-width="1"/><text x="72.0" y="368.0" font-size="11" text-anchor="end" font-family="sans-serif" fill="#374151">0</text><text x="1206.0" y="368.0" font-size="11" text-anchor="start" font-family="sans-serif" fill="#374151">0</text><line x1="80.0" y1="364.0" x2="1198.0" y2="364.0" stroke="#111827" stroke-width="1.2"/><line x1="80.0" y1="52.0" x2="80.0" y2="364.0" stroke="#111827" stroke-width="1.2"/><line x1="1198.0" y1="52.0" x2="1198.0" y2="364.0" stroke="#111827" stroke-width="1.2"/><rect x="81.0" y="363.8" width="109.8" height="0.2" fill="#93c5fd" stroke="#60a5fa" stroke-width="0.5"/><rect x="192.8" y="361.9" width="109.8" height="2.1" fill="#93c5fd" stroke="#60a5fa" stroke-width="0.5"/><rect x="304.6" y="363.5" width="109.8" height="0.5" fill="#93c5fd" stroke="#60a5fa" stroke-width="0.5"/><rect x="416.4" y="363.8" width="109.8" height="0.2" fill="#93c5fd" stroke="#60a5fa" stroke-width="0.5"/><rect x="528.2" y="363.1" width="109.8" height="0.9" fill="#93c5fd" stroke="#60a5fa" stroke-width="0.5"/><rect x="640.0" y="363.8" width="109.8" height="0.2" fill="#93c5fd" stroke="#60a5fa" stroke-width="0.5"/><rect x="751.8" y="348.5" width="109.8" height="15.5" fill="#93c5fd" stroke="#60a5fa" stroke-width="0.5"/><rect x="863.6" y="362.8" width="109.8" height="1.2" fill="#93c5fd" stroke="#60a5fa" stroke-width="0.5"/><rect x="975.4" y="359.3" width="109.8" height="4.7" fill="#93c5fd" stroke="#60a5fa" stroke-width="0.5"/><rect x="1087.2" y="52.0" width="109.8" height="312.0" fill="#93c5fd" stroke="#60a5fa" stroke-width="0.5"/><polyline fill="none" stroke="#ef4444" stroke-width="2" points="135.9,363.8 247.7,361.8 359.5,361.4 471.3,361.2 583.1,360.3 694.9,360.1 806.7,345.7 918.5,344.6 1030.3,340.3 1142.1,52.0"/><line x1="135.9" y1="364.0" x2="135.9" y2="370.0" stroke="#111827" stroke-width="1"/><text x="137.9" y="386.0" font-size="11" text-anchor="end" transform="rotate(-35 137.9 386.0)" font-family="sans-serif" fill="#374151">2026-04-16 23:00</text><line x1="247.7" y1="364.0" x2="247.7" y2="370.0" stroke="#111827" stroke-width="1"/><text x="249.7" y="386.0" font-size="11" text-anchor="end" transform="rotate(-35 249.7 386.0)" font-family="sans-serif" fill="#374151">2026-04-17 00:00</text><line x1="471.3" y1="364.0" x2="471.3" y2="370.0" stroke="#111827" stroke-width="1"/><text x="473.3" y="386.0" font-size="11" text-anchor="end" transform="rotate(-35 473.3 386.0)" font-family="sans-serif" fill="#374151">2026-04-17 04:00</text><line x1="583.1" y1="364.0" x2="583.1" y2="370.0" stroke="#111827" stroke-width="1"/><text x="585.1" y="386.0" font-size="11" text-anchor="end" transform="rotate(-35 585.1 386.0)" font-family="sans-serif" fill="#374151">2026-04-17 06:00</text><line x1="694.9" y1="364.0" x2="694.9" y2="370.0" stroke="#111827" stroke-width="1"/><text x="696.9" y="386.0" font-size="11" text-anchor="end" transform="rotate(-35 696.9 386.0)" font-family="sans-serif" fill="#374151">2026-04-17 08:00</text><line x1="806.7" y1="364.0" x2="806.7" y2="370.0" stroke="#111827" stroke-width="1"/><text x="808.7" y="386.0" font-size="11" text-anchor="end" transform="rotate(-35 808.7 386.0)" font-family="sans-serif" fill="#374151">2026-04-17 10:00</text><line x1="1030.3" y1="364.0" x2="1030.3" y2="370.0" stroke="#111827" stroke-width="1"/><text x="1032.3" y="386.0" font-size="11" text-anchor="end" transform="rotate(-35 1032.3 386.0)" font-family="sans-serif" fill="#374151">2026-04-17 12:00</text><line x1="1142.1" y1="364.0" x2="1142.1" y2="370.0" stroke="#111827" stroke-width="1"/><text x="1144.1" y="386.0" font-size="11" text-anchor="end" transform="rotate(-35 1144.1 386.0)" font-family="sans-serif" fill="#374151">2026-04-17 14:00</text><text x="26" y="208.0" font-size="12" transform="rotate(-90 26 208.0)" text-anchor="middle" font-family="sans-serif" fill="#1f2937">구간별 수</text><text x="1256.0" y="208.0" font-size="12" transform="rotate(90 1256.0 208.0)" text-anchor="middle" font-family="sans-serif" fill="#1f2937">누적</text><text x="639.0" y="442.0" font-size="13" text-anchor="middle" font-family="sans-serif" fill="#111827">시간</text></svg>