<svg xmlns="http://www.w3.org/2000/svg" width="1280" height="460" viewBox="0 0 1280 460"><rect x="0" y="0" width="100%" height="100%" fill="#ffffff"/><text x="640.0" y="28" font-size="20" text-anchor="middle" font-family="sans-serif" fill="#111827">시리즈 / 최근 반영 시점 / 시간별</text><line x1="80.0" y1="52.0" x2="1198.0" y2="52.0" stroke="#e5e7eb" stroke-width="1"/><text x="72.0" y="56.0" font-size="11" text-anchor="end" font-family="sans-serif" fill="#374151">1,219</text><text x="1206.0" y="56.0" font-size="11" text-anchor="start" font-family="sans-serif" fill="#374151">1,417</text><line x1="80.0" y1="114.4" x2="1198.0" y2="114.4" stroke="#e5e7eb" stroke-width="1"/><text x="72.0" y="118.4" font-size="11" text-anchor="end" font-family="sans-serif" fill="#374151">975</text><text x="1206.0" y="118.4" font-size="11" text-anchor="start" font-family="sans-serif" fill="#374151">1,134</text><line x1="80.0" y1="176.8" x2="1198.0" y2="176.8" stroke="#e5e7eb" stroke-width="1"/><text x="72.0" y="180.8" font-size="11" text-anchor="end" font-family="sans-serif" fill="#374151">731</text><text x="1206.0" y="180.8" font-size="11" text-anchor="start" font-family="sans-serif" fill="#374151">850</text><line x1="80.0" y1="239.2" x2="1198.0" y2="239.2" stroke="#e5e7eb" stroke-width="1"/><text x="72.0" y="243.2" font-size="11" text-anchor="end" font-family="sans-serif" fill="#374151">488</text><text x="1206.0" y="243.2" font-size="11" text-anchor="start" font-family="sans-serif" fill="#374151">567</text><line x1="80.0" y1="301.6" x2="1198.0" y2="301.6" stroke="#e5e7eb" stroke-width="1"/><text x="72.0" y="305.6" font-size="11" text-anchor="end" font-family="sans-serif" fill="#374151">244</text><text x="1206.0" y="305.6" font-size="11" text-anchor="start" font-family="sans-serif" fill="#374151">283</text><line x1="80.0" y1="364.0" x2="1198.0" y2="364.0" stroke="#e5e7eb" stroke-width="1"/><text x="72.0" y="368.0" font-size="11" text-anchor="end" font-family="sans-serif" fill="#374151">0</text><text x="1206.0" y="368.0" font-size="11" text-anchor="start" font-family="sans-serif" fill="#374151">0</text><line x1="80.0" y1="364.0" x2="1198.0" y2="364.0" stroke="#111827" stroke-width="1.2"/><line x1="80.0" y1="52.0" x2="80.0" y2="364.0" stroke="#111827" stroke-width="1.2"/><line x1="1198.0" y1="52.0" x2="1198.0" y2="364.0" stroke="#111827" stroke-width="1.2"/><rect x="81.0" y="363.7" width="84.0" height="0.3" fill="#93c5fd" stroke="#60a5fa" stroke-width="0.5"/><rect x="167.0" y="363.7" width="84.0" height="0.3" fill="#93c5fd" stroke="#60a5fa" stroke-width="0.5"/><rect x="253.0" y="362.7" width="84.0" height="1.3" fill="#93c5fd" stroke="#60a5fa" stroke-width="0.5"/><rect x="339.0" y="362.2" width="84.0" height="1.8" fill="#93c5fd" stroke="#60a5fa" stroke-width="0.5"/><rect x="425.0" y="363.7" width="84.0" height="0.3" fill="#93c5fd" stroke="#60a5fa" stroke-width="0.5"/><rect x="511.0" y="351.7" width="84.0" height="12.3" fill="#93c5fd" stroke="#60a5fa" stroke-width="0.5"/><rect x="597.0" y="362.0" width="84.0" height="2.0" fill="#93c5fd" stroke="#60a5fa" stroke-width="0.5"/><rect x="683.0" y="363.5" width="84.0" height="0.5" fill="#93c5fd" stroke="#60a5fa" stroke-width="0.5"/><rect x="769.0" y="363.7" width="84.0" height="0.3" fill="#93c5fd" stroke="#60a5fa" stroke-width="0.5"/><rect x="855.0" y="362.7" width="84.0" height="1.3" fill="#93c5fd" stroke="#60a5fa" stroke-width="0.5"/><rect x="941.0" y="363.0" width="84.0" height="1.0" fill="#93c5fd" stroke="#60a5fa" stroke-width="0.5"/><rect x="1027.0" y="334.6" width="84.0" height="29.4" fill="#93c5fd" stroke="#60a5fa" stroke-width="0.5"/><rect x="1113.0" y="52.0" width="84.0" height="312.0" fill="#93c5fd" stroke="#60a5fa" stroke-width="0.5"/><polyline fill="none" stroke="#ef4444" stroke-width="2" points="123.0,363.8 209.0,363.6 295.0,362.5 381.0,360.9 467.0,360.7 553.0,350.1 639.0,348.4 725.0,347.9 811.0,347.7 897.0,346.6 983.0,345.7 1069.0,320.4 1155.0,52.0"/><line x1="123.0" y1="364.0" x2="123.0" y2="370.0" stroke="#111827" stroke-width="1"/><text x="125.0" y="386.0" font-size="11" text-anchor="end" transform="rotate(-35 125.0 386.0)" font-family="sans-serif" fill="#374151">2026-04-10 02:00</text><line x1="295.0" y1="364.0" x2="295.0" y2="370.0" stroke="#111827" stroke-width="1"/><text x="297.0" y="386.0" font-size="11" text-anchor="end" transform="rotate(-35 297.0 386.0)" font-family="sans-serif" fill="#374151">2026-04-10 15:00</text><line x1="381.0" y1="364.0" x2="381.0" y2="370.0" stroke="#111827" stroke-width="1"/><text x="383.0" y="386.0" font-size="11" text-anchor="end" transform="rotate(-35 383.0 386.0)" font-family="sans-serif" fill="#374151">2026-04-10 16:00</text><line x1="553.0" y1="364.0" x2="553.0" y2="370.0" stroke="#111827" stroke-width="1"/><text x="555.0" y="386.0" font-size="11" text-anchor="end" transform="rotate(-35 555.0 386.0)" font-family="sans-serif" fill="#374151">2026-04-10 18:00</text><line x1="725.0" y1="364.0" x2="725.0" y2="370.0" stroke="#111827" stroke-width="1"/><text x="727.0" y="386.0" font-size="11" text-anchor="end" transform="rotate(-35 727.0 386.0)" font-family="sans-serif" fill="#374151">2026-04-10 21:00</text><line x1="897.0" y1="364.0" x2="897.0" y2="370.0" stroke="#111827" stroke-width="1"/><text x="899.0" y="386.0" font-size="11" text-anchor="end" transform="rotate(-35 899.0 386.0)" font-family="sans-serif" fill="#374151">2026-04-10 23:00</text><line x1="983.0" y1="364.0" x2="983.0" y2="370.0" stroke="#111827" stroke-width="1"/><text x="985.0" y="386.0" font-size="11" text-anchor="end" transform="rotate(-35 985.0 386.0)" font-family="sans-serif" fill="#374151">2026-04-11 00:00</text><line x1="1155.0" y1="364.0" x2="1155.0" y2="370.0" stroke="#111827" stroke-width="1"/><text x="1157.0" y="386.0" font-size="11" text-anchor="end" transform="rotate(-35 1157.0 386.0)" font-family="sans-serif" fill="#374151">2026-04-11 05:00</text><text x="26" y="208.0" font-size="12" transform="rotate(-90 26 208.0)" text-anchor="middle" font-family="sans-serif" fill="#1f2937">구간별 수</text><text x="1256.0" y="208.0" font-size="12" transform="rotate(90 1256.0 208.0)" text-anchor="middle" font-family="sans-serif" fill="#1f2937">누적</text><text x="639.0" y="442.0" font-size="13" text-anchor="middle" font-family="sans-serif" fill="#111827">시간</text></svg>