<svg xmlns="http://www.w3.org/2000/svg" width="1280" height="460" viewBox="0 0 1280 460"><rect x="0" y="0" width="100%" height="100%" fill="#ffffff"/><text x="640.0" y="28" font-size="20" text-anchor="middle" font-family="sans-serif" fill="#111827">시리즈 / 최근 반영 시점 / 시간별</text><line x1="80.0" y1="52.0" x2="1198.0" y2="52.0" stroke="#e5e7eb" stroke-width="1"/><text x="72.0" y="56.0" font-size="11" text-anchor="end" font-family="sans-serif" fill="#374151">1,131</text><text x="1206.0" y="56.0" font-size="11" text-anchor="start" font-family="sans-serif" fill="#374151">1,436</text><line x1="80.0" y1="114.4" x2="1198.0" y2="114.4" stroke="#e5e7eb" stroke-width="1"/><text x="72.0" y="118.4" font-size="11" text-anchor="end" font-family="sans-serif" fill="#374151">905</text><text x="1206.0" y="118.4" font-size="11" text-anchor="start" font-family="sans-serif" fill="#374151">1,149</text><line x1="80.0" y1="176.8" x2="1198.0" y2="176.8" stroke="#e5e7eb" stroke-width="1"/><text x="72.0" y="180.8" font-size="11" text-anchor="end" font-family="sans-serif" fill="#374151">679</text><text x="1206.0" y="180.8" font-size="11" text-anchor="start" font-family="sans-serif" fill="#374151">862</text><line x1="80.0" y1="239.2" x2="1198.0" y2="239.2" stroke="#e5e7eb" stroke-width="1"/><text x="72.0" y="243.2" font-size="11" text-anchor="end" font-family="sans-serif" fill="#374151">452</text><text x="1206.0" y="243.2" font-size="11" text-anchor="start" font-family="sans-serif" fill="#374151">574</text><line x1="80.0" y1="301.6" x2="1198.0" y2="301.6" stroke="#e5e7eb" stroke-width="1"/><text x="72.0" y="305.6" font-size="11" text-anchor="end" font-family="sans-serif" fill="#374151">226</text><text x="1206.0" y="305.6" font-size="11" text-anchor="start" font-family="sans-serif" fill="#374151">287</text><line x1="80.0" y1="364.0" x2="1198.0" y2="364.0" stroke="#e5e7eb" stroke-width="1"/><text x="72.0" y="368.0" font-size="11" text-anchor="end" font-family="sans-serif" fill="#374151">0</text><text x="1206.0" y="368.0" font-size="11" text-anchor="start" font-family="sans-serif" fill="#374151">0</text><line x1="80.0" y1="364.0" x2="1198.0" y2="364.0" stroke="#111827" stroke-width="1.2"/><line x1="80.0" y1="52.0" x2="80.0" y2="364.0" stroke="#111827" stroke-width="1.2"/><line x1="1198.0" y1="52.0" x2="1198.0" y2="364.0" stroke="#111827" stroke-width="1.2"/><rect x="81.0" y="363.7" width="60.1" height="0.3" fill="#93c5fd" stroke="#60a5fa" stroke-width="0.5"/><rect x="143.1" y="362.9" width="60.1" height="1.1" fill="#93c5fd" stroke="#60a5fa" stroke-width="0.5"/><rect x="205.2" y="356.0" width="60.1" height="8.0" fill="#93c5fd" stroke="#60a5fa" stroke-width="0.5"/><rect x="267.3" y="363.7" width="60.1" height="0.3" fill="#93c5fd" stroke="#60a5fa" stroke-width="0.5"/><rect x="329.4" y="356.3" width="60.1" height="7.7" fill="#93c5fd" stroke="#60a5fa" stroke-width="0.5"/><rect x="391.6" y="363.7" width="60.1" height="0.3" fill="#93c5fd" stroke="#60a5fa" stroke-width="0.5"/><rect x="453.7" y="363.4" width="60.1" height="0.6" fill="#93c5fd" stroke="#60a5fa" stroke-width="0.5"/><rect x="515.8" y="363.7" width="60.1" height="0.3" fill="#93c5fd" stroke="#60a5fa" stroke-width="0.5"/><rect x="577.9" y="363.7" width="60.1" height="0.3" fill="#93c5fd" stroke="#60a5fa" stroke-width="0.5"/><rect x="640.0" y="363.7" width="60.1" height="0.3" fill="#93c5fd" stroke="#60a5fa" stroke-width="0.5"/><rect x="702.1" y="363.2" width="60.1" height="0.8" fill="#93c5fd" stroke="#60a5fa" stroke-width="0.5"/><rect x="764.2" y="363.4" width="60.1" height="0.6" fill="#93c5fd" stroke="#60a5fa" stroke-width="0.5"/><rect x="826.3" y="363.4" width="60.1" height="0.6" fill="#93c5fd" stroke="#60a5fa" stroke-width="0.5"/><rect x="888.4" y="363.2" width="60.1" height="0.8" fill="#93c5fd" stroke="#60a5fa" stroke-width="0.5"/><rect x="950.6" y="362.9" width="60.1" height="1.1" fill="#93c5fd" stroke="#60a5fa" stroke-width="0.5"/><rect x="1012.7" y="337.0" width="60.1" height="27.0" fill="#93c5fd" stroke="#60a5fa" stroke-width="0.5"/><rect x="1074.8" y="329.8" width="60.1" height="34.2" fill="#93c5fd" stroke="#60a5fa" stroke-width="0.5"/><rect x="1136.9" y="52.0" width="60.1" height="312.0" fill="#93c5fd" stroke="#60a5fa" stroke-width="0.5"/><polyline fill="none" stroke="#ef4444" stroke-width="2" points="111.1,363.8 173.2,362.9 235.3,356.6 297.4,356.4 359.5,350.3 421.6,350.1 483.7,349.7 545.8,349.4 607.9,349.2 670.1,349.0 732.2,348.4 794.3,347.9 856.4,347.5 918.5,346.8 980.6,346.0 1042.7,324.7 1104.8,297.7 1166.9,52.0"/><line x1="111.1" y1="364.0" x2="111.1" y2="370.0" stroke="#111827" stroke-width="1"/><text x="113.1" y="386.0" font-size="11" text-anchor="end" transform="rotate(-35 113.1 386.0)" font-family="sans-serif" fill="#374151">2026-04-16 23:00</text><line x1="235.3" y1="364.0" x2="235.3" y2="370.0" stroke="#111827" stroke-width="1"/><text x="237.3" y="386.0" font-size="11" text-anchor="end" transform="rotate(-35 237.3 386.0)" font-family="sans-serif" fill="#374151">2026-04-17 10:00</text><line x1="421.6" y1="364.0" x2="421.6" y2="370.0" stroke="#111827" stroke-width="1"/><text x="423.6" y="386.0" font-size="11" text-anchor="end" transform="rotate(-35 423.6 386.0)" font-family="sans-serif" fill="#374151">2026-04-18 12:00</text><line x1="545.8" y1="364.0" x2="545.8" y2="370.0" stroke="#111827" stroke-width="1"/><text x="547.8" y="386.0" font-size="11" text-anchor="end" transform="rotate(-35 547.8 386.0)" font-family="sans-serif" fill="#374151">2026-04-19 12:00</text><line x1="732.2" y1="364.0" x2="732.2" y2="370.0" stroke="#111827" stroke-width="1"/><text x="734.2" y="386.0" font-size="11" text-anchor="end" transform="rotate(-35 734.2 386.0)" font-family="sans-serif" fill="#374151">2026-04-19 18:00</text><line x1="856.4" y1="364.0" x2="856.4" y2="370.0" stroke="#111827" stroke-width="1"/><text x="858.4" y="386.0" font-size="11" text-anchor="end" transform="rotate(-35 858.4 386.0)" font-family="sans-serif" fill="#374151">2026-04-20 00:00</text><line x1="1042.7" y1="364.0" x2="1042.7" y2="370.0" stroke="#111827" stroke-width="1"/><text x="1044.7" y="386.0" font-size="11" text-anchor="end" transform="rotate(-35 1044.7 386.0)" font-family="sans-serif" fill="#374151">2026-04-20 12:00</text><line x1="1166.9" y1="364.0" x2="1166.9" y2="370.0" stroke="#111827" stroke-width="1"/><text x="1168.9" y="386.0" font-size="11" text-anchor="end" transform="rotate(-35 1168.9 386.0)" font-family="sans-serif" fill="#374151">2026-04-20 16:00</text><text x="26" y="208.0" font-size="12" transform="rotate(-90 26 208.0)" text-anchor="middle" font-family="sans-serif" fill="#1f2937">구간별 수</text><text x="1256.0" y="208.0" font-size="12" transform="rotate(90 1256.0 208.0)" text-anchor="middle" font-family="sans-serif" fill="#1f2937">누적</text><text x="639.0" y="442.0" font-size="13" text-anchor="middle" font-family="sans-serif" fill="#111827">시간</text></svg>