<svg xmlns="http://www.w3.org/2000/svg" width="1280" height="460" viewBox="0 0 1280 460"><rect x="0" y="0" width="100%" height="100%" fill="#ffffff"/><text x="640.0" y="28" font-size="20" text-anchor="middle" font-family="sans-serif" fill="#111827">시리즈 / 최근 반영 시점 / 시간별</text><line x1="80.0" y1="52.0" x2="1198.0" y2="52.0" stroke="#e5e7eb" stroke-width="1"/><text x="72.0" y="56.0" font-size="11" text-anchor="end" font-family="sans-serif" fill="#374151">1,299</text><text x="1206.0" y="56.0" font-size="11" text-anchor="start" font-family="sans-serif" fill="#374151">1,417</text><line x1="80.0" y1="114.4" x2="1198.0" y2="114.4" stroke="#e5e7eb" stroke-width="1"/><text x="72.0" y="118.4" font-size="11" text-anchor="end" font-family="sans-serif" fill="#374151">1,039</text><text x="1206.0" y="118.4" font-size="11" text-anchor="start" font-family="sans-serif" fill="#374151">1,134</text><line x1="80.0" y1="176.8" x2="1198.0" y2="176.8" stroke="#e5e7eb" stroke-width="1"/><text x="72.0" y="180.8" font-size="11" text-anchor="end" font-family="sans-serif" fill="#374151">779</text><text x="1206.0" y="180.8" font-size="11" text-anchor="start" font-family="sans-serif" fill="#374151">850</text><line x1="80.0" y1="239.2" x2="1198.0" y2="239.2" stroke="#e5e7eb" stroke-width="1"/><text x="72.0" y="243.2" font-size="11" text-anchor="end" font-family="sans-serif" fill="#374151">520</text><text x="1206.0" y="243.2" font-size="11" text-anchor="start" font-family="sans-serif" fill="#374151">567</text><line x1="80.0" y1="301.6" x2="1198.0" y2="301.6" stroke="#e5e7eb" stroke-width="1"/><text x="72.0" y="305.6" font-size="11" text-anchor="end" font-family="sans-serif" fill="#374151">260</text><text x="1206.0" y="305.6" font-size="11" text-anchor="start" font-family="sans-serif" fill="#374151">283</text><line x1="80.0" y1="364.0" x2="1198.0" y2="364.0" stroke="#e5e7eb" stroke-width="1"/><text x="72.0" y="368.0" font-size="11" text-anchor="end" font-family="sans-serif" fill="#374151">0</text><text x="1206.0" y="368.0" font-size="11" text-anchor="start" font-family="sans-serif" fill="#374151">0</text><line x1="80.0" y1="364.0" x2="1198.0" y2="364.0" stroke="#111827" stroke-width="1.2"/><line x1="80.0" y1="52.0" x2="80.0" y2="364.0" stroke="#111827" stroke-width="1.2"/><line x1="1198.0" y1="52.0" x2="1198.0" y2="364.0" stroke="#111827" stroke-width="1.2"/><rect x="81.0" y="363.8" width="91.2" height="0.2" fill="#93c5fd" stroke="#60a5fa" stroke-width="0.5"/><rect x="174.2" y="363.8" width="91.2" height="0.2" fill="#93c5fd" stroke="#60a5fa" stroke-width="0.5"/><rect x="267.3" y="362.8" width="91.2" height="1.2" fill="#93c5fd" stroke="#60a5fa" stroke-width="0.5"/><rect x="360.5" y="362.3" width="91.2" height="1.7" fill="#93c5fd" stroke="#60a5fa" stroke-width="0.5"/><rect x="453.7" y="363.8" width="91.2" height="0.2" fill="#93c5fd" stroke="#60a5fa" stroke-width="0.5"/><rect x="546.8" y="352.2" width="91.2" height="11.8" fill="#93c5fd" stroke="#60a5fa" stroke-width="0.5"/><rect x="640.0" y="361.6" width="91.2" height="2.4" fill="#93c5fd" stroke="#60a5fa" stroke-width="0.5"/><rect x="733.2" y="363.5" width="91.2" height="0.5" fill="#93c5fd" stroke="#60a5fa" stroke-width="0.5"/><rect x="826.3" y="363.8" width="91.2" height="0.2" fill="#93c5fd" stroke="#60a5fa" stroke-width="0.5"/><rect x="919.5" y="362.6" width="91.2" height="1.4" fill="#93c5fd" stroke="#60a5fa" stroke-width="0.5"/><rect x="1012.7" y="355.6" width="91.2" height="8.4" fill="#93c5fd" stroke="#60a5fa" stroke-width="0.5"/><rect x="1105.8" y="52.0" width="91.2" height="312.0" fill="#93c5fd" stroke="#60a5fa" stroke-width="0.5"/><polyline fill="none" stroke="#ef4444" stroke-width="2" points="126.6,363.8 219.8,363.6 312.9,362.5 406.1,360.9 499.2,360.7 592.4,349.9 685.6,347.7 778.8,347.3 871.9,347.0 965.1,345.7 1058.2,338.0 1151.4,52.0"/><line x1="126.6" y1="364.0" x2="126.6" y2="370.0" stroke="#111827" stroke-width="1"/><text x="128.6" y="386.0" font-size="11" text-anchor="end" transform="rotate(-35 128.6 386.0)" font-family="sans-serif" fill="#374151">2026-04-10 02:00</text><line x1="312.9" y1="364.0" x2="312.9" y2="370.0" stroke="#111827" stroke-width="1"/><text x="314.9" y="386.0" font-size="11" text-anchor="end" transform="rotate(-35 314.9 386.0)" font-family="sans-serif" fill="#374151">2026-04-10 15:00</text><line x1="406.1" y1="364.0" x2="406.1" y2="370.0" stroke="#111827" stroke-width="1"/><text x="408.1" y="386.0" font-size="11" text-anchor="end" transform="rotate(-35 408.1 386.0)" font-family="sans-serif" fill="#374151">2026-04-10 16:00</text><line x1="592.4" y1="364.0" x2="592.4" y2="370.0" stroke="#111827" stroke-width="1"/><text x="594.4" y="386.0" font-size="11" text-anchor="end" transform="rotate(-35 594.4 386.0)" font-family="sans-serif" fill="#374151">2026-04-10 18:00</text><line x1="685.6" y1="364.0" x2="685.6" y2="370.0" stroke="#111827" stroke-width="1"/><text x="687.6" y="386.0" font-size="11" text-anchor="end" transform="rotate(-35 687.6 386.0)" font-family="sans-serif" fill="#374151">2026-04-10 19:00</text><line x1="871.9" y1="364.0" x2="871.9" y2="370.0" stroke="#111827" stroke-width="1"/><text x="873.9" y="386.0" font-size="11" text-anchor="end" transform="rotate(-35 873.9 386.0)" font-family="sans-serif" fill="#374151">2026-04-10 22:00</text><line x1="965.1" y1="364.0" x2="965.1" y2="370.0" stroke="#111827" stroke-width="1"/><text x="967.1" y="386.0" font-size="11" text-anchor="end" transform="rotate(-35 967.1 386.0)" font-family="sans-serif" fill="#374151">2026-04-10 23:00</text><line x1="1151.4" y1="364.0" x2="1151.4" y2="370.0" stroke="#111827" stroke-width="1"/><text x="1153.4" y="386.0" font-size="11" text-anchor="end" transform="rotate(-35 1153.4 386.0)" font-family="sans-serif" fill="#374151">2026-04-11 03:00</text><text x="26" y="208.0" font-size="12" transform="rotate(-90 26 208.0)" text-anchor="middle" font-family="sans-serif" fill="#1f2937">구간별 수</text><text x="1256.0" y="208.0" font-size="12" transform="rotate(90 1256.0 208.0)" text-anchor="middle" font-family="sans-serif" fill="#1f2937">누적</text><text x="639.0" y="442.0" font-size="13" text-anchor="middle" font-family="sans-serif" fill="#111827">시간</text></svg>