<svg xmlns="http://www.w3.org/2000/svg" width="1280" height="460" viewBox="0 0 1280 460"><rect x="0" y="0" width="100%" height="100%" fill="#ffffff"/><text x="640.0" y="28" font-size="20" text-anchor="middle" font-family="sans-serif" fill="#111827">시리즈 / 생성 시점 / 일별</text><line x1="80.0" y1="52.0" x2="1198.0" y2="52.0" stroke="#e5e7eb" stroke-width="1"/><text x="72.0" y="56.0" font-size="11" text-anchor="end" font-family="sans-serif" fill="#374151">70</text><text x="1206.0" y="56.0" font-size="11" text-anchor="start" font-family="sans-serif" fill="#374151">1,411</text><line x1="80.0" y1="114.4" x2="1198.0" y2="114.4" stroke="#e5e7eb" stroke-width="1"/><text x="72.0" y="118.4" font-size="11" text-anchor="end" font-family="sans-serif" fill="#374151">56</text><text x="1206.0" y="118.4" font-size="11" text-anchor="start" font-family="sans-serif" fill="#374151">1,129</text><line x1="80.0" y1="176.8" x2="1198.0" y2="176.8" stroke="#e5e7eb" stroke-width="1"/><text x="72.0" y="180.8" font-size="11" text-anchor="end" font-family="sans-serif" fill="#374151">42</text><text x="1206.0" y="180.8" font-size="11" text-anchor="start" font-family="sans-serif" fill="#374151">847</text><line x1="80.0" y1="239.2" x2="1198.0" y2="239.2" stroke="#e5e7eb" stroke-width="1"/><text x="72.0" y="243.2" font-size="11" text-anchor="end" font-family="sans-serif" fill="#374151">28</text><text x="1206.0" y="243.2" font-size="11" text-anchor="start" font-family="sans-serif" fill="#374151">564</text><line x1="80.0" y1="301.6" x2="1198.0" y2="301.6" stroke="#e5e7eb" stroke-width="1"/><text x="72.0" y="305.6" font-size="11" text-anchor="end" font-family="sans-serif" fill="#374151">14</text><text x="1206.0" y="305.6" font-size="11" text-anchor="start" font-family="sans-serif" fill="#374151">282</text><line x1="80.0" y1="364.0" x2="1198.0" y2="364.0" stroke="#e5e7eb" stroke-width="1"/><text x="72.0" y="368.0" font-size="11" text-anchor="end" font-family="sans-serif" fill="#374151">0</text><text x="1206.0" y="368.0" font-size="11" text-anchor="start" font-family="sans-serif" fill="#374151">0</text><line x1="80.0" y1="364.0" x2="1198.0" y2="364.0" stroke="#111827" stroke-width="1.2"/><line x1="80.0" y1="52.0" x2="80.0" y2="364.0" stroke="#111827" stroke-width="1.2"/><line x1="1198.0" y1="52.0" x2="1198.0" y2="364.0" stroke="#111827" stroke-width="1.2"/><rect x="80.0" y="346.2" width="4.4" height="17.8" fill="#93c5fd" stroke="#60a5fa" stroke-width="0.5"/><rect x="84.4" y="359.5" width="4.4" height="4.5" fill="#93c5fd" stroke="#60a5fa" stroke-width="0.5"/><rect x="88.8" y="359.5" width="4.4" height="4.5" fill="#93c5fd" stroke="#60a5fa" stroke-width="0.5"/><rect x="93.3" y="355.1" width="4.4" height="8.9" fill="#93c5fd" stroke="#60a5fa" stroke-width="0.5"/><rect x="97.7" y="359.5" width="4.4" height="4.5" fill="#93c5fd" stroke="#60a5fa" stroke-width="0.5"/><rect x="102.1" y="350.6" width="4.4" height="13.4" fill="#93c5fd" stroke="#60a5fa" stroke-width="0.5"/><rect x="106.5" y="359.5" width="4.4" height="4.5" fill="#93c5fd" stroke="#60a5fa" stroke-width="0.5"/><rect x="110.9" y="359.5" width="4.4" height="4.5" fill="#93c5fd" stroke="#60a5fa" stroke-width="0.5"/><rect x="115.4" y="359.5" width="4.4" height="4.5" fill="#93c5fd" stroke="#60a5fa" stroke-width="0.5"/><rect x="119.8" y="359.5" width="4.4" height="4.5" fill="#93c5fd" stroke="#60a5fa" stroke-width="0.5"/><rect x="124.2" y="359.5" width="4.4" height="4.5" fill="#93c5fd" stroke="#60a5fa" stroke-width="0.5"/><rect x="128.6" y="359.5" width="4.4" height="4.5" fill="#93c5fd" stroke="#60a5fa" stroke-width="0.5"/><rect x="133.0" y="359.5" width="4.4" height="4.5" fill="#93c5fd" stroke="#60a5fa" stroke-width="0.5"/><rect x="137.4" y="355.1" width="4.4" height="8.9" fill="#93c5fd" stroke="#60a5fa" stroke-width="0.5"/><rect x="141.9" y="346.2" width="4.4" height="17.8" fill="#93c5fd" stroke="#60a5fa" stroke-width="0.5"/><rect x="146.3" y="359.5" width="4.4" height="4.5" fill="#93c5fd" stroke="#60a5fa" stroke-width="0.5"/><rect x="150.7" y="359.5" width="4.4" height="4.5" fill="#93c5fd" stroke="#60a5fa" stroke-width="0.5"/><rect x="155.1" y="350.6" width="4.4" height="13.4" fill="#93c5fd" stroke="#60a5fa" stroke-width="0.5"/><rect x="159.5" y="341.7" width="4.4" height="22.3" fill="#93c5fd" stroke="#60a5fa" stroke-width="0.5"/><rect x="164.0" y="306.1" width="4.4" height="57.9" fill="#93c5fd" stroke="#60a5fa" stroke-width="0.5"/><rect x="168.4" y="355.1" width="4.4" height="8.9" fill="#93c5fd" stroke="#60a5fa" stroke-width="0.5"/><rect x="172.8" y="350.6" width="4.4" height="13.4" fill="#93c5fd" stroke="#60a5fa" stroke-width="0.5"/><rect x="177.2" y="359.5" width="4.4" height="4.5" fill="#93c5fd" stroke="#60a5fa" stroke-width="0.5"/><rect x="181.6" y="350.6" width="4.4" height="13.4" fill="#93c5fd" stroke="#60a5fa" stroke-width="0.5"/><rect x="186.1" y="359.5" width="4.4" height="4.5" fill="#93c5fd" stroke="#60a5fa" stroke-width="0.5"/><rect x="190.5" y="341.7" width="4.4" height="22.3" fill="#93c5fd" stroke="#60a5fa" stroke-width="0.5"/><rect x="194.9" y="359.5" width="4.4" height="4.5" fill="#93c5fd" stroke="#60a5fa" stroke-width="0.5"/><rect x="199.3" y="359.5" width="4.4" height="4.5" fill="#93c5fd" stroke="#60a5fa" stroke-width="0.5"/><rect x="203.7" y="359.5" width="4.4" height="4.5" fill="#93c5fd" stroke="#60a5fa" stroke-width="0.5"/><rect x="208.2" y="359.5" width="4.4" height="4.5" fill="#93c5fd" stroke="#60a5fa" stroke-width="0.5"/><rect x="212.6" y="359.5" width="4.4" height="4.5" fill="#93c5fd" stroke="#60a5fa" stroke-width="0.5"/><rect x="217.0" y="359.5" width="4.4" height="4.5" fill="#93c5fd" stroke="#60a5fa" stroke-width="0.5"/><rect x="221.4" y="359.5" width="4.4" height="4.5" fill="#93c5fd" stroke="#60a5fa" stroke-width="0.5"/><rect x="225.8" y="359.5" width="4.4" height="4.5" fill="#93c5fd" stroke="#60a5fa" stroke-width="0.5"/><rect x="230.2" y="359.5" width="4.4" height="4.5" fill="#93c5fd" stroke="#60a5fa" stroke-width="0.5"/><rect x="234.7" y="359.5" width="4.4" height="4.5" fill="#93c5fd" stroke="#60a5fa" stroke-width="0.5"/><rect x="239.1" y="359.5" width="4.4" height="4.5" fill="#93c5fd" stroke="#60a5fa" stroke-width="0.5"/><rect x="243.5" y="359.5" width="4.4" height="4.5" fill="#93c5fd" stroke="#60a5fa" stroke-width="0.5"/><rect x="247.9" y="359.5" width="4.4" height="4.5" fill="#93c5fd" stroke="#60a5fa" stroke-width="0.5"/><rect x="252.3" y="359.5" width="4.4" height="4.5" fill="#93c5fd" stroke="#60a5fa" stroke-width="0.5"/><rect x="256.8" y="350.6" width="4.4" height="13.4" fill="#93c5fd" stroke="#60a5fa" stroke-width="0.5"/><rect x="261.2" y="359.5" width="4.4" height="4.5" fill="#93c5fd" stroke="#60a5fa" stroke-width="0.5"/><rect x="265.6" y="359.5" width="4.4" height="4.5" fill="#93c5fd" stroke="#60a5fa" stroke-width="0.5"/><rect x="270.0" y="315.0" width="4.4" height="49.0" fill="#93c5fd" stroke="#60a5fa" stroke-width="0.5"/><rect x="274.4" y="359.5" width="4.4" height="4.5" fill="#93c5fd" stroke="#60a5fa" stroke-width="0.5"/><rect x="278.9" y="337.3" width="4.4" height="26.7" fill="#93c5fd" stroke="#60a5fa" stroke-width="0.5"/><rect x="283.3" y="328.3" width="4.4" height="35.7" fill="#93c5fd" stroke="#60a5fa" stroke-width="0.5"/><rect x="287.7" y="359.5" width="4.4" height="4.5" fill="#93c5fd" stroke="#60a5fa" stroke-width="0.5"/><rect x="292.1" y="355.1" width="4.4" height="8.9" fill="#93c5fd" stroke="#60a5fa" stroke-width="0.5"/><rect x="296.5" y="350.6" width="4.4" height="13.4" fill="#93c5fd" stroke="#60a5fa" stroke-width="0.5"/><rect x="300.9" y="355.1" width="4.4" height="8.9" fill="#93c5fd" stroke="#60a5fa" stroke-width="0.5"/><rect x="305.4" y="355.1" width="4.4" height="8.9" fill="#93c5fd" stroke="#60a5fa" stroke-width="0.5"/><rect x="309.8" y="350.6" width="4.4" height="13.4" fill="#93c5fd" stroke="#60a5fa" stroke-width="0.5"/><rect x="314.2" y="359.5" width="4.4" height="4.5" fill="#93c5fd" stroke="#60a5fa" stroke-width="0.5"/><rect x="318.6" y="359.5" width="4.4" height="4.5" fill="#93c5fd" stroke="#60a5fa" stroke-width="0.5"/><rect x="323.0" y="359.5" width="4.4" height="4.5" fill="#93c5fd" stroke="#60a5fa" stroke-width="0.5"/><rect x="327.5" y="359.5" width="4.4" height="4.5" fill="#93c5fd" stroke="#60a5fa" stroke-width="0.5"/><rect x="331.9" y="350.6" width="4.4" height="13.4" fill="#93c5fd" stroke="#60a5fa" stroke-width="0.5"/><rect x="336.3" y="359.5" width="4.4" height="4.5" fill="#93c5fd" stroke="#60a5fa" stroke-width="0.5"/><rect x="340.7" y="328.3" width="4.4" height="35.7" fill="#93c5fd" stroke="#60a5fa" stroke-width="0.5"/><rect x="345.1" y="359.5" width="4.4" height="4.5" fill="#93c5fd" stroke="#60a5fa" stroke-width="0.5"/><rect x="349.6" y="359.5" width="4.4" height="4.5" fill="#93c5fd" stroke="#60a5fa" stroke-width="0.5"/><rect x="354.0" y="359.5" width="4.4" height="4.5" fill="#93c5fd" stroke="#60a5fa" stroke-width="0.5"/><rect x="358.4" y="350.6" width="4.4" height="13.4" fill="#93c5fd" stroke="#60a5fa" stroke-width="0.5"/><rect x="362.8" y="359.5" width="4.4" height="4.5" fill="#93c5fd" stroke="#60a5fa" stroke-width="0.5"/><rect x="367.2" y="359.5" width="4.4" height="4.5" fill="#93c5fd" stroke="#60a5fa" stroke-width="0.5"/><rect x="371.7" y="355.1" width="4.4" height="8.9" fill="#93c5fd" stroke="#60a5fa" stroke-width="0.5"/><rect x="376.1" y="350.6" width="4.4" height="13.4" fill="#93c5fd" stroke="#60a5fa" stroke-width="0.5"/><rect x="380.5" y="359.5" width="4.4" height="4.5" fill="#93c5fd" stroke="#60a5fa" stroke-width="0.5"/><rect x="384.9" y="350.6" width="4.4" height="13.4" fill="#93c5fd" stroke="#60a5fa" stroke-width="0.5"/><rect x="389.3" y="355.1" width="4.4" height="8.9" fill="#93c5fd" stroke="#60a5fa" stroke-width="0.5"/><rect x="393.7" y="350.6" width="4.4" height="13.4" fill="#93c5fd" stroke="#60a5fa" stroke-width="0.5"/><rect x="398.2" y="359.5" width="4.4" height="4.5" fill="#93c5fd" stroke="#60a5fa" stroke-width="0.5"/><rect x="402.6" y="319.4" width="4.4" height="44.6" fill="#93c5fd" stroke="#60a5fa" stroke-width="0.5"/><rect x="407.0" y="346.2" width="4.4" height="17.8" fill="#93c5fd" stroke="#60a5fa" stroke-width="0.5"/><rect x="411.4" y="346.2" width="4.4" height="17.8" fill="#93c5fd" stroke="#60a5fa" stroke-width="0.5"/><rect x="415.8" y="359.5" width="4.4" height="4.5" fill="#93c5fd" stroke="#60a5fa" stroke-width="0.5"/><rect x="420.3" y="359.5" width="4.4" height="4.5" fill="#93c5fd" stroke="#60a5fa" stroke-width="0.5"/><rect x="424.7" y="359.5" width="4.4" height="4.5" fill="#93c5fd" stroke="#60a5fa" stroke-width="0.5"/><rect x="429.1" y="355.1" width="4.4" height="8.9" fill="#93c5fd" stroke="#60a5fa" stroke-width="0.5"/><rect x="433.5" y="355.1" width="4.4" height="8.9" fill="#93c5fd" stroke="#60a5fa" stroke-width="0.5"/><rect x="437.9" y="350.6" width="4.4" height="13.4" fill="#93c5fd" stroke="#60a5fa" stroke-width="0.5"/><rect x="442.4" y="355.1" width="4.4" height="8.9" fill="#93c5fd" stroke="#60a5fa" stroke-width="0.5"/><rect x="446.8" y="350.6" width="4.4" height="13.4" fill="#93c5fd" stroke="#60a5fa" stroke-width="0.5"/><rect x="451.2" y="359.5" width="4.4" height="4.5" fill="#93c5fd" stroke="#60a5fa" stroke-width="0.5"/><rect x="455.6" y="355.1" width="4.4" height="8.9" fill="#93c5fd" stroke="#60a5fa" stroke-width="0.5"/><rect x="460.0" y="359.5" width="4.4" height="4.5" fill="#93c5fd" stroke="#60a5fa" stroke-width="0.5"/><rect x="464.5" y="337.3" width="4.4" height="26.7" fill="#93c5fd" stroke="#60a5fa" stroke-width="0.5"/><rect x="468.9" y="359.5" width="4.4" height="4.5" fill="#93c5fd" stroke="#60a5fa" stroke-width="0.5"/><rect x="473.3" y="359.5" width="4.4" height="4.5" fill="#93c5fd" stroke="#60a5fa" stroke-width="0.5"/><rect x="477.7" y="359.5" width="4.4" height="4.5" fill="#93c5fd" stroke="#60a5fa" stroke-width="0.5"/><rect x="482.1" y="359.5" width="4.4" height="4.5" fill="#93c5fd" stroke="#60a5fa" stroke-width="0.5"/><rect x="486.5" y="359.5" width="4.4" height="4.5" fill="#93c5fd" stroke="#60a5fa" stroke-width="0.5"/><rect x="491.0" y="337.3" width="4.4" height="26.7" fill="#93c5fd" stroke="#60a5fa" stroke-width="0.5"/><rect x="495.4" y="359.5" width="4.4" height="4.5" fill="#93c5fd" stroke="#60a5fa" stroke-width="0.5"/><rect x="499.8" y="346.2" width="4.4" height="17.8" fill="#93c5fd" stroke="#60a5fa" stroke-width="0.5"/><rect x="504.2" y="319.4" width="4.4" height="44.6" fill="#93c5fd" stroke="#60a5fa" stroke-width="0.5"/><rect x="508.6" y="328.3" width="4.4" height="35.7" fill="#93c5fd" stroke="#60a5fa" stroke-width="0.5"/><rect x="513.1" y="355.1" width="4.4" height="8.9" fill="#93c5fd" stroke="#60a5fa" stroke-width="0.5"/><rect x="517.5" y="355.1" width="4.4" height="8.9" fill="#93c5fd" stroke="#60a5fa" stroke-width="0.5"/><rect x="521.9" y="355.1" width="4.4" height="8.9" fill="#93c5fd" stroke="#60a5fa" stroke-width="0.5"/><rect x="526.3" y="355.1" width="4.4" height="8.9" fill="#93c5fd" stroke="#60a5fa" stroke-width="0.5"/><rect x="530.7" y="350.6" width="4.4" height="13.4" fill="#93c5fd" stroke="#60a5fa" stroke-width="0.5"/><rect x="535.2" y="341.7" width="4.4" height="22.3" fill="#93c5fd" stroke="#60a5fa" stroke-width="0.5"/><rect x="539.6" y="359.5" width="4.4" height="4.5" fill="#93c5fd" stroke="#60a5fa" stroke-width="0.5"/><rect x="544.0" y="323.9" width="4.4" height="40.1" fill="#93c5fd" stroke="#60a5fa" stroke-width="0.5"/><rect x="548.4" y="355.1" width="4.4" height="8.9" fill="#93c5fd" stroke="#60a5fa" stroke-width="0.5"/><rect x="552.8" y="346.2" width="4.4" height="17.8" fill="#93c5fd" stroke="#60a5fa" stroke-width="0.5"/><rect x="557.2" y="355.1" width="4.4" height="8.9" fill="#93c5fd" stroke="#60a5fa" stroke-width="0.5"/><rect x="561.7" y="359.5" width="4.4" height="4.5" fill="#93c5fd" stroke="#60a5fa" stroke-width="0.5"/><rect x="566.1" y="359.5" width="4.4" height="4.5" fill="#93c5fd" stroke="#60a5fa" stroke-width="0.5"/><rect x="570.5" y="355.1" width="4.4" height="8.9" fill="#93c5fd" stroke="#60a5fa" stroke-width="0.5"/><rect x="574.9" y="350.6" width="4.4" height="13.4" fill="#93c5fd" stroke="#60a5fa" stroke-width="0.5"/><rect x="579.3" y="355.1" width="4.4" height="8.9" fill="#93c5fd" stroke="#60a5fa" stroke-width="0.5"/><rect x="583.8" y="315.0" width="4.4" height="49.0" fill="#93c5fd" stroke="#60a5fa" stroke-width="0.5"/><rect x="588.2" y="319.4" width="4.4" height="44.6" fill="#93c5fd" stroke="#60a5fa" stroke-width="0.5"/><rect x="592.6" y="346.2" width="4.4" height="17.8" fill="#93c5fd" stroke="#60a5fa" stroke-width="0.5"/><rect x="597.0" y="359.5" width="4.4" height="4.5" fill="#93c5fd" stroke="#60a5fa" stroke-width="0.5"/><rect x="601.4" y="328.3" width="4.4" height="35.7" fill="#93c5fd" stroke="#60a5fa" stroke-width="0.5"/><rect x="605.9" y="328.3" width="4.4" height="35.7" fill="#93c5fd" stroke="#60a5fa" stroke-width="0.5"/><rect x="610.3" y="257.0" width="4.4" height="107.0" fill="#93c5fd" stroke="#60a5fa" stroke-width="0.5"/><rect x="614.7" y="355.1" width="4.4" height="8.9" fill="#93c5fd" stroke="#60a5fa" stroke-width="0.5"/><rect x="619.1" y="341.7" width="4.4" height="22.3" fill="#93c5fd" stroke="#60a5fa" stroke-width="0.5"/><rect x="623.5" y="350.6" width="4.4" height="13.4" fill="#93c5fd" stroke="#60a5fa" stroke-width="0.5"/><rect x="628.0" y="306.1" width="4.4" height="57.9" fill="#93c5fd" stroke="#60a5fa" stroke-width="0.5"/><rect x="632.4" y="337.3" width="4.4" height="26.7" fill="#93c5fd" stroke="#60a5fa" stroke-width="0.5"/><rect x="636.8" y="301.6" width="4.4" height="62.4" fill="#93c5fd" stroke="#60a5fa" stroke-width="0.5"/><rect x="641.2" y="319.4" width="4.4" height="44.6" fill="#93c5fd" stroke="#60a5fa" stroke-width="0.5"/><rect x="645.6" y="355.1" width="4.4" height="8.9" fill="#93c5fd" stroke="#60a5fa" stroke-width="0.5"/><rect x="650.0" y="359.5" width="4.4" height="4.5" fill="#93c5fd" stroke="#60a5fa" stroke-width="0.5"/><rect x="654.5" y="341.7" width="4.4" height="22.3" fill="#93c5fd" stroke="#60a5fa" stroke-width="0.5"/><rect x="658.9" y="306.1" width="4.4" height="57.9" fill="#93c5fd" stroke="#60a5fa" stroke-width="0.5"/><rect x="663.3" y="346.2" width="4.4" height="17.8" fill="#93c5fd" stroke="#60a5fa" stroke-width="0.5"/><rect x="667.7" y="257.0" width="4.4" height="107.0" fill="#93c5fd" stroke="#60a5fa" stroke-width="0.5"/><rect x="672.1" y="341.7" width="4.4" height="22.3" fill="#93c5fd" stroke="#60a5fa" stroke-width="0.5"/><rect x="676.6" y="52.0" width="4.4" height="312.0" fill="#93c5fd" stroke="#60a5fa" stroke-width="0.5"/><rect x="681.0" y="288.2" width="4.4" height="75.8" fill="#93c5fd" stroke="#60a5fa" stroke-width="0.5"/><rect x="685.4" y="350.6" width="4.4" height="13.4" fill="#93c5fd" stroke="#60a5fa" stroke-width="0.5"/><rect x="689.8" y="355.1" width="4.4" height="8.9" fill="#93c5fd" stroke="#60a5fa" stroke-width="0.5"/><rect x="694.2" y="181.3" width="4.4" height="182.7" fill="#93c5fd" stroke="#60a5fa" stroke-width="0.5"/><rect x="698.7" y="337.3" width="4.4" height="26.7" fill="#93c5fd" stroke="#60a5fa" stroke-width="0.5"/><rect x="703.1" y="350.6" width="4.4" height="13.4" fill="#93c5fd" stroke="#60a5fa" stroke-width="0.5"/><rect x="707.5" y="355.1" width="4.4" height="8.9" fill="#93c5fd" stroke="#60a5fa" stroke-width="0.5"/><rect x="711.9" y="346.2" width="4.4" height="17.8" fill="#93c5fd" stroke="#60a5fa" stroke-width="0.5"/><rect x="716.3" y="328.3" width="4.4" height="35.7" fill="#93c5fd" stroke="#60a5fa" stroke-width="0.5"/><rect x="720.8" y="359.5" width="4.4" height="4.5" fill="#93c5fd" stroke="#60a5fa" stroke-width="0.5"/><rect x="725.2" y="359.5" width="4.4" height="4.5" fill="#93c5fd" stroke="#60a5fa" stroke-width="0.5"/><rect x="729.6" y="346.2" width="4.4" height="17.8" fill="#93c5fd" stroke="#60a5fa" stroke-width="0.5"/><rect x="734.0" y="341.7" width="4.4" height="22.3" fill="#93c5fd" stroke="#60a5fa" stroke-width="0.5"/><rect x="738.4" y="337.3" width="4.4" height="26.7" fill="#93c5fd" stroke="#60a5fa" stroke-width="0.5"/><rect x="742.8" y="337.3" width="4.4" height="26.7" fill="#93c5fd" stroke="#60a5fa" stroke-width="0.5"/><rect x="747.3" y="359.5" width="4.4" height="4.5" fill="#93c5fd" stroke="#60a5fa" stroke-width="0.5"/><rect x="751.7" y="341.7" width="4.4" height="22.3" fill="#93c5fd" stroke="#60a5fa" stroke-width="0.5"/><rect x="756.1" y="332.8" width="4.4" height="31.2" fill="#93c5fd" stroke="#60a5fa" stroke-width="0.5"/><rect x="760.5" y="332.8" width="4.4" height="31.2" fill="#93c5fd" stroke="#60a5fa" stroke-width="0.5"/><rect x="764.9" y="328.3" width="4.4" height="35.7" fill="#93c5fd" stroke="#60a5fa" stroke-width="0.5"/><rect x="769.4" y="323.9" width="4.4" height="40.1" fill="#93c5fd" stroke="#60a5fa" stroke-width="0.5"/><rect x="773.8" y="332.8" width="4.4" height="31.2" fill="#93c5fd" stroke="#60a5fa" stroke-width="0.5"/><rect x="778.2" y="346.2" width="4.4" height="17.8" fill="#93c5fd" stroke="#60a5fa" stroke-width="0.5"/><rect x="782.6" y="350.6" width="4.4" height="13.4" fill="#93c5fd" stroke="#60a5fa" stroke-width="0.5"/><rect x="787.0" y="350.6" width="4.4" height="13.4" fill="#93c5fd" stroke="#60a5fa" stroke-width="0.5"/><rect x="791.5" y="332.8" width="4.4" height="31.2" fill="#93c5fd" stroke="#60a5fa" stroke-width="0.5"/><rect x="795.9" y="359.5" width="4.4" height="4.5" fill="#93c5fd" stroke="#60a5fa" stroke-width="0.5"/><rect x="800.3" y="350.6" width="4.4" height="13.4" fill="#93c5fd" stroke="#60a5fa" stroke-width="0.5"/><rect x="804.7" y="355.1" width="4.4" height="8.9" fill="#93c5fd" stroke="#60a5fa" stroke-width="0.5"/><rect x="809.1" y="355.1" width="4.4" height="8.9" fill="#93c5fd" stroke="#60a5fa" stroke-width="0.5"/><rect x="813.5" y="355.1" width="4.4" height="8.9" fill="#93c5fd" stroke="#60a5fa" stroke-width="0.5"/><rect x="818.0" y="355.1" width="4.4" height="8.9" fill="#93c5fd" stroke="#60a5fa" stroke-width="0.5"/><rect x="822.4" y="359.5" width="4.4" height="4.5" fill="#93c5fd" stroke="#60a5fa" stroke-width="0.5"/><rect x="826.8" y="359.5" width="4.4" height="4.5" fill="#93c5fd" stroke="#60a5fa" stroke-width="0.5"/><rect x="831.2" y="337.3" width="4.4" height="26.7" fill="#93c5fd" stroke="#60a5fa" stroke-width="0.5"/><rect x="835.6" y="355.1" width="4.4" height="8.9" fill="#93c5fd" stroke="#60a5fa" stroke-width="0.5"/><rect x="840.1" y="328.3" width="4.4" height="35.7" fill="#93c5fd" stroke="#60a5fa" stroke-width="0.5"/><rect x="844.5" y="350.6" width="4.4" height="13.4" fill="#93c5fd" stroke="#60a5fa" stroke-width="0.5"/><rect x="848.9" y="328.3" width="4.4" height="35.7" fill="#93c5fd" stroke="#60a5fa" stroke-width="0.5"/><rect x="853.3" y="332.8" width="4.4" height="31.2" fill="#93c5fd" stroke="#60a5fa" stroke-width="0.5"/><rect x="857.7" y="328.3" width="4.4" height="35.7" fill="#93c5fd" stroke="#60a5fa" stroke-width="0.5"/><rect x="862.2" y="341.7" width="4.4" height="22.3" fill="#93c5fd" stroke="#60a5fa" stroke-width="0.5"/><rect x="866.6" y="355.1" width="4.4" height="8.9" fill="#93c5fd" stroke="#60a5fa" stroke-width="0.5"/><rect x="871.0" y="355.1" width="4.4" height="8.9" fill="#93c5fd" stroke="#60a5fa" stroke-width="0.5"/><rect x="875.4" y="319.4" width="4.4" height="44.6" fill="#93c5fd" stroke="#60a5fa" stroke-width="0.5"/><rect x="879.8" y="315.0" width="4.4" height="49.0" fill="#93c5fd" stroke="#60a5fa" stroke-width="0.5"/><rect x="884.3" y="328.3" width="4.4" height="35.7" fill="#93c5fd" stroke="#60a5fa" stroke-width="0.5"/><rect x="888.7" y="323.9" width="4.4" height="40.1" fill="#93c5fd" stroke="#60a5fa" stroke-width="0.5"/><rect x="893.1" y="341.7" width="4.4" height="22.3" fill="#93c5fd" stroke="#60a5fa" stroke-width="0.5"/><rect x="897.5" y="359.5" width="4.4" height="4.5" fill="#93c5fd" stroke="#60a5fa" stroke-width="0.5"/><rect x="901.9" y="350.6" width="4.4" height="13.4" fill="#93c5fd" stroke="#60a5fa" stroke-width="0.5"/><rect x="906.3" y="359.5" width="4.4" height="4.5" fill="#93c5fd" stroke="#60a5fa" stroke-width="0.5"/><rect x="910.8" y="346.2" width="4.4" height="17.8" fill="#93c5fd" stroke="#60a5fa" stroke-width="0.5"/><rect x="915.2" y="346.2" width="4.4" height="17.8" fill="#93c5fd" stroke="#60a5fa" stroke-width="0.5"/><rect x="919.6" y="341.7" width="4.4" height="22.3" fill="#93c5fd" stroke="#60a5fa" stroke-width="0.5"/><rect x="924.0" y="359.5" width="4.4" height="4.5" fill="#93c5fd" stroke="#60a5fa" stroke-width="0.5"/><rect x="928.4" y="359.5" width="4.4" height="4.5" fill="#93c5fd" stroke="#60a5fa" stroke-width="0.5"/><rect x="932.9" y="315.0" width="4.4" height="49.0" fill="#93c5fd" stroke="#60a5fa" stroke-width="0.5"/><rect x="937.3" y="230.3" width="4.4" height="133.7" fill="#93c5fd" stroke="#60a5fa" stroke-width="0.5"/><rect x="941.7" y="297.1" width="4.4" height="66.9" fill="#93c5fd" stroke="#60a5fa" stroke-width="0.5"/><rect x="946.1" y="359.5" width="4.4" height="4.5" fill="#93c5fd" stroke="#60a5fa" stroke-width="0.5"/><rect x="950.5" y="319.4" width="4.4" height="44.6" fill="#93c5fd" stroke="#60a5fa" stroke-width="0.5"/><rect x="955.0" y="355.1" width="4.4" height="8.9" fill="#93c5fd" stroke="#60a5fa" stroke-width="0.5"/><rect x="959.4" y="341.7" width="4.4" height="22.3" fill="#93c5fd" stroke="#60a5fa" stroke-width="0.5"/><rect x="963.8" y="315.0" width="4.4" height="49.0" fill="#93c5fd" stroke="#60a5fa" stroke-width="0.5"/><rect x="968.2" y="350.6" width="4.4" height="13.4" fill="#93c5fd" stroke="#60a5fa" stroke-width="0.5"/><rect x="972.6" y="279.3" width="4.4" height="84.7" fill="#93c5fd" stroke="#60a5fa" stroke-width="0.5"/><rect x="977.1" y="132.2" width="4.4" height="231.8" fill="#93c5fd" stroke="#60a5fa" stroke-width="0.5"/><rect x="981.5" y="359.5" width="4.4" height="4.5" fill="#93c5fd" stroke="#60a5fa" stroke-width="0.5"/><rect x="985.9" y="212.5" width="4.4" height="151.5" fill="#93c5fd" stroke="#60a5fa" stroke-width="0.5"/><rect x="990.3" y="355.1" width="4.4" height="8.9" fill="#93c5fd" stroke="#60a5fa" stroke-width="0.5"/><rect x="994.7" y="252.6" width="4.4" height="111.4" fill="#93c5fd" stroke="#60a5fa" stroke-width="0.5"/><rect x="999.1" y="359.5" width="4.4" height="4.5" fill="#93c5fd" stroke="#60a5fa" stroke-width="0.5"/><rect x="1003.6" y="337.3" width="4.4" height="26.7" fill="#93c5fd" stroke="#60a5fa" stroke-width="0.5"/><rect x="1008.0" y="355.1" width="4.4" height="8.9" fill="#93c5fd" stroke="#60a5fa" stroke-width="0.5"/><rect x="1012.4" y="306.1" width="4.4" height="57.9" fill="#93c5fd" stroke="#60a5fa" stroke-width="0.5"/><rect x="1016.8" y="332.8" width="4.4" height="31.2" fill="#93c5fd" stroke="#60a5fa" stroke-width="0.5"/><rect x="1021.2" y="355.1" width="4.4" height="8.9" fill="#93c5fd" stroke="#60a5fa" stroke-width="0.5"/><rect x="1025.7" y="252.6" width="4.4" height="111.4" fill="#93c5fd" stroke="#60a5fa" stroke-width="0.5"/><rect x="1030.1" y="346.2" width="4.4" height="17.8" fill="#93c5fd" stroke="#60a5fa" stroke-width="0.5"/><rect x="1034.5" y="328.3" width="4.4" height="35.7" fill="#93c5fd" stroke="#60a5fa" stroke-width="0.5"/><rect x="1038.9" y="350.6" width="4.4" height="13.4" fill="#93c5fd" stroke="#60a5fa" stroke-width="0.5"/><rect x="1043.3" y="319.4" width="4.4" height="44.6" fill="#93c5fd" stroke="#60a5fa" stroke-width="0.5"/><rect x="1047.8" y="359.5" width="4.4" height="4.5" fill="#93c5fd" stroke="#60a5fa" stroke-width="0.5"/><rect x="1052.2" y="292.7" width="4.4" height="71.3" fill="#93c5fd" stroke="#60a5fa" stroke-width="0.5"/><rect x="1056.6" y="323.9" width="4.4" height="40.1" fill="#93c5fd" stroke="#60a5fa" stroke-width="0.5"/><rect x="1061.0" y="350.6" width="4.4" height="13.4" fill="#93c5fd" stroke="#60a5fa" stroke-width="0.5"/><rect x="1065.4" y="301.6" width="4.4" height="62.4" fill="#93c5fd" stroke="#60a5fa" stroke-width="0.5"/><rect x="1069.8" y="355.1" width="4.4" height="8.9" fill="#93c5fd" stroke="#60a5fa" stroke-width="0.5"/><rect x="1074.3" y="359.5" width="4.4" height="4.5" fill="#93c5fd" stroke="#60a5fa" stroke-width="0.5"/><rect x="1078.7" y="355.1" width="4.4" height="8.9" fill="#93c5fd" stroke="#60a5fa" stroke-width="0.5"/><rect x="1083.1" y="350.6" width="4.4" height="13.4" fill="#93c5fd" stroke="#60a5fa" stroke-width="0.5"/><rect x="1087.5" y="310.5" width="4.4" height="53.5" fill="#93c5fd" stroke="#60a5fa" stroke-width="0.5"/><rect x="1091.9" y="341.7" width="4.4" height="22.3" fill="#93c5fd" stroke="#60a5fa" stroke-width="0.5"/><rect x="1096.4" y="355.1" width="4.4" height="8.9" fill="#93c5fd" stroke="#60a5fa" stroke-width="0.5"/><rect x="1100.8" y="359.5" width="4.4" height="4.5" fill="#93c5fd" stroke="#60a5fa" stroke-width="0.5"/><rect x="1105.2" y="350.6" width="4.4" height="13.4" fill="#93c5fd" stroke="#60a5fa" stroke-width="0.5"/><rect x="1109.6" y="355.1" width="4.4" height="8.9" fill="#93c5fd" stroke="#60a5fa" stroke-width="0.5"/><rect x="1114.0" y="265.9" width="4.4" height="98.1" fill="#93c5fd" stroke="#60a5fa" stroke-width="0.5"/><rect x="1118.5" y="323.9" width="4.4" height="40.1" fill="#93c5fd" stroke="#60a5fa" stroke-width="0.5"/><rect x="1122.9" y="332.8" width="4.4" height="31.2" fill="#93c5fd" stroke="#60a5fa" stroke-width="0.5"/><rect x="1127.3" y="359.5" width="4.4" height="4.5" fill="#93c5fd" stroke="#60a5fa" stroke-width="0.5"/><rect x="1131.7" y="328.3" width="4.4" height="35.7" fill="#93c5fd" stroke="#60a5fa" stroke-width="0.5"/><rect x="1136.1" y="350.6" width="4.4" height="13.4" fill="#93c5fd" stroke="#60a5fa" stroke-width="0.5"/><rect x="1140.6" y="301.6" width="4.4" height="62.4" fill="#93c5fd" stroke="#60a5fa" stroke-width="0.5"/><rect x="1145.0" y="212.5" width="4.4" height="151.5" fill="#93c5fd" stroke="#60a5fa" stroke-width="0.5"/><rect x="1149.4" y="346.2" width="4.4" height="17.8" fill="#93c5fd" stroke="#60a5fa" stroke-width="0.5"/><rect x="1153.8" y="279.3" width="4.4" height="84.7" fill="#93c5fd" stroke="#60a5fa" stroke-width="0.5"/><rect x="1158.2" y="359.5" width="4.4" height="4.5" fill="#93c5fd" stroke="#60a5fa" stroke-width="0.5"/><rect x="1162.6" y="190.2" width="4.4" height="173.8" fill="#93c5fd" stroke="#60a5fa" stroke-width="0.5"/><rect x="1167.1" y="310.5" width="4.4" height="53.5" fill="#93c5fd" stroke="#60a5fa" stroke-width="0.5"/><rect x="1171.5" y="306.1" width="4.4" height="57.9" fill="#93c5fd" stroke="#60a5fa" stroke-width="0.5"/><rect x="1175.9" y="355.1" width="4.4" height="8.9" fill="#93c5fd" stroke="#60a5fa" stroke-width="0.5"/><rect x="1180.3" y="323.9" width="4.4" height="40.1" fill="#93c5fd" stroke="#60a5fa" stroke-width="0.5"/><rect x="1184.7" y="346.2" width="4.4" height="17.8" fill="#93c5fd" stroke="#60a5fa" stroke-width="0.5"/><rect x="1189.2" y="328.3" width="4.4" height="35.7" fill="#93c5fd" stroke="#60a5fa" stroke-width="0.5"/><rect x="1193.6" y="350.6" width="4.4" height="13.4" fill="#93c5fd" stroke="#60a5fa" stroke-width="0.5"/><polyline fill="none" stroke="#ef4444" stroke-width="2" points="82.2,363.1 86.6,362.9 91.0,362.7 95.5,362.2 99.9,362.0 104.3,361.3 108.7,361.1 113.1,360.9 117.6,360.7 122.0,360.5 126.4,360.2 130.8,360.0 135.2,359.8 139.7,359.4 144.1,358.5 148.5,358.3 152.9,358.0 157.3,357.4 161.8,356.3 166.2,353.4 170.6,352.9 175.0,352.3 179.4,352.1 183.8,351.4 188.3,351.2 192.7,350.1 197.1,349.8 201.5,349.6 205.9,349.4 210.4,349.2 214.8,349.0 219.2,348.7 223.6,348.5 228.0,348.3 232.5,348.1 236.9,347.9 241.3,347.6 245.7,347.4 250.1,347.2 254.5,347.0 259.0,346.3 263.4,346.1 267.8,345.9 272.2,343.4 276.6,343.2 281.1,341.9 285.5,340.1 289.9,339.9 294.3,339.5 298.7,338.8 303.2,338.4 307.6,337.9 312.0,337.2 316.4,337.0 320.8,336.8 325.3,336.6 329.7,336.4 334.1,335.7 338.5,335.5 342.9,333.7 347.3,333.5 351.8,333.3 356.2,333.0 360.6,332.4 365.0,332.2 369.4,331.9 373.9,331.5 378.3,330.8 382.7,330.6 387.1,329.9 391.5,329.5 396.0,328.8 400.4,328.6 404.8,326.4 409.2,325.5 413.6,324.6 418.1,324.4 422.5,324.2 426.9,324.0 431.3,323.5 435.7,323.1 440.1,322.4 444.6,322.0 449.0,321.3 453.4,321.1 457.8,320.7 462.2,320.4 466.7,319.1 471.1,318.9 475.5,318.7 479.9,318.4 484.3,318.2 488.8,318.0 493.2,316.7 497.6,316.5 502.0,315.6 506.4,313.4 510.8,311.6 515.3,311.2 519.7,310.7 524.1,310.3 528.5,309.8 532.9,309.2 537.4,308.1 541.8,307.8 546.2,305.8 550.6,305.4 555.0,304.5 559.5,304.1 563.9,303.9 568.3,303.6 572.7,303.2 577.1,302.5 581.6,302.1 586.0,299.7 590.4,297.4 594.8,296.6 599.2,296.3 603.6,294.6 608.1,292.8 612.5,287.5 616.9,287.1 621.3,285.9 625.7,285.3 630.2,282.4 634.6,281.1 639.0,278.0 643.4,275.8 647.8,275.3 652.3,275.1 656.7,274.0 661.1,271.1 665.5,270.2 669.9,264.9 674.4,263.8 678.8,248.4 683.2,244.6 687.6,243.9 692.0,243.5 696.4,234.4 700.9,233.1 705.3,232.4 709.7,232.0 714.1,231.1 718.5,229.3 723.0,229.1 727.4,228.9 731.8,228.0 736.2,226.9 740.6,225.6 745.1,224.3 749.5,224.0 753.9,222.9 758.3,221.4 762.7,219.8 767.2,218.1 771.6,216.1 776.0,214.5 780.4,213.6 784.8,213.0 789.2,212.3 793.7,210.8 798.1,210.5 802.5,209.9 806.9,209.4 811.3,209.0 815.8,208.6 820.2,208.1 824.6,207.9 829.0,207.7 833.4,206.3 837.9,205.9 842.3,204.1 846.7,203.5 851.1,201.7 855.5,200.2 859.9,198.4 864.4,197.3 868.8,196.8 873.2,196.4 877.6,194.2 882.0,191.7 886.5,190.0 890.9,188.0 895.3,186.9 899.7,186.7 904.1,186.0 908.6,185.8 913.0,184.9 917.4,184.0 921.8,182.9 926.2,182.7 930.7,182.5 935.1,180.0 939.5,173.4 943.9,170.1 948.3,169.9 952.7,167.6 957.2,167.2 961.6,166.1 966.0,163.7 970.4,163.0 974.8,158.8 979.3,147.3 983.7,147.1 988.1,139.6 992.5,139.1 996.9,133.6 1001.4,133.4 1005.8,132.0 1010.2,131.6 1014.6,128.7 1019.0,127.2 1023.5,126.7 1027.9,121.2 1032.3,120.3 1036.7,118.6 1041.1,117.9 1045.5,115.7 1050.0,115.5 1054.4,111.9 1058.8,109.9 1063.2,109.3 1067.6,106.2 1072.1,105.7 1076.5,105.5 1080.9,105.1 1085.3,104.4 1089.7,101.8 1094.2,100.6 1098.6,100.2 1103.0,100.0 1107.4,99.3 1111.8,98.9 1116.2,94.0 1120.7,92.0 1125.1,90.5 1129.5,90.3 1133.9,88.5 1138.3,87.8 1142.8,84.7 1147.2,77.2 1151.6,76.3 1156.0,72.1 1160.4,71.9 1164.9,63.3 1169.3,60.6 1173.7,57.7 1178.1,57.3 1182.5,55.3 1187.0,54.4 1191.4,52.7 1195.8,52.0"/><line x1="82.2" y1="364.0" x2="82.2" y2="370.0" stroke="#111827" stroke-width="1"/><text x="84.2" y="386.0" font-size="11" text-anchor="end" transform="rotate(-35 84.2 386.0)" font-family="sans-serif" fill="#374151">2022-10-13</text><line x1="241.3" y1="364.0" x2="241.3" y2="370.0" stroke="#111827" stroke-width="1"/><text x="243.3" y="386.0" font-size="11" text-anchor="end" transform="rotate(-35 243.3 386.0)" font-family="sans-serif" fill="#374151">2025-03-24</text><line x1="400.4" y1="364.0" x2="400.4" y2="370.0" stroke="#111827" stroke-width="1"/><text x="402.4" y="386.0" font-size="11" text-anchor="end" transform="rotate(-35 402.4 386.0)" font-family="sans-serif" fill="#374151">2025-07-17</text><line x1="559.5" y1="364.0" x2="559.5" y2="370.0" stroke="#111827" stroke-width="1"/><text x="561.5" y="386.0" font-size="11" text-anchor="end" transform="rotate(-35 561.5 386.0)" font-family="sans-serif" fill="#374151">2025-09-25</text><line x1="718.5" y1="364.0" x2="718.5" y2="370.0" stroke="#111827" stroke-width="1"/><text x="720.5" y="386.0" font-size="11" text-anchor="end" transform="rotate(-35 720.5 386.0)" font-family="sans-serif" fill="#374151">2025-11-18</text><line x1="877.6" y1="364.0" x2="877.6" y2="370.0" stroke="#111827" stroke-width="1"/><text x="879.6" y="386.0" font-size="11" text-anchor="end" transform="rotate(-35 879.6 386.0)" font-family="sans-serif" fill="#374151">2026-01-05</text><line x1="1036.7" y1="364.0" x2="1036.7" y2="370.0" stroke="#111827" stroke-width="1"/><text x="1038.7" y="386.0" font-size="11" text-anchor="end" transform="rotate(-35 1038.7 386.0)" font-family="sans-serif" fill="#374151">2026-02-16</text><line x1="1195.8" y1="364.0" x2="1195.8" y2="370.0" stroke="#111827" stroke-width="1"/><text x="1197.8" y="386.0" font-size="11" text-anchor="end" transform="rotate(-35 1197.8 386.0)" font-family="sans-serif" fill="#374151">2026-04-07</text><text x="26" y="208.0" font-size="12" transform="rotate(-90 26 208.0)" text-anchor="middle" font-family="sans-serif" fill="#1f2937">구간별 수</text><text x="1256.0" y="208.0" font-size="12" transform="rotate(90 1256.0 208.0)" text-anchor="middle" font-family="sans-serif" fill="#1f2937">누적</text><text x="639.0" y="442.0" font-size="13" text-anchor="middle" font-family="sans-serif" fill="#111827">일</text></svg>