<svg xmlns="http://www.w3.org/2000/svg" width="1280" height="460" viewBox="0 0 1280 460"><rect x="0" y="0" width="100%" height="100%" fill="#ffffff"/><text x="640.0" y="28" font-size="20" text-anchor="middle" font-family="sans-serif" fill="#111827">시리즈 / 생성 시점 / 일별</text><line x1="80.0" y1="52.0" x2="1198.0" y2="52.0" stroke="#e5e7eb" stroke-width="1"/><text x="72.0" y="56.0" font-size="11" text-anchor="end" font-family="sans-serif" fill="#374151">70</text><text x="1206.0" y="56.0" font-size="11" text-anchor="start" font-family="sans-serif" fill="#374151">1,413</text><line x1="80.0" y1="114.4" x2="1198.0" y2="114.4" stroke="#e5e7eb" stroke-width="1"/><text x="72.0" y="118.4" font-size="11" text-anchor="end" font-family="sans-serif" fill="#374151">56</text><text x="1206.0" y="118.4" font-size="11" text-anchor="start" font-family="sans-serif" fill="#374151">1,130</text><line x1="80.0" y1="176.8" x2="1198.0" y2="176.8" stroke="#e5e7eb" stroke-width="1"/><text x="72.0" y="180.8" font-size="11" text-anchor="end" font-family="sans-serif" fill="#374151">42</text><text x="1206.0" y="180.8" font-size="11" text-anchor="start" font-family="sans-serif" fill="#374151">848</text><line x1="80.0" y1="239.2" x2="1198.0" y2="239.2" stroke="#e5e7eb" stroke-width="1"/><text x="72.0" y="243.2" font-size="11" text-anchor="end" font-family="sans-serif" fill="#374151">28</text><text x="1206.0" y="243.2" font-size="11" text-anchor="start" font-family="sans-serif" fill="#374151">565</text><line x1="80.0" y1="301.6" x2="1198.0" y2="301.6" stroke="#e5e7eb" stroke-width="1"/><text x="72.0" y="305.6" font-size="11" text-anchor="end" font-family="sans-serif" fill="#374151">14</text><text x="1206.0" y="305.6" font-size="11" text-anchor="start" font-family="sans-serif" fill="#374151">283</text><line x1="80.0" y1="364.0" x2="1198.0" y2="364.0" stroke="#e5e7eb" stroke-width="1"/><text x="72.0" y="368.0" font-size="11" text-anchor="end" font-family="sans-serif" fill="#374151">0</text><text x="1206.0" y="368.0" font-size="11" text-anchor="start" font-family="sans-serif" fill="#374151">0</text><line x1="80.0" y1="364.0" x2="1198.0" y2="364.0" stroke="#111827" stroke-width="1.2"/><line x1="80.0" y1="52.0" x2="80.0" y2="364.0" stroke="#111827" stroke-width="1.2"/><line x1="1198.0" y1="52.0" x2="1198.0" y2="364.0" stroke="#111827" stroke-width="1.2"/><rect x="80.0" y="346.2" width="4.4" height="17.8" fill="#93c5fd" stroke="#60a5fa" stroke-width="0.5"/><rect x="84.4" y="359.5" width="4.4" height="4.5" fill="#93c5fd" stroke="#60a5fa" stroke-width="0.5"/><rect x="88.8" y="359.5" width="4.4" height="4.5" fill="#93c5fd" stroke="#60a5fa" stroke-width="0.5"/><rect x="93.2" y="355.1" width="4.4" height="8.9" fill="#93c5fd" stroke="#60a5fa" stroke-width="0.5"/><rect x="97.5" y="359.5" width="4.4" height="4.5" fill="#93c5fd" stroke="#60a5fa" stroke-width="0.5"/><rect x="101.9" y="350.6" width="4.4" height="13.4" fill="#93c5fd" stroke="#60a5fa" stroke-width="0.5"/><rect x="106.3" y="359.5" width="4.4" height="4.5" fill="#93c5fd" stroke="#60a5fa" stroke-width="0.5"/><rect x="110.7" y="359.5" width="4.4" height="4.5" fill="#93c5fd" stroke="#60a5fa" stroke-width="0.5"/><rect x="115.1" y="359.5" width="4.4" height="4.5" fill="#93c5fd" stroke="#60a5fa" stroke-width="0.5"/><rect x="119.5" y="359.5" width="4.4" height="4.5" fill="#93c5fd" stroke="#60a5fa" stroke-width="0.5"/><rect x="123.8" y="359.5" width="4.4" height="4.5" fill="#93c5fd" stroke="#60a5fa" stroke-width="0.5"/><rect x="128.2" y="359.5" width="4.4" height="4.5" fill="#93c5fd" stroke="#60a5fa" stroke-width="0.5"/><rect x="132.6" y="359.5" width="4.4" height="4.5" fill="#93c5fd" stroke="#60a5fa" stroke-width="0.5"/><rect x="137.0" y="355.1" width="4.4" height="8.9" fill="#93c5fd" stroke="#60a5fa" stroke-width="0.5"/><rect x="141.4" y="346.2" width="4.4" height="17.8" fill="#93c5fd" stroke="#60a5fa" stroke-width="0.5"/><rect x="145.8" y="359.5" width="4.4" height="4.5" fill="#93c5fd" stroke="#60a5fa" stroke-width="0.5"/><rect x="150.1" y="359.5" width="4.4" height="4.5" fill="#93c5fd" stroke="#60a5fa" stroke-width="0.5"/><rect x="154.5" y="350.6" width="4.4" height="13.4" fill="#93c5fd" stroke="#60a5fa" stroke-width="0.5"/><rect x="158.9" y="341.7" width="4.4" height="22.3" fill="#93c5fd" stroke="#60a5fa" stroke-width="0.5"/><rect x="163.3" y="306.1" width="4.4" height="57.9" fill="#93c5fd" stroke="#60a5fa" stroke-width="0.5"/><rect x="167.7" y="355.1" width="4.4" height="8.9" fill="#93c5fd" stroke="#60a5fa" stroke-width="0.5"/><rect x="172.1" y="350.6" width="4.4" height="13.4" fill="#93c5fd" stroke="#60a5fa" stroke-width="0.5"/><rect x="176.5" y="359.5" width="4.4" height="4.5" fill="#93c5fd" stroke="#60a5fa" stroke-width="0.5"/><rect x="180.8" y="350.6" width="4.4" height="13.4" fill="#93c5fd" stroke="#60a5fa" stroke-width="0.5"/><rect x="185.2" y="359.5" width="4.4" height="4.5" fill="#93c5fd" stroke="#60a5fa" stroke-width="0.5"/><rect x="189.6" y="341.7" width="4.4" height="22.3" fill="#93c5fd" stroke="#60a5fa" stroke-width="0.5"/><rect x="194.0" y="359.5" width="4.4" height="4.5" fill="#93c5fd" stroke="#60a5fa" stroke-width="0.5"/><rect x="198.4" y="359.5" width="4.4" height="4.5" fill="#93c5fd" stroke="#60a5fa" stroke-width="0.5"/><rect x="202.8" y="359.5" width="4.4" height="4.5" fill="#93c5fd" stroke="#60a5fa" stroke-width="0.5"/><rect x="207.1" y="359.5" width="4.4" height="4.5" fill="#93c5fd" stroke="#60a5fa" stroke-width="0.5"/><rect x="211.5" y="359.5" width="4.4" height="4.5" fill="#93c5fd" stroke="#60a5fa" stroke-width="0.5"/><rect x="215.9" y="359.5" width="4.4" height="4.5" fill="#93c5fd" stroke="#60a5fa" stroke-width="0.5"/><rect x="220.3" y="359.5" width="4.4" height="4.5" fill="#93c5fd" stroke="#60a5fa" stroke-width="0.5"/><rect x="224.7" y="359.5" width="4.4" height="4.5" fill="#93c5fd" stroke="#60a5fa" stroke-width="0.5"/><rect x="229.1" y="359.5" width="4.4" height="4.5" fill="#93c5fd" stroke="#60a5fa" stroke-width="0.5"/><rect x="233.5" y="359.5" width="4.4" height="4.5" fill="#93c5fd" stroke="#60a5fa" stroke-width="0.5"/><rect x="237.8" y="359.5" width="4.4" height="4.5" fill="#93c5fd" stroke="#60a5fa" stroke-width="0.5"/><rect x="242.2" y="359.5" width="4.4" height="4.5" fill="#93c5fd" stroke="#60a5fa" stroke-width="0.5"/><rect x="246.6" y="359.5" width="4.4" height="4.5" fill="#93c5fd" stroke="#60a5fa" stroke-width="0.5"/><rect x="251.0" y="359.5" width="4.4" height="4.5" fill="#93c5fd" stroke="#60a5fa" stroke-width="0.5"/><rect x="255.4" y="350.6" width="4.4" height="13.4" fill="#93c5fd" stroke="#60a5fa" stroke-width="0.5"/><rect x="259.8" y="359.5" width="4.4" height="4.5" fill="#93c5fd" stroke="#60a5fa" stroke-width="0.5"/><rect x="264.1" y="359.5" width="4.4" height="4.5" fill="#93c5fd" stroke="#60a5fa" stroke-width="0.5"/><rect x="268.5" y="315.0" width="4.4" height="49.0" fill="#93c5fd" stroke="#60a5fa" stroke-width="0.5"/><rect x="272.9" y="359.5" width="4.4" height="4.5" fill="#93c5fd" stroke="#60a5fa" stroke-width="0.5"/><rect x="277.3" y="337.3" width="4.4" height="26.7" fill="#93c5fd" stroke="#60a5fa" stroke-width="0.5"/><rect x="281.7" y="328.3" width="4.4" height="35.7" fill="#93c5fd" stroke="#60a5fa" stroke-width="0.5"/><rect x="286.1" y="359.5" width="4.4" height="4.5" fill="#93c5fd" stroke="#60a5fa" stroke-width="0.5"/><rect x="290.4" y="355.1" width="4.4" height="8.9" fill="#93c5fd" stroke="#60a5fa" stroke-width="0.5"/><rect x="294.8" y="350.6" width="4.4" height="13.4" fill="#93c5fd" stroke="#60a5fa" stroke-width="0.5"/><rect x="299.2" y="355.1" width="4.4" height="8.9" fill="#93c5fd" stroke="#60a5fa" stroke-width="0.5"/><rect x="303.6" y="355.1" width="4.4" height="8.9" fill="#93c5fd" stroke="#60a5fa" stroke-width="0.5"/><rect x="308.0" y="350.6" width="4.4" height="13.4" fill="#93c5fd" stroke="#60a5fa" stroke-width="0.5"/><rect x="312.4" y="359.5" width="4.4" height="4.5" fill="#93c5fd" stroke="#60a5fa" stroke-width="0.5"/><rect x="316.8" y="359.5" width="4.4" height="4.5" fill="#93c5fd" stroke="#60a5fa" stroke-width="0.5"/><rect x="321.1" y="359.5" width="4.4" height="4.5" fill="#93c5fd" stroke="#60a5fa" stroke-width="0.5"/><rect x="325.5" y="359.5" width="4.4" height="4.5" fill="#93c5fd" stroke="#60a5fa" stroke-width="0.5"/><rect x="329.9" y="350.6" width="4.4" height="13.4" fill="#93c5fd" stroke="#60a5fa" stroke-width="0.5"/><rect x="334.3" y="359.5" width="4.4" height="4.5" fill="#93c5fd" stroke="#60a5fa" stroke-width="0.5"/><rect x="338.7" y="328.3" width="4.4" height="35.7" fill="#93c5fd" stroke="#60a5fa" stroke-width="0.5"/><rect x="343.1" y="359.5" width="4.4" height="4.5" fill="#93c5fd" stroke="#60a5fa" stroke-width="0.5"/><rect x="347.4" y="359.5" width="4.4" height="4.5" fill="#93c5fd" stroke="#60a5fa" stroke-width="0.5"/><rect x="351.8" y="359.5" width="4.4" height="4.5" fill="#93c5fd" stroke="#60a5fa" stroke-width="0.5"/><rect x="356.2" y="350.6" width="4.4" height="13.4" fill="#93c5fd" stroke="#60a5fa" stroke-width="0.5"/><rect x="360.6" y="359.5" width="4.4" height="4.5" fill="#93c5fd" stroke="#60a5fa" stroke-width="0.5"/><rect x="365.0" y="359.5" width="4.4" height="4.5" fill="#93c5fd" stroke="#60a5fa" stroke-width="0.5"/><rect x="369.4" y="355.1" width="4.4" height="8.9" fill="#93c5fd" stroke="#60a5fa" stroke-width="0.5"/><rect x="373.7" y="350.6" width="4.4" height="13.4" fill="#93c5fd" stroke="#60a5fa" stroke-width="0.5"/><rect x="378.1" y="359.5" width="4.4" height="4.5" fill="#93c5fd" stroke="#60a5fa" stroke-width="0.5"/><rect x="382.5" y="350.6" width="4.4" height="13.4" fill="#93c5fd" stroke="#60a5fa" stroke-width="0.5"/><rect x="386.9" y="355.1" width="4.4" height="8.9" fill="#93c5fd" stroke="#60a5fa" stroke-width="0.5"/><rect x="391.3" y="350.6" width="4.4" height="13.4" fill="#93c5fd" stroke="#60a5fa" stroke-width="0.5"/><rect x="395.7" y="359.5" width="4.4" height="4.5" fill="#93c5fd" stroke="#60a5fa" stroke-width="0.5"/><rect x="400.1" y="319.4" width="4.4" height="44.6" fill="#93c5fd" stroke="#60a5fa" stroke-width="0.5"/><rect x="404.4" y="346.2" width="4.4" height="17.8" fill="#93c5fd" stroke="#60a5fa" stroke-width="0.5"/><rect x="408.8" y="346.2" width="4.4" height="17.8" fill="#93c5fd" stroke="#60a5fa" stroke-width="0.5"/><rect x="413.2" y="359.5" width="4.4" height="4.5" fill="#93c5fd" stroke="#60a5fa" stroke-width="0.5"/><rect x="417.6" y="359.5" width="4.4" height="4.5" fill="#93c5fd" stroke="#60a5fa" stroke-width="0.5"/><rect x="422.0" y="359.5" width="4.4" height="4.5" fill="#93c5fd" stroke="#60a5fa" stroke-width="0.5"/><rect x="426.4" y="355.1" width="4.4" height="8.9" fill="#93c5fd" stroke="#60a5fa" stroke-width="0.5"/><rect x="430.7" y="355.1" width="4.4" height="8.9" fill="#93c5fd" stroke="#60a5fa" stroke-width="0.5"/><rect x="435.1" y="350.6" width="4.4" height="13.4" fill="#93c5fd" stroke="#60a5fa" stroke-width="0.5"/><rect x="439.5" y="355.1" width="4.4" height="8.9" fill="#93c5fd" stroke="#60a5fa" stroke-width="0.5"/><rect x="443.9" y="350.6" width="4.4" height="13.4" fill="#93c5fd" stroke="#60a5fa" stroke-width="0.5"/><rect x="448.3" y="359.5" width="4.4" height="4.5" fill="#93c5fd" stroke="#60a5fa" stroke-width="0.5"/><rect x="452.7" y="355.1" width="4.4" height="8.9" fill="#93c5fd" stroke="#60a5fa" stroke-width="0.5"/><rect x="457.1" y="359.5" width="4.4" height="4.5" fill="#93c5fd" stroke="#60a5fa" stroke-width="0.5"/><rect x="461.4" y="337.3" width="4.4" height="26.7" fill="#93c5fd" stroke="#60a5fa" stroke-width="0.5"/><rect x="465.8" y="359.5" width="4.4" height="4.5" fill="#93c5fd" stroke="#60a5fa" stroke-width="0.5"/><rect x="470.2" y="359.5" width="4.4" height="4.5" fill="#93c5fd" stroke="#60a5fa" stroke-width="0.5"/><rect x="474.6" y="359.5" width="4.4" height="4.5" fill="#93c5fd" stroke="#60a5fa" stroke-width="0.5"/><rect x="479.0" y="359.5" width="4.4" height="4.5" fill="#93c5fd" stroke="#60a5fa" stroke-width="0.5"/><rect x="483.4" y="359.5" width="4.4" height="4.5" fill="#93c5fd" stroke="#60a5fa" stroke-width="0.5"/><rect x="487.7" y="337.3" width="4.4" height="26.7" fill="#93c5fd" stroke="#60a5fa" stroke-width="0.5"/><rect x="492.1" y="359.5" width="4.4" height="4.5" fill="#93c5fd" stroke="#60a5fa" stroke-width="0.5"/><rect x="496.5" y="346.2" width="4.4" height="17.8" fill="#93c5fd" stroke="#60a5fa" stroke-width="0.5"/><rect x="500.9" y="319.4" width="4.4" height="44.6" fill="#93c5fd" stroke="#60a5fa" stroke-width="0.5"/><rect x="505.3" y="328.3" width="4.4" height="35.7" fill="#93c5fd" stroke="#60a5fa" stroke-width="0.5"/><rect x="509.7" y="355.1" width="4.4" height="8.9" fill="#93c5fd" stroke="#60a5fa" stroke-width="0.5"/><rect x="514.0" y="355.1" width="4.4" height="8.9" fill="#93c5fd" stroke="#60a5fa" stroke-width="0.5"/><rect x="518.4" y="355.1" width="4.4" height="8.9" fill="#93c5fd" stroke="#60a5fa" stroke-width="0.5"/><rect x="522.8" y="355.1" width="4.4" height="8.9" fill="#93c5fd" stroke="#60a5fa" stroke-width="0.5"/><rect x="527.2" y="350.6" width="4.4" height="13.4" fill="#93c5fd" stroke="#60a5fa" stroke-width="0.5"/><rect x="531.6" y="341.7" width="4.4" height="22.3" fill="#93c5fd" stroke="#60a5fa" stroke-width="0.5"/><rect x="536.0" y="359.5" width="4.4" height="4.5" fill="#93c5fd" stroke="#60a5fa" stroke-width="0.5"/><rect x="540.4" y="323.9" width="4.4" height="40.1" fill="#93c5fd" stroke="#60a5fa" stroke-width="0.5"/><rect x="544.7" y="355.1" width="4.4" height="8.9" fill="#93c5fd" stroke="#60a5fa" stroke-width="0.5"/><rect x="549.1" y="346.2" width="4.4" height="17.8" fill="#93c5fd" stroke="#60a5fa" stroke-width="0.5"/><rect x="553.5" y="355.1" width="4.4" height="8.9" fill="#93c5fd" stroke="#60a5fa" stroke-width="0.5"/><rect x="557.9" y="359.5" width="4.4" height="4.5" fill="#93c5fd" stroke="#60a5fa" stroke-width="0.5"/><rect x="562.3" y="359.5" width="4.4" height="4.5" fill="#93c5fd" stroke="#60a5fa" stroke-width="0.5"/><rect x="566.7" y="355.1" width="4.4" height="8.9" fill="#93c5fd" stroke="#60a5fa" stroke-width="0.5"/><rect x="571.0" y="350.6" width="4.4" height="13.4" fill="#93c5fd" stroke="#60a5fa" stroke-width="0.5"/><rect x="575.4" y="355.1" width="4.4" height="8.9" fill="#93c5fd" stroke="#60a5fa" stroke-width="0.5"/><rect x="579.8" y="315.0" width="4.4" height="49.0" fill="#93c5fd" stroke="#60a5fa" stroke-width="0.5"/><rect x="584.2" y="319.4" width="4.4" height="44.6" fill="#93c5fd" stroke="#60a5fa" stroke-width="0.5"/><rect x="588.6" y="346.2" width="4.4" height="17.8" fill="#93c5fd" stroke="#60a5fa" stroke-width="0.5"/><rect x="593.0" y="359.5" width="4.4" height="4.5" fill="#93c5fd" stroke="#60a5fa" stroke-width="0.5"/><rect x="597.3" y="328.3" width="4.4" height="35.7" fill="#93c5fd" stroke="#60a5fa" stroke-width="0.5"/><rect x="601.7" y="328.3" width="4.4" height="35.7" fill="#93c5fd" stroke="#60a5fa" stroke-width="0.5"/><rect x="606.1" y="257.0" width="4.4" height="107.0" fill="#93c5fd" stroke="#60a5fa" stroke-width="0.5"/><rect x="610.5" y="355.1" width="4.4" height="8.9" fill="#93c5fd" stroke="#60a5fa" stroke-width="0.5"/><rect x="614.9" y="341.7" width="4.4" height="22.3" fill="#93c5fd" stroke="#60a5fa" stroke-width="0.5"/><rect x="619.3" y="350.6" width="4.4" height="13.4" fill="#93c5fd" stroke="#60a5fa" stroke-width="0.5"/><rect x="623.7" y="306.1" width="4.4" height="57.9" fill="#93c5fd" stroke="#60a5fa" stroke-width="0.5"/><rect x="628.0" y="337.3" width="4.4" height="26.7" fill="#93c5fd" stroke="#60a5fa" stroke-width="0.5"/><rect x="632.4" y="301.6" width="4.4" height="62.4" fill="#93c5fd" stroke="#60a5fa" stroke-width="0.5"/><rect x="636.8" y="319.4" width="4.4" height="44.6" fill="#93c5fd" stroke="#60a5fa" stroke-width="0.5"/><rect x="641.2" y="355.1" width="4.4" height="8.9" fill="#93c5fd" stroke="#60a5fa" stroke-width="0.5"/><rect x="645.6" y="359.5" width="4.4" height="4.5" fill="#93c5fd" stroke="#60a5fa" stroke-width="0.5"/><rect x="650.0" y="341.7" width="4.4" height="22.3" fill="#93c5fd" stroke="#60a5fa" stroke-width="0.5"/><rect x="654.3" y="306.1" width="4.4" height="57.9" fill="#93c5fd" stroke="#60a5fa" stroke-width="0.5"/><rect x="658.7" y="346.2" width="4.4" height="17.8" fill="#93c5fd" stroke="#60a5fa" stroke-width="0.5"/><rect x="663.1" y="257.0" width="4.4" height="107.0" fill="#93c5fd" stroke="#60a5fa" stroke-width="0.5"/><rect x="667.5" y="341.7" width="4.4" height="22.3" fill="#93c5fd" stroke="#60a5fa" stroke-width="0.5"/><rect x="671.9" y="52.0" width="4.4" height="312.0" fill="#93c5fd" stroke="#60a5fa" stroke-width="0.5"/><rect x="676.3" y="288.2" width="4.4" height="75.8" fill="#93c5fd" stroke="#60a5fa" stroke-width="0.5"/><rect x="680.7" y="350.6" width="4.4" height="13.4" fill="#93c5fd" stroke="#60a5fa" stroke-width="0.5"/><rect x="685.0" y="355.1" width="4.4" height="8.9" fill="#93c5fd" stroke="#60a5fa" stroke-width="0.5"/><rect x="689.4" y="181.3" width="4.4" height="182.7" fill="#93c5fd" stroke="#60a5fa" stroke-width="0.5"/><rect x="693.8" y="337.3" width="4.4" height="26.7" fill="#93c5fd" stroke="#60a5fa" stroke-width="0.5"/><rect x="698.2" y="350.6" width="4.4" height="13.4" fill="#93c5fd" stroke="#60a5fa" stroke-width="0.5"/><rect x="702.6" y="355.1" width="4.4" height="8.9" fill="#93c5fd" stroke="#60a5fa" stroke-width="0.5"/><rect x="707.0" y="346.2" width="4.4" height="17.8" fill="#93c5fd" stroke="#60a5fa" stroke-width="0.5"/><rect x="711.3" y="328.3" width="4.4" height="35.7" fill="#93c5fd" stroke="#60a5fa" stroke-width="0.5"/><rect x="715.7" y="359.5" width="4.4" height="4.5" fill="#93c5fd" stroke="#60a5fa" stroke-width="0.5"/><rect x="720.1" y="359.5" width="4.4" height="4.5" fill="#93c5fd" stroke="#60a5fa" stroke-width="0.5"/><rect x="724.5" y="346.2" width="4.4" height="17.8" fill="#93c5fd" stroke="#60a5fa" stroke-width="0.5"/><rect x="728.9" y="341.7" width="4.4" height="22.3" fill="#93c5fd" stroke="#60a5fa" stroke-width="0.5"/><rect x="733.3" y="337.3" width="4.4" height="26.7" fill="#93c5fd" stroke="#60a5fa" stroke-width="0.5"/><rect x="737.6" y="337.3" width="4.4" height="26.7" fill="#93c5fd" stroke="#60a5fa" stroke-width="0.5"/><rect x="742.0" y="359.5" width="4.4" height="4.5" fill="#93c5fd" stroke="#60a5fa" stroke-width="0.5"/><rect x="746.4" y="341.7" width="4.4" height="22.3" fill="#93c5fd" stroke="#60a5fa" stroke-width="0.5"/><rect x="750.8" y="332.8" width="4.4" height="31.2" fill="#93c5fd" stroke="#60a5fa" stroke-width="0.5"/><rect x="755.2" y="332.8" width="4.4" height="31.2" fill="#93c5fd" stroke="#60a5fa" stroke-width="0.5"/><rect x="759.6" y="328.3" width="4.4" height="35.7" fill="#93c5fd" stroke="#60a5fa" stroke-width="0.5"/><rect x="764.0" y="323.9" width="4.4" height="40.1" fill="#93c5fd" stroke="#60a5fa" stroke-width="0.5"/><rect x="768.3" y="332.8" width="4.4" height="31.2" fill="#93c5fd" stroke="#60a5fa" stroke-width="0.5"/><rect x="772.7" y="346.2" width="4.4" height="17.8" fill="#93c5fd" stroke="#60a5fa" stroke-width="0.5"/><rect x="777.1" y="350.6" width="4.4" height="13.4" fill="#93c5fd" stroke="#60a5fa" stroke-width="0.5"/><rect x="781.5" y="350.6" width="4.4" height="13.4" fill="#93c5fd" stroke="#60a5fa" stroke-width="0.5"/><rect x="785.9" y="332.8" width="4.4" height="31.2" fill="#93c5fd" stroke="#60a5fa" stroke-width="0.5"/><rect x="790.3" y="359.5" width="4.4" height="4.5" fill="#93c5fd" stroke="#60a5fa" stroke-width="0.5"/><rect x="794.6" y="350.6" width="4.4" height="13.4" fill="#93c5fd" stroke="#60a5fa" stroke-width="0.5"/><rect x="799.0" y="355.1" width="4.4" height="8.9" fill="#93c5fd" stroke="#60a5fa" stroke-width="0.5"/><rect x="803.4" y="355.1" width="4.4" height="8.9" fill="#93c5fd" stroke="#60a5fa" stroke-width="0.5"/><rect x="807.8" y="355.1" width="4.4" height="8.9" fill="#93c5fd" stroke="#60a5fa" stroke-width="0.5"/><rect x="812.2" y="355.1" width="4.4" height="8.9" fill="#93c5fd" stroke="#60a5fa" stroke-width="0.5"/><rect x="816.6" y="359.5" width="4.4" height="4.5" fill="#93c5fd" stroke="#60a5fa" stroke-width="0.5"/><rect x="820.9" y="359.5" width="4.4" height="4.5" fill="#93c5fd" stroke="#60a5fa" stroke-width="0.5"/><rect x="825.3" y="337.3" width="4.4" height="26.7" fill="#93c5fd" stroke="#60a5fa" stroke-width="0.5"/><rect x="829.7" y="355.1" width="4.4" height="8.9" fill="#93c5fd" stroke="#60a5fa" stroke-width="0.5"/><rect x="834.1" y="328.3" width="4.4" height="35.7" fill="#93c5fd" stroke="#60a5fa" stroke-width="0.5"/><rect x="838.5" y="350.6" width="4.4" height="13.4" fill="#93c5fd" stroke="#60a5fa" stroke-width="0.5"/><rect x="842.9" y="328.3" width="4.4" height="35.7" fill="#93c5fd" stroke="#60a5fa" stroke-width="0.5"/><rect x="847.3" y="332.8" width="4.4" height="31.2" fill="#93c5fd" stroke="#60a5fa" stroke-width="0.5"/><rect x="851.6" y="328.3" width="4.4" height="35.7" fill="#93c5fd" stroke="#60a5fa" stroke-width="0.5"/><rect x="856.0" y="341.7" width="4.4" height="22.3" fill="#93c5fd" stroke="#60a5fa" stroke-width="0.5"/><rect x="860.4" y="355.1" width="4.4" height="8.9" fill="#93c5fd" stroke="#60a5fa" stroke-width="0.5"/><rect x="864.8" y="355.1" width="4.4" height="8.9" fill="#93c5fd" stroke="#60a5fa" stroke-width="0.5"/><rect x="869.2" y="319.4" width="4.4" height="44.6" fill="#93c5fd" stroke="#60a5fa" stroke-width="0.5"/><rect x="873.6" y="315.0" width="4.4" height="49.0" fill="#93c5fd" stroke="#60a5fa" stroke-width="0.5"/><rect x="877.9" y="328.3" width="4.4" height="35.7" fill="#93c5fd" stroke="#60a5fa" stroke-width="0.5"/><rect x="882.3" y="323.9" width="4.4" height="40.1" fill="#93c5fd" stroke="#60a5fa" stroke-width="0.5"/><rect x="886.7" y="341.7" width="4.4" height="22.3" fill="#93c5fd" stroke="#60a5fa" stroke-width="0.5"/><rect x="891.1" y="359.5" width="4.4" height="4.5" fill="#93c5fd" stroke="#60a5fa" stroke-width="0.5"/><rect x="895.5" y="350.6" width="4.4" height="13.4" fill="#93c5fd" stroke="#60a5fa" stroke-width="0.5"/><rect x="899.9" y="359.5" width="4.4" height="4.5" fill="#93c5fd" stroke="#60a5fa" stroke-width="0.5"/><rect x="904.3" y="346.2" width="4.4" height="17.8" fill="#93c5fd" stroke="#60a5fa" stroke-width="0.5"/><rect x="908.6" y="346.2" width="4.4" height="17.8" fill="#93c5fd" stroke="#60a5fa" stroke-width="0.5"/><rect x="913.0" y="341.7" width="4.4" height="22.3" fill="#93c5fd" stroke="#60a5fa" stroke-width="0.5"/><rect x="917.4" y="359.5" width="4.4" height="4.5" fill="#93c5fd" stroke="#60a5fa" stroke-width="0.5"/><rect x="921.8" y="359.5" width="4.4" height="4.5" fill="#93c5fd" stroke="#60a5fa" stroke-width="0.5"/><rect x="926.2" y="315.0" width="4.4" height="49.0" fill="#93c5fd" stroke="#60a5fa" stroke-width="0.5"/><rect x="930.6" y="230.3" width="4.4" height="133.7" fill="#93c5fd" stroke="#60a5fa" stroke-width="0.5"/><rect x="934.9" y="297.1" width="4.4" height="66.9" fill="#93c5fd" stroke="#60a5fa" stroke-width="0.5"/><rect x="939.3" y="359.5" width="4.4" height="4.5" fill="#93c5fd" stroke="#60a5fa" stroke-width="0.5"/><rect x="943.7" y="319.4" width="4.4" height="44.6" fill="#93c5fd" stroke="#60a5fa" stroke-width="0.5"/><rect x="948.1" y="355.1" width="4.4" height="8.9" fill="#93c5fd" stroke="#60a5fa" stroke-width="0.5"/><rect x="952.5" y="341.7" width="4.4" height="22.3" fill="#93c5fd" stroke="#60a5fa" stroke-width="0.5"/><rect x="956.9" y="315.0" width="4.4" height="49.0" fill="#93c5fd" stroke="#60a5fa" stroke-width="0.5"/><rect x="961.2" y="350.6" width="4.4" height="13.4" fill="#93c5fd" stroke="#60a5fa" stroke-width="0.5"/><rect x="965.6" y="279.3" width="4.4" height="84.7" fill="#93c5fd" stroke="#60a5fa" stroke-width="0.5"/><rect x="970.0" y="132.2" width="4.4" height="231.8" fill="#93c5fd" stroke="#60a5fa" stroke-width="0.5"/><rect x="974.4" y="359.5" width="4.4" height="4.5" fill="#93c5fd" stroke="#60a5fa" stroke-width="0.5"/><rect x="978.8" y="212.5" width="4.4" height="151.5" fill="#93c5fd" stroke="#60a5fa" stroke-width="0.5"/><rect x="983.2" y="355.1" width="4.4" height="8.9" fill="#93c5fd" stroke="#60a5fa" stroke-width="0.5"/><rect x="987.6" y="252.6" width="4.4" height="111.4" fill="#93c5fd" stroke="#60a5fa" stroke-width="0.5"/><rect x="991.9" y="359.5" width="4.4" height="4.5" fill="#93c5fd" stroke="#60a5fa" stroke-width="0.5"/><rect x="996.3" y="337.3" width="4.4" height="26.7" fill="#93c5fd" stroke="#60a5fa" stroke-width="0.5"/><rect x="1000.7" y="355.1" width="4.4" height="8.9" fill="#93c5fd" stroke="#60a5fa" stroke-width="0.5"/><rect x="1005.1" y="306.1" width="4.4" height="57.9" fill="#93c5fd" stroke="#60a5fa" stroke-width="0.5"/><rect x="1009.5" y="332.8" width="4.4" height="31.2" fill="#93c5fd" stroke="#60a5fa" stroke-width="0.5"/><rect x="1013.9" y="355.1" width="4.4" height="8.9" fill="#93c5fd" stroke="#60a5fa" stroke-width="0.5"/><rect x="1018.2" y="252.6" width="4.4" height="111.4" fill="#93c5fd" stroke="#60a5fa" stroke-width="0.5"/><rect x="1022.6" y="346.2" width="4.4" height="17.8" fill="#93c5fd" stroke="#60a5fa" stroke-width="0.5"/><rect x="1027.0" y="328.3" width="4.4" height="35.7" fill="#93c5fd" stroke="#60a5fa" stroke-width="0.5"/><rect x="1031.4" y="350.6" width="4.4" height="13.4" fill="#93c5fd" stroke="#60a5fa" stroke-width="0.5"/><rect x="1035.8" y="319.4" width="4.4" height="44.6" fill="#93c5fd" stroke="#60a5fa" stroke-width="0.5"/><rect x="1040.2" y="359.5" width="4.4" height="4.5" fill="#93c5fd" stroke="#60a5fa" stroke-width="0.5"/><rect x="1044.5" y="292.7" width="4.4" height="71.3" fill="#93c5fd" stroke="#60a5fa" stroke-width="0.5"/><rect x="1048.9" y="323.9" width="4.4" height="40.1" fill="#93c5fd" stroke="#60a5fa" stroke-width="0.5"/><rect x="1053.3" y="350.6" width="4.4" height="13.4" fill="#93c5fd" stroke="#60a5fa" stroke-width="0.5"/><rect x="1057.7" y="301.6" width="4.4" height="62.4" fill="#93c5fd" stroke="#60a5fa" stroke-width="0.5"/><rect x="1062.1" y="355.1" width="4.4" height="8.9" fill="#93c5fd" stroke="#60a5fa" stroke-width="0.5"/><rect x="1066.5" y="359.5" width="4.4" height="4.5" fill="#93c5fd" stroke="#60a5fa" stroke-width="0.5"/><rect x="1070.9" y="355.1" width="4.4" height="8.9" fill="#93c5fd" stroke="#60a5fa" stroke-width="0.5"/><rect x="1075.2" y="350.6" width="4.4" height="13.4" fill="#93c5fd" stroke="#60a5fa" stroke-width="0.5"/><rect x="1079.6" y="310.5" width="4.4" height="53.5" fill="#93c5fd" stroke="#60a5fa" stroke-width="0.5"/><rect x="1084.0" y="341.7" width="4.4" height="22.3" fill="#93c5fd" stroke="#60a5fa" stroke-width="0.5"/><rect x="1088.4" y="355.1" width="4.4" height="8.9" fill="#93c5fd" stroke="#60a5fa" stroke-width="0.5"/><rect x="1092.8" y="359.5" width="4.4" height="4.5" fill="#93c5fd" stroke="#60a5fa" stroke-width="0.5"/><rect x="1097.2" y="350.6" width="4.4" height="13.4" fill="#93c5fd" stroke="#60a5fa" stroke-width="0.5"/><rect x="1101.5" y="355.1" width="4.4" height="8.9" fill="#93c5fd" stroke="#60a5fa" stroke-width="0.5"/><rect x="1105.9" y="265.9" width="4.4" height="98.1" fill="#93c5fd" stroke="#60a5fa" stroke-width="0.5"/><rect x="1110.3" y="323.9" width="4.4" height="40.1" fill="#93c5fd" stroke="#60a5fa" stroke-width="0.5"/><rect x="1114.7" y="332.8" width="4.4" height="31.2" fill="#93c5fd" stroke="#60a5fa" stroke-width="0.5"/><rect x="1119.1" y="359.5" width="4.4" height="4.5" fill="#93c5fd" stroke="#60a5fa" stroke-width="0.5"/><rect x="1123.5" y="328.3" width="4.4" height="35.7" fill="#93c5fd" stroke="#60a5fa" stroke-width="0.5"/><rect x="1127.9" y="350.6" width="4.4" height="13.4" fill="#93c5fd" stroke="#60a5fa" stroke-width="0.5"/><rect x="1132.2" y="301.6" width="4.4" height="62.4" fill="#93c5fd" stroke="#60a5fa" stroke-width="0.5"/><rect x="1136.6" y="212.5" width="4.4" height="151.5" fill="#93c5fd" stroke="#60a5fa" stroke-width="0.5"/><rect x="1141.0" y="346.2" width="4.4" height="17.8" fill="#93c5fd" stroke="#60a5fa" stroke-width="0.5"/><rect x="1145.4" y="279.3" width="4.4" height="84.7" fill="#93c5fd" stroke="#60a5fa" stroke-width="0.5"/><rect x="1149.8" y="359.5" width="4.4" height="4.5" fill="#93c5fd" stroke="#60a5fa" stroke-width="0.5"/><rect x="1154.2" y="190.2" width="4.4" height="173.8" fill="#93c5fd" stroke="#60a5fa" stroke-width="0.5"/><rect x="1158.5" y="310.5" width="4.4" height="53.5" fill="#93c5fd" stroke="#60a5fa" stroke-width="0.5"/><rect x="1162.9" y="306.1" width="4.4" height="57.9" fill="#93c5fd" stroke="#60a5fa" stroke-width="0.5"/><rect x="1167.3" y="355.1" width="4.4" height="8.9" fill="#93c5fd" stroke="#60a5fa" stroke-width="0.5"/><rect x="1171.7" y="323.9" width="4.4" height="40.1" fill="#93c5fd" stroke="#60a5fa" stroke-width="0.5"/><rect x="1176.1" y="346.2" width="4.4" height="17.8" fill="#93c5fd" stroke="#60a5fa" stroke-width="0.5"/><rect x="1180.5" y="328.3" width="4.4" height="35.7" fill="#93c5fd" stroke="#60a5fa" stroke-width="0.5"/><rect x="1184.8" y="350.6" width="4.4" height="13.4" fill="#93c5fd" stroke="#60a5fa" stroke-width="0.5"/><rect x="1189.2" y="359.5" width="4.4" height="4.5" fill="#93c5fd" stroke="#60a5fa" stroke-width="0.5"/><rect x="1193.6" y="359.5" width="4.4" height="4.5" fill="#93c5fd" stroke="#60a5fa" stroke-width="0.5"/><polyline fill="none" stroke="#ef4444" stroke-width="2" points="82.2,363.1 86.6,362.9 91.0,362.7 95.3,362.2 99.7,362.0 104.1,361.4 108.5,361.1 112.9,360.9 117.3,360.7 121.7,360.5 126.0,360.2 130.4,360.0 134.8,359.8 139.2,359.4 143.6,358.5 148.0,358.3 152.3,358.0 156.7,357.4 161.1,356.3 165.5,353.4 169.9,353.0 174.3,352.3 178.6,352.1 183.0,351.4 187.4,351.2 191.8,350.1 196.2,349.9 200.6,349.6 205.0,349.4 209.3,349.2 213.7,349.0 218.1,348.8 222.5,348.5 226.9,348.3 231.3,348.1 235.6,347.9 240.0,347.7 244.4,347.4 248.8,347.2 253.2,347.0 257.6,346.3 261.9,346.1 266.3,345.9 270.7,343.5 275.1,343.2 279.5,341.9 283.9,340.2 288.3,339.9 292.6,339.5 297.0,338.8 301.4,338.4 305.8,337.9 310.2,337.3 314.6,337.1 318.9,336.8 323.3,336.6 327.7,336.4 332.1,335.7 336.5,335.5 340.9,333.7 345.3,333.5 349.6,333.3 354.0,333.1 358.4,332.4 362.8,332.2 367.2,332.0 371.6,331.5 375.9,330.9 380.3,330.7 384.7,330.0 389.1,329.6 393.5,328.9 397.9,328.7 402.2,326.5 406.6,325.6 411.0,324.7 415.4,324.5 419.8,324.3 424.2,324.0 428.6,323.6 432.9,323.2 437.3,322.5 441.7,322.0 446.1,321.4 450.5,321.2 454.9,320.7 459.2,320.5 463.6,319.2 468.0,319.0 472.4,318.7 476.8,318.5 481.2,318.3 485.5,318.1 489.9,316.7 494.3,316.5 498.7,315.6 503.1,313.4 507.5,311.7 511.9,311.2 516.2,310.8 520.6,310.3 525.0,309.9 529.4,309.2 533.8,308.1 538.2,307.9 542.5,305.9 546.9,305.5 551.3,304.6 555.7,304.2 560.1,303.9 564.5,303.7 568.9,303.3 573.2,302.6 577.6,302.2 582.0,299.7 586.4,297.5 590.8,296.7 595.2,296.4 599.5,294.7 603.9,292.9 608.3,287.6 612.7,287.2 617.1,286.1 621.5,285.4 625.8,282.5 630.2,281.2 634.6,278.1 639.0,275.9 643.4,275.5 647.8,275.2 652.2,274.1 656.5,271.3 660.9,270.4 665.3,265.1 669.7,264.0 674.1,248.5 678.5,244.8 682.8,244.1 687.2,243.7 691.6,234.6 696.0,233.3 700.4,232.6 704.8,232.2 709.1,231.3 713.5,229.5 717.9,229.3 722.3,229.1 726.7,228.2 731.1,227.1 735.5,225.8 739.8,224.5 744.2,224.2 748.6,223.1 753.0,221.6 757.4,220.0 761.8,218.3 766.1,216.3 770.5,214.7 774.9,213.9 779.3,213.2 783.7,212.5 788.1,211.0 792.5,210.8 796.8,210.1 801.2,209.7 805.6,209.2 810.0,208.8 814.4,208.3 818.8,208.1 823.1,207.9 827.5,206.6 831.9,206.1 836.3,204.4 840.7,203.7 845.1,201.9 849.4,200.4 853.8,198.6 858.2,197.5 862.6,197.1 867.0,196.6 871.4,194.4 875.8,192.0 880.1,190.2 884.5,188.2 888.9,187.1 893.3,186.9 897.7,186.3 902.1,186.0 906.4,185.1 910.8,184.3 915.2,183.2 919.6,182.9 924.0,182.7 928.4,180.3 932.7,173.7 937.1,170.4 941.5,170.1 945.9,167.9 950.3,167.5 954.7,166.4 959.1,163.9 963.4,163.3 967.8,159.1 972.2,147.6 976.6,147.4 981.0,139.9 985.4,139.4 989.7,133.9 994.1,133.7 998.5,132.4 1002.9,131.9 1007.3,129.1 1011.7,127.5 1016.1,127.1 1020.4,121.6 1024.8,120.7 1029.2,118.9 1033.6,118.2 1038.0,116.0 1042.4,115.8 1046.7,112.3 1051.1,110.3 1055.5,109.6 1059.9,106.5 1064.3,106.1 1068.7,105.9 1073.0,105.4 1077.4,104.8 1081.8,102.1 1086.2,101.0 1090.6,100.6 1095.0,100.4 1099.4,99.7 1103.7,99.3 1108.1,94.4 1112.5,92.4 1116.9,90.9 1121.3,90.6 1125.7,88.9 1130.0,88.2 1134.4,85.1 1138.8,77.6 1143.2,76.7 1147.6,72.5 1152.0,72.3 1156.3,63.7 1160.7,61.1 1165.1,58.2 1169.5,57.7 1173.9,55.8 1178.3,54.9 1182.7,53.1 1187.0,52.4 1191.4,52.2 1195.8,52.0"/><line x1="82.2" y1="364.0" x2="82.2" y2="370.0" stroke="#111827" stroke-width="1"/><text x="84.2" y="386.0" font-size="11" text-anchor="end" transform="rotate(-35 84.2 386.0)" font-family="sans-serif" fill="#374151">2022-10-13</text><line x1="240.0" y1="364.0" x2="240.0" y2="370.0" stroke="#111827" stroke-width="1"/><text x="242.0" y="386.0" font-size="11" text-anchor="end" transform="rotate(-35 242.0 386.0)" font-family="sans-serif" fill="#374151">2025-03-24</text><line x1="402.2" y1="364.0" x2="402.2" y2="370.0" stroke="#111827" stroke-width="1"/><text x="404.2" y="386.0" font-size="11" text-anchor="end" transform="rotate(-35 404.2 386.0)" font-family="sans-serif" fill="#374151">2025-07-21</text><line x1="560.1" y1="364.0" x2="560.1" y2="370.0" stroke="#111827" stroke-width="1"/><text x="562.1" y="386.0" font-size="11" text-anchor="end" transform="rotate(-35 562.1 386.0)" font-family="sans-serif" fill="#374151">2025-09-27</text><line x1="717.9" y1="364.0" x2="717.9" y2="370.0" stroke="#111827" stroke-width="1"/><text x="719.9" y="386.0" font-size="11" text-anchor="end" transform="rotate(-35 719.9 386.0)" font-family="sans-serif" fill="#374151">2025-11-19</text><line x1="875.8" y1="364.0" x2="875.8" y2="370.0" stroke="#111827" stroke-width="1"/><text x="877.8" y="386.0" font-size="11" text-anchor="end" transform="rotate(-35 877.8 386.0)" font-family="sans-serif" fill="#374151">2026-01-06</text><line x1="1038.0" y1="364.0" x2="1038.0" y2="370.0" stroke="#111827" stroke-width="1"/><text x="1040.0" y="386.0" font-size="11" text-anchor="end" transform="rotate(-35 1040.0 386.0)" font-family="sans-serif" fill="#374151">2026-02-18</text><line x1="1195.8" y1="364.0" x2="1195.8" y2="370.0" stroke="#111827" stroke-width="1"/><text x="1197.8" y="386.0" font-size="11" text-anchor="end" transform="rotate(-35 1197.8 386.0)" font-family="sans-serif" fill="#374151">2026-04-09</text><text x="26" y="208.0" font-size="12" transform="rotate(-90 26 208.0)" text-anchor="middle" font-family="sans-serif" fill="#1f2937">구간별 수</text><text x="1256.0" y="208.0" font-size="12" transform="rotate(90 1256.0 208.0)" text-anchor="middle" font-family="sans-serif" fill="#1f2937">누적</text><text x="639.0" y="442.0" font-size="13" text-anchor="middle" font-family="sans-serif" fill="#111827">일</text></svg>