<svg xmlns="http://www.w3.org/2000/svg" width="1280" height="460" viewBox="0 0 1280 460"><rect x="0" y="0" width="100%" height="100%" fill="#ffffff"/><text x="640.0" y="28" font-size="20" text-anchor="middle" font-family="sans-serif" fill="#111827">시리즈 / 최근 반영 시점 / 시간별</text><line x1="80.0" y1="52.0" x2="1198.0" y2="52.0" stroke="#e5e7eb" stroke-width="1"/><text x="72.0" y="56.0" font-size="11" text-anchor="end" font-family="sans-serif" fill="#374151">1,135</text><text x="1206.0" y="56.0" font-size="11" text-anchor="start" font-family="sans-serif" fill="#374151">1,446</text><line x1="80.0" y1="114.4" x2="1198.0" y2="114.4" stroke="#e5e7eb" stroke-width="1"/><text x="72.0" y="118.4" font-size="11" text-anchor="end" font-family="sans-serif" fill="#374151">908</text><text x="1206.0" y="118.4" font-size="11" text-anchor="start" font-family="sans-serif" fill="#374151">1,157</text><line x1="80.0" y1="176.8" x2="1198.0" y2="176.8" stroke="#e5e7eb" stroke-width="1"/><text x="72.0" y="180.8" font-size="11" text-anchor="end" font-family="sans-serif" fill="#374151">681</text><text x="1206.0" y="180.8" font-size="11" text-anchor="start" font-family="sans-serif" fill="#374151">868</text><line x1="80.0" y1="239.2" x2="1198.0" y2="239.2" stroke="#e5e7eb" stroke-width="1"/><text x="72.0" y="243.2" font-size="11" text-anchor="end" font-family="sans-serif" fill="#374151">454</text><text x="1206.0" y="243.2" font-size="11" text-anchor="start" font-family="sans-serif" fill="#374151">578</text><line x1="80.0" y1="301.6" x2="1198.0" y2="301.6" stroke="#e5e7eb" stroke-width="1"/><text x="72.0" y="305.6" font-size="11" text-anchor="end" font-family="sans-serif" fill="#374151">227</text><text x="1206.0" y="305.6" font-size="11" text-anchor="start" font-family="sans-serif" fill="#374151">289</text><line x1="80.0" y1="364.0" x2="1198.0" y2="364.0" stroke="#e5e7eb" stroke-width="1"/><text x="72.0" y="368.0" font-size="11" text-anchor="end" font-family="sans-serif" fill="#374151">0</text><text x="1206.0" y="368.0" font-size="11" text-anchor="start" font-family="sans-serif" fill="#374151">0</text><line x1="80.0" y1="364.0" x2="1198.0" y2="364.0" stroke="#111827" stroke-width="1.2"/><line x1="80.0" y1="52.0" x2="80.0" y2="364.0" stroke="#111827" stroke-width="1.2"/><line x1="1198.0" y1="52.0" x2="1198.0" y2="364.0" stroke="#111827" stroke-width="1.2"/><rect x="81.0" y="363.7" width="31.9" height="0.3" fill="#93c5fd" stroke="#60a5fa" stroke-width="0.5"/><rect x="114.9" y="363.2" width="31.9" height="0.8" fill="#93c5fd" stroke="#60a5fa" stroke-width="0.5"/><rect x="148.8" y="360.4" width="31.9" height="3.6" fill="#93c5fd" stroke="#60a5fa" stroke-width="0.5"/><rect x="182.6" y="363.7" width="31.9" height="0.3" fill="#93c5fd" stroke="#60a5fa" stroke-width="0.5"/><rect x="216.5" y="363.7" width="31.9" height="0.3" fill="#93c5fd" stroke="#60a5fa" stroke-width="0.5"/><rect x="250.4" y="363.7" width="31.9" height="0.3" fill="#93c5fd" stroke="#60a5fa" stroke-width="0.5"/><rect x="284.3" y="363.7" width="31.9" height="0.3" fill="#93c5fd" stroke="#60a5fa" stroke-width="0.5"/><rect x="318.2" y="363.7" width="31.9" height="0.3" fill="#93c5fd" stroke="#60a5fa" stroke-width="0.5"/><rect x="352.0" y="363.7" width="31.9" height="0.3" fill="#93c5fd" stroke="#60a5fa" stroke-width="0.5"/><rect x="385.9" y="363.7" width="31.9" height="0.3" fill="#93c5fd" stroke="#60a5fa" stroke-width="0.5"/><rect x="419.8" y="363.5" width="31.9" height="0.5" fill="#93c5fd" stroke="#60a5fa" stroke-width="0.5"/><rect x="453.7" y="363.5" width="31.9" height="0.5" fill="#93c5fd" stroke="#60a5fa" stroke-width="0.5"/><rect x="487.5" y="363.7" width="31.9" height="0.3" fill="#93c5fd" stroke="#60a5fa" stroke-width="0.5"/><rect x="521.4" y="363.7" width="31.9" height="0.3" fill="#93c5fd" stroke="#60a5fa" stroke-width="0.5"/><rect x="555.3" y="363.7" width="31.9" height="0.3" fill="#93c5fd" stroke="#60a5fa" stroke-width="0.5"/><rect x="589.2" y="363.7" width="31.9" height="0.3" fill="#93c5fd" stroke="#60a5fa" stroke-width="0.5"/><rect x="623.1" y="363.7" width="31.9" height="0.3" fill="#93c5fd" stroke="#60a5fa" stroke-width="0.5"/><rect x="656.9" y="363.5" width="31.9" height="0.5" fill="#93c5fd" stroke="#60a5fa" stroke-width="0.5"/><rect x="690.8" y="363.5" width="31.9" height="0.5" fill="#93c5fd" stroke="#60a5fa" stroke-width="0.5"/><rect x="724.7" y="362.9" width="31.9" height="1.1" fill="#93c5fd" stroke="#60a5fa" stroke-width="0.5"/><rect x="758.6" y="362.9" width="31.9" height="1.1" fill="#93c5fd" stroke="#60a5fa" stroke-width="0.5"/><rect x="792.5" y="362.4" width="31.9" height="1.6" fill="#93c5fd" stroke="#60a5fa" stroke-width="0.5"/><rect x="826.3" y="52.0" width="31.9" height="312.0" fill="#93c5fd" stroke="#60a5fa" stroke-width="0.5"/><rect x="860.2" y="350.3" width="31.9" height="13.7" fill="#93c5fd" stroke="#60a5fa" stroke-width="0.5"/><rect x="894.1" y="363.2" width="31.9" height="0.8" fill="#93c5fd" stroke="#60a5fa" stroke-width="0.5"/><rect x="928.0" y="350.3" width="31.9" height="13.7" fill="#93c5fd" stroke="#60a5fa" stroke-width="0.5"/><rect x="961.8" y="350.3" width="31.9" height="13.7" fill="#93c5fd" stroke="#60a5fa" stroke-width="0.5"/><rect x="995.7" y="363.7" width="31.9" height="0.3" fill="#93c5fd" stroke="#60a5fa" stroke-width="0.5"/><rect x="1029.6" y="363.2" width="31.9" height="0.8" fill="#93c5fd" stroke="#60a5fa" stroke-width="0.5"/><rect x="1063.5" y="363.5" width="31.9" height="0.5" fill="#93c5fd" stroke="#60a5fa" stroke-width="0.5"/><rect x="1097.4" y="363.7" width="31.9" height="0.3" fill="#93c5fd" stroke="#60a5fa" stroke-width="0.5"/><rect x="1131.2" y="350.3" width="31.9" height="13.7" fill="#93c5fd" stroke="#60a5fa" stroke-width="0.5"/><rect x="1165.1" y="350.3" width="31.9" height="13.7" fill="#93c5fd" stroke="#60a5fa" stroke-width="0.5"/><polyline fill="none" stroke="#ef4444" stroke-width="2" points="96.9,363.8 130.8,363.1 164.7,360.3 198.6,360.1 232.5,359.9 266.3,359.7 300.2,359.5 334.1,359.3 368.0,359.0 401.8,358.8 435.7,358.4 469.6,358.0 503.5,357.7 537.4,357.5 571.2,357.3 605.1,357.1 639.0,356.9 672.9,356.4 706.8,356.0 740.6,355.2 774.5,354.3 808.4,353.0 842.3,108.1 876.2,97.3 910.0,96.7 943.9,85.9 977.8,75.1 1011.7,74.9 1045.5,74.2 1079.4,73.8 1113.3,73.6 1147.2,62.8 1181.1,52.0"/><line x1="96.9" y1="364.0" x2="96.9" y2="370.0" stroke="#111827" stroke-width="1"/><text x="98.9" y="386.0" font-size="11" text-anchor="end" transform="rotate(-35 98.9 386.0)" font-family="sans-serif" fill="#374151">2026-04-16 23:00</text><line x1="266.3" y1="364.0" x2="266.3" y2="370.0" stroke="#111827" stroke-width="1"/><text x="268.3" y="386.0" font-size="11" text-anchor="end" transform="rotate(-35 268.3 386.0)" font-family="sans-serif" fill="#374151">2026-04-19 18:00</text><line x1="401.8" y1="364.0" x2="401.8" y2="370.0" stroke="#111827" stroke-width="1"/><text x="403.8" y="386.0" font-size="11" text-anchor="end" transform="rotate(-35 403.8 386.0)" font-family="sans-serif" fill="#374151">2026-04-20 12:00</text><line x1="571.2" y1="364.0" x2="571.2" y2="370.0" stroke="#111827" stroke-width="1"/><text x="573.2" y="386.0" font-size="11" text-anchor="end" transform="rotate(-35 573.2 386.0)" font-family="sans-serif" fill="#374151">2026-04-21 03:00</text><line x1="706.8" y1="364.0" x2="706.8" y2="370.0" stroke="#111827" stroke-width="1"/><text x="708.8" y="386.0" font-size="11" text-anchor="end" transform="rotate(-35 708.8 386.0)" font-family="sans-serif" fill="#374151">2026-04-22 00:00</text><line x1="876.2" y1="364.0" x2="876.2" y2="370.0" stroke="#111827" stroke-width="1"/><text x="878.2" y="386.0" font-size="11" text-anchor="end" transform="rotate(-35 878.2 386.0)" font-family="sans-serif" fill="#374151">2026-04-24 08:00</text><line x1="1011.7" y1="364.0" x2="1011.7" y2="370.0" stroke="#111827" stroke-width="1"/><text x="1013.7" y="386.0" font-size="11" text-anchor="end" transform="rotate(-35 1013.7 386.0)" font-family="sans-serif" fill="#374151">2026-04-24 21:00</text><line x1="1181.1" y1="364.0" x2="1181.1" y2="370.0" stroke="#111827" stroke-width="1"/><text x="1183.1" y="386.0" font-size="11" text-anchor="end" transform="rotate(-35 1183.1 386.0)" font-family="sans-serif" fill="#374151">2026-04-25 08:00</text><text x="26" y="208.0" font-size="12" transform="rotate(-90 26 208.0)" text-anchor="middle" font-family="sans-serif" fill="#1f2937">구간별 수</text><text x="1256.0" y="208.0" font-size="12" transform="rotate(90 1256.0 208.0)" text-anchor="middle" font-family="sans-serif" fill="#1f2937">누적</text><text x="639.0" y="442.0" font-size="13" text-anchor="middle" font-family="sans-serif" fill="#111827">시간</text></svg>