<svg xmlns="http://www.w3.org/2000/svg" width="1280" height="460" viewBox="0 0 1280 460"><rect x="0" y="0" width="100%" height="100%" fill="#ffffff"/><text x="640.0" y="28" font-size="20" text-anchor="middle" font-family="sans-serif" fill="#111827">시리즈 / 생성 시점 / 월별</text><line x1="80.0" y1="52.0" x2="1198.0" y2="52.0" stroke="#e5e7eb" stroke-width="1"/><text x="72.0" y="56.0" font-size="11" text-anchor="end" font-family="sans-serif" fill="#374151">231</text><text x="1206.0" y="56.0" font-size="11" text-anchor="start" font-family="sans-serif" fill="#374151">1,406</text><line x1="80.0" y1="114.4" x2="1198.0" y2="114.4" stroke="#e5e7eb" stroke-width="1"/><text x="72.0" y="118.4" font-size="11" text-anchor="end" font-family="sans-serif" fill="#374151">185</text><text x="1206.0" y="118.4" font-size="11" text-anchor="start" font-family="sans-serif" fill="#374151">1,125</text><line x1="80.0" y1="176.8" x2="1198.0" y2="176.8" stroke="#e5e7eb" stroke-width="1"/><text x="72.0" y="180.8" font-size="11" text-anchor="end" font-family="sans-serif" fill="#374151">139</text><text x="1206.0" y="180.8" font-size="11" text-anchor="start" font-family="sans-serif" fill="#374151">844</text><line x1="80.0" y1="239.2" x2="1198.0" y2="239.2" stroke="#e5e7eb" stroke-width="1"/><text x="72.0" y="243.2" font-size="11" text-anchor="end" font-family="sans-serif" fill="#374151">92</text><text x="1206.0" y="243.2" font-size="11" text-anchor="start" font-family="sans-serif" fill="#374151">562</text><line x1="80.0" y1="301.6" x2="1198.0" y2="301.6" stroke="#e5e7eb" stroke-width="1"/><text x="72.0" y="305.6" font-size="11" text-anchor="end" font-family="sans-serif" fill="#374151">46</text><text x="1206.0" y="305.6" font-size="11" text-anchor="start" font-family="sans-serif" fill="#374151">281</text><line x1="80.0" y1="364.0" x2="1198.0" y2="364.0" stroke="#e5e7eb" stroke-width="1"/><text x="72.0" y="368.0" font-size="11" text-anchor="end" font-family="sans-serif" fill="#374151">0</text><text x="1206.0" y="368.0" font-size="11" text-anchor="start" font-family="sans-serif" fill="#374151">0</text><line x1="80.0" y1="364.0" x2="1198.0" y2="364.0" stroke="#111827" stroke-width="1.2"/><line x1="80.0" y1="52.0" x2="80.0" y2="364.0" stroke="#111827" stroke-width="1.2"/><line x1="1198.0" y1="52.0" x2="1198.0" y2="364.0" stroke="#111827" stroke-width="1.2"/><rect x="81.0" y="358.6" width="42.7" height="5.4" fill="#93c5fd" stroke="#60a5fa" stroke-width="0.5"/><rect x="125.7" y="362.6" width="42.7" height="1.4" fill="#93c5fd" stroke="#60a5fa" stroke-width="0.5"/><rect x="170.4" y="359.9" width="42.7" height="4.1" fill="#93c5fd" stroke="#60a5fa" stroke-width="0.5"/><rect x="215.2" y="354.5" width="42.7" height="9.5" fill="#93c5fd" stroke="#60a5fa" stroke-width="0.5"/><rect x="259.9" y="362.6" width="42.7" height="1.4" fill="#93c5fd" stroke="#60a5fa" stroke-width="0.5"/><rect x="304.6" y="362.6" width="42.7" height="1.4" fill="#93c5fd" stroke="#60a5fa" stroke-width="0.5"/><rect x="349.3" y="362.6" width="42.7" height="1.4" fill="#93c5fd" stroke="#60a5fa" stroke-width="0.5"/><rect x="394.0" y="362.6" width="42.7" height="1.4" fill="#93c5fd" stroke="#60a5fa" stroke-width="0.5"/><rect x="438.8" y="361.3" width="42.7" height="2.7" fill="#93c5fd" stroke="#60a5fa" stroke-width="0.5"/><rect x="483.5" y="345.1" width="42.7" height="18.9" fill="#93c5fd" stroke="#60a5fa" stroke-width="0.5"/><rect x="528.2" y="318.1" width="42.7" height="45.9" fill="#93c5fd" stroke="#60a5fa" stroke-width="0.5"/><rect x="572.9" y="354.5" width="42.7" height="9.5" fill="#93c5fd" stroke="#60a5fa" stroke-width="0.5"/><rect x="617.6" y="341.0" width="42.7" height="23.0" fill="#93c5fd" stroke="#60a5fa" stroke-width="0.5"/><rect x="662.4" y="322.1" width="42.7" height="41.9" fill="#93c5fd" stroke="#60a5fa" stroke-width="0.5"/><rect x="707.1" y="327.5" width="42.7" height="36.5" fill="#93c5fd" stroke="#60a5fa" stroke-width="0.5"/><rect x="751.8" y="323.5" width="42.7" height="40.5" fill="#93c5fd" stroke="#60a5fa" stroke-width="0.5"/><rect x="796.5" y="318.1" width="42.7" height="45.9" fill="#93c5fd" stroke="#60a5fa" stroke-width="0.5"/><rect x="841.2" y="278.9" width="42.7" height="85.1" fill="#93c5fd" stroke="#60a5fa" stroke-width="0.5"/><rect x="886.0" y="166.8" width="42.7" height="197.2" fill="#93c5fd" stroke="#60a5fa" stroke-width="0.5"/><rect x="930.7" y="81.7" width="42.7" height="282.3" fill="#93c5fd" stroke="#60a5fa" stroke-width="0.5"/><rect x="975.4" y="207.3" width="42.7" height="156.7" fill="#93c5fd" stroke="#60a5fa" stroke-width="0.5"/><rect x="1020.1" y="52.0" width="42.7" height="312.0" fill="#93c5fd" stroke="#60a5fa" stroke-width="0.5"/><rect x="1064.8" y="106.0" width="42.7" height="258.0" fill="#93c5fd" stroke="#60a5fa" stroke-width="0.5"/><rect x="1109.6" y="72.3" width="42.7" height="291.7" fill="#93c5fd" stroke="#60a5fa" stroke-width="0.5"/><rect x="1154.3" y="338.3" width="42.7" height="25.7" fill="#93c5fd" stroke="#60a5fa" stroke-width="0.5"/><polyline fill="none" stroke="#ef4444" stroke-width="2" points="102.4,363.1 147.1,362.9 191.8,362.2 236.5,360.7 281.2,360.4 326.0,360.2 370.7,360.0 415.4,359.8 460.1,359.3 504.8,356.2 549.6,348.7 594.3,347.1 639.0,343.4 683.7,336.5 728.4,330.5 773.2,323.8 817.9,316.3 862.6,302.3 907.3,269.9 952.0,223.5 996.8,197.8 1041.5,146.5 1086.2,104.1 1130.9,56.2 1175.6,52.0"/><line x1="102.4" y1="364.0" x2="102.4" y2="370.0" stroke="#111827" stroke-width="1"/><text x="104.4" y="386.0" font-size="11" text-anchor="end" transform="rotate(-35 104.4 386.0)" font-family="sans-serif" fill="#374151">2022-10</text><line x1="236.5" y1="364.0" x2="236.5" y2="370.0" stroke="#111827" stroke-width="1"/><text x="238.5" y="386.0" font-size="11" text-anchor="end" transform="rotate(-35 238.5 386.0)" font-family="sans-serif" fill="#374151">2023-03</text><line x1="415.4" y1="364.0" x2="415.4" y2="370.0" stroke="#111827" stroke-width="1"/><text x="417.4" y="386.0" font-size="11" text-anchor="end" transform="rotate(-35 417.4 386.0)" font-family="sans-serif" fill="#374151">2024-09</text><line x1="549.6" y1="364.0" x2="549.6" y2="370.0" stroke="#111827" stroke-width="1"/><text x="551.6" y="386.0" font-size="11" text-anchor="end" transform="rotate(-35 551.6 386.0)" font-family="sans-serif" fill="#374151">2025-02</text><line x1="728.4" y1="364.0" x2="728.4" y2="370.0" stroke="#111827" stroke-width="1"/><text x="730.4" y="386.0" font-size="11" text-anchor="end" transform="rotate(-35 730.4 386.0)" font-family="sans-serif" fill="#374151">2025-06</text><line x1="862.6" y1="364.0" x2="862.6" y2="370.0" stroke="#111827" stroke-width="1"/><text x="864.6" y="386.0" font-size="11" text-anchor="end" transform="rotate(-35 864.6 386.0)" font-family="sans-serif" fill="#374151">2025-09</text><line x1="1041.5" y1="364.0" x2="1041.5" y2="370.0" stroke="#111827" stroke-width="1"/><text x="1043.5" y="386.0" font-size="11" text-anchor="end" transform="rotate(-35 1043.5 386.0)" font-family="sans-serif" fill="#374151">2026-01</text><line x1="1175.6" y1="364.0" x2="1175.6" y2="370.0" stroke="#111827" stroke-width="1"/><text x="1177.6" y="386.0" font-size="11" text-anchor="end" transform="rotate(-35 1177.6 386.0)" font-family="sans-serif" fill="#374151">2026-04</text><text x="26" y="208.0" font-size="12" transform="rotate(-90 26 208.0)" text-anchor="middle" font-family="sans-serif" fill="#1f2937">구간별 수</text><text x="1256.0" y="208.0" font-size="12" transform="rotate(90 1256.0 208.0)" text-anchor="middle" font-family="sans-serif" fill="#1f2937">누적</text><text x="639.0" y="442.0" font-size="13" text-anchor="middle" font-family="sans-serif" fill="#111827">월</text></svg>