<svg xmlns="http://www.w3.org/2000/svg" width="1280" height="460" viewBox="0 0 1280 460"><rect x="0" y="0" width="100%" height="100%" fill="#ffffff"/><text x="640.0" y="28" font-size="20" text-anchor="middle" font-family="sans-serif" fill="#111827">시리즈 / 최근 반영 시점 / 시간별</text><line x1="80.0" y1="52.0" x2="1198.0" y2="52.0" stroke="#e5e7eb" stroke-width="1"/><text x="72.0" y="56.0" font-size="11" text-anchor="end" font-family="sans-serif" fill="#374151">1,097</text><text x="1206.0" y="56.0" font-size="11" text-anchor="start" font-family="sans-serif" fill="#374151">1,444</text><line x1="80.0" y1="114.4" x2="1198.0" y2="114.4" stroke="#e5e7eb" stroke-width="1"/><text x="72.0" y="118.4" font-size="11" text-anchor="end" font-family="sans-serif" fill="#374151">878</text><text x="1206.0" y="118.4" font-size="11" text-anchor="start" font-family="sans-serif" fill="#374151">1,155</text><line x1="80.0" y1="176.8" x2="1198.0" y2="176.8" stroke="#e5e7eb" stroke-width="1"/><text x="72.0" y="180.8" font-size="11" text-anchor="end" font-family="sans-serif" fill="#374151">658</text><text x="1206.0" y="180.8" font-size="11" text-anchor="start" font-family="sans-serif" fill="#374151">866</text><line x1="80.0" y1="239.2" x2="1198.0" y2="239.2" stroke="#e5e7eb" stroke-width="1"/><text x="72.0" y="243.2" font-size="11" text-anchor="end" font-family="sans-serif" fill="#374151">439</text><text x="1206.0" y="243.2" font-size="11" text-anchor="start" font-family="sans-serif" fill="#374151">578</text><line x1="80.0" y1="301.6" x2="1198.0" y2="301.6" stroke="#e5e7eb" stroke-width="1"/><text x="72.0" y="305.6" font-size="11" text-anchor="end" font-family="sans-serif" fill="#374151">219</text><text x="1206.0" y="305.6" font-size="11" text-anchor="start" font-family="sans-serif" fill="#374151">289</text><line x1="80.0" y1="364.0" x2="1198.0" y2="364.0" stroke="#e5e7eb" stroke-width="1"/><text x="72.0" y="368.0" font-size="11" text-anchor="end" font-family="sans-serif" fill="#374151">0</text><text x="1206.0" y="368.0" font-size="11" text-anchor="start" font-family="sans-serif" fill="#374151">0</text><line x1="80.0" y1="364.0" x2="1198.0" y2="364.0" stroke="#111827" stroke-width="1.2"/><line x1="80.0" y1="52.0" x2="80.0" y2="364.0" stroke="#111827" stroke-width="1.2"/><line x1="1198.0" y1="52.0" x2="1198.0" y2="364.0" stroke="#111827" stroke-width="1.2"/><rect x="81.0" y="363.7" width="36.6" height="0.3" fill="#93c5fd" stroke="#60a5fa" stroke-width="0.5"/><rect x="119.6" y="363.1" width="36.6" height="0.9" fill="#93c5fd" stroke="#60a5fa" stroke-width="0.5"/><rect x="158.1" y="356.6" width="36.6" height="7.4" fill="#93c5fd" stroke="#60a5fa" stroke-width="0.5"/><rect x="196.7" y="356.3" width="36.6" height="7.7" fill="#93c5fd" stroke="#60a5fa" stroke-width="0.5"/><rect x="235.2" y="363.7" width="36.6" height="0.3" fill="#93c5fd" stroke="#60a5fa" stroke-width="0.5"/><rect x="273.8" y="363.7" width="36.6" height="0.3" fill="#93c5fd" stroke="#60a5fa" stroke-width="0.5"/><rect x="312.3" y="363.7" width="36.6" height="0.3" fill="#93c5fd" stroke="#60a5fa" stroke-width="0.5"/><rect x="350.9" y="363.7" width="36.6" height="0.3" fill="#93c5fd" stroke="#60a5fa" stroke-width="0.5"/><rect x="389.4" y="363.7" width="36.6" height="0.3" fill="#93c5fd" stroke="#60a5fa" stroke-width="0.5"/><rect x="428.0" y="363.7" width="36.6" height="0.3" fill="#93c5fd" stroke="#60a5fa" stroke-width="0.5"/><rect x="466.5" y="363.7" width="36.6" height="0.3" fill="#93c5fd" stroke="#60a5fa" stroke-width="0.5"/><rect x="505.1" y="363.7" width="36.6" height="0.3" fill="#93c5fd" stroke="#60a5fa" stroke-width="0.5"/><rect x="543.6" y="363.4" width="36.6" height="0.6" fill="#93c5fd" stroke="#60a5fa" stroke-width="0.5"/><rect x="582.2" y="363.4" width="36.6" height="0.6" fill="#93c5fd" stroke="#60a5fa" stroke-width="0.5"/><rect x="620.7" y="363.4" width="36.6" height="0.6" fill="#93c5fd" stroke="#60a5fa" stroke-width="0.5"/><rect x="659.3" y="363.7" width="36.6" height="0.3" fill="#93c5fd" stroke="#60a5fa" stroke-width="0.5"/><rect x="697.8" y="363.7" width="36.6" height="0.3" fill="#93c5fd" stroke="#60a5fa" stroke-width="0.5"/><rect x="736.4" y="363.7" width="36.6" height="0.3" fill="#93c5fd" stroke="#60a5fa" stroke-width="0.5"/><rect x="774.9" y="363.4" width="36.6" height="0.6" fill="#93c5fd" stroke="#60a5fa" stroke-width="0.5"/><rect x="813.5" y="363.4" width="36.6" height="0.6" fill="#93c5fd" stroke="#60a5fa" stroke-width="0.5"/><rect x="852.0" y="362.9" width="36.6" height="1.1" fill="#93c5fd" stroke="#60a5fa" stroke-width="0.5"/><rect x="890.6" y="363.7" width="36.6" height="0.3" fill="#93c5fd" stroke="#60a5fa" stroke-width="0.5"/><rect x="929.1" y="363.1" width="36.6" height="0.9" fill="#93c5fd" stroke="#60a5fa" stroke-width="0.5"/><rect x="967.7" y="363.4" width="36.6" height="0.6" fill="#93c5fd" stroke="#60a5fa" stroke-width="0.5"/><rect x="1006.2" y="363.7" width="36.6" height="0.3" fill="#93c5fd" stroke="#60a5fa" stroke-width="0.5"/><rect x="1044.8" y="363.1" width="36.6" height="0.9" fill="#93c5fd" stroke="#60a5fa" stroke-width="0.5"/><rect x="1083.3" y="356.3" width="36.6" height="7.7" fill="#93c5fd" stroke="#60a5fa" stroke-width="0.5"/><rect x="1121.9" y="52.0" width="36.6" height="312.0" fill="#93c5fd" stroke="#60a5fa" stroke-width="0.5"/><rect x="1160.4" y="299.2" width="36.6" height="64.8" fill="#93c5fd" stroke="#60a5fa" stroke-width="0.5"/><polyline fill="none" stroke="#ef4444" stroke-width="2" points="99.3,363.8 137.8,363.1 176.4,357.5 214.9,351.7 253.5,351.5 292.0,351.3 330.6,351.0 369.1,350.8 407.7,350.6 446.2,350.4 484.8,350.2 523.3,350.0 561.9,349.5 600.4,349.1 639.0,348.7 677.6,348.4 716.1,348.2 754.7,348.0 793.2,347.6 831.8,347.1 870.3,346.3 908.9,346.1 947.4,345.4 986.0,345.0 1024.5,344.8 1063.1,344.1 1101.6,338.3 1140.2,101.3 1178.7,52.0"/><line x1="99.3" y1="364.0" x2="99.3" y2="370.0" stroke="#111827" stroke-width="1"/><text x="101.3" y="386.0" font-size="11" text-anchor="end" transform="rotate(-35 101.3 386.0)" font-family="sans-serif" fill="#374151">2026-04-16 23:00</text><line x1="253.5" y1="364.0" x2="253.5" y2="370.0" stroke="#111827" stroke-width="1"/><text x="255.5" y="386.0" font-size="11" text-anchor="end" transform="rotate(-35 255.5 386.0)" font-family="sans-serif" fill="#374151">2026-04-19 11:00</text><line x1="407.7" y1="364.0" x2="407.7" y2="370.0" stroke="#111827" stroke-width="1"/><text x="409.7" y="386.0" font-size="11" text-anchor="end" transform="rotate(-35 409.7 386.0)" font-family="sans-serif" fill="#374151">2026-04-19 23:00</text><line x1="561.9" y1="364.0" x2="561.9" y2="370.0" stroke="#111827" stroke-width="1"/><text x="563.9" y="386.0" font-size="11" text-anchor="end" transform="rotate(-35 563.9 386.0)" font-family="sans-serif" fill="#374151">2026-04-20 16:00</text><line x1="716.1" y1="364.0" x2="716.1" y2="370.0" stroke="#111827" stroke-width="1"/><text x="718.1" y="386.0" font-size="11" text-anchor="end" transform="rotate(-35 718.1 386.0)" font-family="sans-serif" fill="#374151">2026-04-21 03:00</text><line x1="870.3" y1="364.0" x2="870.3" y2="370.0" stroke="#111827" stroke-width="1"/><text x="872.3" y="386.0" font-size="11" text-anchor="end" transform="rotate(-35 872.3 386.0)" font-family="sans-serif" fill="#374151">2026-04-21 11:00</text><line x1="1024.5" y1="364.0" x2="1024.5" y2="370.0" stroke="#111827" stroke-width="1"/><text x="1026.5" y="386.0" font-size="11" text-anchor="end" transform="rotate(-35 1026.5 386.0)" font-family="sans-serif" fill="#374151">2026-04-21 22:00</text><line x1="1178.7" y1="364.0" x2="1178.7" y2="370.0" stroke="#111827" stroke-width="1"/><text x="1180.7" y="386.0" font-size="11" text-anchor="end" transform="rotate(-35 1180.7 386.0)" font-family="sans-serif" fill="#374151">2026-04-22 04:00</text><text x="26" y="208.0" font-size="12" transform="rotate(-90 26 208.0)" text-anchor="middle" font-family="sans-serif" fill="#1f2937">구간별 수</text><text x="1256.0" y="208.0" font-size="12" transform="rotate(90 1256.0 208.0)" text-anchor="middle" font-family="sans-serif" fill="#1f2937">누적</text><text x="639.0" y="442.0" font-size="13" text-anchor="middle" font-family="sans-serif" fill="#111827">시간</text></svg>