<svg xmlns="http://www.w3.org/2000/svg" width="1280" height="460" viewBox="0 0 1280 460"><rect x="0" y="0" width="100%" height="100%" fill="#ffffff"/><text x="640.0" y="28" font-size="20" text-anchor="middle" font-family="sans-serif" fill="#111827">시리즈 / 최근 반영 시점 / 시간별</text><line x1="80.0" y1="52.0" x2="1198.0" y2="52.0" stroke="#e5e7eb" stroke-width="1"/><text x="72.0" y="56.0" font-size="11" text-anchor="end" font-family="sans-serif" fill="#374151">1,326</text><text x="1206.0" y="56.0" font-size="11" text-anchor="start" font-family="sans-serif" fill="#374151">1,435</text><line x1="80.0" y1="114.4" x2="1198.0" y2="114.4" stroke="#e5e7eb" stroke-width="1"/><text x="72.0" y="118.4" font-size="11" text-anchor="end" font-family="sans-serif" fill="#374151">1,061</text><text x="1206.0" y="118.4" font-size="11" text-anchor="start" font-family="sans-serif" fill="#374151">1,148</text><line x1="80.0" y1="176.8" x2="1198.0" y2="176.8" stroke="#e5e7eb" stroke-width="1"/><text x="72.0" y="180.8" font-size="11" text-anchor="end" font-family="sans-serif" fill="#374151">796</text><text x="1206.0" y="180.8" font-size="11" text-anchor="start" font-family="sans-serif" fill="#374151">861</text><line x1="80.0" y1="239.2" x2="1198.0" y2="239.2" stroke="#e5e7eb" stroke-width="1"/><text x="72.0" y="243.2" font-size="11" text-anchor="end" font-family="sans-serif" fill="#374151">530</text><text x="1206.0" y="243.2" font-size="11" text-anchor="start" font-family="sans-serif" fill="#374151">574</text><line x1="80.0" y1="301.6" x2="1198.0" y2="301.6" stroke="#e5e7eb" stroke-width="1"/><text x="72.0" y="305.6" font-size="11" text-anchor="end" font-family="sans-serif" fill="#374151">265</text><text x="1206.0" y="305.6" font-size="11" text-anchor="start" font-family="sans-serif" fill="#374151">287</text><line x1="80.0" y1="364.0" x2="1198.0" y2="364.0" stroke="#e5e7eb" stroke-width="1"/><text x="72.0" y="368.0" font-size="11" text-anchor="end" font-family="sans-serif" fill="#374151">0</text><text x="1206.0" y="368.0" font-size="11" text-anchor="start" font-family="sans-serif" fill="#374151">0</text><line x1="80.0" y1="364.0" x2="1198.0" y2="364.0" stroke="#111827" stroke-width="1.2"/><line x1="80.0" y1="52.0" x2="80.0" y2="364.0" stroke="#111827" stroke-width="1.2"/><line x1="1198.0" y1="52.0" x2="1198.0" y2="364.0" stroke="#111827" stroke-width="1.2"/><rect x="81.0" y="363.8" width="77.9" height="0.2" fill="#93c5fd" stroke="#60a5fa" stroke-width="0.5"/><rect x="160.9" y="362.1" width="77.9" height="1.9" fill="#93c5fd" stroke="#60a5fa" stroke-width="0.5"/><rect x="240.7" y="363.8" width="77.9" height="0.2" fill="#93c5fd" stroke="#60a5fa" stroke-width="0.5"/><rect x="320.6" y="363.8" width="77.9" height="0.2" fill="#93c5fd" stroke="#60a5fa" stroke-width="0.5"/><rect x="400.4" y="363.3" width="77.9" height="0.7" fill="#93c5fd" stroke="#60a5fa" stroke-width="0.5"/><rect x="480.3" y="363.8" width="77.9" height="0.2" fill="#93c5fd" stroke="#60a5fa" stroke-width="0.5"/><rect x="560.1" y="349.4" width="77.9" height="14.6" fill="#93c5fd" stroke="#60a5fa" stroke-width="0.5"/><rect x="640.0" y="363.5" width="77.9" height="0.5" fill="#93c5fd" stroke="#60a5fa" stroke-width="0.5"/><rect x="719.9" y="363.1" width="77.9" height="0.9" fill="#93c5fd" stroke="#60a5fa" stroke-width="0.5"/><rect x="799.7" y="363.8" width="77.9" height="0.2" fill="#93c5fd" stroke="#60a5fa" stroke-width="0.5"/><rect x="879.6" y="362.8" width="77.9" height="1.2" fill="#93c5fd" stroke="#60a5fa" stroke-width="0.5"/><rect x="959.4" y="362.6" width="77.9" height="1.4" fill="#93c5fd" stroke="#60a5fa" stroke-width="0.5"/><rect x="1039.3" y="360.7" width="77.9" height="3.3" fill="#93c5fd" stroke="#60a5fa" stroke-width="0.5"/><rect x="1119.1" y="52.0" width="77.9" height="312.0" fill="#93c5fd" stroke="#60a5fa" stroke-width="0.5"/><polyline fill="none" stroke="#ef4444" stroke-width="2" points="119.9,363.8 199.8,362.0 279.6,361.8 359.5,361.6 439.4,361.0 519.2,360.7 599.1,347.3 678.9,346.8 758.8,346.0 838.6,345.7 918.5,344.6 998.4,343.3 1078.2,340.3 1158.1,52.0"/><line x1="119.9" y1="364.0" x2="119.9" y2="370.0" stroke="#111827" stroke-width="1"/><text x="121.9" y="386.0" font-size="11" text-anchor="end" transform="rotate(-35 121.9 386.0)" font-family="sans-serif" fill="#374151">2026-04-16 23:00</text><line x1="279.6" y1="364.0" x2="279.6" y2="370.0" stroke="#111827" stroke-width="1"/><text x="281.6" y="386.0" font-size="11" text-anchor="end" transform="rotate(-35 281.6 386.0)" font-family="sans-serif" fill="#374151">2026-04-17 02:00</text><line x1="439.4" y1="364.0" x2="439.4" y2="370.0" stroke="#111827" stroke-width="1"/><text x="441.4" y="386.0" font-size="11" text-anchor="end" transform="rotate(-35 441.4 386.0)" font-family="sans-serif" fill="#374151">2026-04-17 06:00</text><line x1="599.1" y1="364.0" x2="599.1" y2="370.0" stroke="#111827" stroke-width="1"/><text x="601.1" y="386.0" font-size="11" text-anchor="end" transform="rotate(-35 601.1 386.0)" font-family="sans-serif" fill="#374151">2026-04-17 10:00</text><line x1="678.9" y1="364.0" x2="678.9" y2="370.0" stroke="#111827" stroke-width="1"/><text x="680.9" y="386.0" font-size="11" text-anchor="end" transform="rotate(-35 680.9 386.0)" font-family="sans-serif" fill="#374151">2026-04-17 11:00</text><line x1="838.6" y1="364.0" x2="838.6" y2="370.0" stroke="#111827" stroke-width="1"/><text x="840.6" y="386.0" font-size="11" text-anchor="end" transform="rotate(-35 840.6 386.0)" font-family="sans-serif" fill="#374151">2026-04-17 14:00</text><line x1="998.4" y1="364.0" x2="998.4" y2="370.0" stroke="#111827" stroke-width="1"/><text x="1000.4" y="386.0" font-size="11" text-anchor="end" transform="rotate(-35 1000.4 386.0)" font-family="sans-serif" fill="#374151">2026-04-17 17:00</text><line x1="1158.1" y1="364.0" x2="1158.1" y2="370.0" stroke="#111827" stroke-width="1"/><text x="1160.1" y="386.0" font-size="11" text-anchor="end" transform="rotate(-35 1160.1 386.0)" font-family="sans-serif" fill="#374151">2026-04-17 19:00</text><text x="26" y="208.0" font-size="12" transform="rotate(-90 26 208.0)" text-anchor="middle" font-family="sans-serif" fill="#1f2937">구간별 수</text><text x="1256.0" y="208.0" font-size="12" transform="rotate(90 1256.0 208.0)" text-anchor="middle" font-family="sans-serif" fill="#1f2937">누적</text><text x="639.0" y="442.0" font-size="13" text-anchor="middle" font-family="sans-serif" fill="#111827">시간</text></svg>