<svg xmlns="http://www.w3.org/2000/svg" width="1280" height="460" viewBox="0 0 1280 460"><rect x="0" y="0" width="100%" height="100%" fill="#ffffff"/><text x="640.0" y="28" font-size="20" text-anchor="middle" font-family="sans-serif" fill="#111827">시리즈 / 생성 시점 / 일별</text><line x1="80.0" y1="52.0" x2="1198.0" y2="52.0" stroke="#e5e7eb" stroke-width="1"/><text x="72.0" y="56.0" font-size="11" text-anchor="end" font-family="sans-serif" fill="#374151">70</text><text x="1206.0" y="56.0" font-size="11" text-anchor="start" font-family="sans-serif" fill="#374151">1,457</text><line x1="80.0" y1="114.4" x2="1198.0" y2="114.4" stroke="#e5e7eb" stroke-width="1"/><text x="72.0" y="118.4" font-size="11" text-anchor="end" font-family="sans-serif" fill="#374151">56</text><text x="1206.0" y="118.4" font-size="11" text-anchor="start" font-family="sans-serif" fill="#374151">1,166</text><line x1="80.0" y1="176.8" x2="1198.0" y2="176.8" stroke="#e5e7eb" stroke-width="1"/><text x="72.0" y="180.8" font-size="11" text-anchor="end" font-family="sans-serif" fill="#374151">42</text><text x="1206.0" y="180.8" font-size="11" text-anchor="start" font-family="sans-serif" fill="#374151">874</text><line x1="80.0" y1="239.2" x2="1198.0" y2="239.2" stroke="#e5e7eb" stroke-width="1"/><text x="72.0" y="243.2" font-size="11" text-anchor="end" font-family="sans-serif" fill="#374151">28</text><text x="1206.0" y="243.2" font-size="11" text-anchor="start" font-family="sans-serif" fill="#374151">583</text><line x1="80.0" y1="301.6" x2="1198.0" y2="301.6" stroke="#e5e7eb" stroke-width="1"/><text x="72.0" y="305.6" font-size="11" text-anchor="end" font-family="sans-serif" fill="#374151">14</text><text x="1206.0" y="305.6" font-size="11" text-anchor="start" font-family="sans-serif" fill="#374151">291</text><line x1="80.0" y1="364.0" x2="1198.0" y2="364.0" stroke="#e5e7eb" stroke-width="1"/><text x="72.0" y="368.0" font-size="11" text-anchor="end" font-family="sans-serif" fill="#374151">0</text><text x="1206.0" y="368.0" font-size="11" text-anchor="start" font-family="sans-serif" fill="#374151">0</text><line x1="80.0" y1="364.0" x2="1198.0" y2="364.0" stroke="#111827" stroke-width="1.2"/><line x1="80.0" y1="52.0" x2="80.0" y2="364.0" stroke="#111827" stroke-width="1.2"/><line x1="1198.0" y1="52.0" x2="1198.0" y2="364.0" stroke="#111827" stroke-width="1.2"/><rect x="80.0" y="346.2" width="4.2" height="17.8" fill="#93c5fd" stroke="#60a5fa" stroke-width="0.5"/><rect x="84.2" y="359.5" width="4.2" height="4.5" fill="#93c5fd" stroke="#60a5fa" stroke-width="0.5"/><rect x="88.4" y="359.5" width="4.2" height="4.5" fill="#93c5fd" stroke="#60a5fa" stroke-width="0.5"/><rect x="92.6" y="355.1" width="4.2" height="8.9" fill="#93c5fd" stroke="#60a5fa" stroke-width="0.5"/><rect x="96.7" y="359.5" width="4.2" height="4.5" fill="#93c5fd" stroke="#60a5fa" stroke-width="0.5"/><rect x="100.9" y="350.6" width="4.2" height="13.4" fill="#93c5fd" stroke="#60a5fa" stroke-width="0.5"/><rect x="105.1" y="359.5" width="4.2" height="4.5" fill="#93c5fd" stroke="#60a5fa" stroke-width="0.5"/><rect x="109.3" y="359.5" width="4.2" height="4.5" fill="#93c5fd" stroke="#60a5fa" stroke-width="0.5"/><rect x="113.5" y="359.5" width="4.2" height="4.5" fill="#93c5fd" stroke="#60a5fa" stroke-width="0.5"/><rect x="117.7" y="359.5" width="4.2" height="4.5" fill="#93c5fd" stroke="#60a5fa" stroke-width="0.5"/><rect x="121.9" y="359.5" width="4.2" height="4.5" fill="#93c5fd" stroke="#60a5fa" stroke-width="0.5"/><rect x="126.1" y="359.5" width="4.2" height="4.5" fill="#93c5fd" stroke="#60a5fa" stroke-width="0.5"/><rect x="130.2" y="359.5" width="4.2" height="4.5" fill="#93c5fd" stroke="#60a5fa" stroke-width="0.5"/><rect x="134.4" y="355.1" width="4.2" height="8.9" fill="#93c5fd" stroke="#60a5fa" stroke-width="0.5"/><rect x="138.6" y="346.2" width="4.2" height="17.8" fill="#93c5fd" stroke="#60a5fa" stroke-width="0.5"/><rect x="142.8" y="359.5" width="4.2" height="4.5" fill="#93c5fd" stroke="#60a5fa" stroke-width="0.5"/><rect x="147.0" y="359.5" width="4.2" height="4.5" fill="#93c5fd" stroke="#60a5fa" stroke-width="0.5"/><rect x="151.2" y="350.6" width="4.2" height="13.4" fill="#93c5fd" stroke="#60a5fa" stroke-width="0.5"/><rect x="155.4" y="341.7" width="4.2" height="22.3" fill="#93c5fd" stroke="#60a5fa" stroke-width="0.5"/><rect x="159.6" y="306.1" width="4.2" height="57.9" fill="#93c5fd" stroke="#60a5fa" stroke-width="0.5"/><rect x="163.7" y="355.1" width="4.2" height="8.9" fill="#93c5fd" stroke="#60a5fa" stroke-width="0.5"/><rect x="167.9" y="350.6" width="4.2" height="13.4" fill="#93c5fd" stroke="#60a5fa" stroke-width="0.5"/><rect x="172.1" y="359.5" width="4.2" height="4.5" fill="#93c5fd" stroke="#60a5fa" stroke-width="0.5"/><rect x="176.3" y="350.6" width="4.2" height="13.4" fill="#93c5fd" stroke="#60a5fa" stroke-width="0.5"/><rect x="180.5" y="359.5" width="4.2" height="4.5" fill="#93c5fd" stroke="#60a5fa" stroke-width="0.5"/><rect x="184.7" y="341.7" width="4.2" height="22.3" fill="#93c5fd" stroke="#60a5fa" stroke-width="0.5"/><rect x="188.9" y="359.5" width="4.2" height="4.5" fill="#93c5fd" stroke="#60a5fa" stroke-width="0.5"/><rect x="193.1" y="359.5" width="4.2" height="4.5" fill="#93c5fd" stroke="#60a5fa" stroke-width="0.5"/><rect x="197.2" y="359.5" width="4.2" height="4.5" fill="#93c5fd" stroke="#60a5fa" stroke-width="0.5"/><rect x="201.4" y="359.5" width="4.2" height="4.5" fill="#93c5fd" stroke="#60a5fa" stroke-width="0.5"/><rect x="205.6" y="359.5" width="4.2" height="4.5" fill="#93c5fd" stroke="#60a5fa" stroke-width="0.5"/><rect x="209.8" y="359.5" width="4.2" height="4.5" fill="#93c5fd" stroke="#60a5fa" stroke-width="0.5"/><rect x="214.0" y="359.5" width="4.2" height="4.5" fill="#93c5fd" stroke="#60a5fa" stroke-width="0.5"/><rect x="218.2" y="359.5" width="4.2" height="4.5" fill="#93c5fd" stroke="#60a5fa" stroke-width="0.5"/><rect x="222.4" y="359.5" width="4.2" height="4.5" fill="#93c5fd" stroke="#60a5fa" stroke-width="0.5"/><rect x="226.6" y="359.5" width="4.2" height="4.5" fill="#93c5fd" stroke="#60a5fa" stroke-width="0.5"/><rect x="230.7" y="359.5" width="4.2" height="4.5" fill="#93c5fd" stroke="#60a5fa" stroke-width="0.5"/><rect x="234.9" y="359.5" width="4.2" height="4.5" fill="#93c5fd" stroke="#60a5fa" stroke-width="0.5"/><rect x="239.1" y="359.5" width="4.2" height="4.5" fill="#93c5fd" stroke="#60a5fa" stroke-width="0.5"/><rect x="243.3" y="359.5" width="4.2" height="4.5" fill="#93c5fd" stroke="#60a5fa" stroke-width="0.5"/><rect x="247.5" y="350.6" width="4.2" height="13.4" fill="#93c5fd" stroke="#60a5fa" stroke-width="0.5"/><rect x="251.7" y="359.5" width="4.2" height="4.5" fill="#93c5fd" stroke="#60a5fa" stroke-width="0.5"/><rect x="255.9" y="359.5" width="4.2" height="4.5" fill="#93c5fd" stroke="#60a5fa" stroke-width="0.5"/><rect x="260.1" y="315.0" width="4.2" height="49.0" fill="#93c5fd" stroke="#60a5fa" stroke-width="0.5"/><rect x="264.2" y="359.5" width="4.2" height="4.5" fill="#93c5fd" stroke="#60a5fa" stroke-width="0.5"/><rect x="268.4" y="337.3" width="4.2" height="26.7" fill="#93c5fd" stroke="#60a5fa" stroke-width="0.5"/><rect x="272.6" y="328.3" width="4.2" height="35.7" fill="#93c5fd" stroke="#60a5fa" stroke-width="0.5"/><rect x="276.8" y="359.5" width="4.2" height="4.5" fill="#93c5fd" stroke="#60a5fa" stroke-width="0.5"/><rect x="281.0" y="355.1" width="4.2" height="8.9" fill="#93c5fd" stroke="#60a5fa" stroke-width="0.5"/><rect x="285.2" y="350.6" width="4.2" height="13.4" fill="#93c5fd" stroke="#60a5fa" stroke-width="0.5"/><rect x="289.4" y="355.1" width="4.2" height="8.9" fill="#93c5fd" stroke="#60a5fa" stroke-width="0.5"/><rect x="293.6" y="355.1" width="4.2" height="8.9" fill="#93c5fd" stroke="#60a5fa" stroke-width="0.5"/><rect x="297.7" y="350.6" width="4.2" height="13.4" fill="#93c5fd" stroke="#60a5fa" stroke-width="0.5"/><rect x="301.9" y="359.5" width="4.2" height="4.5" fill="#93c5fd" stroke="#60a5fa" stroke-width="0.5"/><rect x="306.1" y="359.5" width="4.2" height="4.5" fill="#93c5fd" stroke="#60a5fa" stroke-width="0.5"/><rect x="310.3" y="359.5" width="4.2" height="4.5" fill="#93c5fd" stroke="#60a5fa" stroke-width="0.5"/><rect x="314.5" y="359.5" width="4.2" height="4.5" fill="#93c5fd" stroke="#60a5fa" stroke-width="0.5"/><rect x="318.7" y="350.6" width="4.2" height="13.4" fill="#93c5fd" stroke="#60a5fa" stroke-width="0.5"/><rect x="322.9" y="359.5" width="4.2" height="4.5" fill="#93c5fd" stroke="#60a5fa" stroke-width="0.5"/><rect x="327.0" y="328.3" width="4.2" height="35.7" fill="#93c5fd" stroke="#60a5fa" stroke-width="0.5"/><rect x="331.2" y="359.5" width="4.2" height="4.5" fill="#93c5fd" stroke="#60a5fa" stroke-width="0.5"/><rect x="335.4" y="359.5" width="4.2" height="4.5" fill="#93c5fd" stroke="#60a5fa" stroke-width="0.5"/><rect x="339.6" y="359.5" width="4.2" height="4.5" fill="#93c5fd" stroke="#60a5fa" stroke-width="0.5"/><rect x="343.8" y="350.6" width="4.2" height="13.4" fill="#93c5fd" stroke="#60a5fa" stroke-width="0.5"/><rect x="348.0" y="359.5" width="4.2" height="4.5" fill="#93c5fd" stroke="#60a5fa" stroke-width="0.5"/><rect x="352.2" y="359.5" width="4.2" height="4.5" fill="#93c5fd" stroke="#60a5fa" stroke-width="0.5"/><rect x="356.4" y="355.1" width="4.2" height="8.9" fill="#93c5fd" stroke="#60a5fa" stroke-width="0.5"/><rect x="360.5" y="350.6" width="4.2" height="13.4" fill="#93c5fd" stroke="#60a5fa" stroke-width="0.5"/><rect x="364.7" y="359.5" width="4.2" height="4.5" fill="#93c5fd" stroke="#60a5fa" stroke-width="0.5"/><rect x="368.9" y="350.6" width="4.2" height="13.4" fill="#93c5fd" stroke="#60a5fa" stroke-width="0.5"/><rect x="373.1" y="355.1" width="4.2" height="8.9" fill="#93c5fd" stroke="#60a5fa" stroke-width="0.5"/><rect x="377.3" y="350.6" width="4.2" height="13.4" fill="#93c5fd" stroke="#60a5fa" stroke-width="0.5"/><rect x="381.5" y="359.5" width="4.2" height="4.5" fill="#93c5fd" stroke="#60a5fa" stroke-width="0.5"/><rect x="385.7" y="319.4" width="4.2" height="44.6" fill="#93c5fd" stroke="#60a5fa" stroke-width="0.5"/><rect x="389.9" y="346.2" width="4.2" height="17.8" fill="#93c5fd" stroke="#60a5fa" stroke-width="0.5"/><rect x="394.0" y="346.2" width="4.2" height="17.8" fill="#93c5fd" stroke="#60a5fa" stroke-width="0.5"/><rect x="398.2" y="359.5" width="4.2" height="4.5" fill="#93c5fd" stroke="#60a5fa" stroke-width="0.5"/><rect x="402.4" y="359.5" width="4.2" height="4.5" fill="#93c5fd" stroke="#60a5fa" stroke-width="0.5"/><rect x="406.6" y="359.5" width="4.2" height="4.5" fill="#93c5fd" stroke="#60a5fa" stroke-width="0.5"/><rect x="410.8" y="355.1" width="4.2" height="8.9" fill="#93c5fd" stroke="#60a5fa" stroke-width="0.5"/><rect x="415.0" y="355.1" width="4.2" height="8.9" fill="#93c5fd" stroke="#60a5fa" stroke-width="0.5"/><rect x="419.2" y="350.6" width="4.2" height="13.4" fill="#93c5fd" stroke="#60a5fa" stroke-width="0.5"/><rect x="423.4" y="355.1" width="4.2" height="8.9" fill="#93c5fd" stroke="#60a5fa" stroke-width="0.5"/><rect x="427.5" y="350.6" width="4.2" height="13.4" fill="#93c5fd" stroke="#60a5fa" stroke-width="0.5"/><rect x="431.7" y="359.5" width="4.2" height="4.5" fill="#93c5fd" stroke="#60a5fa" stroke-width="0.5"/><rect x="435.9" y="355.1" width="4.2" height="8.9" fill="#93c5fd" stroke="#60a5fa" stroke-width="0.5"/><rect x="440.1" y="359.5" width="4.2" height="4.5" fill="#93c5fd" stroke="#60a5fa" stroke-width="0.5"/><rect x="444.3" y="337.3" width="4.2" height="26.7" fill="#93c5fd" stroke="#60a5fa" stroke-width="0.5"/><rect x="448.5" y="359.5" width="4.2" height="4.5" fill="#93c5fd" stroke="#60a5fa" stroke-width="0.5"/><rect x="452.7" y="359.5" width="4.2" height="4.5" fill="#93c5fd" stroke="#60a5fa" stroke-width="0.5"/><rect x="456.9" y="359.5" width="4.2" height="4.5" fill="#93c5fd" stroke="#60a5fa" stroke-width="0.5"/><rect x="461.0" y="359.5" width="4.2" height="4.5" fill="#93c5fd" stroke="#60a5fa" stroke-width="0.5"/><rect x="465.2" y="359.5" width="4.2" height="4.5" fill="#93c5fd" stroke="#60a5fa" stroke-width="0.5"/><rect x="469.4" y="337.3" width="4.2" height="26.7" fill="#93c5fd" stroke="#60a5fa" stroke-width="0.5"/><rect x="473.6" y="359.5" width="4.2" height="4.5" fill="#93c5fd" stroke="#60a5fa" stroke-width="0.5"/><rect x="477.8" y="346.2" width="4.2" height="17.8" fill="#93c5fd" stroke="#60a5fa" stroke-width="0.5"/><rect x="482.0" y="319.4" width="4.2" height="44.6" fill="#93c5fd" stroke="#60a5fa" stroke-width="0.5"/><rect x="486.2" y="328.3" width="4.2" height="35.7" fill="#93c5fd" stroke="#60a5fa" stroke-width="0.5"/><rect x="490.4" y="355.1" width="4.2" height="8.9" fill="#93c5fd" stroke="#60a5fa" stroke-width="0.5"/><rect x="494.5" y="355.1" width="4.2" height="8.9" fill="#93c5fd" stroke="#60a5fa" stroke-width="0.5"/><rect x="498.7" y="355.1" width="4.2" height="8.9" fill="#93c5fd" stroke="#60a5fa" stroke-width="0.5"/><rect x="502.9" y="355.1" width="4.2" height="8.9" fill="#93c5fd" stroke="#60a5fa" stroke-width="0.5"/><rect x="507.1" y="350.6" width="4.2" height="13.4" fill="#93c5fd" stroke="#60a5fa" stroke-width="0.5"/><rect x="511.3" y="341.7" width="4.2" height="22.3" fill="#93c5fd" stroke="#60a5fa" stroke-width="0.5"/><rect x="515.5" y="359.5" width="4.2" height="4.5" fill="#93c5fd" stroke="#60a5fa" stroke-width="0.5"/><rect x="519.7" y="323.9" width="4.2" height="40.1" fill="#93c5fd" stroke="#60a5fa" stroke-width="0.5"/><rect x="523.9" y="355.1" width="4.2" height="8.9" fill="#93c5fd" stroke="#60a5fa" stroke-width="0.5"/><rect x="528.0" y="346.2" width="4.2" height="17.8" fill="#93c5fd" stroke="#60a5fa" stroke-width="0.5"/><rect x="532.2" y="355.1" width="4.2" height="8.9" fill="#93c5fd" stroke="#60a5fa" stroke-width="0.5"/><rect x="536.4" y="359.5" width="4.2" height="4.5" fill="#93c5fd" stroke="#60a5fa" stroke-width="0.5"/><rect x="540.6" y="359.5" width="4.2" height="4.5" fill="#93c5fd" stroke="#60a5fa" stroke-width="0.5"/><rect x="544.8" y="355.1" width="4.2" height="8.9" fill="#93c5fd" stroke="#60a5fa" stroke-width="0.5"/><rect x="549.0" y="350.6" width="4.2" height="13.4" fill="#93c5fd" stroke="#60a5fa" stroke-width="0.5"/><rect x="553.2" y="355.1" width="4.2" height="8.9" fill="#93c5fd" stroke="#60a5fa" stroke-width="0.5"/><rect x="557.3" y="315.0" width="4.2" height="49.0" fill="#93c5fd" stroke="#60a5fa" stroke-width="0.5"/><rect x="561.5" y="319.4" width="4.2" height="44.6" fill="#93c5fd" stroke="#60a5fa" stroke-width="0.5"/><rect x="565.7" y="346.2" width="4.2" height="17.8" fill="#93c5fd" stroke="#60a5fa" stroke-width="0.5"/><rect x="569.9" y="359.5" width="4.2" height="4.5" fill="#93c5fd" stroke="#60a5fa" stroke-width="0.5"/><rect x="574.1" y="328.3" width="4.2" height="35.7" fill="#93c5fd" stroke="#60a5fa" stroke-width="0.5"/><rect x="578.3" y="328.3" width="4.2" height="35.7" fill="#93c5fd" stroke="#60a5fa" stroke-width="0.5"/><rect x="582.5" y="257.0" width="4.2" height="107.0" fill="#93c5fd" stroke="#60a5fa" stroke-width="0.5"/><rect x="586.7" y="355.1" width="4.2" height="8.9" fill="#93c5fd" stroke="#60a5fa" stroke-width="0.5"/><rect x="590.8" y="341.7" width="4.2" height="22.3" fill="#93c5fd" stroke="#60a5fa" stroke-width="0.5"/><rect x="595.0" y="350.6" width="4.2" height="13.4" fill="#93c5fd" stroke="#60a5fa" stroke-width="0.5"/><rect x="599.2" y="306.1" width="4.2" height="57.9" fill="#93c5fd" stroke="#60a5fa" stroke-width="0.5"/><rect x="603.4" y="337.3" width="4.2" height="26.7" fill="#93c5fd" stroke="#60a5fa" stroke-width="0.5"/><rect x="607.6" y="301.6" width="4.2" height="62.4" fill="#93c5fd" stroke="#60a5fa" stroke-width="0.5"/><rect x="611.8" y="319.4" width="4.2" height="44.6" fill="#93c5fd" stroke="#60a5fa" stroke-width="0.5"/><rect x="616.0" y="355.1" width="4.2" height="8.9" fill="#93c5fd" stroke="#60a5fa" stroke-width="0.5"/><rect x="620.2" y="359.5" width="4.2" height="4.5" fill="#93c5fd" stroke="#60a5fa" stroke-width="0.5"/><rect x="624.3" y="341.7" width="4.2" height="22.3" fill="#93c5fd" stroke="#60a5fa" stroke-width="0.5"/><rect x="628.5" y="306.1" width="4.2" height="57.9" fill="#93c5fd" stroke="#60a5fa" stroke-width="0.5"/><rect x="632.7" y="346.2" width="4.2" height="17.8" fill="#93c5fd" stroke="#60a5fa" stroke-width="0.5"/><rect x="636.9" y="257.0" width="4.2" height="107.0" fill="#93c5fd" stroke="#60a5fa" stroke-width="0.5"/><rect x="641.1" y="341.7" width="4.2" height="22.3" fill="#93c5fd" stroke="#60a5fa" stroke-width="0.5"/><rect x="645.3" y="52.0" width="4.2" height="312.0" fill="#93c5fd" stroke="#60a5fa" stroke-width="0.5"/><rect x="649.5" y="288.2" width="4.2" height="75.8" fill="#93c5fd" stroke="#60a5fa" stroke-width="0.5"/><rect x="653.7" y="350.6" width="4.2" height="13.4" fill="#93c5fd" stroke="#60a5fa" stroke-width="0.5"/><rect x="657.8" y="355.1" width="4.2" height="8.9" fill="#93c5fd" stroke="#60a5fa" stroke-width="0.5"/><rect x="662.0" y="181.3" width="4.2" height="182.7" fill="#93c5fd" stroke="#60a5fa" stroke-width="0.5"/><rect x="666.2" y="337.3" width="4.2" height="26.7" fill="#93c5fd" stroke="#60a5fa" stroke-width="0.5"/><rect x="670.4" y="350.6" width="4.2" height="13.4" fill="#93c5fd" stroke="#60a5fa" stroke-width="0.5"/><rect x="674.6" y="355.1" width="4.2" height="8.9" fill="#93c5fd" stroke="#60a5fa" stroke-width="0.5"/><rect x="678.8" y="346.2" width="4.2" height="17.8" fill="#93c5fd" stroke="#60a5fa" stroke-width="0.5"/><rect x="683.0" y="328.3" width="4.2" height="35.7" fill="#93c5fd" stroke="#60a5fa" stroke-width="0.5"/><rect x="687.2" y="359.5" width="4.2" height="4.5" fill="#93c5fd" stroke="#60a5fa" stroke-width="0.5"/><rect x="691.3" y="359.5" width="4.2" height="4.5" fill="#93c5fd" stroke="#60a5fa" stroke-width="0.5"/><rect x="695.5" y="346.2" width="4.2" height="17.8" fill="#93c5fd" stroke="#60a5fa" stroke-width="0.5"/><rect x="699.7" y="341.7" width="4.2" height="22.3" fill="#93c5fd" stroke="#60a5fa" stroke-width="0.5"/><rect x="703.9" y="337.3" width="4.2" height="26.7" fill="#93c5fd" stroke="#60a5fa" stroke-width="0.5"/><rect x="708.1" y="337.3" width="4.2" height="26.7" fill="#93c5fd" stroke="#60a5fa" stroke-width="0.5"/><rect x="712.3" y="359.5" width="4.2" height="4.5" fill="#93c5fd" stroke="#60a5fa" stroke-width="0.5"/><rect x="716.5" y="341.7" width="4.2" height="22.3" fill="#93c5fd" stroke="#60a5fa" stroke-width="0.5"/><rect x="720.7" y="332.8" width="4.2" height="31.2" fill="#93c5fd" stroke="#60a5fa" stroke-width="0.5"/><rect x="724.8" y="332.8" width="4.2" height="31.2" fill="#93c5fd" stroke="#60a5fa" stroke-width="0.5"/><rect x="729.0" y="328.3" width="4.2" height="35.7" fill="#93c5fd" stroke="#60a5fa" stroke-width="0.5"/><rect x="733.2" y="323.9" width="4.2" height="40.1" fill="#93c5fd" stroke="#60a5fa" stroke-width="0.5"/><rect x="737.4" y="332.8" width="4.2" height="31.2" fill="#93c5fd" stroke="#60a5fa" stroke-width="0.5"/><rect x="741.6" y="346.2" width="4.2" height="17.8" fill="#93c5fd" stroke="#60a5fa" stroke-width="0.5"/><rect x="745.8" y="350.6" width="4.2" height="13.4" fill="#93c5fd" stroke="#60a5fa" stroke-width="0.5"/><rect x="750.0" y="350.6" width="4.2" height="13.4" fill="#93c5fd" stroke="#60a5fa" stroke-width="0.5"/><rect x="754.1" y="332.8" width="4.2" height="31.2" fill="#93c5fd" stroke="#60a5fa" stroke-width="0.5"/><rect x="758.3" y="359.5" width="4.2" height="4.5" fill="#93c5fd" stroke="#60a5fa" stroke-width="0.5"/><rect x="762.5" y="350.6" width="4.2" height="13.4" fill="#93c5fd" stroke="#60a5fa" stroke-width="0.5"/><rect x="766.7" y="355.1" width="4.2" height="8.9" fill="#93c5fd" stroke="#60a5fa" stroke-width="0.5"/><rect x="770.9" y="355.1" width="4.2" height="8.9" fill="#93c5fd" stroke="#60a5fa" stroke-width="0.5"/><rect x="775.1" y="355.1" width="4.2" height="8.9" fill="#93c5fd" stroke="#60a5fa" stroke-width="0.5"/><rect x="779.3" y="355.1" width="4.2" height="8.9" fill="#93c5fd" stroke="#60a5fa" stroke-width="0.5"/><rect x="783.5" y="359.5" width="4.2" height="4.5" fill="#93c5fd" stroke="#60a5fa" stroke-width="0.5"/><rect x="787.6" y="359.5" width="4.2" height="4.5" fill="#93c5fd" stroke="#60a5fa" stroke-width="0.5"/><rect x="791.8" y="337.3" width="4.2" height="26.7" fill="#93c5fd" stroke="#60a5fa" stroke-width="0.5"/><rect x="796.0" y="355.1" width="4.2" height="8.9" fill="#93c5fd" stroke="#60a5fa" stroke-width="0.5"/><rect x="800.2" y="328.3" width="4.2" height="35.7" fill="#93c5fd" stroke="#60a5fa" stroke-width="0.5"/><rect x="804.4" y="350.6" width="4.2" height="13.4" fill="#93c5fd" stroke="#60a5fa" stroke-width="0.5"/><rect x="808.6" y="328.3" width="4.2" height="35.7" fill="#93c5fd" stroke="#60a5fa" stroke-width="0.5"/><rect x="812.8" y="332.8" width="4.2" height="31.2" fill="#93c5fd" stroke="#60a5fa" stroke-width="0.5"/><rect x="817.0" y="328.3" width="4.2" height="35.7" fill="#93c5fd" stroke="#60a5fa" stroke-width="0.5"/><rect x="821.1" y="341.7" width="4.2" height="22.3" fill="#93c5fd" stroke="#60a5fa" stroke-width="0.5"/><rect x="825.3" y="355.1" width="4.2" height="8.9" fill="#93c5fd" stroke="#60a5fa" stroke-width="0.5"/><rect x="829.5" y="355.1" width="4.2" height="8.9" fill="#93c5fd" stroke="#60a5fa" stroke-width="0.5"/><rect x="833.7" y="319.4" width="4.2" height="44.6" fill="#93c5fd" stroke="#60a5fa" stroke-width="0.5"/><rect x="837.9" y="315.0" width="4.2" height="49.0" fill="#93c5fd" stroke="#60a5fa" stroke-width="0.5"/><rect x="842.1" y="328.3" width="4.2" height="35.7" fill="#93c5fd" stroke="#60a5fa" stroke-width="0.5"/><rect x="846.3" y="323.9" width="4.2" height="40.1" fill="#93c5fd" stroke="#60a5fa" stroke-width="0.5"/><rect x="850.5" y="341.7" width="4.2" height="22.3" fill="#93c5fd" stroke="#60a5fa" stroke-width="0.5"/><rect x="854.6" y="359.5" width="4.2" height="4.5" fill="#93c5fd" stroke="#60a5fa" stroke-width="0.5"/><rect x="858.8" y="350.6" width="4.2" height="13.4" fill="#93c5fd" stroke="#60a5fa" stroke-width="0.5"/><rect x="863.0" y="359.5" width="4.2" height="4.5" fill="#93c5fd" stroke="#60a5fa" stroke-width="0.5"/><rect x="867.2" y="346.2" width="4.2" height="17.8" fill="#93c5fd" stroke="#60a5fa" stroke-width="0.5"/><rect x="871.4" y="346.2" width="4.2" height="17.8" fill="#93c5fd" stroke="#60a5fa" stroke-width="0.5"/><rect x="875.6" y="341.7" width="4.2" height="22.3" fill="#93c5fd" stroke="#60a5fa" stroke-width="0.5"/><rect x="879.8" y="359.5" width="4.2" height="4.5" fill="#93c5fd" stroke="#60a5fa" stroke-width="0.5"/><rect x="884.0" y="359.5" width="4.2" height="4.5" fill="#93c5fd" stroke="#60a5fa" stroke-width="0.5"/><rect x="888.1" y="315.0" width="4.2" height="49.0" fill="#93c5fd" stroke="#60a5fa" stroke-width="0.5"/><rect x="892.3" y="230.3" width="4.2" height="133.7" fill="#93c5fd" stroke="#60a5fa" stroke-width="0.5"/><rect x="896.5" y="297.1" width="4.2" height="66.9" fill="#93c5fd" stroke="#60a5fa" stroke-width="0.5"/><rect x="900.7" y="359.5" width="4.2" height="4.5" fill="#93c5fd" stroke="#60a5fa" stroke-width="0.5"/><rect x="904.9" y="319.4" width="4.2" height="44.6" fill="#93c5fd" stroke="#60a5fa" stroke-width="0.5"/><rect x="909.1" y="355.1" width="4.2" height="8.9" fill="#93c5fd" stroke="#60a5fa" stroke-width="0.5"/><rect x="913.3" y="341.7" width="4.2" height="22.3" fill="#93c5fd" stroke="#60a5fa" stroke-width="0.5"/><rect x="917.5" y="315.0" width="4.2" height="49.0" fill="#93c5fd" stroke="#60a5fa" stroke-width="0.5"/><rect x="921.6" y="350.6" width="4.2" height="13.4" fill="#93c5fd" stroke="#60a5fa" stroke-width="0.5"/><rect x="925.8" y="279.3" width="4.2" height="84.7" fill="#93c5fd" stroke="#60a5fa" stroke-width="0.5"/><rect x="930.0" y="132.2" width="4.2" height="231.8" fill="#93c5fd" stroke="#60a5fa" stroke-width="0.5"/><rect x="934.2" y="359.5" width="4.2" height="4.5" fill="#93c5fd" stroke="#60a5fa" stroke-width="0.5"/><rect x="938.4" y="212.5" width="4.2" height="151.5" fill="#93c5fd" stroke="#60a5fa" stroke-width="0.5"/><rect x="942.6" y="355.1" width="4.2" height="8.9" fill="#93c5fd" stroke="#60a5fa" stroke-width="0.5"/><rect x="946.8" y="252.6" width="4.2" height="111.4" fill="#93c5fd" stroke="#60a5fa" stroke-width="0.5"/><rect x="951.0" y="359.5" width="4.2" height="4.5" fill="#93c5fd" stroke="#60a5fa" stroke-width="0.5"/><rect x="955.1" y="337.3" width="4.2" height="26.7" fill="#93c5fd" stroke="#60a5fa" stroke-width="0.5"/><rect x="959.3" y="355.1" width="4.2" height="8.9" fill="#93c5fd" stroke="#60a5fa" stroke-width="0.5"/><rect x="963.5" y="306.1" width="4.2" height="57.9" fill="#93c5fd" stroke="#60a5fa" stroke-width="0.5"/><rect x="967.7" y="332.8" width="4.2" height="31.2" fill="#93c5fd" stroke="#60a5fa" stroke-width="0.5"/><rect x="971.9" y="355.1" width="4.2" height="8.9" fill="#93c5fd" stroke="#60a5fa" stroke-width="0.5"/><rect x="976.1" y="252.6" width="4.2" height="111.4" fill="#93c5fd" stroke="#60a5fa" stroke-width="0.5"/><rect x="980.3" y="346.2" width="4.2" height="17.8" fill="#93c5fd" stroke="#60a5fa" stroke-width="0.5"/><rect x="984.4" y="328.3" width="4.2" height="35.7" fill="#93c5fd" stroke="#60a5fa" stroke-width="0.5"/><rect x="988.6" y="350.6" width="4.2" height="13.4" fill="#93c5fd" stroke="#60a5fa" stroke-width="0.5"/><rect x="992.8" y="319.4" width="4.2" height="44.6" fill="#93c5fd" stroke="#60a5fa" stroke-width="0.5"/><rect x="997.0" y="359.5" width="4.2" height="4.5" fill="#93c5fd" stroke="#60a5fa" stroke-width="0.5"/><rect x="1001.2" y="292.7" width="4.2" height="71.3" fill="#93c5fd" stroke="#60a5fa" stroke-width="0.5"/><rect x="1005.4" y="323.9" width="4.2" height="40.1" fill="#93c5fd" stroke="#60a5fa" stroke-width="0.5"/><rect x="1009.6" y="350.6" width="4.2" height="13.4" fill="#93c5fd" stroke="#60a5fa" stroke-width="0.5"/><rect x="1013.8" y="301.6" width="4.2" height="62.4" fill="#93c5fd" stroke="#60a5fa" stroke-width="0.5"/><rect x="1017.9" y="355.1" width="4.2" height="8.9" fill="#93c5fd" stroke="#60a5fa" stroke-width="0.5"/><rect x="1022.1" y="359.5" width="4.2" height="4.5" fill="#93c5fd" stroke="#60a5fa" stroke-width="0.5"/><rect x="1026.3" y="355.1" width="4.2" height="8.9" fill="#93c5fd" stroke="#60a5fa" stroke-width="0.5"/><rect x="1030.5" y="350.6" width="4.2" height="13.4" fill="#93c5fd" stroke="#60a5fa" stroke-width="0.5"/><rect x="1034.7" y="310.5" width="4.2" height="53.5" fill="#93c5fd" stroke="#60a5fa" stroke-width="0.5"/><rect x="1038.9" y="341.7" width="4.2" height="22.3" fill="#93c5fd" stroke="#60a5fa" stroke-width="0.5"/><rect x="1043.1" y="355.1" width="4.2" height="8.9" fill="#93c5fd" stroke="#60a5fa" stroke-width="0.5"/><rect x="1047.3" y="359.5" width="4.2" height="4.5" fill="#93c5fd" stroke="#60a5fa" stroke-width="0.5"/><rect x="1051.4" y="350.6" width="4.2" height="13.4" fill="#93c5fd" stroke="#60a5fa" stroke-width="0.5"/><rect x="1055.6" y="355.1" width="4.2" height="8.9" fill="#93c5fd" stroke="#60a5fa" stroke-width="0.5"/><rect x="1059.8" y="265.9" width="4.2" height="98.1" fill="#93c5fd" stroke="#60a5fa" stroke-width="0.5"/><rect x="1064.0" y="323.9" width="4.2" height="40.1" fill="#93c5fd" stroke="#60a5fa" stroke-width="0.5"/><rect x="1068.2" y="332.8" width="4.2" height="31.2" fill="#93c5fd" stroke="#60a5fa" stroke-width="0.5"/><rect x="1072.4" y="359.5" width="4.2" height="4.5" fill="#93c5fd" stroke="#60a5fa" stroke-width="0.5"/><rect x="1076.6" y="328.3" width="4.2" height="35.7" fill="#93c5fd" stroke="#60a5fa" stroke-width="0.5"/><rect x="1080.8" y="350.6" width="4.2" height="13.4" fill="#93c5fd" stroke="#60a5fa" stroke-width="0.5"/><rect x="1084.9" y="301.6" width="4.2" height="62.4" fill="#93c5fd" stroke="#60a5fa" stroke-width="0.5"/><rect x="1089.1" y="212.5" width="4.2" height="151.5" fill="#93c5fd" stroke="#60a5fa" stroke-width="0.5"/><rect x="1093.3" y="346.2" width="4.2" height="17.8" fill="#93c5fd" stroke="#60a5fa" stroke-width="0.5"/><rect x="1097.5" y="279.3" width="4.2" height="84.7" fill="#93c5fd" stroke="#60a5fa" stroke-width="0.5"/><rect x="1101.7" y="359.5" width="4.2" height="4.5" fill="#93c5fd" stroke="#60a5fa" stroke-width="0.5"/><rect x="1105.9" y="190.2" width="4.2" height="173.8" fill="#93c5fd" stroke="#60a5fa" stroke-width="0.5"/><rect x="1110.1" y="310.5" width="4.2" height="53.5" fill="#93c5fd" stroke="#60a5fa" stroke-width="0.5"/><rect x="1114.3" y="306.1" width="4.2" height="57.9" fill="#93c5fd" stroke="#60a5fa" stroke-width="0.5"/><rect x="1118.4" y="355.1" width="4.2" height="8.9" fill="#93c5fd" stroke="#60a5fa" stroke-width="0.5"/><rect x="1122.6" y="323.9" width="4.2" height="40.1" fill="#93c5fd" stroke="#60a5fa" stroke-width="0.5"/><rect x="1126.8" y="346.2" width="4.2" height="17.8" fill="#93c5fd" stroke="#60a5fa" stroke-width="0.5"/><rect x="1131.0" y="328.3" width="4.2" height="35.7" fill="#93c5fd" stroke="#60a5fa" stroke-width="0.5"/><rect x="1135.2" y="350.6" width="4.2" height="13.4" fill="#93c5fd" stroke="#60a5fa" stroke-width="0.5"/><rect x="1139.4" y="359.5" width="4.2" height="4.5" fill="#93c5fd" stroke="#60a5fa" stroke-width="0.5"/><rect x="1143.6" y="346.2" width="4.2" height="17.8" fill="#93c5fd" stroke="#60a5fa" stroke-width="0.5"/><rect x="1147.8" y="359.5" width="4.2" height="4.5" fill="#93c5fd" stroke="#60a5fa" stroke-width="0.5"/><rect x="1151.9" y="359.5" width="4.2" height="4.5" fill="#93c5fd" stroke="#60a5fa" stroke-width="0.5"/><rect x="1156.1" y="315.0" width="4.2" height="49.0" fill="#93c5fd" stroke="#60a5fa" stroke-width="0.5"/><rect x="1160.3" y="355.1" width="4.2" height="8.9" fill="#93c5fd" stroke="#60a5fa" stroke-width="0.5"/><rect x="1164.5" y="350.6" width="4.2" height="13.4" fill="#93c5fd" stroke="#60a5fa" stroke-width="0.5"/><rect x="1168.7" y="355.1" width="4.2" height="8.9" fill="#93c5fd" stroke="#60a5fa" stroke-width="0.5"/><rect x="1172.9" y="346.2" width="4.2" height="17.8" fill="#93c5fd" stroke="#60a5fa" stroke-width="0.5"/><rect x="1177.1" y="346.2" width="4.2" height="17.8" fill="#93c5fd" stroke="#60a5fa" stroke-width="0.5"/><rect x="1181.3" y="359.5" width="4.2" height="4.5" fill="#93c5fd" stroke="#60a5fa" stroke-width="0.5"/><rect x="1185.4" y="346.2" width="4.2" height="17.8" fill="#93c5fd" stroke="#60a5fa" stroke-width="0.5"/><rect x="1189.6" y="359.5" width="4.2" height="4.5" fill="#93c5fd" stroke="#60a5fa" stroke-width="0.5"/><rect x="1193.8" y="332.8" width="4.2" height="31.2" fill="#93c5fd" stroke="#60a5fa" stroke-width="0.5"/><polyline fill="none" stroke="#ef4444" stroke-width="2" points="82.1,363.1 86.3,362.9 90.5,362.7 94.7,362.3 98.8,362.1 103.0,361.4 107.2,361.2 111.4,361.0 115.6,360.8 119.8,360.6 124.0,360.4 128.2,360.1 132.3,359.9 136.5,359.5 140.7,358.6 144.9,358.4 149.1,358.2 153.3,357.6 157.5,356.5 161.7,353.7 165.8,353.3 170.0,352.7 174.2,352.4 178.4,351.8 182.6,351.6 186.8,350.5 191.0,350.3 195.1,350.1 199.3,349.9 203.5,349.7 207.7,349.4 211.9,349.2 216.1,349.0 220.3,348.8 224.5,348.6 228.6,348.4 232.8,348.2 237.0,347.9 241.2,347.7 245.4,347.5 249.6,346.9 253.8,346.7 258.0,346.4 262.1,344.1 266.3,343.9 270.5,342.6 274.7,340.9 278.9,340.7 283.1,340.2 287.3,339.6 291.5,339.2 295.6,338.7 299.8,338.1 304.0,337.9 308.2,337.7 312.4,337.4 316.6,337.2 320.8,336.6 325.0,336.4 329.1,334.7 333.3,334.4 337.5,334.2 341.7,334.0 345.9,333.4 350.1,333.2 354.3,332.9 358.5,332.5 362.6,331.9 366.8,331.7 371.0,331.0 375.2,330.6 379.4,330.0 383.6,329.7 387.8,327.6 392.0,326.7 396.1,325.9 400.3,325.7 404.5,325.5 408.7,325.2 412.9,324.8 417.1,324.4 421.3,323.7 425.4,323.3 429.6,322.7 433.8,322.5 438.0,322.0 442.2,321.8 446.4,320.5 450.6,320.3 454.8,320.1 458.9,319.9 463.1,319.7 467.3,319.5 471.5,318.2 475.7,318.0 479.9,317.1 484.1,315.0 488.3,313.2 492.4,312.8 496.6,312.4 500.8,312.0 505.0,311.5 509.2,310.9 513.4,309.8 517.6,309.6 521.8,307.7 525.9,307.3 530.1,306.4 534.3,306.0 538.5,305.8 542.7,305.5 546.9,305.1 551.1,304.5 555.3,304.0 559.4,301.7 563.6,299.5 567.8,298.7 572.0,298.5 576.2,296.8 580.4,295.0 584.6,289.9 588.8,289.5 592.9,288.4 597.1,287.8 601.3,285.0 605.5,283.7 609.7,280.7 613.9,278.6 618.1,278.1 622.3,277.9 626.4,276.8 630.6,274.1 634.8,273.2 639.0,268.1 643.2,267.0 647.4,252.0 651.6,248.4 655.7,247.7 659.9,247.3 664.1,238.5 668.3,237.2 672.5,236.6 676.7,236.2 680.9,235.3 685.1,233.6 689.2,233.4 693.4,233.2 697.6,232.3 701.8,231.2 706.0,229.9 710.2,228.7 714.4,228.5 718.6,227.4 722.7,225.9 726.9,224.4 731.1,222.7 735.3,220.7 739.5,219.2 743.7,218.4 747.9,217.7 752.1,217.1 756.2,215.6 760.4,215.4 764.6,214.7 768.8,214.3 773.0,213.9 777.2,213.5 781.4,213.0 785.6,212.8 789.7,212.6 793.9,211.3 798.1,210.9 802.3,209.2 806.5,208.5 810.7,206.8 814.9,205.3 819.1,203.6 823.2,202.5 827.4,202.1 831.6,201.7 835.8,199.5 840.0,197.2 844.2,195.5 848.4,193.5 852.6,192.5 856.7,192.3 860.9,191.6 865.1,191.4 869.3,190.5 873.5,189.7 877.7,188.6 881.9,188.4 886.0,188.2 890.2,185.8 894.4,179.4 898.6,176.2 902.8,176.0 907.0,173.8 911.2,173.4 915.4,172.3 919.5,170.0 923.7,169.3 927.9,165.3 932.1,154.1 936.3,153.9 940.5,146.6 944.7,146.2 948.9,140.9 953.0,140.7 957.2,139.4 961.4,138.9 965.6,136.2 969.8,134.7 974.0,134.2 978.2,128.9 982.4,128.0 986.5,126.3 990.7,125.7 994.9,123.5 999.1,123.3 1003.3,119.9 1007.5,118.0 1011.7,117.3 1015.9,114.3 1020.0,113.9 1024.2,113.7 1028.4,113.2 1032.6,112.6 1036.8,110.0 1041.0,109.0 1045.2,108.5 1049.4,108.3 1053.5,107.7 1057.7,107.2 1061.9,102.5 1066.1,100.6 1070.3,99.1 1074.5,98.9 1078.7,97.2 1082.9,96.5 1087.0,93.5 1091.2,86.3 1095.4,85.4 1099.6,81.3 1103.8,81.1 1108.0,72.8 1112.2,70.2 1116.3,67.4 1120.5,67.0 1124.7,65.1 1128.9,64.2 1133.1,62.5 1137.3,61.9 1141.5,61.6 1145.7,60.8 1149.8,60.6 1154.0,60.4 1158.2,58.0 1162.4,57.6 1166.6,56.9 1170.8,56.5 1175.0,55.6 1179.2,54.8 1183.3,54.6 1187.5,53.7 1191.7,53.5 1195.9,52.0"/><line x1="82.1" y1="364.0" x2="82.1" y2="370.0" stroke="#111827" stroke-width="1"/><text x="84.1" y="386.0" font-size="11" text-anchor="end" transform="rotate(-35 84.1 386.0)" font-family="sans-serif" fill="#374151">2022-10-13</text><line x1="241.2" y1="364.0" x2="241.2" y2="370.0" stroke="#111827" stroke-width="1"/><text x="243.2" y="386.0" font-size="11" text-anchor="end" transform="rotate(-35 243.2 386.0)" font-family="sans-serif" fill="#374151">2025-03-28</text><line x1="400.3" y1="364.0" x2="400.3" y2="370.0" stroke="#111827" stroke-width="1"/><text x="402.3" y="386.0" font-size="11" text-anchor="end" transform="rotate(-35 402.3 386.0)" font-family="sans-serif" fill="#374151">2025-07-29</text><line x1="559.4" y1="364.0" x2="559.4" y2="370.0" stroke="#111827" stroke-width="1"/><text x="561.4" y="386.0" font-size="11" text-anchor="end" transform="rotate(-35 561.4 386.0)" font-family="sans-serif" fill="#374151">2025-10-06</text><line x1="718.6" y1="364.0" x2="718.6" y2="370.0" stroke="#111827" stroke-width="1"/><text x="720.6" y="386.0" font-size="11" text-anchor="end" transform="rotate(-35 720.6 386.0)" font-family="sans-serif" fill="#374151">2025-12-01</text><line x1="877.7" y1="364.0" x2="877.7" y2="370.0" stroke="#111827" stroke-width="1"/><text x="879.7" y="386.0" font-size="11" text-anchor="end" transform="rotate(-35 879.7 386.0)" font-family="sans-serif" fill="#374151">2026-01-16</text><line x1="1036.8" y1="364.0" x2="1036.8" y2="370.0" stroke="#111827" stroke-width="1"/><text x="1038.8" y="386.0" font-size="11" text-anchor="end" transform="rotate(-35 1038.8 386.0)" font-family="sans-serif" fill="#374151">2026-03-03</text><line x1="1195.9" y1="364.0" x2="1195.9" y2="370.0" stroke="#111827" stroke-width="1"/><text x="1197.9" y="386.0" font-size="11" text-anchor="end" transform="rotate(-35 1197.9 386.0)" font-family="sans-serif" fill="#374151">2026-04-30</text><text x="26" y="208.0" font-size="12" transform="rotate(-90 26 208.0)" text-anchor="middle" font-family="sans-serif" fill="#1f2937">구간별 수</text><text x="1256.0" y="208.0" font-size="12" transform="rotate(90 1256.0 208.0)" text-anchor="middle" font-family="sans-serif" fill="#1f2937">누적</text><text x="639.0" y="442.0" font-size="13" text-anchor="middle" font-family="sans-serif" fill="#111827">일</text></svg>