<svg xmlns="http://www.w3.org/2000/svg" width="1280" height="460" viewBox="0 0 1280 460"><rect x="0" y="0" width="100%" height="100%" fill="#ffffff"/><text x="640.0" y="28" font-size="20" text-anchor="middle" font-family="sans-serif" fill="#111827">시리즈 / 최근 반영 시점 / 시간별</text><line x1="80.0" y1="52.0" x2="1198.0" y2="52.0" stroke="#e5e7eb" stroke-width="1"/><text x="72.0" y="56.0" font-size="11" text-anchor="end" font-family="sans-serif" fill="#374151">1,347</text><text x="1206.0" y="56.0" font-size="11" text-anchor="start" font-family="sans-serif" fill="#374151">1,436</text><line x1="80.0" y1="114.4" x2="1198.0" y2="114.4" stroke="#e5e7eb" stroke-width="1"/><text x="72.0" y="118.4" font-size="11" text-anchor="end" font-family="sans-serif" fill="#374151">1,078</text><text x="1206.0" y="118.4" font-size="11" text-anchor="start" font-family="sans-serif" fill="#374151">1,149</text><line x1="80.0" y1="176.8" x2="1198.0" y2="176.8" stroke="#e5e7eb" stroke-width="1"/><text x="72.0" y="180.8" font-size="11" text-anchor="end" font-family="sans-serif" fill="#374151">808</text><text x="1206.0" y="180.8" font-size="11" text-anchor="start" font-family="sans-serif" fill="#374151">862</text><line x1="80.0" y1="239.2" x2="1198.0" y2="239.2" stroke="#e5e7eb" stroke-width="1"/><text x="72.0" y="243.2" font-size="11" text-anchor="end" font-family="sans-serif" fill="#374151">539</text><text x="1206.0" y="243.2" font-size="11" text-anchor="start" font-family="sans-serif" fill="#374151">574</text><line x1="80.0" y1="301.6" x2="1198.0" y2="301.6" stroke="#e5e7eb" stroke-width="1"/><text x="72.0" y="305.6" font-size="11" text-anchor="end" font-family="sans-serif" fill="#374151">269</text><text x="1206.0" y="305.6" font-size="11" text-anchor="start" font-family="sans-serif" fill="#374151">287</text><line x1="80.0" y1="364.0" x2="1198.0" y2="364.0" stroke="#e5e7eb" stroke-width="1"/><text x="72.0" y="368.0" font-size="11" text-anchor="end" font-family="sans-serif" fill="#374151">0</text><text x="1206.0" y="368.0" font-size="11" text-anchor="start" font-family="sans-serif" fill="#374151">0</text><line x1="80.0" y1="364.0" x2="1198.0" y2="364.0" stroke="#111827" stroke-width="1.2"/><line x1="80.0" y1="52.0" x2="80.0" y2="364.0" stroke="#111827" stroke-width="1.2"/><line x1="1198.0" y1="52.0" x2="1198.0" y2="364.0" stroke="#111827" stroke-width="1.2"/><rect x="81.0" y="363.8" width="56.8" height="0.2" fill="#93c5fd" stroke="#60a5fa" stroke-width="0.5"/><rect x="139.8" y="362.6" width="56.8" height="1.4" fill="#93c5fd" stroke="#60a5fa" stroke-width="0.5"/><rect x="198.7" y="357.3" width="56.8" height="6.7" fill="#93c5fd" stroke="#60a5fa" stroke-width="0.5"/><rect x="257.5" y="363.8" width="56.8" height="0.2" fill="#93c5fd" stroke="#60a5fa" stroke-width="0.5"/><rect x="316.4" y="363.8" width="56.8" height="0.2" fill="#93c5fd" stroke="#60a5fa" stroke-width="0.5"/><rect x="375.2" y="357.5" width="56.8" height="6.5" fill="#93c5fd" stroke="#60a5fa" stroke-width="0.5"/><rect x="434.1" y="363.8" width="56.8" height="0.2" fill="#93c5fd" stroke="#60a5fa" stroke-width="0.5"/><rect x="492.9" y="363.8" width="56.8" height="0.2" fill="#93c5fd" stroke="#60a5fa" stroke-width="0.5"/><rect x="551.7" y="363.8" width="56.8" height="0.2" fill="#93c5fd" stroke="#60a5fa" stroke-width="0.5"/><rect x="610.6" y="363.5" width="56.8" height="0.5" fill="#93c5fd" stroke="#60a5fa" stroke-width="0.5"/><rect x="669.4" y="363.5" width="56.8" height="0.5" fill="#93c5fd" stroke="#60a5fa" stroke-width="0.5"/><rect x="728.3" y="363.5" width="56.8" height="0.5" fill="#93c5fd" stroke="#60a5fa" stroke-width="0.5"/><rect x="787.1" y="363.8" width="56.8" height="0.2" fill="#93c5fd" stroke="#60a5fa" stroke-width="0.5"/><rect x="845.9" y="363.1" width="56.8" height="0.9" fill="#93c5fd" stroke="#60a5fa" stroke-width="0.5"/><rect x="904.8" y="363.8" width="56.8" height="0.2" fill="#93c5fd" stroke="#60a5fa" stroke-width="0.5"/><rect x="963.6" y="363.3" width="56.8" height="0.7" fill="#93c5fd" stroke="#60a5fa" stroke-width="0.5"/><rect x="1022.5" y="363.5" width="56.8" height="0.5" fill="#93c5fd" stroke="#60a5fa" stroke-width="0.5"/><rect x="1081.3" y="363.3" width="56.8" height="0.7" fill="#93c5fd" stroke="#60a5fa" stroke-width="0.5"/><rect x="1140.2" y="52.0" width="56.8" height="312.0" fill="#93c5fd" stroke="#60a5fa" stroke-width="0.5"/><polyline fill="none" stroke="#ef4444" stroke-width="2" points="109.4,363.8 168.3,362.5 227.1,356.2 285.9,356.0 344.8,355.7 403.6,349.7 462.5,349.4 521.3,349.2 580.2,349.0 639.0,348.6 697.8,348.1 756.7,347.7 815.5,347.5 874.4,346.6 933.2,346.4 992.1,345.7 1050.9,345.3 1109.7,344.7 1168.6,52.0"/><line x1="109.4" y1="364.0" x2="109.4" y2="370.0" stroke="#111827" stroke-width="1"/><text x="111.4" y="386.0" font-size="11" text-anchor="end" transform="rotate(-35 111.4 386.0)" font-family="sans-serif" fill="#374151">2026-04-16 23:00</text><line x1="285.9" y1="364.0" x2="285.9" y2="370.0" stroke="#111827" stroke-width="1"/><text x="287.9" y="386.0" font-size="11" text-anchor="end" transform="rotate(-35 287.9 386.0)" font-family="sans-serif" fill="#374151">2026-04-17 11:00</text><line x1="403.6" y1="364.0" x2="403.6" y2="370.0" stroke="#111827" stroke-width="1"/><text x="405.6" y="386.0" font-size="11" text-anchor="end" transform="rotate(-35 405.6 386.0)" font-family="sans-serif" fill="#374151">2026-04-18 09:00</text><line x1="580.2" y1="364.0" x2="580.2" y2="370.0" stroke="#111827" stroke-width="1"/><text x="582.2" y="386.0" font-size="11" text-anchor="end" transform="rotate(-35 582.2 386.0)" font-family="sans-serif" fill="#374151">2026-04-18 16:00</text><line x1="697.8" y1="364.0" x2="697.8" y2="370.0" stroke="#111827" stroke-width="1"/><text x="699.8" y="386.0" font-size="11" text-anchor="end" transform="rotate(-35 699.8 386.0)" font-family="sans-serif" fill="#374151">2026-04-19 12:00</text><line x1="874.4" y1="364.0" x2="874.4" y2="370.0" stroke="#111827" stroke-width="1"/><text x="876.4" y="386.0" font-size="11" text-anchor="end" transform="rotate(-35 876.4 386.0)" font-family="sans-serif" fill="#374151">2026-04-19 18:00</text><line x1="992.1" y1="364.0" x2="992.1" y2="370.0" stroke="#111827" stroke-width="1"/><text x="994.1" y="386.0" font-size="11" text-anchor="end" transform="rotate(-35 994.1 386.0)" font-family="sans-serif" fill="#374151">2026-04-19 23:00</text><line x1="1168.6" y1="364.0" x2="1168.6" y2="370.0" stroke="#111827" stroke-width="1"/><text x="1170.6" y="386.0" font-size="11" text-anchor="end" transform="rotate(-35 1170.6 386.0)" font-family="sans-serif" fill="#374151">2026-04-20 11:00</text><text x="26" y="208.0" font-size="12" transform="rotate(-90 26 208.0)" text-anchor="middle" font-family="sans-serif" fill="#1f2937">구간별 수</text><text x="1256.0" y="208.0" font-size="12" transform="rotate(90 1256.0 208.0)" text-anchor="middle" font-family="sans-serif" fill="#1f2937">누적</text><text x="639.0" y="442.0" font-size="13" text-anchor="middle" font-family="sans-serif" fill="#111827">시간</text></svg>