<svg xmlns="http://www.w3.org/2000/svg" width="1280" height="460" viewBox="0 0 1280 460"><rect x="0" y="0" width="100%" height="100%" fill="#ffffff"/><text x="640.0" y="28" font-size="20" text-anchor="middle" font-family="sans-serif" fill="#111827">시리즈 / 최근 반영 시점 / 시간별</text><line x1="80.0" y1="52.0" x2="1198.0" y2="52.0" stroke="#e5e7eb" stroke-width="1"/><text x="72.0" y="56.0" font-size="11" text-anchor="end" font-family="sans-serif" fill="#374151">1,085</text><text x="1206.0" y="56.0" font-size="11" text-anchor="start" font-family="sans-serif" fill="#374151">1,447</text><line x1="80.0" y1="114.4" x2="1198.0" y2="114.4" stroke="#e5e7eb" stroke-width="1"/><text x="72.0" y="118.4" font-size="11" text-anchor="end" font-family="sans-serif" fill="#374151">868</text><text x="1206.0" y="118.4" font-size="11" text-anchor="start" font-family="sans-serif" fill="#374151">1,158</text><line x1="80.0" y1="176.8" x2="1198.0" y2="176.8" stroke="#e5e7eb" stroke-width="1"/><text x="72.0" y="180.8" font-size="11" text-anchor="end" font-family="sans-serif" fill="#374151">651</text><text x="1206.0" y="180.8" font-size="11" text-anchor="start" font-family="sans-serif" fill="#374151">868</text><line x1="80.0" y1="239.2" x2="1198.0" y2="239.2" stroke="#e5e7eb" stroke-width="1"/><text x="72.0" y="243.2" font-size="11" text-anchor="end" font-family="sans-serif" fill="#374151">434</text><text x="1206.0" y="243.2" font-size="11" text-anchor="start" font-family="sans-serif" fill="#374151">579</text><line x1="80.0" y1="301.6" x2="1198.0" y2="301.6" stroke="#e5e7eb" stroke-width="1"/><text x="72.0" y="305.6" font-size="11" text-anchor="end" font-family="sans-serif" fill="#374151">217</text><text x="1206.0" y="305.6" font-size="11" text-anchor="start" font-family="sans-serif" fill="#374151">289</text><line x1="80.0" y1="364.0" x2="1198.0" y2="364.0" stroke="#e5e7eb" stroke-width="1"/><text x="72.0" y="368.0" font-size="11" text-anchor="end" font-family="sans-serif" fill="#374151">0</text><text x="1206.0" y="368.0" font-size="11" text-anchor="start" font-family="sans-serif" fill="#374151">0</text><line x1="80.0" y1="364.0" x2="1198.0" y2="364.0" stroke="#111827" stroke-width="1.2"/><line x1="80.0" y1="52.0" x2="80.0" y2="364.0" stroke="#111827" stroke-width="1.2"/><line x1="1198.0" y1="52.0" x2="1198.0" y2="364.0" stroke="#111827" stroke-width="1.2"/><rect x="81.0" y="363.7" width="39.4" height="0.3" fill="#93c5fd" stroke="#60a5fa" stroke-width="0.5"/><rect x="122.4" y="363.1" width="39.4" height="0.9" fill="#93c5fd" stroke="#60a5fa" stroke-width="0.5"/><rect x="163.8" y="362.8" width="39.4" height="1.2" fill="#93c5fd" stroke="#60a5fa" stroke-width="0.5"/><rect x="205.2" y="363.7" width="39.4" height="0.3" fill="#93c5fd" stroke="#60a5fa" stroke-width="0.5"/><rect x="246.6" y="363.4" width="39.4" height="0.6" fill="#93c5fd" stroke="#60a5fa" stroke-width="0.5"/><rect x="288.0" y="363.4" width="39.4" height="0.6" fill="#93c5fd" stroke="#60a5fa" stroke-width="0.5"/><rect x="329.4" y="363.7" width="39.4" height="0.3" fill="#93c5fd" stroke="#60a5fa" stroke-width="0.5"/><rect x="370.9" y="363.7" width="39.4" height="0.3" fill="#93c5fd" stroke="#60a5fa" stroke-width="0.5"/><rect x="412.3" y="363.7" width="39.4" height="0.3" fill="#93c5fd" stroke="#60a5fa" stroke-width="0.5"/><rect x="453.7" y="363.7" width="39.4" height="0.3" fill="#93c5fd" stroke="#60a5fa" stroke-width="0.5"/><rect x="495.1" y="363.7" width="39.4" height="0.3" fill="#93c5fd" stroke="#60a5fa" stroke-width="0.5"/><rect x="536.5" y="363.1" width="39.4" height="0.9" fill="#93c5fd" stroke="#60a5fa" stroke-width="0.5"/><rect x="577.9" y="362.8" width="39.4" height="1.2" fill="#93c5fd" stroke="#60a5fa" stroke-width="0.5"/><rect x="619.3" y="362.3" width="39.4" height="1.7" fill="#93c5fd" stroke="#60a5fa" stroke-width="0.5"/><rect x="660.7" y="52.0" width="39.4" height="312.0" fill="#93c5fd" stroke="#60a5fa" stroke-width="0.5"/><rect x="702.1" y="349.6" width="39.4" height="14.4" fill="#93c5fd" stroke="#60a5fa" stroke-width="0.5"/><rect x="743.5" y="349.6" width="39.4" height="14.4" fill="#93c5fd" stroke="#60a5fa" stroke-width="0.5"/><rect x="784.9" y="349.9" width="39.4" height="14.1" fill="#93c5fd" stroke="#60a5fa" stroke-width="0.5"/><rect x="826.3" y="363.4" width="39.4" height="0.6" fill="#93c5fd" stroke="#60a5fa" stroke-width="0.5"/><rect x="867.7" y="349.6" width="39.4" height="14.4" fill="#93c5fd" stroke="#60a5fa" stroke-width="0.5"/><rect x="909.1" y="349.6" width="39.4" height="14.4" fill="#93c5fd" stroke="#60a5fa" stroke-width="0.5"/><rect x="950.6" y="363.4" width="39.4" height="0.6" fill="#93c5fd" stroke="#60a5fa" stroke-width="0.5"/><rect x="992.0" y="361.4" width="39.4" height="2.6" fill="#93c5fd" stroke="#60a5fa" stroke-width="0.5"/><rect x="1033.4" y="363.1" width="39.4" height="0.9" fill="#93c5fd" stroke="#60a5fa" stroke-width="0.5"/><rect x="1074.8" y="363.7" width="39.4" height="0.3" fill="#93c5fd" stroke="#60a5fa" stroke-width="0.5"/><rect x="1116.2" y="359.7" width="39.4" height="4.3" fill="#93c5fd" stroke="#60a5fa" stroke-width="0.5"/><rect x="1157.6" y="349.6" width="39.4" height="14.4" fill="#93c5fd" stroke="#60a5fa" stroke-width="0.5"/><polyline fill="none" stroke="#ef4444" stroke-width="2" points="100.7,363.8 142.1,363.1 183.5,362.3 224.9,362.1 266.3,361.6 307.7,361.2 349.1,361.0 390.6,360.8 432.0,360.6 473.4,360.3 514.8,360.1 556.2,359.5 597.6,358.6 639.0,357.3 680.4,123.4 721.8,112.6 763.2,101.8 804.6,91.2 846.0,90.8 887.4,80.0 928.9,69.2 970.3,68.8 1011.7,66.9 1053.1,66.2 1094.5,66.0 1135.9,62.8 1177.3,52.0"/><line x1="100.7" y1="364.0" x2="100.7" y2="370.0" stroke="#111827" stroke-width="1"/><text x="102.7" y="386.0" font-size="11" text-anchor="end" transform="rotate(-35 102.7 386.0)" font-family="sans-serif" fill="#374151">2026-04-16 23:00</text><line x1="266.3" y1="364.0" x2="266.3" y2="370.0" stroke="#111827" stroke-width="1"/><text x="268.3" y="386.0" font-size="11" text-anchor="end" transform="rotate(-35 268.3 386.0)" font-family="sans-serif" fill="#374151">2026-04-20 16:00</text><line x1="390.6" y1="364.0" x2="390.6" y2="370.0" stroke="#111827" stroke-width="1"/><text x="392.6" y="386.0" font-size="11" text-anchor="end" transform="rotate(-35 392.6 386.0)" font-family="sans-serif" fill="#374151">2026-04-21 03:00</text><line x1="556.2" y1="364.0" x2="556.2" y2="370.0" stroke="#111827" stroke-width="1"/><text x="558.2" y="386.0" font-size="11" text-anchor="end" transform="rotate(-35 558.2 386.0)" font-family="sans-serif" fill="#374151">2026-04-22 08:00</text><line x1="721.8" y1="364.0" x2="721.8" y2="370.0" stroke="#111827" stroke-width="1"/><text x="723.8" y="386.0" font-size="11" text-anchor="end" transform="rotate(-35 723.8 386.0)" font-family="sans-serif" fill="#374151">2026-04-24 08:00</text><line x1="887.4" y1="364.0" x2="887.4" y2="370.0" stroke="#111827" stroke-width="1"/><text x="889.4" y="386.0" font-size="11" text-anchor="end" transform="rotate(-35 889.4 386.0)" font-family="sans-serif" fill="#374151">2026-04-25 06:00</text><line x1="1011.7" y1="364.0" x2="1011.7" y2="370.0" stroke="#111827" stroke-width="1"/><text x="1013.7" y="386.0" font-size="11" text-anchor="end" transform="rotate(-35 1013.7 386.0)" font-family="sans-serif" fill="#374151">2026-04-28 12:00</text><line x1="1177.3" y1="364.0" x2="1177.3" y2="370.0" stroke="#111827" stroke-width="1"/><text x="1179.3" y="386.0" font-size="11" text-anchor="end" transform="rotate(-35 1179.3 386.0)" font-family="sans-serif" fill="#374151">2026-04-29 10:00</text><text x="26" y="208.0" font-size="12" transform="rotate(-90 26 208.0)" text-anchor="middle" font-family="sans-serif" fill="#1f2937">구간별 수</text><text x="1256.0" y="208.0" font-size="12" transform="rotate(90 1256.0 208.0)" text-anchor="middle" font-family="sans-serif" fill="#1f2937">누적</text><text x="639.0" y="442.0" font-size="13" text-anchor="middle" font-family="sans-serif" fill="#111827">시간</text></svg>