<svg xmlns="http://www.w3.org/2000/svg" width="1280" height="460" viewBox="0 0 1280 460"><rect x="0" y="0" width="100%" height="100%" fill="#ffffff"/><text x="640.0" y="28" font-size="20" text-anchor="middle" font-family="sans-serif" fill="#111827">시리즈 / 최근 반영 시점 / 시간별</text><line x1="80.0" y1="52.0" x2="1198.0" y2="52.0" stroke="#e5e7eb" stroke-width="1"/><text x="72.0" y="56.0" font-size="11" text-anchor="end" font-family="sans-serif" fill="#374151">1,086</text><text x="1206.0" y="56.0" font-size="11" text-anchor="start" font-family="sans-serif" fill="#374151">1,447</text><line x1="80.0" y1="114.4" x2="1198.0" y2="114.4" stroke="#e5e7eb" stroke-width="1"/><text x="72.0" y="118.4" font-size="11" text-anchor="end" font-family="sans-serif" fill="#374151">869</text><text x="1206.0" y="118.4" font-size="11" text-anchor="start" font-family="sans-serif" fill="#374151">1,158</text><line x1="80.0" y1="176.8" x2="1198.0" y2="176.8" stroke="#e5e7eb" stroke-width="1"/><text x="72.0" y="180.8" font-size="11" text-anchor="end" font-family="sans-serif" fill="#374151">652</text><text x="1206.0" y="180.8" font-size="11" text-anchor="start" font-family="sans-serif" fill="#374151">868</text><line x1="80.0" y1="239.2" x2="1198.0" y2="239.2" stroke="#e5e7eb" stroke-width="1"/><text x="72.0" y="243.2" font-size="11" text-anchor="end" font-family="sans-serif" fill="#374151">434</text><text x="1206.0" y="243.2" font-size="11" text-anchor="start" font-family="sans-serif" fill="#374151">579</text><line x1="80.0" y1="301.6" x2="1198.0" y2="301.6" stroke="#e5e7eb" stroke-width="1"/><text x="72.0" y="305.6" font-size="11" text-anchor="end" font-family="sans-serif" fill="#374151">217</text><text x="1206.0" y="305.6" font-size="11" text-anchor="start" font-family="sans-serif" fill="#374151">289</text><line x1="80.0" y1="364.0" x2="1198.0" y2="364.0" stroke="#e5e7eb" stroke-width="1"/><text x="72.0" y="368.0" font-size="11" text-anchor="end" font-family="sans-serif" fill="#374151">0</text><text x="1206.0" y="368.0" font-size="11" text-anchor="start" font-family="sans-serif" fill="#374151">0</text><line x1="80.0" y1="364.0" x2="1198.0" y2="364.0" stroke="#111827" stroke-width="1.2"/><line x1="80.0" y1="52.0" x2="80.0" y2="364.0" stroke="#111827" stroke-width="1.2"/><line x1="1198.0" y1="52.0" x2="1198.0" y2="364.0" stroke="#111827" stroke-width="1.2"/><rect x="81.0" y="363.7" width="29.1" height="0.3" fill="#93c5fd" stroke="#60a5fa" stroke-width="0.5"/><rect x="112.1" y="363.1" width="29.1" height="0.9" fill="#93c5fd" stroke="#60a5fa" stroke-width="0.5"/><rect x="143.1" y="360.3" width="29.1" height="3.7" fill="#93c5fd" stroke="#60a5fa" stroke-width="0.5"/><rect x="174.2" y="363.7" width="29.1" height="0.3" fill="#93c5fd" stroke="#60a5fa" stroke-width="0.5"/><rect x="205.2" y="363.7" width="29.1" height="0.3" fill="#93c5fd" stroke="#60a5fa" stroke-width="0.5"/><rect x="236.3" y="363.7" width="29.1" height="0.3" fill="#93c5fd" stroke="#60a5fa" stroke-width="0.5"/><rect x="267.3" y="363.7" width="29.1" height="0.3" fill="#93c5fd" stroke="#60a5fa" stroke-width="0.5"/><rect x="298.4" y="363.7" width="29.1" height="0.3" fill="#93c5fd" stroke="#60a5fa" stroke-width="0.5"/><rect x="329.4" y="363.7" width="29.1" height="0.3" fill="#93c5fd" stroke="#60a5fa" stroke-width="0.5"/><rect x="360.5" y="363.7" width="29.1" height="0.3" fill="#93c5fd" stroke="#60a5fa" stroke-width="0.5"/><rect x="391.6" y="363.4" width="29.1" height="0.6" fill="#93c5fd" stroke="#60a5fa" stroke-width="0.5"/><rect x="422.6" y="363.4" width="29.1" height="0.6" fill="#93c5fd" stroke="#60a5fa" stroke-width="0.5"/><rect x="453.7" y="363.7" width="29.1" height="0.3" fill="#93c5fd" stroke="#60a5fa" stroke-width="0.5"/><rect x="484.7" y="363.7" width="29.1" height="0.3" fill="#93c5fd" stroke="#60a5fa" stroke-width="0.5"/><rect x="515.8" y="363.7" width="29.1" height="0.3" fill="#93c5fd" stroke="#60a5fa" stroke-width="0.5"/><rect x="546.8" y="363.7" width="29.1" height="0.3" fill="#93c5fd" stroke="#60a5fa" stroke-width="0.5"/><rect x="577.9" y="363.7" width="29.1" height="0.3" fill="#93c5fd" stroke="#60a5fa" stroke-width="0.5"/><rect x="608.9" y="363.4" width="29.1" height="0.6" fill="#93c5fd" stroke="#60a5fa" stroke-width="0.5"/><rect x="640.0" y="363.4" width="29.1" height="0.6" fill="#93c5fd" stroke="#60a5fa" stroke-width="0.5"/><rect x="671.1" y="362.9" width="29.1" height="1.1" fill="#93c5fd" stroke="#60a5fa" stroke-width="0.5"/><rect x="702.1" y="362.9" width="29.1" height="1.1" fill="#93c5fd" stroke="#60a5fa" stroke-width="0.5"/><rect x="733.2" y="362.3" width="29.1" height="1.7" fill="#93c5fd" stroke="#60a5fa" stroke-width="0.5"/><rect x="764.2" y="52.0" width="29.1" height="312.0" fill="#93c5fd" stroke="#60a5fa" stroke-width="0.5"/><rect x="795.3" y="349.6" width="29.1" height="14.4" fill="#93c5fd" stroke="#60a5fa" stroke-width="0.5"/><rect x="826.3" y="363.4" width="29.1" height="0.6" fill="#93c5fd" stroke="#60a5fa" stroke-width="0.5"/><rect x="857.4" y="349.6" width="29.1" height="14.4" fill="#93c5fd" stroke="#60a5fa" stroke-width="0.5"/><rect x="888.4" y="349.6" width="29.1" height="14.4" fill="#93c5fd" stroke="#60a5fa" stroke-width="0.5"/><rect x="919.5" y="363.4" width="29.1" height="0.6" fill="#93c5fd" stroke="#60a5fa" stroke-width="0.5"/><rect x="950.6" y="349.6" width="29.1" height="14.4" fill="#93c5fd" stroke="#60a5fa" stroke-width="0.5"/><rect x="981.6" y="349.6" width="29.1" height="14.4" fill="#93c5fd" stroke="#60a5fa" stroke-width="0.5"/><rect x="1012.7" y="363.7" width="29.1" height="0.3" fill="#93c5fd" stroke="#60a5fa" stroke-width="0.5"/><rect x="1043.7" y="363.7" width="29.1" height="0.3" fill="#93c5fd" stroke="#60a5fa" stroke-width="0.5"/><rect x="1074.8" y="363.7" width="29.1" height="0.3" fill="#93c5fd" stroke="#60a5fa" stroke-width="0.5"/><rect x="1105.8" y="363.7" width="29.1" height="0.3" fill="#93c5fd" stroke="#60a5fa" stroke-width="0.5"/><rect x="1136.9" y="363.4" width="29.1" height="0.6" fill="#93c5fd" stroke="#60a5fa" stroke-width="0.5"/><rect x="1167.9" y="349.6" width="29.1" height="14.4" fill="#93c5fd" stroke="#60a5fa" stroke-width="0.5"/><polyline fill="none" stroke="#ef4444" stroke-width="2" points="95.5,363.8 126.6,363.1 157.6,360.3 188.7,360.1 219.8,359.9 250.8,359.7 281.9,359.5 312.9,359.3 344.0,359.0 375.0,358.8 406.1,358.4 437.1,358.0 468.2,357.7 499.2,357.5 530.3,357.3 561.4,357.1 592.4,356.9 623.5,356.5 654.5,356.0 685.6,355.2 716.6,354.3 747.7,353.0 778.8,118.8 809.8,108.1 840.9,107.6 871.9,96.8 903.0,86.1 934.0,85.6 965.1,74.9 996.1,64.1 1027.2,63.9 1058.2,63.6 1089.3,63.4 1120.4,63.2 1151.4,62.8 1182.5,52.0"/><line x1="95.5" y1="364.0" x2="95.5" y2="370.0" stroke="#111827" stroke-width="1"/><text x="97.5" y="386.0" font-size="11" text-anchor="end" transform="rotate(-35 97.5 386.0)" font-family="sans-serif" fill="#374151">2026-04-16 23:00</text><line x1="250.8" y1="364.0" x2="250.8" y2="370.0" stroke="#111827" stroke-width="1"/><text x="252.8" y="386.0" font-size="11" text-anchor="end" transform="rotate(-35 252.8 386.0)" font-family="sans-serif" fill="#374151">2026-04-19 18:00</text><line x1="406.1" y1="364.0" x2="406.1" y2="370.0" stroke="#111827" stroke-width="1"/><text x="408.1" y="386.0" font-size="11" text-anchor="end" transform="rotate(-35 408.1 386.0)" font-family="sans-serif" fill="#374151">2026-04-20 16:00</text><line x1="561.4" y1="364.0" x2="561.4" y2="370.0" stroke="#111827" stroke-width="1"/><text x="563.4" y="386.0" font-size="11" text-anchor="end" transform="rotate(-35 563.4 386.0)" font-family="sans-serif" fill="#374151">2026-04-21 05:00</text><line x1="716.6" y1="364.0" x2="716.6" y2="370.0" stroke="#111827" stroke-width="1"/><text x="718.6" y="386.0" font-size="11" text-anchor="end" transform="rotate(-35 718.6 386.0)" font-family="sans-serif" fill="#374151">2026-04-22 10:00</text><line x1="871.9" y1="364.0" x2="871.9" y2="370.0" stroke="#111827" stroke-width="1"/><text x="873.9" y="386.0" font-size="11" text-anchor="end" transform="rotate(-35 873.9 386.0)" font-family="sans-serif" fill="#374151">2026-04-24 18:00</text><line x1="1027.2" y1="364.0" x2="1027.2" y2="370.0" stroke="#111827" stroke-width="1"/><text x="1029.2" y="386.0" font-size="11" text-anchor="end" transform="rotate(-35 1029.2 386.0)" font-family="sans-serif" fill="#374151">2026-04-26 12:00</text><line x1="1182.5" y1="364.0" x2="1182.5" y2="370.0" stroke="#111827" stroke-width="1"/><text x="1184.5" y="386.0" font-size="11" text-anchor="end" transform="rotate(-35 1184.5 386.0)" font-family="sans-serif" fill="#374151">2026-04-27 06:00</text><text x="26" y="208.0" font-size="12" transform="rotate(-90 26 208.0)" text-anchor="middle" font-family="sans-serif" fill="#1f2937">구간별 수</text><text x="1256.0" y="208.0" font-size="12" transform="rotate(90 1256.0 208.0)" text-anchor="middle" font-family="sans-serif" fill="#1f2937">누적</text><text x="639.0" y="442.0" font-size="13" text-anchor="middle" font-family="sans-serif" fill="#111827">시간</text></svg>