<svg xmlns="http://www.w3.org/2000/svg" width="1280" height="460" viewBox="0 0 1280 460"><rect x="0" y="0" width="100%" height="100%" fill="#ffffff"/><text x="640.0" y="28" font-size="20" text-anchor="middle" font-family="sans-serif" fill="#111827">시리즈 / 최근 반영 시점 / 일별</text><line x1="80.0" y1="52.0" x2="1198.0" y2="52.0" stroke="#e5e7eb" stroke-width="1"/><text x="72.0" y="56.0" font-size="11" text-anchor="end" font-family="sans-serif" fill="#374151">1,027</text><text x="1206.0" y="56.0" font-size="11" text-anchor="start" font-family="sans-serif" fill="#374151">1,457</text><line x1="80.0" y1="114.4" x2="1198.0" y2="114.4" stroke="#e5e7eb" stroke-width="1"/><text x="72.0" y="118.4" font-size="11" text-anchor="end" font-family="sans-serif" fill="#374151">822</text><text x="1206.0" y="118.4" font-size="11" text-anchor="start" font-family="sans-serif" fill="#374151">1,166</text><line x1="80.0" y1="176.8" x2="1198.0" y2="176.8" stroke="#e5e7eb" stroke-width="1"/><text x="72.0" y="180.8" font-size="11" text-anchor="end" font-family="sans-serif" fill="#374151">616</text><text x="1206.0" y="180.8" font-size="11" text-anchor="start" font-family="sans-serif" fill="#374151">874</text><line x1="80.0" y1="239.2" x2="1198.0" y2="239.2" stroke="#e5e7eb" stroke-width="1"/><text x="72.0" y="243.2" font-size="11" text-anchor="end" font-family="sans-serif" fill="#374151">411</text><text x="1206.0" y="243.2" font-size="11" text-anchor="start" font-family="sans-serif" fill="#374151">583</text><line x1="80.0" y1="301.6" x2="1198.0" y2="301.6" stroke="#e5e7eb" stroke-width="1"/><text x="72.0" y="305.6" font-size="11" text-anchor="end" font-family="sans-serif" fill="#374151">205</text><text x="1206.0" y="305.6" font-size="11" text-anchor="start" font-family="sans-serif" fill="#374151">291</text><line x1="80.0" y1="364.0" x2="1198.0" y2="364.0" stroke="#e5e7eb" stroke-width="1"/><text x="72.0" y="368.0" font-size="11" text-anchor="end" font-family="sans-serif" fill="#374151">0</text><text x="1206.0" y="368.0" font-size="11" text-anchor="start" font-family="sans-serif" fill="#374151">0</text><line x1="80.0" y1="364.0" x2="1198.0" y2="364.0" stroke="#111827" stroke-width="1.2"/><line x1="80.0" y1="52.0" x2="80.0" y2="364.0" stroke="#111827" stroke-width="1.2"/><line x1="1198.0" y1="52.0" x2="1198.0" y2="364.0" stroke="#111827" stroke-width="1.2"/><rect x="81.0" y="363.7" width="99.6" height="0.3" fill="#93c5fd" stroke="#60a5fa" stroke-width="0.5"/><rect x="182.6" y="361.9" width="99.6" height="2.1" fill="#93c5fd" stroke="#60a5fa" stroke-width="0.5"/><rect x="284.3" y="362.2" width="99.6" height="1.8" fill="#93c5fd" stroke="#60a5fa" stroke-width="0.5"/><rect x="385.9" y="363.1" width="99.6" height="0.9" fill="#93c5fd" stroke="#60a5fa" stroke-width="0.5"/><rect x="487.5" y="52.0" width="99.6" height="312.0" fill="#93c5fd" stroke="#60a5fa" stroke-width="0.5"/><rect x="589.2" y="319.6" width="99.6" height="44.4" fill="#93c5fd" stroke="#60a5fa" stroke-width="0.5"/><rect x="690.8" y="350.3" width="99.6" height="13.7" fill="#93c5fd" stroke="#60a5fa" stroke-width="0.5"/><rect x="792.5" y="350.6" width="99.6" height="13.4" fill="#93c5fd" stroke="#60a5fa" stroke-width="0.5"/><rect x="894.1" y="355.2" width="99.6" height="8.8" fill="#93c5fd" stroke="#60a5fa" stroke-width="0.5"/><rect x="995.7" y="333.9" width="99.6" height="30.1" fill="#93c5fd" stroke="#60a5fa" stroke-width="0.5"/><rect x="1097.4" y="348.8" width="99.6" height="15.2" fill="#93c5fd" stroke="#60a5fa" stroke-width="0.5"/><polyline fill="none" stroke="#ef4444" stroke-width="2" points="130.8,363.8 232.5,362.3 334.1,361.0 435.7,360.4 537.4,140.4 639.0,109.2 740.6,99.5 842.3,90.1 943.9,83.9 1045.5,62.7 1147.2,52.0"/><line x1="130.8" y1="364.0" x2="130.8" y2="370.0" stroke="#111827" stroke-width="1"/><text x="132.8" y="386.0" font-size="11" text-anchor="end" transform="rotate(-35 132.8 386.0)" font-family="sans-serif" fill="#374151">2026-04-16</text><line x1="232.5" y1="364.0" x2="232.5" y2="370.0" stroke="#111827" stroke-width="1"/><text x="234.5" y="386.0" font-size="11" text-anchor="end" transform="rotate(-35 234.5 386.0)" font-family="sans-serif" fill="#374151">2026-04-17</text><line x1="435.7" y1="364.0" x2="435.7" y2="370.0" stroke="#111827" stroke-width="1"/><text x="437.7" y="386.0" font-size="11" text-anchor="end" transform="rotate(-35 437.7 386.0)" font-family="sans-serif" fill="#374151">2026-04-21</text><line x1="537.4" y1="364.0" x2="537.4" y2="370.0" stroke="#111827" stroke-width="1"/><text x="539.4" y="386.0" font-size="11" text-anchor="end" transform="rotate(-35 539.4 386.0)" font-family="sans-serif" fill="#374151">2026-04-22</text><line x1="740.6" y1="364.0" x2="740.6" y2="370.0" stroke="#111827" stroke-width="1"/><text x="742.6" y="386.0" font-size="11" text-anchor="end" transform="rotate(-35 742.6 386.0)" font-family="sans-serif" fill="#374151">2026-04-25</text><line x1="842.3" y1="364.0" x2="842.3" y2="370.0" stroke="#111827" stroke-width="1"/><text x="844.3" y="386.0" font-size="11" text-anchor="end" transform="rotate(-35 844.3 386.0)" font-family="sans-serif" fill="#374151">2026-04-26</text><line x1="1045.5" y1="364.0" x2="1045.5" y2="370.0" stroke="#111827" stroke-width="1"/><text x="1047.5" y="386.0" font-size="11" text-anchor="end" transform="rotate(-35 1047.5 386.0)" font-family="sans-serif" fill="#374151">2026-04-30</text><line x1="1147.2" y1="364.0" x2="1147.2" y2="370.0" stroke="#111827" stroke-width="1"/><text x="1149.2" y="386.0" font-size="11" text-anchor="end" transform="rotate(-35 1149.2 386.0)" font-family="sans-serif" fill="#374151">2026-05-01</text><text x="26" y="208.0" font-size="12" transform="rotate(-90 26 208.0)" text-anchor="middle" font-family="sans-serif" fill="#1f2937">구간별 수</text><text x="1256.0" y="208.0" font-size="12" transform="rotate(90 1256.0 208.0)" text-anchor="middle" font-family="sans-serif" fill="#1f2937">누적</text><text x="639.0" y="442.0" font-size="13" text-anchor="middle" font-family="sans-serif" fill="#111827">일</text></svg>