<svg xmlns="http://www.w3.org/2000/svg" width="1280" height="460" viewBox="0 0 1280 460"><rect x="0" y="0" width="100%" height="100%" fill="#ffffff"/><text x="640.0" y="28" font-size="20" text-anchor="middle" font-family="sans-serif" fill="#111827">시리즈 / 생성 시점 / 일별</text><line x1="80.0" y1="52.0" x2="1198.0" y2="52.0" stroke="#e5e7eb" stroke-width="1"/><text x="72.0" y="56.0" font-size="11" text-anchor="end" font-family="sans-serif" fill="#374151">70</text><text x="1206.0" y="56.0" font-size="11" text-anchor="start" font-family="sans-serif" fill="#374151">1,429</text><line x1="80.0" y1="114.4" x2="1198.0" y2="114.4" stroke="#e5e7eb" stroke-width="1"/><text x="72.0" y="118.4" font-size="11" text-anchor="end" font-family="sans-serif" fill="#374151">56</text><text x="1206.0" y="118.4" font-size="11" text-anchor="start" font-family="sans-serif" fill="#374151">1,143</text><line x1="80.0" y1="176.8" x2="1198.0" y2="176.8" stroke="#e5e7eb" stroke-width="1"/><text x="72.0" y="180.8" font-size="11" text-anchor="end" font-family="sans-serif" fill="#374151">42</text><text x="1206.0" y="180.8" font-size="11" text-anchor="start" font-family="sans-serif" fill="#374151">857</text><line x1="80.0" y1="239.2" x2="1198.0" y2="239.2" stroke="#e5e7eb" stroke-width="1"/><text x="72.0" y="243.2" font-size="11" text-anchor="end" font-family="sans-serif" fill="#374151">28</text><text x="1206.0" y="243.2" font-size="11" text-anchor="start" font-family="sans-serif" fill="#374151">572</text><line x1="80.0" y1="301.6" x2="1198.0" y2="301.6" stroke="#e5e7eb" stroke-width="1"/><text x="72.0" y="305.6" font-size="11" text-anchor="end" font-family="sans-serif" fill="#374151">14</text><text x="1206.0" y="305.6" font-size="11" text-anchor="start" font-family="sans-serif" fill="#374151">286</text><line x1="80.0" y1="364.0" x2="1198.0" y2="364.0" stroke="#e5e7eb" stroke-width="1"/><text x="72.0" y="368.0" font-size="11" text-anchor="end" font-family="sans-serif" fill="#374151">0</text><text x="1206.0" y="368.0" font-size="11" text-anchor="start" font-family="sans-serif" fill="#374151">0</text><line x1="80.0" y1="364.0" x2="1198.0" y2="364.0" stroke="#111827" stroke-width="1.2"/><line x1="80.0" y1="52.0" x2="80.0" y2="364.0" stroke="#111827" stroke-width="1.2"/><line x1="1198.0" y1="52.0" x2="1198.0" y2="364.0" stroke="#111827" stroke-width="1.2"/><rect x="80.0" y="346.2" width="4.3" height="17.8" fill="#93c5fd" stroke="#60a5fa" stroke-width="0.5"/><rect x="84.3" y="359.5" width="4.3" height="4.5" fill="#93c5fd" stroke="#60a5fa" stroke-width="0.5"/><rect x="88.7" y="359.5" width="4.3" height="4.5" fill="#93c5fd" stroke="#60a5fa" stroke-width="0.5"/><rect x="93.0" y="355.1" width="4.3" height="8.9" fill="#93c5fd" stroke="#60a5fa" stroke-width="0.5"/><rect x="97.3" y="359.5" width="4.3" height="4.5" fill="#93c5fd" stroke="#60a5fa" stroke-width="0.5"/><rect x="101.7" y="350.6" width="4.3" height="13.4" fill="#93c5fd" stroke="#60a5fa" stroke-width="0.5"/><rect x="106.0" y="359.5" width="4.3" height="4.5" fill="#93c5fd" stroke="#60a5fa" stroke-width="0.5"/><rect x="110.3" y="359.5" width="4.3" height="4.5" fill="#93c5fd" stroke="#60a5fa" stroke-width="0.5"/><rect x="114.7" y="359.5" width="4.3" height="4.5" fill="#93c5fd" stroke="#60a5fa" stroke-width="0.5"/><rect x="119.0" y="359.5" width="4.3" height="4.5" fill="#93c5fd" stroke="#60a5fa" stroke-width="0.5"/><rect x="123.3" y="359.5" width="4.3" height="4.5" fill="#93c5fd" stroke="#60a5fa" stroke-width="0.5"/><rect x="127.7" y="359.5" width="4.3" height="4.5" fill="#93c5fd" stroke="#60a5fa" stroke-width="0.5"/><rect x="132.0" y="359.5" width="4.3" height="4.5" fill="#93c5fd" stroke="#60a5fa" stroke-width="0.5"/><rect x="136.3" y="355.1" width="4.3" height="8.9" fill="#93c5fd" stroke="#60a5fa" stroke-width="0.5"/><rect x="140.7" y="346.2" width="4.3" height="17.8" fill="#93c5fd" stroke="#60a5fa" stroke-width="0.5"/><rect x="145.0" y="359.5" width="4.3" height="4.5" fill="#93c5fd" stroke="#60a5fa" stroke-width="0.5"/><rect x="149.3" y="359.5" width="4.3" height="4.5" fill="#93c5fd" stroke="#60a5fa" stroke-width="0.5"/><rect x="153.7" y="350.6" width="4.3" height="13.4" fill="#93c5fd" stroke="#60a5fa" stroke-width="0.5"/><rect x="158.0" y="341.7" width="4.3" height="22.3" fill="#93c5fd" stroke="#60a5fa" stroke-width="0.5"/><rect x="162.3" y="306.1" width="4.3" height="57.9" fill="#93c5fd" stroke="#60a5fa" stroke-width="0.5"/><rect x="166.7" y="355.1" width="4.3" height="8.9" fill="#93c5fd" stroke="#60a5fa" stroke-width="0.5"/><rect x="171.0" y="350.6" width="4.3" height="13.4" fill="#93c5fd" stroke="#60a5fa" stroke-width="0.5"/><rect x="175.3" y="359.5" width="4.3" height="4.5" fill="#93c5fd" stroke="#60a5fa" stroke-width="0.5"/><rect x="179.7" y="350.6" width="4.3" height="13.4" fill="#93c5fd" stroke="#60a5fa" stroke-width="0.5"/><rect x="184.0" y="359.5" width="4.3" height="4.5" fill="#93c5fd" stroke="#60a5fa" stroke-width="0.5"/><rect x="188.3" y="341.7" width="4.3" height="22.3" fill="#93c5fd" stroke="#60a5fa" stroke-width="0.5"/><rect x="192.7" y="359.5" width="4.3" height="4.5" fill="#93c5fd" stroke="#60a5fa" stroke-width="0.5"/><rect x="197.0" y="359.5" width="4.3" height="4.5" fill="#93c5fd" stroke="#60a5fa" stroke-width="0.5"/><rect x="201.3" y="359.5" width="4.3" height="4.5" fill="#93c5fd" stroke="#60a5fa" stroke-width="0.5"/><rect x="205.7" y="359.5" width="4.3" height="4.5" fill="#93c5fd" stroke="#60a5fa" stroke-width="0.5"/><rect x="210.0" y="359.5" width="4.3" height="4.5" fill="#93c5fd" stroke="#60a5fa" stroke-width="0.5"/><rect x="214.3" y="359.5" width="4.3" height="4.5" fill="#93c5fd" stroke="#60a5fa" stroke-width="0.5"/><rect x="218.7" y="359.5" width="4.3" height="4.5" fill="#93c5fd" stroke="#60a5fa" stroke-width="0.5"/><rect x="223.0" y="359.5" width="4.3" height="4.5" fill="#93c5fd" stroke="#60a5fa" stroke-width="0.5"/><rect x="227.3" y="359.5" width="4.3" height="4.5" fill="#93c5fd" stroke="#60a5fa" stroke-width="0.5"/><rect x="231.7" y="359.5" width="4.3" height="4.5" fill="#93c5fd" stroke="#60a5fa" stroke-width="0.5"/><rect x="236.0" y="359.5" width="4.3" height="4.5" fill="#93c5fd" stroke="#60a5fa" stroke-width="0.5"/><rect x="240.3" y="359.5" width="4.3" height="4.5" fill="#93c5fd" stroke="#60a5fa" stroke-width="0.5"/><rect x="244.7" y="359.5" width="4.3" height="4.5" fill="#93c5fd" stroke="#60a5fa" stroke-width="0.5"/><rect x="249.0" y="359.5" width="4.3" height="4.5" fill="#93c5fd" stroke="#60a5fa" stroke-width="0.5"/><rect x="253.3" y="350.6" width="4.3" height="13.4" fill="#93c5fd" stroke="#60a5fa" stroke-width="0.5"/><rect x="257.7" y="359.5" width="4.3" height="4.5" fill="#93c5fd" stroke="#60a5fa" stroke-width="0.5"/><rect x="262.0" y="359.5" width="4.3" height="4.5" fill="#93c5fd" stroke="#60a5fa" stroke-width="0.5"/><rect x="266.3" y="315.0" width="4.3" height="49.0" fill="#93c5fd" stroke="#60a5fa" stroke-width="0.5"/><rect x="270.7" y="359.5" width="4.3" height="4.5" fill="#93c5fd" stroke="#60a5fa" stroke-width="0.5"/><rect x="275.0" y="337.3" width="4.3" height="26.7" fill="#93c5fd" stroke="#60a5fa" stroke-width="0.5"/><rect x="279.3" y="328.3" width="4.3" height="35.7" fill="#93c5fd" stroke="#60a5fa" stroke-width="0.5"/><rect x="283.7" y="359.5" width="4.3" height="4.5" fill="#93c5fd" stroke="#60a5fa" stroke-width="0.5"/><rect x="288.0" y="355.1" width="4.3" height="8.9" fill="#93c5fd" stroke="#60a5fa" stroke-width="0.5"/><rect x="292.3" y="350.6" width="4.3" height="13.4" fill="#93c5fd" stroke="#60a5fa" stroke-width="0.5"/><rect x="296.7" y="355.1" width="4.3" height="8.9" fill="#93c5fd" stroke="#60a5fa" stroke-width="0.5"/><rect x="301.0" y="355.1" width="4.3" height="8.9" fill="#93c5fd" stroke="#60a5fa" stroke-width="0.5"/><rect x="305.3" y="350.6" width="4.3" height="13.4" fill="#93c5fd" stroke="#60a5fa" stroke-width="0.5"/><rect x="309.7" y="359.5" width="4.3" height="4.5" fill="#93c5fd" stroke="#60a5fa" stroke-width="0.5"/><rect x="314.0" y="359.5" width="4.3" height="4.5" fill="#93c5fd" stroke="#60a5fa" stroke-width="0.5"/><rect x="318.3" y="359.5" width="4.3" height="4.5" fill="#93c5fd" stroke="#60a5fa" stroke-width="0.5"/><rect x="322.7" y="359.5" width="4.3" height="4.5" fill="#93c5fd" stroke="#60a5fa" stroke-width="0.5"/><rect x="327.0" y="350.6" width="4.3" height="13.4" fill="#93c5fd" stroke="#60a5fa" stroke-width="0.5"/><rect x="331.3" y="359.5" width="4.3" height="4.5" fill="#93c5fd" stroke="#60a5fa" stroke-width="0.5"/><rect x="335.7" y="328.3" width="4.3" height="35.7" fill="#93c5fd" stroke="#60a5fa" stroke-width="0.5"/><rect x="340.0" y="359.5" width="4.3" height="4.5" fill="#93c5fd" stroke="#60a5fa" stroke-width="0.5"/><rect x="344.3" y="359.5" width="4.3" height="4.5" fill="#93c5fd" stroke="#60a5fa" stroke-width="0.5"/><rect x="348.7" y="359.5" width="4.3" height="4.5" fill="#93c5fd" stroke="#60a5fa" stroke-width="0.5"/><rect x="353.0" y="350.6" width="4.3" height="13.4" fill="#93c5fd" stroke="#60a5fa" stroke-width="0.5"/><rect x="357.3" y="359.5" width="4.3" height="4.5" fill="#93c5fd" stroke="#60a5fa" stroke-width="0.5"/><rect x="361.7" y="359.5" width="4.3" height="4.5" fill="#93c5fd" stroke="#60a5fa" stroke-width="0.5"/><rect x="366.0" y="355.1" width="4.3" height="8.9" fill="#93c5fd" stroke="#60a5fa" stroke-width="0.5"/><rect x="370.3" y="350.6" width="4.3" height="13.4" fill="#93c5fd" stroke="#60a5fa" stroke-width="0.5"/><rect x="374.7" y="359.5" width="4.3" height="4.5" fill="#93c5fd" stroke="#60a5fa" stroke-width="0.5"/><rect x="379.0" y="350.6" width="4.3" height="13.4" fill="#93c5fd" stroke="#60a5fa" stroke-width="0.5"/><rect x="383.3" y="355.1" width="4.3" height="8.9" fill="#93c5fd" stroke="#60a5fa" stroke-width="0.5"/><rect x="387.7" y="350.6" width="4.3" height="13.4" fill="#93c5fd" stroke="#60a5fa" stroke-width="0.5"/><rect x="392.0" y="359.5" width="4.3" height="4.5" fill="#93c5fd" stroke="#60a5fa" stroke-width="0.5"/><rect x="396.3" y="319.4" width="4.3" height="44.6" fill="#93c5fd" stroke="#60a5fa" stroke-width="0.5"/><rect x="400.7" y="346.2" width="4.3" height="17.8" fill="#93c5fd" stroke="#60a5fa" stroke-width="0.5"/><rect x="405.0" y="346.2" width="4.3" height="17.8" fill="#93c5fd" stroke="#60a5fa" stroke-width="0.5"/><rect x="409.3" y="359.5" width="4.3" height="4.5" fill="#93c5fd" stroke="#60a5fa" stroke-width="0.5"/><rect x="413.7" y="359.5" width="4.3" height="4.5" fill="#93c5fd" stroke="#60a5fa" stroke-width="0.5"/><rect x="418.0" y="359.5" width="4.3" height="4.5" fill="#93c5fd" stroke="#60a5fa" stroke-width="0.5"/><rect x="422.3" y="355.1" width="4.3" height="8.9" fill="#93c5fd" stroke="#60a5fa" stroke-width="0.5"/><rect x="426.7" y="355.1" width="4.3" height="8.9" fill="#93c5fd" stroke="#60a5fa" stroke-width="0.5"/><rect x="431.0" y="350.6" width="4.3" height="13.4" fill="#93c5fd" stroke="#60a5fa" stroke-width="0.5"/><rect x="435.3" y="355.1" width="4.3" height="8.9" fill="#93c5fd" stroke="#60a5fa" stroke-width="0.5"/><rect x="439.7" y="350.6" width="4.3" height="13.4" fill="#93c5fd" stroke="#60a5fa" stroke-width="0.5"/><rect x="444.0" y="359.5" width="4.3" height="4.5" fill="#93c5fd" stroke="#60a5fa" stroke-width="0.5"/><rect x="448.3" y="355.1" width="4.3" height="8.9" fill="#93c5fd" stroke="#60a5fa" stroke-width="0.5"/><rect x="452.7" y="359.5" width="4.3" height="4.5" fill="#93c5fd" stroke="#60a5fa" stroke-width="0.5"/><rect x="457.0" y="337.3" width="4.3" height="26.7" fill="#93c5fd" stroke="#60a5fa" stroke-width="0.5"/><rect x="461.3" y="359.5" width="4.3" height="4.5" fill="#93c5fd" stroke="#60a5fa" stroke-width="0.5"/><rect x="465.7" y="359.5" width="4.3" height="4.5" fill="#93c5fd" stroke="#60a5fa" stroke-width="0.5"/><rect x="470.0" y="359.5" width="4.3" height="4.5" fill="#93c5fd" stroke="#60a5fa" stroke-width="0.5"/><rect x="474.3" y="359.5" width="4.3" height="4.5" fill="#93c5fd" stroke="#60a5fa" stroke-width="0.5"/><rect x="478.7" y="359.5" width="4.3" height="4.5" fill="#93c5fd" stroke="#60a5fa" stroke-width="0.5"/><rect x="483.0" y="337.3" width="4.3" height="26.7" fill="#93c5fd" stroke="#60a5fa" stroke-width="0.5"/><rect x="487.3" y="359.5" width="4.3" height="4.5" fill="#93c5fd" stroke="#60a5fa" stroke-width="0.5"/><rect x="491.7" y="346.2" width="4.3" height="17.8" fill="#93c5fd" stroke="#60a5fa" stroke-width="0.5"/><rect x="496.0" y="319.4" width="4.3" height="44.6" fill="#93c5fd" stroke="#60a5fa" stroke-width="0.5"/><rect x="500.3" y="328.3" width="4.3" height="35.7" fill="#93c5fd" stroke="#60a5fa" stroke-width="0.5"/><rect x="504.7" y="355.1" width="4.3" height="8.9" fill="#93c5fd" stroke="#60a5fa" stroke-width="0.5"/><rect x="509.0" y="355.1" width="4.3" height="8.9" fill="#93c5fd" stroke="#60a5fa" stroke-width="0.5"/><rect x="513.3" y="355.1" width="4.3" height="8.9" fill="#93c5fd" stroke="#60a5fa" stroke-width="0.5"/><rect x="517.7" y="355.1" width="4.3" height="8.9" fill="#93c5fd" stroke="#60a5fa" stroke-width="0.5"/><rect x="522.0" y="350.6" width="4.3" height="13.4" fill="#93c5fd" stroke="#60a5fa" stroke-width="0.5"/><rect x="526.3" y="341.7" width="4.3" height="22.3" fill="#93c5fd" stroke="#60a5fa" stroke-width="0.5"/><rect x="530.7" y="359.5" width="4.3" height="4.5" fill="#93c5fd" stroke="#60a5fa" stroke-width="0.5"/><rect x="535.0" y="323.9" width="4.3" height="40.1" fill="#93c5fd" stroke="#60a5fa" stroke-width="0.5"/><rect x="539.3" y="355.1" width="4.3" height="8.9" fill="#93c5fd" stroke="#60a5fa" stroke-width="0.5"/><rect x="543.7" y="346.2" width="4.3" height="17.8" fill="#93c5fd" stroke="#60a5fa" stroke-width="0.5"/><rect x="548.0" y="355.1" width="4.3" height="8.9" fill="#93c5fd" stroke="#60a5fa" stroke-width="0.5"/><rect x="552.3" y="359.5" width="4.3" height="4.5" fill="#93c5fd" stroke="#60a5fa" stroke-width="0.5"/><rect x="556.7" y="359.5" width="4.3" height="4.5" fill="#93c5fd" stroke="#60a5fa" stroke-width="0.5"/><rect x="561.0" y="355.1" width="4.3" height="8.9" fill="#93c5fd" stroke="#60a5fa" stroke-width="0.5"/><rect x="565.3" y="350.6" width="4.3" height="13.4" fill="#93c5fd" stroke="#60a5fa" stroke-width="0.5"/><rect x="569.7" y="355.1" width="4.3" height="8.9" fill="#93c5fd" stroke="#60a5fa" stroke-width="0.5"/><rect x="574.0" y="315.0" width="4.3" height="49.0" fill="#93c5fd" stroke="#60a5fa" stroke-width="0.5"/><rect x="578.3" y="319.4" width="4.3" height="44.6" fill="#93c5fd" stroke="#60a5fa" stroke-width="0.5"/><rect x="582.7" y="346.2" width="4.3" height="17.8" fill="#93c5fd" stroke="#60a5fa" stroke-width="0.5"/><rect x="587.0" y="359.5" width="4.3" height="4.5" fill="#93c5fd" stroke="#60a5fa" stroke-width="0.5"/><rect x="591.3" y="328.3" width="4.3" height="35.7" fill="#93c5fd" stroke="#60a5fa" stroke-width="0.5"/><rect x="595.7" y="328.3" width="4.3" height="35.7" fill="#93c5fd" stroke="#60a5fa" stroke-width="0.5"/><rect x="600.0" y="257.0" width="4.3" height="107.0" fill="#93c5fd" stroke="#60a5fa" stroke-width="0.5"/><rect x="604.3" y="355.1" width="4.3" height="8.9" fill="#93c5fd" stroke="#60a5fa" stroke-width="0.5"/><rect x="608.7" y="341.7" width="4.3" height="22.3" fill="#93c5fd" stroke="#60a5fa" stroke-width="0.5"/><rect x="613.0" y="350.6" width="4.3" height="13.4" fill="#93c5fd" stroke="#60a5fa" stroke-width="0.5"/><rect x="617.3" y="306.1" width="4.3" height="57.9" fill="#93c5fd" stroke="#60a5fa" stroke-width="0.5"/><rect x="621.7" y="337.3" width="4.3" height="26.7" fill="#93c5fd" stroke="#60a5fa" stroke-width="0.5"/><rect x="626.0" y="301.6" width="4.3" height="62.4" fill="#93c5fd" stroke="#60a5fa" stroke-width="0.5"/><rect x="630.3" y="319.4" width="4.3" height="44.6" fill="#93c5fd" stroke="#60a5fa" stroke-width="0.5"/><rect x="634.7" y="355.1" width="4.3" height="8.9" fill="#93c5fd" stroke="#60a5fa" stroke-width="0.5"/><rect x="639.0" y="359.5" width="4.3" height="4.5" fill="#93c5fd" stroke="#60a5fa" stroke-width="0.5"/><rect x="643.3" y="341.7" width="4.3" height="22.3" fill="#93c5fd" stroke="#60a5fa" stroke-width="0.5"/><rect x="647.7" y="306.1" width="4.3" height="57.9" fill="#93c5fd" stroke="#60a5fa" stroke-width="0.5"/><rect x="652.0" y="346.2" width="4.3" height="17.8" fill="#93c5fd" stroke="#60a5fa" stroke-width="0.5"/><rect x="656.3" y="257.0" width="4.3" height="107.0" fill="#93c5fd" stroke="#60a5fa" stroke-width="0.5"/><rect x="660.7" y="341.7" width="4.3" height="22.3" fill="#93c5fd" stroke="#60a5fa" stroke-width="0.5"/><rect x="665.0" y="52.0" width="4.3" height="312.0" fill="#93c5fd" stroke="#60a5fa" stroke-width="0.5"/><rect x="669.3" y="288.2" width="4.3" height="75.8" fill="#93c5fd" stroke="#60a5fa" stroke-width="0.5"/><rect x="673.7" y="350.6" width="4.3" height="13.4" fill="#93c5fd" stroke="#60a5fa" stroke-width="0.5"/><rect x="678.0" y="355.1" width="4.3" height="8.9" fill="#93c5fd" stroke="#60a5fa" stroke-width="0.5"/><rect x="682.3" y="181.3" width="4.3" height="182.7" fill="#93c5fd" stroke="#60a5fa" stroke-width="0.5"/><rect x="686.7" y="337.3" width="4.3" height="26.7" fill="#93c5fd" stroke="#60a5fa" stroke-width="0.5"/><rect x="691.0" y="350.6" width="4.3" height="13.4" fill="#93c5fd" stroke="#60a5fa" stroke-width="0.5"/><rect x="695.3" y="355.1" width="4.3" height="8.9" fill="#93c5fd" stroke="#60a5fa" stroke-width="0.5"/><rect x="699.7" y="346.2" width="4.3" height="17.8" fill="#93c5fd" stroke="#60a5fa" stroke-width="0.5"/><rect x="704.0" y="328.3" width="4.3" height="35.7" fill="#93c5fd" stroke="#60a5fa" stroke-width="0.5"/><rect x="708.3" y="359.5" width="4.3" height="4.5" fill="#93c5fd" stroke="#60a5fa" stroke-width="0.5"/><rect x="712.7" y="359.5" width="4.3" height="4.5" fill="#93c5fd" stroke="#60a5fa" stroke-width="0.5"/><rect x="717.0" y="346.2" width="4.3" height="17.8" fill="#93c5fd" stroke="#60a5fa" stroke-width="0.5"/><rect x="721.3" y="341.7" width="4.3" height="22.3" fill="#93c5fd" stroke="#60a5fa" stroke-width="0.5"/><rect x="725.7" y="337.3" width="4.3" height="26.7" fill="#93c5fd" stroke="#60a5fa" stroke-width="0.5"/><rect x="730.0" y="337.3" width="4.3" height="26.7" fill="#93c5fd" stroke="#60a5fa" stroke-width="0.5"/><rect x="734.3" y="359.5" width="4.3" height="4.5" fill="#93c5fd" stroke="#60a5fa" stroke-width="0.5"/><rect x="738.7" y="341.7" width="4.3" height="22.3" fill="#93c5fd" stroke="#60a5fa" stroke-width="0.5"/><rect x="743.0" y="332.8" width="4.3" height="31.2" fill="#93c5fd" stroke="#60a5fa" stroke-width="0.5"/><rect x="747.3" y="332.8" width="4.3" height="31.2" fill="#93c5fd" stroke="#60a5fa" stroke-width="0.5"/><rect x="751.7" y="328.3" width="4.3" height="35.7" fill="#93c5fd" stroke="#60a5fa" stroke-width="0.5"/><rect x="756.0" y="323.9" width="4.3" height="40.1" fill="#93c5fd" stroke="#60a5fa" stroke-width="0.5"/><rect x="760.3" y="332.8" width="4.3" height="31.2" fill="#93c5fd" stroke="#60a5fa" stroke-width="0.5"/><rect x="764.7" y="346.2" width="4.3" height="17.8" fill="#93c5fd" stroke="#60a5fa" stroke-width="0.5"/><rect x="769.0" y="350.6" width="4.3" height="13.4" fill="#93c5fd" stroke="#60a5fa" stroke-width="0.5"/><rect x="773.3" y="350.6" width="4.3" height="13.4" fill="#93c5fd" stroke="#60a5fa" stroke-width="0.5"/><rect x="777.7" y="332.8" width="4.3" height="31.2" fill="#93c5fd" stroke="#60a5fa" stroke-width="0.5"/><rect x="782.0" y="359.5" width="4.3" height="4.5" fill="#93c5fd" stroke="#60a5fa" stroke-width="0.5"/><rect x="786.3" y="350.6" width="4.3" height="13.4" fill="#93c5fd" stroke="#60a5fa" stroke-width="0.5"/><rect x="790.7" y="355.1" width="4.3" height="8.9" fill="#93c5fd" stroke="#60a5fa" stroke-width="0.5"/><rect x="795.0" y="355.1" width="4.3" height="8.9" fill="#93c5fd" stroke="#60a5fa" stroke-width="0.5"/><rect x="799.3" y="355.1" width="4.3" height="8.9" fill="#93c5fd" stroke="#60a5fa" stroke-width="0.5"/><rect x="803.7" y="355.1" width="4.3" height="8.9" fill="#93c5fd" stroke="#60a5fa" stroke-width="0.5"/><rect x="808.0" y="359.5" width="4.3" height="4.5" fill="#93c5fd" stroke="#60a5fa" stroke-width="0.5"/><rect x="812.3" y="359.5" width="4.3" height="4.5" fill="#93c5fd" stroke="#60a5fa" stroke-width="0.5"/><rect x="816.7" y="337.3" width="4.3" height="26.7" fill="#93c5fd" stroke="#60a5fa" stroke-width="0.5"/><rect x="821.0" y="355.1" width="4.3" height="8.9" fill="#93c5fd" stroke="#60a5fa" stroke-width="0.5"/><rect x="825.3" y="328.3" width="4.3" height="35.7" fill="#93c5fd" stroke="#60a5fa" stroke-width="0.5"/><rect x="829.7" y="350.6" width="4.3" height="13.4" fill="#93c5fd" stroke="#60a5fa" stroke-width="0.5"/><rect x="834.0" y="328.3" width="4.3" height="35.7" fill="#93c5fd" stroke="#60a5fa" stroke-width="0.5"/><rect x="838.3" y="332.8" width="4.3" height="31.2" fill="#93c5fd" stroke="#60a5fa" stroke-width="0.5"/><rect x="842.7" y="328.3" width="4.3" height="35.7" fill="#93c5fd" stroke="#60a5fa" stroke-width="0.5"/><rect x="847.0" y="341.7" width="4.3" height="22.3" fill="#93c5fd" stroke="#60a5fa" stroke-width="0.5"/><rect x="851.3" y="355.1" width="4.3" height="8.9" fill="#93c5fd" stroke="#60a5fa" stroke-width="0.5"/><rect x="855.7" y="355.1" width="4.3" height="8.9" fill="#93c5fd" stroke="#60a5fa" stroke-width="0.5"/><rect x="860.0" y="319.4" width="4.3" height="44.6" fill="#93c5fd" stroke="#60a5fa" stroke-width="0.5"/><rect x="864.3" y="315.0" width="4.3" height="49.0" fill="#93c5fd" stroke="#60a5fa" stroke-width="0.5"/><rect x="868.7" y="328.3" width="4.3" height="35.7" fill="#93c5fd" stroke="#60a5fa" stroke-width="0.5"/><rect x="873.0" y="323.9" width="4.3" height="40.1" fill="#93c5fd" stroke="#60a5fa" stroke-width="0.5"/><rect x="877.3" y="341.7" width="4.3" height="22.3" fill="#93c5fd" stroke="#60a5fa" stroke-width="0.5"/><rect x="881.7" y="359.5" width="4.3" height="4.5" fill="#93c5fd" stroke="#60a5fa" stroke-width="0.5"/><rect x="886.0" y="350.6" width="4.3" height="13.4" fill="#93c5fd" stroke="#60a5fa" stroke-width="0.5"/><rect x="890.3" y="359.5" width="4.3" height="4.5" fill="#93c5fd" stroke="#60a5fa" stroke-width="0.5"/><rect x="894.7" y="346.2" width="4.3" height="17.8" fill="#93c5fd" stroke="#60a5fa" stroke-width="0.5"/><rect x="899.0" y="346.2" width="4.3" height="17.8" fill="#93c5fd" stroke="#60a5fa" stroke-width="0.5"/><rect x="903.3" y="341.7" width="4.3" height="22.3" fill="#93c5fd" stroke="#60a5fa" stroke-width="0.5"/><rect x="907.7" y="359.5" width="4.3" height="4.5" fill="#93c5fd" stroke="#60a5fa" stroke-width="0.5"/><rect x="912.0" y="359.5" width="4.3" height="4.5" fill="#93c5fd" stroke="#60a5fa" stroke-width="0.5"/><rect x="916.3" y="315.0" width="4.3" height="49.0" fill="#93c5fd" stroke="#60a5fa" stroke-width="0.5"/><rect x="920.7" y="230.3" width="4.3" height="133.7" fill="#93c5fd" stroke="#60a5fa" stroke-width="0.5"/><rect x="925.0" y="297.1" width="4.3" height="66.9" fill="#93c5fd" stroke="#60a5fa" stroke-width="0.5"/><rect x="929.3" y="359.5" width="4.3" height="4.5" fill="#93c5fd" stroke="#60a5fa" stroke-width="0.5"/><rect x="933.7" y="319.4" width="4.3" height="44.6" fill="#93c5fd" stroke="#60a5fa" stroke-width="0.5"/><rect x="938.0" y="355.1" width="4.3" height="8.9" fill="#93c5fd" stroke="#60a5fa" stroke-width="0.5"/><rect x="942.3" y="341.7" width="4.3" height="22.3" fill="#93c5fd" stroke="#60a5fa" stroke-width="0.5"/><rect x="946.7" y="315.0" width="4.3" height="49.0" fill="#93c5fd" stroke="#60a5fa" stroke-width="0.5"/><rect x="951.0" y="350.6" width="4.3" height="13.4" fill="#93c5fd" stroke="#60a5fa" stroke-width="0.5"/><rect x="955.3" y="279.3" width="4.3" height="84.7" fill="#93c5fd" stroke="#60a5fa" stroke-width="0.5"/><rect x="959.7" y="132.2" width="4.3" height="231.8" fill="#93c5fd" stroke="#60a5fa" stroke-width="0.5"/><rect x="964.0" y="359.5" width="4.3" height="4.5" fill="#93c5fd" stroke="#60a5fa" stroke-width="0.5"/><rect x="968.3" y="212.5" width="4.3" height="151.5" fill="#93c5fd" stroke="#60a5fa" stroke-width="0.5"/><rect x="972.7" y="355.1" width="4.3" height="8.9" fill="#93c5fd" stroke="#60a5fa" stroke-width="0.5"/><rect x="977.0" y="252.6" width="4.3" height="111.4" fill="#93c5fd" stroke="#60a5fa" stroke-width="0.5"/><rect x="981.3" y="359.5" width="4.3" height="4.5" fill="#93c5fd" stroke="#60a5fa" stroke-width="0.5"/><rect x="985.7" y="337.3" width="4.3" height="26.7" fill="#93c5fd" stroke="#60a5fa" stroke-width="0.5"/><rect x="990.0" y="355.1" width="4.3" height="8.9" fill="#93c5fd" stroke="#60a5fa" stroke-width="0.5"/><rect x="994.3" y="306.1" width="4.3" height="57.9" fill="#93c5fd" stroke="#60a5fa" stroke-width="0.5"/><rect x="998.7" y="332.8" width="4.3" height="31.2" fill="#93c5fd" stroke="#60a5fa" stroke-width="0.5"/><rect x="1003.0" y="355.1" width="4.3" height="8.9" fill="#93c5fd" stroke="#60a5fa" stroke-width="0.5"/><rect x="1007.3" y="252.6" width="4.3" height="111.4" fill="#93c5fd" stroke="#60a5fa" stroke-width="0.5"/><rect x="1011.7" y="346.2" width="4.3" height="17.8" fill="#93c5fd" stroke="#60a5fa" stroke-width="0.5"/><rect x="1016.0" y="328.3" width="4.3" height="35.7" fill="#93c5fd" stroke="#60a5fa" stroke-width="0.5"/><rect x="1020.3" y="350.6" width="4.3" height="13.4" fill="#93c5fd" stroke="#60a5fa" stroke-width="0.5"/><rect x="1024.7" y="319.4" width="4.3" height="44.6" fill="#93c5fd" stroke="#60a5fa" stroke-width="0.5"/><rect x="1029.0" y="359.5" width="4.3" height="4.5" fill="#93c5fd" stroke="#60a5fa" stroke-width="0.5"/><rect x="1033.3" y="292.7" width="4.3" height="71.3" fill="#93c5fd" stroke="#60a5fa" stroke-width="0.5"/><rect x="1037.7" y="323.9" width="4.3" height="40.1" fill="#93c5fd" stroke="#60a5fa" stroke-width="0.5"/><rect x="1042.0" y="350.6" width="4.3" height="13.4" fill="#93c5fd" stroke="#60a5fa" stroke-width="0.5"/><rect x="1046.3" y="301.6" width="4.3" height="62.4" fill="#93c5fd" stroke="#60a5fa" stroke-width="0.5"/><rect x="1050.7" y="355.1" width="4.3" height="8.9" fill="#93c5fd" stroke="#60a5fa" stroke-width="0.5"/><rect x="1055.0" y="359.5" width="4.3" height="4.5" fill="#93c5fd" stroke="#60a5fa" stroke-width="0.5"/><rect x="1059.3" y="355.1" width="4.3" height="8.9" fill="#93c5fd" stroke="#60a5fa" stroke-width="0.5"/><rect x="1063.7" y="350.6" width="4.3" height="13.4" fill="#93c5fd" stroke="#60a5fa" stroke-width="0.5"/><rect x="1068.0" y="310.5" width="4.3" height="53.5" fill="#93c5fd" stroke="#60a5fa" stroke-width="0.5"/><rect x="1072.3" y="341.7" width="4.3" height="22.3" fill="#93c5fd" stroke="#60a5fa" stroke-width="0.5"/><rect x="1076.7" y="355.1" width="4.3" height="8.9" fill="#93c5fd" stroke="#60a5fa" stroke-width="0.5"/><rect x="1081.0" y="359.5" width="4.3" height="4.5" fill="#93c5fd" stroke="#60a5fa" stroke-width="0.5"/><rect x="1085.3" y="350.6" width="4.3" height="13.4" fill="#93c5fd" stroke="#60a5fa" stroke-width="0.5"/><rect x="1089.7" y="355.1" width="4.3" height="8.9" fill="#93c5fd" stroke="#60a5fa" stroke-width="0.5"/><rect x="1094.0" y="265.9" width="4.3" height="98.1" fill="#93c5fd" stroke="#60a5fa" stroke-width="0.5"/><rect x="1098.3" y="323.9" width="4.3" height="40.1" fill="#93c5fd" stroke="#60a5fa" stroke-width="0.5"/><rect x="1102.7" y="332.8" width="4.3" height="31.2" fill="#93c5fd" stroke="#60a5fa" stroke-width="0.5"/><rect x="1107.0" y="359.5" width="4.3" height="4.5" fill="#93c5fd" stroke="#60a5fa" stroke-width="0.5"/><rect x="1111.3" y="328.3" width="4.3" height="35.7" fill="#93c5fd" stroke="#60a5fa" stroke-width="0.5"/><rect x="1115.7" y="350.6" width="4.3" height="13.4" fill="#93c5fd" stroke="#60a5fa" stroke-width="0.5"/><rect x="1120.0" y="301.6" width="4.3" height="62.4" fill="#93c5fd" stroke="#60a5fa" stroke-width="0.5"/><rect x="1124.3" y="212.5" width="4.3" height="151.5" fill="#93c5fd" stroke="#60a5fa" stroke-width="0.5"/><rect x="1128.7" y="346.2" width="4.3" height="17.8" fill="#93c5fd" stroke="#60a5fa" stroke-width="0.5"/><rect x="1133.0" y="279.3" width="4.3" height="84.7" fill="#93c5fd" stroke="#60a5fa" stroke-width="0.5"/><rect x="1137.3" y="359.5" width="4.3" height="4.5" fill="#93c5fd" stroke="#60a5fa" stroke-width="0.5"/><rect x="1141.7" y="190.2" width="4.3" height="173.8" fill="#93c5fd" stroke="#60a5fa" stroke-width="0.5"/><rect x="1146.0" y="310.5" width="4.3" height="53.5" fill="#93c5fd" stroke="#60a5fa" stroke-width="0.5"/><rect x="1150.3" y="306.1" width="4.3" height="57.9" fill="#93c5fd" stroke="#60a5fa" stroke-width="0.5"/><rect x="1154.7" y="355.1" width="4.3" height="8.9" fill="#93c5fd" stroke="#60a5fa" stroke-width="0.5"/><rect x="1159.0" y="323.9" width="4.3" height="40.1" fill="#93c5fd" stroke="#60a5fa" stroke-width="0.5"/><rect x="1163.3" y="346.2" width="4.3" height="17.8" fill="#93c5fd" stroke="#60a5fa" stroke-width="0.5"/><rect x="1167.7" y="328.3" width="4.3" height="35.7" fill="#93c5fd" stroke="#60a5fa" stroke-width="0.5"/><rect x="1172.0" y="350.6" width="4.3" height="13.4" fill="#93c5fd" stroke="#60a5fa" stroke-width="0.5"/><rect x="1176.3" y="359.5" width="4.3" height="4.5" fill="#93c5fd" stroke="#60a5fa" stroke-width="0.5"/><rect x="1180.7" y="346.2" width="4.3" height="17.8" fill="#93c5fd" stroke="#60a5fa" stroke-width="0.5"/><rect x="1185.0" y="359.5" width="4.3" height="4.5" fill="#93c5fd" stroke="#60a5fa" stroke-width="0.5"/><rect x="1189.3" y="359.5" width="4.3" height="4.5" fill="#93c5fd" stroke="#60a5fa" stroke-width="0.5"/><rect x="1193.7" y="315.0" width="4.3" height="49.0" fill="#93c5fd" stroke="#60a5fa" stroke-width="0.5"/><polyline fill="none" stroke="#ef4444" stroke-width="2" points="82.2,363.1 86.5,362.9 90.8,362.7 95.2,362.3 99.5,362.0 103.8,361.4 108.2,361.2 112.5,360.9 116.8,360.7 121.2,360.5 125.5,360.3 129.8,360.1 134.2,359.9 138.5,359.4 142.8,358.5 147.2,358.3 151.5,358.1 155.8,357.4 160.2,356.4 164.5,353.5 168.8,353.1 173.2,352.4 177.5,352.2 181.8,351.6 186.2,351.3 190.5,350.2 194.8,350.0 199.2,349.8 203.5,349.6 207.8,349.4 212.2,349.2 216.5,348.9 220.8,348.7 225.2,348.5 229.5,348.3 233.8,348.1 238.2,347.8 242.5,347.6 246.8,347.4 251.2,347.2 255.5,346.5 259.8,346.3 264.2,346.1 268.5,343.7 272.8,343.5 277.2,342.2 281.5,340.4 285.8,340.2 290.2,339.8 294.5,339.1 298.8,338.7 303.2,338.2 307.5,337.6 311.8,337.4 316.2,337.1 320.5,336.9 324.8,336.7 329.2,336.1 333.5,335.8 337.8,334.1 342.2,333.9 346.5,333.7 350.8,333.4 355.2,332.8 359.5,332.6 363.8,332.3 368.2,331.9 372.5,331.2 376.8,331.0 381.2,330.4 385.5,329.9 389.8,329.3 394.2,329.1 398.5,326.9 402.8,326.0 407.2,325.1 411.5,324.9 415.8,324.7 420.2,324.5 424.5,324.0 428.8,323.6 433.2,323.0 437.5,322.5 441.8,321.9 446.2,321.6 450.5,321.2 454.8,321.0 459.2,319.7 463.5,319.5 467.8,319.2 472.2,319.0 476.5,318.8 480.8,318.6 485.2,317.3 489.5,317.1 493.8,316.2 498.2,314.0 502.5,312.3 506.8,311.8 511.2,311.4 515.5,310.9 519.8,310.5 524.2,309.9 528.5,308.8 532.8,308.5 537.2,306.6 541.5,306.1 545.8,305.3 550.2,304.8 554.5,304.6 558.8,304.4 563.2,304.0 567.5,303.3 571.8,302.9 576.2,300.5 580.5,298.3 584.8,297.4 589.2,297.2 593.5,295.4 597.8,293.7 602.2,288.5 606.5,288.0 610.8,286.9 615.2,286.3 619.5,283.4 623.8,282.1 628.2,279.1 632.5,276.9 636.8,276.4 641.2,276.2 645.5,275.1 649.8,272.3 654.2,271.4 658.5,266.2 662.8,265.1 667.2,249.8 671.5,246.1 675.8,245.4 680.2,245.0 684.5,236.1 688.8,234.7 693.2,234.1 697.5,233.7 701.8,232.8 706.2,231.0 710.5,230.8 714.8,230.6 719.2,229.7 723.5,228.6 727.8,227.3 732.2,226.0 736.5,225.8 740.8,224.7 745.2,223.2 749.5,221.6 753.8,219.9 758.2,217.9 762.5,216.4 766.8,215.5 771.2,214.9 775.5,214.2 779.8,212.7 784.2,212.5 788.5,211.8 792.8,211.4 797.2,210.9 801.5,210.5 805.8,210.1 810.2,209.9 814.5,209.6 818.8,208.3 823.2,207.9 827.5,206.1 831.8,205.5 836.2,203.7 840.5,202.2 844.8,200.5 849.2,199.4 853.5,198.9 857.8,198.5 862.2,196.3 866.5,193.9 870.8,192.2 875.2,190.2 879.5,189.1 883.8,188.9 888.2,188.2 892.5,188.0 896.8,187.1 901.2,186.3 905.5,185.2 909.8,185.0 914.2,184.7 918.5,182.3 922.8,175.8 927.2,172.5 931.5,172.3 935.8,170.1 940.2,169.7 944.5,168.6 948.8,166.2 953.2,165.5 957.5,161.4 961.8,150.0 966.2,149.8 970.5,142.4 974.8,142.0 979.2,136.5 983.5,136.3 987.8,135.0 992.2,134.5 996.5,131.7 1000.8,130.2 1005.2,129.7 1009.5,124.3 1013.8,123.4 1018.2,121.6 1022.5,121.0 1026.8,118.8 1031.2,118.6 1035.5,115.1 1039.8,113.1 1044.2,112.5 1048.5,109.4 1052.8,109.0 1057.2,108.8 1061.5,108.3 1065.8,107.7 1070.2,105.1 1074.5,104.0 1078.8,103.5 1083.2,103.3 1087.5,102.7 1091.8,102.2 1096.2,97.4 1100.5,95.4 1104.8,93.9 1109.2,93.7 1113.5,92.0 1117.8,91.3 1122.2,88.2 1126.5,80.8 1130.8,79.9 1135.2,75.8 1139.5,75.6 1143.8,67.1 1148.2,64.4 1152.5,61.6 1156.8,61.2 1161.2,59.2 1165.5,58.3 1169.8,56.6 1174.2,55.9 1178.5,55.7 1182.8,54.8 1187.2,54.6 1191.5,54.4 1195.8,52.0"/><line x1="82.2" y1="364.0" x2="82.2" y2="370.0" stroke="#111827" stroke-width="1"/><text x="84.2" y="386.0" font-size="11" text-anchor="end" transform="rotate(-35 84.2 386.0)" font-family="sans-serif" fill="#374151">2022-10-13</text><line x1="242.5" y1="364.0" x2="242.5" y2="370.0" stroke="#111827" stroke-width="1"/><text x="244.5" y="386.0" font-size="11" text-anchor="end" transform="rotate(-35 244.5 386.0)" font-family="sans-serif" fill="#374151">2025-03-27</text><line x1="398.5" y1="364.0" x2="398.5" y2="370.0" stroke="#111827" stroke-width="1"/><text x="400.5" y="386.0" font-size="11" text-anchor="end" transform="rotate(-35 400.5 386.0)" font-family="sans-serif" fill="#374151">2025-07-21</text><line x1="558.8" y1="364.0" x2="558.8" y2="370.0" stroke="#111827" stroke-width="1"/><text x="560.8" y="386.0" font-size="11" text-anchor="end" transform="rotate(-35 560.8 386.0)" font-family="sans-serif" fill="#374151">2025-09-28</text><line x1="719.2" y1="364.0" x2="719.2" y2="370.0" stroke="#111827" stroke-width="1"/><text x="721.2" y="386.0" font-size="11" text-anchor="end" transform="rotate(-35 721.2 386.0)" font-family="sans-serif" fill="#374151">2025-11-21</text><line x1="879.5" y1="364.0" x2="879.5" y2="370.0" stroke="#111827" stroke-width="1"/><text x="881.5" y="386.0" font-size="11" text-anchor="end" transform="rotate(-35 881.5 386.0)" font-family="sans-serif" fill="#374151">2026-01-10</text><line x1="1035.5" y1="364.0" x2="1035.5" y2="370.0" stroke="#111827" stroke-width="1"/><text x="1037.5" y="386.0" font-size="11" text-anchor="end" transform="rotate(-35 1037.5 386.0)" font-family="sans-serif" fill="#374151">2026-02-20</text><line x1="1195.8" y1="364.0" x2="1195.8" y2="370.0" stroke="#111827" stroke-width="1"/><text x="1197.8" y="386.0" font-size="11" text-anchor="end" transform="rotate(-35 1197.8 386.0)" font-family="sans-serif" fill="#374151">2026-04-13</text><text x="26" y="208.0" font-size="12" transform="rotate(-90 26 208.0)" text-anchor="middle" font-family="sans-serif" fill="#1f2937">구간별 수</text><text x="1256.0" y="208.0" font-size="12" transform="rotate(90 1256.0 208.0)" text-anchor="middle" font-family="sans-serif" fill="#1f2937">누적</text><text x="639.0" y="442.0" font-size="13" text-anchor="middle" font-family="sans-serif" fill="#111827">일</text></svg>