<svg xmlns="http://www.w3.org/2000/svg" width="1280" height="460" viewBox="0 0 1280 460"><rect x="0" y="0" width="100%" height="100%" fill="#ffffff"/><text x="640.0" y="28" font-size="20" text-anchor="middle" font-family="sans-serif" fill="#111827">시리즈 / 생성 시점 / 일별</text><line x1="80.0" y1="52.0" x2="1198.0" y2="52.0" stroke="#e5e7eb" stroke-width="1"/><text x="72.0" y="56.0" font-size="11" text-anchor="end" font-family="sans-serif" fill="#374151">70</text><text x="1206.0" y="56.0" font-size="11" text-anchor="start" font-family="sans-serif" fill="#374151">1,394</text><line x1="80.0" y1="114.4" x2="1198.0" y2="114.4" stroke="#e5e7eb" stroke-width="1"/><text x="72.0" y="118.4" font-size="11" text-anchor="end" font-family="sans-serif" fill="#374151">56</text><text x="1206.0" y="118.4" font-size="11" text-anchor="start" font-family="sans-serif" fill="#374151">1,115</text><line x1="80.0" y1="176.8" x2="1198.0" y2="176.8" stroke="#e5e7eb" stroke-width="1"/><text x="72.0" y="180.8" font-size="11" text-anchor="end" font-family="sans-serif" fill="#374151">42</text><text x="1206.0" y="180.8" font-size="11" text-anchor="start" font-family="sans-serif" fill="#374151">836</text><line x1="80.0" y1="239.2" x2="1198.0" y2="239.2" stroke="#e5e7eb" stroke-width="1"/><text x="72.0" y="243.2" font-size="11" text-anchor="end" font-family="sans-serif" fill="#374151">28</text><text x="1206.0" y="243.2" font-size="11" text-anchor="start" font-family="sans-serif" fill="#374151">558</text><line x1="80.0" y1="301.6" x2="1198.0" y2="301.6" stroke="#e5e7eb" stroke-width="1"/><text x="72.0" y="305.6" font-size="11" text-anchor="end" font-family="sans-serif" fill="#374151">14</text><text x="1206.0" y="305.6" font-size="11" text-anchor="start" font-family="sans-serif" fill="#374151">279</text><line x1="80.0" y1="364.0" x2="1198.0" y2="364.0" stroke="#e5e7eb" stroke-width="1"/><text x="72.0" y="368.0" font-size="11" text-anchor="end" font-family="sans-serif" fill="#374151">0</text><text x="1206.0" y="368.0" font-size="11" text-anchor="start" font-family="sans-serif" fill="#374151">0</text><line x1="80.0" y1="364.0" x2="1198.0" y2="364.0" stroke="#111827" stroke-width="1.2"/><line x1="80.0" y1="52.0" x2="80.0" y2="364.0" stroke="#111827" stroke-width="1.2"/><line x1="1198.0" y1="52.0" x2="1198.0" y2="364.0" stroke="#111827" stroke-width="1.2"/><rect x="81.0" y="346.2" width="2.5" height="17.8" fill="#93c5fd" stroke="#60a5fa" stroke-width="0.5"/><rect x="85.5" y="359.5" width="2.5" height="4.5" fill="#93c5fd" stroke="#60a5fa" stroke-width="0.5"/><rect x="89.9" y="359.5" width="2.5" height="4.5" fill="#93c5fd" stroke="#60a5fa" stroke-width="0.5"/><rect x="94.4" y="355.1" width="2.5" height="8.9" fill="#93c5fd" stroke="#60a5fa" stroke-width="0.5"/><rect x="98.9" y="359.5" width="2.5" height="4.5" fill="#93c5fd" stroke="#60a5fa" stroke-width="0.5"/><rect x="103.4" y="350.6" width="2.5" height="13.4" fill="#93c5fd" stroke="#60a5fa" stroke-width="0.5"/><rect x="107.8" y="359.5" width="2.5" height="4.5" fill="#93c5fd" stroke="#60a5fa" stroke-width="0.5"/><rect x="112.3" y="359.5" width="2.5" height="4.5" fill="#93c5fd" stroke="#60a5fa" stroke-width="0.5"/><rect x="116.8" y="359.5" width="2.5" height="4.5" fill="#93c5fd" stroke="#60a5fa" stroke-width="0.5"/><rect x="121.2" y="359.5" width="2.5" height="4.5" fill="#93c5fd" stroke="#60a5fa" stroke-width="0.5"/><rect x="125.7" y="359.5" width="2.5" height="4.5" fill="#93c5fd" stroke="#60a5fa" stroke-width="0.5"/><rect x="130.2" y="359.5" width="2.5" height="4.5" fill="#93c5fd" stroke="#60a5fa" stroke-width="0.5"/><rect x="134.7" y="359.5" width="2.5" height="4.5" fill="#93c5fd" stroke="#60a5fa" stroke-width="0.5"/><rect x="139.1" y="355.1" width="2.5" height="8.9" fill="#93c5fd" stroke="#60a5fa" stroke-width="0.5"/><rect x="143.6" y="346.2" width="2.5" height="17.8" fill="#93c5fd" stroke="#60a5fa" stroke-width="0.5"/><rect x="148.1" y="359.5" width="2.5" height="4.5" fill="#93c5fd" stroke="#60a5fa" stroke-width="0.5"/><rect x="152.6" y="359.5" width="2.5" height="4.5" fill="#93c5fd" stroke="#60a5fa" stroke-width="0.5"/><rect x="157.0" y="350.6" width="2.5" height="13.4" fill="#93c5fd" stroke="#60a5fa" stroke-width="0.5"/><rect x="161.5" y="341.7" width="2.5" height="22.3" fill="#93c5fd" stroke="#60a5fa" stroke-width="0.5"/><rect x="166.0" y="306.1" width="2.5" height="57.9" fill="#93c5fd" stroke="#60a5fa" stroke-width="0.5"/><rect x="170.4" y="355.1" width="2.5" height="8.9" fill="#93c5fd" stroke="#60a5fa" stroke-width="0.5"/><rect x="174.9" y="350.6" width="2.5" height="13.4" fill="#93c5fd" stroke="#60a5fa" stroke-width="0.5"/><rect x="179.4" y="359.5" width="2.5" height="4.5" fill="#93c5fd" stroke="#60a5fa" stroke-width="0.5"/><rect x="183.9" y="350.6" width="2.5" height="13.4" fill="#93c5fd" stroke="#60a5fa" stroke-width="0.5"/><rect x="188.3" y="359.5" width="2.5" height="4.5" fill="#93c5fd" stroke="#60a5fa" stroke-width="0.5"/><rect x="192.8" y="341.7" width="2.5" height="22.3" fill="#93c5fd" stroke="#60a5fa" stroke-width="0.5"/><rect x="197.3" y="359.5" width="2.5" height="4.5" fill="#93c5fd" stroke="#60a5fa" stroke-width="0.5"/><rect x="201.7" y="359.5" width="2.5" height="4.5" fill="#93c5fd" stroke="#60a5fa" stroke-width="0.5"/><rect x="206.2" y="359.5" width="2.5" height="4.5" fill="#93c5fd" stroke="#60a5fa" stroke-width="0.5"/><rect x="210.7" y="359.5" width="2.5" height="4.5" fill="#93c5fd" stroke="#60a5fa" stroke-width="0.5"/><rect x="215.2" y="359.5" width="2.5" height="4.5" fill="#93c5fd" stroke="#60a5fa" stroke-width="0.5"/><rect x="219.6" y="359.5" width="2.5" height="4.5" fill="#93c5fd" stroke="#60a5fa" stroke-width="0.5"/><rect x="224.1" y="359.5" width="2.5" height="4.5" fill="#93c5fd" stroke="#60a5fa" stroke-width="0.5"/><rect x="228.6" y="359.5" width="2.5" height="4.5" fill="#93c5fd" stroke="#60a5fa" stroke-width="0.5"/><rect x="233.0" y="359.5" width="2.5" height="4.5" fill="#93c5fd" stroke="#60a5fa" stroke-width="0.5"/><rect x="237.5" y="359.5" width="2.5" height="4.5" fill="#93c5fd" stroke="#60a5fa" stroke-width="0.5"/><rect x="242.0" y="359.5" width="2.5" height="4.5" fill="#93c5fd" stroke="#60a5fa" stroke-width="0.5"/><rect x="246.5" y="359.5" width="2.5" height="4.5" fill="#93c5fd" stroke="#60a5fa" stroke-width="0.5"/><rect x="250.9" y="359.5" width="2.5" height="4.5" fill="#93c5fd" stroke="#60a5fa" stroke-width="0.5"/><rect x="255.4" y="359.5" width="2.5" height="4.5" fill="#93c5fd" stroke="#60a5fa" stroke-width="0.5"/><rect x="259.9" y="350.6" width="2.5" height="13.4" fill="#93c5fd" stroke="#60a5fa" stroke-width="0.5"/><rect x="264.4" y="359.5" width="2.5" height="4.5" fill="#93c5fd" stroke="#60a5fa" stroke-width="0.5"/><rect x="268.8" y="359.5" width="2.5" height="4.5" fill="#93c5fd" stroke="#60a5fa" stroke-width="0.5"/><rect x="273.3" y="315.0" width="2.5" height="49.0" fill="#93c5fd" stroke="#60a5fa" stroke-width="0.5"/><rect x="277.8" y="359.5" width="2.5" height="4.5" fill="#93c5fd" stroke="#60a5fa" stroke-width="0.5"/><rect x="282.2" y="337.3" width="2.5" height="26.7" fill="#93c5fd" stroke="#60a5fa" stroke-width="0.5"/><rect x="286.7" y="328.3" width="2.5" height="35.7" fill="#93c5fd" stroke="#60a5fa" stroke-width="0.5"/><rect x="291.2" y="359.5" width="2.5" height="4.5" fill="#93c5fd" stroke="#60a5fa" stroke-width="0.5"/><rect x="295.7" y="355.1" width="2.5" height="8.9" fill="#93c5fd" stroke="#60a5fa" stroke-width="0.5"/><rect x="300.1" y="350.6" width="2.5" height="13.4" fill="#93c5fd" stroke="#60a5fa" stroke-width="0.5"/><rect x="304.6" y="355.1" width="2.5" height="8.9" fill="#93c5fd" stroke="#60a5fa" stroke-width="0.5"/><rect x="309.1" y="355.1" width="2.5" height="8.9" fill="#93c5fd" stroke="#60a5fa" stroke-width="0.5"/><rect x="313.5" y="350.6" width="2.5" height="13.4" fill="#93c5fd" stroke="#60a5fa" stroke-width="0.5"/><rect x="318.0" y="359.5" width="2.5" height="4.5" fill="#93c5fd" stroke="#60a5fa" stroke-width="0.5"/><rect x="322.5" y="359.5" width="2.5" height="4.5" fill="#93c5fd" stroke="#60a5fa" stroke-width="0.5"/><rect x="327.0" y="359.5" width="2.5" height="4.5" fill="#93c5fd" stroke="#60a5fa" stroke-width="0.5"/><rect x="331.4" y="359.5" width="2.5" height="4.5" fill="#93c5fd" stroke="#60a5fa" stroke-width="0.5"/><rect x="335.9" y="350.6" width="2.5" height="13.4" fill="#93c5fd" stroke="#60a5fa" stroke-width="0.5"/><rect x="340.4" y="359.5" width="2.5" height="4.5" fill="#93c5fd" stroke="#60a5fa" stroke-width="0.5"/><rect x="344.8" y="328.3" width="2.5" height="35.7" fill="#93c5fd" stroke="#60a5fa" stroke-width="0.5"/><rect x="349.3" y="359.5" width="2.5" height="4.5" fill="#93c5fd" stroke="#60a5fa" stroke-width="0.5"/><rect x="353.8" y="359.5" width="2.5" height="4.5" fill="#93c5fd" stroke="#60a5fa" stroke-width="0.5"/><rect x="358.3" y="359.5" width="2.5" height="4.5" fill="#93c5fd" stroke="#60a5fa" stroke-width="0.5"/><rect x="362.7" y="350.6" width="2.5" height="13.4" fill="#93c5fd" stroke="#60a5fa" stroke-width="0.5"/><rect x="367.2" y="359.5" width="2.5" height="4.5" fill="#93c5fd" stroke="#60a5fa" stroke-width="0.5"/><rect x="371.7" y="359.5" width="2.5" height="4.5" fill="#93c5fd" stroke="#60a5fa" stroke-width="0.5"/><rect x="376.2" y="355.1" width="2.5" height="8.9" fill="#93c5fd" stroke="#60a5fa" stroke-width="0.5"/><rect x="380.6" y="350.6" width="2.5" height="13.4" fill="#93c5fd" stroke="#60a5fa" stroke-width="0.5"/><rect x="385.1" y="359.5" width="2.5" height="4.5" fill="#93c5fd" stroke="#60a5fa" stroke-width="0.5"/><rect x="389.6" y="350.6" width="2.5" height="13.4" fill="#93c5fd" stroke="#60a5fa" stroke-width="0.5"/><rect x="394.0" y="355.1" width="2.5" height="8.9" fill="#93c5fd" stroke="#60a5fa" stroke-width="0.5"/><rect x="398.5" y="350.6" width="2.5" height="13.4" fill="#93c5fd" stroke="#60a5fa" stroke-width="0.5"/><rect x="403.0" y="359.5" width="2.5" height="4.5" fill="#93c5fd" stroke="#60a5fa" stroke-width="0.5"/><rect x="407.5" y="319.4" width="2.5" height="44.6" fill="#93c5fd" stroke="#60a5fa" stroke-width="0.5"/><rect x="411.9" y="346.2" width="2.5" height="17.8" fill="#93c5fd" stroke="#60a5fa" stroke-width="0.5"/><rect x="416.4" y="346.2" width="2.5" height="17.8" fill="#93c5fd" stroke="#60a5fa" stroke-width="0.5"/><rect x="420.9" y="359.5" width="2.5" height="4.5" fill="#93c5fd" stroke="#60a5fa" stroke-width="0.5"/><rect x="425.3" y="359.5" width="2.5" height="4.5" fill="#93c5fd" stroke="#60a5fa" stroke-width="0.5"/><rect x="429.8" y="359.5" width="2.5" height="4.5" fill="#93c5fd" stroke="#60a5fa" stroke-width="0.5"/><rect x="434.3" y="355.1" width="2.5" height="8.9" fill="#93c5fd" stroke="#60a5fa" stroke-width="0.5"/><rect x="438.8" y="355.1" width="2.5" height="8.9" fill="#93c5fd" stroke="#60a5fa" stroke-width="0.5"/><rect x="443.2" y="350.6" width="2.5" height="13.4" fill="#93c5fd" stroke="#60a5fa" stroke-width="0.5"/><rect x="447.7" y="355.1" width="2.5" height="8.9" fill="#93c5fd" stroke="#60a5fa" stroke-width="0.5"/><rect x="452.2" y="350.6" width="2.5" height="13.4" fill="#93c5fd" stroke="#60a5fa" stroke-width="0.5"/><rect x="456.6" y="359.5" width="2.5" height="4.5" fill="#93c5fd" stroke="#60a5fa" stroke-width="0.5"/><rect x="461.1" y="355.1" width="2.5" height="8.9" fill="#93c5fd" stroke="#60a5fa" stroke-width="0.5"/><rect x="465.6" y="359.5" width="2.5" height="4.5" fill="#93c5fd" stroke="#60a5fa" stroke-width="0.5"/><rect x="470.1" y="337.3" width="2.5" height="26.7" fill="#93c5fd" stroke="#60a5fa" stroke-width="0.5"/><rect x="474.5" y="359.5" width="2.5" height="4.5" fill="#93c5fd" stroke="#60a5fa" stroke-width="0.5"/><rect x="479.0" y="359.5" width="2.5" height="4.5" fill="#93c5fd" stroke="#60a5fa" stroke-width="0.5"/><rect x="483.5" y="359.5" width="2.5" height="4.5" fill="#93c5fd" stroke="#60a5fa" stroke-width="0.5"/><rect x="488.0" y="359.5" width="2.5" height="4.5" fill="#93c5fd" stroke="#60a5fa" stroke-width="0.5"/><rect x="492.4" y="359.5" width="2.5" height="4.5" fill="#93c5fd" stroke="#60a5fa" stroke-width="0.5"/><rect x="496.9" y="337.3" width="2.5" height="26.7" fill="#93c5fd" stroke="#60a5fa" stroke-width="0.5"/><rect x="501.4" y="359.5" width="2.5" height="4.5" fill="#93c5fd" stroke="#60a5fa" stroke-width="0.5"/><rect x="505.8" y="346.2" width="2.5" height="17.8" fill="#93c5fd" stroke="#60a5fa" stroke-width="0.5"/><rect x="510.3" y="319.4" width="2.5" height="44.6" fill="#93c5fd" stroke="#60a5fa" stroke-width="0.5"/><rect x="514.8" y="328.3" width="2.5" height="35.7" fill="#93c5fd" stroke="#60a5fa" stroke-width="0.5"/><rect x="519.3" y="355.1" width="2.5" height="8.9" fill="#93c5fd" stroke="#60a5fa" stroke-width="0.5"/><rect x="523.7" y="355.1" width="2.5" height="8.9" fill="#93c5fd" stroke="#60a5fa" stroke-width="0.5"/><rect x="528.2" y="355.1" width="2.5" height="8.9" fill="#93c5fd" stroke="#60a5fa" stroke-width="0.5"/><rect x="532.7" y="355.1" width="2.5" height="8.9" fill="#93c5fd" stroke="#60a5fa" stroke-width="0.5"/><rect x="537.1" y="350.6" width="2.5" height="13.4" fill="#93c5fd" stroke="#60a5fa" stroke-width="0.5"/><rect x="541.6" y="341.7" width="2.5" height="22.3" fill="#93c5fd" stroke="#60a5fa" stroke-width="0.5"/><rect x="546.1" y="359.5" width="2.5" height="4.5" fill="#93c5fd" stroke="#60a5fa" stroke-width="0.5"/><rect x="550.6" y="323.9" width="2.5" height="40.1" fill="#93c5fd" stroke="#60a5fa" stroke-width="0.5"/><rect x="555.0" y="355.1" width="2.5" height="8.9" fill="#93c5fd" stroke="#60a5fa" stroke-width="0.5"/><rect x="559.5" y="346.2" width="2.5" height="17.8" fill="#93c5fd" stroke="#60a5fa" stroke-width="0.5"/><rect x="564.0" y="355.1" width="2.5" height="8.9" fill="#93c5fd" stroke="#60a5fa" stroke-width="0.5"/><rect x="568.4" y="359.5" width="2.5" height="4.5" fill="#93c5fd" stroke="#60a5fa" stroke-width="0.5"/><rect x="572.9" y="359.5" width="2.5" height="4.5" fill="#93c5fd" stroke="#60a5fa" stroke-width="0.5"/><rect x="577.4" y="355.1" width="2.5" height="8.9" fill="#93c5fd" stroke="#60a5fa" stroke-width="0.5"/><rect x="581.9" y="350.6" width="2.5" height="13.4" fill="#93c5fd" stroke="#60a5fa" stroke-width="0.5"/><rect x="586.3" y="355.1" width="2.5" height="8.9" fill="#93c5fd" stroke="#60a5fa" stroke-width="0.5"/><rect x="590.8" y="315.0" width="2.5" height="49.0" fill="#93c5fd" stroke="#60a5fa" stroke-width="0.5"/><rect x="595.3" y="319.4" width="2.5" height="44.6" fill="#93c5fd" stroke="#60a5fa" stroke-width="0.5"/><rect x="599.8" y="346.2" width="2.5" height="17.8" fill="#93c5fd" stroke="#60a5fa" stroke-width="0.5"/><rect x="604.2" y="359.5" width="2.5" height="4.5" fill="#93c5fd" stroke="#60a5fa" stroke-width="0.5"/><rect x="608.7" y="328.3" width="2.5" height="35.7" fill="#93c5fd" stroke="#60a5fa" stroke-width="0.5"/><rect x="613.2" y="328.3" width="2.5" height="35.7" fill="#93c5fd" stroke="#60a5fa" stroke-width="0.5"/><rect x="617.6" y="257.0" width="2.5" height="107.0" fill="#93c5fd" stroke="#60a5fa" stroke-width="0.5"/><rect x="622.1" y="355.1" width="2.5" height="8.9" fill="#93c5fd" stroke="#60a5fa" stroke-width="0.5"/><rect x="626.6" y="341.7" width="2.5" height="22.3" fill="#93c5fd" stroke="#60a5fa" stroke-width="0.5"/><rect x="631.1" y="350.6" width="2.5" height="13.4" fill="#93c5fd" stroke="#60a5fa" stroke-width="0.5"/><rect x="635.5" y="306.1" width="2.5" height="57.9" fill="#93c5fd" stroke="#60a5fa" stroke-width="0.5"/><rect x="640.0" y="337.3" width="2.5" height="26.7" fill="#93c5fd" stroke="#60a5fa" stroke-width="0.5"/><rect x="644.5" y="301.6" width="2.5" height="62.4" fill="#93c5fd" stroke="#60a5fa" stroke-width="0.5"/><rect x="648.9" y="319.4" width="2.5" height="44.6" fill="#93c5fd" stroke="#60a5fa" stroke-width="0.5"/><rect x="653.4" y="355.1" width="2.5" height="8.9" fill="#93c5fd" stroke="#60a5fa" stroke-width="0.5"/><rect x="657.9" y="359.5" width="2.5" height="4.5" fill="#93c5fd" stroke="#60a5fa" stroke-width="0.5"/><rect x="662.4" y="341.7" width="2.5" height="22.3" fill="#93c5fd" stroke="#60a5fa" stroke-width="0.5"/><rect x="666.8" y="306.1" width="2.5" height="57.9" fill="#93c5fd" stroke="#60a5fa" stroke-width="0.5"/><rect x="671.3" y="346.2" width="2.5" height="17.8" fill="#93c5fd" stroke="#60a5fa" stroke-width="0.5"/><rect x="675.8" y="257.0" width="2.5" height="107.0" fill="#93c5fd" stroke="#60a5fa" stroke-width="0.5"/><rect x="680.2" y="341.7" width="2.5" height="22.3" fill="#93c5fd" stroke="#60a5fa" stroke-width="0.5"/><rect x="684.7" y="52.0" width="2.5" height="312.0" fill="#93c5fd" stroke="#60a5fa" stroke-width="0.5"/><rect x="689.2" y="288.2" width="2.5" height="75.8" fill="#93c5fd" stroke="#60a5fa" stroke-width="0.5"/><rect x="693.7" y="350.6" width="2.5" height="13.4" fill="#93c5fd" stroke="#60a5fa" stroke-width="0.5"/><rect x="698.1" y="355.1" width="2.5" height="8.9" fill="#93c5fd" stroke="#60a5fa" stroke-width="0.5"/><rect x="702.6" y="181.3" width="2.5" height="182.7" fill="#93c5fd" stroke="#60a5fa" stroke-width="0.5"/><rect x="707.1" y="337.3" width="2.5" height="26.7" fill="#93c5fd" stroke="#60a5fa" stroke-width="0.5"/><rect x="711.6" y="350.6" width="2.5" height="13.4" fill="#93c5fd" stroke="#60a5fa" stroke-width="0.5"/><rect x="716.0" y="355.1" width="2.5" height="8.9" fill="#93c5fd" stroke="#60a5fa" stroke-width="0.5"/><rect x="720.5" y="346.2" width="2.5" height="17.8" fill="#93c5fd" stroke="#60a5fa" stroke-width="0.5"/><rect x="725.0" y="328.3" width="2.5" height="35.7" fill="#93c5fd" stroke="#60a5fa" stroke-width="0.5"/><rect x="729.4" y="359.5" width="2.5" height="4.5" fill="#93c5fd" stroke="#60a5fa" stroke-width="0.5"/><rect x="733.9" y="359.5" width="2.5" height="4.5" fill="#93c5fd" stroke="#60a5fa" stroke-width="0.5"/><rect x="738.4" y="346.2" width="2.5" height="17.8" fill="#93c5fd" stroke="#60a5fa" stroke-width="0.5"/><rect x="742.9" y="341.7" width="2.5" height="22.3" fill="#93c5fd" stroke="#60a5fa" stroke-width="0.5"/><rect x="747.3" y="337.3" width="2.5" height="26.7" fill="#93c5fd" stroke="#60a5fa" stroke-width="0.5"/><rect x="751.8" y="337.3" width="2.5" height="26.7" fill="#93c5fd" stroke="#60a5fa" stroke-width="0.5"/><rect x="756.3" y="359.5" width="2.5" height="4.5" fill="#93c5fd" stroke="#60a5fa" stroke-width="0.5"/><rect x="760.7" y="341.7" width="2.5" height="22.3" fill="#93c5fd" stroke="#60a5fa" stroke-width="0.5"/><rect x="765.2" y="332.8" width="2.5" height="31.2" fill="#93c5fd" stroke="#60a5fa" stroke-width="0.5"/><rect x="769.7" y="332.8" width="2.5" height="31.2" fill="#93c5fd" stroke="#60a5fa" stroke-width="0.5"/><rect x="774.2" y="328.3" width="2.5" height="35.7" fill="#93c5fd" stroke="#60a5fa" stroke-width="0.5"/><rect x="778.6" y="323.9" width="2.5" height="40.1" fill="#93c5fd" stroke="#60a5fa" stroke-width="0.5"/><rect x="783.1" y="332.8" width="2.5" height="31.2" fill="#93c5fd" stroke="#60a5fa" stroke-width="0.5"/><rect x="787.6" y="346.2" width="2.5" height="17.8" fill="#93c5fd" stroke="#60a5fa" stroke-width="0.5"/><rect x="792.0" y="350.6" width="2.5" height="13.4" fill="#93c5fd" stroke="#60a5fa" stroke-width="0.5"/><rect x="796.5" y="350.6" width="2.5" height="13.4" fill="#93c5fd" stroke="#60a5fa" stroke-width="0.5"/><rect x="801.0" y="332.8" width="2.5" height="31.2" fill="#93c5fd" stroke="#60a5fa" stroke-width="0.5"/><rect x="805.5" y="359.5" width="2.5" height="4.5" fill="#93c5fd" stroke="#60a5fa" stroke-width="0.5"/><rect x="809.9" y="350.6" width="2.5" height="13.4" fill="#93c5fd" stroke="#60a5fa" stroke-width="0.5"/><rect x="814.4" y="355.1" width="2.5" height="8.9" fill="#93c5fd" stroke="#60a5fa" stroke-width="0.5"/><rect x="818.9" y="355.1" width="2.5" height="8.9" fill="#93c5fd" stroke="#60a5fa" stroke-width="0.5"/><rect x="823.4" y="355.1" width="2.5" height="8.9" fill="#93c5fd" stroke="#60a5fa" stroke-width="0.5"/><rect x="827.8" y="355.1" width="2.5" height="8.9" fill="#93c5fd" stroke="#60a5fa" stroke-width="0.5"/><rect x="832.3" y="359.5" width="2.5" height="4.5" fill="#93c5fd" stroke="#60a5fa" stroke-width="0.5"/><rect x="836.8" y="359.5" width="2.5" height="4.5" fill="#93c5fd" stroke="#60a5fa" stroke-width="0.5"/><rect x="841.2" y="337.3" width="2.5" height="26.7" fill="#93c5fd" stroke="#60a5fa" stroke-width="0.5"/><rect x="845.7" y="355.1" width="2.5" height="8.9" fill="#93c5fd" stroke="#60a5fa" stroke-width="0.5"/><rect x="850.2" y="328.3" width="2.5" height="35.7" fill="#93c5fd" stroke="#60a5fa" stroke-width="0.5"/><rect x="854.7" y="350.6" width="2.5" height="13.4" fill="#93c5fd" stroke="#60a5fa" stroke-width="0.5"/><rect x="859.1" y="328.3" width="2.5" height="35.7" fill="#93c5fd" stroke="#60a5fa" stroke-width="0.5"/><rect x="863.6" y="332.8" width="2.5" height="31.2" fill="#93c5fd" stroke="#60a5fa" stroke-width="0.5"/><rect x="868.1" y="328.3" width="2.5" height="35.7" fill="#93c5fd" stroke="#60a5fa" stroke-width="0.5"/><rect x="872.5" y="341.7" width="2.5" height="22.3" fill="#93c5fd" stroke="#60a5fa" stroke-width="0.5"/><rect x="877.0" y="355.1" width="2.5" height="8.9" fill="#93c5fd" stroke="#60a5fa" stroke-width="0.5"/><rect x="881.5" y="355.1" width="2.5" height="8.9" fill="#93c5fd" stroke="#60a5fa" stroke-width="0.5"/><rect x="886.0" y="319.4" width="2.5" height="44.6" fill="#93c5fd" stroke="#60a5fa" stroke-width="0.5"/><rect x="890.4" y="315.0" width="2.5" height="49.0" fill="#93c5fd" stroke="#60a5fa" stroke-width="0.5"/><rect x="894.9" y="328.3" width="2.5" height="35.7" fill="#93c5fd" stroke="#60a5fa" stroke-width="0.5"/><rect x="899.4" y="323.9" width="2.5" height="40.1" fill="#93c5fd" stroke="#60a5fa" stroke-width="0.5"/><rect x="903.8" y="341.7" width="2.5" height="22.3" fill="#93c5fd" stroke="#60a5fa" stroke-width="0.5"/><rect x="908.3" y="359.5" width="2.5" height="4.5" fill="#93c5fd" stroke="#60a5fa" stroke-width="0.5"/><rect x="912.8" y="350.6" width="2.5" height="13.4" fill="#93c5fd" stroke="#60a5fa" stroke-width="0.5"/><rect x="917.3" y="359.5" width="2.5" height="4.5" fill="#93c5fd" stroke="#60a5fa" stroke-width="0.5"/><rect x="921.7" y="346.2" width="2.5" height="17.8" fill="#93c5fd" stroke="#60a5fa" stroke-width="0.5"/><rect x="926.2" y="346.2" width="2.5" height="17.8" fill="#93c5fd" stroke="#60a5fa" stroke-width="0.5"/><rect x="930.7" y="341.7" width="2.5" height="22.3" fill="#93c5fd" stroke="#60a5fa" stroke-width="0.5"/><rect x="935.2" y="359.5" width="2.5" height="4.5" fill="#93c5fd" stroke="#60a5fa" stroke-width="0.5"/><rect x="939.6" y="359.5" width="2.5" height="4.5" fill="#93c5fd" stroke="#60a5fa" stroke-width="0.5"/><rect x="944.1" y="315.0" width="2.5" height="49.0" fill="#93c5fd" stroke="#60a5fa" stroke-width="0.5"/><rect x="948.6" y="230.3" width="2.5" height="133.7" fill="#93c5fd" stroke="#60a5fa" stroke-width="0.5"/><rect x="953.0" y="297.1" width="2.5" height="66.9" fill="#93c5fd" stroke="#60a5fa" stroke-width="0.5"/><rect x="957.5" y="359.5" width="2.5" height="4.5" fill="#93c5fd" stroke="#60a5fa" stroke-width="0.5"/><rect x="962.0" y="319.4" width="2.5" height="44.6" fill="#93c5fd" stroke="#60a5fa" stroke-width="0.5"/><rect x="966.5" y="355.1" width="2.5" height="8.9" fill="#93c5fd" stroke="#60a5fa" stroke-width="0.5"/><rect x="970.9" y="341.7" width="2.5" height="22.3" fill="#93c5fd" stroke="#60a5fa" stroke-width="0.5"/><rect x="975.4" y="315.0" width="2.5" height="49.0" fill="#93c5fd" stroke="#60a5fa" stroke-width="0.5"/><rect x="979.9" y="350.6" width="2.5" height="13.4" fill="#93c5fd" stroke="#60a5fa" stroke-width="0.5"/><rect x="984.3" y="279.3" width="2.5" height="84.7" fill="#93c5fd" stroke="#60a5fa" stroke-width="0.5"/><rect x="988.8" y="132.2" width="2.5" height="231.8" fill="#93c5fd" stroke="#60a5fa" stroke-width="0.5"/><rect x="993.3" y="359.5" width="2.5" height="4.5" fill="#93c5fd" stroke="#60a5fa" stroke-width="0.5"/><rect x="997.8" y="212.5" width="2.5" height="151.5" fill="#93c5fd" stroke="#60a5fa" stroke-width="0.5"/><rect x="1002.2" y="355.1" width="2.5" height="8.9" fill="#93c5fd" stroke="#60a5fa" stroke-width="0.5"/><rect x="1006.7" y="252.6" width="2.5" height="111.4" fill="#93c5fd" stroke="#60a5fa" stroke-width="0.5"/><rect x="1011.2" y="359.5" width="2.5" height="4.5" fill="#93c5fd" stroke="#60a5fa" stroke-width="0.5"/><rect x="1015.6" y="337.3" width="2.5" height="26.7" fill="#93c5fd" stroke="#60a5fa" stroke-width="0.5"/><rect x="1020.1" y="355.1" width="2.5" height="8.9" fill="#93c5fd" stroke="#60a5fa" stroke-width="0.5"/><rect x="1024.6" y="306.1" width="2.5" height="57.9" fill="#93c5fd" stroke="#60a5fa" stroke-width="0.5"/><rect x="1029.1" y="332.8" width="2.5" height="31.2" fill="#93c5fd" stroke="#60a5fa" stroke-width="0.5"/><rect x="1033.5" y="355.1" width="2.5" height="8.9" fill="#93c5fd" stroke="#60a5fa" stroke-width="0.5"/><rect x="1038.0" y="252.6" width="2.5" height="111.4" fill="#93c5fd" stroke="#60a5fa" stroke-width="0.5"/><rect x="1042.5" y="346.2" width="2.5" height="17.8" fill="#93c5fd" stroke="#60a5fa" stroke-width="0.5"/><rect x="1047.0" y="328.3" width="2.5" height="35.7" fill="#93c5fd" stroke="#60a5fa" stroke-width="0.5"/><rect x="1051.4" y="350.6" width="2.5" height="13.4" fill="#93c5fd" stroke="#60a5fa" stroke-width="0.5"/><rect x="1055.9" y="319.4" width="2.5" height="44.6" fill="#93c5fd" stroke="#60a5fa" stroke-width="0.5"/><rect x="1060.4" y="359.5" width="2.5" height="4.5" fill="#93c5fd" stroke="#60a5fa" stroke-width="0.5"/><rect x="1064.8" y="292.7" width="2.5" height="71.3" fill="#93c5fd" stroke="#60a5fa" stroke-width="0.5"/><rect x="1069.3" y="323.9" width="2.5" height="40.1" fill="#93c5fd" stroke="#60a5fa" stroke-width="0.5"/><rect x="1073.8" y="350.6" width="2.5" height="13.4" fill="#93c5fd" stroke="#60a5fa" stroke-width="0.5"/><rect x="1078.3" y="301.6" width="2.5" height="62.4" fill="#93c5fd" stroke="#60a5fa" stroke-width="0.5"/><rect x="1082.7" y="355.1" width="2.5" height="8.9" fill="#93c5fd" stroke="#60a5fa" stroke-width="0.5"/><rect x="1087.2" y="359.5" width="2.5" height="4.5" fill="#93c5fd" stroke="#60a5fa" stroke-width="0.5"/><rect x="1091.7" y="355.1" width="2.5" height="8.9" fill="#93c5fd" stroke="#60a5fa" stroke-width="0.5"/><rect x="1096.1" y="350.6" width="2.5" height="13.4" fill="#93c5fd" stroke="#60a5fa" stroke-width="0.5"/><rect x="1100.6" y="310.5" width="2.5" height="53.5" fill="#93c5fd" stroke="#60a5fa" stroke-width="0.5"/><rect x="1105.1" y="341.7" width="2.5" height="22.3" fill="#93c5fd" stroke="#60a5fa" stroke-width="0.5"/><rect x="1109.6" y="355.1" width="2.5" height="8.9" fill="#93c5fd" stroke="#60a5fa" stroke-width="0.5"/><rect x="1114.0" y="359.5" width="2.5" height="4.5" fill="#93c5fd" stroke="#60a5fa" stroke-width="0.5"/><rect x="1118.5" y="350.6" width="2.5" height="13.4" fill="#93c5fd" stroke="#60a5fa" stroke-width="0.5"/><rect x="1123.0" y="355.1" width="2.5" height="8.9" fill="#93c5fd" stroke="#60a5fa" stroke-width="0.5"/><rect x="1127.4" y="265.9" width="2.5" height="98.1" fill="#93c5fd" stroke="#60a5fa" stroke-width="0.5"/><rect x="1131.9" y="323.9" width="2.5" height="40.1" fill="#93c5fd" stroke="#60a5fa" stroke-width="0.5"/><rect x="1136.4" y="332.8" width="2.5" height="31.2" fill="#93c5fd" stroke="#60a5fa" stroke-width="0.5"/><rect x="1140.9" y="359.5" width="2.5" height="4.5" fill="#93c5fd" stroke="#60a5fa" stroke-width="0.5"/><rect x="1145.3" y="328.3" width="2.5" height="35.7" fill="#93c5fd" stroke="#60a5fa" stroke-width="0.5"/><rect x="1149.8" y="350.6" width="2.5" height="13.4" fill="#93c5fd" stroke="#60a5fa" stroke-width="0.5"/><rect x="1154.3" y="301.6" width="2.5" height="62.4" fill="#93c5fd" stroke="#60a5fa" stroke-width="0.5"/><rect x="1158.8" y="212.5" width="2.5" height="151.5" fill="#93c5fd" stroke="#60a5fa" stroke-width="0.5"/><rect x="1163.2" y="346.2" width="2.5" height="17.8" fill="#93c5fd" stroke="#60a5fa" stroke-width="0.5"/><rect x="1167.7" y="279.3" width="2.5" height="84.7" fill="#93c5fd" stroke="#60a5fa" stroke-width="0.5"/><rect x="1172.2" y="359.5" width="2.5" height="4.5" fill="#93c5fd" stroke="#60a5fa" stroke-width="0.5"/><rect x="1176.6" y="190.2" width="2.5" height="173.8" fill="#93c5fd" stroke="#60a5fa" stroke-width="0.5"/><rect x="1181.1" y="310.5" width="2.5" height="53.5" fill="#93c5fd" stroke="#60a5fa" stroke-width="0.5"/><rect x="1185.6" y="306.1" width="2.5" height="57.9" fill="#93c5fd" stroke="#60a5fa" stroke-width="0.5"/><rect x="1190.1" y="355.1" width="2.5" height="8.9" fill="#93c5fd" stroke="#60a5fa" stroke-width="0.5"/><rect x="1194.5" y="332.8" width="2.5" height="31.2" fill="#93c5fd" stroke="#60a5fa" stroke-width="0.5"/><polyline fill="none" stroke="#ef4444" stroke-width="2" points="82.2,363.1 86.7,362.9 91.2,362.7 95.7,362.2 100.1,362.0 104.6,361.3 109.1,361.1 113.5,360.9 118.0,360.6 122.5,360.4 127.0,360.2 131.4,360.0 135.9,359.7 140.4,359.3 144.8,358.4 149.3,358.2 153.8,358.0 158.3,357.3 162.7,356.2 167.2,353.3 171.7,352.8 176.1,352.1 180.6,351.9 185.1,351.2 189.6,351.0 194.0,349.9 198.5,349.7 203.0,349.5 207.5,349.2 211.9,349.0 216.4,348.8 220.9,348.6 225.3,348.3 229.8,348.1 234.3,347.9 238.8,347.7 243.2,347.4 247.7,347.2 252.2,347.0 256.6,346.8 261.1,346.1 265.6,345.9 270.1,345.6 274.5,343.2 279.0,343.0 283.5,341.6 287.9,339.8 292.4,339.6 296.9,339.2 301.4,338.5 305.8,338.0 310.3,337.6 314.8,336.9 319.3,336.7 323.7,336.5 328.2,336.2 332.7,336.0 337.1,335.4 341.6,335.1 346.1,333.3 350.6,333.1 355.0,332.9 359.5,332.7 364.0,332.0 368.4,331.8 372.9,331.5 377.4,331.1 381.9,330.4 386.3,330.2 390.8,329.5 395.3,329.1 399.7,328.4 404.2,328.2 408.7,326.0 413.2,325.1 417.6,324.2 422.1,323.9 426.6,323.7 431.1,323.5 435.5,323.0 440.0,322.6 444.5,321.9 448.9,321.5 453.4,320.8 457.9,320.6 462.4,320.1 466.8,319.9 471.3,318.6 475.8,318.3 480.2,318.1 484.7,317.9 489.2,317.7 493.7,317.4 498.1,316.1 502.6,315.9 507.1,315.0 511.5,312.7 516.0,311.0 520.5,310.5 525.0,310.1 529.4,309.6 533.9,309.2 538.4,308.5 542.9,307.4 547.3,307.2 551.8,305.1 556.3,304.7 560.7,303.8 565.2,303.3 569.7,303.1 574.2,302.9 578.6,302.5 583.1,301.8 587.6,301.3 592.0,298.9 596.5,296.6 601.0,295.7 605.5,295.5 609.9,293.7 614.4,291.9 618.9,286.6 623.3,286.1 627.8,285.0 632.3,284.3 636.8,281.4 641.2,280.1 645.7,276.9 650.2,274.7 654.7,274.2 659.1,274.0 663.6,272.9 668.1,270.0 672.5,269.1 677.0,263.7 681.5,262.6 686.0,246.9 690.4,243.1 694.9,242.5 699.4,242.0 703.8,232.8 708.3,231.5 712.8,230.8 717.3,230.4 721.7,229.5 726.2,227.7 730.7,227.5 735.1,227.2 739.6,226.4 744.1,225.2 748.6,223.9 753.0,222.5 757.5,222.3 762.0,221.2 766.5,219.6 770.9,218.1 775.4,216.3 779.9,214.3 784.3,212.7 788.8,211.8 793.3,211.1 797.8,210.5 802.2,208.9 806.7,208.7 811.2,208.0 815.6,207.6 820.1,207.1 824.6,206.7 829.1,206.2 833.5,206.0 838.0,205.8 842.5,204.4 846.9,204.0 851.4,202.2 855.9,201.5 860.4,199.7 864.8,198.2 869.3,196.4 873.8,195.2 878.3,194.8 882.7,194.3 887.2,192.1 891.7,189.6 896.1,187.9 900.6,185.8 905.1,184.7 909.6,184.5 914.0,183.8 918.5,183.6 923.0,182.7 927.4,181.8 931.9,180.7 936.4,180.5 940.9,180.2 945.3,177.8 949.8,171.1 954.3,167.7 958.7,167.5 963.2,165.3 967.7,164.8 972.2,163.7 976.6,161.2 981.1,160.6 985.6,156.3 990.1,144.7 994.5,144.4 999.0,136.8 1003.5,136.4 1007.9,130.8 1012.4,130.6 1016.9,129.2 1021.4,128.8 1025.8,125.9 1030.3,124.3 1034.8,123.8 1039.2,118.2 1043.7,117.4 1048.2,115.6 1052.7,114.9 1057.1,112.7 1061.6,112.4 1066.1,108.8 1070.5,106.8 1075.0,106.2 1079.5,103.0 1084.0,102.6 1088.4,102.4 1092.9,101.9 1097.4,101.2 1101.9,98.6 1106.3,97.4 1110.8,97.0 1115.3,96.8 1119.7,96.1 1124.2,95.6 1128.7,90.7 1133.2,88.7 1137.6,87.1 1142.1,86.9 1146.6,85.1 1151.0,84.5 1155.5,81.3 1160.0,73.7 1164.5,72.8 1168.9,68.6 1173.4,68.3 1177.9,59.6 1182.3,56.9 1186.8,54.0 1191.3,53.6 1195.8,52.0"/><line x1="82.2" y1="364.0" x2="82.2" y2="370.0" stroke="#111827" stroke-width="1"/><text x="84.2" y="386.0" font-size="11" text-anchor="end" transform="rotate(-35 84.2 386.0)" font-family="sans-serif" fill="#374151">2022-10-13</text><line x1="243.2" y1="364.0" x2="243.2" y2="370.0" stroke="#111827" stroke-width="1"/><text x="245.2" y="386.0" font-size="11" text-anchor="end" transform="rotate(-35 245.2 386.0)" font-family="sans-serif" fill="#374151">2025-03-24</text><line x1="399.7" y1="364.0" x2="399.7" y2="370.0" stroke="#111827" stroke-width="1"/><text x="401.7" y="386.0" font-size="11" text-anchor="end" transform="rotate(-35 401.7 386.0)" font-family="sans-serif" fill="#374151">2025-07-16</text><line x1="560.7" y1="364.0" x2="560.7" y2="370.0" stroke="#111827" stroke-width="1"/><text x="562.7" y="386.0" font-size="11" text-anchor="end" transform="rotate(-35 562.7 386.0)" font-family="sans-serif" fill="#374151">2025-09-24</text><line x1="717.3" y1="364.0" x2="717.3" y2="370.0" stroke="#111827" stroke-width="1"/><text x="719.3" y="386.0" font-size="11" text-anchor="end" transform="rotate(-35 719.3 386.0)" font-family="sans-serif" fill="#374151">2025-11-14</text><line x1="878.3" y1="364.0" x2="878.3" y2="370.0" stroke="#111827" stroke-width="1"/><text x="880.3" y="386.0" font-size="11" text-anchor="end" transform="rotate(-35 880.3 386.0)" font-family="sans-serif" fill="#374151">2026-01-03</text><line x1="1034.8" y1="364.0" x2="1034.8" y2="370.0" stroke="#111827" stroke-width="1"/><text x="1036.8" y="386.0" font-size="11" text-anchor="end" transform="rotate(-35 1036.8 386.0)" font-family="sans-serif" fill="#374151">2026-02-11</text><line x1="1195.8" y1="364.0" x2="1195.8" y2="370.0" stroke="#111827" stroke-width="1"/><text x="1197.8" y="386.0" font-size="11" text-anchor="end" transform="rotate(-35 1197.8 386.0)" font-family="sans-serif" fill="#374151">2026-04-01</text><text x="26" y="208.0" font-size="12" transform="rotate(-90 26 208.0)" text-anchor="middle" font-family="sans-serif" fill="#1f2937">구간별 수</text><text x="1256.0" y="208.0" font-size="12" transform="rotate(90 1256.0 208.0)" text-anchor="middle" font-family="sans-serif" fill="#1f2937">누적</text><text x="639.0" y="442.0" font-size="13" text-anchor="middle" font-family="sans-serif" fill="#111827">일</text></svg>