<svg xmlns="http://www.w3.org/2000/svg" width="1280" height="460" viewBox="0 0 1280 460"><rect x="0" y="0" width="100%" height="100%" fill="#ffffff"/><text x="640.0" y="28" font-size="20" text-anchor="middle" font-family="sans-serif" fill="#111827">시리즈 / 최근 반영 시점 / 시간별</text><line x1="80.0" y1="52.0" x2="1198.0" y2="52.0" stroke="#e5e7eb" stroke-width="1"/><text x="72.0" y="56.0" font-size="11" text-anchor="end" font-family="sans-serif" fill="#374151">1,013</text><text x="1206.0" y="56.0" font-size="11" text-anchor="start" font-family="sans-serif" fill="#374151">1,457</text><line x1="80.0" y1="114.4" x2="1198.0" y2="114.4" stroke="#e5e7eb" stroke-width="1"/><text x="72.0" y="118.4" font-size="11" text-anchor="end" font-family="sans-serif" fill="#374151">810</text><text x="1206.0" y="118.4" font-size="11" text-anchor="start" font-family="sans-serif" fill="#374151">1,166</text><line x1="80.0" y1="176.8" x2="1198.0" y2="176.8" stroke="#e5e7eb" stroke-width="1"/><text x="72.0" y="180.8" font-size="11" text-anchor="end" font-family="sans-serif" fill="#374151">608</text><text x="1206.0" y="180.8" font-size="11" text-anchor="start" font-family="sans-serif" fill="#374151">874</text><line x1="80.0" y1="239.2" x2="1198.0" y2="239.2" stroke="#e5e7eb" stroke-width="1"/><text x="72.0" y="243.2" font-size="11" text-anchor="end" font-family="sans-serif" fill="#374151">405</text><text x="1206.0" y="243.2" font-size="11" text-anchor="start" font-family="sans-serif" fill="#374151">583</text><line x1="80.0" y1="301.6" x2="1198.0" y2="301.6" stroke="#e5e7eb" stroke-width="1"/><text x="72.0" y="305.6" font-size="11" text-anchor="end" font-family="sans-serif" fill="#374151">203</text><text x="1206.0" y="305.6" font-size="11" text-anchor="start" font-family="sans-serif" fill="#374151">291</text><line x1="80.0" y1="364.0" x2="1198.0" y2="364.0" stroke="#e5e7eb" stroke-width="1"/><text x="72.0" y="368.0" font-size="11" text-anchor="end" font-family="sans-serif" fill="#374151">0</text><text x="1206.0" y="368.0" font-size="11" text-anchor="start" font-family="sans-serif" fill="#374151">0</text><line x1="80.0" y1="364.0" x2="1198.0" y2="364.0" stroke="#111827" stroke-width="1.2"/><line x1="80.0" y1="52.0" x2="80.0" y2="364.0" stroke="#111827" stroke-width="1.2"/><line x1="1198.0" y1="52.0" x2="1198.0" y2="364.0" stroke="#111827" stroke-width="1.2"/><rect x="81.0" y="363.7" width="36.6" height="0.3" fill="#93c5fd" stroke="#60a5fa" stroke-width="0.5"/><rect x="119.6" y="363.1" width="36.6" height="0.9" fill="#93c5fd" stroke="#60a5fa" stroke-width="0.5"/><rect x="158.1" y="362.8" width="36.6" height="1.2" fill="#93c5fd" stroke="#60a5fa" stroke-width="0.5"/><rect x="196.7" y="363.7" width="36.6" height="0.3" fill="#93c5fd" stroke="#60a5fa" stroke-width="0.5"/><rect x="235.2" y="363.4" width="36.6" height="0.6" fill="#93c5fd" stroke="#60a5fa" stroke-width="0.5"/><rect x="273.8" y="363.4" width="36.6" height="0.6" fill="#93c5fd" stroke="#60a5fa" stroke-width="0.5"/><rect x="312.3" y="363.7" width="36.6" height="0.3" fill="#93c5fd" stroke="#60a5fa" stroke-width="0.5"/><rect x="350.9" y="363.7" width="36.6" height="0.3" fill="#93c5fd" stroke="#60a5fa" stroke-width="0.5"/><rect x="389.4" y="363.7" width="36.6" height="0.3" fill="#93c5fd" stroke="#60a5fa" stroke-width="0.5"/><rect x="428.0" y="363.7" width="36.6" height="0.3" fill="#93c5fd" stroke="#60a5fa" stroke-width="0.5"/><rect x="466.5" y="363.7" width="36.6" height="0.3" fill="#93c5fd" stroke="#60a5fa" stroke-width="0.5"/><rect x="505.1" y="363.1" width="36.6" height="0.9" fill="#93c5fd" stroke="#60a5fa" stroke-width="0.5"/><rect x="543.6" y="362.8" width="36.6" height="1.2" fill="#93c5fd" stroke="#60a5fa" stroke-width="0.5"/><rect x="582.2" y="362.2" width="36.6" height="1.8" fill="#93c5fd" stroke="#60a5fa" stroke-width="0.5"/><rect x="620.7" y="52.0" width="36.6" height="312.0" fill="#93c5fd" stroke="#60a5fa" stroke-width="0.5"/><rect x="659.3" y="348.9" width="36.6" height="15.1" fill="#93c5fd" stroke="#60a5fa" stroke-width="0.5"/><rect x="697.8" y="349.2" width="36.6" height="14.8" fill="#93c5fd" stroke="#60a5fa" stroke-width="0.5"/><rect x="736.4" y="349.5" width="36.6" height="14.5" fill="#93c5fd" stroke="#60a5fa" stroke-width="0.5"/><rect x="774.9" y="363.4" width="36.6" height="0.6" fill="#93c5fd" stroke="#60a5fa" stroke-width="0.5"/><rect x="813.5" y="350.1" width="36.6" height="13.9" fill="#93c5fd" stroke="#60a5fa" stroke-width="0.5"/><rect x="852.0" y="350.4" width="36.6" height="13.6" fill="#93c5fd" stroke="#60a5fa" stroke-width="0.5"/><rect x="890.6" y="363.4" width="36.6" height="0.6" fill="#93c5fd" stroke="#60a5fa" stroke-width="0.5"/><rect x="929.1" y="361.5" width="36.6" height="2.5" fill="#93c5fd" stroke="#60a5fa" stroke-width="0.5"/><rect x="967.7" y="363.1" width="36.6" height="0.9" fill="#93c5fd" stroke="#60a5fa" stroke-width="0.5"/><rect x="1006.2" y="363.7" width="36.6" height="0.3" fill="#93c5fd" stroke="#60a5fa" stroke-width="0.5"/><rect x="1044.8" y="359.4" width="36.6" height="4.6" fill="#93c5fd" stroke="#60a5fa" stroke-width="0.5"/><rect x="1083.3" y="348.9" width="36.6" height="15.1" fill="#93c5fd" stroke="#60a5fa" stroke-width="0.5"/><rect x="1121.9" y="348.6" width="36.6" height="15.4" fill="#93c5fd" stroke="#60a5fa" stroke-width="0.5"/><rect x="1160.4" y="348.6" width="36.6" height="15.4" fill="#93c5fd" stroke="#60a5fa" stroke-width="0.5"/><polyline fill="none" stroke="#ef4444" stroke-width="2" points="99.3,363.8 137.8,363.1 176.4,362.3 214.9,362.1 253.5,361.6 292.0,361.2 330.6,361.0 369.1,360.8 407.7,360.6 446.2,360.4 484.8,360.1 523.3,359.5 561.9,358.6 600.4,357.4 639.0,140.4 677.6,129.9 716.1,119.7 754.7,109.6 793.2,109.2 831.8,99.5 870.3,90.1 908.9,89.7 947.4,88.0 986.0,87.3 1024.5,87.1 1063.1,83.9 1101.6,73.4 1140.2,62.7 1178.7,52.0"/><line x1="99.3" y1="364.0" x2="99.3" y2="370.0" stroke="#111827" stroke-width="1"/><text x="101.3" y="386.0" font-size="11" text-anchor="end" transform="rotate(-35 101.3 386.0)" font-family="sans-serif" fill="#374151">2026-04-16 23:00</text><line x1="253.5" y1="364.0" x2="253.5" y2="370.0" stroke="#111827" stroke-width="1"/><text x="255.5" y="386.0" font-size="11" text-anchor="end" transform="rotate(-35 255.5 386.0)" font-family="sans-serif" fill="#374151">2026-04-20 16:00</text><line x1="407.7" y1="364.0" x2="407.7" y2="370.0" stroke="#111827" stroke-width="1"/><text x="409.7" y="386.0" font-size="11" text-anchor="end" transform="rotate(-35 409.7 386.0)" font-family="sans-serif" fill="#374151">2026-04-21 10:00</text><line x1="561.9" y1="364.0" x2="561.9" y2="370.0" stroke="#111827" stroke-width="1"/><text x="563.9" y="386.0" font-size="11" text-anchor="end" transform="rotate(-35 563.9 386.0)" font-family="sans-serif" fill="#374151">2026-04-22 10:00</text><line x1="716.1" y1="364.0" x2="716.1" y2="370.0" stroke="#111827" stroke-width="1"/><text x="718.1" y="386.0" font-size="11" text-anchor="end" transform="rotate(-35 718.1 386.0)" font-family="sans-serif" fill="#374151">2026-04-24 18:00</text><line x1="870.3" y1="364.0" x2="870.3" y2="370.0" stroke="#111827" stroke-width="1"/><text x="872.3" y="386.0" font-size="11" text-anchor="end" transform="rotate(-35 872.3 386.0)" font-family="sans-serif" fill="#374151">2026-04-26 03:00</text><line x1="1024.5" y1="364.0" x2="1024.5" y2="370.0" stroke="#111827" stroke-width="1"/><text x="1026.5" y="386.0" font-size="11" text-anchor="end" transform="rotate(-35 1026.5 386.0)" font-family="sans-serif" fill="#374151">2026-04-28 21:00</text><line x1="1178.7" y1="364.0" x2="1178.7" y2="370.0" stroke="#111827" stroke-width="1"/><text x="1180.7" y="386.0" font-size="11" text-anchor="end" transform="rotate(-35 1180.7 386.0)" font-family="sans-serif" fill="#374151">2026-05-01 07:00</text><text x="26" y="208.0" font-size="12" transform="rotate(-90 26 208.0)" text-anchor="middle" font-family="sans-serif" fill="#1f2937">구간별 수</text><text x="1256.0" y="208.0" font-size="12" transform="rotate(90 1256.0 208.0)" text-anchor="middle" font-family="sans-serif" fill="#1f2937">누적</text><text x="639.0" y="442.0" font-size="13" text-anchor="middle" font-family="sans-serif" fill="#111827">시간</text></svg>