<svg xmlns="http://www.w3.org/2000/svg" width="1280" height="460" viewBox="0 0 1280 460"><rect x="0" y="0" width="100%" height="100%" fill="#ffffff"/><text x="640.0" y="28" font-size="20" text-anchor="middle" font-family="sans-serif" fill="#111827">시리즈 / 최근 반영 시점 / 일별</text><line x1="80.0" y1="52.0" x2="1198.0" y2="52.0" stroke="#e5e7eb" stroke-width="1"/><text x="72.0" y="56.0" font-size="11" text-anchor="end" font-family="sans-serif" fill="#374151">1,365</text><text x="1206.0" y="56.0" font-size="11" text-anchor="start" font-family="sans-serif" fill="#374151">1,436</text><line x1="80.0" y1="114.4" x2="1198.0" y2="114.4" stroke="#e5e7eb" stroke-width="1"/><text x="72.0" y="118.4" font-size="11" text-anchor="end" font-family="sans-serif" fill="#374151">1,092</text><text x="1206.0" y="118.4" font-size="11" text-anchor="start" font-family="sans-serif" fill="#374151">1,149</text><line x1="80.0" y1="176.8" x2="1198.0" y2="176.8" stroke="#e5e7eb" stroke-width="1"/><text x="72.0" y="180.8" font-size="11" text-anchor="end" font-family="sans-serif" fill="#374151">819</text><text x="1206.0" y="180.8" font-size="11" text-anchor="start" font-family="sans-serif" fill="#374151">862</text><line x1="80.0" y1="239.2" x2="1198.0" y2="239.2" stroke="#e5e7eb" stroke-width="1"/><text x="72.0" y="243.2" font-size="11" text-anchor="end" font-family="sans-serif" fill="#374151">546</text><text x="1206.0" y="243.2" font-size="11" text-anchor="start" font-family="sans-serif" fill="#374151">574</text><line x1="80.0" y1="301.6" x2="1198.0" y2="301.6" stroke="#e5e7eb" stroke-width="1"/><text x="72.0" y="305.6" font-size="11" text-anchor="end" font-family="sans-serif" fill="#374151">273</text><text x="1206.0" y="305.6" font-size="11" text-anchor="start" font-family="sans-serif" fill="#374151">287</text><line x1="80.0" y1="364.0" x2="1198.0" y2="364.0" stroke="#e5e7eb" stroke-width="1"/><text x="72.0" y="368.0" font-size="11" text-anchor="end" font-family="sans-serif" fill="#374151">0</text><text x="1206.0" y="368.0" font-size="11" text-anchor="start" font-family="sans-serif" fill="#374151">0</text><line x1="80.0" y1="364.0" x2="1198.0" y2="364.0" stroke="#111827" stroke-width="1.2"/><line x1="80.0" y1="52.0" x2="80.0" y2="364.0" stroke="#111827" stroke-width="1.2"/><line x1="1198.0" y1="52.0" x2="1198.0" y2="364.0" stroke="#111827" stroke-width="1.2"/><rect x="81.0" y="363.8" width="277.5" height="0.2" fill="#93c5fd" stroke="#60a5fa" stroke-width="0.5"/><rect x="360.5" y="355.8" width="277.5" height="8.2" fill="#93c5fd" stroke="#60a5fa" stroke-width="0.5"/><rect x="640.0" y="356.2" width="277.5" height="7.8" fill="#93c5fd" stroke="#60a5fa" stroke-width="0.5"/><rect x="919.5" y="52.0" width="277.5" height="312.0" fill="#93c5fd" stroke="#60a5fa" stroke-width="0.5"/><polyline fill="none" stroke="#ef4444" stroke-width="2" points="219.8,363.8 499.2,356.0 778.8,348.6 1058.2,52.0"/><line x1="219.8" y1="364.0" x2="219.8" y2="370.0" stroke="#111827" stroke-width="1"/><text x="221.8" y="386.0" font-size="11" text-anchor="end" transform="rotate(-35 221.8 386.0)" font-family="sans-serif" fill="#374151">2026-04-16</text><line x1="499.2" y1="364.0" x2="499.2" y2="370.0" stroke="#111827" stroke-width="1"/><text x="501.2" y="386.0" font-size="11" text-anchor="end" transform="rotate(-35 501.2 386.0)" font-family="sans-serif" fill="#374151">2026-04-17</text><line x1="778.8" y1="364.0" x2="778.8" y2="370.0" stroke="#111827" stroke-width="1"/><text x="780.8" y="386.0" font-size="11" text-anchor="end" transform="rotate(-35 780.8 386.0)" font-family="sans-serif" fill="#374151">2026-04-18</text><line x1="1058.2" y1="364.0" x2="1058.2" y2="370.0" stroke="#111827" stroke-width="1"/><text x="1060.2" y="386.0" font-size="11" text-anchor="end" transform="rotate(-35 1060.2 386.0)" font-family="sans-serif" fill="#374151">2026-04-19</text><text x="26" y="208.0" font-size="12" transform="rotate(-90 26 208.0)" text-anchor="middle" font-family="sans-serif" fill="#1f2937">구간별 수</text><text x="1256.0" y="208.0" font-size="12" transform="rotate(90 1256.0 208.0)" text-anchor="middle" font-family="sans-serif" fill="#1f2937">누적</text><text x="639.0" y="442.0" font-size="13" text-anchor="middle" font-family="sans-serif" fill="#111827">일</text></svg>