<svg xmlns="http://www.w3.org/2000/svg" width="1280" height="460" viewBox="0 0 1280 460"><rect x="0" y="0" width="100%" height="100%" fill="#ffffff"/><text x="640.0" y="28" font-size="20" text-anchor="middle" font-family="sans-serif" fill="#111827">시리즈 / 최근 반영 시점 / 시간별</text><line x1="80.0" y1="52.0" x2="1198.0" y2="52.0" stroke="#e5e7eb" stroke-width="1"/><text x="72.0" y="56.0" font-size="11" text-anchor="end" font-family="sans-serif" fill="#374151">833</text><text x="1206.0" y="56.0" font-size="11" text-anchor="start" font-family="sans-serif" fill="#374151">1,436</text><line x1="80.0" y1="114.4" x2="1198.0" y2="114.4" stroke="#e5e7eb" stroke-width="1"/><text x="72.0" y="118.4" font-size="11" text-anchor="end" font-family="sans-serif" fill="#374151">666</text><text x="1206.0" y="118.4" font-size="11" text-anchor="start" font-family="sans-serif" fill="#374151">1,149</text><line x1="80.0" y1="176.8" x2="1198.0" y2="176.8" stroke="#e5e7eb" stroke-width="1"/><text x="72.0" y="180.8" font-size="11" text-anchor="end" font-family="sans-serif" fill="#374151">500</text><text x="1206.0" y="180.8" font-size="11" text-anchor="start" font-family="sans-serif" fill="#374151">862</text><line x1="80.0" y1="239.2" x2="1198.0" y2="239.2" stroke="#e5e7eb" stroke-width="1"/><text x="72.0" y="243.2" font-size="11" text-anchor="end" font-family="sans-serif" fill="#374151">333</text><text x="1206.0" y="243.2" font-size="11" text-anchor="start" font-family="sans-serif" fill="#374151">574</text><line x1="80.0" y1="301.6" x2="1198.0" y2="301.6" stroke="#e5e7eb" stroke-width="1"/><text x="72.0" y="305.6" font-size="11" text-anchor="end" font-family="sans-serif" fill="#374151">167</text><text x="1206.0" y="305.6" font-size="11" text-anchor="start" font-family="sans-serif" fill="#374151">287</text><line x1="80.0" y1="364.0" x2="1198.0" y2="364.0" stroke="#e5e7eb" stroke-width="1"/><text x="72.0" y="368.0" font-size="11" text-anchor="end" font-family="sans-serif" fill="#374151">0</text><text x="1206.0" y="368.0" font-size="11" text-anchor="start" font-family="sans-serif" fill="#374151">0</text><line x1="80.0" y1="364.0" x2="1198.0" y2="364.0" stroke="#111827" stroke-width="1.2"/><line x1="80.0" y1="52.0" x2="80.0" y2="364.0" stroke="#111827" stroke-width="1.2"/><line x1="1198.0" y1="52.0" x2="1198.0" y2="364.0" stroke="#111827" stroke-width="1.2"/><rect x="81.0" y="363.6" width="46.6" height="0.4" fill="#93c5fd" stroke="#60a5fa" stroke-width="0.5"/><rect x="129.6" y="361.8" width="46.6" height="2.2" fill="#93c5fd" stroke="#60a5fa" stroke-width="0.5"/><rect x="178.2" y="363.6" width="46.6" height="0.4" fill="#93c5fd" stroke="#60a5fa" stroke-width="0.5"/><rect x="226.8" y="352.4" width="46.6" height="11.6" fill="#93c5fd" stroke="#60a5fa" stroke-width="0.5"/><rect x="275.4" y="363.3" width="46.6" height="0.7" fill="#93c5fd" stroke="#60a5fa" stroke-width="0.5"/><rect x="324.0" y="363.6" width="46.6" height="0.4" fill="#93c5fd" stroke="#60a5fa" stroke-width="0.5"/><rect x="372.7" y="363.6" width="46.6" height="0.4" fill="#93c5fd" stroke="#60a5fa" stroke-width="0.5"/><rect x="421.3" y="363.6" width="46.6" height="0.4" fill="#93c5fd" stroke="#60a5fa" stroke-width="0.5"/><rect x="469.9" y="363.6" width="46.6" height="0.4" fill="#93c5fd" stroke="#60a5fa" stroke-width="0.5"/><rect x="518.5" y="363.6" width="46.6" height="0.4" fill="#93c5fd" stroke="#60a5fa" stroke-width="0.5"/><rect x="567.1" y="363.6" width="46.6" height="0.4" fill="#93c5fd" stroke="#60a5fa" stroke-width="0.5"/><rect x="615.7" y="352.8" width="46.6" height="11.2" fill="#93c5fd" stroke="#60a5fa" stroke-width="0.5"/><rect x="664.3" y="363.3" width="46.6" height="0.7" fill="#93c5fd" stroke="#60a5fa" stroke-width="0.5"/><rect x="712.9" y="363.6" width="46.6" height="0.4" fill="#93c5fd" stroke="#60a5fa" stroke-width="0.5"/><rect x="761.5" y="363.6" width="46.6" height="0.4" fill="#93c5fd" stroke="#60a5fa" stroke-width="0.5"/><rect x="810.1" y="363.3" width="46.6" height="0.7" fill="#93c5fd" stroke="#60a5fa" stroke-width="0.5"/><rect x="858.7" y="363.6" width="46.6" height="0.4" fill="#93c5fd" stroke="#60a5fa" stroke-width="0.5"/><rect x="907.3" y="363.6" width="46.6" height="0.4" fill="#93c5fd" stroke="#60a5fa" stroke-width="0.5"/><rect x="956.0" y="363.3" width="46.6" height="0.7" fill="#93c5fd" stroke="#60a5fa" stroke-width="0.5"/><rect x="1004.6" y="361.8" width="46.6" height="2.2" fill="#93c5fd" stroke="#60a5fa" stroke-width="0.5"/><rect x="1053.2" y="360.6" width="46.6" height="3.4" fill="#93c5fd" stroke="#60a5fa" stroke-width="0.5"/><rect x="1101.8" y="52.0" width="46.6" height="312.0" fill="#93c5fd" stroke="#60a5fa" stroke-width="0.5"/><rect x="1150.4" y="176.4" width="46.6" height="187.6" fill="#93c5fd" stroke="#60a5fa" stroke-width="0.5"/><polyline fill="none" stroke="#ef4444" stroke-width="2" points="104.3,363.8 152.9,362.5 201.5,362.3 250.1,355.5 298.7,355.1 347.3,354.9 396.0,354.7 444.6,354.4 493.2,354.2 541.8,354.0 590.4,353.8 639.0,347.3 687.6,346.8 736.2,346.6 784.8,346.4 833.4,346.0 882.0,345.7 930.7,345.5 979.3,345.1 1027.9,343.8 1076.5,341.8 1125.1,160.9 1173.7,52.0"/><line x1="104.3" y1="364.0" x2="104.3" y2="370.0" stroke="#111827" stroke-width="1"/><text x="106.3" y="386.0" font-size="11" text-anchor="end" transform="rotate(-35 106.3 386.0)" font-family="sans-serif" fill="#374151">2026-04-16 23:00</text><line x1="250.1" y1="364.0" x2="250.1" y2="370.0" stroke="#111827" stroke-width="1"/><text x="252.1" y="386.0" font-size="11" text-anchor="end" transform="rotate(-35 252.1 386.0)" font-family="sans-serif" fill="#374151">2026-04-17 10:00</text><line x1="396.0" y1="364.0" x2="396.0" y2="370.0" stroke="#111827" stroke-width="1"/><text x="398.0" y="386.0" font-size="11" text-anchor="end" transform="rotate(-35 398.0 386.0)" font-family="sans-serif" fill="#374151">2026-04-17 17:00</text><line x1="541.8" y1="364.0" x2="541.8" y2="370.0" stroke="#111827" stroke-width="1"/><text x="543.8" y="386.0" font-size="11" text-anchor="end" transform="rotate(-35 543.8 386.0)" font-family="sans-serif" fill="#374151">2026-04-18 06:00</text><line x1="736.2" y1="364.0" x2="736.2" y2="370.0" stroke="#111827" stroke-width="1"/><text x="738.2" y="386.0" font-size="11" text-anchor="end" transform="rotate(-35 738.2 386.0)" font-family="sans-serif" fill="#374151">2026-04-18 12:00</text><line x1="882.0" y1="364.0" x2="882.0" y2="370.0" stroke="#111827" stroke-width="1"/><text x="884.0" y="386.0" font-size="11" text-anchor="end" transform="rotate(-35 884.0 386.0)" font-family="sans-serif" fill="#374151">2026-04-18 16:00</text><line x1="1027.9" y1="364.0" x2="1027.9" y2="370.0" stroke="#111827" stroke-width="1"/><text x="1029.9" y="386.0" font-size="11" text-anchor="end" transform="rotate(-35 1029.9 386.0)" font-family="sans-serif" fill="#374151">2026-04-18 20:00</text><line x1="1173.7" y1="364.0" x2="1173.7" y2="370.0" stroke="#111827" stroke-width="1"/><text x="1175.7" y="386.0" font-size="11" text-anchor="end" transform="rotate(-35 1175.7 386.0)" font-family="sans-serif" fill="#374151">2026-04-18 23:00</text><text x="26" y="208.0" font-size="12" transform="rotate(-90 26 208.0)" text-anchor="middle" font-family="sans-serif" fill="#1f2937">구간별 수</text><text x="1256.0" y="208.0" font-size="12" transform="rotate(90 1256.0 208.0)" text-anchor="middle" font-family="sans-serif" fill="#1f2937">누적</text><text x="639.0" y="442.0" font-size="13" text-anchor="middle" font-family="sans-serif" fill="#111827">시간</text></svg>