<svg xmlns="http://www.w3.org/2000/svg" width="1280" height="460" viewBox="0 0 1280 460"><rect x="0" y="0" width="100%" height="100%" fill="#ffffff"/><text x="640.0" y="28" font-size="20" text-anchor="middle" font-family="sans-serif" fill="#111827">시리즈 / 생성 시점 / 일별</text><line x1="80.0" y1="52.0" x2="1198.0" y2="52.0" stroke="#e5e7eb" stroke-width="1"/><text x="72.0" y="56.0" font-size="11" text-anchor="end" font-family="sans-serif" fill="#374151">70</text><text x="1206.0" y="56.0" font-size="11" text-anchor="start" font-family="sans-serif" fill="#374151">1,431</text><line x1="80.0" y1="114.4" x2="1198.0" y2="114.4" stroke="#e5e7eb" stroke-width="1"/><text x="72.0" y="118.4" font-size="11" text-anchor="end" font-family="sans-serif" fill="#374151">56</text><text x="1206.0" y="118.4" font-size="11" text-anchor="start" font-family="sans-serif" fill="#374151">1,145</text><line x1="80.0" y1="176.8" x2="1198.0" y2="176.8" stroke="#e5e7eb" stroke-width="1"/><text x="72.0" y="180.8" font-size="11" text-anchor="end" font-family="sans-serif" fill="#374151">42</text><text x="1206.0" y="180.8" font-size="11" text-anchor="start" font-family="sans-serif" fill="#374151">859</text><line x1="80.0" y1="239.2" x2="1198.0" y2="239.2" stroke="#e5e7eb" stroke-width="1"/><text x="72.0" y="243.2" font-size="11" text-anchor="end" font-family="sans-serif" fill="#374151">28</text><text x="1206.0" y="243.2" font-size="11" text-anchor="start" font-family="sans-serif" fill="#374151">572</text><line x1="80.0" y1="301.6" x2="1198.0" y2="301.6" stroke="#e5e7eb" stroke-width="1"/><text x="72.0" y="305.6" font-size="11" text-anchor="end" font-family="sans-serif" fill="#374151">14</text><text x="1206.0" y="305.6" font-size="11" text-anchor="start" font-family="sans-serif" fill="#374151">286</text><line x1="80.0" y1="364.0" x2="1198.0" y2="364.0" stroke="#e5e7eb" stroke-width="1"/><text x="72.0" y="368.0" font-size="11" text-anchor="end" font-family="sans-serif" fill="#374151">0</text><text x="1206.0" y="368.0" font-size="11" text-anchor="start" font-family="sans-serif" fill="#374151">0</text><line x1="80.0" y1="364.0" x2="1198.0" y2="364.0" stroke="#111827" stroke-width="1.2"/><line x1="80.0" y1="52.0" x2="80.0" y2="364.0" stroke="#111827" stroke-width="1.2"/><line x1="1198.0" y1="52.0" x2="1198.0" y2="364.0" stroke="#111827" stroke-width="1.2"/><rect x="80.0" y="346.2" width="4.3" height="17.8" fill="#93c5fd" stroke="#60a5fa" stroke-width="0.5"/><rect x="84.3" y="359.5" width="4.3" height="4.5" fill="#93c5fd" stroke="#60a5fa" stroke-width="0.5"/><rect x="88.6" y="359.5" width="4.3" height="4.5" fill="#93c5fd" stroke="#60a5fa" stroke-width="0.5"/><rect x="92.9" y="355.1" width="4.3" height="8.9" fill="#93c5fd" stroke="#60a5fa" stroke-width="0.5"/><rect x="97.3" y="359.5" width="4.3" height="4.5" fill="#93c5fd" stroke="#60a5fa" stroke-width="0.5"/><rect x="101.6" y="350.6" width="4.3" height="13.4" fill="#93c5fd" stroke="#60a5fa" stroke-width="0.5"/><rect x="105.9" y="359.5" width="4.3" height="4.5" fill="#93c5fd" stroke="#60a5fa" stroke-width="0.5"/><rect x="110.2" y="359.5" width="4.3" height="4.5" fill="#93c5fd" stroke="#60a5fa" stroke-width="0.5"/><rect x="114.5" y="359.5" width="4.3" height="4.5" fill="#93c5fd" stroke="#60a5fa" stroke-width="0.5"/><rect x="118.8" y="359.5" width="4.3" height="4.5" fill="#93c5fd" stroke="#60a5fa" stroke-width="0.5"/><rect x="123.2" y="359.5" width="4.3" height="4.5" fill="#93c5fd" stroke="#60a5fa" stroke-width="0.5"/><rect x="127.5" y="359.5" width="4.3" height="4.5" fill="#93c5fd" stroke="#60a5fa" stroke-width="0.5"/><rect x="131.8" y="359.5" width="4.3" height="4.5" fill="#93c5fd" stroke="#60a5fa" stroke-width="0.5"/><rect x="136.1" y="355.1" width="4.3" height="8.9" fill="#93c5fd" stroke="#60a5fa" stroke-width="0.5"/><rect x="140.4" y="346.2" width="4.3" height="17.8" fill="#93c5fd" stroke="#60a5fa" stroke-width="0.5"/><rect x="144.7" y="359.5" width="4.3" height="4.5" fill="#93c5fd" stroke="#60a5fa" stroke-width="0.5"/><rect x="149.1" y="359.5" width="4.3" height="4.5" fill="#93c5fd" stroke="#60a5fa" stroke-width="0.5"/><rect x="153.4" y="350.6" width="4.3" height="13.4" fill="#93c5fd" stroke="#60a5fa" stroke-width="0.5"/><rect x="157.7" y="341.7" width="4.3" height="22.3" fill="#93c5fd" stroke="#60a5fa" stroke-width="0.5"/><rect x="162.0" y="306.1" width="4.3" height="57.9" fill="#93c5fd" stroke="#60a5fa" stroke-width="0.5"/><rect x="166.3" y="355.1" width="4.3" height="8.9" fill="#93c5fd" stroke="#60a5fa" stroke-width="0.5"/><rect x="170.6" y="350.6" width="4.3" height="13.4" fill="#93c5fd" stroke="#60a5fa" stroke-width="0.5"/><rect x="175.0" y="359.5" width="4.3" height="4.5" fill="#93c5fd" stroke="#60a5fa" stroke-width="0.5"/><rect x="179.3" y="350.6" width="4.3" height="13.4" fill="#93c5fd" stroke="#60a5fa" stroke-width="0.5"/><rect x="183.6" y="359.5" width="4.3" height="4.5" fill="#93c5fd" stroke="#60a5fa" stroke-width="0.5"/><rect x="187.9" y="341.7" width="4.3" height="22.3" fill="#93c5fd" stroke="#60a5fa" stroke-width="0.5"/><rect x="192.2" y="359.5" width="4.3" height="4.5" fill="#93c5fd" stroke="#60a5fa" stroke-width="0.5"/><rect x="196.5" y="359.5" width="4.3" height="4.5" fill="#93c5fd" stroke="#60a5fa" stroke-width="0.5"/><rect x="200.9" y="359.5" width="4.3" height="4.5" fill="#93c5fd" stroke="#60a5fa" stroke-width="0.5"/><rect x="205.2" y="359.5" width="4.3" height="4.5" fill="#93c5fd" stroke="#60a5fa" stroke-width="0.5"/><rect x="209.5" y="359.5" width="4.3" height="4.5" fill="#93c5fd" stroke="#60a5fa" stroke-width="0.5"/><rect x="213.8" y="359.5" width="4.3" height="4.5" fill="#93c5fd" stroke="#60a5fa" stroke-width="0.5"/><rect x="218.1" y="359.5" width="4.3" height="4.5" fill="#93c5fd" stroke="#60a5fa" stroke-width="0.5"/><rect x="222.4" y="359.5" width="4.3" height="4.5" fill="#93c5fd" stroke="#60a5fa" stroke-width="0.5"/><rect x="226.8" y="359.5" width="4.3" height="4.5" fill="#93c5fd" stroke="#60a5fa" stroke-width="0.5"/><rect x="231.1" y="359.5" width="4.3" height="4.5" fill="#93c5fd" stroke="#60a5fa" stroke-width="0.5"/><rect x="235.4" y="359.5" width="4.3" height="4.5" fill="#93c5fd" stroke="#60a5fa" stroke-width="0.5"/><rect x="239.7" y="359.5" width="4.3" height="4.5" fill="#93c5fd" stroke="#60a5fa" stroke-width="0.5"/><rect x="244.0" y="359.5" width="4.3" height="4.5" fill="#93c5fd" stroke="#60a5fa" stroke-width="0.5"/><rect x="248.3" y="359.5" width="4.3" height="4.5" fill="#93c5fd" stroke="#60a5fa" stroke-width="0.5"/><rect x="252.7" y="350.6" width="4.3" height="13.4" fill="#93c5fd" stroke="#60a5fa" stroke-width="0.5"/><rect x="257.0" y="359.5" width="4.3" height="4.5" fill="#93c5fd" stroke="#60a5fa" stroke-width="0.5"/><rect x="261.3" y="359.5" width="4.3" height="4.5" fill="#93c5fd" stroke="#60a5fa" stroke-width="0.5"/><rect x="265.6" y="315.0" width="4.3" height="49.0" fill="#93c5fd" stroke="#60a5fa" stroke-width="0.5"/><rect x="269.9" y="359.5" width="4.3" height="4.5" fill="#93c5fd" stroke="#60a5fa" stroke-width="0.5"/><rect x="274.2" y="337.3" width="4.3" height="26.7" fill="#93c5fd" stroke="#60a5fa" stroke-width="0.5"/><rect x="278.6" y="328.3" width="4.3" height="35.7" fill="#93c5fd" stroke="#60a5fa" stroke-width="0.5"/><rect x="282.9" y="359.5" width="4.3" height="4.5" fill="#93c5fd" stroke="#60a5fa" stroke-width="0.5"/><rect x="287.2" y="355.1" width="4.3" height="8.9" fill="#93c5fd" stroke="#60a5fa" stroke-width="0.5"/><rect x="291.5" y="350.6" width="4.3" height="13.4" fill="#93c5fd" stroke="#60a5fa" stroke-width="0.5"/><rect x="295.8" y="355.1" width="4.3" height="8.9" fill="#93c5fd" stroke="#60a5fa" stroke-width="0.5"/><rect x="300.1" y="355.1" width="4.3" height="8.9" fill="#93c5fd" stroke="#60a5fa" stroke-width="0.5"/><rect x="304.5" y="350.6" width="4.3" height="13.4" fill="#93c5fd" stroke="#60a5fa" stroke-width="0.5"/><rect x="308.8" y="359.5" width="4.3" height="4.5" fill="#93c5fd" stroke="#60a5fa" stroke-width="0.5"/><rect x="313.1" y="359.5" width="4.3" height="4.5" fill="#93c5fd" stroke="#60a5fa" stroke-width="0.5"/><rect x="317.4" y="359.5" width="4.3" height="4.5" fill="#93c5fd" stroke="#60a5fa" stroke-width="0.5"/><rect x="321.7" y="359.5" width="4.3" height="4.5" fill="#93c5fd" stroke="#60a5fa" stroke-width="0.5"/><rect x="326.0" y="350.6" width="4.3" height="13.4" fill="#93c5fd" stroke="#60a5fa" stroke-width="0.5"/><rect x="330.4" y="359.5" width="4.3" height="4.5" fill="#93c5fd" stroke="#60a5fa" stroke-width="0.5"/><rect x="334.7" y="328.3" width="4.3" height="35.7" fill="#93c5fd" stroke="#60a5fa" stroke-width="0.5"/><rect x="339.0" y="359.5" width="4.3" height="4.5" fill="#93c5fd" stroke="#60a5fa" stroke-width="0.5"/><rect x="343.3" y="359.5" width="4.3" height="4.5" fill="#93c5fd" stroke="#60a5fa" stroke-width="0.5"/><rect x="347.6" y="359.5" width="4.3" height="4.5" fill="#93c5fd" stroke="#60a5fa" stroke-width="0.5"/><rect x="351.9" y="350.6" width="4.3" height="13.4" fill="#93c5fd" stroke="#60a5fa" stroke-width="0.5"/><rect x="356.3" y="359.5" width="4.3" height="4.5" fill="#93c5fd" stroke="#60a5fa" stroke-width="0.5"/><rect x="360.6" y="359.5" width="4.3" height="4.5" fill="#93c5fd" stroke="#60a5fa" stroke-width="0.5"/><rect x="364.9" y="355.1" width="4.3" height="8.9" fill="#93c5fd" stroke="#60a5fa" stroke-width="0.5"/><rect x="369.2" y="350.6" width="4.3" height="13.4" fill="#93c5fd" stroke="#60a5fa" stroke-width="0.5"/><rect x="373.5" y="359.5" width="4.3" height="4.5" fill="#93c5fd" stroke="#60a5fa" stroke-width="0.5"/><rect x="377.8" y="350.6" width="4.3" height="13.4" fill="#93c5fd" stroke="#60a5fa" stroke-width="0.5"/><rect x="382.2" y="355.1" width="4.3" height="8.9" fill="#93c5fd" stroke="#60a5fa" stroke-width="0.5"/><rect x="386.5" y="350.6" width="4.3" height="13.4" fill="#93c5fd" stroke="#60a5fa" stroke-width="0.5"/><rect x="390.8" y="359.5" width="4.3" height="4.5" fill="#93c5fd" stroke="#60a5fa" stroke-width="0.5"/><rect x="395.1" y="319.4" width="4.3" height="44.6" fill="#93c5fd" stroke="#60a5fa" stroke-width="0.5"/><rect x="399.4" y="346.2" width="4.3" height="17.8" fill="#93c5fd" stroke="#60a5fa" stroke-width="0.5"/><rect x="403.7" y="346.2" width="4.3" height="17.8" fill="#93c5fd" stroke="#60a5fa" stroke-width="0.5"/><rect x="408.1" y="359.5" width="4.3" height="4.5" fill="#93c5fd" stroke="#60a5fa" stroke-width="0.5"/><rect x="412.4" y="359.5" width="4.3" height="4.5" fill="#93c5fd" stroke="#60a5fa" stroke-width="0.5"/><rect x="416.7" y="359.5" width="4.3" height="4.5" fill="#93c5fd" stroke="#60a5fa" stroke-width="0.5"/><rect x="421.0" y="355.1" width="4.3" height="8.9" fill="#93c5fd" stroke="#60a5fa" stroke-width="0.5"/><rect x="425.3" y="355.1" width="4.3" height="8.9" fill="#93c5fd" stroke="#60a5fa" stroke-width="0.5"/><rect x="429.6" y="350.6" width="4.3" height="13.4" fill="#93c5fd" stroke="#60a5fa" stroke-width="0.5"/><rect x="434.0" y="355.1" width="4.3" height="8.9" fill="#93c5fd" stroke="#60a5fa" stroke-width="0.5"/><rect x="438.3" y="350.6" width="4.3" height="13.4" fill="#93c5fd" stroke="#60a5fa" stroke-width="0.5"/><rect x="442.6" y="359.5" width="4.3" height="4.5" fill="#93c5fd" stroke="#60a5fa" stroke-width="0.5"/><rect x="446.9" y="355.1" width="4.3" height="8.9" fill="#93c5fd" stroke="#60a5fa" stroke-width="0.5"/><rect x="451.2" y="359.5" width="4.3" height="4.5" fill="#93c5fd" stroke="#60a5fa" stroke-width="0.5"/><rect x="455.5" y="337.3" width="4.3" height="26.7" fill="#93c5fd" stroke="#60a5fa" stroke-width="0.5"/><rect x="459.9" y="359.5" width="4.3" height="4.5" fill="#93c5fd" stroke="#60a5fa" stroke-width="0.5"/><rect x="464.2" y="359.5" width="4.3" height="4.5" fill="#93c5fd" stroke="#60a5fa" stroke-width="0.5"/><rect x="468.5" y="359.5" width="4.3" height="4.5" fill="#93c5fd" stroke="#60a5fa" stroke-width="0.5"/><rect x="472.8" y="359.5" width="4.3" height="4.5" fill="#93c5fd" stroke="#60a5fa" stroke-width="0.5"/><rect x="477.1" y="359.5" width="4.3" height="4.5" fill="#93c5fd" stroke="#60a5fa" stroke-width="0.5"/><rect x="481.4" y="337.3" width="4.3" height="26.7" fill="#93c5fd" stroke="#60a5fa" stroke-width="0.5"/><rect x="485.8" y="359.5" width="4.3" height="4.5" fill="#93c5fd" stroke="#60a5fa" stroke-width="0.5"/><rect x="490.1" y="346.2" width="4.3" height="17.8" fill="#93c5fd" stroke="#60a5fa" stroke-width="0.5"/><rect x="494.4" y="319.4" width="4.3" height="44.6" fill="#93c5fd" stroke="#60a5fa" stroke-width="0.5"/><rect x="498.7" y="328.3" width="4.3" height="35.7" fill="#93c5fd" stroke="#60a5fa" stroke-width="0.5"/><rect x="503.0" y="355.1" width="4.3" height="8.9" fill="#93c5fd" stroke="#60a5fa" stroke-width="0.5"/><rect x="507.3" y="355.1" width="4.3" height="8.9" fill="#93c5fd" stroke="#60a5fa" stroke-width="0.5"/><rect x="511.7" y="355.1" width="4.3" height="8.9" fill="#93c5fd" stroke="#60a5fa" stroke-width="0.5"/><rect x="516.0" y="355.1" width="4.3" height="8.9" fill="#93c5fd" stroke="#60a5fa" stroke-width="0.5"/><rect x="520.3" y="350.6" width="4.3" height="13.4" fill="#93c5fd" stroke="#60a5fa" stroke-width="0.5"/><rect x="524.6" y="341.7" width="4.3" height="22.3" fill="#93c5fd" stroke="#60a5fa" stroke-width="0.5"/><rect x="528.9" y="359.5" width="4.3" height="4.5" fill="#93c5fd" stroke="#60a5fa" stroke-width="0.5"/><rect x="533.2" y="323.9" width="4.3" height="40.1" fill="#93c5fd" stroke="#60a5fa" stroke-width="0.5"/><rect x="537.6" y="355.1" width="4.3" height="8.9" fill="#93c5fd" stroke="#60a5fa" stroke-width="0.5"/><rect x="541.9" y="346.2" width="4.3" height="17.8" fill="#93c5fd" stroke="#60a5fa" stroke-width="0.5"/><rect x="546.2" y="355.1" width="4.3" height="8.9" fill="#93c5fd" stroke="#60a5fa" stroke-width="0.5"/><rect x="550.5" y="359.5" width="4.3" height="4.5" fill="#93c5fd" stroke="#60a5fa" stroke-width="0.5"/><rect x="554.8" y="359.5" width="4.3" height="4.5" fill="#93c5fd" stroke="#60a5fa" stroke-width="0.5"/><rect x="559.1" y="355.1" width="4.3" height="8.9" fill="#93c5fd" stroke="#60a5fa" stroke-width="0.5"/><rect x="563.5" y="350.6" width="4.3" height="13.4" fill="#93c5fd" stroke="#60a5fa" stroke-width="0.5"/><rect x="567.8" y="355.1" width="4.3" height="8.9" fill="#93c5fd" stroke="#60a5fa" stroke-width="0.5"/><rect x="572.1" y="315.0" width="4.3" height="49.0" fill="#93c5fd" stroke="#60a5fa" stroke-width="0.5"/><rect x="576.4" y="319.4" width="4.3" height="44.6" fill="#93c5fd" stroke="#60a5fa" stroke-width="0.5"/><rect x="580.7" y="346.2" width="4.3" height="17.8" fill="#93c5fd" stroke="#60a5fa" stroke-width="0.5"/><rect x="585.0" y="359.5" width="4.3" height="4.5" fill="#93c5fd" stroke="#60a5fa" stroke-width="0.5"/><rect x="589.4" y="328.3" width="4.3" height="35.7" fill="#93c5fd" stroke="#60a5fa" stroke-width="0.5"/><rect x="593.7" y="328.3" width="4.3" height="35.7" fill="#93c5fd" stroke="#60a5fa" stroke-width="0.5"/><rect x="598.0" y="257.0" width="4.3" height="107.0" fill="#93c5fd" stroke="#60a5fa" stroke-width="0.5"/><rect x="602.3" y="355.1" width="4.3" height="8.9" fill="#93c5fd" stroke="#60a5fa" stroke-width="0.5"/><rect x="606.6" y="341.7" width="4.3" height="22.3" fill="#93c5fd" stroke="#60a5fa" stroke-width="0.5"/><rect x="610.9" y="350.6" width="4.3" height="13.4" fill="#93c5fd" stroke="#60a5fa" stroke-width="0.5"/><rect x="615.3" y="306.1" width="4.3" height="57.9" fill="#93c5fd" stroke="#60a5fa" stroke-width="0.5"/><rect x="619.6" y="337.3" width="4.3" height="26.7" fill="#93c5fd" stroke="#60a5fa" stroke-width="0.5"/><rect x="623.9" y="301.6" width="4.3" height="62.4" fill="#93c5fd" stroke="#60a5fa" stroke-width="0.5"/><rect x="628.2" y="319.4" width="4.3" height="44.6" fill="#93c5fd" stroke="#60a5fa" stroke-width="0.5"/><rect x="632.5" y="355.1" width="4.3" height="8.9" fill="#93c5fd" stroke="#60a5fa" stroke-width="0.5"/><rect x="636.8" y="359.5" width="4.3" height="4.5" fill="#93c5fd" stroke="#60a5fa" stroke-width="0.5"/><rect x="641.2" y="341.7" width="4.3" height="22.3" fill="#93c5fd" stroke="#60a5fa" stroke-width="0.5"/><rect x="645.5" y="306.1" width="4.3" height="57.9" fill="#93c5fd" stroke="#60a5fa" stroke-width="0.5"/><rect x="649.8" y="346.2" width="4.3" height="17.8" fill="#93c5fd" stroke="#60a5fa" stroke-width="0.5"/><rect x="654.1" y="257.0" width="4.3" height="107.0" fill="#93c5fd" stroke="#60a5fa" stroke-width="0.5"/><rect x="658.4" y="341.7" width="4.3" height="22.3" fill="#93c5fd" stroke="#60a5fa" stroke-width="0.5"/><rect x="662.7" y="52.0" width="4.3" height="312.0" fill="#93c5fd" stroke="#60a5fa" stroke-width="0.5"/><rect x="667.1" y="288.2" width="4.3" height="75.8" fill="#93c5fd" stroke="#60a5fa" stroke-width="0.5"/><rect x="671.4" y="350.6" width="4.3" height="13.4" fill="#93c5fd" stroke="#60a5fa" stroke-width="0.5"/><rect x="675.7" y="355.1" width="4.3" height="8.9" fill="#93c5fd" stroke="#60a5fa" stroke-width="0.5"/><rect x="680.0" y="181.3" width="4.3" height="182.7" fill="#93c5fd" stroke="#60a5fa" stroke-width="0.5"/><rect x="684.3" y="337.3" width="4.3" height="26.7" fill="#93c5fd" stroke="#60a5fa" stroke-width="0.5"/><rect x="688.6" y="350.6" width="4.3" height="13.4" fill="#93c5fd" stroke="#60a5fa" stroke-width="0.5"/><rect x="693.0" y="355.1" width="4.3" height="8.9" fill="#93c5fd" stroke="#60a5fa" stroke-width="0.5"/><rect x="697.3" y="346.2" width="4.3" height="17.8" fill="#93c5fd" stroke="#60a5fa" stroke-width="0.5"/><rect x="701.6" y="328.3" width="4.3" height="35.7" fill="#93c5fd" stroke="#60a5fa" stroke-width="0.5"/><rect x="705.9" y="359.5" width="4.3" height="4.5" fill="#93c5fd" stroke="#60a5fa" stroke-width="0.5"/><rect x="710.2" y="359.5" width="4.3" height="4.5" fill="#93c5fd" stroke="#60a5fa" stroke-width="0.5"/><rect x="714.5" y="346.2" width="4.3" height="17.8" fill="#93c5fd" stroke="#60a5fa" stroke-width="0.5"/><rect x="718.9" y="341.7" width="4.3" height="22.3" fill="#93c5fd" stroke="#60a5fa" stroke-width="0.5"/><rect x="723.2" y="337.3" width="4.3" height="26.7" fill="#93c5fd" stroke="#60a5fa" stroke-width="0.5"/><rect x="727.5" y="337.3" width="4.3" height="26.7" fill="#93c5fd" stroke="#60a5fa" stroke-width="0.5"/><rect x="731.8" y="359.5" width="4.3" height="4.5" fill="#93c5fd" stroke="#60a5fa" stroke-width="0.5"/><rect x="736.1" y="341.7" width="4.3" height="22.3" fill="#93c5fd" stroke="#60a5fa" stroke-width="0.5"/><rect x="740.4" y="332.8" width="4.3" height="31.2" fill="#93c5fd" stroke="#60a5fa" stroke-width="0.5"/><rect x="744.8" y="332.8" width="4.3" height="31.2" fill="#93c5fd" stroke="#60a5fa" stroke-width="0.5"/><rect x="749.1" y="328.3" width="4.3" height="35.7" fill="#93c5fd" stroke="#60a5fa" stroke-width="0.5"/><rect x="753.4" y="323.9" width="4.3" height="40.1" fill="#93c5fd" stroke="#60a5fa" stroke-width="0.5"/><rect x="757.7" y="332.8" width="4.3" height="31.2" fill="#93c5fd" stroke="#60a5fa" stroke-width="0.5"/><rect x="762.0" y="346.2" width="4.3" height="17.8" fill="#93c5fd" stroke="#60a5fa" stroke-width="0.5"/><rect x="766.3" y="350.6" width="4.3" height="13.4" fill="#93c5fd" stroke="#60a5fa" stroke-width="0.5"/><rect x="770.7" y="350.6" width="4.3" height="13.4" fill="#93c5fd" stroke="#60a5fa" stroke-width="0.5"/><rect x="775.0" y="332.8" width="4.3" height="31.2" fill="#93c5fd" stroke="#60a5fa" stroke-width="0.5"/><rect x="779.3" y="359.5" width="4.3" height="4.5" fill="#93c5fd" stroke="#60a5fa" stroke-width="0.5"/><rect x="783.6" y="350.6" width="4.3" height="13.4" fill="#93c5fd" stroke="#60a5fa" stroke-width="0.5"/><rect x="787.9" y="355.1" width="4.3" height="8.9" fill="#93c5fd" stroke="#60a5fa" stroke-width="0.5"/><rect x="792.2" y="355.1" width="4.3" height="8.9" fill="#93c5fd" stroke="#60a5fa" stroke-width="0.5"/><rect x="796.6" y="355.1" width="4.3" height="8.9" fill="#93c5fd" stroke="#60a5fa" stroke-width="0.5"/><rect x="800.9" y="355.1" width="4.3" height="8.9" fill="#93c5fd" stroke="#60a5fa" stroke-width="0.5"/><rect x="805.2" y="359.5" width="4.3" height="4.5" fill="#93c5fd" stroke="#60a5fa" stroke-width="0.5"/><rect x="809.5" y="359.5" width="4.3" height="4.5" fill="#93c5fd" stroke="#60a5fa" stroke-width="0.5"/><rect x="813.8" y="337.3" width="4.3" height="26.7" fill="#93c5fd" stroke="#60a5fa" stroke-width="0.5"/><rect x="818.1" y="355.1" width="4.3" height="8.9" fill="#93c5fd" stroke="#60a5fa" stroke-width="0.5"/><rect x="822.5" y="328.3" width="4.3" height="35.7" fill="#93c5fd" stroke="#60a5fa" stroke-width="0.5"/><rect x="826.8" y="350.6" width="4.3" height="13.4" fill="#93c5fd" stroke="#60a5fa" stroke-width="0.5"/><rect x="831.1" y="328.3" width="4.3" height="35.7" fill="#93c5fd" stroke="#60a5fa" stroke-width="0.5"/><rect x="835.4" y="332.8" width="4.3" height="31.2" fill="#93c5fd" stroke="#60a5fa" stroke-width="0.5"/><rect x="839.7" y="328.3" width="4.3" height="35.7" fill="#93c5fd" stroke="#60a5fa" stroke-width="0.5"/><rect x="844.0" y="341.7" width="4.3" height="22.3" fill="#93c5fd" stroke="#60a5fa" stroke-width="0.5"/><rect x="848.4" y="355.1" width="4.3" height="8.9" fill="#93c5fd" stroke="#60a5fa" stroke-width="0.5"/><rect x="852.7" y="355.1" width="4.3" height="8.9" fill="#93c5fd" stroke="#60a5fa" stroke-width="0.5"/><rect x="857.0" y="319.4" width="4.3" height="44.6" fill="#93c5fd" stroke="#60a5fa" stroke-width="0.5"/><rect x="861.3" y="315.0" width="4.3" height="49.0" fill="#93c5fd" stroke="#60a5fa" stroke-width="0.5"/><rect x="865.6" y="328.3" width="4.3" height="35.7" fill="#93c5fd" stroke="#60a5fa" stroke-width="0.5"/><rect x="869.9" y="323.9" width="4.3" height="40.1" fill="#93c5fd" stroke="#60a5fa" stroke-width="0.5"/><rect x="874.3" y="341.7" width="4.3" height="22.3" fill="#93c5fd" stroke="#60a5fa" stroke-width="0.5"/><rect x="878.6" y="359.5" width="4.3" height="4.5" fill="#93c5fd" stroke="#60a5fa" stroke-width="0.5"/><rect x="882.9" y="350.6" width="4.3" height="13.4" fill="#93c5fd" stroke="#60a5fa" stroke-width="0.5"/><rect x="887.2" y="359.5" width="4.3" height="4.5" fill="#93c5fd" stroke="#60a5fa" stroke-width="0.5"/><rect x="891.5" y="346.2" width="4.3" height="17.8" fill="#93c5fd" stroke="#60a5fa" stroke-width="0.5"/><rect x="895.8" y="346.2" width="4.3" height="17.8" fill="#93c5fd" stroke="#60a5fa" stroke-width="0.5"/><rect x="900.2" y="341.7" width="4.3" height="22.3" fill="#93c5fd" stroke="#60a5fa" stroke-width="0.5"/><rect x="904.5" y="359.5" width="4.3" height="4.5" fill="#93c5fd" stroke="#60a5fa" stroke-width="0.5"/><rect x="908.8" y="359.5" width="4.3" height="4.5" fill="#93c5fd" stroke="#60a5fa" stroke-width="0.5"/><rect x="913.1" y="315.0" width="4.3" height="49.0" fill="#93c5fd" stroke="#60a5fa" stroke-width="0.5"/><rect x="917.4" y="230.3" width="4.3" height="133.7" fill="#93c5fd" stroke="#60a5fa" stroke-width="0.5"/><rect x="921.7" y="297.1" width="4.3" height="66.9" fill="#93c5fd" stroke="#60a5fa" stroke-width="0.5"/><rect x="926.1" y="359.5" width="4.3" height="4.5" fill="#93c5fd" stroke="#60a5fa" stroke-width="0.5"/><rect x="930.4" y="319.4" width="4.3" height="44.6" fill="#93c5fd" stroke="#60a5fa" stroke-width="0.5"/><rect x="934.7" y="355.1" width="4.3" height="8.9" fill="#93c5fd" stroke="#60a5fa" stroke-width="0.5"/><rect x="939.0" y="341.7" width="4.3" height="22.3" fill="#93c5fd" stroke="#60a5fa" stroke-width="0.5"/><rect x="943.3" y="315.0" width="4.3" height="49.0" fill="#93c5fd" stroke="#60a5fa" stroke-width="0.5"/><rect x="947.6" y="350.6" width="4.3" height="13.4" fill="#93c5fd" stroke="#60a5fa" stroke-width="0.5"/><rect x="952.0" y="279.3" width="4.3" height="84.7" fill="#93c5fd" stroke="#60a5fa" stroke-width="0.5"/><rect x="956.3" y="132.2" width="4.3" height="231.8" fill="#93c5fd" stroke="#60a5fa" stroke-width="0.5"/><rect x="960.6" y="359.5" width="4.3" height="4.5" fill="#93c5fd" stroke="#60a5fa" stroke-width="0.5"/><rect x="964.9" y="212.5" width="4.3" height="151.5" fill="#93c5fd" stroke="#60a5fa" stroke-width="0.5"/><rect x="969.2" y="355.1" width="4.3" height="8.9" fill="#93c5fd" stroke="#60a5fa" stroke-width="0.5"/><rect x="973.5" y="252.6" width="4.3" height="111.4" fill="#93c5fd" stroke="#60a5fa" stroke-width="0.5"/><rect x="977.9" y="359.5" width="4.3" height="4.5" fill="#93c5fd" stroke="#60a5fa" stroke-width="0.5"/><rect x="982.2" y="337.3" width="4.3" height="26.7" fill="#93c5fd" stroke="#60a5fa" stroke-width="0.5"/><rect x="986.5" y="355.1" width="4.3" height="8.9" fill="#93c5fd" stroke="#60a5fa" stroke-width="0.5"/><rect x="990.8" y="306.1" width="4.3" height="57.9" fill="#93c5fd" stroke="#60a5fa" stroke-width="0.5"/><rect x="995.1" y="332.8" width="4.3" height="31.2" fill="#93c5fd" stroke="#60a5fa" stroke-width="0.5"/><rect x="999.4" y="355.1" width="4.3" height="8.9" fill="#93c5fd" stroke="#60a5fa" stroke-width="0.5"/><rect x="1003.8" y="252.6" width="4.3" height="111.4" fill="#93c5fd" stroke="#60a5fa" stroke-width="0.5"/><rect x="1008.1" y="346.2" width="4.3" height="17.8" fill="#93c5fd" stroke="#60a5fa" stroke-width="0.5"/><rect x="1012.4" y="328.3" width="4.3" height="35.7" fill="#93c5fd" stroke="#60a5fa" stroke-width="0.5"/><rect x="1016.7" y="350.6" width="4.3" height="13.4" fill="#93c5fd" stroke="#60a5fa" stroke-width="0.5"/><rect x="1021.0" y="319.4" width="4.3" height="44.6" fill="#93c5fd" stroke="#60a5fa" stroke-width="0.5"/><rect x="1025.3" y="359.5" width="4.3" height="4.5" fill="#93c5fd" stroke="#60a5fa" stroke-width="0.5"/><rect x="1029.7" y="292.7" width="4.3" height="71.3" fill="#93c5fd" stroke="#60a5fa" stroke-width="0.5"/><rect x="1034.0" y="323.9" width="4.3" height="40.1" fill="#93c5fd" stroke="#60a5fa" stroke-width="0.5"/><rect x="1038.3" y="350.6" width="4.3" height="13.4" fill="#93c5fd" stroke="#60a5fa" stroke-width="0.5"/><rect x="1042.6" y="301.6" width="4.3" height="62.4" fill="#93c5fd" stroke="#60a5fa" stroke-width="0.5"/><rect x="1046.9" y="355.1" width="4.3" height="8.9" fill="#93c5fd" stroke="#60a5fa" stroke-width="0.5"/><rect x="1051.2" y="359.5" width="4.3" height="4.5" fill="#93c5fd" stroke="#60a5fa" stroke-width="0.5"/><rect x="1055.6" y="355.1" width="4.3" height="8.9" fill="#93c5fd" stroke="#60a5fa" stroke-width="0.5"/><rect x="1059.9" y="350.6" width="4.3" height="13.4" fill="#93c5fd" stroke="#60a5fa" stroke-width="0.5"/><rect x="1064.2" y="310.5" width="4.3" height="53.5" fill="#93c5fd" stroke="#60a5fa" stroke-width="0.5"/><rect x="1068.5" y="341.7" width="4.3" height="22.3" fill="#93c5fd" stroke="#60a5fa" stroke-width="0.5"/><rect x="1072.8" y="355.1" width="4.3" height="8.9" fill="#93c5fd" stroke="#60a5fa" stroke-width="0.5"/><rect x="1077.1" y="359.5" width="4.3" height="4.5" fill="#93c5fd" stroke="#60a5fa" stroke-width="0.5"/><rect x="1081.5" y="350.6" width="4.3" height="13.4" fill="#93c5fd" stroke="#60a5fa" stroke-width="0.5"/><rect x="1085.8" y="355.1" width="4.3" height="8.9" fill="#93c5fd" stroke="#60a5fa" stroke-width="0.5"/><rect x="1090.1" y="265.9" width="4.3" height="98.1" fill="#93c5fd" stroke="#60a5fa" stroke-width="0.5"/><rect x="1094.4" y="323.9" width="4.3" height="40.1" fill="#93c5fd" stroke="#60a5fa" stroke-width="0.5"/><rect x="1098.7" y="332.8" width="4.3" height="31.2" fill="#93c5fd" stroke="#60a5fa" stroke-width="0.5"/><rect x="1103.0" y="359.5" width="4.3" height="4.5" fill="#93c5fd" stroke="#60a5fa" stroke-width="0.5"/><rect x="1107.4" y="328.3" width="4.3" height="35.7" fill="#93c5fd" stroke="#60a5fa" stroke-width="0.5"/><rect x="1111.7" y="350.6" width="4.3" height="13.4" fill="#93c5fd" stroke="#60a5fa" stroke-width="0.5"/><rect x="1116.0" y="301.6" width="4.3" height="62.4" fill="#93c5fd" stroke="#60a5fa" stroke-width="0.5"/><rect x="1120.3" y="212.5" width="4.3" height="151.5" fill="#93c5fd" stroke="#60a5fa" stroke-width="0.5"/><rect x="1124.6" y="346.2" width="4.3" height="17.8" fill="#93c5fd" stroke="#60a5fa" stroke-width="0.5"/><rect x="1128.9" y="279.3" width="4.3" height="84.7" fill="#93c5fd" stroke="#60a5fa" stroke-width="0.5"/><rect x="1133.3" y="359.5" width="4.3" height="4.5" fill="#93c5fd" stroke="#60a5fa" stroke-width="0.5"/><rect x="1137.6" y="190.2" width="4.3" height="173.8" fill="#93c5fd" stroke="#60a5fa" stroke-width="0.5"/><rect x="1141.9" y="310.5" width="4.3" height="53.5" fill="#93c5fd" stroke="#60a5fa" stroke-width="0.5"/><rect x="1146.2" y="306.1" width="4.3" height="57.9" fill="#93c5fd" stroke="#60a5fa" stroke-width="0.5"/><rect x="1150.5" y="355.1" width="4.3" height="8.9" fill="#93c5fd" stroke="#60a5fa" stroke-width="0.5"/><rect x="1154.8" y="323.9" width="4.3" height="40.1" fill="#93c5fd" stroke="#60a5fa" stroke-width="0.5"/><rect x="1159.2" y="346.2" width="4.3" height="17.8" fill="#93c5fd" stroke="#60a5fa" stroke-width="0.5"/><rect x="1163.5" y="328.3" width="4.3" height="35.7" fill="#93c5fd" stroke="#60a5fa" stroke-width="0.5"/><rect x="1167.8" y="350.6" width="4.3" height="13.4" fill="#93c5fd" stroke="#60a5fa" stroke-width="0.5"/><rect x="1172.1" y="359.5" width="4.3" height="4.5" fill="#93c5fd" stroke="#60a5fa" stroke-width="0.5"/><rect x="1176.4" y="346.2" width="4.3" height="17.8" fill="#93c5fd" stroke="#60a5fa" stroke-width="0.5"/><rect x="1180.7" y="359.5" width="4.3" height="4.5" fill="#93c5fd" stroke="#60a5fa" stroke-width="0.5"/><rect x="1185.1" y="359.5" width="4.3" height="4.5" fill="#93c5fd" stroke="#60a5fa" stroke-width="0.5"/><rect x="1189.4" y="315.0" width="4.3" height="49.0" fill="#93c5fd" stroke="#60a5fa" stroke-width="0.5"/><rect x="1193.7" y="355.1" width="4.3" height="8.9" fill="#93c5fd" stroke="#60a5fa" stroke-width="0.5"/><polyline fill="none" stroke="#ef4444" stroke-width="2" points="82.2,363.1 86.5,362.9 90.8,362.7 95.1,362.3 99.4,362.0 103.7,361.4 108.1,361.2 112.4,360.9 116.7,360.7 121.0,360.5 125.3,360.3 129.6,360.1 134.0,359.9 138.3,359.4 142.6,358.5 146.9,358.3 151.2,358.1 155.5,357.5 159.9,356.4 164.2,353.5 168.5,353.1 172.8,352.4 177.1,352.2 181.4,351.6 185.8,351.4 190.1,350.3 194.4,350.0 198.7,349.8 203.0,349.6 207.3,349.4 211.7,349.2 216.0,349.0 220.3,348.7 224.6,348.5 228.9,348.3 233.2,348.1 237.6,347.9 241.9,347.6 246.2,347.4 250.5,347.2 254.8,346.6 259.1,346.3 263.5,346.1 267.8,343.7 272.1,343.5 276.4,342.2 280.7,340.5 285.0,340.2 289.4,339.8 293.7,339.1 298.0,338.7 302.3,338.3 306.6,337.6 310.9,337.4 315.3,337.2 319.6,337.0 323.9,336.7 328.2,336.1 332.5,335.9 336.8,334.1 341.2,333.9 345.5,333.7 349.8,333.5 354.1,332.8 358.4,332.6 362.7,332.4 367.1,331.9 371.4,331.3 375.7,331.1 380.0,330.4 384.3,330.0 388.6,329.3 393.0,329.1 397.3,326.9 401.6,326.1 405.9,325.2 410.2,325.0 414.5,324.8 418.9,324.5 423.2,324.1 427.5,323.7 431.8,323.0 436.1,322.6 440.4,321.9 444.8,321.7 449.1,321.3 453.4,321.0 457.7,319.7 462.0,319.5 466.3,319.3 470.7,319.1 475.0,318.9 479.3,318.6 483.6,317.3 487.9,317.1 492.2,316.3 496.6,314.1 500.9,312.3 505.2,311.9 509.5,311.5 513.8,311.0 518.1,310.6 522.5,309.9 526.8,308.8 531.1,308.6 535.4,306.7 539.7,306.2 544.0,305.4 548.4,304.9 552.7,304.7 557.0,304.5 561.3,304.0 565.6,303.4 569.9,303.0 574.3,300.6 578.6,298.4 582.9,297.5 587.2,297.3 591.5,295.5 595.8,293.8 600.2,288.6 604.5,288.1 608.8,287.0 613.1,286.4 617.4,283.5 621.7,282.2 626.1,279.2 630.4,277.0 634.7,276.6 639.0,276.4 643.3,275.3 647.6,272.4 651.9,271.6 656.3,266.3 660.6,265.2 664.9,250.0 669.2,246.3 673.5,245.6 677.8,245.2 682.2,236.2 686.5,234.9 690.8,234.3 695.1,233.8 699.4,233.0 703.7,231.2 708.1,231.0 712.4,230.8 716.7,229.9 721.0,228.8 725.3,227.5 729.6,226.2 734.0,226.0 738.3,224.9 742.6,223.4 746.9,221.8 751.2,220.1 755.5,218.1 759.9,216.6 764.2,215.7 768.5,215.1 772.8,214.4 777.1,212.9 781.4,212.7 785.8,212.0 790.1,211.6 794.4,211.2 798.7,210.7 803.0,210.3 807.3,210.1 811.7,209.9 816.0,208.5 820.3,208.1 824.6,206.4 828.9,205.7 833.2,204.0 837.6,202.4 841.9,200.7 846.2,199.6 850.5,199.2 854.8,198.7 859.1,196.6 863.5,194.2 867.8,192.4 872.1,190.4 876.4,189.4 880.7,189.1 885.0,188.5 889.4,188.3 893.7,187.4 898.0,186.5 902.3,185.4 906.6,185.2 910.9,185.0 915.3,182.6 919.6,176.1 923.9,172.8 928.2,172.6 932.5,170.4 936.8,170.0 941.2,168.9 945.5,166.5 949.8,165.8 954.1,161.7 958.4,150.3 962.7,150.1 967.1,142.7 971.4,142.3 975.7,136.8 980.0,136.6 984.3,135.3 988.6,134.9 993.0,132.0 997.3,130.5 1001.6,130.1 1005.9,124.6 1010.2,123.7 1014.5,122.0 1018.9,121.3 1023.2,119.2 1027.5,118.9 1031.8,115.4 1036.1,113.5 1040.4,112.8 1044.8,109.8 1049.1,109.3 1053.4,109.1 1057.7,108.7 1062.0,108.0 1066.3,105.4 1070.7,104.3 1075.0,103.9 1079.3,103.7 1083.6,103.0 1087.9,102.6 1092.2,97.8 1096.6,95.8 1100.9,94.3 1105.2,94.1 1109.5,92.3 1113.8,91.7 1118.1,88.6 1122.5,81.2 1126.8,80.3 1131.1,76.2 1135.4,76.0 1139.7,67.5 1144.0,64.9 1148.4,62.0 1152.7,61.6 1157.0,59.6 1161.3,58.8 1165.6,57.0 1169.9,56.4 1174.3,56.1 1178.6,55.3 1182.9,55.1 1187.2,54.8 1191.5,52.4 1195.8,52.0"/><line x1="82.2" y1="364.0" x2="82.2" y2="370.0" stroke="#111827" stroke-width="1"/><text x="84.2" y="386.0" font-size="11" text-anchor="end" transform="rotate(-35 84.2 386.0)" font-family="sans-serif" fill="#374151">2022-10-13</text><line x1="241.9" y1="364.0" x2="241.9" y2="370.0" stroke="#111827" stroke-width="1"/><text x="243.9" y="386.0" font-size="11" text-anchor="end" transform="rotate(-35 243.9 386.0)" font-family="sans-serif" fill="#374151">2025-03-27</text><line x1="401.6" y1="364.0" x2="401.6" y2="370.0" stroke="#111827" stroke-width="1"/><text x="403.6" y="386.0" font-size="11" text-anchor="end" transform="rotate(-35 403.6 386.0)" font-family="sans-serif" fill="#374151">2025-07-24</text><line x1="561.3" y1="364.0" x2="561.3" y2="370.0" stroke="#111827" stroke-width="1"/><text x="563.3" y="386.0" font-size="11" text-anchor="end" transform="rotate(-35 563.3 386.0)" font-family="sans-serif" fill="#374151">2025-09-29</text><line x1="716.7" y1="364.0" x2="716.7" y2="370.0" stroke="#111827" stroke-width="1"/><text x="718.7" y="386.0" font-size="11" text-anchor="end" transform="rotate(-35 718.7 386.0)" font-family="sans-serif" fill="#374151">2025-11-21</text><line x1="876.4" y1="364.0" x2="876.4" y2="370.0" stroke="#111827" stroke-width="1"/><text x="878.4" y="386.0" font-size="11" text-anchor="end" transform="rotate(-35 878.4 386.0)" font-family="sans-serif" fill="#374151">2026-01-10</text><line x1="1036.1" y1="364.0" x2="1036.1" y2="370.0" stroke="#111827" stroke-width="1"/><text x="1038.1" y="386.0" font-size="11" text-anchor="end" transform="rotate(-35 1038.1 386.0)" font-family="sans-serif" fill="#374151">2026-02-23</text><line x1="1195.8" y1="364.0" x2="1195.8" y2="370.0" stroke="#111827" stroke-width="1"/><text x="1197.8" y="386.0" font-size="11" text-anchor="end" transform="rotate(-35 1197.8 386.0)" font-family="sans-serif" fill="#374151">2026-04-15</text><text x="26" y="208.0" font-size="12" transform="rotate(-90 26 208.0)" text-anchor="middle" font-family="sans-serif" fill="#1f2937">구간별 수</text><text x="1256.0" y="208.0" font-size="12" transform="rotate(90 1256.0 208.0)" text-anchor="middle" font-family="sans-serif" fill="#1f2937">누적</text><text x="639.0" y="442.0" font-size="13" text-anchor="middle" font-family="sans-serif" fill="#111827">일</text></svg>