<svg xmlns="http://www.w3.org/2000/svg" width="1280" height="460" viewBox="0 0 1280 460"><rect x="0" y="0" width="100%" height="100%" fill="#ffffff"/><text x="640.0" y="28" font-size="20" text-anchor="middle" font-family="sans-serif" fill="#111827">시리즈 / 생성 시점 / 일별</text><line x1="80.0" y1="52.0" x2="1198.0" y2="52.0" stroke="#e5e7eb" stroke-width="1"/><text x="72.0" y="56.0" font-size="11" text-anchor="end" font-family="sans-serif" fill="#374151">70</text><text x="1206.0" y="56.0" font-size="11" text-anchor="start" font-family="sans-serif" fill="#374151">1,435</text><line x1="80.0" y1="114.4" x2="1198.0" y2="114.4" stroke="#e5e7eb" stroke-width="1"/><text x="72.0" y="118.4" font-size="11" text-anchor="end" font-family="sans-serif" fill="#374151">56</text><text x="1206.0" y="118.4" font-size="11" text-anchor="start" font-family="sans-serif" fill="#374151">1,148</text><line x1="80.0" y1="176.8" x2="1198.0" y2="176.8" stroke="#e5e7eb" stroke-width="1"/><text x="72.0" y="180.8" font-size="11" text-anchor="end" font-family="sans-serif" fill="#374151">42</text><text x="1206.0" y="180.8" font-size="11" text-anchor="start" font-family="sans-serif" fill="#374151">861</text><line x1="80.0" y1="239.2" x2="1198.0" y2="239.2" stroke="#e5e7eb" stroke-width="1"/><text x="72.0" y="243.2" font-size="11" text-anchor="end" font-family="sans-serif" fill="#374151">28</text><text x="1206.0" y="243.2" font-size="11" text-anchor="start" font-family="sans-serif" fill="#374151">574</text><line x1="80.0" y1="301.6" x2="1198.0" y2="301.6" stroke="#e5e7eb" stroke-width="1"/><text x="72.0" y="305.6" font-size="11" text-anchor="end" font-family="sans-serif" fill="#374151">14</text><text x="1206.0" y="305.6" font-size="11" text-anchor="start" font-family="sans-serif" fill="#374151">287</text><line x1="80.0" y1="364.0" x2="1198.0" y2="364.0" stroke="#e5e7eb" stroke-width="1"/><text x="72.0" y="368.0" font-size="11" text-anchor="end" font-family="sans-serif" fill="#374151">0</text><text x="1206.0" y="368.0" font-size="11" text-anchor="start" font-family="sans-serif" fill="#374151">0</text><line x1="80.0" y1="364.0" x2="1198.0" y2="364.0" stroke="#111827" stroke-width="1.2"/><line x1="80.0" y1="52.0" x2="80.0" y2="364.0" stroke="#111827" stroke-width="1.2"/><line x1="1198.0" y1="52.0" x2="1198.0" y2="364.0" stroke="#111827" stroke-width="1.2"/><rect x="80.0" y="346.2" width="4.3" height="17.8" fill="#93c5fd" stroke="#60a5fa" stroke-width="0.5"/><rect x="84.3" y="359.5" width="4.3" height="4.5" fill="#93c5fd" stroke="#60a5fa" stroke-width="0.5"/><rect x="88.6" y="359.5" width="4.3" height="4.5" fill="#93c5fd" stroke="#60a5fa" stroke-width="0.5"/><rect x="92.9" y="355.1" width="4.3" height="8.9" fill="#93c5fd" stroke="#60a5fa" stroke-width="0.5"/><rect x="97.1" y="359.5" width="4.3" height="4.5" fill="#93c5fd" stroke="#60a5fa" stroke-width="0.5"/><rect x="101.4" y="350.6" width="4.3" height="13.4" fill="#93c5fd" stroke="#60a5fa" stroke-width="0.5"/><rect x="105.7" y="359.5" width="4.3" height="4.5" fill="#93c5fd" stroke="#60a5fa" stroke-width="0.5"/><rect x="110.0" y="359.5" width="4.3" height="4.5" fill="#93c5fd" stroke="#60a5fa" stroke-width="0.5"/><rect x="114.3" y="359.5" width="4.3" height="4.5" fill="#93c5fd" stroke="#60a5fa" stroke-width="0.5"/><rect x="118.6" y="359.5" width="4.3" height="4.5" fill="#93c5fd" stroke="#60a5fa" stroke-width="0.5"/><rect x="122.8" y="359.5" width="4.3" height="4.5" fill="#93c5fd" stroke="#60a5fa" stroke-width="0.5"/><rect x="127.1" y="359.5" width="4.3" height="4.5" fill="#93c5fd" stroke="#60a5fa" stroke-width="0.5"/><rect x="131.4" y="359.5" width="4.3" height="4.5" fill="#93c5fd" stroke="#60a5fa" stroke-width="0.5"/><rect x="135.7" y="355.1" width="4.3" height="8.9" fill="#93c5fd" stroke="#60a5fa" stroke-width="0.5"/><rect x="140.0" y="346.2" width="4.3" height="17.8" fill="#93c5fd" stroke="#60a5fa" stroke-width="0.5"/><rect x="144.3" y="359.5" width="4.3" height="4.5" fill="#93c5fd" stroke="#60a5fa" stroke-width="0.5"/><rect x="148.5" y="359.5" width="4.3" height="4.5" fill="#93c5fd" stroke="#60a5fa" stroke-width="0.5"/><rect x="152.8" y="350.6" width="4.3" height="13.4" fill="#93c5fd" stroke="#60a5fa" stroke-width="0.5"/><rect x="157.1" y="341.7" width="4.3" height="22.3" fill="#93c5fd" stroke="#60a5fa" stroke-width="0.5"/><rect x="161.4" y="306.1" width="4.3" height="57.9" fill="#93c5fd" stroke="#60a5fa" stroke-width="0.5"/><rect x="165.7" y="355.1" width="4.3" height="8.9" fill="#93c5fd" stroke="#60a5fa" stroke-width="0.5"/><rect x="170.0" y="350.6" width="4.3" height="13.4" fill="#93c5fd" stroke="#60a5fa" stroke-width="0.5"/><rect x="174.2" y="359.5" width="4.3" height="4.5" fill="#93c5fd" stroke="#60a5fa" stroke-width="0.5"/><rect x="178.5" y="350.6" width="4.3" height="13.4" fill="#93c5fd" stroke="#60a5fa" stroke-width="0.5"/><rect x="182.8" y="359.5" width="4.3" height="4.5" fill="#93c5fd" stroke="#60a5fa" stroke-width="0.5"/><rect x="187.1" y="341.7" width="4.3" height="22.3" fill="#93c5fd" stroke="#60a5fa" stroke-width="0.5"/><rect x="191.4" y="359.5" width="4.3" height="4.5" fill="#93c5fd" stroke="#60a5fa" stroke-width="0.5"/><rect x="195.7" y="359.5" width="4.3" height="4.5" fill="#93c5fd" stroke="#60a5fa" stroke-width="0.5"/><rect x="199.9" y="359.5" width="4.3" height="4.5" fill="#93c5fd" stroke="#60a5fa" stroke-width="0.5"/><rect x="204.2" y="359.5" width="4.3" height="4.5" fill="#93c5fd" stroke="#60a5fa" stroke-width="0.5"/><rect x="208.5" y="359.5" width="4.3" height="4.5" fill="#93c5fd" stroke="#60a5fa" stroke-width="0.5"/><rect x="212.8" y="359.5" width="4.3" height="4.5" fill="#93c5fd" stroke="#60a5fa" stroke-width="0.5"/><rect x="217.1" y="359.5" width="4.3" height="4.5" fill="#93c5fd" stroke="#60a5fa" stroke-width="0.5"/><rect x="221.4" y="359.5" width="4.3" height="4.5" fill="#93c5fd" stroke="#60a5fa" stroke-width="0.5"/><rect x="225.6" y="359.5" width="4.3" height="4.5" fill="#93c5fd" stroke="#60a5fa" stroke-width="0.5"/><rect x="229.9" y="359.5" width="4.3" height="4.5" fill="#93c5fd" stroke="#60a5fa" stroke-width="0.5"/><rect x="234.2" y="359.5" width="4.3" height="4.5" fill="#93c5fd" stroke="#60a5fa" stroke-width="0.5"/><rect x="238.5" y="359.5" width="4.3" height="4.5" fill="#93c5fd" stroke="#60a5fa" stroke-width="0.5"/><rect x="242.8" y="359.5" width="4.3" height="4.5" fill="#93c5fd" stroke="#60a5fa" stroke-width="0.5"/><rect x="247.1" y="359.5" width="4.3" height="4.5" fill="#93c5fd" stroke="#60a5fa" stroke-width="0.5"/><rect x="251.3" y="350.6" width="4.3" height="13.4" fill="#93c5fd" stroke="#60a5fa" stroke-width="0.5"/><rect x="255.6" y="359.5" width="4.3" height="4.5" fill="#93c5fd" stroke="#60a5fa" stroke-width="0.5"/><rect x="259.9" y="359.5" width="4.3" height="4.5" fill="#93c5fd" stroke="#60a5fa" stroke-width="0.5"/><rect x="264.2" y="315.0" width="4.3" height="49.0" fill="#93c5fd" stroke="#60a5fa" stroke-width="0.5"/><rect x="268.5" y="359.5" width="4.3" height="4.5" fill="#93c5fd" stroke="#60a5fa" stroke-width="0.5"/><rect x="272.8" y="337.3" width="4.3" height="26.7" fill="#93c5fd" stroke="#60a5fa" stroke-width="0.5"/><rect x="277.0" y="328.3" width="4.3" height="35.7" fill="#93c5fd" stroke="#60a5fa" stroke-width="0.5"/><rect x="281.3" y="359.5" width="4.3" height="4.5" fill="#93c5fd" stroke="#60a5fa" stroke-width="0.5"/><rect x="285.6" y="355.1" width="4.3" height="8.9" fill="#93c5fd" stroke="#60a5fa" stroke-width="0.5"/><rect x="289.9" y="350.6" width="4.3" height="13.4" fill="#93c5fd" stroke="#60a5fa" stroke-width="0.5"/><rect x="294.2" y="355.1" width="4.3" height="8.9" fill="#93c5fd" stroke="#60a5fa" stroke-width="0.5"/><rect x="298.5" y="355.1" width="4.3" height="8.9" fill="#93c5fd" stroke="#60a5fa" stroke-width="0.5"/><rect x="302.7" y="350.6" width="4.3" height="13.4" fill="#93c5fd" stroke="#60a5fa" stroke-width="0.5"/><rect x="307.0" y="359.5" width="4.3" height="4.5" fill="#93c5fd" stroke="#60a5fa" stroke-width="0.5"/><rect x="311.3" y="359.5" width="4.3" height="4.5" fill="#93c5fd" stroke="#60a5fa" stroke-width="0.5"/><rect x="315.6" y="359.5" width="4.3" height="4.5" fill="#93c5fd" stroke="#60a5fa" stroke-width="0.5"/><rect x="319.9" y="359.5" width="4.3" height="4.5" fill="#93c5fd" stroke="#60a5fa" stroke-width="0.5"/><rect x="324.2" y="350.6" width="4.3" height="13.4" fill="#93c5fd" stroke="#60a5fa" stroke-width="0.5"/><rect x="328.4" y="359.5" width="4.3" height="4.5" fill="#93c5fd" stroke="#60a5fa" stroke-width="0.5"/><rect x="332.7" y="328.3" width="4.3" height="35.7" fill="#93c5fd" stroke="#60a5fa" stroke-width="0.5"/><rect x="337.0" y="359.5" width="4.3" height="4.5" fill="#93c5fd" stroke="#60a5fa" stroke-width="0.5"/><rect x="341.3" y="359.5" width="4.3" height="4.5" fill="#93c5fd" stroke="#60a5fa" stroke-width="0.5"/><rect x="345.6" y="359.5" width="4.3" height="4.5" fill="#93c5fd" stroke="#60a5fa" stroke-width="0.5"/><rect x="349.9" y="350.6" width="4.3" height="13.4" fill="#93c5fd" stroke="#60a5fa" stroke-width="0.5"/><rect x="354.1" y="359.5" width="4.3" height="4.5" fill="#93c5fd" stroke="#60a5fa" stroke-width="0.5"/><rect x="358.4" y="359.5" width="4.3" height="4.5" fill="#93c5fd" stroke="#60a5fa" stroke-width="0.5"/><rect x="362.7" y="355.1" width="4.3" height="8.9" fill="#93c5fd" stroke="#60a5fa" stroke-width="0.5"/><rect x="367.0" y="350.6" width="4.3" height="13.4" fill="#93c5fd" stroke="#60a5fa" stroke-width="0.5"/><rect x="371.3" y="359.5" width="4.3" height="4.5" fill="#93c5fd" stroke="#60a5fa" stroke-width="0.5"/><rect x="375.6" y="350.6" width="4.3" height="13.4" fill="#93c5fd" stroke="#60a5fa" stroke-width="0.5"/><rect x="379.8" y="355.1" width="4.3" height="8.9" fill="#93c5fd" stroke="#60a5fa" stroke-width="0.5"/><rect x="384.1" y="350.6" width="4.3" height="13.4" fill="#93c5fd" stroke="#60a5fa" stroke-width="0.5"/><rect x="388.4" y="359.5" width="4.3" height="4.5" fill="#93c5fd" stroke="#60a5fa" stroke-width="0.5"/><rect x="392.7" y="319.4" width="4.3" height="44.6" fill="#93c5fd" stroke="#60a5fa" stroke-width="0.5"/><rect x="397.0" y="346.2" width="4.3" height="17.8" fill="#93c5fd" stroke="#60a5fa" stroke-width="0.5"/><rect x="401.3" y="346.2" width="4.3" height="17.8" fill="#93c5fd" stroke="#60a5fa" stroke-width="0.5"/><rect x="405.5" y="359.5" width="4.3" height="4.5" fill="#93c5fd" stroke="#60a5fa" stroke-width="0.5"/><rect x="409.8" y="359.5" width="4.3" height="4.5" fill="#93c5fd" stroke="#60a5fa" stroke-width="0.5"/><rect x="414.1" y="359.5" width="4.3" height="4.5" fill="#93c5fd" stroke="#60a5fa" stroke-width="0.5"/><rect x="418.4" y="355.1" width="4.3" height="8.9" fill="#93c5fd" stroke="#60a5fa" stroke-width="0.5"/><rect x="422.7" y="355.1" width="4.3" height="8.9" fill="#93c5fd" stroke="#60a5fa" stroke-width="0.5"/><rect x="427.0" y="350.6" width="4.3" height="13.4" fill="#93c5fd" stroke="#60a5fa" stroke-width="0.5"/><rect x="431.2" y="355.1" width="4.3" height="8.9" fill="#93c5fd" stroke="#60a5fa" stroke-width="0.5"/><rect x="435.5" y="350.6" width="4.3" height="13.4" fill="#93c5fd" stroke="#60a5fa" stroke-width="0.5"/><rect x="439.8" y="359.5" width="4.3" height="4.5" fill="#93c5fd" stroke="#60a5fa" stroke-width="0.5"/><rect x="444.1" y="355.1" width="4.3" height="8.9" fill="#93c5fd" stroke="#60a5fa" stroke-width="0.5"/><rect x="448.4" y="359.5" width="4.3" height="4.5" fill="#93c5fd" stroke="#60a5fa" stroke-width="0.5"/><rect x="452.7" y="337.3" width="4.3" height="26.7" fill="#93c5fd" stroke="#60a5fa" stroke-width="0.5"/><rect x="457.0" y="359.5" width="4.3" height="4.5" fill="#93c5fd" stroke="#60a5fa" stroke-width="0.5"/><rect x="461.2" y="359.5" width="4.3" height="4.5" fill="#93c5fd" stroke="#60a5fa" stroke-width="0.5"/><rect x="465.5" y="359.5" width="4.3" height="4.5" fill="#93c5fd" stroke="#60a5fa" stroke-width="0.5"/><rect x="469.8" y="359.5" width="4.3" height="4.5" fill="#93c5fd" stroke="#60a5fa" stroke-width="0.5"/><rect x="474.1" y="359.5" width="4.3" height="4.5" fill="#93c5fd" stroke="#60a5fa" stroke-width="0.5"/><rect x="478.4" y="337.3" width="4.3" height="26.7" fill="#93c5fd" stroke="#60a5fa" stroke-width="0.5"/><rect x="482.7" y="359.5" width="4.3" height="4.5" fill="#93c5fd" stroke="#60a5fa" stroke-width="0.5"/><rect x="486.9" y="346.2" width="4.3" height="17.8" fill="#93c5fd" stroke="#60a5fa" stroke-width="0.5"/><rect x="491.2" y="319.4" width="4.3" height="44.6" fill="#93c5fd" stroke="#60a5fa" stroke-width="0.5"/><rect x="495.5" y="328.3" width="4.3" height="35.7" fill="#93c5fd" stroke="#60a5fa" stroke-width="0.5"/><rect x="499.8" y="355.1" width="4.3" height="8.9" fill="#93c5fd" stroke="#60a5fa" stroke-width="0.5"/><rect x="504.1" y="355.1" width="4.3" height="8.9" fill="#93c5fd" stroke="#60a5fa" stroke-width="0.5"/><rect x="508.4" y="355.1" width="4.3" height="8.9" fill="#93c5fd" stroke="#60a5fa" stroke-width="0.5"/><rect x="512.6" y="355.1" width="4.3" height="8.9" fill="#93c5fd" stroke="#60a5fa" stroke-width="0.5"/><rect x="516.9" y="350.6" width="4.3" height="13.4" fill="#93c5fd" stroke="#60a5fa" stroke-width="0.5"/><rect x="521.2" y="341.7" width="4.3" height="22.3" fill="#93c5fd" stroke="#60a5fa" stroke-width="0.5"/><rect x="525.5" y="359.5" width="4.3" height="4.5" fill="#93c5fd" stroke="#60a5fa" stroke-width="0.5"/><rect x="529.8" y="323.9" width="4.3" height="40.1" fill="#93c5fd" stroke="#60a5fa" stroke-width="0.5"/><rect x="534.1" y="355.1" width="4.3" height="8.9" fill="#93c5fd" stroke="#60a5fa" stroke-width="0.5"/><rect x="538.3" y="346.2" width="4.3" height="17.8" fill="#93c5fd" stroke="#60a5fa" stroke-width="0.5"/><rect x="542.6" y="355.1" width="4.3" height="8.9" fill="#93c5fd" stroke="#60a5fa" stroke-width="0.5"/><rect x="546.9" y="359.5" width="4.3" height="4.5" fill="#93c5fd" stroke="#60a5fa" stroke-width="0.5"/><rect x="551.2" y="359.5" width="4.3" height="4.5" fill="#93c5fd" stroke="#60a5fa" stroke-width="0.5"/><rect x="555.5" y="355.1" width="4.3" height="8.9" fill="#93c5fd" stroke="#60a5fa" stroke-width="0.5"/><rect x="559.8" y="350.6" width="4.3" height="13.4" fill="#93c5fd" stroke="#60a5fa" stroke-width="0.5"/><rect x="564.0" y="355.1" width="4.3" height="8.9" fill="#93c5fd" stroke="#60a5fa" stroke-width="0.5"/><rect x="568.3" y="315.0" width="4.3" height="49.0" fill="#93c5fd" stroke="#60a5fa" stroke-width="0.5"/><rect x="572.6" y="319.4" width="4.3" height="44.6" fill="#93c5fd" stroke="#60a5fa" stroke-width="0.5"/><rect x="576.9" y="346.2" width="4.3" height="17.8" fill="#93c5fd" stroke="#60a5fa" stroke-width="0.5"/><rect x="581.2" y="359.5" width="4.3" height="4.5" fill="#93c5fd" stroke="#60a5fa" stroke-width="0.5"/><rect x="585.5" y="328.3" width="4.3" height="35.7" fill="#93c5fd" stroke="#60a5fa" stroke-width="0.5"/><rect x="589.7" y="328.3" width="4.3" height="35.7" fill="#93c5fd" stroke="#60a5fa" stroke-width="0.5"/><rect x="594.0" y="257.0" width="4.3" height="107.0" fill="#93c5fd" stroke="#60a5fa" stroke-width="0.5"/><rect x="598.3" y="355.1" width="4.3" height="8.9" fill="#93c5fd" stroke="#60a5fa" stroke-width="0.5"/><rect x="602.6" y="341.7" width="4.3" height="22.3" fill="#93c5fd" stroke="#60a5fa" stroke-width="0.5"/><rect x="606.9" y="350.6" width="4.3" height="13.4" fill="#93c5fd" stroke="#60a5fa" stroke-width="0.5"/><rect x="611.2" y="306.1" width="4.3" height="57.9" fill="#93c5fd" stroke="#60a5fa" stroke-width="0.5"/><rect x="615.4" y="337.3" width="4.3" height="26.7" fill="#93c5fd" stroke="#60a5fa" stroke-width="0.5"/><rect x="619.7" y="301.6" width="4.3" height="62.4" fill="#93c5fd" stroke="#60a5fa" stroke-width="0.5"/><rect x="624.0" y="319.4" width="4.3" height="44.6" fill="#93c5fd" stroke="#60a5fa" stroke-width="0.5"/><rect x="628.3" y="355.1" width="4.3" height="8.9" fill="#93c5fd" stroke="#60a5fa" stroke-width="0.5"/><rect x="632.6" y="359.5" width="4.3" height="4.5" fill="#93c5fd" stroke="#60a5fa" stroke-width="0.5"/><rect x="636.9" y="341.7" width="4.3" height="22.3" fill="#93c5fd" stroke="#60a5fa" stroke-width="0.5"/><rect x="641.1" y="306.1" width="4.3" height="57.9" fill="#93c5fd" stroke="#60a5fa" stroke-width="0.5"/><rect x="645.4" y="346.2" width="4.3" height="17.8" fill="#93c5fd" stroke="#60a5fa" stroke-width="0.5"/><rect x="649.7" y="257.0" width="4.3" height="107.0" fill="#93c5fd" stroke="#60a5fa" stroke-width="0.5"/><rect x="654.0" y="341.7" width="4.3" height="22.3" fill="#93c5fd" stroke="#60a5fa" stroke-width="0.5"/><rect x="658.3" y="52.0" width="4.3" height="312.0" fill="#93c5fd" stroke="#60a5fa" stroke-width="0.5"/><rect x="662.6" y="288.2" width="4.3" height="75.8" fill="#93c5fd" stroke="#60a5fa" stroke-width="0.5"/><rect x="666.8" y="350.6" width="4.3" height="13.4" fill="#93c5fd" stroke="#60a5fa" stroke-width="0.5"/><rect x="671.1" y="355.1" width="4.3" height="8.9" fill="#93c5fd" stroke="#60a5fa" stroke-width="0.5"/><rect x="675.4" y="181.3" width="4.3" height="182.7" fill="#93c5fd" stroke="#60a5fa" stroke-width="0.5"/><rect x="679.7" y="337.3" width="4.3" height="26.7" fill="#93c5fd" stroke="#60a5fa" stroke-width="0.5"/><rect x="684.0" y="350.6" width="4.3" height="13.4" fill="#93c5fd" stroke="#60a5fa" stroke-width="0.5"/><rect x="688.3" y="355.1" width="4.3" height="8.9" fill="#93c5fd" stroke="#60a5fa" stroke-width="0.5"/><rect x="692.5" y="346.2" width="4.3" height="17.8" fill="#93c5fd" stroke="#60a5fa" stroke-width="0.5"/><rect x="696.8" y="328.3" width="4.3" height="35.7" fill="#93c5fd" stroke="#60a5fa" stroke-width="0.5"/><rect x="701.1" y="359.5" width="4.3" height="4.5" fill="#93c5fd" stroke="#60a5fa" stroke-width="0.5"/><rect x="705.4" y="359.5" width="4.3" height="4.5" fill="#93c5fd" stroke="#60a5fa" stroke-width="0.5"/><rect x="709.7" y="346.2" width="4.3" height="17.8" fill="#93c5fd" stroke="#60a5fa" stroke-width="0.5"/><rect x="714.0" y="341.7" width="4.3" height="22.3" fill="#93c5fd" stroke="#60a5fa" stroke-width="0.5"/><rect x="718.2" y="337.3" width="4.3" height="26.7" fill="#93c5fd" stroke="#60a5fa" stroke-width="0.5"/><rect x="722.5" y="337.3" width="4.3" height="26.7" fill="#93c5fd" stroke="#60a5fa" stroke-width="0.5"/><rect x="726.8" y="359.5" width="4.3" height="4.5" fill="#93c5fd" stroke="#60a5fa" stroke-width="0.5"/><rect x="731.1" y="341.7" width="4.3" height="22.3" fill="#93c5fd" stroke="#60a5fa" stroke-width="0.5"/><rect x="735.4" y="332.8" width="4.3" height="31.2" fill="#93c5fd" stroke="#60a5fa" stroke-width="0.5"/><rect x="739.7" y="332.8" width="4.3" height="31.2" fill="#93c5fd" stroke="#60a5fa" stroke-width="0.5"/><rect x="743.9" y="328.3" width="4.3" height="35.7" fill="#93c5fd" stroke="#60a5fa" stroke-width="0.5"/><rect x="748.2" y="323.9" width="4.3" height="40.1" fill="#93c5fd" stroke="#60a5fa" stroke-width="0.5"/><rect x="752.5" y="332.8" width="4.3" height="31.2" fill="#93c5fd" stroke="#60a5fa" stroke-width="0.5"/><rect x="756.8" y="346.2" width="4.3" height="17.8" fill="#93c5fd" stroke="#60a5fa" stroke-width="0.5"/><rect x="761.1" y="350.6" width="4.3" height="13.4" fill="#93c5fd" stroke="#60a5fa" stroke-width="0.5"/><rect x="765.4" y="350.6" width="4.3" height="13.4" fill="#93c5fd" stroke="#60a5fa" stroke-width="0.5"/><rect x="769.6" y="332.8" width="4.3" height="31.2" fill="#93c5fd" stroke="#60a5fa" stroke-width="0.5"/><rect x="773.9" y="359.5" width="4.3" height="4.5" fill="#93c5fd" stroke="#60a5fa" stroke-width="0.5"/><rect x="778.2" y="350.6" width="4.3" height="13.4" fill="#93c5fd" stroke="#60a5fa" stroke-width="0.5"/><rect x="782.5" y="355.1" width="4.3" height="8.9" fill="#93c5fd" stroke="#60a5fa" stroke-width="0.5"/><rect x="786.8" y="355.1" width="4.3" height="8.9" fill="#93c5fd" stroke="#60a5fa" stroke-width="0.5"/><rect x="791.1" y="355.1" width="4.3" height="8.9" fill="#93c5fd" stroke="#60a5fa" stroke-width="0.5"/><rect x="795.3" y="355.1" width="4.3" height="8.9" fill="#93c5fd" stroke="#60a5fa" stroke-width="0.5"/><rect x="799.6" y="359.5" width="4.3" height="4.5" fill="#93c5fd" stroke="#60a5fa" stroke-width="0.5"/><rect x="803.9" y="359.5" width="4.3" height="4.5" fill="#93c5fd" stroke="#60a5fa" stroke-width="0.5"/><rect x="808.2" y="337.3" width="4.3" height="26.7" fill="#93c5fd" stroke="#60a5fa" stroke-width="0.5"/><rect x="812.5" y="355.1" width="4.3" height="8.9" fill="#93c5fd" stroke="#60a5fa" stroke-width="0.5"/><rect x="816.8" y="328.3" width="4.3" height="35.7" fill="#93c5fd" stroke="#60a5fa" stroke-width="0.5"/><rect x="821.0" y="350.6" width="4.3" height="13.4" fill="#93c5fd" stroke="#60a5fa" stroke-width="0.5"/><rect x="825.3" y="328.3" width="4.3" height="35.7" fill="#93c5fd" stroke="#60a5fa" stroke-width="0.5"/><rect x="829.6" y="332.8" width="4.3" height="31.2" fill="#93c5fd" stroke="#60a5fa" stroke-width="0.5"/><rect x="833.9" y="328.3" width="4.3" height="35.7" fill="#93c5fd" stroke="#60a5fa" stroke-width="0.5"/><rect x="838.2" y="341.7" width="4.3" height="22.3" fill="#93c5fd" stroke="#60a5fa" stroke-width="0.5"/><rect x="842.5" y="355.1" width="4.3" height="8.9" fill="#93c5fd" stroke="#60a5fa" stroke-width="0.5"/><rect x="846.8" y="355.1" width="4.3" height="8.9" fill="#93c5fd" stroke="#60a5fa" stroke-width="0.5"/><rect x="851.0" y="319.4" width="4.3" height="44.6" fill="#93c5fd" stroke="#60a5fa" stroke-width="0.5"/><rect x="855.3" y="315.0" width="4.3" height="49.0" fill="#93c5fd" stroke="#60a5fa" stroke-width="0.5"/><rect x="859.6" y="328.3" width="4.3" height="35.7" fill="#93c5fd" stroke="#60a5fa" stroke-width="0.5"/><rect x="863.9" y="323.9" width="4.3" height="40.1" fill="#93c5fd" stroke="#60a5fa" stroke-width="0.5"/><rect x="868.2" y="341.7" width="4.3" height="22.3" fill="#93c5fd" stroke="#60a5fa" stroke-width="0.5"/><rect x="872.5" y="359.5" width="4.3" height="4.5" fill="#93c5fd" stroke="#60a5fa" stroke-width="0.5"/><rect x="876.7" y="350.6" width="4.3" height="13.4" fill="#93c5fd" stroke="#60a5fa" stroke-width="0.5"/><rect x="881.0" y="359.5" width="4.3" height="4.5" fill="#93c5fd" stroke="#60a5fa" stroke-width="0.5"/><rect x="885.3" y="346.2" width="4.3" height="17.8" fill="#93c5fd" stroke="#60a5fa" stroke-width="0.5"/><rect x="889.6" y="346.2" width="4.3" height="17.8" fill="#93c5fd" stroke="#60a5fa" stroke-width="0.5"/><rect x="893.9" y="341.7" width="4.3" height="22.3" fill="#93c5fd" stroke="#60a5fa" stroke-width="0.5"/><rect x="898.2" y="359.5" width="4.3" height="4.5" fill="#93c5fd" stroke="#60a5fa" stroke-width="0.5"/><rect x="902.4" y="359.5" width="4.3" height="4.5" fill="#93c5fd" stroke="#60a5fa" stroke-width="0.5"/><rect x="906.7" y="315.0" width="4.3" height="49.0" fill="#93c5fd" stroke="#60a5fa" stroke-width="0.5"/><rect x="911.0" y="230.3" width="4.3" height="133.7" fill="#93c5fd" stroke="#60a5fa" stroke-width="0.5"/><rect x="915.3" y="297.1" width="4.3" height="66.9" fill="#93c5fd" stroke="#60a5fa" stroke-width="0.5"/><rect x="919.6" y="359.5" width="4.3" height="4.5" fill="#93c5fd" stroke="#60a5fa" stroke-width="0.5"/><rect x="923.9" y="319.4" width="4.3" height="44.6" fill="#93c5fd" stroke="#60a5fa" stroke-width="0.5"/><rect x="928.1" y="355.1" width="4.3" height="8.9" fill="#93c5fd" stroke="#60a5fa" stroke-width="0.5"/><rect x="932.4" y="341.7" width="4.3" height="22.3" fill="#93c5fd" stroke="#60a5fa" stroke-width="0.5"/><rect x="936.7" y="315.0" width="4.3" height="49.0" fill="#93c5fd" stroke="#60a5fa" stroke-width="0.5"/><rect x="941.0" y="350.6" width="4.3" height="13.4" fill="#93c5fd" stroke="#60a5fa" stroke-width="0.5"/><rect x="945.3" y="279.3" width="4.3" height="84.7" fill="#93c5fd" stroke="#60a5fa" stroke-width="0.5"/><rect x="949.6" y="132.2" width="4.3" height="231.8" fill="#93c5fd" stroke="#60a5fa" stroke-width="0.5"/><rect x="953.8" y="359.5" width="4.3" height="4.5" fill="#93c5fd" stroke="#60a5fa" stroke-width="0.5"/><rect x="958.1" y="212.5" width="4.3" height="151.5" fill="#93c5fd" stroke="#60a5fa" stroke-width="0.5"/><rect x="962.4" y="355.1" width="4.3" height="8.9" fill="#93c5fd" stroke="#60a5fa" stroke-width="0.5"/><rect x="966.7" y="252.6" width="4.3" height="111.4" fill="#93c5fd" stroke="#60a5fa" stroke-width="0.5"/><rect x="971.0" y="359.5" width="4.3" height="4.5" fill="#93c5fd" stroke="#60a5fa" stroke-width="0.5"/><rect x="975.3" y="337.3" width="4.3" height="26.7" fill="#93c5fd" stroke="#60a5fa" stroke-width="0.5"/><rect x="979.5" y="355.1" width="4.3" height="8.9" fill="#93c5fd" stroke="#60a5fa" stroke-width="0.5"/><rect x="983.8" y="306.1" width="4.3" height="57.9" fill="#93c5fd" stroke="#60a5fa" stroke-width="0.5"/><rect x="988.1" y="332.8" width="4.3" height="31.2" fill="#93c5fd" stroke="#60a5fa" stroke-width="0.5"/><rect x="992.4" y="355.1" width="4.3" height="8.9" fill="#93c5fd" stroke="#60a5fa" stroke-width="0.5"/><rect x="996.7" y="252.6" width="4.3" height="111.4" fill="#93c5fd" stroke="#60a5fa" stroke-width="0.5"/><rect x="1001.0" y="346.2" width="4.3" height="17.8" fill="#93c5fd" stroke="#60a5fa" stroke-width="0.5"/><rect x="1005.2" y="328.3" width="4.3" height="35.7" fill="#93c5fd" stroke="#60a5fa" stroke-width="0.5"/><rect x="1009.5" y="350.6" width="4.3" height="13.4" fill="#93c5fd" stroke="#60a5fa" stroke-width="0.5"/><rect x="1013.8" y="319.4" width="4.3" height="44.6" fill="#93c5fd" stroke="#60a5fa" stroke-width="0.5"/><rect x="1018.1" y="359.5" width="4.3" height="4.5" fill="#93c5fd" stroke="#60a5fa" stroke-width="0.5"/><rect x="1022.4" y="292.7" width="4.3" height="71.3" fill="#93c5fd" stroke="#60a5fa" stroke-width="0.5"/><rect x="1026.7" y="323.9" width="4.3" height="40.1" fill="#93c5fd" stroke="#60a5fa" stroke-width="0.5"/><rect x="1030.9" y="350.6" width="4.3" height="13.4" fill="#93c5fd" stroke="#60a5fa" stroke-width="0.5"/><rect x="1035.2" y="301.6" width="4.3" height="62.4" fill="#93c5fd" stroke="#60a5fa" stroke-width="0.5"/><rect x="1039.5" y="355.1" width="4.3" height="8.9" fill="#93c5fd" stroke="#60a5fa" stroke-width="0.5"/><rect x="1043.8" y="359.5" width="4.3" height="4.5" fill="#93c5fd" stroke="#60a5fa" stroke-width="0.5"/><rect x="1048.1" y="355.1" width="4.3" height="8.9" fill="#93c5fd" stroke="#60a5fa" stroke-width="0.5"/><rect x="1052.4" y="350.6" width="4.3" height="13.4" fill="#93c5fd" stroke="#60a5fa" stroke-width="0.5"/><rect x="1056.6" y="310.5" width="4.3" height="53.5" fill="#93c5fd" stroke="#60a5fa" stroke-width="0.5"/><rect x="1060.9" y="341.7" width="4.3" height="22.3" fill="#93c5fd" stroke="#60a5fa" stroke-width="0.5"/><rect x="1065.2" y="355.1" width="4.3" height="8.9" fill="#93c5fd" stroke="#60a5fa" stroke-width="0.5"/><rect x="1069.5" y="359.5" width="4.3" height="4.5" fill="#93c5fd" stroke="#60a5fa" stroke-width="0.5"/><rect x="1073.8" y="350.6" width="4.3" height="13.4" fill="#93c5fd" stroke="#60a5fa" stroke-width="0.5"/><rect x="1078.1" y="355.1" width="4.3" height="8.9" fill="#93c5fd" stroke="#60a5fa" stroke-width="0.5"/><rect x="1082.3" y="265.9" width="4.3" height="98.1" fill="#93c5fd" stroke="#60a5fa" stroke-width="0.5"/><rect x="1086.6" y="323.9" width="4.3" height="40.1" fill="#93c5fd" stroke="#60a5fa" stroke-width="0.5"/><rect x="1090.9" y="332.8" width="4.3" height="31.2" fill="#93c5fd" stroke="#60a5fa" stroke-width="0.5"/><rect x="1095.2" y="359.5" width="4.3" height="4.5" fill="#93c5fd" stroke="#60a5fa" stroke-width="0.5"/><rect x="1099.5" y="328.3" width="4.3" height="35.7" fill="#93c5fd" stroke="#60a5fa" stroke-width="0.5"/><rect x="1103.8" y="350.6" width="4.3" height="13.4" fill="#93c5fd" stroke="#60a5fa" stroke-width="0.5"/><rect x="1108.0" y="301.6" width="4.3" height="62.4" fill="#93c5fd" stroke="#60a5fa" stroke-width="0.5"/><rect x="1112.3" y="212.5" width="4.3" height="151.5" fill="#93c5fd" stroke="#60a5fa" stroke-width="0.5"/><rect x="1116.6" y="346.2" width="4.3" height="17.8" fill="#93c5fd" stroke="#60a5fa" stroke-width="0.5"/><rect x="1120.9" y="279.3" width="4.3" height="84.7" fill="#93c5fd" stroke="#60a5fa" stroke-width="0.5"/><rect x="1125.2" y="359.5" width="4.3" height="4.5" fill="#93c5fd" stroke="#60a5fa" stroke-width="0.5"/><rect x="1129.5" y="190.2" width="4.3" height="173.8" fill="#93c5fd" stroke="#60a5fa" stroke-width="0.5"/><rect x="1133.7" y="310.5" width="4.3" height="53.5" fill="#93c5fd" stroke="#60a5fa" stroke-width="0.5"/><rect x="1138.0" y="306.1" width="4.3" height="57.9" fill="#93c5fd" stroke="#60a5fa" stroke-width="0.5"/><rect x="1142.3" y="355.1" width="4.3" height="8.9" fill="#93c5fd" stroke="#60a5fa" stroke-width="0.5"/><rect x="1146.6" y="323.9" width="4.3" height="40.1" fill="#93c5fd" stroke="#60a5fa" stroke-width="0.5"/><rect x="1150.9" y="346.2" width="4.3" height="17.8" fill="#93c5fd" stroke="#60a5fa" stroke-width="0.5"/><rect x="1155.2" y="328.3" width="4.3" height="35.7" fill="#93c5fd" stroke="#60a5fa" stroke-width="0.5"/><rect x="1159.4" y="350.6" width="4.3" height="13.4" fill="#93c5fd" stroke="#60a5fa" stroke-width="0.5"/><rect x="1163.7" y="359.5" width="4.3" height="4.5" fill="#93c5fd" stroke="#60a5fa" stroke-width="0.5"/><rect x="1168.0" y="346.2" width="4.3" height="17.8" fill="#93c5fd" stroke="#60a5fa" stroke-width="0.5"/><rect x="1172.3" y="359.5" width="4.3" height="4.5" fill="#93c5fd" stroke="#60a5fa" stroke-width="0.5"/><rect x="1176.6" y="359.5" width="4.3" height="4.5" fill="#93c5fd" stroke="#60a5fa" stroke-width="0.5"/><rect x="1180.9" y="315.0" width="4.3" height="49.0" fill="#93c5fd" stroke="#60a5fa" stroke-width="0.5"/><rect x="1185.1" y="355.1" width="4.3" height="8.9" fill="#93c5fd" stroke="#60a5fa" stroke-width="0.5"/><rect x="1189.4" y="350.6" width="4.3" height="13.4" fill="#93c5fd" stroke="#60a5fa" stroke-width="0.5"/><rect x="1193.7" y="359.5" width="4.3" height="4.5" fill="#93c5fd" stroke="#60a5fa" stroke-width="0.5"/><polyline fill="none" stroke="#ef4444" stroke-width="2" points="82.1,363.1 86.4,362.9 90.7,362.7 95.0,362.3 99.3,362.0 103.6,361.4 107.8,361.2 112.1,361.0 116.4,360.7 120.7,360.5 125.0,360.3 129.3,360.1 133.5,359.9 137.8,359.4 142.1,358.6 146.4,358.3 150.7,358.1 155.0,357.5 159.2,356.4 163.5,353.6 167.8,353.1 172.1,352.5 176.4,352.3 180.7,351.6 184.9,351.4 189.2,350.3 193.5,350.1 197.8,349.9 202.1,349.7 206.4,349.4 210.6,349.2 214.9,349.0 219.2,348.8 223.5,348.6 227.8,348.3 232.1,348.1 236.3,347.9 240.6,347.7 244.9,347.5 249.2,347.3 253.5,346.6 257.8,346.4 262.0,346.2 266.3,343.8 270.6,343.6 274.9,342.3 279.2,340.5 283.5,340.3 287.8,339.9 292.0,339.2 296.3,338.8 300.6,338.3 304.9,337.7 309.2,337.5 313.5,337.3 317.7,337.0 322.0,336.8 326.3,336.2 330.6,336.0 334.9,334.2 339.2,334.0 343.4,333.8 347.7,333.6 352.0,332.9 356.3,332.7 360.6,332.5 364.9,332.0 369.1,331.4 373.4,331.2 377.7,330.5 382.0,330.1 386.3,329.4 390.6,329.2 394.8,327.0 399.1,326.2 403.4,325.3 407.7,325.1 412.0,324.9 416.3,324.6 420.5,324.2 424.8,323.8 429.1,323.1 433.4,322.7 437.7,322.0 442.0,321.8 446.2,321.4 450.5,321.2 454.8,319.9 459.1,319.6 463.4,319.4 467.7,319.2 471.9,319.0 476.2,318.8 480.5,317.5 484.8,317.3 489.1,316.4 493.4,314.2 497.6,312.5 501.9,312.0 506.2,311.6 510.5,311.2 514.8,310.7 519.1,310.1 523.3,309.0 527.6,308.8 531.9,306.8 536.2,306.4 540.5,305.5 544.8,305.1 549.0,304.9 553.3,304.6 557.6,304.2 561.9,303.6 566.2,303.1 570.5,300.7 574.7,298.6 579.0,297.7 583.3,297.5 587.6,295.7 591.9,294.0 596.2,288.8 600.4,288.3 604.7,287.3 609.0,286.6 613.3,283.8 617.6,282.5 621.9,279.4 626.1,277.2 630.4,276.8 634.7,276.6 639.0,275.5 643.3,272.7 647.6,271.8 651.9,266.6 656.1,265.5 660.4,250.3 664.7,246.6 669.0,245.9 673.3,245.5 677.6,236.6 681.8,235.3 686.1,234.6 690.4,234.2 694.7,233.3 699.0,231.6 703.3,231.4 707.5,231.2 711.8,230.3 716.1,229.2 720.4,227.9 724.7,226.6 729.0,226.4 733.2,225.3 737.5,223.8 741.8,222.2 746.1,220.5 750.4,218.5 754.7,217.0 758.9,216.2 763.2,215.5 767.5,214.8 771.8,213.3 776.1,213.1 780.4,212.5 784.6,212.0 788.9,211.6 793.2,211.2 797.5,210.7 801.8,210.5 806.1,210.3 810.3,209.0 814.6,208.5 818.9,206.8 823.2,206.2 827.5,204.4 831.8,202.9 836.0,201.2 840.3,200.1 844.6,199.6 848.9,199.2 853.2,197.0 857.5,194.6 861.7,192.9 866.0,190.9 870.3,189.8 874.6,189.6 878.9,189.0 883.2,188.8 887.4,187.9 891.7,187.0 896.0,185.9 900.3,185.7 904.6,185.5 908.9,183.1 913.1,176.6 917.4,173.3 921.7,173.1 926.0,170.9 930.3,170.5 934.6,169.4 938.8,167.0 943.1,166.4 947.4,162.2 951.7,150.9 956.0,150.7 960.3,143.3 964.5,142.9 968.8,137.4 973.1,137.2 977.4,135.9 981.7,135.5 986.0,132.7 990.2,131.1 994.5,130.7 998.8,125.3 1003.1,124.4 1007.4,122.7 1011.7,122.0 1016.0,119.8 1020.2,119.6 1024.5,116.1 1028.8,114.2 1033.1,113.5 1037.4,110.5 1041.7,110.1 1045.9,109.8 1050.2,109.4 1054.5,108.7 1058.8,106.1 1063.1,105.1 1067.4,104.6 1071.6,104.4 1075.9,103.7 1080.2,103.3 1084.5,98.5 1088.8,96.6 1093.1,95.0 1097.3,94.8 1101.6,93.1 1105.9,92.4 1110.2,89.4 1114.5,82.0 1118.8,81.1 1123.0,77.0 1127.3,76.8 1131.6,68.3 1135.9,65.7 1140.2,62.9 1144.5,62.4 1148.7,60.5 1153.0,59.6 1157.3,57.9 1161.6,57.2 1165.9,57.0 1170.2,56.1 1174.4,55.9 1178.7,55.7 1183.0,53.3 1187.3,52.9 1191.6,52.2 1195.9,52.0"/><line x1="82.1" y1="364.0" x2="82.1" y2="370.0" stroke="#111827" stroke-width="1"/><text x="84.1" y="386.0" font-size="11" text-anchor="end" transform="rotate(-35 84.1 386.0)" font-family="sans-serif" fill="#374151">2022-10-13</text><line x1="240.6" y1="364.0" x2="240.6" y2="370.0" stroke="#111827" stroke-width="1"/><text x="242.6" y="386.0" font-size="11" text-anchor="end" transform="rotate(-35 242.6 386.0)" font-family="sans-serif" fill="#374151">2025-03-27</text><line x1="399.1" y1="364.0" x2="399.1" y2="370.0" stroke="#111827" stroke-width="1"/><text x="401.1" y="386.0" font-size="11" text-anchor="end" transform="rotate(-35 401.1 386.0)" font-family="sans-serif" fill="#374151">2025-07-24</text><line x1="557.6" y1="364.0" x2="557.6" y2="370.0" stroke="#111827" stroke-width="1"/><text x="559.6" y="386.0" font-size="11" text-anchor="end" transform="rotate(-35 559.6 386.0)" font-family="sans-serif" fill="#374151">2025-09-29</text><line x1="720.4" y1="364.0" x2="720.4" y2="370.0" stroke="#111827" stroke-width="1"/><text x="722.4" y="386.0" font-size="11" text-anchor="end" transform="rotate(-35 722.4 386.0)" font-family="sans-serif" fill="#374151">2025-11-25</text><line x1="878.9" y1="364.0" x2="878.9" y2="370.0" stroke="#111827" stroke-width="1"/><text x="880.9" y="386.0" font-size="11" text-anchor="end" transform="rotate(-35 880.9 386.0)" font-family="sans-serif" fill="#374151">2026-01-12</text><line x1="1037.4" y1="364.0" x2="1037.4" y2="370.0" stroke="#111827" stroke-width="1"/><text x="1039.4" y="386.0" font-size="11" text-anchor="end" transform="rotate(-35 1039.4 386.0)" font-family="sans-serif" fill="#374151">2026-02-25</text><line x1="1195.9" y1="364.0" x2="1195.9" y2="370.0" stroke="#111827" stroke-width="1"/><text x="1197.9" y="386.0" font-size="11" text-anchor="end" transform="rotate(-35 1197.9 386.0)" font-family="sans-serif" fill="#374151">2026-04-17</text><text x="26" y="208.0" font-size="12" transform="rotate(-90 26 208.0)" text-anchor="middle" font-family="sans-serif" fill="#1f2937">구간별 수</text><text x="1256.0" y="208.0" font-size="12" transform="rotate(90 1256.0 208.0)" text-anchor="middle" font-family="sans-serif" fill="#1f2937">누적</text><text x="639.0" y="442.0" font-size="13" text-anchor="middle" font-family="sans-serif" fill="#111827">일</text></svg>