<svg xmlns="http://www.w3.org/2000/svg" width="1280" height="460" viewBox="0 0 1280 460"><rect x="0" y="0" width="100%" height="100%" fill="#ffffff"/><text x="640.0" y="28" font-size="20" text-anchor="middle" font-family="sans-serif" fill="#111827">시리즈 / 최근 반영 시점 / 시간별</text><line x1="80.0" y1="52.0" x2="1198.0" y2="52.0" stroke="#e5e7eb" stroke-width="1"/><text x="72.0" y="56.0" font-size="11" text-anchor="end" font-family="sans-serif" fill="#374151">1,184</text><text x="1206.0" y="56.0" font-size="11" text-anchor="start" font-family="sans-serif" fill="#374151">1,444</text><line x1="80.0" y1="114.4" x2="1198.0" y2="114.4" stroke="#e5e7eb" stroke-width="1"/><text x="72.0" y="118.4" font-size="11" text-anchor="end" font-family="sans-serif" fill="#374151">947</text><text x="1206.0" y="118.4" font-size="11" text-anchor="start" font-family="sans-serif" fill="#374151">1,155</text><line x1="80.0" y1="176.8" x2="1198.0" y2="176.8" stroke="#e5e7eb" stroke-width="1"/><text x="72.0" y="180.8" font-size="11" text-anchor="end" font-family="sans-serif" fill="#374151">710</text><text x="1206.0" y="180.8" font-size="11" text-anchor="start" font-family="sans-serif" fill="#374151">866</text><line x1="80.0" y1="239.2" x2="1198.0" y2="239.2" stroke="#e5e7eb" stroke-width="1"/><text x="72.0" y="243.2" font-size="11" text-anchor="end" font-family="sans-serif" fill="#374151">474</text><text x="1206.0" y="243.2" font-size="11" text-anchor="start" font-family="sans-serif" fill="#374151">578</text><line x1="80.0" y1="301.6" x2="1198.0" y2="301.6" stroke="#e5e7eb" stroke-width="1"/><text x="72.0" y="305.6" font-size="11" text-anchor="end" font-family="sans-serif" fill="#374151">237</text><text x="1206.0" y="305.6" font-size="11" text-anchor="start" font-family="sans-serif" fill="#374151">289</text><line x1="80.0" y1="364.0" x2="1198.0" y2="364.0" stroke="#e5e7eb" stroke-width="1"/><text x="72.0" y="368.0" font-size="11" text-anchor="end" font-family="sans-serif" fill="#374151">0</text><text x="1206.0" y="368.0" font-size="11" text-anchor="start" font-family="sans-serif" fill="#374151">0</text><line x1="80.0" y1="364.0" x2="1198.0" y2="364.0" stroke="#111827" stroke-width="1.2"/><line x1="80.0" y1="52.0" x2="80.0" y2="364.0" stroke="#111827" stroke-width="1.2"/><line x1="1198.0" y1="52.0" x2="1198.0" y2="364.0" stroke="#111827" stroke-width="1.2"/><rect x="81.0" y="363.7" width="34.1" height="0.3" fill="#93c5fd" stroke="#60a5fa" stroke-width="0.5"/><rect x="117.1" y="363.2" width="34.1" height="0.8" fill="#93c5fd" stroke="#60a5fa" stroke-width="0.5"/><rect x="153.1" y="360.6" width="34.1" height="3.4" fill="#93c5fd" stroke="#60a5fa" stroke-width="0.5"/><rect x="189.2" y="363.7" width="34.1" height="0.3" fill="#93c5fd" stroke="#60a5fa" stroke-width="0.5"/><rect x="225.3" y="363.7" width="34.1" height="0.3" fill="#93c5fd" stroke="#60a5fa" stroke-width="0.5"/><rect x="261.3" y="363.7" width="34.1" height="0.3" fill="#93c5fd" stroke="#60a5fa" stroke-width="0.5"/><rect x="297.4" y="363.7" width="34.1" height="0.3" fill="#93c5fd" stroke="#60a5fa" stroke-width="0.5"/><rect x="333.5" y="363.7" width="34.1" height="0.3" fill="#93c5fd" stroke="#60a5fa" stroke-width="0.5"/><rect x="369.5" y="363.7" width="34.1" height="0.3" fill="#93c5fd" stroke="#60a5fa" stroke-width="0.5"/><rect x="405.6" y="363.7" width="34.1" height="0.3" fill="#93c5fd" stroke="#60a5fa" stroke-width="0.5"/><rect x="441.6" y="363.5" width="34.1" height="0.5" fill="#93c5fd" stroke="#60a5fa" stroke-width="0.5"/><rect x="477.7" y="363.5" width="34.1" height="0.5" fill="#93c5fd" stroke="#60a5fa" stroke-width="0.5"/><rect x="513.8" y="363.7" width="34.1" height="0.3" fill="#93c5fd" stroke="#60a5fa" stroke-width="0.5"/><rect x="549.8" y="363.7" width="34.1" height="0.3" fill="#93c5fd" stroke="#60a5fa" stroke-width="0.5"/><rect x="585.9" y="363.7" width="34.1" height="0.3" fill="#93c5fd" stroke="#60a5fa" stroke-width="0.5"/><rect x="622.0" y="363.7" width="34.1" height="0.3" fill="#93c5fd" stroke="#60a5fa" stroke-width="0.5"/><rect x="658.0" y="363.7" width="34.1" height="0.3" fill="#93c5fd" stroke="#60a5fa" stroke-width="0.5"/><rect x="694.1" y="363.5" width="34.1" height="0.5" fill="#93c5fd" stroke="#60a5fa" stroke-width="0.5"/><rect x="730.2" y="363.5" width="34.1" height="0.5" fill="#93c5fd" stroke="#60a5fa" stroke-width="0.5"/><rect x="766.2" y="362.9" width="34.1" height="1.1" fill="#93c5fd" stroke="#60a5fa" stroke-width="0.5"/><rect x="802.3" y="362.9" width="34.1" height="1.1" fill="#93c5fd" stroke="#60a5fa" stroke-width="0.5"/><rect x="838.4" y="362.2" width="34.1" height="1.8" fill="#93c5fd" stroke="#60a5fa" stroke-width="0.5"/><rect x="874.4" y="52.0" width="34.1" height="312.0" fill="#93c5fd" stroke="#60a5fa" stroke-width="0.5"/><rect x="910.5" y="350.8" width="34.1" height="13.2" fill="#93c5fd" stroke="#60a5fa" stroke-width="0.5"/><rect x="946.5" y="363.7" width="34.1" height="0.3" fill="#93c5fd" stroke="#60a5fa" stroke-width="0.5"/><rect x="982.6" y="363.2" width="34.1" height="0.8" fill="#93c5fd" stroke="#60a5fa" stroke-width="0.5"/><rect x="1018.7" y="350.8" width="34.1" height="13.2" fill="#93c5fd" stroke="#60a5fa" stroke-width="0.5"/><rect x="1054.7" y="350.8" width="34.1" height="13.2" fill="#93c5fd" stroke="#60a5fa" stroke-width="0.5"/><rect x="1090.8" y="363.5" width="34.1" height="0.5" fill="#93c5fd" stroke="#60a5fa" stroke-width="0.5"/><rect x="1126.9" y="363.5" width="34.1" height="0.5" fill="#93c5fd" stroke="#60a5fa" stroke-width="0.5"/><rect x="1162.9" y="350.8" width="34.1" height="13.2" fill="#93c5fd" stroke="#60a5fa" stroke-width="0.5"/><polyline fill="none" stroke="#ef4444" stroke-width="2" points="98.0,363.8 134.1,363.1 170.2,360.3 206.2,360.1 242.3,359.9 278.4,359.7 314.4,359.5 350.5,359.2 386.5,359.0 422.6,358.8 458.7,358.4 494.7,358.0 530.8,357.7 566.9,357.5 602.9,357.3 639.0,357.1 675.1,356.9 711.1,356.4 747.2,356.0 783.3,355.1 819.3,354.3 855.4,352.8 891.5,96.9 927.5,86.1 963.6,85.9 999.6,85.3 1035.7,74.5 1071.8,63.7 1107.8,63.2 1143.9,62.8 1180.0,52.0"/><line x1="98.0" y1="364.0" x2="98.0" y2="370.0" stroke="#111827" stroke-width="1"/><text x="100.0" y="386.0" font-size="11" text-anchor="end" transform="rotate(-35 100.0 386.0)" font-family="sans-serif" fill="#374151">2026-04-16 23:00</text><line x1="242.3" y1="364.0" x2="242.3" y2="370.0" stroke="#111827" stroke-width="1"/><text x="244.3" y="386.0" font-size="11" text-anchor="end" transform="rotate(-35 244.3 386.0)" font-family="sans-serif" fill="#374151">2026-04-19 16:00</text><line x1="422.6" y1="364.0" x2="422.6" y2="370.0" stroke="#111827" stroke-width="1"/><text x="424.6" y="386.0" font-size="11" text-anchor="end" transform="rotate(-35 424.6 386.0)" font-family="sans-serif" fill="#374151">2026-04-20 12:00</text><line x1="566.9" y1="364.0" x2="566.9" y2="370.0" stroke="#111827" stroke-width="1"/><text x="568.9" y="386.0" font-size="11" text-anchor="end" transform="rotate(-35 568.9 386.0)" font-family="sans-serif" fill="#374151">2026-04-21 02:00</text><line x1="711.1" y1="364.0" x2="711.1" y2="370.0" stroke="#111827" stroke-width="1"/><text x="713.1" y="386.0" font-size="11" text-anchor="end" transform="rotate(-35 713.1 386.0)" font-family="sans-serif" fill="#374151">2026-04-21 23:00</text><line x1="855.4" y1="364.0" x2="855.4" y2="370.0" stroke="#111827" stroke-width="1"/><text x="857.4" y="386.0" font-size="11" text-anchor="end" transform="rotate(-35 857.4 386.0)" font-family="sans-serif" fill="#374151">2026-04-22 11:00</text><line x1="1035.7" y1="364.0" x2="1035.7" y2="370.0" stroke="#111827" stroke-width="1"/><text x="1037.7" y="386.0" font-size="11" text-anchor="end" transform="rotate(-35 1037.7 386.0)" font-family="sans-serif" fill="#374151">2026-04-24 18:00</text><line x1="1180.0" y1="364.0" x2="1180.0" y2="370.0" stroke="#111827" stroke-width="1"/><text x="1182.0" y="386.0" font-size="11" text-anchor="end" transform="rotate(-35 1182.0 386.0)" font-family="sans-serif" fill="#374151">2026-04-24 22:00</text><text x="26" y="208.0" font-size="12" transform="rotate(-90 26 208.0)" text-anchor="middle" font-family="sans-serif" fill="#1f2937">구간별 수</text><text x="1256.0" y="208.0" font-size="12" transform="rotate(90 1256.0 208.0)" text-anchor="middle" font-family="sans-serif" fill="#1f2937">누적</text><text x="639.0" y="442.0" font-size="13" text-anchor="middle" font-family="sans-serif" fill="#111827">시간</text></svg>