<svg xmlns="http://www.w3.org/2000/svg" width="1280" height="460" viewBox="0 0 1280 460"><rect x="0" y="0" width="100%" height="100%" fill="#ffffff"/><text x="640.0" y="28" font-size="20" text-anchor="middle" font-family="sans-serif" fill="#111827">시리즈 / 생성 시점 / 일별</text><line x1="80.0" y1="52.0" x2="1198.0" y2="52.0" stroke="#e5e7eb" stroke-width="1"/><text x="72.0" y="56.0" font-size="11" text-anchor="end" font-family="sans-serif" fill="#374151">70</text><text x="1206.0" y="56.0" font-size="11" text-anchor="start" font-family="sans-serif" fill="#374151">1,417</text><line x1="80.0" y1="114.4" x2="1198.0" y2="114.4" stroke="#e5e7eb" stroke-width="1"/><text x="72.0" y="118.4" font-size="11" text-anchor="end" font-family="sans-serif" fill="#374151">56</text><text x="1206.0" y="118.4" font-size="11" text-anchor="start" font-family="sans-serif" fill="#374151">1,134</text><line x1="80.0" y1="176.8" x2="1198.0" y2="176.8" stroke="#e5e7eb" stroke-width="1"/><text x="72.0" y="180.8" font-size="11" text-anchor="end" font-family="sans-serif" fill="#374151">42</text><text x="1206.0" y="180.8" font-size="11" text-anchor="start" font-family="sans-serif" fill="#374151">850</text><line x1="80.0" y1="239.2" x2="1198.0" y2="239.2" stroke="#e5e7eb" stroke-width="1"/><text x="72.0" y="243.2" font-size="11" text-anchor="end" font-family="sans-serif" fill="#374151">28</text><text x="1206.0" y="243.2" font-size="11" text-anchor="start" font-family="sans-serif" fill="#374151">567</text><line x1="80.0" y1="301.6" x2="1198.0" y2="301.6" stroke="#e5e7eb" stroke-width="1"/><text x="72.0" y="305.6" font-size="11" text-anchor="end" font-family="sans-serif" fill="#374151">14</text><text x="1206.0" y="305.6" font-size="11" text-anchor="start" font-family="sans-serif" fill="#374151">283</text><line x1="80.0" y1="364.0" x2="1198.0" y2="364.0" stroke="#e5e7eb" stroke-width="1"/><text x="72.0" y="368.0" font-size="11" text-anchor="end" font-family="sans-serif" fill="#374151">0</text><text x="1206.0" y="368.0" font-size="11" text-anchor="start" font-family="sans-serif" fill="#374151">0</text><line x1="80.0" y1="364.0" x2="1198.0" y2="364.0" stroke="#111827" stroke-width="1.2"/><line x1="80.0" y1="52.0" x2="80.0" y2="364.0" stroke="#111827" stroke-width="1.2"/><line x1="1198.0" y1="52.0" x2="1198.0" y2="364.0" stroke="#111827" stroke-width="1.2"/><rect x="80.0" y="346.2" width="4.4" height="17.8" fill="#93c5fd" stroke="#60a5fa" stroke-width="0.5"/><rect x="84.4" y="359.5" width="4.4" height="4.5" fill="#93c5fd" stroke="#60a5fa" stroke-width="0.5"/><rect x="88.7" y="359.5" width="4.4" height="4.5" fill="#93c5fd" stroke="#60a5fa" stroke-width="0.5"/><rect x="93.1" y="355.1" width="4.4" height="8.9" fill="#93c5fd" stroke="#60a5fa" stroke-width="0.5"/><rect x="97.5" y="359.5" width="4.4" height="4.5" fill="#93c5fd" stroke="#60a5fa" stroke-width="0.5"/><rect x="101.8" y="350.6" width="4.4" height="13.4" fill="#93c5fd" stroke="#60a5fa" stroke-width="0.5"/><rect x="106.2" y="359.5" width="4.4" height="4.5" fill="#93c5fd" stroke="#60a5fa" stroke-width="0.5"/><rect x="110.6" y="359.5" width="4.4" height="4.5" fill="#93c5fd" stroke="#60a5fa" stroke-width="0.5"/><rect x="114.9" y="359.5" width="4.4" height="4.5" fill="#93c5fd" stroke="#60a5fa" stroke-width="0.5"/><rect x="119.3" y="359.5" width="4.4" height="4.5" fill="#93c5fd" stroke="#60a5fa" stroke-width="0.5"/><rect x="123.7" y="359.5" width="4.4" height="4.5" fill="#93c5fd" stroke="#60a5fa" stroke-width="0.5"/><rect x="128.0" y="359.5" width="4.4" height="4.5" fill="#93c5fd" stroke="#60a5fa" stroke-width="0.5"/><rect x="132.4" y="359.5" width="4.4" height="4.5" fill="#93c5fd" stroke="#60a5fa" stroke-width="0.5"/><rect x="136.8" y="355.1" width="4.4" height="8.9" fill="#93c5fd" stroke="#60a5fa" stroke-width="0.5"/><rect x="141.1" y="346.2" width="4.4" height="17.8" fill="#93c5fd" stroke="#60a5fa" stroke-width="0.5"/><rect x="145.5" y="359.5" width="4.4" height="4.5" fill="#93c5fd" stroke="#60a5fa" stroke-width="0.5"/><rect x="149.9" y="359.5" width="4.4" height="4.5" fill="#93c5fd" stroke="#60a5fa" stroke-width="0.5"/><rect x="154.2" y="350.6" width="4.4" height="13.4" fill="#93c5fd" stroke="#60a5fa" stroke-width="0.5"/><rect x="158.6" y="341.7" width="4.4" height="22.3" fill="#93c5fd" stroke="#60a5fa" stroke-width="0.5"/><rect x="163.0" y="306.1" width="4.4" height="57.9" fill="#93c5fd" stroke="#60a5fa" stroke-width="0.5"/><rect x="167.3" y="355.1" width="4.4" height="8.9" fill="#93c5fd" stroke="#60a5fa" stroke-width="0.5"/><rect x="171.7" y="350.6" width="4.4" height="13.4" fill="#93c5fd" stroke="#60a5fa" stroke-width="0.5"/><rect x="176.1" y="359.5" width="4.4" height="4.5" fill="#93c5fd" stroke="#60a5fa" stroke-width="0.5"/><rect x="180.4" y="350.6" width="4.4" height="13.4" fill="#93c5fd" stroke="#60a5fa" stroke-width="0.5"/><rect x="184.8" y="359.5" width="4.4" height="4.5" fill="#93c5fd" stroke="#60a5fa" stroke-width="0.5"/><rect x="189.2" y="341.7" width="4.4" height="22.3" fill="#93c5fd" stroke="#60a5fa" stroke-width="0.5"/><rect x="193.5" y="359.5" width="4.4" height="4.5" fill="#93c5fd" stroke="#60a5fa" stroke-width="0.5"/><rect x="197.9" y="359.5" width="4.4" height="4.5" fill="#93c5fd" stroke="#60a5fa" stroke-width="0.5"/><rect x="202.3" y="359.5" width="4.4" height="4.5" fill="#93c5fd" stroke="#60a5fa" stroke-width="0.5"/><rect x="206.6" y="359.5" width="4.4" height="4.5" fill="#93c5fd" stroke="#60a5fa" stroke-width="0.5"/><rect x="211.0" y="359.5" width="4.4" height="4.5" fill="#93c5fd" stroke="#60a5fa" stroke-width="0.5"/><rect x="215.4" y="359.5" width="4.4" height="4.5" fill="#93c5fd" stroke="#60a5fa" stroke-width="0.5"/><rect x="219.8" y="359.5" width="4.4" height="4.5" fill="#93c5fd" stroke="#60a5fa" stroke-width="0.5"/><rect x="224.1" y="359.5" width="4.4" height="4.5" fill="#93c5fd" stroke="#60a5fa" stroke-width="0.5"/><rect x="228.5" y="359.5" width="4.4" height="4.5" fill="#93c5fd" stroke="#60a5fa" stroke-width="0.5"/><rect x="232.9" y="359.5" width="4.4" height="4.5" fill="#93c5fd" stroke="#60a5fa" stroke-width="0.5"/><rect x="237.2" y="359.5" width="4.4" height="4.5" fill="#93c5fd" stroke="#60a5fa" stroke-width="0.5"/><rect x="241.6" y="359.5" width="4.4" height="4.5" fill="#93c5fd" stroke="#60a5fa" stroke-width="0.5"/><rect x="246.0" y="359.5" width="4.4" height="4.5" fill="#93c5fd" stroke="#60a5fa" stroke-width="0.5"/><rect x="250.3" y="359.5" width="4.4" height="4.5" fill="#93c5fd" stroke="#60a5fa" stroke-width="0.5"/><rect x="254.7" y="350.6" width="4.4" height="13.4" fill="#93c5fd" stroke="#60a5fa" stroke-width="0.5"/><rect x="259.1" y="359.5" width="4.4" height="4.5" fill="#93c5fd" stroke="#60a5fa" stroke-width="0.5"/><rect x="263.4" y="359.5" width="4.4" height="4.5" fill="#93c5fd" stroke="#60a5fa" stroke-width="0.5"/><rect x="267.8" y="315.0" width="4.4" height="49.0" fill="#93c5fd" stroke="#60a5fa" stroke-width="0.5"/><rect x="272.2" y="359.5" width="4.4" height="4.5" fill="#93c5fd" stroke="#60a5fa" stroke-width="0.5"/><rect x="276.5" y="337.3" width="4.4" height="26.7" fill="#93c5fd" stroke="#60a5fa" stroke-width="0.5"/><rect x="280.9" y="328.3" width="4.4" height="35.7" fill="#93c5fd" stroke="#60a5fa" stroke-width="0.5"/><rect x="285.3" y="359.5" width="4.4" height="4.5" fill="#93c5fd" stroke="#60a5fa" stroke-width="0.5"/><rect x="289.6" y="355.1" width="4.4" height="8.9" fill="#93c5fd" stroke="#60a5fa" stroke-width="0.5"/><rect x="294.0" y="350.6" width="4.4" height="13.4" fill="#93c5fd" stroke="#60a5fa" stroke-width="0.5"/><rect x="298.4" y="355.1" width="4.4" height="8.9" fill="#93c5fd" stroke="#60a5fa" stroke-width="0.5"/><rect x="302.7" y="355.1" width="4.4" height="8.9" fill="#93c5fd" stroke="#60a5fa" stroke-width="0.5"/><rect x="307.1" y="350.6" width="4.4" height="13.4" fill="#93c5fd" stroke="#60a5fa" stroke-width="0.5"/><rect x="311.5" y="359.5" width="4.4" height="4.5" fill="#93c5fd" stroke="#60a5fa" stroke-width="0.5"/><rect x="315.8" y="359.5" width="4.4" height="4.5" fill="#93c5fd" stroke="#60a5fa" stroke-width="0.5"/><rect x="320.2" y="359.5" width="4.4" height="4.5" fill="#93c5fd" stroke="#60a5fa" stroke-width="0.5"/><rect x="324.6" y="359.5" width="4.4" height="4.5" fill="#93c5fd" stroke="#60a5fa" stroke-width="0.5"/><rect x="328.9" y="350.6" width="4.4" height="13.4" fill="#93c5fd" stroke="#60a5fa" stroke-width="0.5"/><rect x="333.3" y="359.5" width="4.4" height="4.5" fill="#93c5fd" stroke="#60a5fa" stroke-width="0.5"/><rect x="337.7" y="328.3" width="4.4" height="35.7" fill="#93c5fd" stroke="#60a5fa" stroke-width="0.5"/><rect x="342.0" y="359.5" width="4.4" height="4.5" fill="#93c5fd" stroke="#60a5fa" stroke-width="0.5"/><rect x="346.4" y="359.5" width="4.4" height="4.5" fill="#93c5fd" stroke="#60a5fa" stroke-width="0.5"/><rect x="350.8" y="359.5" width="4.4" height="4.5" fill="#93c5fd" stroke="#60a5fa" stroke-width="0.5"/><rect x="355.1" y="350.6" width="4.4" height="13.4" fill="#93c5fd" stroke="#60a5fa" stroke-width="0.5"/><rect x="359.5" y="359.5" width="4.4" height="4.5" fill="#93c5fd" stroke="#60a5fa" stroke-width="0.5"/><rect x="363.9" y="359.5" width="4.4" height="4.5" fill="#93c5fd" stroke="#60a5fa" stroke-width="0.5"/><rect x="368.2" y="355.1" width="4.4" height="8.9" fill="#93c5fd" stroke="#60a5fa" stroke-width="0.5"/><rect x="372.6" y="350.6" width="4.4" height="13.4" fill="#93c5fd" stroke="#60a5fa" stroke-width="0.5"/><rect x="377.0" y="359.5" width="4.4" height="4.5" fill="#93c5fd" stroke="#60a5fa" stroke-width="0.5"/><rect x="381.3" y="350.6" width="4.4" height="13.4" fill="#93c5fd" stroke="#60a5fa" stroke-width="0.5"/><rect x="385.7" y="355.1" width="4.4" height="8.9" fill="#93c5fd" stroke="#60a5fa" stroke-width="0.5"/><rect x="390.1" y="350.6" width="4.4" height="13.4" fill="#93c5fd" stroke="#60a5fa" stroke-width="0.5"/><rect x="394.4" y="359.5" width="4.4" height="4.5" fill="#93c5fd" stroke="#60a5fa" stroke-width="0.5"/><rect x="398.8" y="319.4" width="4.4" height="44.6" fill="#93c5fd" stroke="#60a5fa" stroke-width="0.5"/><rect x="403.2" y="346.2" width="4.4" height="17.8" fill="#93c5fd" stroke="#60a5fa" stroke-width="0.5"/><rect x="407.5" y="346.2" width="4.4" height="17.8" fill="#93c5fd" stroke="#60a5fa" stroke-width="0.5"/><rect x="411.9" y="359.5" width="4.4" height="4.5" fill="#93c5fd" stroke="#60a5fa" stroke-width="0.5"/><rect x="416.3" y="359.5" width="4.4" height="4.5" fill="#93c5fd" stroke="#60a5fa" stroke-width="0.5"/><rect x="420.6" y="359.5" width="4.4" height="4.5" fill="#93c5fd" stroke="#60a5fa" stroke-width="0.5"/><rect x="425.0" y="355.1" width="4.4" height="8.9" fill="#93c5fd" stroke="#60a5fa" stroke-width="0.5"/><rect x="429.4" y="355.1" width="4.4" height="8.9" fill="#93c5fd" stroke="#60a5fa" stroke-width="0.5"/><rect x="433.7" y="350.6" width="4.4" height="13.4" fill="#93c5fd" stroke="#60a5fa" stroke-width="0.5"/><rect x="438.1" y="355.1" width="4.4" height="8.9" fill="#93c5fd" stroke="#60a5fa" stroke-width="0.5"/><rect x="442.5" y="350.6" width="4.4" height="13.4" fill="#93c5fd" stroke="#60a5fa" stroke-width="0.5"/><rect x="446.8" y="359.5" width="4.4" height="4.5" fill="#93c5fd" stroke="#60a5fa" stroke-width="0.5"/><rect x="451.2" y="355.1" width="4.4" height="8.9" fill="#93c5fd" stroke="#60a5fa" stroke-width="0.5"/><rect x="455.6" y="359.5" width="4.4" height="4.5" fill="#93c5fd" stroke="#60a5fa" stroke-width="0.5"/><rect x="459.9" y="337.3" width="4.4" height="26.7" fill="#93c5fd" stroke="#60a5fa" stroke-width="0.5"/><rect x="464.3" y="359.5" width="4.4" height="4.5" fill="#93c5fd" stroke="#60a5fa" stroke-width="0.5"/><rect x="468.7" y="359.5" width="4.4" height="4.5" fill="#93c5fd" stroke="#60a5fa" stroke-width="0.5"/><rect x="473.0" y="359.5" width="4.4" height="4.5" fill="#93c5fd" stroke="#60a5fa" stroke-width="0.5"/><rect x="477.4" y="359.5" width="4.4" height="4.5" fill="#93c5fd" stroke="#60a5fa" stroke-width="0.5"/><rect x="481.8" y="359.5" width="4.4" height="4.5" fill="#93c5fd" stroke="#60a5fa" stroke-width="0.5"/><rect x="486.1" y="337.3" width="4.4" height="26.7" fill="#93c5fd" stroke="#60a5fa" stroke-width="0.5"/><rect x="490.5" y="359.5" width="4.4" height="4.5" fill="#93c5fd" stroke="#60a5fa" stroke-width="0.5"/><rect x="494.9" y="346.2" width="4.4" height="17.8" fill="#93c5fd" stroke="#60a5fa" stroke-width="0.5"/><rect x="499.2" y="319.4" width="4.4" height="44.6" fill="#93c5fd" stroke="#60a5fa" stroke-width="0.5"/><rect x="503.6" y="328.3" width="4.4" height="35.7" fill="#93c5fd" stroke="#60a5fa" stroke-width="0.5"/><rect x="508.0" y="355.1" width="4.4" height="8.9" fill="#93c5fd" stroke="#60a5fa" stroke-width="0.5"/><rect x="512.4" y="355.1" width="4.4" height="8.9" fill="#93c5fd" stroke="#60a5fa" stroke-width="0.5"/><rect x="516.7" y="355.1" width="4.4" height="8.9" fill="#93c5fd" stroke="#60a5fa" stroke-width="0.5"/><rect x="521.1" y="355.1" width="4.4" height="8.9" fill="#93c5fd" stroke="#60a5fa" stroke-width="0.5"/><rect x="525.5" y="350.6" width="4.4" height="13.4" fill="#93c5fd" stroke="#60a5fa" stroke-width="0.5"/><rect x="529.8" y="341.7" width="4.4" height="22.3" fill="#93c5fd" stroke="#60a5fa" stroke-width="0.5"/><rect x="534.2" y="359.5" width="4.4" height="4.5" fill="#93c5fd" stroke="#60a5fa" stroke-width="0.5"/><rect x="538.6" y="323.9" width="4.4" height="40.1" fill="#93c5fd" stroke="#60a5fa" stroke-width="0.5"/><rect x="542.9" y="355.1" width="4.4" height="8.9" fill="#93c5fd" stroke="#60a5fa" stroke-width="0.5"/><rect x="547.3" y="346.2" width="4.4" height="17.8" fill="#93c5fd" stroke="#60a5fa" stroke-width="0.5"/><rect x="551.7" y="355.1" width="4.4" height="8.9" fill="#93c5fd" stroke="#60a5fa" stroke-width="0.5"/><rect x="556.0" y="359.5" width="4.4" height="4.5" fill="#93c5fd" stroke="#60a5fa" stroke-width="0.5"/><rect x="560.4" y="359.5" width="4.4" height="4.5" fill="#93c5fd" stroke="#60a5fa" stroke-width="0.5"/><rect x="564.8" y="355.1" width="4.4" height="8.9" fill="#93c5fd" stroke="#60a5fa" stroke-width="0.5"/><rect x="569.1" y="350.6" width="4.4" height="13.4" fill="#93c5fd" stroke="#60a5fa" stroke-width="0.5"/><rect x="573.5" y="355.1" width="4.4" height="8.9" fill="#93c5fd" stroke="#60a5fa" stroke-width="0.5"/><rect x="577.9" y="315.0" width="4.4" height="49.0" fill="#93c5fd" stroke="#60a5fa" stroke-width="0.5"/><rect x="582.2" y="319.4" width="4.4" height="44.6" fill="#93c5fd" stroke="#60a5fa" stroke-width="0.5"/><rect x="586.6" y="346.2" width="4.4" height="17.8" fill="#93c5fd" stroke="#60a5fa" stroke-width="0.5"/><rect x="591.0" y="359.5" width="4.4" height="4.5" fill="#93c5fd" stroke="#60a5fa" stroke-width="0.5"/><rect x="595.3" y="328.3" width="4.4" height="35.7" fill="#93c5fd" stroke="#60a5fa" stroke-width="0.5"/><rect x="599.7" y="328.3" width="4.4" height="35.7" fill="#93c5fd" stroke="#60a5fa" stroke-width="0.5"/><rect x="604.1" y="257.0" width="4.4" height="107.0" fill="#93c5fd" stroke="#60a5fa" stroke-width="0.5"/><rect x="608.4" y="355.1" width="4.4" height="8.9" fill="#93c5fd" stroke="#60a5fa" stroke-width="0.5"/><rect x="612.8" y="341.7" width="4.4" height="22.3" fill="#93c5fd" stroke="#60a5fa" stroke-width="0.5"/><rect x="617.2" y="350.6" width="4.4" height="13.4" fill="#93c5fd" stroke="#60a5fa" stroke-width="0.5"/><rect x="621.5" y="306.1" width="4.4" height="57.9" fill="#93c5fd" stroke="#60a5fa" stroke-width="0.5"/><rect x="625.9" y="337.3" width="4.4" height="26.7" fill="#93c5fd" stroke="#60a5fa" stroke-width="0.5"/><rect x="630.3" y="301.6" width="4.4" height="62.4" fill="#93c5fd" stroke="#60a5fa" stroke-width="0.5"/><rect x="634.6" y="319.4" width="4.4" height="44.6" fill="#93c5fd" stroke="#60a5fa" stroke-width="0.5"/><rect x="639.0" y="355.1" width="4.4" height="8.9" fill="#93c5fd" stroke="#60a5fa" stroke-width="0.5"/><rect x="643.4" y="359.5" width="4.4" height="4.5" fill="#93c5fd" stroke="#60a5fa" stroke-width="0.5"/><rect x="647.7" y="341.7" width="4.4" height="22.3" fill="#93c5fd" stroke="#60a5fa" stroke-width="0.5"/><rect x="652.1" y="306.1" width="4.4" height="57.9" fill="#93c5fd" stroke="#60a5fa" stroke-width="0.5"/><rect x="656.5" y="346.2" width="4.4" height="17.8" fill="#93c5fd" stroke="#60a5fa" stroke-width="0.5"/><rect x="660.8" y="257.0" width="4.4" height="107.0" fill="#93c5fd" stroke="#60a5fa" stroke-width="0.5"/><rect x="665.2" y="341.7" width="4.4" height="22.3" fill="#93c5fd" stroke="#60a5fa" stroke-width="0.5"/><rect x="669.6" y="52.0" width="4.4" height="312.0" fill="#93c5fd" stroke="#60a5fa" stroke-width="0.5"/><rect x="673.9" y="288.2" width="4.4" height="75.8" fill="#93c5fd" stroke="#60a5fa" stroke-width="0.5"/><rect x="678.3" y="350.6" width="4.4" height="13.4" fill="#93c5fd" stroke="#60a5fa" stroke-width="0.5"/><rect x="682.7" y="355.1" width="4.4" height="8.9" fill="#93c5fd" stroke="#60a5fa" stroke-width="0.5"/><rect x="687.0" y="181.3" width="4.4" height="182.7" fill="#93c5fd" stroke="#60a5fa" stroke-width="0.5"/><rect x="691.4" y="337.3" width="4.4" height="26.7" fill="#93c5fd" stroke="#60a5fa" stroke-width="0.5"/><rect x="695.8" y="350.6" width="4.4" height="13.4" fill="#93c5fd" stroke="#60a5fa" stroke-width="0.5"/><rect x="700.1" y="355.1" width="4.4" height="8.9" fill="#93c5fd" stroke="#60a5fa" stroke-width="0.5"/><rect x="704.5" y="346.2" width="4.4" height="17.8" fill="#93c5fd" stroke="#60a5fa" stroke-width="0.5"/><rect x="708.9" y="328.3" width="4.4" height="35.7" fill="#93c5fd" stroke="#60a5fa" stroke-width="0.5"/><rect x="713.2" y="359.5" width="4.4" height="4.5" fill="#93c5fd" stroke="#60a5fa" stroke-width="0.5"/><rect x="717.6" y="359.5" width="4.4" height="4.5" fill="#93c5fd" stroke="#60a5fa" stroke-width="0.5"/><rect x="722.0" y="346.2" width="4.4" height="17.8" fill="#93c5fd" stroke="#60a5fa" stroke-width="0.5"/><rect x="726.3" y="341.7" width="4.4" height="22.3" fill="#93c5fd" stroke="#60a5fa" stroke-width="0.5"/><rect x="730.7" y="337.3" width="4.4" height="26.7" fill="#93c5fd" stroke="#60a5fa" stroke-width="0.5"/><rect x="735.1" y="337.3" width="4.4" height="26.7" fill="#93c5fd" stroke="#60a5fa" stroke-width="0.5"/><rect x="739.4" y="359.5" width="4.4" height="4.5" fill="#93c5fd" stroke="#60a5fa" stroke-width="0.5"/><rect x="743.8" y="341.7" width="4.4" height="22.3" fill="#93c5fd" stroke="#60a5fa" stroke-width="0.5"/><rect x="748.2" y="332.8" width="4.4" height="31.2" fill="#93c5fd" stroke="#60a5fa" stroke-width="0.5"/><rect x="752.5" y="332.8" width="4.4" height="31.2" fill="#93c5fd" stroke="#60a5fa" stroke-width="0.5"/><rect x="756.9" y="328.3" width="4.4" height="35.7" fill="#93c5fd" stroke="#60a5fa" stroke-width="0.5"/><rect x="761.3" y="323.9" width="4.4" height="40.1" fill="#93c5fd" stroke="#60a5fa" stroke-width="0.5"/><rect x="765.6" y="332.8" width="4.4" height="31.2" fill="#93c5fd" stroke="#60a5fa" stroke-width="0.5"/><rect x="770.0" y="346.2" width="4.4" height="17.8" fill="#93c5fd" stroke="#60a5fa" stroke-width="0.5"/><rect x="774.4" y="350.6" width="4.4" height="13.4" fill="#93c5fd" stroke="#60a5fa" stroke-width="0.5"/><rect x="778.8" y="350.6" width="4.4" height="13.4" fill="#93c5fd" stroke="#60a5fa" stroke-width="0.5"/><rect x="783.1" y="332.8" width="4.4" height="31.2" fill="#93c5fd" stroke="#60a5fa" stroke-width="0.5"/><rect x="787.5" y="359.5" width="4.4" height="4.5" fill="#93c5fd" stroke="#60a5fa" stroke-width="0.5"/><rect x="791.9" y="350.6" width="4.4" height="13.4" fill="#93c5fd" stroke="#60a5fa" stroke-width="0.5"/><rect x="796.2" y="355.1" width="4.4" height="8.9" fill="#93c5fd" stroke="#60a5fa" stroke-width="0.5"/><rect x="800.6" y="355.1" width="4.4" height="8.9" fill="#93c5fd" stroke="#60a5fa" stroke-width="0.5"/><rect x="805.0" y="355.1" width="4.4" height="8.9" fill="#93c5fd" stroke="#60a5fa" stroke-width="0.5"/><rect x="809.3" y="355.1" width="4.4" height="8.9" fill="#93c5fd" stroke="#60a5fa" stroke-width="0.5"/><rect x="813.7" y="359.5" width="4.4" height="4.5" fill="#93c5fd" stroke="#60a5fa" stroke-width="0.5"/><rect x="818.1" y="359.5" width="4.4" height="4.5" fill="#93c5fd" stroke="#60a5fa" stroke-width="0.5"/><rect x="822.4" y="337.3" width="4.4" height="26.7" fill="#93c5fd" stroke="#60a5fa" stroke-width="0.5"/><rect x="826.8" y="355.1" width="4.4" height="8.9" fill="#93c5fd" stroke="#60a5fa" stroke-width="0.5"/><rect x="831.2" y="328.3" width="4.4" height="35.7" fill="#93c5fd" stroke="#60a5fa" stroke-width="0.5"/><rect x="835.5" y="350.6" width="4.4" height="13.4" fill="#93c5fd" stroke="#60a5fa" stroke-width="0.5"/><rect x="839.9" y="328.3" width="4.4" height="35.7" fill="#93c5fd" stroke="#60a5fa" stroke-width="0.5"/><rect x="844.3" y="332.8" width="4.4" height="31.2" fill="#93c5fd" stroke="#60a5fa" stroke-width="0.5"/><rect x="848.6" y="328.3" width="4.4" height="35.7" fill="#93c5fd" stroke="#60a5fa" stroke-width="0.5"/><rect x="853.0" y="341.7" width="4.4" height="22.3" fill="#93c5fd" stroke="#60a5fa" stroke-width="0.5"/><rect x="857.4" y="355.1" width="4.4" height="8.9" fill="#93c5fd" stroke="#60a5fa" stroke-width="0.5"/><rect x="861.7" y="355.1" width="4.4" height="8.9" fill="#93c5fd" stroke="#60a5fa" stroke-width="0.5"/><rect x="866.1" y="319.4" width="4.4" height="44.6" fill="#93c5fd" stroke="#60a5fa" stroke-width="0.5"/><rect x="870.5" y="315.0" width="4.4" height="49.0" fill="#93c5fd" stroke="#60a5fa" stroke-width="0.5"/><rect x="874.8" y="328.3" width="4.4" height="35.7" fill="#93c5fd" stroke="#60a5fa" stroke-width="0.5"/><rect x="879.2" y="323.9" width="4.4" height="40.1" fill="#93c5fd" stroke="#60a5fa" stroke-width="0.5"/><rect x="883.6" y="341.7" width="4.4" height="22.3" fill="#93c5fd" stroke="#60a5fa" stroke-width="0.5"/><rect x="887.9" y="359.5" width="4.4" height="4.5" fill="#93c5fd" stroke="#60a5fa" stroke-width="0.5"/><rect x="892.3" y="350.6" width="4.4" height="13.4" fill="#93c5fd" stroke="#60a5fa" stroke-width="0.5"/><rect x="896.7" y="359.5" width="4.4" height="4.5" fill="#93c5fd" stroke="#60a5fa" stroke-width="0.5"/><rect x="901.0" y="346.2" width="4.4" height="17.8" fill="#93c5fd" stroke="#60a5fa" stroke-width="0.5"/><rect x="905.4" y="346.2" width="4.4" height="17.8" fill="#93c5fd" stroke="#60a5fa" stroke-width="0.5"/><rect x="909.8" y="341.7" width="4.4" height="22.3" fill="#93c5fd" stroke="#60a5fa" stroke-width="0.5"/><rect x="914.1" y="359.5" width="4.4" height="4.5" fill="#93c5fd" stroke="#60a5fa" stroke-width="0.5"/><rect x="918.5" y="359.5" width="4.4" height="4.5" fill="#93c5fd" stroke="#60a5fa" stroke-width="0.5"/><rect x="922.9" y="315.0" width="4.4" height="49.0" fill="#93c5fd" stroke="#60a5fa" stroke-width="0.5"/><rect x="927.2" y="230.3" width="4.4" height="133.7" fill="#93c5fd" stroke="#60a5fa" stroke-width="0.5"/><rect x="931.6" y="297.1" width="4.4" height="66.9" fill="#93c5fd" stroke="#60a5fa" stroke-width="0.5"/><rect x="936.0" y="359.5" width="4.4" height="4.5" fill="#93c5fd" stroke="#60a5fa" stroke-width="0.5"/><rect x="940.3" y="319.4" width="4.4" height="44.6" fill="#93c5fd" stroke="#60a5fa" stroke-width="0.5"/><rect x="944.7" y="355.1" width="4.4" height="8.9" fill="#93c5fd" stroke="#60a5fa" stroke-width="0.5"/><rect x="949.1" y="341.7" width="4.4" height="22.3" fill="#93c5fd" stroke="#60a5fa" stroke-width="0.5"/><rect x="953.4" y="315.0" width="4.4" height="49.0" fill="#93c5fd" stroke="#60a5fa" stroke-width="0.5"/><rect x="957.8" y="350.6" width="4.4" height="13.4" fill="#93c5fd" stroke="#60a5fa" stroke-width="0.5"/><rect x="962.2" y="279.3" width="4.4" height="84.7" fill="#93c5fd" stroke="#60a5fa" stroke-width="0.5"/><rect x="966.5" y="132.2" width="4.4" height="231.8" fill="#93c5fd" stroke="#60a5fa" stroke-width="0.5"/><rect x="970.9" y="359.5" width="4.4" height="4.5" fill="#93c5fd" stroke="#60a5fa" stroke-width="0.5"/><rect x="975.3" y="212.5" width="4.4" height="151.5" fill="#93c5fd" stroke="#60a5fa" stroke-width="0.5"/><rect x="979.6" y="355.1" width="4.4" height="8.9" fill="#93c5fd" stroke="#60a5fa" stroke-width="0.5"/><rect x="984.0" y="252.6" width="4.4" height="111.4" fill="#93c5fd" stroke="#60a5fa" stroke-width="0.5"/><rect x="988.4" y="359.5" width="4.4" height="4.5" fill="#93c5fd" stroke="#60a5fa" stroke-width="0.5"/><rect x="992.7" y="337.3" width="4.4" height="26.7" fill="#93c5fd" stroke="#60a5fa" stroke-width="0.5"/><rect x="997.1" y="355.1" width="4.4" height="8.9" fill="#93c5fd" stroke="#60a5fa" stroke-width="0.5"/><rect x="1001.5" y="306.1" width="4.4" height="57.9" fill="#93c5fd" stroke="#60a5fa" stroke-width="0.5"/><rect x="1005.8" y="332.8" width="4.4" height="31.2" fill="#93c5fd" stroke="#60a5fa" stroke-width="0.5"/><rect x="1010.2" y="355.1" width="4.4" height="8.9" fill="#93c5fd" stroke="#60a5fa" stroke-width="0.5"/><rect x="1014.6" y="252.6" width="4.4" height="111.4" fill="#93c5fd" stroke="#60a5fa" stroke-width="0.5"/><rect x="1018.9" y="346.2" width="4.4" height="17.8" fill="#93c5fd" stroke="#60a5fa" stroke-width="0.5"/><rect x="1023.3" y="328.3" width="4.4" height="35.7" fill="#93c5fd" stroke="#60a5fa" stroke-width="0.5"/><rect x="1027.7" y="350.6" width="4.4" height="13.4" fill="#93c5fd" stroke="#60a5fa" stroke-width="0.5"/><rect x="1032.0" y="319.4" width="4.4" height="44.6" fill="#93c5fd" stroke="#60a5fa" stroke-width="0.5"/><rect x="1036.4" y="359.5" width="4.4" height="4.5" fill="#93c5fd" stroke="#60a5fa" stroke-width="0.5"/><rect x="1040.8" y="292.7" width="4.4" height="71.3" fill="#93c5fd" stroke="#60a5fa" stroke-width="0.5"/><rect x="1045.1" y="323.9" width="4.4" height="40.1" fill="#93c5fd" stroke="#60a5fa" stroke-width="0.5"/><rect x="1049.5" y="350.6" width="4.4" height="13.4" fill="#93c5fd" stroke="#60a5fa" stroke-width="0.5"/><rect x="1053.9" y="301.6" width="4.4" height="62.4" fill="#93c5fd" stroke="#60a5fa" stroke-width="0.5"/><rect x="1058.2" y="355.1" width="4.4" height="8.9" fill="#93c5fd" stroke="#60a5fa" stroke-width="0.5"/><rect x="1062.6" y="359.5" width="4.4" height="4.5" fill="#93c5fd" stroke="#60a5fa" stroke-width="0.5"/><rect x="1067.0" y="355.1" width="4.4" height="8.9" fill="#93c5fd" stroke="#60a5fa" stroke-width="0.5"/><rect x="1071.4" y="350.6" width="4.4" height="13.4" fill="#93c5fd" stroke="#60a5fa" stroke-width="0.5"/><rect x="1075.7" y="310.5" width="4.4" height="53.5" fill="#93c5fd" stroke="#60a5fa" stroke-width="0.5"/><rect x="1080.1" y="341.7" width="4.4" height="22.3" fill="#93c5fd" stroke="#60a5fa" stroke-width="0.5"/><rect x="1084.5" y="355.1" width="4.4" height="8.9" fill="#93c5fd" stroke="#60a5fa" stroke-width="0.5"/><rect x="1088.8" y="359.5" width="4.4" height="4.5" fill="#93c5fd" stroke="#60a5fa" stroke-width="0.5"/><rect x="1093.2" y="350.6" width="4.4" height="13.4" fill="#93c5fd" stroke="#60a5fa" stroke-width="0.5"/><rect x="1097.6" y="355.1" width="4.4" height="8.9" fill="#93c5fd" stroke="#60a5fa" stroke-width="0.5"/><rect x="1101.9" y="265.9" width="4.4" height="98.1" fill="#93c5fd" stroke="#60a5fa" stroke-width="0.5"/><rect x="1106.3" y="323.9" width="4.4" height="40.1" fill="#93c5fd" stroke="#60a5fa" stroke-width="0.5"/><rect x="1110.7" y="332.8" width="4.4" height="31.2" fill="#93c5fd" stroke="#60a5fa" stroke-width="0.5"/><rect x="1115.0" y="359.5" width="4.4" height="4.5" fill="#93c5fd" stroke="#60a5fa" stroke-width="0.5"/><rect x="1119.4" y="328.3" width="4.4" height="35.7" fill="#93c5fd" stroke="#60a5fa" stroke-width="0.5"/><rect x="1123.8" y="350.6" width="4.4" height="13.4" fill="#93c5fd" stroke="#60a5fa" stroke-width="0.5"/><rect x="1128.1" y="301.6" width="4.4" height="62.4" fill="#93c5fd" stroke="#60a5fa" stroke-width="0.5"/><rect x="1132.5" y="212.5" width="4.4" height="151.5" fill="#93c5fd" stroke="#60a5fa" stroke-width="0.5"/><rect x="1136.9" y="346.2" width="4.4" height="17.8" fill="#93c5fd" stroke="#60a5fa" stroke-width="0.5"/><rect x="1141.2" y="279.3" width="4.4" height="84.7" fill="#93c5fd" stroke="#60a5fa" stroke-width="0.5"/><rect x="1145.6" y="359.5" width="4.4" height="4.5" fill="#93c5fd" stroke="#60a5fa" stroke-width="0.5"/><rect x="1150.0" y="190.2" width="4.4" height="173.8" fill="#93c5fd" stroke="#60a5fa" stroke-width="0.5"/><rect x="1154.3" y="310.5" width="4.4" height="53.5" fill="#93c5fd" stroke="#60a5fa" stroke-width="0.5"/><rect x="1158.7" y="306.1" width="4.4" height="57.9" fill="#93c5fd" stroke="#60a5fa" stroke-width="0.5"/><rect x="1163.1" y="355.1" width="4.4" height="8.9" fill="#93c5fd" stroke="#60a5fa" stroke-width="0.5"/><rect x="1167.4" y="323.9" width="4.4" height="40.1" fill="#93c5fd" stroke="#60a5fa" stroke-width="0.5"/><rect x="1171.8" y="346.2" width="4.4" height="17.8" fill="#93c5fd" stroke="#60a5fa" stroke-width="0.5"/><rect x="1176.2" y="328.3" width="4.4" height="35.7" fill="#93c5fd" stroke="#60a5fa" stroke-width="0.5"/><rect x="1180.5" y="350.6" width="4.4" height="13.4" fill="#93c5fd" stroke="#60a5fa" stroke-width="0.5"/><rect x="1184.9" y="359.5" width="4.4" height="4.5" fill="#93c5fd" stroke="#60a5fa" stroke-width="0.5"/><rect x="1189.3" y="346.2" width="4.4" height="17.8" fill="#93c5fd" stroke="#60a5fa" stroke-width="0.5"/><rect x="1193.6" y="359.5" width="4.4" height="4.5" fill="#93c5fd" stroke="#60a5fa" stroke-width="0.5"/><polyline fill="none" stroke="#ef4444" stroke-width="2" points="82.2,363.1 86.6,362.9 90.9,362.7 95.3,362.2 99.7,362.0 104.0,361.4 108.4,361.1 112.8,360.9 117.1,360.7 121.5,360.5 125.9,360.3 130.2,360.0 134.6,359.8 139.0,359.4 143.3,358.5 147.7,358.3 152.1,358.1 156.4,357.4 160.8,356.3 165.2,353.4 169.5,353.0 173.9,352.3 178.3,352.1 182.6,351.4 187.0,351.2 191.4,350.1 195.7,349.9 200.1,349.7 204.5,349.5 208.8,349.2 213.2,349.0 217.6,348.8 221.9,348.6 226.3,348.4 230.7,348.1 235.0,347.9 239.4,347.7 243.8,347.5 248.1,347.3 252.5,347.0 256.9,346.4 261.2,346.2 265.6,345.9 270.0,343.5 274.3,343.3 278.7,342.0 283.1,340.2 287.4,340.0 291.8,339.6 296.2,338.9 300.5,338.5 304.9,338.0 309.3,337.4 313.6,337.1 318.0,336.9 322.4,336.7 326.7,336.5 331.1,335.8 335.5,335.6 339.8,333.8 344.2,333.6 348.6,333.4 352.9,333.2 357.3,332.5 361.7,332.3 366.1,332.1 370.4,331.6 374.8,331.0 379.2,330.8 383.5,330.1 387.9,329.7 392.3,329.0 396.6,328.8 401.0,326.6 405.4,325.7 409.7,324.8 414.1,324.6 418.5,324.4 422.8,324.1 427.2,323.7 431.6,323.3 435.9,322.6 440.3,322.2 444.7,321.5 449.0,321.3 453.4,320.8 457.8,320.6 462.1,319.3 466.5,319.1 470.9,318.9 475.2,318.6 479.6,318.4 484.0,318.2 488.3,316.9 492.7,316.7 497.1,315.8 501.4,313.6 505.8,311.8 510.2,311.4 514.5,310.9 518.9,310.5 523.3,310.1 527.6,309.4 532.0,308.3 536.4,308.1 540.7,306.1 545.1,305.7 549.5,304.8 553.8,304.3 558.2,304.1 562.6,303.9 566.9,303.4 571.3,302.8 575.7,302.3 580.0,299.9 584.4,297.7 588.8,296.8 593.1,296.6 597.5,294.9 601.9,293.1 606.2,287.8 610.6,287.4 615.0,286.3 619.3,285.6 623.7,282.8 628.1,281.4 632.4,278.3 636.8,276.1 641.2,275.7 645.6,275.5 649.9,274.4 654.3,271.5 658.7,270.6 663.0,265.4 667.4,264.3 671.8,248.8 676.1,245.1 680.5,244.4 684.9,244.0 689.2,235.0 693.6,233.7 698.0,233.0 702.3,232.6 706.7,231.7 711.1,229.9 715.4,229.7 719.8,229.5 724.2,228.6 728.5,227.5 732.9,226.2 737.3,224.8 741.6,224.6 746.0,223.5 750.4,222.0 754.7,220.4 759.1,218.7 763.5,216.7 767.8,215.2 772.2,214.3 776.6,213.6 780.9,213.0 785.3,211.4 789.7,211.2 794.0,210.5 798.4,210.1 802.8,209.7 807.1,209.2 811.5,208.8 815.9,208.6 820.2,208.3 824.6,207.0 829.0,206.6 833.3,204.8 837.7,204.1 842.1,202.4 846.4,200.8 850.8,199.1 855.2,198.0 859.5,197.5 863.9,197.1 868.3,194.9 872.6,192.5 877.0,190.7 881.4,188.7 885.7,187.6 890.1,187.4 894.5,186.8 898.8,186.5 903.2,185.7 907.6,184.8 911.9,183.7 916.3,183.4 920.7,183.2 925.1,180.8 929.4,174.2 933.8,170.9 938.2,170.7 942.5,168.5 946.9,168.0 951.3,166.9 955.6,164.5 960.0,163.9 964.4,159.7 968.7,148.2 973.1,148.0 977.5,140.5 981.8,140.1 986.2,134.6 990.6,134.3 994.9,133.0 999.3,132.6 1003.7,129.7 1008.0,128.2 1012.4,127.7 1016.8,122.2 1021.1,121.4 1025.5,119.6 1029.9,118.9 1034.2,116.7 1038.6,116.5 1043.0,113.0 1047.3,111.0 1051.7,110.3 1056.1,107.3 1060.4,106.8 1064.8,106.6 1069.2,106.2 1073.5,105.5 1077.9,102.9 1082.3,101.8 1086.6,101.3 1091.0,101.1 1095.4,100.4 1099.7,100.0 1104.1,95.2 1108.5,93.2 1112.8,91.6 1117.2,91.4 1121.6,89.7 1125.9,89.0 1130.3,85.9 1134.7,78.4 1139.0,77.5 1143.4,73.4 1147.8,73.1 1152.1,64.6 1156.5,61.9 1160.9,59.0 1165.2,58.6 1169.6,56.6 1174.0,55.7 1178.3,54.0 1182.7,53.3 1187.1,53.1 1191.4,52.2 1195.8,52.0"/><line x1="82.2" y1="364.0" x2="82.2" y2="370.0" stroke="#111827" stroke-width="1"/><text x="84.2" y="386.0" font-size="11" text-anchor="end" transform="rotate(-35 84.2 386.0)" font-family="sans-serif" fill="#374151">2022-10-13</text><line x1="239.4" y1="364.0" x2="239.4" y2="370.0" stroke="#111827" stroke-width="1"/><text x="241.4" y="386.0" font-size="11" text-anchor="end" transform="rotate(-35 241.4 386.0)" font-family="sans-serif" fill="#374151">2025-03-24</text><line x1="401.0" y1="364.0" x2="401.0" y2="370.0" stroke="#111827" stroke-width="1"/><text x="403.0" y="386.0" font-size="11" text-anchor="end" transform="rotate(-35 403.0 386.0)" font-family="sans-serif" fill="#374151">2025-07-21</text><line x1="558.2" y1="364.0" x2="558.2" y2="370.0" stroke="#111827" stroke-width="1"/><text x="560.2" y="386.0" font-size="11" text-anchor="end" transform="rotate(-35 560.2 386.0)" font-family="sans-serif" fill="#374151">2025-09-27</text><line x1="719.8" y1="364.0" x2="719.8" y2="370.0" stroke="#111827" stroke-width="1"/><text x="721.8" y="386.0" font-size="11" text-anchor="end" transform="rotate(-35 721.8 386.0)" font-family="sans-serif" fill="#374151">2025-11-20</text><line x1="877.0" y1="364.0" x2="877.0" y2="370.0" stroke="#111827" stroke-width="1"/><text x="879.0" y="386.0" font-size="11" text-anchor="end" transform="rotate(-35 879.0 386.0)" font-family="sans-serif" fill="#374151">2026-01-07</text><line x1="1038.6" y1="364.0" x2="1038.6" y2="370.0" stroke="#111827" stroke-width="1"/><text x="1040.6" y="386.0" font-size="11" text-anchor="end" transform="rotate(-35 1040.6 386.0)" font-family="sans-serif" fill="#374151">2026-02-19</text><line x1="1195.8" y1="364.0" x2="1195.8" y2="370.0" stroke="#111827" stroke-width="1"/><text x="1197.8" y="386.0" font-size="11" text-anchor="end" transform="rotate(-35 1197.8 386.0)" font-family="sans-serif" fill="#374151">2026-04-10</text><text x="26" y="208.0" font-size="12" transform="rotate(-90 26 208.0)" text-anchor="middle" font-family="sans-serif" fill="#1f2937">구간별 수</text><text x="1256.0" y="208.0" font-size="12" transform="rotate(90 1256.0 208.0)" text-anchor="middle" font-family="sans-serif" fill="#1f2937">누적</text><text x="639.0" y="442.0" font-size="13" text-anchor="middle" font-family="sans-serif" fill="#111827">일</text></svg>