<svg xmlns="http://www.w3.org/2000/svg" width="1280" height="460" viewBox="0 0 1280 460"><rect x="0" y="0" width="100%" height="100%" fill="#ffffff"/><text x="640.0" y="28" font-size="20" text-anchor="middle" font-family="sans-serif" fill="#111827">시리즈 / 최근 반영 시점 / 시간별</text><line x1="80.0" y1="52.0" x2="1198.0" y2="52.0" stroke="#e5e7eb" stroke-width="1"/><text x="72.0" y="56.0" font-size="11" text-anchor="end" font-family="sans-serif" fill="#374151">1,317</text><text x="1206.0" y="56.0" font-size="11" text-anchor="start" font-family="sans-serif" fill="#374151">1,417</text><line x1="80.0" y1="114.4" x2="1198.0" y2="114.4" stroke="#e5e7eb" stroke-width="1"/><text x="72.0" y="118.4" font-size="11" text-anchor="end" font-family="sans-serif" fill="#374151">1,054</text><text x="1206.0" y="118.4" font-size="11" text-anchor="start" font-family="sans-serif" fill="#374151">1,134</text><line x1="80.0" y1="176.8" x2="1198.0" y2="176.8" stroke="#e5e7eb" stroke-width="1"/><text x="72.0" y="180.8" font-size="11" text-anchor="end" font-family="sans-serif" fill="#374151">790</text><text x="1206.0" y="180.8" font-size="11" text-anchor="start" font-family="sans-serif" fill="#374151">850</text><line x1="80.0" y1="239.2" x2="1198.0" y2="239.2" stroke="#e5e7eb" stroke-width="1"/><text x="72.0" y="243.2" font-size="11" text-anchor="end" font-family="sans-serif" fill="#374151">527</text><text x="1206.0" y="243.2" font-size="11" text-anchor="start" font-family="sans-serif" fill="#374151">567</text><line x1="80.0" y1="301.6" x2="1198.0" y2="301.6" stroke="#e5e7eb" stroke-width="1"/><text x="72.0" y="305.6" font-size="11" text-anchor="end" font-family="sans-serif" fill="#374151">263</text><text x="1206.0" y="305.6" font-size="11" text-anchor="start" font-family="sans-serif" fill="#374151">283</text><line x1="80.0" y1="364.0" x2="1198.0" y2="364.0" stroke="#e5e7eb" stroke-width="1"/><text x="72.0" y="368.0" font-size="11" text-anchor="end" font-family="sans-serif" fill="#374151">0</text><text x="1206.0" y="368.0" font-size="11" text-anchor="start" font-family="sans-serif" fill="#374151">0</text><line x1="80.0" y1="364.0" x2="1198.0" y2="364.0" stroke="#111827" stroke-width="1.2"/><line x1="80.0" y1="52.0" x2="80.0" y2="364.0" stroke="#111827" stroke-width="1.2"/><line x1="1198.0" y1="52.0" x2="1198.0" y2="364.0" stroke="#111827" stroke-width="1.2"/><rect x="81.0" y="363.8" width="122.2" height="0.2" fill="#93c5fd" stroke="#60a5fa" stroke-width="0.5"/><rect x="205.2" y="363.3" width="122.2" height="0.7" fill="#93c5fd" stroke="#60a5fa" stroke-width="0.5"/><rect x="329.4" y="362.8" width="122.2" height="1.2" fill="#93c5fd" stroke="#60a5fa" stroke-width="0.5"/><rect x="453.7" y="362.1" width="122.2" height="1.9" fill="#93c5fd" stroke="#60a5fa" stroke-width="0.5"/><rect x="577.9" y="363.5" width="122.2" height="0.5" fill="#93c5fd" stroke="#60a5fa" stroke-width="0.5"/><rect x="702.1" y="350.5" width="122.2" height="13.5" fill="#93c5fd" stroke="#60a5fa" stroke-width="0.5"/><rect x="826.3" y="360.4" width="122.2" height="3.6" fill="#93c5fd" stroke="#60a5fa" stroke-width="0.5"/><rect x="950.6" y="361.9" width="122.2" height="2.1" fill="#93c5fd" stroke="#60a5fa" stroke-width="0.5"/><rect x="1074.8" y="52.0" width="122.2" height="312.0" fill="#93c5fd" stroke="#60a5fa" stroke-width="0.5"/><polyline fill="none" stroke="#ef4444" stroke-width="2" points="142.1,363.8 266.3,363.1 390.6,362.0 514.8,360.3 639.0,359.8 763.2,347.3 887.4,344.0 1011.7,342.0 1135.9,52.0"/><line x1="142.1" y1="364.0" x2="142.1" y2="370.0" stroke="#111827" stroke-width="1"/><text x="144.1" y="386.0" font-size="11" text-anchor="end" transform="rotate(-35 144.1 386.0)" font-family="sans-serif" fill="#374151">2026-04-10 02:00</text><line x1="266.3" y1="364.0" x2="266.3" y2="370.0" stroke="#111827" stroke-width="1"/><text x="268.3" y="386.0" font-size="11" text-anchor="end" transform="rotate(-35 268.3 386.0)" font-family="sans-serif" fill="#374151">2026-04-10 12:00</text><line x1="390.6" y1="364.0" x2="390.6" y2="370.0" stroke="#111827" stroke-width="1"/><text x="392.6" y="386.0" font-size="11" text-anchor="end" transform="rotate(-35 392.6 386.0)" font-family="sans-serif" fill="#374151">2026-04-10 15:00</text><line x1="514.8" y1="364.0" x2="514.8" y2="370.0" stroke="#111827" stroke-width="1"/><text x="516.8" y="386.0" font-size="11" text-anchor="end" transform="rotate(-35 516.8 386.0)" font-family="sans-serif" fill="#374151">2026-04-10 16:00</text><line x1="763.2" y1="364.0" x2="763.2" y2="370.0" stroke="#111827" stroke-width="1"/><text x="765.2" y="386.0" font-size="11" text-anchor="end" transform="rotate(-35 765.2 386.0)" font-family="sans-serif" fill="#374151">2026-04-10 18:00</text><line x1="887.4" y1="364.0" x2="887.4" y2="370.0" stroke="#111827" stroke-width="1"/><text x="889.4" y="386.0" font-size="11" text-anchor="end" transform="rotate(-35 889.4 386.0)" font-family="sans-serif" fill="#374151">2026-04-10 19:00</text><line x1="1011.7" y1="364.0" x2="1011.7" y2="370.0" stroke="#111827" stroke-width="1"/><text x="1013.7" y="386.0" font-size="11" text-anchor="end" transform="rotate(-35 1013.7 386.0)" font-family="sans-serif" fill="#374151">2026-04-10 21:00</text><line x1="1135.9" y1="364.0" x2="1135.9" y2="370.0" stroke="#111827" stroke-width="1"/><text x="1137.9" y="386.0" font-size="11" text-anchor="end" transform="rotate(-35 1137.9 386.0)" font-family="sans-serif" fill="#374151">2026-04-10 22:00</text><text x="26" y="208.0" font-size="12" transform="rotate(-90 26 208.0)" text-anchor="middle" font-family="sans-serif" fill="#1f2937">구간별 수</text><text x="1256.0" y="208.0" font-size="12" transform="rotate(90 1256.0 208.0)" text-anchor="middle" font-family="sans-serif" fill="#1f2937">누적</text><text x="639.0" y="442.0" font-size="13" text-anchor="middle" font-family="sans-serif" fill="#111827">시간</text></svg>